<?xml version="1.0" encoding="UTF-8" standalone="no"?>
<!DOCTYPE svg PUBLIC "-//W3C//DTD SVG 1.1//EN" "http://www.w3.org/Graphics/SVG/1.1/DTD/svg11.dtd">
<svg xmlns="http://www.w3.org/2000/svg" version="1.1" viewBox="0.00 50.00 400.00 600.00">
<g stroke-width="2.00" fill="none" stroke-linecap="butt">
<path stroke="#747373" vector-effect="non-scaling-stroke" d="
  M 194.04 509.36
  C 201.28 502.05 202.21 492.31 198.30 482.93
  C 194.07 472.78 188.90 463.38 191.38 456.92
  Q 199.19 436.58 209.92 414.38
  C 212.78 408.47 215.14 402.56 218.14 396.10
  C 226.76 377.50 233.43 363.81 239.75 350.55
  Q 243.40 342.91 244.39 341.61
  C 249.01 335.53 254.89 332.46 262.96 330.70
  C 274.87 328.11 285.78 323.74 294.32 314.82
  Q 296.46 312.58 297.53 309.54
  C 301.40 298.54 298.55 285.95 288.26 279.61
  Q 286.99 278.83 285.31 278.38
  C 282.30 277.57 279.99 276.84 277.41 276.64
  Q 266.89 275.81 259.13 277.36
  Q 253.60 278.46 250.85 277.87
  Q 245.75 276.77 242.62 273.92
  A 5.78 5.58 -86.5 0 1 241.74 272.89
  Q 236.49 265.03 235.53 263.75
  Q 228.46 254.27 217.73 250.99
  A 5.54 5.34 -35.2 0 0 216.23 250.76
  C 211.32 250.68 205.54 250.22 201.10 253.58
  Q 195.83 257.56 191.26 263.88
  C 189.87 265.81 189.47 269.11 188.59 271.30
  A 3.58 3.37 60.4 0 0 188.36 272.24
  Q 188.02 276.33 188.42 278.09
  Q 190.21 285.79 194.37 294.63
  Q 197.65 301.62 197.89 308.83
  C 197.99 311.93 197.93 315.44 196.80 318.30
  C 192.89 328.22 187.45 337.29 182.38 348.20
  Q 165.74 383.97 150.33 419.42
  C 148.19 424.33 147.13 428.15 145.54 432.79
  C 143.95 437.43 137.60 440.31 132.13 441.24
  Q 120.29 443.26 120.00 443.32
  Q 112.82 444.79 110.57 446.06
  C 102.51 450.62 95.99 460.29 99.05 469.79
  C 101.50 477.39 106.20 481.40 113.19 485.31
  C 120.41 489.35 128.94 488.01 136.75 487.52
  Q 147.43 486.84 153.60 494.90
  C 161.51 505.23 168.44 517.24 182.97 514.93
  Q 189.55 513.88 194.04 509.36"
/>
<path stroke="#f2efef" vector-effect="non-scaling-stroke" d="
  M 208.19 296.40
  A 3.16 3.15 72.6 0 0 210.35 292.27
  C 208.29 286.58 204.73 273.34 212.57 271.39
  C 220.28 269.48 223.91 279.14 225.09 285.27
  C 225.67 288.27 229.70 290.08 231.78 287.14
  C 233.18 285.15 232.57 282.31 232.02 279.99
  C 229.90 271.09 221.99 261.34 211.69 263.74
  C 203.40 265.67 199.80 272.52 200.42 280.64
  Q 201.06 288.83 203.63 294.35
  A 3.84 3.83 70.0 0 0 208.08 296.43
  L 208.19 296.40"
/>
<path stroke="#f2efef" vector-effect="non-scaling-stroke" d="
  M 255.11 298.03
  Q 256.73 299.95 258.47 299.47
  C 263.78 298.02 274.62 295.47 277.90 301.85
  C 279.59 305.14 276.67 308.64 274.02 310.57
  Q 272.08 311.99 264.42 315.62
  A 4.08 4.08 0.0 0 0 262.29 320.55
  L 262.35 320.72
  A 3.51 3.51 0.0 0 0 266.86 322.95
  C 274.79 320.14 284.36 314.73 285.74 306.01
  C 286.94 298.39 281.85 292.64 274.78 291.05
  Q 264.82 288.82 256.64 293.36
  Q 255.12 294.21 254.82 297.07
  A 1.28 1.27 28.4 0 0 255.11 298.03"
/>
<path stroke="#f2efef" vector-effect="non-scaling-stroke" d="
  M 217.4444 323.7148
  A 4.05 4.05 0.0 0 0 215.5042 318.3258
  L 215.4318 318.2917
  A 4.05 4.05 0.0 0 0 210.0429 320.2319
  L 160.1756 426.2052
  A 4.05 4.05 0.0 0 0 162.1158 431.5942
  L 162.1882 431.6283
  A 4.05 4.05 0.0 0 0 167.5771 429.6881
  L 217.4444 323.7148"
/>
<path stroke="#f2efef" vector-effect="non-scaling-stroke" d="
  M 235.9481 329.4205
  A 4.06 4.06 0.0 0 0 233.9561 324.0355
  L 233.9016 324.0104
  A 4.06 4.06 0.0 0 0 228.5165 326.0024
  L 178.1719 435.4595
  A 4.06 4.06 0.0 0 0 180.1639 440.8445
  L 180.2184 440.8696
  A 4.06 4.06 0.0 0 0 185.6035 438.8776
  L 235.9481 329.4205"
/>
<path stroke="#f2efef" vector-effect="non-scaling-stroke" d="
  M 143.53 449.31
  Q 132.25 448.52 122.64 450.92
  C 106.33 454.98 101.66 476.17 121.66 480.14
  Q 128.14 481.43 135.69 480.38
  C 139.00 479.92 142.92 477.76 140.74 473.93
  C 139.07 470.98 132.56 472.69 130.88 472.85
  C 127.03 473.21 118.62 472.58 116.59 468.87
  Q 115.14 466.23 117.43 463.15
  Q 120.91 458.50 127.66 457.42
  Q 135.73 456.13 143.56 456.17
  A 3.23 3.22 -89.3 0 0 146.80 453.00
  L 146.81 452.89
  A 3.53 3.52 -87.5 0 0 143.53 449.31"
/>
<path stroke="#f2efef" vector-effect="non-scaling-stroke" d="
  M 165.95 483.91
  C 163.69 482.13 160.20 484.74 161.02 487.39
  Q 163.44 495.14 169.04 499.94
  C 174.58 504.68 183.64 507.56 188.71 500.88
  C 195.49 491.96 187.93 477.59 183.20 469.26
  A 3.61 3.61 0.0 0 0 178.26 467.92
  L 177.99 468.07
  A 3.97 3.97 0.0 0 0 176.46 473.36
  C 180.08 480.29 184.71 488.15 183.62 494.12
  Q 182.92 497.90 179.48 497.20
  C 173.28 495.94 170.72 491.30 167.67 485.58
  Q 167.40 485.06 165.95 483.91"
/>
</g>
<path fill="#000000" d="
  M 254.46 263.20
  Q 257.57 263.34 261.84 262.22
  A 8.39 8.15 37.7 0 1 264.23 261.95
  Q 279.54 262.50 286.40 263.79
  Q 306.35 267.56 312.67 287.71
  Q 316.29 299.29 313.31 310.80
  C 309.24 326.46 297.41 334.57 282.68 341.05
  C 277.34 343.41 271.28 344.15 265.09 346.08
  C 257.20 348.55 254.82 354.88 251.13 362.64
  Q 226.27 415.00 208.16 455.43
  Q 205.14 462.17 208.57 468.12
  C 211.09 472.50 214.08 479.92 214.96 485.29
  Q 217.39 500.10 210.84 512.79
  C 205.51 523.10 194.11 528.79 183.03 529.68
  Q 166.22 531.02 154.65 520.12
  Q 147.39 513.28 142.45 505.15
  C 138.71 499.02 131.31 503.44 126.45 503.39
  C 110.55 503.22 95.49 495.47 87.51 481.75
  Q 83.28 474.49 83.08 466.27
  C 82.76 453.51 87.69 441.86 98.55 435.06
  C 106.68 429.97 116.10 428.22 127.02 427.22
  A 3.17 2.84 -55.8 0 0 127.94 426.99
  Q 131.15 425.61 132.07 423.28
  Q 142.05 398.24 153.90 373.09
  C 158.91 362.46 162.60 353.06 167.16 343.75
  Q 177.64 322.34 181.44 314.34
  C 184.36 308.18 181.34 303.50 178.20 295.84
  Q 175.67 289.66 174.88 286.29
  Q 172.81 277.51 174.06 267.07
  A 5.69 5.56 59.3 0 1 174.37 265.79
  C 176.86 259.02 177.77 255.26 181.74 251.21
  C 185.77 247.12 189.75 242.65 193.67 240.40
  Q 195.55 239.32 203.92 236.78
  A 3.80 3.67 34.7 0 1 204.97 236.61
  Q 209.62 236.56 215.39 236.47
  Q 220.82 236.39 225.56 238.03
  C 238.04 242.36 246.20 251.33 252.78 262.21
  A 2.08 2.06 -14.1 0 0 254.46 263.20
  Z
  M 194.04 509.36
  C 201.28 502.05 202.21 492.31 198.30 482.93
  C 194.07 472.78 188.90 463.38 191.38 456.92
  Q 199.19 436.58 209.92 414.38
  C 212.78 408.47 215.14 402.56 218.14 396.10
  C 226.76 377.50 233.43 363.81 239.75 350.55
  Q 243.40 342.91 244.39 341.61
  C 249.01 335.53 254.89 332.46 262.96 330.70
  C 274.87 328.11 285.78 323.74 294.32 314.82
  Q 296.46 312.58 297.53 309.54
  C 301.40 298.54 298.55 285.95 288.26 279.61
  Q 286.99 278.83 285.31 278.38
  C 282.30 277.57 279.99 276.84 277.41 276.64
  Q 266.89 275.81 259.13 277.36
  Q 253.60 278.46 250.85 277.87
  Q 245.75 276.77 242.62 273.92
  A 5.78 5.58 -86.5 0 1 241.74 272.89
  Q 236.49 265.03 235.53 263.75
  Q 228.46 254.27 217.73 250.99
  A 5.54 5.34 -35.2 0 0 216.23 250.76
  C 211.32 250.68 205.54 250.22 201.10 253.58
  Q 195.83 257.56 191.26 263.88
  C 189.87 265.81 189.47 269.11 188.59 271.30
  A 3.58 3.37 60.4 0 0 188.36 272.24
  Q 188.02 276.33 188.42 278.09
  Q 190.21 285.79 194.37 294.63
  Q 197.65 301.62 197.89 308.83
  C 197.99 311.93 197.93 315.44 196.80 318.30
  C 192.89 328.22 187.45 337.29 182.38 348.20
  Q 165.74 383.97 150.33 419.42
  C 148.19 424.33 147.13 428.15 145.54 432.79
  C 143.95 437.43 137.60 440.31 132.13 441.24
  Q 120.29 443.26 120.00 443.32
  Q 112.82 444.79 110.57 446.06
  C 102.51 450.62 95.99 460.29 99.05 469.79
  C 101.50 477.39 106.20 481.40 113.19 485.31
  C 120.41 489.35 128.94 488.01 136.75 487.52
  Q 147.43 486.84 153.60 494.90
  C 161.51 505.23 168.44 517.24 182.97 514.93
  Q 189.55 513.88 194.04 509.36
  Z"
/>
<path fill="#e8e5e5" d="
  M 198.30 482.93
  C 202.21 492.31 201.28 502.05 194.04 509.36
  Q 189.55 513.88 182.97 514.93
  C 168.44 517.24 161.51 505.23 153.60 494.90
  Q 147.43 486.84 136.75 487.52
  C 128.94 488.01 120.41 489.35 113.19 485.31
  C 106.20 481.40 101.50 477.39 99.05 469.79
  C 95.99 460.29 102.51 450.62 110.57 446.06
  Q 112.82 444.79 120.00 443.32
  Q 120.29 443.26 132.13 441.24
  C 137.60 440.31 143.95 437.43 145.54 432.79
  C 147.13 428.15 148.19 424.33 150.33 419.42
  Q 165.74 383.97 182.38 348.20
  C 187.45 337.29 192.89 328.22 196.80 318.30
  C 197.93 315.44 197.99 311.93 197.89 308.83
  Q 197.65 301.62 194.37 294.63
  Q 190.21 285.79 188.42 278.09
  Q 188.02 276.33 188.36 272.24
  A 3.58 3.37 60.4 0 1 188.59 271.30
  C 189.47 269.11 189.87 265.81 191.26 263.88
  Q 195.83 257.56 201.10 253.58
  C 205.54 250.22 211.32 250.68 216.23 250.76
  A 5.54 5.34 -35.2 0 1 217.73 250.99
  Q 228.46 254.27 235.53 263.75
  Q 236.49 265.03 241.74 272.89
  A 5.78 5.58 -86.5 0 0 242.62 273.92
  Q 245.75 276.77 250.85 277.87
  Q 253.60 278.46 259.13 277.36
  Q 266.89 275.81 277.41 276.64
  C 279.99 276.84 282.30 277.57 285.31 278.38
  Q 286.99 278.83 288.26 279.61
  C 298.55 285.95 301.40 298.54 297.53 309.54
  Q 296.46 312.58 294.32 314.82
  C 285.78 323.74 274.87 328.11 262.96 330.70
  C 254.89 332.46 249.01 335.53 244.39 341.61
  Q 243.40 342.91 239.75 350.55
  C 233.43 363.81 226.76 377.50 218.14 396.10
  C 215.14 402.56 212.78 408.47 209.92 414.38
  Q 199.19 436.58 191.38 456.92
  C 188.90 463.38 194.07 472.78 198.30 482.93
  Z
  M 208.19 296.40
  A 3.16 3.15 72.6 0 0 210.35 292.27
  C 208.29 286.58 204.73 273.34 212.57 271.39
  C 220.28 269.48 223.91 279.14 225.09 285.27
  C 225.67 288.27 229.70 290.08 231.78 287.14
  C 233.18 285.15 232.57 282.31 232.02 279.99
  C 229.90 271.09 221.99 261.34 211.69 263.74
  C 203.40 265.67 199.80 272.52 200.42 280.64
  Q 201.06 288.83 203.63 294.35
  A 3.84 3.83 70.0 0 0 208.08 296.43
  L 208.19 296.40
  Z
  M 255.11 298.03
  Q 256.73 299.95 258.47 299.47
  C 263.78 298.02 274.62 295.47 277.90 301.85
  C 279.59 305.14 276.67 308.64 274.02 310.57
  Q 272.08 311.99 264.42 315.62
  A 4.08 4.08 0.0 0 0 262.29 320.55
  L 262.35 320.72
  A 3.51 3.51 0.0 0 0 266.86 322.95
  C 274.79 320.14 284.36 314.73 285.74 306.01
  C 286.94 298.39 281.85 292.64 274.78 291.05
  Q 264.82 288.82 256.64 293.36
  Q 255.12 294.21 254.82 297.07
  A 1.28 1.27 28.4 0 0 255.11 298.03
  Z
  M 217.4444 323.7148
  A 4.05 4.05 0.0 0 0 215.5042 318.3258
  L 215.4318 318.2917
  A 4.05 4.05 0.0 0 0 210.0429 320.2319
  L 160.1756 426.2052
  A 4.05 4.05 0.0 0 0 162.1158 431.5942
  L 162.1882 431.6283
  A 4.05 4.05 0.0 0 0 167.5771 429.6881
  L 217.4444 323.7148
  Z
  M 235.9481 329.4205
  A 4.06 4.06 0.0 0 0 233.9561 324.0355
  L 233.9016 324.0104
  A 4.06 4.06 0.0 0 0 228.5165 326.0024
  L 178.1719 435.4595
  A 4.06 4.06 0.0 0 0 180.1639 440.8445
  L 180.2184 440.8696
  A 4.06 4.06 0.0 0 0 185.6035 438.8776
  L 235.9481 329.4205
  Z
  M 143.53 449.31
  Q 132.25 448.52 122.64 450.92
  C 106.33 454.98 101.66 476.17 121.66 480.14
  Q 128.14 481.43 135.69 480.38
  C 139.00 479.92 142.92 477.76 140.74 473.93
  C 139.07 470.98 132.56 472.69 130.88 472.85
  C 127.03 473.21 118.62 472.58 116.59 468.87
  Q 115.14 466.23 117.43 463.15
  Q 120.91 458.50 127.66 457.42
  Q 135.73 456.13 143.56 456.17
  A 3.23 3.22 -89.3 0 0 146.80 453.00
  L 146.81 452.89
  A 3.53 3.52 -87.5 0 0 143.53 449.31
  Z
  M 165.95 483.91
  C 163.69 482.13 160.20 484.74 161.02 487.39
  Q 163.44 495.14 169.04 499.94
  C 174.58 504.68 183.64 507.56 188.71 500.88
  C 195.49 491.96 187.93 477.59 183.20 469.26
  A 3.61 3.61 0.0 0 0 178.26 467.92
  L 177.99 468.07
  A 3.97 3.97 0.0 0 0 176.46 473.36
  C 180.08 480.29 184.71 488.15 183.62 494.12
  Q 182.92 497.90 179.48 497.20
  C 173.28 495.94 170.72 491.30 167.67 485.58
  Q 167.40 485.06 165.95 483.91
  Z"
/>
<path fill="#fcf9f9" d="
  M 208.19 296.40
  L 208.08 296.43
  A 3.84 3.83 70.0 0 1 203.63 294.35
  Q 201.06 288.83 200.42 280.64
  C 199.80 272.52 203.40 265.67 211.69 263.74
  C 221.99 261.34 229.90 271.09 232.02 279.99
  C 232.57 282.31 233.18 285.15 231.78 287.14
  C 229.70 290.08 225.67 288.27 225.09 285.27
  C 223.91 279.14 220.28 269.48 212.57 271.39
  C 204.73 273.34 208.29 286.58 210.35 292.27
  A 3.16 3.15 72.6 0 1 208.19 296.40
  Z"
/>
<path fill="#fcf9f9" d="
  M 254.82 297.07
  Q 255.12 294.21 256.64 293.36
  Q 264.82 288.82 274.78 291.05
  C 281.85 292.64 286.94 298.39 285.74 306.01
  C 284.36 314.73 274.79 320.14 266.86 322.95
  A 3.51 3.51 0.0 0 1 262.35 320.72
  L 262.29 320.55
  A 4.08 4.08 0.0 0 1 264.42 315.62
  Q 272.08 311.99 274.02 310.57
  C 276.67 308.64 279.59 305.14 277.90 301.85
  C 274.62 295.47 263.78 298.02 258.47 299.47
  Q 256.73 299.95 255.11 298.03
  A 1.28 1.27 28.4 0 1 254.82 297.07
  Z"
/>
<rect fill="#fcf9f9" x="-4.09" y="-62.61" transform="translate(188.81,374.96) rotate(25.2)" width="8.18" height="125.22" rx="4.05"/>
<rect fill="#fcf9f9" x="-4.09" y="-64.30" transform="translate(207.06,382.44) rotate(24.7)" width="8.18" height="128.60" rx="4.06"/>
<path fill="#fcf9f9" d="
  M 143.53 449.31
  A 3.53 3.52 -87.5 0 1 146.81 452.89
  L 146.80 453.00
  A 3.23 3.22 -89.3 0 1 143.56 456.17
  Q 135.73 456.13 127.66 457.42
  Q 120.91 458.50 117.43 463.15
  Q 115.14 466.23 116.59 468.87
  C 118.62 472.58 127.03 473.21 130.88 472.85
  C 132.56 472.69 139.07 470.98 140.74 473.93
  C 142.92 477.76 139.00 479.92 135.69 480.38
  Q 128.14 481.43 121.66 480.14
  C 101.66 476.17 106.33 454.98 122.64 450.92
  Q 132.25 448.52 143.53 449.31
  Z"
/>
<path fill="#fcf9f9" d="
  M 161.02 487.39
  C 160.20 484.74 163.69 482.13 165.95 483.91
  Q 167.40 485.06 167.67 485.58
  C 170.72 491.30 173.28 495.94 179.48 497.20
  Q 182.92 497.90 183.62 494.12
  C 184.71 488.15 180.08 480.29 176.46 473.36
  A 3.97 3.97 0.0 0 1 177.99 468.07
  L 178.26 467.92
  A 3.61 3.61 0.0 0 1 183.20 469.26
  C 187.93 477.59 195.49 491.96 188.71 500.88
  C 183.64 507.56 174.58 504.68 169.04 499.94
  Q 163.44 495.14 161.02 487.39
  Z"
/>
</svg>
