<?xml version="1.0" encoding="UTF-8" standalone="no"?>
<!DOCTYPE svg PUBLIC "-//W3C//DTD SVG 1.1//EN" "http://www.w3.org/Graphics/SVG/1.1/DTD/svg11.dtd">
<svg xmlns="http://www.w3.org/2000/svg" version="1.1" viewBox="0.00 0.00 782.00 729.00">
<g stroke-width="2.00" fill="none" stroke-linecap="butt">
<path stroke="#2a5a35" vector-effect="non-scaling-stroke" d="
  M 397.85 98.57
  C 393.07 98.54 392.92 104.00 394.27 107.32
  Q 400.19 121.86 414.21 126.15
  C 419.78 127.85 424.30 127.37 431.50 127.38
  Q 439.24 127.38 450.12 129.47
  A 6.84 6.64 44.6 0 0 452.59 129.49
  C 458.47 128.43 467.02 125.37 470.99 120.48
  C 474.45 116.21 479.47 106.28 476.80 100.96
  Q 475.10 97.58 469.98 98.11
  Q 453.92 99.80 444.27 111.53
  C 441.46 114.95 438.67 117.08 434.66 115.44
  Q 432.96 114.74 430.72 111.62
  Q 423.73 101.85 410.32 99.65
  Q 403.88 98.60 397.85 98.57"
/>
<path stroke="#000100" stroke-opacity="0.816" vector-effect="non-scaling-stroke" d="
  M 400.47 162.20
  Q 399.92 162.06 399.97 162.29"
/>
<path stroke="#80642a" vector-effect="non-scaling-stroke" d="
  M 399.97 162.29
  Q 388.93 165.87 380.91 171.92
  Q 366.91 182.48 354.11 197.86
  Q 341.50 213.01 321.22 222.90
  Q 318.64 224.16 300.28 233.02
  C 291.98 237.03 285.31 244.18 285.90 254.03
  Q 286.44 262.97 289.60 268.91
  Q 294.69 278.47 297.71 282.55
  Q 304.28 291.42 313.68 297.90
  A 3.54 3.47 59.7 0 0 315.92 298.51
  L 333.38 297.27
  A 2.25 2.24 -86.7 0 0 335.43 295.44
  C 336.04 292.19 336.76 289.73 340.39 288.96
  Q 347.51 287.47 349.51 293.64
  C 351.69 300.35 354.92 307.73 361.54 310.89"
/>
<path stroke="#000100" stroke-opacity="0.816" vector-effect="non-scaling-stroke" d="
  M 361.54 310.89
  Q 363.53 311.34 365.80 311.09"
/>
<path stroke="#80642a" vector-effect="non-scaling-stroke" d="
  M 365.80 311.09
  C 373.36 309.00 377.11 304.26 382.68 298.71
  Q 384.24 297.15 388.54 295.95
  A 2.19 2.13 -41.0 0 1 389.94 296.03
  Q 395.19 298.16 395.08 303.44
  A 2.55 2.55 0.0 0 0 396.79 305.90
  Q 399.43 306.81 400.76 306.70
  A 2.84 2.80 59.6 0 1 402.66 307.21
  Q 403.25 307.63 408.69 309.08
  Q 413.94 310.49 430.62 317.63
  Q 436.78 320.27 442.38 318.14
  C 454.53 313.51 460.98 303.65 466.12 292.18
  C 474.82 272.73 471.25 251.19 471.34 230.57
  C 471.38 219.12 471.62 213.55 470.23 204.72"
/>
<path stroke="#80642a" vector-effect="non-scaling-stroke" d="
  M 469.98 203.38
  Q 469.12 200.93 468.31 198.38
  C 463.56 183.57 453.81 172.12 439.01 166.24
  Q 424.10 160.30 408.90 160.73
  C 406.29 160.80 403.18 161.59 400.47 162.20"
/>
<path stroke="#9d7b33" stroke-opacity="0.816" vector-effect="non-scaling-stroke" d="
  M 365.80 311.09
  L 361.54 310.89"
/>
<path stroke="#9d7b33" stroke-opacity="0.816" vector-effect="non-scaling-stroke" d="
  M 399.97 162.29
  Q 400.19 162.17 400.47 162.20"
/>
<path stroke="#80642a" vector-effect="non-scaling-stroke" d="
  M 488.48 266.01
  Q 490.14 265.75 494.41 262.92
  Q 501.17 258.43 505.09 254.10
  C 507.06 251.92 510.17 246.54 508.12 243.84
  C 505.50 240.39 500.94 237.94 496.52 238.44
  C 492.74 238.86 488.93 239.26 486.47 240.99
  A 1.94 1.90 71.9 0 0 485.66 242.62
  Q 485.77 246.15 486.69 262.52
  Q 486.85 265.40 487.45 265.79
  A 1.46 1.44 -32.6 0 0 488.48 266.01"
/>
<path stroke="#674d32" vector-effect="non-scaling-stroke" d="
  M 322.02 311.27
  L 308.59 314.08"
/>
<path stroke="#000100" stroke-opacity="0.816" vector-effect="non-scaling-stroke" d="
  M 308.59 314.08
  Q 308.31 313.41 307.74 313.65
  Q 307.45 313.78 307.71 314.25"
/>
<path stroke="#674d32" vector-effect="non-scaling-stroke" d="
  M 307.71 314.25
  Q 289.69 318.82 279.63 323.89
  Q 264.21 331.66 264.16 331.69
  Q 256.91 335.75 253.55 338.81
  C 249.00 342.95 244.31 347.05 238.12 347.47
  Q 236.26 347.60 232.23 345.62
  C 225.84 342.46 220.00 340.80 213.01 343.17"
/>
<path stroke="#000100" stroke-opacity="0.816" vector-effect="non-scaling-stroke" d="
  M 213.01 343.17
  Q 211.80 342.53 212.40 343.25"
/>
<path stroke="#674d32" vector-effect="non-scaling-stroke" d="
  M 212.40 343.25
  L 201.71 350.65"
/>
<path stroke="#40281d" vector-effect="non-scaling-stroke" d="
  M 201.71 350.65
  Q 197.30 353.87 192.52 358.52
  Q 181.21 369.54 167.31 382.18
  C 162.31 386.73 157.64 390.57 152.02 395.35
  C 144.83 401.46 139.23 407.71 132.66 415.65
  Q 129.20 419.83 127.76 422.63"
/>
<path stroke="#674d32" vector-effect="non-scaling-stroke" d="
  M 127.76 422.63
  L 123.07 429.44"
/>
<path stroke="#000100" stroke-opacity="0.816" vector-effect="non-scaling-stroke" d="
  M 123.07 429.44
  Q 122.41 427.81 122.67 430.28"
/>
<path stroke="#674d32" vector-effect="non-scaling-stroke" d="
  M 122.67 430.28
  Q 117.74 441.78 118.49 452.01
  C 119.67 468.21 132.23 482.17 143.07 493.23
  Q 148.95 499.23 157.49 505.17
  Q 175.37 517.62 191.15 524.20
  C 192.98 524.96 196.07 526.21 199.20 526.92
  Q 202.98 527.78 206.61 528.87"
/>
<path stroke="#674d32" vector-effect="non-scaling-stroke" d="
  M 208.82 529.11
  L 210.28 529.04"
/>
<path stroke="#40281d" vector-effect="non-scaling-stroke" d="
  M 210.28 529.04
  Q 212.65 529.61 215.13 529.13
  Q 216.19 528.93 223.43 527.11
  A 7.70 7.54 23.4 0 0 225.20 526.43
  Q 233.44 522.00 240.48 515.74
  C 243.35 513.19 248.33 506.26 248.50 502.73
  A 3.67 3.55 15.1 0 0 246.48 499.35
  Q 243.13 497.69 238.56 497.03
  Q 232.15 496.11 227.11 493.12"
/>
<path stroke="#674d32" vector-effect="non-scaling-stroke" d="
  M 227.11 493.12
  C 223.19 489.32 219.12 486.39 217.63 481.14
  Q 216.72 477.95 216.55 472.79
  Q 216.09 458.69 227.82 449.83
  Q 229.08 448.88 234.01 445.78
  Q 235.50 444.84 236.68 441.02
  A 2.10 2.01 48.6 0 0 236.72 440.04
  C 234.83 430.99 232.22 422.07 230.14 413.12
  Q 228.69 406.88 228.88 398.29"
/>
<path stroke="#000100" stroke-opacity="0.816" vector-effect="non-scaling-stroke" d="
  M 228.88 398.29
  Q 229.16 398.57 229.13 398.00
  Q 229.10 397.69 228.73 397.70"
/>
<path stroke="#674d32" vector-effect="non-scaling-stroke" d="
  M 228.73 397.70
  Q 227.86 394.74 228.19 392.24
  Q 229.04 385.70 229.06 385.16
  A 2.17 2.16 68.2 0 1 229.65 383.78
  L 232.51 380.76
  A 1.50 1.46 -67.2 0 1 233.60 380.30
  L 238.69 380.34"
/>
<path stroke="#532e13" vector-effect="non-scaling-stroke" d="
  M 238.69 380.34
  Q 241.21 381.38 242.99 383.45
  A 1.47 1.43 25.3 0 1 243.34 384.39
  L 243.34 386.13
  A 1.91 1.87 28.7 0 0 243.66 387.18
  Q 244.73 388.79 243.75 390.03
  A 0.75 0.74 48.1 0 0 243.71 390.91
  L 244.13 391.54
  A 0.66 0.63 -64.2 0 1 244.23 391.85
  L 244.37 406.20"
/>
<path stroke="#000100" stroke-opacity="0.816" vector-effect="non-scaling-stroke" d="
  M 244.37 406.20
  Q 244.26 406.12 244.15 406.29
  A 0.07 0.06 -40.3 0 0 244.14 406.35
  Q 244.24 406.62 244.49 406.63"
/>
<path stroke="#532e13" vector-effect="non-scaling-stroke" d="
  M 244.49 406.63
  Q 248.07 420.77 250.99 435.06
  Q 251.93 439.67 252.15 442.28
  C 252.75 449.20 249.97 452.33 244.00 456.63
  Q 238.05 460.90 233.76 464.80
  C 231.90 466.49 232.02 467.23 231.79 469.74
  C 231.27 475.21 233.68 480.75 239.29 482.23
  Q 241.80 482.89 243.61 483.65
  A 4.85 4.81 -33.3 0 0 245.49 484.03
  L 247.82 484.03
  A 2.40 2.29 -29.9 0 1 248.92 484.30
  Q 250.16 484.96 251.96 485.01
  A 1.75 1.74 -22.4 0 1 253.10 485.48
  Q 255.29 487.53 257.61 487.73
  A 0.88 0.85 75.3 0 1 258.24 488.11
  L 263.53 496.11
  A 0.93 0.90 29.2 0 1 263.68 496.61
  Q 263.77 501.52 263.68 510.36
  Q 263.68 510.78 263.90 511.04
  Q 264.16 511.34 264.54 511.46"
/>
<path stroke="#532e13" vector-effect="non-scaling-stroke" d="
  M 265.28 511.54
  Q 265.53 511.47 265.78 511.51"
/>
<path stroke="#532e13" vector-effect="non-scaling-stroke" d="
  M 269.49 511.57
  C 280.46 511.03 292.19 515.18 301.37 520.88
  Q 304.79 523.00 312.33 530.38"
/>
<path stroke="#200d07" vector-effect="non-scaling-stroke" d="
  M 312.33 530.38
  L 319.35 539.17
  A 7.35 7.06 13.6 0 1 320.11 540.36
  Q 322.00 544.07 323.90 547.82
  C 326.34 552.65 325.90 557.62 325.73 562.70
  A 1.43 1.42 9.1 0 0 326.76 564.12
  L 334.65 566.46"
/>
<path stroke="#40281d" vector-effect="non-scaling-stroke" d="
  M 334.65 566.46
  Q 338.38 566.81 343.21 568.60
  A 8.19 8.08 -30.6 0 0 344.94 569.03
  Q 348.72 569.50 352.19 570.78"
/>
<path stroke="#000100" stroke-opacity="0.816" vector-effect="non-scaling-stroke" d="
  M 352.19 570.78
  Q 353.22 571.64 353.33 570.85"
/>
<path stroke="#40281d" vector-effect="non-scaling-stroke" d="
  M 353.33 570.85
  L 362.02 571.10
  A 6.44 6.42 -35.2 0 1 363.72 571.39
  L 365.05 571.81
  A 2.23 2.07 -34.6 0 0 365.67 571.90
  L 402.42 571.90
  A 4.39 4.29 -50.8 0 0 403.39 571.79
  Q 408.25 570.69 413.26 570.97"
/>
<path stroke="#000100" stroke-opacity="0.816" vector-effect="non-scaling-stroke" d="
  M 413.26 570.97
  Q 415.46 571.38 417.64 570.94"
/>
<path stroke="#40281d" vector-effect="non-scaling-stroke" d="
  M 417.64 570.94
  Q 417.84 570.52 418.44 570.44
  Q 422.79 569.83 427.88 569.42"
/>
<path stroke="#674d32" vector-effect="non-scaling-stroke" d="
  M 427.88 569.42
  Q 456.99 565.58 482.56 549.77
  Q 489.96 545.19 494.73 540.98
  Q 505.61 531.35 511.66 517.66
  C 513.46 513.58 515.03 507.98 516.88 503.17"
/>
<path stroke="#000100" stroke-opacity="0.816" vector-effect="non-scaling-stroke" d="
  M 516.88 503.17
  Q 516.98 503.30 517.04 503.38
  A 0.07 0.07 0.0 0 0 517.17 503.35
  Q 517.22 503.00 516.90 502.97"
/>
<path stroke="#674d32" vector-effect="non-scaling-stroke" d="
  M 516.90 502.97
  Q 519.92 488.82 517.11 475.08"
/>
<path stroke="#000100" stroke-opacity="0.816" vector-effect="non-scaling-stroke" d="
  M 517.11 475.08
  Q 517.24 474.26 516.90 474.59"
/>
<path stroke="#674d32" vector-effect="non-scaling-stroke" d="
  M 516.90 474.59
  Q 515.60 470.04 513.83 465.69
  C 510.88 458.45 505.24 453.20 500.46 448.03
  Q 487.91 434.45 483.97 417.27
  Q 480.13 400.51 474.30 387.21
  Q 470.39 378.31 462.99 366.63"
/>
<path stroke="#40281d" vector-effect="non-scaling-stroke" d="
  M 462.99 366.63
  Q 450.62 342.92 425.80 331.47
  Q 409.46 323.93 394.80 319.81"
/>
<path stroke="#674d32" vector-effect="non-scaling-stroke" d="
  M 394.80 319.81
  L 388.08 318.98"
/>
<path stroke="#532e13" vector-effect="non-scaling-stroke" d="
  M 388.08 318.98
  L 383.83 318.89
  A 1.70 1.69 31.9 0 0 383.09 319.06
  L 375.50 322.70
  A 3.60 3.42 24.7 0 1 374.68 322.98
  C 371.36 323.69 368.34 324.98 365.46 325.26
  C 355.33 326.25 347.46 320.09 341.40 312.73
  A 2.38 2.37 -14.8 0 0 339.97 311.90
  L 335.20 311.07"
/>
<path stroke="#000100" stroke-opacity="0.816" vector-effect="non-scaling-stroke" d="
  M 335.20 311.07
  L 321.19 311.06
  A 0.03 0.02 48.4 0 0 321.19 311.11
  L 322.02 311.27"
/>
<path stroke="#663917" stroke-opacity="0.816" vector-effect="non-scaling-stroke" d="
  M 335.20 311.07
  Q 335.07 311.20 334.66 311.25"
/>
<path stroke="#7f5f3d" stroke-opacity="0.816" vector-effect="non-scaling-stroke" d="
  M 334.66 311.25
  L 322.02 311.27"
/>
<path stroke="#ba7b45" vector-effect="non-scaling-stroke" d="
  M 334.66 311.25
  Q 337.62 312.45 338.17 313.34
  C 344.57 323.82 352.71 333.72 366.59 331.27
  Q 375.25 329.75 383.28 323.74
  A 0.22 0.17 -78.6 0 0 383.35 323.68
  L 388.08 318.98"
/>
<path stroke="#a7754f" vector-effect="non-scaling-stroke" d="
  M 394.80 319.81
  Q 396.68 336.33 407.45 348.04
  C 419.59 361.24 439.09 371.76 457.49 367.74
  Q 460.27 367.13 462.99 366.63"
/>
<path stroke="#7f5f3d" stroke-opacity="0.816" vector-effect="non-scaling-stroke" d="
  M 516.90 474.59
  Q 517.06 474.38 517.11 475.08"
/>
<path stroke="#7f5f3d" stroke-opacity="0.816" vector-effect="non-scaling-stroke" d="
  M 516.90 502.97
  Q 516.89 503.07 516.88 503.17"
/>
<path stroke="#a7754f" vector-effect="non-scaling-stroke" d="
  M 427.88 569.42
  Q 424.92 565.81 420.34 563.67
  Q 413.01 560.25 407.93 559.07
  Q 396.08 556.34 391.86 555.41
  Q 378.64 552.51 370.24 542.02
  Q 365.42 536.00 363.26 533.25
  C 355.76 523.67 343.92 520.67 332.19 523.20
  Q 324.95 524.76 322.45 525.80"
/>
<path stroke="#ba7b45" vector-effect="non-scaling-stroke" d="
  M 322.45 525.80
  L 321.94 525.76
  A 1.13 1.10 71.7 0 1 321.15 525.35
  Q 314.51 517.24 304.27 513.24
  Q 290.15 507.71 276.79 506.03
  Q 274.37 505.72 271.84 503.84
  A 1.77 1.76 -76.5 0 1 271.16 502.73
  Q 270.45 498.57 270.06 497.12
  Q 266.89 485.50 255.38 482.00
  Q 250.84 480.62 245.09 480.19
  A 1.80 1.77 -18.8 0 1 243.89 479.61
  C 237.38 472.45 241.37 464.65 248.26 460.01
  C 250.97 458.19 257.68 456.07 259.12 450.80
  A 3.10 2.98 -40.9 0 0 259.22 449.71
  Q 258.41 440.53 258.11 438.52
  Q 253.75 408.87 249.98 394.46
  Q 246.68 381.81 246.65 380.17
  A 1.33 1.28 -67.6 0 0 246.31 379.31
  C 242.97 375.74 241.45 379.74 238.69 380.34"
/>
<path stroke="#7f5f3d" stroke-opacity="0.816" vector-effect="non-scaling-stroke" d="
  M 228.73 397.70
  Q 228.84 397.95 228.88 398.29"
/>
<path stroke="#a7754f" vector-effect="non-scaling-stroke" d="
  M 227.11 493.12
  Q 219.23 496.98 215.98 502.74
  C 211.82 510.12 207.02 515.73 208.81 524.97
  Q 209.11 526.49 210.28 529.04"
/>
<path stroke="#7f5f3d" stroke-opacity="0.816" vector-effect="non-scaling-stroke" d="
  M 122.67 430.28
  L 123.07 429.44"
/>
<path stroke="#a7754f" vector-effect="non-scaling-stroke" d="
  M 127.76 422.63
  Q 130.15 429.46 132.75 433.49
  C 139.38 443.74 152.38 446.92 163.02 441.30
  C 166.57 439.43 170.23 436.03 172.91 433.84
  C 179.95 428.11 185.57 426.87 196.68 423.94
  C 207.24 421.15 212.93 413.01 217.04 403.57
  C 218.34 400.60 219.25 395.44 219.05 392.75
  Q 217.82 376.17 211.44 362.83
  Q 208.28 356.22 201.71 350.65"
/>
<path stroke="#7f5f3d" stroke-opacity="0.816" vector-effect="non-scaling-stroke" d="
  M 212.40 343.25
  L 213.01 343.17"
/>
<path stroke="#7f5f3d" stroke-opacity="0.816" vector-effect="non-scaling-stroke" d="
  M 307.71 314.25
  Q 308.27 313.94 308.59 314.08"
/>
<path stroke="#935630" vector-effect="non-scaling-stroke" d="
  M 322.45 525.80
  L 321.03 526.32"
/>
<path stroke="#733b1a" vector-effect="non-scaling-stroke" d="
  M 321.03 526.32
  L 312.33 530.38"
/>
<path stroke="#663917" stroke-opacity="0.816" vector-effect="non-scaling-stroke" d="
  M 244.49 406.63
  Q 244.48 406.35 244.37 406.20"
/>
<path stroke="#4e3224" stroke-opacity="0.816" vector-effect="non-scaling-stroke" d="
  M 417.64 570.94
  Q 415.39 570.55 413.26 570.97"
/>
<path stroke="#4e3224" stroke-opacity="0.816" vector-effect="non-scaling-stroke" d="
  M 353.33 570.85
  L 352.19 570.78"
/>
<path stroke="#5f3524" vector-effect="non-scaling-stroke" d="
  M 334.65 566.46
  Q 333.55 545.62 323.01 528.04
  Q 322.31 526.87 321.03 526.32"
/>
<path stroke="#532e13" vector-effect="non-scaling-stroke" d="
  M 457.22 327.40
  Q 454.64 328.36 452.66 330.47"
/>
<path stroke="#000100" stroke-opacity="0.816" vector-effect="non-scaling-stroke" d="
  M 452.66 330.47
  Q 452.59 331.22 452.74 330.94"
/>
<path stroke="#532e13" vector-effect="non-scaling-stroke" d="
  M 452.74 330.94
  Q 460.71 337.06 462.63 339.87
  C 465.33 343.84 468.87 347.75 471.19 351.28
  C 480.05 364.79 487.46 378.30 492.64 393.44
  Q 495.86 402.86 498.12 412.68
  Q 501.33 426.71 510.98 437.50
  Q 513.84 440.70 517.42 444.44
  C 521.11 448.30 523.65 452.46 526.55 456.63
  A 1.01 1.01 0.0 0 0 527.88 456.93
  Q 530.95 455.19 531.66 453.88"
/>
<path stroke="#674d32" vector-effect="non-scaling-stroke" d="
  M 531.66 453.88
  Q 548.19 440.41 553.01 420.54"
/>
<path stroke="#40281d" vector-effect="non-scaling-stroke" d="
  M 553.01 420.54
  Q 553.01 418.32 553.62 416.31
  Q 554.58 413.17 554.62 412.23
  Q 554.78 408.57 554.43 407.26
  Q 553.32 403.17 553.18 401.20
  Q 552.91 397.31 552.12 395.13
  C 548.09 383.97 540.47 381.18 530.78 375.47
  Q 529.27 374.58 525.10 373.03"
/>
<path stroke="#674d32" vector-effect="non-scaling-stroke" d="
  M 525.10 373.03
  Q 507.99 365.51 495.30 352.70
  Q 488.09 345.43 480.77 337.98
  Q 472.42 329.48 461.87 324.17
  A 1.22 1.21 36.6 0 0 460.48 324.37
  L 457.22 327.40"
/>
<path stroke="#a7754f" vector-effect="non-scaling-stroke" d="
  M 525.10 373.03
  Q 520.77 380.47 518.79 385.05
  Q 516.99 389.23 517.27 394.44
  C 517.62 401.01 521.00 405.84 526.98 408.24
  Q 527.99 408.65 533.13 409.01
  Q 539.63 409.47 544.26 413.75
  Q 549.08 418.20 553.01 420.54"
/>
<path stroke="#ba7b45" vector-effect="non-scaling-stroke" d="
  M 531.66 453.88
  Q 526.65 447.08 521.53 440.50
  C 515.25 432.43 511.01 425.83 507.80 417.20
  Q 505.45 410.89 498.85 392.39
  C 492.24 373.85 482.96 357.63 469.17 343.18
  Q 461.26 334.89 457.27 330.74
  A 1.03 1.03 0.0 0 1 457.06 329.67
  Q 457.43 328.74 457.22 327.40"
/>
<path stroke="#663917" stroke-opacity="0.816" vector-effect="non-scaling-stroke" d="
  M 452.74 330.94
  L 452.66 330.47"
/>
<path stroke="#000100" stroke-opacity="0.816" vector-effect="non-scaling-stroke" d="
  M 237.1204 440.8600
  A 0.11 0.01 89.8 0 0 237.1300 440.7500
  A 0.11 0.01 89.8 0 0 237.1196 440.6400
  A 0.11 0.01 89.8 0 0 237.1100 440.7500
  A 0.11 0.01 89.8 0 0 237.1204 440.8600"
/>
<path stroke="#674d32" vector-effect="non-scaling-stroke" d="
  M 532.96 524.17
  L 529.22 524.07"
/>
<path stroke="#532e13" vector-effect="non-scaling-stroke" d="
  M 529.22 524.07
  Q 527.40 523.71 525.61 524.01
  A 1.10 1.08 10.6 0 0 524.84 524.53
  Q 523.83 526.22 521.80 530.09
  Q 517.10 539.09 509.39 547.30
  C 505.85 551.08 500.67 554.40 497.76 556.99
  C 493.75 560.56 488.63 563.10 483.44 566.51
  A 0.94 0.93 57.4 0 0 483.16 567.79
  Q 484.14 569.38 485.57 570.06"
/>
<path stroke="#674d32" vector-effect="non-scaling-stroke" d="
  M 485.57 570.06
  C 495.75 577.91 507.17 581.39 520.06 579.61
  C 535.03 577.56 548.46 571.57 554.45 556.69
  Q 557.45 549.22 553.00 541.00
  Q 546.15 528.38 533.81 524.37"
/>
<path stroke="#000100" stroke-opacity="0.816" vector-effect="non-scaling-stroke" d="
  M 533.81 524.37
  Q 534.01 523.97 533.63 523.87
  Q 533.05 523.73 532.96 524.17"
/>
<path stroke="#7f5f3d" stroke-opacity="0.816" vector-effect="non-scaling-stroke" d="
  M 533.81 524.37
  Q 533.41 524.16 532.96 524.17"
/>
<path stroke="#ba7b45" vector-effect="non-scaling-stroke" d="
  M 529.22 524.07
  Q 524.80 539.04 512.21 551.22
  Q 499.41 563.61 485.57 570.06"
/>
<path stroke="#674d32" vector-effect="non-scaling-stroke" d="
  M 226.74 556.12
  Q 229.80 567.72 240.91 573.87
  C 252.24 580.14 266.19 583.41 279.75 581.76
  C 291.96 580.27 305.04 574.66 308.97 561.76
  Q 310.14 557.92 309.65 555.59
  C 308.72 551.25 306.23 547.68 303.68 544.00
  Q 298.64 536.73 288.54 530.97
  Q 280.40 526.33 273.04 525.96"
/>
<path stroke="#532e13" vector-effect="non-scaling-stroke" d="
  M 273.04 525.96
  Q 265.20 525.02 257.61 526.33
  C 254.48 526.87 251.06 528.40 248.05 529.59
  Q 239.06 533.14 233.43 540.14
  A 8.32 8.28 -13.1 0 0 232.36 541.85
  Q 230.66 545.39 228.05 550.07
  Q 227.38 551.27 226.74 556.12"
/>
<path stroke="#ba7b45" vector-effect="non-scaling-stroke" d="
  M 273.04 525.96
  L 264.25 526.06
  A 1.53 1.50 -64.0 0 0 263.35 526.38
  Q 261.09 528.17 260.12 528.63
  Q 249.41 533.69 246.52 535.77
  Q 240.10 540.38 237.77 543.06
  Q 234.18 547.18 230.96 550.31
  A 1.02 0.91 -8.0 0 0 230.79 550.51
  L 226.74 556.12"
/>
<path stroke="#2a5a35" vector-effect="non-scaling-stroke" d="
  M 411.31 117.60
  C 414.50 119.50 418.78 123.72 422.91 121.73
  C 426.62 119.95 425.28 115.98 423.12 113.60
  Q 420.16 110.34 416.81 108.35
  Q 413.45 106.35 409.17 105.31
  C 406.05 104.56 401.92 105.28 402.13 109.38
  C 402.36 113.97 408.11 115.70 411.31 117.60"
/>
<path stroke="#2a5a35" vector-effect="non-scaling-stroke" d="
  M 459.62 118.92
  C 462.38 116.58 467.62 113.98 467.10 109.54
  C 466.63 105.56 462.55 105.54 459.68 106.78
  Q 455.73 108.47 452.83 110.93
  Q 449.94 113.39 447.62 117.01
  C 445.94 119.64 445.30 123.67 449.15 124.78
  C 453.44 126.02 456.86 121.27 459.62 118.92"
/>
<path stroke="#80642a" vector-effect="non-scaling-stroke" d="
  M 390.58 207.73
  L 390.58 212.43
  A 1.40 1.36 25.6 0 0 390.91 213.32
  Q 392.60 215.31 395.84 215.17
  A 0.65 0.59 27.5 0 0 396.15 215.09
  L 399.77 213.35
  A 1.22 1.16 -55.1 0 1 400.31 213.24
  L 406.79 213.47
  A 3.13 3.12 8.8 0 0 409.92 211.19
  C 411.63 205.07 406.15 202.49 400.84 202.71
  Q 395.86 202.93 391.02 206.80
  A 1.20 1.20 0.0 0 0 390.58 207.73"
/>
<path stroke="#80642a" vector-effect="non-scaling-stroke" d="
  M 454.54 214.53
  Q 458.58 216.62 462.67 216.17
  A 2.51 2.51 0.0 0 0 464.75 214.51
  Q 466.31 209.99 462.90 207.19
  Q 460.14 204.93 457.84 204.68
  C 454.28 204.29 447.97 204.14 445.12 206.63
  C 439.10 211.87 445.85 219.60 452.36 214.72
  A 2.06 2.06 0.0 0 1 454.54 214.53"
/>
<path stroke="#9d7b33" stroke-opacity="0.816" vector-effect="non-scaling-stroke" d="
  M 427.52 249.04
  L 435.72 249.08"
/>
<path stroke="#80642a" vector-effect="non-scaling-stroke" d="
  M 435.72 249.08
  C 443.13 248.76 450.12 246.17 454.74 240.24
  C 459.59 234.03 456.71 224.86 450.04 221.43
  C 441.08 216.82 427.18 217.14 418.25 219.26
  C 409.53 221.33 403.63 227.29 405.91 236.84
  A 4.02 3.81 -68.2 0 0 406.30 237.82
  C 410.62 245.48 419.12 249.00 427.52 249.04"
/>
<path stroke="#000100" stroke-opacity="0.816" vector-effect="non-scaling-stroke" d="
  M 435.72 249.08
  L 427.52 249.04"
/>
<path stroke="#804824" vector-effect="non-scaling-stroke" d="
  M 426.71 227.22
  Q 420.90 227.09 416.54 230.17
  A 2.15 2.14 55.0 0 0 416.02 233.16
  C 420.17 239.06 426.04 239.29 433.50 239.45
  Q 440.96 239.62 445.34 235.38
  C 449.85 231.02 441.81 228.49 439.00 228.05
  Q 434.08 227.28 429.31 227.31"
/>
<path stroke="#000100" stroke-opacity="0.816" vector-effect="non-scaling-stroke" d="
  M 429.31 227.31
  Q 428.51 226.27 426.71 227.22"
/>
<path stroke="#9d582c" stroke-opacity="0.816" vector-effect="non-scaling-stroke" d="
  M 429.31 227.31
  L 426.71 227.22"
/>
<path stroke="#a7754f" vector-effect="non-scaling-stroke" d="
  M 469.1409 456.1005
  A 30.75 24.26 61.1 0 0 475.5188 417.4556
  A 30.75 24.26 61.1 0 0 439.4191 402.2595
  A 30.75 24.26 61.1 0 0 433.0412 440.9044
  A 30.75 24.26 61.1 0 0 469.1409 456.1005"
/>
<path stroke="#674d32" vector-effect="non-scaling-stroke" d="
  M 380.11 456.74
  Q 385.18 451.50 379.91 446.55
  A 2.86 2.81 77.5 0 0 379.05 445.99
  C 371.67 442.86 361.39 447.18 356.38 453.26
  C 349.96 461.04 358.74 467.32 365.43 461.35
  Q 367.93 459.11 368.81 458.39
  A 3.78 3.75 -65.0 0 1 371.09 457.55
  L 378.62 457.39
  A 2.15 2.14 21.3 0 0 380.11 456.74"
/>
<path stroke="#674d32" vector-effect="non-scaling-stroke" d="
  M 435.39 467.55
  A 0.51 0.50 65.0 0 1 435.56 467.06
  L 441.35 462.31
  A 2.09 2.06 70.6 0 0 442.11 460.70
  L 442.11 454.15
  A 1.52 1.50 24.5 0 0 441.73 453.15
  Q 438.36 449.34 433.67 447.06
  A 2.87 2.84 -27.9 0 0 432.74 446.78
  Q 432.01 446.70 423.02 446.84
  Q 417.41 446.93 410.54 450.82
  Q 404.65 454.16 405.82 461.03
  C 406.50 465.01 410.38 467.36 413.82 468.77
  A 0.76 0.60 52.0 0 0 413.98 468.81
  L 420.97 470.03
  A 2.22 2.21 -20.5 0 1 421.94 470.47
  C 424.35 472.45 424.06 476.12 425.49 478.43
  Q 428.15 482.71 433.67 481.13
  A 2.89 2.87 -3.8 0 0 435.74 478.78
  Q 436.58 473.23 435.39 467.55"
/>
<path stroke="#4e3224" stroke-opacity="0.816" vector-effect="non-scaling-stroke" d="
  M 442.84 431.96
  Q 442.73 432.70 442.92 433.29"
/>
<path stroke="#40281d" vector-effect="non-scaling-stroke" d="
  M 442.92 433.29
  Q 442.17 437.53 445.72 438.52
  C 450.58 439.88 453.58 436.89 456.96 434.82
  A 3.42 3.41 40.2 0 1 460.01 434.57
  L 465.94 436.98
  A 1.91 1.91 0.0 0 0 467.71 436.81
  L 471.71 434.16
  A 1.21 1.19 -17.1 0 0 472.25 433.16
  L 472.25 428.50
  A 0.97 0.95 -68.5 0 0 471.96 427.81
  C 467.89 423.88 466.14 422.58 460.79 422.85"
/>
<path stroke="#4e3224" stroke-opacity="0.816" vector-effect="non-scaling-stroke" d="
  M 460.79 422.85
  L 457.53 422.81"
/>
<path stroke="#40281d" vector-effect="non-scaling-stroke" d="
  M 457.53 422.81
  L 452.76 422.92
  A 4.58 4.53 31.0 0 0 450.83 423.39
  Q 446.56 425.47 443.45 429.10
  A 1.64 1.64 0.0 0 0 443.06 429.98
  L 442.84 431.96"
/>
<path stroke="#000100" stroke-opacity="0.816" vector-effect="non-scaling-stroke" d="
  M 457.53 422.81
  Q 459.18 423.18 460.79 422.85"
/>
<path stroke="#000100" stroke-opacity="0.816" vector-effect="non-scaling-stroke" d="
  M 442.92 433.29
  Q 443.23 432.37 442.84 431.96"
/>
</g>
<path fill="#000000" d="
  M 532.62 472.14
  Q 532.70 483.35 532.47 494.01
  Q 532.31 501.16 530.29 506.52
  A 2.08 2.06 -68.6 0 0 531.43 509.16
  C 533.31 509.94 534.86 509.58 536.75 510.13
  Q 551.74 514.44 560.96 525.31
  Q 563.95 528.84 568.89 537.56
  A 2.86 2.69 24.8 0 1 569.16 538.23
  L 571.57 547.90
  A 2.38 2.32 -51.4 0 1 571.63 548.51
  C 571.57 550.12 571.47 550.86 571.76 552.38
  Q 573.44 561.26 568.26 569.07
  Q 560.34 581.01 547.80 588.20
  Q 541.93 591.57 534.28 593.09
  C 524.34 595.08 515.37 596.54 505.88 595.50
  C 495.69 594.37 484.28 588.72 475.11 582.83
  A 5.64 5.61 58.5 0 0 471.56 581.97
  Q 466.00 582.49 448.68 583.75
  Q 446.22 583.93 444.86 584.22
  C 439.49 585.37 434.68 585.21 427.19 585.28
  A 3.86 3.83 35.2 0 0 426.06 585.47
  C 422.23 586.71 415.38 586.14 413.02 586.13
  A 1.58 1.54 -65.7 0 0 411.97 586.54
  Q 411.86 586.65 411.85 586.65
  A 1.95 1.92 25.1 0 1 410.63 587.08
  L 403.00 587.04
  A 1.17 1.16 24.3 0 0 402.23 587.33
  Q 402.15 587.40 402.02 587.52
  A 1.59 1.57 24.7 0 1 401.00 587.89
  Q 368.35 587.86 350.95 587.94
  C 349.50 587.94 348.57 588.22 347.34 588.53
  A 9.63 9.50 37.5 0 1 345.00 588.82
  C 327.98 588.79 318.24 588.50 308.08 589.54
  A 3.91 3.90 -58.0 0 0 307.09 589.77
  C 301.47 591.88 292.89 595.25 285.92 596.62
  Q 268.59 600.05 251.11 594.87
  Q 246.42 593.48 239.54 590.28
  C 229.99 585.84 223.35 582.63 217.16 574.26
  A 4.02 3.74 20.1 0 1 216.59 573.14
  L 212.45 560.22
  A 2.66 2.58 -56.7 0 1 212.32 559.54
  Q 211.80 552.99 213.94 545.80
  A 1.66 1.66 0.0 0 0 212.40 543.66
  C 207.42 543.48 204.96 543.74 200.52 542.74
  Q 191.48 540.72 185.67 538.32
  Q 149.29 523.29 122.68 494.94
  C 118.12 490.09 113.29 483.71 110.17 477.88
  Q 97.89 454.97 105.91 430.92
  Q 109.45 420.32 117.82 409.44
  Q 126.06 398.72 134.67 391.41
  Q 158.75 370.96 179.38 351.14
  Q 190.73 340.23 200.81 333.57
  C 208.01 328.82 216.94 327.64 225.97 328.07
  C 229.48 328.24 232.36 329.46 236.14 330.71
  A 3.49 3.48 -52.1 0 0 239.09 330.34
  C 245.05 326.52 252.62 320.75 259.53 317.28
  Q 271.98 311.01 275.66 309.66
  Q 286.37 305.75 290.67 303.94
  A 0.84 0.73 27.1 0 1 290.95 303.87
  L 293.43 303.65
  A 1.23 1.22 -17.8 0 0 294.38 301.81
  Q 293.53 300.35 292.82 299.67
  Q 282.32 289.67 276.23 277.68
  Q 269.79 265.00 270.72 250.90
  Q 271.30 241.96 275.55 235.23
  Q 281.52 225.75 291.92 220.92
  Q 292.07 220.85 313.40 210.91
  Q 320.85 207.43 330.01 201.05
  Q 333.84 198.39 337.89 193.78
  C 348.00 182.29 353.24 176.67 360.09 169.76
  C 367.36 162.43 375.91 156.64 385.22 151.73
  C 393.73 147.24 402.85 146.04 412.76 146.26
  Q 414.60 146.31 426.34 147.03
  A 2.31 2.31 0.0 0 0 428.79 144.63
  L 428.78 144.50
  A 2.81 2.80 0.2 0 0 426.12 141.82
  C 417.67 141.35 408.23 140.66 400.82 137.14
  Q 388.13 131.10 381.70 117.55
  C 378.58 110.97 378.47 103.56 379.18 96.96
  C 379.72 91.93 385.80 86.93 390.24 85.54
  Q 393.77 84.44 401.77 84.72
  C 415.11 85.19 427.53 87.76 437.85 96.54
  A 1.27 1.26 -44.4 0 0 439.49 96.55
  Q 444.05 92.79 450.08 89.56
  Q 463.02 82.63 478.13 84.47
  Q 484.53 85.25 486.89 87.50
  C 491.40 91.80 491.81 98.01 492.21 104.76
  C 492.81 114.98 486.94 126.05 480.39 133.17
  A 5.74 5.68 -85.6 0 1 479.34 134.08
  C 470.91 139.91 457.61 145.57 447.16 143.71
  A 2.76 2.76 0.0 0 0 444.54 144.69
  Q 443.61 145.84 442.94 148.05
  A 1.43 1.42 41.7 0 0 443.00 149.03
  Q 444.24 151.84 446.69 152.84
  C 460.05 158.32 469.87 168.08 477.68 180.08
  C 481.03 185.24 482.05 190.31 483.64 197.81
  C 485.05 204.43 484.18 211.47 485.34 217.21
  C 485.76 219.29 484.84 224.31 486.71 225.89
  A 1.30 1.29 -28.4 0 0 487.70 226.18
  C 494.80 225.29 499.26 224.67 505.82 225.93
  C 512.41 227.19 520.20 231.67 521.93 238.59
  C 523.11 243.31 524.47 248.16 523.01 252.31
  Q 520.95 258.15 519.02 260.33
  Q 505.81 275.30 486.87 281.95
  A 2.59 2.57 87.9 0 0 485.23 283.73
  Q 481.49 298.19 472.46 311.13
  A 1.68 1.68 0.0 0 0 472.98 313.53
  C 487.31 321.95 497.92 333.76 510.71 346.28
  Q 513.88 349.39 524.34 355.69
  Q 527.42 357.54 542.01 364.90
  C 547.42 367.63 553.04 371.07 556.65 374.62
  C 565.46 383.29 571.41 402.36 569.50 414.49
  Q 568.70 419.65 566.28 428.08
  C 561.89 443.43 553.16 454.84 541.14 465.40
  Q 536.74 469.27 533.25 471.09
  A 1.16 1.16 0.0 0 0 532.62 472.14
  Z
  M 397.85 98.57
  C 393.07 98.54 392.92 104.00 394.27 107.32
  Q 400.19 121.86 414.21 126.15
  C 419.78 127.85 424.30 127.37 431.50 127.38
  Q 439.24 127.38 450.12 129.47
  A 6.84 6.64 44.6 0 0 452.59 129.49
  C 458.47 128.43 467.02 125.37 470.99 120.48
  C 474.45 116.21 479.47 106.28 476.80 100.96
  Q 475.10 97.58 469.98 98.11
  Q 453.92 99.80 444.27 111.53
  C 441.46 114.95 438.67 117.08 434.66 115.44
  Q 432.96 114.74 430.72 111.62
  Q 423.73 101.85 410.32 99.65
  Q 403.88 98.60 397.85 98.57
  Z
  M 400.47 162.20
  Q 399.92 162.06 399.97 162.29
  Q 388.93 165.87 380.91 171.92
  Q 366.91 182.48 354.11 197.86
  Q 341.50 213.01 321.22 222.90
  Q 318.64 224.16 300.28 233.02
  C 291.98 237.03 285.31 244.18 285.90 254.03
  Q 286.44 262.97 289.60 268.91
  Q 294.69 278.47 297.71 282.55
  Q 304.28 291.42 313.68 297.90
  A 3.54 3.47 59.7 0 0 315.92 298.51
  L 333.38 297.27
  A 2.25 2.24 -86.7 0 0 335.43 295.44
  C 336.04 292.19 336.76 289.73 340.39 288.96
  Q 347.51 287.47 349.51 293.64
  C 351.69 300.35 354.92 307.73 361.54 310.89
  Q 363.53 311.34 365.80 311.09
  C 373.36 309.00 377.11 304.26 382.68 298.71
  Q 384.24 297.15 388.54 295.95
  A 2.19 2.13 -41.0 0 1 389.94 296.03
  Q 395.19 298.16 395.08 303.44
  A 2.55 2.55 0.0 0 0 396.79 305.90
  Q 399.43 306.81 400.76 306.70
  A 2.84 2.80 59.6 0 1 402.66 307.21
  Q 403.25 307.63 408.69 309.08
  Q 413.94 310.49 430.62 317.63
  Q 436.78 320.27 442.38 318.14
  C 454.53 313.51 460.98 303.65 466.12 292.18
  C 474.82 272.73 471.25 251.19 471.34 230.57
  C 471.38 219.12 471.62 213.55 470.23 204.72
  Q 470.67 203.48 469.98 203.38
  Q 469.12 200.93 468.31 198.38
  C 463.56 183.57 453.81 172.12 439.01 166.24
  Q 424.10 160.30 408.90 160.73
  C 406.29 160.80 403.18 161.59 400.47 162.20
  Z
  M 488.48 266.01
  Q 490.14 265.75 494.41 262.92
  Q 501.17 258.43 505.09 254.10
  C 507.06 251.92 510.17 246.54 508.12 243.84
  C 505.50 240.39 500.94 237.94 496.52 238.44
  C 492.74 238.86 488.93 239.26 486.47 240.99
  A 1.94 1.90 71.9 0 0 485.66 242.62
  Q 485.77 246.15 486.69 262.52
  Q 486.85 265.40 487.45 265.79
  A 1.46 1.44 -32.6 0 0 488.48 266.01
  Z
  M 322.02 311.27
  L 308.59 314.08
  Q 308.31 313.41 307.74 313.65
  Q 307.45 313.78 307.71 314.25
  Q 289.69 318.82 279.63 323.89
  Q 264.21 331.66 264.16 331.69
  Q 256.91 335.75 253.55 338.81
  C 249.00 342.95 244.31 347.05 238.12 347.47
  Q 236.26 347.60 232.23 345.62
  C 225.84 342.46 220.00 340.80 213.01 343.17
  Q 211.80 342.53 212.40 343.25
  L 201.71 350.65
  Q 197.30 353.87 192.52 358.52
  Q 181.21 369.54 167.31 382.18
  C 162.31 386.73 157.64 390.57 152.02 395.35
  C 144.83 401.46 139.23 407.71 132.66 415.65
  Q 129.20 419.83 127.76 422.63
  L 123.07 429.44
  Q 122.41 427.81 122.67 430.28
  Q 117.74 441.78 118.49 452.01
  C 119.67 468.21 132.23 482.17 143.07 493.23
  Q 148.95 499.23 157.49 505.17
  Q 175.37 517.62 191.15 524.20
  C 192.98 524.96 196.07 526.21 199.20 526.92
  Q 202.98 527.78 206.61 528.87
  Q 207.44 529.83 208.82 529.11
  L 210.28 529.04
  Q 212.65 529.61 215.13 529.13
  Q 216.19 528.93 223.43 527.11
  A 7.70 7.54 23.4 0 0 225.20 526.43
  Q 233.44 522.00 240.48 515.74
  C 243.35 513.19 248.33 506.26 248.50 502.73
  A 3.67 3.55 15.1 0 0 246.48 499.35
  Q 243.13 497.69 238.56 497.03
  Q 232.15 496.11 227.11 493.12
  C 223.19 489.32 219.12 486.39 217.63 481.14
  Q 216.72 477.95 216.55 472.79
  Q 216.09 458.69 227.82 449.83
  Q 229.08 448.88 234.01 445.78
  Q 235.50 444.84 236.68 441.02
  A 2.10 2.01 48.6 0 0 236.72 440.04
  C 234.83 430.99 232.22 422.07 230.14 413.12
  Q 228.69 406.88 228.88 398.29
  Q 229.16 398.57 229.13 398.00
  Q 229.10 397.69 228.73 397.70
  Q 227.86 394.74 228.19 392.24
  Q 229.04 385.70 229.06 385.16
  A 2.17 2.16 68.2 0 1 229.65 383.78
  L 232.51 380.76
  A 1.50 1.46 -67.2 0 1 233.60 380.30
  L 238.69 380.34
  Q 241.21 381.38 242.99 383.45
  A 1.47 1.43 25.3 0 1 243.34 384.39
  L 243.34 386.13
  A 1.91 1.87 28.7 0 0 243.66 387.18
  Q 244.73 388.79 243.75 390.03
  A 0.75 0.74 48.1 0 0 243.71 390.91
  L 244.13 391.54
  A 0.66 0.63 -64.2 0 1 244.23 391.85
  L 244.37 406.20
  Q 244.26 406.12 244.15 406.29
  A 0.07 0.06 -40.3 0 0 244.14 406.35
  Q 244.24 406.62 244.49 406.63
  Q 248.07 420.77 250.99 435.06
  Q 251.93 439.67 252.15 442.28
  C 252.75 449.20 249.97 452.33 244.00 456.63
  Q 238.05 460.90 233.76 464.80
  C 231.90 466.49 232.02 467.23 231.79 469.74
  C 231.27 475.21 233.68 480.75 239.29 482.23
  Q 241.80 482.89 243.61 483.65
  A 4.85 4.81 -33.3 0 0 245.49 484.03
  L 247.82 484.03
  A 2.40 2.29 -29.9 0 1 248.92 484.30
  Q 250.16 484.96 251.96 485.01
  A 1.75 1.74 -22.4 0 1 253.10 485.48
  Q 255.29 487.53 257.61 487.73
  A 0.88 0.85 75.3 0 1 258.24 488.11
  L 263.53 496.11
  A 0.93 0.90 29.2 0 1 263.68 496.61
  Q 263.77 501.52 263.68 510.36
  Q 263.68 510.78 263.90 511.04
  Q 264.16 511.34 264.54 511.46
  Q 264.95 511.84 265.28 511.54
  Q 265.53 511.47 265.78 511.51
  L 269.49 511.57
  C 280.46 511.03 292.19 515.18 301.37 520.88
  Q 304.79 523.00 312.33 530.38
  L 319.35 539.17
  A 7.35 7.06 13.6 0 1 320.11 540.36
  Q 322.00 544.07 323.90 547.82
  C 326.34 552.65 325.90 557.62 325.73 562.70
  A 1.43 1.42 9.1 0 0 326.76 564.12
  L 334.65 566.46
  Q 338.38 566.81 343.21 568.60
  A 8.19 8.08 -30.6 0 0 344.94 569.03
  Q 348.72 569.50 352.19 570.78
  Q 353.22 571.64 353.33 570.85
  L 362.02 571.10
  A 6.44 6.42 -35.2 0 1 363.72 571.39
  L 365.05 571.81
  A 2.23 2.07 -34.6 0 0 365.67 571.90
  L 402.42 571.90
  A 4.39 4.29 -50.8 0 0 403.39 571.79
  Q 408.25 570.69 413.26 570.97
  Q 415.46 571.38 417.64 570.94
  Q 417.84 570.52 418.44 570.44
  Q 422.79 569.83 427.88 569.42
  Q 456.99 565.58 482.56 549.77
  Q 489.96 545.19 494.73 540.98
  Q 505.61 531.35 511.66 517.66
  C 513.46 513.58 515.03 507.98 516.88 503.17
  Q 516.98 503.30 517.04 503.38
  A 0.07 0.07 0.0 0 0 517.17 503.35
  Q 517.22 503.00 516.90 502.97
  Q 519.92 488.82 517.11 475.08
  Q 517.24 474.26 516.90 474.59
  Q 515.60 470.04 513.83 465.69
  C 510.88 458.45 505.24 453.20 500.46 448.03
  Q 487.91 434.45 483.97 417.27
  Q 480.13 400.51 474.30 387.21
  Q 470.39 378.31 462.99 366.63
  Q 450.62 342.92 425.80 331.47
  Q 409.46 323.93 394.80 319.81
  L 388.08 318.98
  L 383.83 318.89
  A 1.70 1.69 31.9 0 0 383.09 319.06
  L 375.50 322.70
  A 3.60 3.42 24.7 0 1 374.68 322.98
  C 371.36 323.69 368.34 324.98 365.46 325.26
  C 355.33 326.25 347.46 320.09 341.40 312.73
  A 2.38 2.37 -14.8 0 0 339.97 311.90
  L 335.20 311.07
  L 321.19 311.06
  A 0.03 0.02 48.4 0 0 321.19 311.11
  L 322.02 311.27
  Z
  M 457.22 327.40
  Q 454.64 328.36 452.66 330.47
  Q 452.59 331.22 452.74 330.94
  Q 460.71 337.06 462.63 339.87
  C 465.33 343.84 468.87 347.75 471.19 351.28
  C 480.05 364.79 487.46 378.30 492.64 393.44
  Q 495.86 402.86 498.12 412.68
  Q 501.33 426.71 510.98 437.50
  Q 513.84 440.70 517.42 444.44
  C 521.11 448.30 523.65 452.46 526.55 456.63
  A 1.01 1.01 0.0 0 0 527.88 456.93
  Q 530.95 455.19 531.66 453.88
  Q 548.19 440.41 553.01 420.54
  Q 553.01 418.32 553.62 416.31
  Q 554.58 413.17 554.62 412.23
  Q 554.78 408.57 554.43 407.26
  Q 553.32 403.17 553.18 401.20
  Q 552.91 397.31 552.12 395.13
  C 548.09 383.97 540.47 381.18 530.78 375.47
  Q 529.27 374.58 525.10 373.03
  Q 507.99 365.51 495.30 352.70
  Q 488.09 345.43 480.77 337.98
  Q 472.42 329.48 461.87 324.17
  A 1.22 1.21 36.6 0 0 460.48 324.37
  L 457.22 327.40
  Z
  M 237.1204 440.8600
  A 0.11 0.01 89.8 0 0 237.1300 440.7500
  A 0.11 0.01 89.8 0 0 237.1196 440.6400
  A 0.11 0.01 89.8 0 0 237.1100 440.7500
  A 0.11 0.01 89.8 0 0 237.1204 440.8600
  Z
  M 532.96 524.17
  L 529.22 524.07
  Q 527.40 523.71 525.61 524.01
  A 1.10 1.08 10.6 0 0 524.84 524.53
  Q 523.83 526.22 521.80 530.09
  Q 517.10 539.09 509.39 547.30
  C 505.85 551.08 500.67 554.40 497.76 556.99
  C 493.75 560.56 488.63 563.10 483.44 566.51
  A 0.94 0.93 57.4 0 0 483.16 567.79
  Q 484.14 569.38 485.57 570.06
  C 495.75 577.91 507.17 581.39 520.06 579.61
  C 535.03 577.56 548.46 571.57 554.45 556.69
  Q 557.45 549.22 553.00 541.00
  Q 546.15 528.38 533.81 524.37
  Q 534.01 523.97 533.63 523.87
  Q 533.05 523.73 532.96 524.17
  Z
  M 226.74 556.12
  Q 229.80 567.72 240.91 573.87
  C 252.24 580.14 266.19 583.41 279.75 581.76
  C 291.96 580.27 305.04 574.66 308.97 561.76
  Q 310.14 557.92 309.65 555.59
  C 308.72 551.25 306.23 547.68 303.68 544.00
  Q 298.64 536.73 288.54 530.97
  Q 280.40 526.33 273.04 525.96
  Q 265.20 525.02 257.61 526.33
  C 254.48 526.87 251.06 528.40 248.05 529.59
  Q 239.06 533.14 233.43 540.14
  A 8.32 8.28 -13.1 0 0 232.36 541.85
  Q 230.66 545.39 228.05 550.07
  Q 227.38 551.27 226.74 556.12
  Z"
/>
<path fill="#53b469" d="
  M 394.27 107.32
  C 392.92 104.00 393.07 98.54 397.85 98.57
  Q 403.88 98.60 410.32 99.65
  Q 423.73 101.85 430.72 111.62
  Q 432.96 114.74 434.66 115.44
  C 438.67 117.08 441.46 114.95 444.27 111.53
  Q 453.92 99.80 469.98 98.11
  Q 475.10 97.58 476.80 100.96
  C 479.47 106.28 474.45 116.21 470.99 120.48
  C 467.02 125.37 458.47 128.43 452.59 129.49
  A 6.84 6.64 44.6 0 1 450.12 129.47
  Q 439.24 127.38 431.50 127.38
  C 424.30 127.37 419.78 127.85 414.21 126.15
  Q 400.19 121.86 394.27 107.32
  Z
  M 411.31 117.60
  C 414.50 119.50 418.78 123.72 422.91 121.73
  C 426.62 119.95 425.28 115.98 423.12 113.60
  Q 420.16 110.34 416.81 108.35
  Q 413.45 106.35 409.17 105.31
  C 406.05 104.56 401.92 105.28 402.13 109.38
  C 402.36 113.97 408.11 115.70 411.31 117.60
  Z
  M 459.62 118.92
  C 462.38 116.58 467.62 113.98 467.10 109.54
  C 466.63 105.56 462.55 105.54 459.68 106.78
  Q 455.73 108.47 452.83 110.93
  Q 449.94 113.39 447.62 117.01
  C 445.94 119.64 445.30 123.67 449.15 124.78
  C 453.44 126.02 456.86 121.27 459.62 118.92
  Z"
/>
<path fill="#000000" d="
  M 416.81 108.35
  Q 420.16 110.34 423.12 113.60
  C 425.28 115.98 426.62 119.95 422.91 121.73
  C 418.78 123.72 414.50 119.50 411.31 117.60
  C 408.11 115.70 402.36 113.97 402.13 109.38
  C 401.92 105.28 406.05 104.56 409.17 105.31
  Q 413.45 106.35 416.81 108.35
  Z"
/>
<path fill="#000000" d="
  M 459.62 118.92
  C 456.86 121.27 453.44 126.02 449.15 124.78
  C 445.30 123.67 445.94 119.64 447.62 117.01
  Q 449.94 113.39 452.83 110.93
  Q 455.73 108.47 459.68 106.78
  C 462.55 105.54 466.63 105.56 467.10 109.54
  C 467.62 113.98 462.38 116.58 459.62 118.92
  Z"
/>
<path fill="#ffc754" d="
  M 469.98 203.38
  Q 469.98 204.06 470.23 204.72
  C 471.62 213.55 471.38 219.12 471.34 230.57
  C 471.25 251.19 474.82 272.73 466.12 292.18
  C 460.98 303.65 454.53 313.51 442.38 318.14
  Q 436.78 320.27 430.62 317.63
  Q 413.94 310.49 408.69 309.08
  Q 403.25 307.63 402.66 307.21
  A 2.84 2.80 59.6 0 0 400.76 306.70
  Q 399.43 306.81 396.79 305.90
  A 2.55 2.55 0.0 0 1 395.08 303.44
  Q 395.19 298.16 389.94 296.03
  A 2.19 2.13 -41.0 0 0 388.54 295.95
  Q 384.24 297.15 382.68 298.71
  C 377.11 304.26 373.36 309.00 365.80 311.09
  L 361.54 310.89
  C 354.92 307.73 351.69 300.35 349.51 293.64
  Q 347.51 287.47 340.39 288.96
  C 336.76 289.73 336.04 292.19 335.43 295.44
  A 2.25 2.24 -86.7 0 1 333.38 297.27
  L 315.92 298.51
  A 3.54 3.47 59.7 0 1 313.68 297.90
  Q 304.28 291.42 297.71 282.55
  Q 294.69 278.47 289.60 268.91
  Q 286.44 262.97 285.90 254.03
  C 285.31 244.18 291.98 237.03 300.28 233.02
  Q 318.64 224.16 321.22 222.90
  Q 341.50 213.01 354.11 197.86
  Q 366.91 182.48 380.91 171.92
  Q 388.93 165.87 399.97 162.29
  Q 400.19 162.17 400.47 162.20
  C 403.18 161.59 406.29 160.80 408.90 160.73
  Q 424.10 160.30 439.01 166.24
  C 453.81 172.12 463.56 183.57 468.31 198.38
  Q 469.12 200.93 469.98 203.38
  Z
  M 390.58 207.73
  L 390.58 212.43
  A 1.40 1.36 25.6 0 0 390.91 213.32
  Q 392.60 215.31 395.84 215.17
  A 0.65 0.59 27.5 0 0 396.15 215.09
  L 399.77 213.35
  A 1.22 1.16 -55.1 0 1 400.31 213.24
  L 406.79 213.47
  A 3.13 3.12 8.8 0 0 409.92 211.19
  C 411.63 205.07 406.15 202.49 400.84 202.71
  Q 395.86 202.93 391.02 206.80
  A 1.20 1.20 0.0 0 0 390.58 207.73
  Z
  M 454.54 214.53
  Q 458.58 216.62 462.67 216.17
  A 2.51 2.51 0.0 0 0 464.75 214.51
  Q 466.31 209.99 462.90 207.19
  Q 460.14 204.93 457.84 204.68
  C 454.28 204.29 447.97 204.14 445.12 206.63
  C 439.10 211.87 445.85 219.60 452.36 214.72
  A 2.06 2.06 0.0 0 1 454.54 214.53
  Z
  M 427.52 249.04
  L 435.72 249.08
  C 443.13 248.76 450.12 246.17 454.74 240.24
  C 459.59 234.03 456.71 224.86 450.04 221.43
  C 441.08 216.82 427.18 217.14 418.25 219.26
  C 409.53 221.33 403.63 227.29 405.91 236.84
  A 4.02 3.81 -68.2 0 0 406.30 237.82
  C 410.62 245.48 419.12 249.00 427.52 249.04
  Z"
/>
<path fill="#010200" fill-opacity="0.631" d="
  M 400.47 162.20
  Q 400.19 162.17 399.97 162.29
  Q 399.92 162.06 400.47 162.20
  Z"
/>
<path fill="#000000" d="
  M 391.02 206.80
  Q 395.86 202.93 400.84 202.71
  C 406.15 202.49 411.63 205.07 409.92 211.19
  A 3.13 3.12 8.8 0 1 406.79 213.47
  L 400.31 213.24
  A 1.22 1.16 -55.1 0 0 399.77 213.35
  L 396.15 215.09
  A 0.65 0.59 27.5 0 1 395.84 215.17
  Q 392.60 215.31 390.91 213.32
  A 1.40 1.36 25.6 0 1 390.58 212.43
  L 390.58 207.73
  A 1.20 1.20 0.0 0 1 391.02 206.80
  Z"
/>
<path fill="#000000" d="
  M 454.54 214.53
  A 2.06 2.06 0.0 0 0 452.36 214.72
  C 445.85 219.60 439.10 211.87 445.12 206.63
  C 447.97 204.14 454.28 204.29 457.84 204.68
  Q 460.14 204.93 462.90 207.19
  Q 466.31 209.99 464.75 214.51
  A 2.51 2.51 0.0 0 1 462.67 216.17
  Q 458.58 216.62 454.54 214.53
  Z"
/>
<path fill="#000000" d="
  M 435.72 249.08
  L 427.52 249.04
  C 419.12 249.00 410.62 245.48 406.30 237.82
  A 4.02 3.81 -68.2 0 1 405.91 236.84
  C 403.63 227.29 409.53 221.33 418.25 219.26
  C 427.18 217.14 441.08 216.82 450.04 221.43
  C 456.71 224.86 459.59 234.03 454.74 240.24
  C 450.12 246.17 443.13 248.76 435.72 249.08
  Z
  M 426.71 227.22
  Q 420.90 227.09 416.54 230.17
  A 2.15 2.14 55.0 0 0 416.02 233.16
  C 420.17 239.06 426.04 239.29 433.50 239.45
  Q 440.96 239.62 445.34 235.38
  C 449.85 231.02 441.81 228.49 439.00 228.05
  Q 434.08 227.28 429.31 227.31
  Q 428.51 226.27 426.71 227.22
  Z"
/>
<path fill="#010200" fill-opacity="0.631" d="
  M 429.31 227.31
  L 426.71 227.22
  Q 428.51 226.27 429.31 227.31
  Z"
/>
<path fill="#ff8f47" d="
  M 426.71 227.22
  L 429.31 227.31
  Q 434.08 227.28 439.00 228.05
  C 441.81 228.49 449.85 231.02 445.34 235.38
  Q 440.96 239.62 433.50 239.45
  C 426.04 239.29 420.17 239.06 416.02 233.16
  A 2.15 2.14 55.0 0 1 416.54 230.17
  Q 420.90 227.09 426.71 227.22
  Z"
/>
<path fill="#ffc754" d="
  M 487.45 265.79
  Q 486.85 265.40 486.69 262.52
  Q 485.77 246.15 485.66 242.62
  A 1.94 1.90 71.9 0 1 486.47 240.99
  C 488.93 239.26 492.74 238.86 496.52 238.44
  C 500.94 237.94 505.50 240.39 508.12 243.84
  C 510.17 246.54 507.06 251.92 505.09 254.10
  Q 501.17 258.43 494.41 262.92
  Q 490.14 265.75 488.48 266.01
  A 1.46 1.44 -32.6 0 1 487.45 265.79
  Z"
/>
<path fill="#010200" fill-opacity="0.631" d="
  M 435.72 249.08
  L 427.52 249.04
  L 435.72 249.08
  Z"
/>
<path fill="#010200" fill-opacity="0.631" d="
  M 365.80 311.09
  Q 363.53 311.34 361.54 310.89
  L 365.80 311.09
  Z"
/>
<path fill="#010200" fill-opacity="0.631" d="
  M 335.20 311.07
  Q 335.07 311.20 334.66 311.25
  L 322.02 311.27
  L 321.19 311.11
  A 0.03 0.02 48.4 0 1 321.19 311.06
  L 335.20 311.07
  Z"
/>
<path fill="#ce9963" d="
  M 334.66 311.25
  Q 337.62 312.45 338.17 313.34
  C 344.57 323.82 352.71 333.72 366.59 331.27
  Q 375.25 329.75 383.28 323.74
  A 0.22 0.17 -78.6 0 0 383.35 323.68
  L 388.08 318.98
  L 394.80 319.81
  Q 396.68 336.33 407.45 348.04
  C 419.59 361.24 439.09 371.76 457.49 367.74
  Q 460.27 367.13 462.99 366.63
  Q 470.39 378.31 474.30 387.21
  Q 480.13 400.51 483.97 417.27
  Q 487.91 434.45 500.46 448.03
  C 505.24 453.20 510.88 458.45 513.83 465.69
  Q 515.60 470.04 516.90 474.59
  Q 517.06 474.38 517.11 475.08
  Q 519.92 488.82 516.90 502.97
  Q 516.89 503.07 516.88 503.17
  C 515.03 507.98 513.46 513.58 511.66 517.66
  Q 505.61 531.35 494.73 540.98
  Q 489.96 545.19 482.56 549.77
  Q 456.99 565.58 427.88 569.42
  Q 424.92 565.81 420.34 563.67
  Q 413.01 560.25 407.93 559.07
  Q 396.08 556.34 391.86 555.41
  Q 378.64 552.51 370.24 542.02
  Q 365.42 536.00 363.26 533.25
  C 355.76 523.67 343.92 520.67 332.19 523.20
  Q 324.95 524.76 322.45 525.80
  L 321.94 525.76
  A 1.13 1.10 71.7 0 1 321.15 525.35
  Q 314.51 517.24 304.27 513.24
  Q 290.15 507.71 276.79 506.03
  Q 274.37 505.72 271.84 503.84
  A 1.77 1.76 -76.5 0 1 271.16 502.73
  Q 270.45 498.57 270.06 497.12
  Q 266.89 485.50 255.38 482.00
  Q 250.84 480.62 245.09 480.19
  A 1.80 1.77 -18.8 0 1 243.89 479.61
  C 237.38 472.45 241.37 464.65 248.26 460.01
  C 250.97 458.19 257.68 456.07 259.12 450.80
  A 3.10 2.98 -40.9 0 0 259.22 449.71
  Q 258.41 440.53 258.11 438.52
  Q 253.75 408.87 249.98 394.46
  Q 246.68 381.81 246.65 380.17
  A 1.33 1.28 -67.6 0 0 246.31 379.31
  C 242.97 375.74 241.45 379.74 238.69 380.34
  L 233.60 380.30
  A 1.50 1.46 -67.2 0 0 232.51 380.76
  L 229.65 383.78
  A 2.17 2.16 68.2 0 0 229.06 385.16
  Q 229.04 385.70 228.19 392.24
  Q 227.86 394.74 228.73 397.70
  Q 228.84 397.95 228.88 398.29
  Q 228.69 406.88 230.14 413.12
  C 232.22 422.07 234.83 430.99 236.72 440.04
  A 2.10 2.01 48.6 0 1 236.68 441.02
  Q 235.50 444.84 234.01 445.78
  Q 229.08 448.88 227.82 449.83
  Q 216.09 458.69 216.55 472.79
  Q 216.72 477.95 217.63 481.14
  C 219.12 486.39 223.19 489.32 227.11 493.12
  Q 219.23 496.98 215.98 502.74
  C 211.82 510.12 207.02 515.73 208.81 524.97
  Q 209.11 526.49 210.28 529.04
  L 208.82 529.11
  L 206.61 528.87
  Q 202.98 527.78 199.20 526.92
  C 196.07 526.21 192.98 524.96 191.15 524.20
  Q 175.37 517.62 157.49 505.17
  Q 148.95 499.23 143.07 493.23
  C 132.23 482.17 119.67 468.21 118.49 452.01
  Q 117.74 441.78 122.67 430.28
  L 123.07 429.44
  L 127.76 422.63
  Q 130.15 429.46 132.75 433.49
  C 139.38 443.74 152.38 446.92 163.02 441.30
  C 166.57 439.43 170.23 436.03 172.91 433.84
  C 179.95 428.11 185.57 426.87 196.68 423.94
  C 207.24 421.15 212.93 413.01 217.04 403.57
  C 218.34 400.60 219.25 395.44 219.05 392.75
  Q 217.82 376.17 211.44 362.83
  Q 208.28 356.22 201.71 350.65
  L 212.40 343.25
  L 213.01 343.17
  C 220.00 340.80 225.84 342.46 232.23 345.62
  Q 236.26 347.60 238.12 347.47
  C 244.31 347.05 249.00 342.95 253.55 338.81
  Q 256.91 335.75 264.16 331.69
  Q 264.21 331.66 279.63 323.89
  Q 289.69 318.82 307.71 314.25
  Q 308.27 313.94 308.59 314.08
  L 322.02 311.27
  L 334.66 311.25
  Z
  M 469.1409 456.1005
  A 30.75 24.26 61.1 0 0 475.5188 417.4556
  A 30.75 24.26 61.1 0 0 439.4191 402.2595
  A 30.75 24.26 61.1 0 0 433.0412 440.9044
  A 30.75 24.26 61.1 0 0 469.1409 456.1005
  Z
  M 380.11 456.74
  Q 385.18 451.50 379.91 446.55
  A 2.86 2.81 77.5 0 0 379.05 445.99
  C 371.67 442.86 361.39 447.18 356.38 453.26
  C 349.96 461.04 358.74 467.32 365.43 461.35
  Q 367.93 459.11 368.81 458.39
  A 3.78 3.75 -65.0 0 1 371.09 457.55
  L 378.62 457.39
  A 2.15 2.14 21.3 0 0 380.11 456.74
  Z
  M 435.39 467.55
  A 0.51 0.50 65.0 0 1 435.56 467.06
  L 441.35 462.31
  A 2.09 2.06 70.6 0 0 442.11 460.70
  L 442.11 454.15
  A 1.52 1.50 24.5 0 0 441.73 453.15
  Q 438.36 449.34 433.67 447.06
  A 2.87 2.84 -27.9 0 0 432.74 446.78
  Q 432.01 446.70 423.02 446.84
  Q 417.41 446.93 410.54 450.82
  Q 404.65 454.16 405.82 461.03
  C 406.50 465.01 410.38 467.36 413.82 468.77
  A 0.76 0.60 52.0 0 0 413.98 468.81
  L 420.97 470.03
  A 2.22 2.21 -20.5 0 1 421.94 470.47
  C 424.35 472.45 424.06 476.12 425.49 478.43
  Q 428.15 482.71 433.67 481.13
  A 2.89 2.87 -3.8 0 0 435.74 478.78
  Q 436.58 473.23 435.39 467.55
  Z"
/>
<path fill="#a65c26" d="
  M 335.20 311.07
  L 339.97 311.90
  A 2.38 2.37 -14.8 0 1 341.40 312.73
  C 347.46 320.09 355.33 326.25 365.46 325.26
  C 368.34 324.98 371.36 323.69 374.68 322.98
  A 3.60 3.42 24.7 0 0 375.50 322.70
  L 383.09 319.06
  A 1.70 1.69 31.9 0 1 383.83 318.89
  L 388.08 318.98
  L 383.35 323.68
  A 0.22 0.17 -78.6 0 1 383.28 323.74
  Q 375.25 329.75 366.59 331.27
  C 352.71 333.72 344.57 323.82 338.17 313.34
  Q 337.62 312.45 334.66 311.25
  Q 335.07 311.20 335.20 311.07
  Z"
/>
<path fill="#010200" fill-opacity="0.631" d="
  M 308.59 314.08
  Q 308.27 313.94 307.71 314.25
  Q 307.45 313.78 307.74 313.65
  Q 308.31 313.41 308.59 314.08
  Z"
/>
<path fill="#7f503a" d="
  M 462.99 366.63
  Q 460.27 367.13 457.49 367.74
  C 439.09 371.76 419.59 361.24 407.45 348.04
  Q 396.68 336.33 394.80 319.81
  Q 409.46 323.93 425.80 331.47
  Q 450.62 342.92 462.99 366.63
  Z"
/>
<path fill="#ce9963" d="
  M 525.10 373.03
  Q 520.77 380.47 518.79 385.05
  Q 516.99 389.23 517.27 394.44
  C 517.62 401.01 521.00 405.84 526.98 408.24
  Q 527.99 408.65 533.13 409.01
  Q 539.63 409.47 544.26 413.75
  Q 549.08 418.20 553.01 420.54
  Q 548.19 440.41 531.66 453.88
  Q 526.65 447.08 521.53 440.50
  C 515.25 432.43 511.01 425.83 507.80 417.20
  Q 505.45 410.89 498.85 392.39
  C 492.24 373.85 482.96 357.63 469.17 343.18
  Q 461.26 334.89 457.27 330.74
  A 1.03 1.03 0.0 0 1 457.06 329.67
  Q 457.43 328.74 457.22 327.40
  L 460.48 324.37
  A 1.22 1.21 36.6 0 1 461.87 324.17
  Q 472.42 329.48 480.77 337.98
  Q 488.09 345.43 495.30 352.70
  Q 507.99 365.51 525.10 373.03
  Z"
/>
<path fill="#a65c26" d="
  M 457.22 327.40
  Q 457.43 328.74 457.06 329.67
  A 1.03 1.03 0.0 0 0 457.27 330.74
  Q 461.26 334.89 469.17 343.18
  C 482.96 357.63 492.24 373.85 498.85 392.39
  Q 505.45 410.89 507.80 417.20
  C 511.01 425.83 515.25 432.43 521.53 440.50
  Q 526.65 447.08 531.66 453.88
  Q 530.95 455.19 527.88 456.93
  A 1.01 1.01 0.0 0 1 526.55 456.63
  C 523.65 452.46 521.11 448.30 517.42 444.44
  Q 513.84 440.70 510.98 437.50
  Q 501.33 426.71 498.12 412.68
  Q 495.86 402.86 492.64 393.44
  C 487.46 378.30 480.05 364.79 471.19 351.28
  C 468.87 347.75 465.33 343.84 462.63 339.87
  Q 460.71 337.06 452.74 330.94
  L 452.66 330.47
  Q 454.64 328.36 457.22 327.40
  Z"
/>
<path fill="#010200" fill-opacity="0.631" d="
  M 452.66 330.47
  L 452.74 330.94
  Q 452.59 331.22 452.66 330.47
  Z"
/>
<path fill="#010200" fill-opacity="0.631" d="
  M 213.01 343.17
  L 212.40 343.25
  Q 211.80 342.53 213.01 343.17
  Z"
/>
<path fill="#7f503a" d="
  M 201.71 350.65
  Q 208.28 356.22 211.44 362.83
  Q 217.82 376.17 219.05 392.75
  C 219.25 395.44 218.34 400.60 217.04 403.57
  C 212.93 413.01 207.24 421.15 196.68 423.94
  C 185.57 426.87 179.95 428.11 172.91 433.84
  C 170.23 436.03 166.57 439.43 163.02 441.30
  C 152.38 446.92 139.38 443.74 132.75 433.49
  Q 130.15 429.46 127.76 422.63
  Q 129.20 419.83 132.66 415.65
  C 139.23 407.71 144.83 401.46 152.02 395.35
  C 157.64 390.57 162.31 386.73 167.31 382.18
  Q 181.21 369.54 192.52 358.52
  Q 197.30 353.87 201.71 350.65
  Z"
/>
<path fill="#7f503a" d="
  M 553.01 420.54
  Q 549.08 418.20 544.26 413.75
  Q 539.63 409.47 533.13 409.01
  Q 527.99 408.65 526.98 408.24
  C 521.00 405.84 517.62 401.01 517.27 394.44
  Q 516.99 389.23 518.79 385.05
  Q 520.77 380.47 525.10 373.03
  Q 529.27 374.58 530.78 375.47
  C 540.47 381.18 548.09 383.97 552.12 395.13
  Q 552.91 397.31 553.18 401.20
  Q 553.32 403.17 554.43 407.26
  Q 554.78 408.57 554.62 412.23
  Q 554.58 413.17 553.62 416.31
  Q 553.01 418.32 553.01 420.54
  Z"
/>
<path fill="#a65c26" d="
  M 322.45 525.80
  L 321.03 526.32
  L 312.33 530.38
  Q 304.79 523.00 301.37 520.88
  C 292.19 515.18 280.46 511.03 269.49 511.57
  L 265.78 511.51
  Q 265.53 511.47 265.28 511.54
  L 264.54 511.46
  Q 264.16 511.34 263.90 511.04
  Q 263.68 510.78 263.68 510.36
  Q 263.77 501.52 263.68 496.61
  A 0.93 0.90 29.2 0 0 263.53 496.11
  L 258.24 488.11
  A 0.88 0.85 75.3 0 0 257.61 487.73
  Q 255.29 487.53 253.10 485.48
  A 1.75 1.74 -22.4 0 0 251.96 485.01
  Q 250.16 484.96 248.92 484.30
  A 2.40 2.29 -29.9 0 0 247.82 484.03
  L 245.49 484.03
  A 4.85 4.81 -33.3 0 1 243.61 483.65
  Q 241.80 482.89 239.29 482.23
  C 233.68 480.75 231.27 475.21 231.79 469.74
  C 232.02 467.23 231.90 466.49 233.76 464.80
  Q 238.05 460.90 244.00 456.63
  C 249.97 452.33 252.75 449.20 252.15 442.28
  Q 251.93 439.67 250.99 435.06
  Q 248.07 420.77 244.49 406.63
  Q 244.48 406.35 244.37 406.20
  L 244.23 391.85
  A 0.66 0.63 -64.2 0 0 244.13 391.54
  L 243.71 390.91
  A 0.75 0.74 48.1 0 1 243.75 390.03
  Q 244.73 388.79 243.66 387.18
  A 1.91 1.87 28.7 0 1 243.34 386.13
  L 243.34 384.39
  A 1.47 1.43 25.3 0 0 242.99 383.45
  Q 241.21 381.38 238.69 380.34
  C 241.45 379.74 242.97 375.74 246.31 379.31
  A 1.33 1.28 -67.6 0 1 246.65 380.17
  Q 246.68 381.81 249.98 394.46
  Q 253.75 408.87 258.11 438.52
  Q 258.41 440.53 259.22 449.71
  A 3.10 2.98 -40.9 0 1 259.12 450.80
  C 257.68 456.07 250.97 458.19 248.26 460.01
  C 241.37 464.65 237.38 472.45 243.89 479.61
  A 1.80 1.77 -18.8 0 0 245.09 480.19
  Q 250.84 480.62 255.38 482.00
  Q 266.89 485.50 270.06 497.12
  Q 270.45 498.57 271.16 502.73
  A 1.77 1.76 -76.5 0 0 271.84 503.84
  Q 274.37 505.72 276.79 506.03
  Q 290.15 507.71 304.27 513.24
  Q 314.51 517.24 321.15 525.35
  A 1.13 1.10 71.7 0 0 321.94 525.76
  L 322.45 525.80
  Z"
/>
<path fill="#010200" fill-opacity="0.631" d="
  M 228.88 398.29
  Q 228.84 397.95 228.73 397.70
  Q 229.10 397.69 229.13 398.00
  Q 229.16 398.57 228.88 398.29
  Z"
/>
<path fill="#7f503a" d="
  M 469.1409 456.1005
  A 30.75 24.26 61.1 0 1 433.0412 440.9044
  A 30.75 24.26 61.1 0 1 439.4191 402.2595
  A 30.75 24.26 61.1 0 1 475.5188 417.4556
  A 30.75 24.26 61.1 0 1 469.1409 456.1005
  Z
  M 442.84 431.96
  Q 442.73 432.70 442.92 433.29
  Q 442.17 437.53 445.72 438.52
  C 450.58 439.88 453.58 436.89 456.96 434.82
  A 3.42 3.41 40.2 0 1 460.01 434.57
  L 465.94 436.98
  A 1.91 1.91 0.0 0 0 467.71 436.81
  L 471.71 434.16
  A 1.21 1.19 -17.1 0 0 472.25 433.16
  L 472.25 428.50
  A 0.97 0.95 -68.5 0 0 471.96 427.81
  C 467.89 423.88 466.14 422.58 460.79 422.85
  L 457.53 422.81
  L 452.76 422.92
  A 4.58 4.53 31.0 0 0 450.83 423.39
  Q 446.56 425.47 443.45 429.10
  A 1.64 1.64 0.0 0 0 443.06 429.98
  L 442.84 431.96
  Z"
/>
<path fill="#010200" fill-opacity="0.631" d="
  M 244.37 406.20
  Q 244.48 406.35 244.49 406.63
  Q 244.24 406.62 244.14 406.35
  A 0.07 0.06 -40.3 0 1 244.15 406.29
  Q 244.26 406.12 244.37 406.20
  Z"
/>
<path fill="#000000" d="
  M 457.53 422.81
  Q 459.18 423.18 460.79 422.85
  C 466.14 422.58 467.89 423.88 471.96 427.81
  A 0.97 0.95 -68.5 0 1 472.25 428.50
  L 472.25 433.16
  A 1.21 1.19 -17.1 0 1 471.71 434.16
  L 467.71 436.81
  A 1.91 1.91 0.0 0 1 465.94 436.98
  L 460.01 434.57
  A 3.42 3.41 40.2 0 0 456.96 434.82
  C 453.58 436.89 450.58 439.88 445.72 438.52
  Q 442.17 437.53 442.92 433.29
  Q 443.23 432.37 442.84 431.96
  L 443.06 429.98
  A 1.64 1.64 0.0 0 1 443.45 429.10
  Q 446.56 425.47 450.83 423.39
  A 4.58 4.53 31.0 0 1 452.76 422.92
  L 457.53 422.81
  Z"
/>
<path fill="#010200" fill-opacity="0.631" d="
  M 460.79 422.85
  Q 459.18 423.18 457.53 422.81
  L 460.79 422.85
  Z"
/>
<path fill="#010200" fill-opacity="0.631" d="
  M 123.07 429.44
  L 122.67 430.28
  Q 122.41 427.81 123.07 429.44
  Z"
/>
<path fill="#010200" fill-opacity="0.631" d="
  M 442.92 433.29
  Q 442.73 432.70 442.84 431.96
  Q 443.23 432.37 442.92 433.29
  Z"
/>
<ellipse fill="#010200" fill-opacity="0.631" cx="0.00" cy="0.00" transform="translate(237.12,440.75) rotate(89.8)" rx="0.11" ry="0.01"/>
<path fill="#000000" d="
  M 380.11 456.74
  A 2.15 2.14 21.3 0 1 378.62 457.39
  L 371.09 457.55
  A 3.78 3.75 -65.0 0 0 368.81 458.39
  Q 367.93 459.11 365.43 461.35
  C 358.74 467.32 349.96 461.04 356.38 453.26
  C 361.39 447.18 371.67 442.86 379.05 445.99
  A 2.86 2.81 77.5 0 1 379.91 446.55
  Q 385.18 451.50 380.11 456.74
  Z"
/>
<path fill="#000000" d="
  M 435.39 467.55
  Q 436.58 473.23 435.74 478.78
  A 2.89 2.87 -3.8 0 1 433.67 481.13
  Q 428.15 482.71 425.49 478.43
  C 424.06 476.12 424.35 472.45 421.94 470.47
  A 2.22 2.21 -20.5 0 0 420.97 470.03
  L 413.98 468.81
  A 0.76 0.60 52.0 0 1 413.82 468.77
  C 410.38 467.36 406.50 465.01 405.82 461.03
  Q 404.65 454.16 410.54 450.82
  Q 417.41 446.93 423.02 446.84
  Q 432.01 446.70 432.74 446.78
  A 2.87 2.84 -27.9 0 1 433.67 447.06
  Q 438.36 449.34 441.73 453.15
  A 1.52 1.50 24.5 0 1 442.11 454.15
  L 442.11 460.70
  A 2.09 2.06 70.6 0 1 441.35 462.31
  L 435.56 467.06
  A 0.51 0.50 65.0 0 0 435.39 467.55
  Z"
/>
<path fill="#010200" fill-opacity="0.631" d="
  M 517.11 475.08
  Q 517.06 474.38 516.90 474.59
  Q 517.24 474.26 517.11 475.08
  Z"
/>
<path fill="#7f503a" d="
  M 210.28 529.04
  Q 209.11 526.49 208.81 524.97
  C 207.02 515.73 211.82 510.12 215.98 502.74
  Q 219.23 496.98 227.11 493.12
  Q 232.15 496.11 238.56 497.03
  Q 243.13 497.69 246.48 499.35
  A 3.67 3.55 15.1 0 1 248.50 502.73
  C 248.33 506.26 243.35 513.19 240.48 515.74
  Q 233.44 522.00 225.20 526.43
  A 7.70 7.54 23.4 0 1 223.43 527.11
  Q 216.19 528.93 215.13 529.13
  Q 212.65 529.61 210.28 529.04
  Z"
/>
<path fill="#010200" fill-opacity="0.631" d="
  M 516.88 503.17
  Q 516.89 503.07 516.90 502.97
  Q 517.22 503.00 517.17 503.35
  A 0.07 0.07 0.0 0 1 517.04 503.38
  Q 516.98 503.30 516.88 503.17
  Z"
/>
<path fill="#7f503a" d="
  M 427.88 569.42
  Q 422.79 569.83 418.44 570.44
  Q 417.84 570.52 417.64 570.94
  Q 415.39 570.55 413.26 570.97
  Q 408.25 570.69 403.39 571.79
  A 4.39 4.29 -50.8 0 1 402.42 571.90
  L 365.67 571.90
  A 2.23 2.07 -34.6 0 1 365.05 571.81
  L 363.72 571.39
  A 6.44 6.42 -35.2 0 0 362.02 571.10
  L 353.33 570.85
  L 352.19 570.78
  Q 348.72 569.50 344.94 569.03
  A 8.19 8.08 -30.6 0 1 343.21 568.60
  Q 338.38 566.81 334.65 566.46
  Q 333.55 545.62 323.01 528.04
  Q 322.31 526.87 321.03 526.32
  L 322.45 525.80
  Q 324.95 524.76 332.19 523.20
  C 343.92 520.67 355.76 523.67 363.26 533.25
  Q 365.42 536.00 370.24 542.02
  Q 378.64 552.51 391.86 555.41
  Q 396.08 556.34 407.93 559.07
  Q 413.01 560.25 420.34 563.67
  Q 424.92 565.81 427.88 569.42
  Z"
/>
<path fill="#010200" fill-opacity="0.631" d="
  M 533.81 524.37
  Q 533.41 524.16 532.96 524.17
  Q 533.05 523.73 533.63 523.87
  Q 534.01 523.97 533.81 524.37
  Z"
/>
<path fill="#a65c26" d="
  M 529.22 524.07
  Q 524.80 539.04 512.21 551.22
  Q 499.41 563.61 485.57 570.06
  Q 484.14 569.38 483.16 567.79
  A 0.94 0.93 57.4 0 1 483.44 566.51
  C 488.63 563.10 493.75 560.56 497.76 556.99
  C 500.67 554.40 505.85 551.08 509.39 547.30
  Q 517.10 539.09 521.80 530.09
  Q 523.83 526.22 524.84 524.53
  A 1.10 1.08 10.6 0 1 525.61 524.01
  Q 527.40 523.71 529.22 524.07
  Z"
/>
<path fill="#ce9963" d="
  M 532.96 524.17
  Q 533.41 524.16 533.81 524.37
  Q 546.15 528.38 553.00 541.00
  Q 557.45 549.22 554.45 556.69
  C 548.46 571.57 535.03 577.56 520.06 579.61
  C 507.17 581.39 495.75 577.91 485.57 570.06
  Q 499.41 563.61 512.21 551.22
  Q 524.80 539.04 529.22 524.07
  L 532.96 524.17
  Z"
/>
<path fill="#a65c26" d="
  M 273.04 525.96
  L 264.25 526.06
  A 1.53 1.50 -64.0 0 0 263.35 526.38
  Q 261.09 528.17 260.12 528.63
  Q 249.41 533.69 246.52 535.77
  Q 240.10 540.38 237.77 543.06
  Q 234.18 547.18 230.96 550.31
  A 1.02 0.91 -8.0 0 0 230.79 550.51
  L 226.74 556.12
  Q 227.38 551.27 228.05 550.07
  Q 230.66 545.39 232.36 541.85
  A 8.32 8.28 -13.1 0 1 233.43 540.14
  Q 239.06 533.14 248.05 529.59
  C 251.06 528.40 254.48 526.87 257.61 526.33
  Q 265.20 525.02 273.04 525.96
  Z"
/>
<path fill="#ce9963" d="
  M 273.04 525.96
  Q 280.40 526.33 288.54 530.97
  Q 298.64 536.73 303.68 544.00
  C 306.23 547.68 308.72 551.25 309.65 555.59
  Q 310.14 557.92 308.97 561.76
  C 305.04 574.66 291.96 580.27 279.75 581.76
  C 266.19 583.41 252.24 580.14 240.91 573.87
  Q 229.80 567.72 226.74 556.12
  L 230.79 550.51
  A 1.02 0.91 -8.0 0 1 230.96 550.31
  Q 234.18 547.18 237.77 543.06
  Q 240.10 540.38 246.52 535.77
  Q 249.41 533.69 260.12 528.63
  Q 261.09 528.17 263.35 526.38
  A 1.53 1.50 -64.0 0 1 264.25 526.06
  L 273.04 525.96
  Z"
/>
<path fill="#3f190d" d="
  M 321.03 526.32
  Q 322.31 526.87 323.01 528.04
  Q 333.55 545.62 334.65 566.46
  L 326.76 564.12
  A 1.43 1.42 9.1 0 1 325.73 562.70
  C 325.90 557.62 326.34 552.65 323.90 547.82
  Q 322.00 544.07 320.11 540.36
  A 7.35 7.06 13.6 0 0 319.35 539.17
  L 312.33 530.38
  L 321.03 526.32
  Z"
/>
<path fill="#010200" fill-opacity="0.631" d="
  M 353.33 570.85
  Q 353.22 571.64 352.19 570.78
  L 353.33 570.85
  Z"
/>
<path fill="#010200" fill-opacity="0.631" d="
  M 417.64 570.94
  Q 415.46 571.38 413.26 570.97
  Q 415.39 570.55 417.64 570.94
  Z"
/>
</svg>
