<?xml version="1.0" encoding="UTF-8" standalone="no"?>
<!DOCTYPE svg PUBLIC "-//W3C//DTD SVG 1.1//EN" "http://www.w3.org/Graphics/SVG/1.1/DTD/svg11.dtd">
<svg xmlns="http://www.w3.org/2000/svg" version="1.1" viewBox="0.00 0.00 351.00 508.00">
<g stroke-width="2.00" fill="none" stroke-linecap="butt">
<path stroke="#6e7070" vector-effect="non-scaling-stroke" d="
  M 230.28 185.19
  L 245.27 186.54"
/>
<path stroke="#777878" vector-effect="non-scaling-stroke" d="
  M 245.27 186.54
  C 250.74 187.38 259.64 186.22 262.33 180.46
  A 2.43 2.40 -46.9 0 0 262.27 178.30
  C 260.67 175.30 258.48 173.68 255.19 172.11
  Q 249.38 169.34 246.20 166.99
  Q 240.30 162.64 241.56 156.15
  C 242.11 153.33 242.33 150.39 241.35 148.96
  Q 238.00 144.12 232.39 142.11
  C 223.94 139.09 216.13 138.32 206.73 137.78
  Q 193.19 137.01 178.00 139.25
  Q 177.93 139.26 146.48 143.69
  C 132.66 145.63 121.20 149.24 108.03 154.28
  Q 103.03 156.20 96.95 160.18
  C 92.88 162.85 84.73 170.42 86.95 175.60
  Q 88.43 179.06 89.60 181.42
  A 4.83 4.59 28.8 0 1 90.01 182.71
  C 90.92 188.19 88.98 192.74 84.95 196.43
  C 82.49 198.67 80.14 200.72 78.97 204.51
  C 77.32 209.82 83.92 211.78 87.98 211.72
  A 4.36 4.34 38.0 0 0 88.81 211.62
  Q 93.73 210.59 104.19 205.17
  Q 107.82 203.29 113.70 204.12
  A 3.73 3.69 -21.9 0 1 115.41 204.84
  Q 118.51 207.19 120.78 209.16
  C 125.87 213.59 131.43 211.72 136.42 207.87
  C 141.22 204.17 146.02 202.38 151.57 203.51
  Q 153.93 203.99 156.10 204.01
  A 5.24 5.10 -34.5 0 1 157.84 204.31
  Q 161.61 205.66 163.52 206.50
  Q 171.31 209.95 178.46 205.68
  Q 180.02 204.75 185.27 200.55
  Q 190.91 196.03 198.56 195.87
  A 2.72 2.65 -37.7 0 1 199.17 195.94
  L 212.79 199.30
  A 2.29 2.06 -36.7 0 0 213.45 199.36
  Q 217.54 199.10 221.01 196.44
  A 3.90 3.86 -3.7 0 0 222.02 195.30
  C 224.22 191.55 225.33 187.46 230.28 185.19"
/>
<path stroke="#e5e8e8" vector-effect="non-scaling-stroke" d="
  M 245.27 186.54
  L 243.47 179.55
  A 1.25 1.25 0.0 0 0 242.44 178.63
  Q 237.67 177.88 232.87 178.62
  A 1.33 1.33 0.0 0 0 231.79 179.58
  L 230.28 185.19"
/>
<path stroke="#5c6a70" vector-effect="non-scaling-stroke" d="
  M 111.13 219.39
  Q 103.58 223.71 94.26 226.07
  A 0.88 0.77 -48.9 0 1 94.04 226.10
  L 81.44 226.10
  A 3.27 3.24 22.9 0 0 79.19 227.00
  C 72.15 233.69 67.60 245.33 65.51 254.68
  C 64.03 261.27 64.60 267.21 64.63 275.16
  A 8.27 7.99 37.9 0 0 64.93 277.27
  C 66.23 281.84 66.74 287.45 68.27 292.25
  Q 74.38 311.40 86.29 326.97
  Q 89.76 331.50 96.91 338.72
  Q 105.84 347.76 108.06 349.70
  Q 116.97 357.50 129.87 365.17
  C 139.10 370.66 149.93 375.28 160.74 375.74
  Q 163.02 375.84 180.25 376.69
  Q 189.37 377.14 206.50 375.63
  Q 211.25 375.22 219.15 373.14
  C 234.38 369.15 248.76 365.14 261.74 356.94
  C 267.56 353.25 272.72 347.53 277.02 342.26
  Q 297.51 317.18 304.57 286.11
  Q 305.94 280.08 305.98 273.82
  Q 306.03 264.84 305.75 259.28
  Q 305.02 244.89 298.75 230.00
  Q 290.23 209.73 271.13 198.44
  A 3.83 3.80 -38.0 0 0 268.08 198.08
  C 263.26 199.53 260.95 200.52 256.88 200.87
  Q 248.47 201.59 239.02 200.80
  A 4.33 4.33 0.0 0 0 235.51 202.15
  C 232.07 205.80 228.26 210.17 224.33 211.33
  C 219.46 212.77 215.71 214.10 211.00 213.22
  Q 205.02 212.11 198.18 210.04
  A 1.71 1.69 45.3 0 0 197.24 210.03
  C 193.10 211.20 188.99 216.14 187.06 217.81
  C 179.56 224.29 165.83 222.19 157.27 217.93
  C 154.54 216.57 151.26 215.36 149.16 217.41
  Q 143.27 223.16 134.71 225.40
  C 128.96 226.90 124.53 225.93 119.22 223.64
  Q 113.92 221.36 112.00 219.50
  A 0.72 0.72 0.0 0 0 111.13 219.39"
/>
<path stroke="#777878" vector-effect="non-scaling-stroke" d="
  M 229.53 148.29
  C 226.14 145.41 221.95 145.82 217.98 147.52
  Q 200.91 154.82 184.64 158.66
  Q 173.94 161.19 152.55 164.10
  C 139.51 165.87 127.48 165.99 114.58 165.19
  Q 107.88 164.77 101.84 164.97
  Q 97.87 165.11 97.43 169.02
  Q 96.79 174.58 101.99 175.92
  C 107.83 177.42 114.02 177.17 121.57 177.32
  Q 155.55 178.00 189.22 170.29
  Q 195.50 168.85 204.29 165.93
  Q 217.06 161.68 219.17 160.90
  Q 225.07 158.71 228.67 155.71
  Q 231.65 153.24 230.27 149.36
  A 2.60 2.57 10.6 0 0 229.53 148.29"
/>
<path stroke="#e5e8e8" vector-effect="non-scaling-stroke" d="
  M 170.1373 201.3009
  A 3.25 3.25 0.0 0 0 167.7495 197.3736
  L 158.9473 195.2278
  A 3.25 3.25 0.0 0 0 155.0200 197.6156
  L 154.8827 198.1791
  A 3.25 3.25 0.0 0 0 157.2705 202.1064
  L 166.0727 204.2522
  A 3.25 3.25 0.0 0 0 170.0000 201.8644
  L 170.1373 201.3009"
/>
<path stroke="#e5e8e8" vector-effect="non-scaling-stroke" d="
  M 130.12 201.09
  L 116.47 197.10
  A 1.79 1.79 0.0 0 0 114.25 198.32
  L 113.97 199.26
  A 8.81 4.95 16.3 0 0 121.04 206.48
  L 121.21 206.53
  A 8.81 4.95 16.3 0 0 131.06 204.25
  L 131.33 203.31
  A 1.79 1.79 0.0 0 0 130.12 201.09"
/>
<path stroke="#9dc1d1" vector-effect="non-scaling-stroke" d="
  M 85.36 240.42
  Q 85.15 237.49 81.97 237.41
  C 78.09 237.31 76.16 243.37 75.23 246.50
  Q 69.09 267.14 73.27 287.45
  Q 74.29 292.43 78.53 301.70
  A 3.71 3.71 0.0 0 0 83.35 303.57
  L 83.54 303.49
  A 3.82 3.81 -20.8 0 0 85.67 298.76
  C 84.08 294.06 80.63 287.25 79.74 279.75
  Q 77.73 262.85 82.39 247.94
  C 83.15 245.51 84.79 243.05 85.27 241.31
  A 2.74 2.65 -40.2 0 0 85.36 240.42"
/>
<path stroke="#5c6a70" vector-effect="non-scaling-stroke" d="
  M 219.34 254.23
  Q 215.24 252.37 211.23 251.52
  Q 186.45 246.30 163.07 252.86
  Q 144.52 258.06 132.20 271.70
  Q 127.01 277.44 124.70 280.19
  Q 117.70 288.50 114.78 299.07
  Q 110.19 315.67 119.00 330.01
  Q 119.61 331.00 124.11 336.98
  A 8.65 8.56 1.3 0 0 125.58 338.50
  C 130.34 342.30 135.87 345.69 141.95 347.33
  Q 144.34 347.98 147.10 349.10
  A 9.97 9.87 60.6 0 0 149.14 349.68
  C 153.86 350.52 157.12 351.48 161.69 351.54
  C 179.14 351.76 194.07 346.15 208.75 336.99
  Q 226.62 325.84 236.38 307.49
  A 1.73 1.72 20.4 0 1 238.31 306.61
  C 250.59 309.50 265.72 303.72 267.94 289.99
  Q 269.04 283.18 266.09 276.68
  A 6.55 6.29 -78.2 0 0 265.18 275.23
  Q 261.51 270.81 256.27 267.29
  A 2.44 2.44 0.0 0 1 255.28 264.59
  Q 256.30 260.95 256.65 259.72
  C 258.51 253.22 254.08 245.01 247.33 243.78
  Q 247.32 243.78 241.63 242.25
  A 4.12 3.88 49.6 0 0 240.38 242.11
  C 233.42 242.37 228.01 246.05 222.83 251.17
  C 221.86 252.13 221.03 253.83 220.33 254.20
  A 1.12 1.11 -46.5 0 1 219.34 254.23"
/>
<path stroke="#dbe9ef" vector-effect="non-scaling-stroke" d="
  M 299.56 262.06
  A 3.15 3.15 0.0 0 0 296.41 258.91
  A 3.15 3.15 0.0 0 0 293.26 262.06
  A 3.15 3.15 0.0 0 0 296.41 265.21
  A 3.15 3.15 0.0 0 0 299.56 262.06"
/>
<path stroke="#dbe9ef" vector-effect="non-scaling-stroke" d="
  M 268.18 334.15
  C 269.06 336.68 271.79 337.50 273.65 335.55
  C 275.88 333.21 277.48 330.28 279.23 327.36
  Q 289.55 310.12 295.74 291.48
  Q 297.19 287.12 298.50 277.87
  A 3.70 3.69 -82.9 0 0 295.24 273.68
  L 295.09 273.66
  A 4.01 4.01 0.0 0 0 290.71 276.90
  C 289.59 282.87 289.23 286.21 287.48 291.45
  Q 280.81 311.57 269.24 330.02
  Q 267.63 332.59 268.18 334.15"
/>
<path stroke="#9dc1d1" vector-effect="non-scaling-stroke" d="
  M 91.7210 310.8809
  A 3.49 3.49 0.0 0 0 86.9426 309.6451
  L 86.7875 309.7364
  A 3.49 3.49 0.0 0 0 85.5517 314.5148
  L 94.1190 329.0591
  A 3.49 3.49 0.0 0 0 98.8974 330.2949
  L 99.0525 330.2036
  A 3.49 3.49 0.0 0 0 100.2883 325.4252
  L 91.7210 310.8809"
/>
<path stroke="#7d4115" vector-effect="non-scaling-stroke" d="
  M 178.89 260.57
  Q 164.04 262.10 152.45 268.71
  Q 137.58 277.20 129.25 294.22
  C 122.91 307.17 121.83 324.90 136.01 333.69
  Q 140.93 336.74 142.32 337.22
  Q 148.86 339.51 154.14 340.61
  C 162.08 342.26 170.94 340.99 178.96 338.97"
/>
<path stroke="#7b2104" vector-effect="non-scaling-stroke" d="
  M 178.96 338.97
  Q 202.87 332.25 219.30 314.31
  C 223.66 309.55 226.86 303.55 229.73 298.24
  Q 230.52 296.78 232.48 295.99
  A 1.87 1.85 39.8 0 1 233.53 295.90
  Q 237.14 296.68 243.22 297.02
  C 250.23 297.41 260.85 292.35 257.41 283.57
  C 255.39 278.39 251.78 276.24 246.62 273.21
  Q 245.13 272.34 244.54 270.02
  A 1.49 1.42 -43.7 0 1 244.58 269.14
  C 245.31 267.13 247.59 260.47 247.01 257.50
  Q 246.40 254.40 244.15 252.61
  A 2.72 2.71 -31.1 0 0 241.96 252.07
  Q 234.55 253.45 229.74 259.33
  Q 226.63 263.12 225.86 264.36
  A 1.86 1.84 3.9 0 1 225.04 265.07
  C 220.95 266.87 216.91 264.16 212.97 262.03
  A 3.85 3.61 -22.1 0 0 212.01 261.66
  L 208.27 260.73
  A 3.52 3.45 48.4 0 0 207.10 260.65
  Q 204.83 260.89 202.16 260.11
  C 200.84 259.73 199.51 259.74 197.85 259.49
  A 8.33 7.99 46.2 0 0 196.19 259.42
  L 178.89 260.57"
/>
<path stroke="#f86219" vector-effect="non-scaling-stroke" d="
  M 178.96 338.97
  Q 178.79 338.33 179.28 337.94
  Q 179.64 337.65 180.34 337.60
  Q 181.23 337.54 181.66 336.74
  A 0.95 0.94 -81.3 0 1 182.29 336.27
  Q 183.34 336.03 185.65 334.93
  Q 208.71 323.96 222.19 303.23
  Q 222.53 302.71 227.26 295.25
  Q 228.91 292.66 231.50 291.98
  C 236.21 290.76 242.98 290.75 248.34 289.09
  C 252.98 287.65 252.07 284.11 249.37 281.30
  Q 247.88 279.75 243.28 277.61
  C 239.00 275.63 238.92 271.48 240.63 267.18
  C 241.60 264.75 243.23 261.02 242.81 258.73
  A 1.22 1.20 -12.4 0 0 241.31 257.78
  Q 237.44 258.78 233.09 262.12
  Q 231.24 263.53 225.96 267.66
  Q 222.02 270.73 217.74 268.64
  Q 207.57 263.65 196.99 262.54
  C 191.18 261.93 184.90 262.16 178.89 260.57"
/>
<path stroke="#f86219" vector-effect="non-scaling-stroke" d="
  M 187.88 273.51
  Q 183.69 275.79 186.31 279.00
  A 2.77 2.74 73.3 0 0 188.16 280.01
  L 193.74 280.61
  A 1.25 1.24 4.2 0 1 194.85 281.89
  Q 194.69 286.38 197.39 289.36
  Q 199.97 292.20 200.18 292.36
  A 1.28 1.26 -80.1 0 1 200.63 293.01
  C 201.63 296.40 198.14 299.64 197.40 301.63
  Q 196.03 305.35 199.70 306.96"
/>
<path stroke="#7d4115" vector-effect="non-scaling-stroke" d="
  M 199.70 306.96
  Q 202.94 309.90 206.68 307.87
  Q 211.72 305.15 213.49 300.24
  C 215.91 293.51 214.22 287.75 208.56 283.97
  A 1.41 1.41 0.0 0 1 207.97 282.48
  C 209.51 275.89 204.81 270.42 198.24 269.00
  Q 191.76 267.59 187.88 273.51"
/>
<path stroke="#7b2104" vector-effect="non-scaling-stroke" d="
  M 199.70 306.96
  C 198.22 302.38 201.29 301.40 204.26 299.46
  A 3.33 3.19 -86.5 0 0 205.03 298.75
  C 208.91 293.73 204.42 290.92 200.39 288.86
  A 2.75 2.75 0.0 0 1 199.03 285.56
  C 199.94 282.77 200.98 277.68 197.03 277.19
  C 195.84 277.05 194.74 277.59 193.24 278.08
  A 2.70 2.56 35.9 0 1 192.33 278.20
  Q 187.40 277.99 187.88 273.51"
/>
<path stroke="#f86219" vector-effect="non-scaling-stroke" d="
  M 164.54 287.89
  Q 166.39 290.36 167.04 294.30
  Q 167.58 297.53 168.27 298.42
  Q 169.44 299.92 171.03 301.77
  C 173.25 304.36 171.23 307.16 169.50 310.00
  Q 167.45 313.38 170.68 316.00"
/>
<path stroke="#7d4115" vector-effect="non-scaling-stroke" d="
  M 170.68 316.00
  Q 171.35 321.16 176.01 320.35
  Q 179.91 319.67 182.83 316.56
  Q 188.56 310.46 186.44 301.56
  C 185.57 297.93 182.05 295.31 179.46 293.06
  A 1.39 1.38 -66.4 0 1 178.99 291.84
  C 179.18 290.33 179.91 288.90 179.73 287.43
  C 179.18 283.12 176.84 280.53 172.45 279.33
  C 168.25 278.18 161.91 276.73 160.49 282.35
  Q 159.83 284.96 159.76 285.26
  A 1.31 1.30 14.8 0 0 160.68 286.83
  L 164.54 287.89"
/>
<path stroke="#7b2104" vector-effect="non-scaling-stroke" d="
  M 170.68 316.00
  L 171.92 313.21
  A 1.42 1.37 -6.2 0 1 172.42 312.61
  C 175.84 310.30 180.11 307.71 176.62 303.11
  Q 174.68 300.55 172.10 299.43
  C 167.40 297.40 168.88 292.99 170.15 289.45
  A 1.72 1.72 0.0 0 0 168.20 287.18
  L 164.54 287.89"
/>
<path stroke="#7d4115" vector-effect="non-scaling-stroke" d="
  M 144.1964 304.7421
  A 3.52 3.52 0.0 0 0 141.6923 300.4397
  L 140.1454 300.0310
  A 3.52 3.52 0.0 0 0 135.8430 302.5350
  L 135.4036 304.1979
  A 3.52 3.52 0.0 0 0 137.9077 308.5003
  L 139.4546 308.9090
  A 3.52 3.52 0.0 0 0 143.7570 306.4050
  L 144.1964 304.7421"
/>
</g>
<path fill="#000000" d="
  M 65.80 215.57
  C 59.85 204.38 63.67 194.56 72.28 186.29
  A 3.00 3.00 0.0 0 0 73.04 183.14
  Q 71.30 178.17 71.50 171.11
  C 72.10 149.71 98.40 141.11 114.83 136.12
  Q 129.95 131.53 145.77 129.08
  Q 171.61 125.06 185.01 124.06
  Q 203.37 122.69 223.99 124.65
  C 237.95 125.98 253.07 133.08 257.43 147.33
  C 258.32 150.24 258.09 151.97 258.06 155.58
  A 1.29 1.28 -79.7 0 0 258.90 156.80
  C 267.44 159.95 274.25 165.53 277.22 173.90
  A 5.80 5.66 36.2 0 1 277.55 175.87
  C 277.52 179.34 276.70 183.17 279.81 185.44
  Q 283.20 187.92 288.67 191.85
  Q 295.21 196.53 301.24 204.02
  C 309.34 214.08 314.26 225.19 317.85 237.42
  Q 319.59 243.34 320.30 248.59
  Q 321.87 260.27 321.90 260.77
  Q 321.97 261.86 321.95 276.01
  Q 321.94 277.74 321.36 278.83
  A 1.10 1.05 -29.6 0 0 321.24 279.23
  C 320.47 285.42 320.35 288.63 319.15 293.32
  Q 309.39 331.46 283.53 359.20
  Q 273.25 370.22 259.36 376.40
  Q 237.49 386.13 214.25 389.51
  C 201.68 391.33 188.84 392.39 175.01 392.02
  C 159.06 391.59 144.63 389.46 131.16 383.06
  Q 124.51 379.90 113.77 372.80
  Q 90.89 357.67 73.43 335.36
  Q 64.23 323.62 58.33 308.47
  Q 54.05 297.50 52.29 289.76
  Q 47.46 268.50 50.98 249.24
  Q 52.45 241.15 58.25 229.16
  C 60.22 225.07 62.75 222.03 65.70 217.63
  A 2.00 2.00 0.0 0 0 65.80 215.57
  Z
  M 230.28 185.19
  L 245.27 186.54
  C 250.74 187.38 259.64 186.22 262.33 180.46
  A 2.43 2.40 -46.9 0 0 262.27 178.30
  C 260.67 175.30 258.48 173.68 255.19 172.11
  Q 249.38 169.34 246.20 166.99
  Q 240.30 162.64 241.56 156.15
  C 242.11 153.33 242.33 150.39 241.35 148.96
  Q 238.00 144.12 232.39 142.11
  C 223.94 139.09 216.13 138.32 206.73 137.78
  Q 193.19 137.01 178.00 139.25
  Q 177.93 139.26 146.48 143.69
  C 132.66 145.63 121.20 149.24 108.03 154.28
  Q 103.03 156.20 96.95 160.18
  C 92.88 162.85 84.73 170.42 86.95 175.60
  Q 88.43 179.06 89.60 181.42
  A 4.83 4.59 28.8 0 1 90.01 182.71
  C 90.92 188.19 88.98 192.74 84.95 196.43
  C 82.49 198.67 80.14 200.72 78.97 204.51
  C 77.32 209.82 83.92 211.78 87.98 211.72
  A 4.36 4.34 38.0 0 0 88.81 211.62
  Q 93.73 210.59 104.19 205.17
  Q 107.82 203.29 113.70 204.12
  A 3.73 3.69 -21.9 0 1 115.41 204.84
  Q 118.51 207.19 120.78 209.16
  C 125.87 213.59 131.43 211.72 136.42 207.87
  C 141.22 204.17 146.02 202.38 151.57 203.51
  Q 153.93 203.99 156.10 204.01
  A 5.24 5.10 -34.5 0 1 157.84 204.31
  Q 161.61 205.66 163.52 206.50
  Q 171.31 209.95 178.46 205.68
  Q 180.02 204.75 185.27 200.55
  Q 190.91 196.03 198.56 195.87
  A 2.72 2.65 -37.7 0 1 199.17 195.94
  L 212.79 199.30
  A 2.29 2.06 -36.7 0 0 213.45 199.36
  Q 217.54 199.10 221.01 196.44
  A 3.90 3.86 -3.7 0 0 222.02 195.30
  C 224.22 191.55 225.33 187.46 230.28 185.19
  Z
  M 111.13 219.39
  Q 103.58 223.71 94.26 226.07
  A 0.88 0.77 -48.9 0 1 94.04 226.10
  L 81.44 226.10
  A 3.27 3.24 22.9 0 0 79.19 227.00
  C 72.15 233.69 67.60 245.33 65.51 254.68
  C 64.03 261.27 64.60 267.21 64.63 275.16
  A 8.27 7.99 37.9 0 0 64.93 277.27
  C 66.23 281.84 66.74 287.45 68.27 292.25
  Q 74.38 311.40 86.29 326.97
  Q 89.76 331.50 96.91 338.72
  Q 105.84 347.76 108.06 349.70
  Q 116.97 357.50 129.87 365.17
  C 139.10 370.66 149.93 375.28 160.74 375.74
  Q 163.02 375.84 180.25 376.69
  Q 189.37 377.14 206.50 375.63
  Q 211.25 375.22 219.15 373.14
  C 234.38 369.15 248.76 365.14 261.74 356.94
  C 267.56 353.25 272.72 347.53 277.02 342.26
  Q 297.51 317.18 304.57 286.11
  Q 305.94 280.08 305.98 273.82
  Q 306.03 264.84 305.75 259.28
  Q 305.02 244.89 298.75 230.00
  Q 290.23 209.73 271.13 198.44
  A 3.83 3.80 -38.0 0 0 268.08 198.08
  C 263.26 199.53 260.95 200.52 256.88 200.87
  Q 248.47 201.59 239.02 200.80
  A 4.33 4.33 0.0 0 0 235.51 202.15
  C 232.07 205.80 228.26 210.17 224.33 211.33
  C 219.46 212.77 215.71 214.10 211.00 213.22
  Q 205.02 212.11 198.18 210.04
  A 1.71 1.69 45.3 0 0 197.24 210.03
  C 193.10 211.20 188.99 216.14 187.06 217.81
  C 179.56 224.29 165.83 222.19 157.27 217.93
  C 154.54 216.57 151.26 215.36 149.16 217.41
  Q 143.27 223.16 134.71 225.40
  C 128.96 226.90 124.53 225.93 119.22 223.64
  Q 113.92 221.36 112.00 219.50
  A 0.72 0.72 0.0 0 0 111.13 219.39
  Z"
/>
<path fill="#edefef" d="
  M 245.27 186.54
  L 243.47 179.55
  A 1.25 1.25 0.0 0 0 242.44 178.63
  Q 237.67 177.88 232.87 178.62
  A 1.33 1.33 0.0 0 0 231.79 179.58
  L 230.28 185.19
  C 225.33 187.46 224.22 191.55 222.02 195.30
  A 3.90 3.86 -3.7 0 1 221.01 196.44
  Q 217.54 199.10 213.45 199.36
  A 2.29 2.06 -36.7 0 1 212.79 199.30
  L 199.17 195.94
  A 2.72 2.65 -37.7 0 0 198.56 195.87
  Q 190.91 196.03 185.27 200.55
  Q 180.02 204.75 178.46 205.68
  Q 171.31 209.95 163.52 206.50
  Q 161.61 205.66 157.84 204.31
  A 5.24 5.10 -34.5 0 0 156.10 204.01
  Q 153.93 203.99 151.57 203.51
  C 146.02 202.38 141.22 204.17 136.42 207.87
  C 131.43 211.72 125.87 213.59 120.78 209.16
  Q 118.51 207.19 115.41 204.84
  A 3.73 3.69 -21.9 0 0 113.70 204.12
  Q 107.82 203.29 104.19 205.17
  Q 93.73 210.59 88.81 211.62
  A 4.36 4.34 38.0 0 1 87.98 211.72
  C 83.92 211.78 77.32 209.82 78.97 204.51
  C 80.14 200.72 82.49 198.67 84.95 196.43
  C 88.98 192.74 90.92 188.19 90.01 182.71
  A 4.83 4.59 28.8 0 0 89.60 181.42
  Q 88.43 179.06 86.95 175.60
  C 84.73 170.42 92.88 162.85 96.95 160.18
  Q 103.03 156.20 108.03 154.28
  C 121.20 149.24 132.66 145.63 146.48 143.69
  Q 177.93 139.26 178.00 139.25
  Q 193.19 137.01 206.73 137.78
  C 216.13 138.32 223.94 139.09 232.39 142.11
  Q 238.00 144.12 241.35 148.96
  C 242.33 150.39 242.11 153.33 241.56 156.15
  Q 240.30 162.64 246.20 166.99
  Q 249.38 169.34 255.19 172.11
  C 258.48 173.68 260.67 175.30 262.27 178.30
  A 2.43 2.40 -46.9 0 1 262.33 180.46
  C 259.64 186.22 250.74 187.38 245.27 186.54
  Z
  M 229.53 148.29
  C 226.14 145.41 221.95 145.82 217.98 147.52
  Q 200.91 154.82 184.64 158.66
  Q 173.94 161.19 152.55 164.10
  C 139.51 165.87 127.48 165.99 114.58 165.19
  Q 107.88 164.77 101.84 164.97
  Q 97.87 165.11 97.43 169.02
  Q 96.79 174.58 101.99 175.92
  C 107.83 177.42 114.02 177.17 121.57 177.32
  Q 155.55 178.00 189.22 170.29
  Q 195.50 168.85 204.29 165.93
  Q 217.06 161.68 219.17 160.90
  Q 225.07 158.71 228.67 155.71
  Q 231.65 153.24 230.27 149.36
  A 2.60 2.57 10.6 0 0 229.53 148.29
  Z
  M 170.1373 201.3009
  A 3.25 3.25 0.0 0 0 167.7495 197.3736
  L 158.9473 195.2278
  A 3.25 3.25 0.0 0 0 155.0200 197.6156
  L 154.8827 198.1791
  A 3.25 3.25 0.0 0 0 157.2705 202.1064
  L 166.0727 204.2522
  A 3.25 3.25 0.0 0 0 170.0000 201.8644
  L 170.1373 201.3009
  Z
  M 130.12 201.09
  L 116.47 197.10
  A 1.79 1.79 0.0 0 0 114.25 198.32
  L 113.97 199.26
  A 8.81 4.95 16.3 0 0 121.04 206.48
  L 121.21 206.53
  A 8.81 4.95 16.3 0 0 131.06 204.25
  L 131.33 203.31
  A 1.79 1.79 0.0 0 0 130.12 201.09
  Z"
/>
<path fill="#000000" d="
  M 230.27 149.36
  Q 231.65 153.24 228.67 155.71
  Q 225.07 158.71 219.17 160.90
  Q 217.06 161.68 204.29 165.93
  Q 195.50 168.85 189.22 170.29
  Q 155.55 178.00 121.57 177.32
  C 114.02 177.17 107.83 177.42 101.99 175.92
  Q 96.79 174.58 97.43 169.02
  Q 97.87 165.11 101.84 164.97
  Q 107.88 164.77 114.58 165.19
  C 127.48 165.99 139.51 165.87 152.55 164.10
  Q 173.94 161.19 184.64 158.66
  Q 200.91 154.82 217.98 147.52
  C 221.95 145.82 226.14 145.41 229.53 148.29
  A 2.60 2.57 10.6 0 1 230.27 149.36
  Z"
/>
<path fill="#dce0e0" d="
  M 245.27 186.54
  L 230.28 185.19
  L 231.79 179.58
  A 1.33 1.33 0.0 0 1 232.87 178.62
  Q 237.67 177.88 242.44 178.63
  A 1.25 1.25 0.0 0 1 243.47 179.55
  L 245.27 186.54
  Z"
/>
<rect fill="#dce0e0" x="-7.78" y="-3.54" transform="translate(162.51,199.74) rotate(13.7)" width="15.56" height="7.08" rx="3.25"/>
<path fill="#dce0e0" d="
  M 130.12 201.09
  A 1.79 1.79 0.0 0 1 131.33 203.31
  L 131.06 204.25
  A 8.81 4.95 16.3 0 1 121.21 206.53
  L 121.04 206.48
  A 8.81 4.95 16.3 0 1 113.97 199.26
  L 114.25 198.32
  A 1.79 1.79 0.0 0 1 116.47 197.10
  L 130.12 201.09
  Z"
/>
<path fill="#b7d3df" d="
  M 112.00 219.50
  Q 113.92 221.36 119.22 223.64
  C 124.53 225.93 128.96 226.90 134.71 225.40
  Q 143.27 223.16 149.16 217.41
  C 151.26 215.36 154.54 216.57 157.27 217.93
  C 165.83 222.19 179.56 224.29 187.06 217.81
  C 188.99 216.14 193.10 211.20 197.24 210.03
  A 1.71 1.69 45.3 0 1 198.18 210.04
  Q 205.02 212.11 211.00 213.22
  C 215.71 214.10 219.46 212.77 224.33 211.33
  C 228.26 210.17 232.07 205.80 235.51 202.15
  A 4.33 4.33 0.0 0 1 239.02 200.80
  Q 248.47 201.59 256.88 200.87
  C 260.95 200.52 263.26 199.53 268.08 198.08
  A 3.83 3.80 -38.0 0 1 271.13 198.44
  Q 290.23 209.73 298.75 230.00
  Q 305.02 244.89 305.75 259.28
  Q 306.03 264.84 305.98 273.82
  Q 305.94 280.08 304.57 286.11
  Q 297.51 317.18 277.02 342.26
  C 272.72 347.53 267.56 353.25 261.74 356.94
  C 248.76 365.14 234.38 369.15 219.15 373.14
  Q 211.25 375.22 206.50 375.63
  Q 189.37 377.14 180.25 376.69
  Q 163.02 375.84 160.74 375.74
  C 149.93 375.28 139.10 370.66 129.87 365.17
  Q 116.97 357.50 108.06 349.70
  Q 105.84 347.76 96.91 338.72
  Q 89.76 331.50 86.29 326.97
  Q 74.38 311.40 68.27 292.25
  C 66.74 287.45 66.23 281.84 64.93 277.27
  A 8.27 7.99 37.9 0 1 64.63 275.16
  C 64.60 267.21 64.03 261.27 65.51 254.68
  C 67.60 245.33 72.15 233.69 79.19 227.00
  A 3.27 3.24 22.9 0 1 81.44 226.10
  L 94.04 226.10
  A 0.88 0.77 -48.9 0 0 94.26 226.07
  Q 103.58 223.71 111.13 219.39
  A 0.72 0.72 0.0 0 1 112.00 219.50
  Z
  M 85.36 240.42
  Q 85.15 237.49 81.97 237.41
  C 78.09 237.31 76.16 243.37 75.23 246.50
  Q 69.09 267.14 73.27 287.45
  Q 74.29 292.43 78.53 301.70
  A 3.71 3.71 0.0 0 0 83.35 303.57
  L 83.54 303.49
  A 3.82 3.81 -20.8 0 0 85.67 298.76
  C 84.08 294.06 80.63 287.25 79.74 279.75
  Q 77.73 262.85 82.39 247.94
  C 83.15 245.51 84.79 243.05 85.27 241.31
  A 2.74 2.65 -40.2 0 0 85.36 240.42
  Z
  M 219.34 254.23
  Q 215.24 252.37 211.23 251.52
  Q 186.45 246.30 163.07 252.86
  Q 144.52 258.06 132.20 271.70
  Q 127.01 277.44 124.70 280.19
  Q 117.70 288.50 114.78 299.07
  Q 110.19 315.67 119.00 330.01
  Q 119.61 331.00 124.11 336.98
  A 8.65 8.56 1.3 0 0 125.58 338.50
  C 130.34 342.30 135.87 345.69 141.95 347.33
  Q 144.34 347.98 147.10 349.10
  A 9.97 9.87 60.6 0 0 149.14 349.68
  C 153.86 350.52 157.12 351.48 161.69 351.54
  C 179.14 351.76 194.07 346.15 208.75 336.99
  Q 226.62 325.84 236.38 307.49
  A 1.73 1.72 20.4 0 1 238.31 306.61
  C 250.59 309.50 265.72 303.72 267.94 289.99
  Q 269.04 283.18 266.09 276.68
  A 6.55 6.29 -78.2 0 0 265.18 275.23
  Q 261.51 270.81 256.27 267.29
  A 2.44 2.44 0.0 0 1 255.28 264.59
  Q 256.30 260.95 256.65 259.72
  C 258.51 253.22 254.08 245.01 247.33 243.78
  Q 247.32 243.78 241.63 242.25
  A 4.12 3.88 49.6 0 0 240.38 242.11
  C 233.42 242.37 228.01 246.05 222.83 251.17
  C 221.86 252.13 221.03 253.83 220.33 254.20
  A 1.12 1.11 -46.5 0 1 219.34 254.23
  Z
  M 299.56 262.06
  A 3.15 3.15 0.0 0 0 296.41 258.91
  A 3.15 3.15 0.0 0 0 293.26 262.06
  A 3.15 3.15 0.0 0 0 296.41 265.21
  A 3.15 3.15 0.0 0 0 299.56 262.06
  Z
  M 268.18 334.15
  C 269.06 336.68 271.79 337.50 273.65 335.55
  C 275.88 333.21 277.48 330.28 279.23 327.36
  Q 289.55 310.12 295.74 291.48
  Q 297.19 287.12 298.50 277.87
  A 3.70 3.69 -82.9 0 0 295.24 273.68
  L 295.09 273.66
  A 4.01 4.01 0.0 0 0 290.71 276.90
  C 289.59 282.87 289.23 286.21 287.48 291.45
  Q 280.81 311.57 269.24 330.02
  Q 267.63 332.59 268.18 334.15
  Z
  M 91.7210 310.8809
  A 3.49 3.49 0.0 0 0 86.9426 309.6451
  L 86.7875 309.7364
  A 3.49 3.49 0.0 0 0 85.5517 314.5148
  L 94.1190 329.0591
  A 3.49 3.49 0.0 0 0 98.8974 330.2949
  L 99.0525 330.2036
  A 3.49 3.49 0.0 0 0 100.2883 325.4252
  L 91.7210 310.8809
  Z"
/>
<path fill="#83afc3" d="
  M 85.27 241.31
  C 84.79 243.05 83.15 245.51 82.39 247.94
  Q 77.73 262.85 79.74 279.75
  C 80.63 287.25 84.08 294.06 85.67 298.76
  A 3.82 3.81 -20.8 0 1 83.54 303.49
  L 83.35 303.57
  A 3.71 3.71 0.0 0 1 78.53 301.70
  Q 74.29 292.43 73.27 287.45
  Q 69.09 267.14 75.23 246.50
  C 76.16 243.37 78.09 237.31 81.97 237.41
  Q 85.15 237.49 85.36 240.42
  A 2.74 2.65 -40.2 0 1 85.27 241.31
  Z"
/>
<path fill="#000000" d="
  M 220.33 254.20
  C 221.03 253.83 221.86 252.13 222.83 251.17
  C 228.01 246.05 233.42 242.37 240.38 242.11
  A 4.12 3.88 49.6 0 1 241.63 242.25
  Q 247.32 243.78 247.33 243.78
  C 254.08 245.01 258.51 253.22 256.65 259.72
  Q 256.30 260.95 255.28 264.59
  A 2.44 2.44 0.0 0 0 256.27 267.29
  Q 261.51 270.81 265.18 275.23
  A 6.55 6.29 -78.2 0 1 266.09 276.68
  Q 269.04 283.18 267.94 289.99
  C 265.72 303.72 250.59 309.50 238.31 306.61
  A 1.73 1.72 20.4 0 0 236.38 307.49
  Q 226.62 325.84 208.75 336.99
  C 194.07 346.15 179.14 351.76 161.69 351.54
  C 157.12 351.48 153.86 350.52 149.14 349.68
  A 9.97 9.87 60.6 0 1 147.10 349.10
  Q 144.34 347.98 141.95 347.33
  C 135.87 345.69 130.34 342.30 125.58 338.50
  A 8.65 8.56 1.3 0 1 124.11 336.98
  Q 119.61 331.00 119.00 330.01
  Q 110.19 315.67 114.78 299.07
  Q 117.70 288.50 124.70 280.19
  Q 127.01 277.44 132.20 271.70
  Q 144.52 258.06 163.07 252.86
  Q 186.45 246.30 211.23 251.52
  Q 215.24 252.37 219.34 254.23
  A 1.12 1.11 -46.5 0 0 220.33 254.20
  Z
  M 178.89 260.57
  Q 164.04 262.10 152.45 268.71
  Q 137.58 277.20 129.25 294.22
  C 122.91 307.17 121.83 324.90 136.01 333.69
  Q 140.93 336.74 142.32 337.22
  Q 148.86 339.51 154.14 340.61
  C 162.08 342.26 170.94 340.99 178.96 338.97
  Q 202.87 332.25 219.30 314.31
  C 223.66 309.55 226.86 303.55 229.73 298.24
  Q 230.52 296.78 232.48 295.99
  A 1.87 1.85 39.8 0 1 233.53 295.90
  Q 237.14 296.68 243.22 297.02
  C 250.23 297.41 260.85 292.35 257.41 283.57
  C 255.39 278.39 251.78 276.24 246.62 273.21
  Q 245.13 272.34 244.54 270.02
  A 1.49 1.42 -43.7 0 1 244.58 269.14
  C 245.31 267.13 247.59 260.47 247.01 257.50
  Q 246.40 254.40 244.15 252.61
  A 2.72 2.71 -31.1 0 0 241.96 252.07
  Q 234.55 253.45 229.74 259.33
  Q 226.63 263.12 225.86 264.36
  A 1.86 1.84 3.9 0 1 225.04 265.07
  C 220.95 266.87 216.91 264.16 212.97 262.03
  A 3.85 3.61 -22.1 0 0 212.01 261.66
  L 208.27 260.73
  A 3.52 3.45 48.4 0 0 207.10 260.65
  Q 204.83 260.89 202.16 260.11
  C 200.84 259.73 199.51 259.74 197.85 259.49
  A 8.33 7.99 46.2 0 0 196.19 259.42
  L 178.89 260.57
  Z"
/>
<path fill="#f54207" d="
  M 178.96 338.97
  Q 178.79 338.33 179.28 337.94
  Q 179.64 337.65 180.34 337.60
  Q 181.23 337.54 181.66 336.74
  A 0.95 0.94 -81.3 0 1 182.29 336.27
  Q 183.34 336.03 185.65 334.93
  Q 208.71 323.96 222.19 303.23
  Q 222.53 302.71 227.26 295.25
  Q 228.91 292.66 231.50 291.98
  C 236.21 290.76 242.98 290.75 248.34 289.09
  C 252.98 287.65 252.07 284.11 249.37 281.30
  Q 247.88 279.75 243.28 277.61
  C 239.00 275.63 238.92 271.48 240.63 267.18
  C 241.60 264.75 243.23 261.02 242.81 258.73
  A 1.22 1.20 -12.4 0 0 241.31 257.78
  Q 237.44 258.78 233.09 262.12
  Q 231.24 263.53 225.96 267.66
  Q 222.02 270.73 217.74 268.64
  Q 207.57 263.65 196.99 262.54
  C 191.18 261.93 184.90 262.16 178.89 260.57
  L 196.19 259.42
  A 8.33 7.99 46.2 0 1 197.85 259.49
  C 199.51 259.74 200.84 259.73 202.16 260.11
  Q 204.83 260.89 207.10 260.65
  A 3.52 3.45 48.4 0 1 208.27 260.73
  L 212.01 261.66
  A 3.85 3.61 -22.1 0 1 212.97 262.03
  C 216.91 264.16 220.95 266.87 225.04 265.07
  A 1.86 1.84 3.9 0 0 225.86 264.36
  Q 226.63 263.12 229.74 259.33
  Q 234.55 253.45 241.96 252.07
  A 2.72 2.71 -31.1 0 1 244.15 252.61
  Q 246.40 254.40 247.01 257.50
  C 247.59 260.47 245.31 267.13 244.58 269.14
  A 1.49 1.42 -43.7 0 0 244.54 270.02
  Q 245.13 272.34 246.62 273.21
  C 251.78 276.24 255.39 278.39 257.41 283.57
  C 260.85 292.35 250.23 297.41 243.22 297.02
  Q 237.14 296.68 233.53 295.90
  A 1.87 1.85 39.8 0 0 232.48 295.99
  Q 230.52 296.78 229.73 298.24
  C 226.86 303.55 223.66 309.55 219.30 314.31
  Q 202.87 332.25 178.96 338.97
  Z"
/>
<path fill="#fa822a" d="
  M 178.96 338.97
  C 170.94 340.99 162.08 342.26 154.14 340.61
  Q 148.86 339.51 142.32 337.22
  Q 140.93 336.74 136.01 333.69
  C 121.83 324.90 122.91 307.17 129.25 294.22
  Q 137.58 277.20 152.45 268.71
  Q 164.04 262.10 178.89 260.57
  C 184.90 262.16 191.18 261.93 196.99 262.54
  Q 207.57 263.65 217.74 268.64
  Q 222.02 270.73 225.96 267.66
  Q 231.24 263.53 233.09 262.12
  Q 237.44 258.78 241.31 257.78
  A 1.22 1.20 -12.4 0 1 242.81 258.73
  C 243.23 261.02 241.60 264.75 240.63 267.18
  C 238.92 271.48 239.00 275.63 243.28 277.61
  Q 247.88 279.75 249.37 281.30
  C 252.07 284.11 252.98 287.65 248.34 289.09
  C 242.98 290.75 236.21 290.76 231.50 291.98
  Q 228.91 292.66 227.26 295.25
  Q 222.53 302.71 222.19 303.23
  Q 208.71 323.96 185.65 334.93
  Q 183.34 336.03 182.29 336.27
  A 0.95 0.94 -81.3 0 0 181.66 336.74
  Q 181.23 337.54 180.34 337.60
  Q 179.64 337.65 179.28 337.94
  Q 178.79 338.33 178.96 338.97
  Z
  M 187.88 273.51
  Q 183.69 275.79 186.31 279.00
  A 2.77 2.74 73.3 0 0 188.16 280.01
  L 193.74 280.61
  A 1.25 1.24 4.2 0 1 194.85 281.89
  Q 194.69 286.38 197.39 289.36
  Q 199.97 292.20 200.18 292.36
  A 1.28 1.26 -80.1 0 1 200.63 293.01
  C 201.63 296.40 198.14 299.64 197.40 301.63
  Q 196.03 305.35 199.70 306.96
  Q 202.94 309.90 206.68 307.87
  Q 211.72 305.15 213.49 300.24
  C 215.91 293.51 214.22 287.75 208.56 283.97
  A 1.41 1.41 0.0 0 1 207.97 282.48
  C 209.51 275.89 204.81 270.42 198.24 269.00
  Q 191.76 267.59 187.88 273.51
  Z
  M 164.54 287.89
  Q 166.39 290.36 167.04 294.30
  Q 167.58 297.53 168.27 298.42
  Q 169.44 299.92 171.03 301.77
  C 173.25 304.36 171.23 307.16 169.50 310.00
  Q 167.45 313.38 170.68 316.00
  Q 171.35 321.16 176.01 320.35
  Q 179.91 319.67 182.83 316.56
  Q 188.56 310.46 186.44 301.56
  C 185.57 297.93 182.05 295.31 179.46 293.06
  A 1.39 1.38 -66.4 0 1 178.99 291.84
  C 179.18 290.33 179.91 288.90 179.73 287.43
  C 179.18 283.12 176.84 280.53 172.45 279.33
  C 168.25 278.18 161.91 276.73 160.49 282.35
  Q 159.83 284.96 159.76 285.26
  A 1.31 1.30 14.8 0 0 160.68 286.83
  L 164.54 287.89
  Z
  M 144.1964 304.7421
  A 3.52 3.52 0.0 0 0 141.6923 300.4397
  L 140.1454 300.0310
  A 3.52 3.52 0.0 0 0 135.8430 302.5350
  L 135.4036 304.1979
  A 3.52 3.52 0.0 0 0 137.9077 308.5003
  L 139.4546 308.9090
  A 3.52 3.52 0.0 0 0 143.7570 306.4050
  L 144.1964 304.7421
  Z"
/>
<circle fill="#ffffff" cx="296.41" cy="262.06" r="3.15"/>
<path fill="#000000" d="
  M 199.70 306.96
  C 198.22 302.38 201.29 301.40 204.26 299.46
  A 3.33 3.19 -86.5 0 0 205.03 298.75
  C 208.91 293.73 204.42 290.92 200.39 288.86
  A 2.75 2.75 0.0 0 1 199.03 285.56
  C 199.94 282.77 200.98 277.68 197.03 277.19
  C 195.84 277.05 194.74 277.59 193.24 278.08
  A 2.70 2.56 35.9 0 1 192.33 278.20
  Q 187.40 277.99 187.88 273.51
  Q 191.76 267.59 198.24 269.00
  C 204.81 270.42 209.51 275.89 207.97 282.48
  A 1.41 1.41 0.0 0 0 208.56 283.97
  C 214.22 287.75 215.91 293.51 213.49 300.24
  Q 211.72 305.15 206.68 307.87
  Q 202.94 309.90 199.70 306.96
  Z"
/>
<path fill="#f54207" d="
  M 187.88 273.51
  Q 187.40 277.99 192.33 278.20
  A 2.70 2.56 35.9 0 0 193.24 278.08
  C 194.74 277.59 195.84 277.05 197.03 277.19
  C 200.98 277.68 199.94 282.77 199.03 285.56
  A 2.75 2.75 0.0 0 0 200.39 288.86
  C 204.42 290.92 208.91 293.73 205.03 298.75
  A 3.33 3.19 -86.5 0 1 204.26 299.46
  C 201.29 301.40 198.22 302.38 199.70 306.96
  Q 196.03 305.35 197.40 301.63
  C 198.14 299.64 201.63 296.40 200.63 293.01
  A 1.28 1.26 -80.1 0 0 200.18 292.36
  Q 199.97 292.20 197.39 289.36
  Q 194.69 286.38 194.85 281.89
  A 1.25 1.24 4.2 0 0 193.74 280.61
  L 188.16 280.01
  A 2.77 2.74 73.3 0 1 186.31 279.00
  Q 183.69 275.79 187.88 273.51
  Z"
/>
<path fill="#ffffff" d="
  M 273.65 335.55
  C 271.79 337.50 269.06 336.68 268.18 334.15
  Q 267.63 332.59 269.24 330.02
  Q 280.81 311.57 287.48 291.45
  C 289.23 286.21 289.59 282.87 290.71 276.90
  A 4.01 4.01 0.0 0 1 295.09 273.66
  L 295.24 273.68
  A 3.70 3.69 -82.9 0 1 298.50 277.87
  Q 297.19 287.12 295.74 291.48
  Q 289.55 310.12 279.23 327.36
  C 277.48 330.28 275.88 333.21 273.65 335.55
  Z"
/>
<path fill="#000000" d="
  M 170.68 316.00
  L 171.92 313.21
  A 1.42 1.37 -6.2 0 1 172.42 312.61
  C 175.84 310.30 180.11 307.71 176.62 303.11
  Q 174.68 300.55 172.10 299.43
  C 167.40 297.40 168.88 292.99 170.15 289.45
  A 1.72 1.72 0.0 0 0 168.20 287.18
  L 164.54 287.89
  L 160.68 286.83
  A 1.31 1.30 14.8 0 1 159.76 285.26
  Q 159.83 284.96 160.49 282.35
  C 161.91 276.73 168.25 278.18 172.45 279.33
  C 176.84 280.53 179.18 283.12 179.73 287.43
  C 179.91 288.90 179.18 290.33 178.99 291.84
  A 1.39 1.38 -66.4 0 0 179.46 293.06
  C 182.05 295.31 185.57 297.93 186.44 301.56
  Q 188.56 310.46 182.83 316.56
  Q 179.91 319.67 176.01 320.35
  Q 171.35 321.16 170.68 316.00
  Z"
/>
<path fill="#f54207" d="
  M 170.68 316.00
  Q 167.45 313.38 169.50 310.00
  C 171.23 307.16 173.25 304.36 171.03 301.77
  Q 169.44 299.92 168.27 298.42
  Q 167.58 297.53 167.04 294.30
  Q 166.39 290.36 164.54 287.89
  L 168.20 287.18
  A 1.72 1.72 0.0 0 1 170.15 289.45
  C 168.88 292.99 167.40 297.40 172.10 299.43
  Q 174.68 300.55 176.62 303.11
  C 180.11 307.71 175.84 310.30 172.42 312.61
  A 1.42 1.37 -6.2 0 0 171.92 313.21
  L 170.68 316.00
  Z"
/>
<rect fill="#000000" x="-4.32" y="-4.38" transform="translate(139.80,304.47) rotate(14.8)" width="8.64" height="8.76" rx="3.52"/>
<rect fill="#83afc3" x="-3.58" y="-11.93" transform="translate(92.92,319.97) rotate(-30.5)" width="7.16" height="23.86" rx="3.49"/>
</svg>
