<?xml version="1.0" encoding="UTF-8" standalone="no"?>
<!DOCTYPE svg PUBLIC "-//W3C//DTD SVG 1.1//EN" "http://www.w3.org/Graphics/SVG/1.1/DTD/svg11.dtd">
<svg xmlns="http://www.w3.org/2000/svg" version="1.1" viewBox="0.00 0.00 339.00 553.00">
<g stroke-width="2.00" fill="none" stroke-linecap="butt">
<path stroke="#47060b" vector-effect="non-scaling-stroke" d="
  M 220.22 160.09
  Q 222.50 159.95 224.44 160.69"
/>
<path stroke="#47060b" vector-effect="non-scaling-stroke" d="
  M 225.32 160.81
  Q 225.58 160.79 225.74 160.67
  Q 225.88 160.56 225.92 160.28
  C 227.04 151.77 219.54 146.56 212.58 144.28
  C 207.73 142.68 200.33 143.47 195.16 141.79
  Q 191.23 140.51 190.05 139.46
  C 184.17 134.26 180.65 130.49 172.03 131.97
  Q 168.64 132.56 166.09 135.00
  A 1.70 1.69 -43.0 0 0 166.00 137.35
  Q 172.21 144.23 176.72 152.72
  C 179.68 158.28 183.94 159.61 189.51 161.27
  A 4.57 4.56 -21.9 0 1 190.59 161.73
  Q 194.21 163.86 197.07 167.32
  A 1.53 1.53 0.0 0 0 199.20 167.54
  L 205.76 162.32
  A 0.17 0.02 -38.0 0 1 205.81 162.29
  C 209.27 160.39 212.36 160.32 215.50 159.39
  A 1.60 1.52 40.3 0 1 216.24 159.35
  L 219.20 159.88"
/>
<path stroke="#6a1d23" vector-effect="non-scaling-stroke" d="
  M 152.55 266.51
  L 155.95 266.58"
/>
<path stroke="#6a1d23" vector-effect="non-scaling-stroke" d="
  M 157.31 266.58
  L 163.53 266.55"
/>
<path stroke="#6a1d23" vector-effect="non-scaling-stroke" d="
  M 164.24 266.46
  C 168.02 264.64 172.65 263.08 175.63 260.69
  C 184.02 253.96 189.12 241.88 192.01 231.85
  C 193.27 227.47 193.67 223.01 194.75 217.98
  C 196.19 211.29 195.77 204.88 195.77 196.49
  Q 195.77 192.50 194.74 189.00
  Q 193.08 183.39 192.11 181.90
  C 187.84 175.37 185.14 174.76 177.83 171.67
  C 171.27 168.89 167.54 164.48 163.85 158.14
  C 159.77 151.12 157.33 146.41 150.66 143.03
  A 4.49 4.12 -24.6 0 0 149.40 142.62
  C 137.17 140.64 125.80 145.99 118.65 155.94
  Q 113.83 162.64 110.31 170.49
  C 108.48 174.59 107.70 178.75 106.40 183.13
  C 105.35 186.66 105.21 191.51 104.54 195.11
  Q 102.71 205.00 103.82 216.50
  C 104.00 218.35 105.02 219.90 105.15 221.71
  Q 105.42 225.21 107.38 231.67
  Q 108.60 235.67 111.70 240.46
  Q 116.11 247.27 117.24 248.33
  Q 127.57 258.01 136.68 262.11
  Q 142.08 264.53 152.09 266.32"
/>
<path stroke="#6a1d23" vector-effect="non-scaling-stroke" d="
  M 187.97 269.01
  A 0.72 0.72 0.0 0 0 188.58 270.21
  Q 191.62 269.88 196.09 269.22
  C 207.37 267.56 218.26 261.41 225.53 253.54
  Q 230.49 248.15 237.25 238.00
  C 240.68 232.85 242.96 225.77 245.14 220.87
  Q 246.60 217.58 247.36 214.77
  Q 248.59 210.21 249.30 208.59
  A 7.05 6.10 67.4 0 0 249.68 207.44
  L 252.37 195.72
  A 1.97 1.25 66.0 0 0 252.42 195.38
  C 252.74 187.50 252.68 181.96 249.62 176.56
  C 247.87 173.48 241.50 174.10 238.70 174.59
  C 231.90 175.79 225.28 175.84 218.81 173.59
  A 2.82 2.78 48.0 0 0 217.29 173.50
  Q 211.06 174.88 207.51 180.13
  A 2.56 2.53 -35.4 0 0 207.15 182.18
  L 209.76 192.48
  A 1.43 0.45 62.5 0 1 209.79 192.65
  Q 211.33 209.94 207.56 225.98
  C 207.29 227.14 207.32 228.41 207.20 229.99
  A 4.87 4.50 -35.1 0 1 206.95 231.15
  C 205.49 235.31 204.66 239.73 203.08 244.15
  Q 200.00 252.74 194.06 262.32
  A 0.94 0.48 -27.2 0 1 193.96 262.46
  L 187.97 269.01"
/>
<path stroke="#2c5434" vector-effect="non-scaling-stroke" d="
  M 138.05 370.04
  C 141.31 356.10 135.37 343.18 126.07 332.64
  Q 114.54 319.58 102.14 312.36
  Q 92.94 307.00 84.71 303.19
  Q 77.34 299.77 74.88 298.35
  Q 67.01 293.84 65.45 292.55
  Q 58.38 286.74 50.01 278.47
  A 1.61 1.60 55.8 0 0 48.28 278.13
  Q 45.16 279.44 43.51 281.98
  A 1.23 0.87 80.4 0 0 43.38 282.25
  L 41.73 286.56
  A 5.20 5.11 -36.2 0 0 41.40 288.58
  Q 41.52 291.80 40.60 294.60
  A 1.38 1.15 -39.8 0 0 40.52 295.04
  L 40.52 304.48
  A 2.40 1.94 57.5 0 1 40.46 305.00
  Q 39.13 310.19 39.87 314.56
  Q 40.65 319.11 40.52 321.16
  Q 40.34 324.12 41.81 330.95
  Q 45.47 347.92 54.62 361.03
  C 56.45 363.65 58.31 365.35 59.80 367.53
  Q 61.43 369.91 63.83 372.10
  C 73.95 381.32 86.63 387.73 99.67 391.85
  C 110.89 395.40 119.19 395.26 128.58 388.70
  Q 132.65 385.85 129.85 381.01
  Q 123.93 370.79 113.66 364.38
  Q 99.79 355.72 87.73 346.90
  Q 84.56 344.58 81.12 341.22
  C 76.10 336.33 73.10 333.38 69.50 327.95
  A 3.57 3.50 -68.2 0 1 68.97 326.68
  Q 68.03 322.34 71.00 319.42
  A 1.65 1.62 19.7 0 1 72.02 318.95
  Q 76.82 318.52 78.82 320.89
  C 85.80 329.14 89.80 333.96 97.42 339.32
  Q 110.30 348.38 118.61 353.64
  Q 129.28 360.41 137.47 370.18
  A 0.33 0.33 0.0 0 0 138.05 370.04"
/>
<path stroke="#2c5434" vector-effect="non-scaling-stroke" d="
  M 163.53 279.26
  C 160.78 280.22 157.25 279.23 154.77 281.51"
/>
<path stroke="#0f3815" vector-effect="non-scaling-stroke" d="
  M 154.77 281.51
  Q 154.27 281.31 153.63 282.23
  A 2.07 2.02 -23.0 0 0 153.29 283.04
  Q 152.67 286.63 152.07 288.06
  Q 149.75 293.63 148.25 298.84"
/>
<path stroke="#2c5434" vector-effect="non-scaling-stroke" d="
  M 148.25 298.84
  L 146.34 304.73
  A 0.86 0.67 -38.0 0 0 146.31 304.85
  Q 144.76 314.54 144.04 317.82
  Q 143.31 321.15 143.35 324.75
  Q 143.42 330.55 143.57 331.94
  A 2.11 2.01 -65.3 0 0 143.87 332.82
  L 146.89 337.61
  A 2.45 2.12 22.5 0 1 147.13 338.09
  Q 148.26 341.08 149.64 342.96
  A 0.37 0.36 49.9 0 0 150.19 343.01
  Q 153.94 339.37 158.86 335.76
  C 161.62 333.73 162.58 330.84 161.76 327.63
  Q 161.26 325.70 161.21 325.42
  A 4.17 4.16 47.9 0 1 161.30 323.64
  C 161.87 321.56 162.56 318.72 162.68 316.73
  Q 162.85 314.02 163.63 307.26
  C 164.56 299.24 167.97 290.81 170.98 283.58
  A 2.22 2.21 24.4 0 0 169.91 280.74
  L 166.80 279.19"
/>
<path stroke="#3b8c49" vector-effect="non-scaling-stroke" d="
  M 148.25 298.84
  Q 148.49 302.22 147.03 305.50
  A 0.46 0.33 -35.8 0 0 146.99 305.62
  L 144.20 319.49
  A 3.43 3.42 -81.2 0 0 147.18 323.57
  L 147.38 323.59
  A 4.03 4.03 0.0 0 0 151.67 320.32
  Q 154.78 303.69 158.87 288.14
  Q 159.81 284.58 159.13 283.31
  Q 158.16 281.52 154.77 281.51"
/>
<path stroke="#2c5434" vector-effect="non-scaling-stroke" d="
  M 205.46 329.10
  Q 200.96 330.57 196.33 331.58
  C 190.43 332.87 185.72 336.14 180.20 338.75
  C 172.35 342.46 164.91 348.63 159.39 354.97
  A 6.91 6.48 -12.7 0 0 158.48 356.31
  L 152.53 367.80
  A 1.21 1.21 0.0 0 0 154.16 369.43
  Q 159.07 366.86 162.84 366.04
  C 165.92 365.37 168.03 364.16 171.41 363.57
  C 176.26 362.72 182.60 360.76 187.41 359.16
  Q 192.29 357.54 200.11 353.04
  C 203.62 351.03 207.39 349.26 210.52 347.91
  A 5.31 5.09 -59.0 0 1 211.99 347.51
  C 214.44 347.22 219.90 346.37 221.09 349.27
  C 223.31 354.71 218.82 357.03 214.48 358.82
  Q 213.61 359.17 211.21 360.47
  Q 196.10 368.62 193.64 369.45
  Q 188.51 371.19 174.84 374.38
  Q 163.55 377.01 153.63 383.09
  C 151.91 384.15 149.36 386.37 148.15 387.72
  A 1.56 1.56 0.0 0 0 148.16 389.82
  Q 154.75 396.96 164.32 398.63
  C 171.40 399.86 177.66 401.08 183.25 399.93
  C 190.45 398.45 197.40 397.39 203.83 393.05
  Q 211.21 388.07 217.84 381.76
  Q 224.33 375.57 226.39 374.00
  Q 233.69 368.43 235.80 367.32
  Q 240.72 364.75 253.56 360.10
  Q 261.33 357.29 260.33 349.60
  Q 259.73 345.01 256.30 339.64
  C 253.22 334.83 246.12 330.89 240.70 329.10
  A 8.74 8.56 -35.5 0 0 237.94 328.67
  Q 236.13 328.69 234.36 328.16
  A 8.33 8.17 -35.4 0 0 232.23 327.82
  Q 224.71 327.66 217.67 327.81
  C 214.52 327.88 209.99 328.87 206.02 328.89"
/>
<path stroke="#c2232c" vector-effect="non-scaling-stroke" d="
  M 133.04 155.64
  A 3.18 3.18 0.0 0 0 129.86 152.46
  A 3.18 3.18 0.0 0 0 126.68 155.64
  A 3.18 3.18 0.0 0 0 129.86 158.82
  A 3.18 3.18 0.0 0 0 133.04 155.64"
/>
<path stroke="#c2232c" vector-effect="non-scaling-stroke" d="
  M 121.50 167.59
  C 120.70 164.81 117.32 164.42 115.65 166.36
  Q 113.87 168.43 112.94 171.24
  Q 108.56 184.51 107.81 196.99
  Q 106.66 216.09 112.59 237.50
  A 3.94 3.94 0.0 0 0 117.33 240.28
  L 117.51 240.24
  A 3.90 3.90 0.0 0 0 120.37 235.51
  Q 117.09 222.36 116.23 216.53
  Q 112.73 192.75 120.87 170.87
  Q 121.75 168.50 121.50 167.59"
/>
<path stroke="#e8999f" vector-effect="non-scaling-stroke" d="
  M 246.6388 198.6275
  A 3.50 3.28 16.9 0 0 244.2435 194.4717
  A 3.50 3.28 16.9 0 0 239.9412 196.5925
  A 3.50 3.28 16.9 0 0 242.3365 200.7483
  A 3.50 3.28 16.9 0 0 246.6388 198.6275"
/>
<path stroke="#e8999f" vector-effect="non-scaling-stroke" d="
  M 229.47 228.97
  Q 225.79 236.39 219.62 245.93
  C 216.44 250.84 222.21 254.89 225.34 250.55
  Q 230.92 242.81 236.14 232.27
  Q 241.37 221.74 244.14 212.61
  C 245.70 207.49 238.99 205.35 237.00 210.86
  Q 233.15 221.54 229.47 228.97"
/>
<path stroke="#3b8c49" vector-effect="non-scaling-stroke" d="
  M 66.16 366.72
  L 66.40 366.50
  A 4.03 4.02 50.8 0 0 66.94 361.07
  Q 60.18 352.11 57.90 348.11
  Q 50.67 335.40 49.66 320.68
  Q 48.61 305.30 49.85 289.87
  C 50.11 286.65 49.53 283.74 45.77 284.47
  A 3.45 2.98 -88.1 0 0 43.33 287.11
  C 41.81 294.47 42.10 298.83 41.73 309.75
  Q 41.54 315.18 42.58 325.50
  Q 43.39 333.51 45.22 338.86
  C 48.80 349.34 53.59 357.25 61.11 366.33
  A 3.53 3.52 49.3 0 0 66.16 366.72"
/>
<path stroke="#3b8c49" vector-effect="non-scaling-stroke" d="
  M 81.13 375.17
  A 3.23 3.23 0.0 0 0 77.90 371.94
  A 3.23 3.23 0.0 0 0 74.67 375.17
  A 3.23 3.23 0.0 0 0 77.90 378.40
  A 3.23 3.23 0.0 0 0 81.13 375.17"
/>
<path stroke="#3b8c49" vector-effect="non-scaling-stroke" d="
  M 151.06 331.27
  A 3.49 3.49 0.0 0 0 147.57 327.78
  A 3.49 3.49 0.0 0 0 144.08 331.27
  A 3.49 3.49 0.0 0 0 147.57 334.76
  A 3.49 3.49 0.0 0 0 151.06 331.27"
/>
<path stroke="#aad1b1" vector-effect="non-scaling-stroke" d="
  M 221.0735 338.0103
  A 3.64 3.43 58.1 0 0 222.0620 333.1075
  A 3.64 3.43 58.1 0 0 217.2265 331.8297
  A 3.64 3.43 58.1 0 0 216.2380 336.7325
  A 3.64 3.43 58.1 0 0 221.0735 338.0103"
/>
<path stroke="#aad1b1" vector-effect="non-scaling-stroke" d="
  M 247.18 351.88
  C 246.56 356.15 252.80 356.88 254.34 352.65
  C 259.30 339.06 247.10 333.22 236.12 331.92
  A 3.09 3.08 -82.3 0 0 232.71 334.52
  L 232.68 334.74
  A 3.42 3.41 -78.7 0 0 235.23 338.56
  Q 239.43 339.61 244.45 341.82
  C 249.20 343.90 247.81 347.51 247.18 351.88"
/>
</g>
<path fill="#000000" d="
  M 139.74 401.27
  A 1.82 1.81 52.7 0 0 137.42 400.95
  Q 133.17 403.64 128.05 405.56
  Q 123.44 407.29 117.87 407.53
  Q 108.89 407.93 102.80 407.09
  Q 94.20 405.91 82.52 400.73
  C 63.24 392.18 45.07 377.21 36.01 358.27
  Q 28.59 342.77 26.70 326.00
  Q 26.32 322.66 25.27 312.50
  A 4.50 4.07 -47.3 0 1 25.28 311.53
  Q 26.38 302.71 26.30 292.56
  Q 26.28 290.51 28.09 282.87
  C 29.79 275.68 32.26 271.51 37.75 267.45
  Q 41.37 264.78 45.87 264.10
  Q 54.79 262.75 62.11 269.94
  Q 70.38 278.07 71.21 278.79
  C 75.71 282.65 80.59 285.89 86.94 288.84
  Q 98.05 294.02 102.93 296.54
  Q 109.13 299.75 116.34 305.00
  Q 122.79 309.70 128.57 315.00
  A 1.34 1.34 0.0 0 0 130.81 314.14
  C 131.11 311.06 130.85 309.33 131.56 306.21
  Q 134.26 294.35 138.53 282.44
  C 139.55 279.62 140.70 277.92 137.59 276.62
  C 136.70 276.25 135.39 276.50 134.17 276.01
  C 112.65 267.40 97.38 251.91 91.89 229.25
  Q 88.55 215.45 89.39 201.77
  Q 90.43 184.82 95.28 169.31
  C 101.79 148.49 115.43 132.26 137.63 128.97
  Q 144.52 127.95 150.06 128.12
  A 2.28 2.27 -55.4 0 0 151.04 127.94
  C 153.25 127.01 155.76 124.31 157.97 123.00
  Q 173.09 114.01 189.48 121.74
  Q 192.24 123.04 197.74 127.28
  C 201.97 130.55 205.59 129.44 210.21 130.05
  C 223.84 131.83 235.30 139.29 239.86 152.96
  A 4.98 4.91 36.4 0 1 240.12 154.60
  C 240.10 157.71 240.33 160.04 243.98 160.11
  Q 253.37 160.27 260.45 167.66
  Q 263.31 170.65 264.28 173.51
  C 267.93 184.25 267.38 196.74 264.75 207.63
  Q 261.37 221.62 254.72 236.23
  Q 250.55 245.38 245.03 253.27
  C 232.02 271.84 211.38 283.81 188.33 283.51
  A 2.95 2.94 11.2 0 0 185.57 285.35
  C 184.63 287.67 183.66 289.31 182.78 292.05
  Q 178.82 304.36 177.58 309.06
  Q 177.21 310.46 177.08 313.78
  C 177.01 315.76 176.07 317.51 176.22 319.50
  C 176.30 320.55 175.91 321.51 175.61 322.34
  A 1.41 1.40 -4.4 0 0 177.61 324.05
  Q 182.01 321.65 185.75 320.32
  Q 213.25 310.60 240.96 315.22
  Q 247.61 316.33 255.83 320.80
  C 268.64 327.76 275.12 339.78 274.71 354.48
  Q 274.60 358.65 272.88 362.43
  C 269.87 369.09 262.27 372.24 255.76 374.59
  C 246.36 378.00 239.85 382.19 231.41 389.73
  C 222.24 397.92 212.92 406.24 201.36 410.33
  Q 198.47 411.35 189.01 413.53
  Q 182.23 415.09 176.39 414.68
  Q 166.45 413.98 159.25 412.01
  C 151.20 409.81 145.09 407.19 139.74 401.27
  Z
  M 219.20 159.88
  Q 217.82 160.58 220.22 160.09
  Q 222.50 159.95 224.44 160.69
  Q 225.05 161.94 225.32 160.81
  Q 225.58 160.79 225.74 160.67
  Q 225.88 160.56 225.92 160.28
  C 227.04 151.77 219.54 146.56 212.58 144.28
  C 207.73 142.68 200.33 143.47 195.16 141.79
  Q 191.23 140.51 190.05 139.46
  C 184.17 134.26 180.65 130.49 172.03 131.97
  Q 168.64 132.56 166.09 135.00
  A 1.70 1.69 -43.0 0 0 166.00 137.35
  Q 172.21 144.23 176.72 152.72
  C 179.68 158.28 183.94 159.61 189.51 161.27
  A 4.57 4.56 -21.9 0 1 190.59 161.73
  Q 194.21 163.86 197.07 167.32
  A 1.53 1.53 0.0 0 0 199.20 167.54
  L 205.76 162.32
  A 0.17 0.02 -38.0 0 1 205.81 162.29
  C 209.27 160.39 212.36 160.32 215.50 159.39
  A 1.60 1.52 40.3 0 1 216.24 159.35
  L 219.20 159.88
  Z
  M 152.09 266.32
  Q 151.58 266.59 151.78 266.66
  Q 152.36 266.88 152.55 266.51
  L 155.95 266.58
  Q 157.04 267.10 157.31 266.58
  L 163.53 266.55
  Q 164.41 266.80 164.24 266.46
  C 168.02 264.64 172.65 263.08 175.63 260.69
  C 184.02 253.96 189.12 241.88 192.01 231.85
  C 193.27 227.47 193.67 223.01 194.75 217.98
  C 196.19 211.29 195.77 204.88 195.77 196.49
  Q 195.77 192.50 194.74 189.00
  Q 193.08 183.39 192.11 181.90
  C 187.84 175.37 185.14 174.76 177.83 171.67
  C 171.27 168.89 167.54 164.48 163.85 158.14
  C 159.77 151.12 157.33 146.41 150.66 143.03
  A 4.49 4.12 -24.6 0 0 149.40 142.62
  C 137.17 140.64 125.80 145.99 118.65 155.94
  Q 113.83 162.64 110.31 170.49
  C 108.48 174.59 107.70 178.75 106.40 183.13
  C 105.35 186.66 105.21 191.51 104.54 195.11
  Q 102.71 205.00 103.82 216.50
  C 104.00 218.35 105.02 219.90 105.15 221.71
  Q 105.42 225.21 107.38 231.67
  Q 108.60 235.67 111.70 240.46
  Q 116.11 247.27 117.24 248.33
  Q 127.57 258.01 136.68 262.11
  Q 142.08 264.53 152.09 266.32
  Z
  M 187.97 269.01
  A 0.72 0.72 0.0 0 0 188.58 270.21
  Q 191.62 269.88 196.09 269.22
  C 207.37 267.56 218.26 261.41 225.53 253.54
  Q 230.49 248.15 237.25 238.00
  C 240.68 232.85 242.96 225.77 245.14 220.87
  Q 246.60 217.58 247.36 214.77
  Q 248.59 210.21 249.30 208.59
  A 7.05 6.10 67.4 0 0 249.68 207.44
  L 252.37 195.72
  A 1.97 1.25 66.0 0 0 252.42 195.38
  C 252.74 187.50 252.68 181.96 249.62 176.56
  C 247.87 173.48 241.50 174.10 238.70 174.59
  C 231.90 175.79 225.28 175.84 218.81 173.59
  A 2.82 2.78 48.0 0 0 217.29 173.50
  Q 211.06 174.88 207.51 180.13
  A 2.56 2.53 -35.4 0 0 207.15 182.18
  L 209.76 192.48
  A 1.43 0.45 62.5 0 1 209.79 192.65
  Q 211.33 209.94 207.56 225.98
  C 207.29 227.14 207.32 228.41 207.20 229.99
  A 4.87 4.50 -35.1 0 1 206.95 231.15
  C 205.49 235.31 204.66 239.73 203.08 244.15
  Q 200.00 252.74 194.06 262.32
  A 0.94 0.48 -27.2 0 1 193.96 262.46
  L 187.97 269.01
  Z
  M 187.62 269.42
  Q 187.60 269.48 187.61 269.54
  A 0.50 0.23 65.9 0 0 188.18 270.03
  Q 188.20 269.98 188.20 269.93
  A 0.48 0.27 70.8 0 0 187.62 269.42
  Z
  M 138.05 370.04
  C 141.31 356.10 135.37 343.18 126.07 332.64
  Q 114.54 319.58 102.14 312.36
  Q 92.94 307.00 84.71 303.19
  Q 77.34 299.77 74.88 298.35
  Q 67.01 293.84 65.45 292.55
  Q 58.38 286.74 50.01 278.47
  A 1.61 1.60 55.8 0 0 48.28 278.13
  Q 45.16 279.44 43.51 281.98
  A 1.23 0.87 80.4 0 0 43.38 282.25
  L 41.73 286.56
  A 5.20 5.11 -36.2 0 0 41.40 288.58
  Q 41.52 291.80 40.60 294.60
  A 1.38 1.15 -39.8 0 0 40.52 295.04
  L 40.52 304.48
  A 2.40 1.94 57.5 0 1 40.46 305.00
  Q 39.13 310.19 39.87 314.56
  Q 40.65 319.11 40.52 321.16
  Q 40.34 324.12 41.81 330.95
  Q 45.47 347.92 54.62 361.03
  C 56.45 363.65 58.31 365.35 59.80 367.53
  Q 61.43 369.91 63.83 372.10
  C 73.95 381.32 86.63 387.73 99.67 391.85
  C 110.89 395.40 119.19 395.26 128.58 388.70
  Q 132.65 385.85 129.85 381.01
  Q 123.93 370.79 113.66 364.38
  Q 99.79 355.72 87.73 346.90
  Q 84.56 344.58 81.12 341.22
  C 76.10 336.33 73.10 333.38 69.50 327.95
  A 3.57 3.50 -68.2 0 1 68.97 326.68
  Q 68.03 322.34 71.00 319.42
  A 1.65 1.62 19.7 0 1 72.02 318.95
  Q 76.82 318.52 78.82 320.89
  C 85.80 329.14 89.80 333.96 97.42 339.32
  Q 110.30 348.38 118.61 353.64
  Q 129.28 360.41 137.47 370.18
  A 0.33 0.33 0.0 0 0 138.05 370.04
  Z
  M 163.53 279.26
  C 160.78 280.22 157.25 279.23 154.77 281.51
  Q 154.27 281.31 153.63 282.23
  A 2.07 2.02 -23.0 0 0 153.29 283.04
  Q 152.67 286.63 152.07 288.06
  Q 149.75 293.63 148.25 298.84
  L 146.34 304.73
  A 0.86 0.67 -38.0 0 0 146.31 304.85
  Q 144.76 314.54 144.04 317.82
  Q 143.31 321.15 143.35 324.75
  Q 143.42 330.55 143.57 331.94
  A 2.11 2.01 -65.3 0 0 143.87 332.82
  L 146.89 337.61
  A 2.45 2.12 22.5 0 1 147.13 338.09
  Q 148.26 341.08 149.64 342.96
  A 0.37 0.36 49.9 0 0 150.19 343.01
  Q 153.94 339.37 158.86 335.76
  C 161.62 333.73 162.58 330.84 161.76 327.63
  Q 161.26 325.70 161.21 325.42
  A 4.17 4.16 47.9 0 1 161.30 323.64
  C 161.87 321.56 162.56 318.72 162.68 316.73
  Q 162.85 314.02 163.63 307.26
  C 164.56 299.24 167.97 290.81 170.98 283.58
  A 2.22 2.21 24.4 0 0 169.91 280.74
  L 166.80 279.19
  Q 165.11 278.39 163.53 279.26
  Z
  M 206.02 328.89
  Q 205.50 328.55 205.05 328.74
  A 0.17 0.17 0.0 0 0 205.10 329.07
  L 205.46 329.10
  Q 200.96 330.57 196.33 331.58
  C 190.43 332.87 185.72 336.14 180.20 338.75
  C 172.35 342.46 164.91 348.63 159.39 354.97
  A 6.91 6.48 -12.7 0 0 158.48 356.31
  L 152.53 367.80
  A 1.21 1.21 0.0 0 0 154.16 369.43
  Q 159.07 366.86 162.84 366.04
  C 165.92 365.37 168.03 364.16 171.41 363.57
  C 176.26 362.72 182.60 360.76 187.41 359.16
  Q 192.29 357.54 200.11 353.04
  C 203.62 351.03 207.39 349.26 210.52 347.91
  A 5.31 5.09 -59.0 0 1 211.99 347.51
  C 214.44 347.22 219.90 346.37 221.09 349.27
  C 223.31 354.71 218.82 357.03 214.48 358.82
  Q 213.61 359.17 211.21 360.47
  Q 196.10 368.62 193.64 369.45
  Q 188.51 371.19 174.84 374.38
  Q 163.55 377.01 153.63 383.09
  C 151.91 384.15 149.36 386.37 148.15 387.72
  A 1.56 1.56 0.0 0 0 148.16 389.82
  Q 154.75 396.96 164.32 398.63
  C 171.40 399.86 177.66 401.08 183.25 399.93
  C 190.45 398.45 197.40 397.39 203.83 393.05
  Q 211.21 388.07 217.84 381.76
  Q 224.33 375.57 226.39 374.00
  Q 233.69 368.43 235.80 367.32
  Q 240.72 364.75 253.56 360.10
  Q 261.33 357.29 260.33 349.60
  Q 259.73 345.01 256.30 339.64
  C 253.22 334.83 246.12 330.89 240.70 329.10
  A 8.74 8.56 -35.5 0 0 237.94 328.67
  Q 236.13 328.69 234.36 328.16
  A 8.33 8.17 -35.4 0 0 232.23 327.82
  Q 224.71 327.66 217.67 327.81
  C 214.52 327.88 209.99 328.87 206.02 328.89
  Z"
/>
<path fill="#8d0b16" d="
  M 225.32 160.81
  L 224.44 160.69
  Q 222.50 159.95 220.22 160.09
  L 219.20 159.88
  L 216.24 159.35
  A 1.60 1.52 40.3 0 0 215.50 159.39
  C 212.36 160.32 209.27 160.39 205.81 162.29
  A 0.17 0.02 -38.0 0 0 205.76 162.32
  L 199.20 167.54
  A 1.53 1.53 0.0 0 1 197.07 167.32
  Q 194.21 163.86 190.59 161.73
  A 4.57 4.56 -21.9 0 0 189.51 161.27
  C 183.94 159.61 179.68 158.28 176.72 152.72
  Q 172.21 144.23 166.00 137.35
  A 1.70 1.69 -43.0 0 1 166.09 135.00
  Q 168.64 132.56 172.03 131.97
  C 180.65 130.49 184.17 134.26 190.05 139.46
  Q 191.23 140.51 195.16 141.79
  C 200.33 143.47 207.73 142.68 212.58 144.28
  C 219.54 146.56 227.04 151.77 225.92 160.28
  Q 225.88 160.56 225.74 160.67
  Q 225.58 160.79 225.32 160.81
  Z"
/>
<path fill="#d43945" d="
  M 164.24 266.46
  L 163.53 266.55
  L 157.31 266.58
  L 155.95 266.58
  L 152.55 266.51
  Q 151.84 266.44 152.09 266.32
  Q 142.08 264.53 136.68 262.11
  Q 127.57 258.01 117.24 248.33
  Q 116.11 247.27 111.70 240.46
  Q 108.60 235.67 107.38 231.67
  Q 105.42 225.21 105.15 221.71
  C 105.02 219.90 104.00 218.35 103.82 216.50
  Q 102.71 205.00 104.54 195.11
  C 105.21 191.51 105.35 186.66 106.40 183.13
  C 107.70 178.75 108.48 174.59 110.31 170.49
  Q 113.83 162.64 118.65 155.94
  C 125.80 145.99 137.17 140.64 149.40 142.62
  A 4.49 4.12 -24.6 0 1 150.66 143.03
  C 157.33 146.41 159.77 151.12 163.85 158.14
  C 167.54 164.48 171.27 168.89 177.83 171.67
  C 185.14 174.76 187.84 175.37 192.11 181.90
  Q 193.08 183.39 194.74 189.00
  Q 195.77 192.50 195.77 196.49
  C 195.77 204.88 196.19 211.29 194.75 217.98
  C 193.67 223.01 193.27 227.47 192.01 231.85
  C 189.12 241.88 184.02 253.96 175.63 260.69
  C 172.65 263.08 168.02 264.64 164.24 266.46
  Z
  M 133.04 155.64
  A 3.18 3.18 0.0 0 0 129.86 152.46
  A 3.18 3.18 0.0 0 0 126.68 155.64
  A 3.18 3.18 0.0 0 0 129.86 158.82
  A 3.18 3.18 0.0 0 0 133.04 155.64
  Z
  M 121.50 167.59
  C 120.70 164.81 117.32 164.42 115.65 166.36
  Q 113.87 168.43 112.94 171.24
  Q 108.56 184.51 107.81 196.99
  Q 106.66 216.09 112.59 237.50
  A 3.94 3.94 0.0 0 0 117.33 240.28
  L 117.51 240.24
  A 3.90 3.90 0.0 0 0 120.37 235.51
  Q 117.09 222.36 116.23 216.53
  Q 112.73 192.75 120.87 170.87
  Q 121.75 168.50 121.50 167.59
  Z"
/>
<circle fill="#b00d13" cx="129.86" cy="155.64" r="3.18"/>
<path fill="#b00d13" d="
  M 115.65 166.36
  C 117.32 164.42 120.70 164.81 121.50 167.59
  Q 121.75 168.50 120.87 170.87
  Q 112.73 192.75 116.23 216.53
  Q 117.09 222.36 120.37 235.51
  A 3.90 3.90 0.0 0 1 117.51 240.24
  L 117.33 240.28
  A 3.94 3.94 0.0 0 1 112.59 237.50
  Q 106.66 216.09 107.81 196.99
  Q 108.56 184.51 112.94 171.24
  Q 113.87 168.43 115.65 166.36
  Z"
/>
<path fill="#d43945" d="
  M 187.97 269.01
  L 193.96 262.46
  A 0.94 0.48 -27.2 0 0 194.06 262.32
  Q 200.00 252.74 203.08 244.15
  C 204.66 239.73 205.49 235.31 206.95 231.15
  A 4.87 4.50 -35.1 0 0 207.20 229.99
  C 207.32 228.41 207.29 227.14 207.56 225.98
  Q 211.33 209.94 209.79 192.65
  A 1.43 0.45 62.5 0 0 209.76 192.48
  L 207.15 182.18
  A 2.56 2.53 -35.4 0 1 207.51 180.13
  Q 211.06 174.88 217.29 173.50
  A 2.82 2.78 48.0 0 1 218.81 173.59
  C 225.28 175.84 231.90 175.79 238.70 174.59
  C 241.50 174.10 247.87 173.48 249.62 176.56
  C 252.68 181.96 252.74 187.50 252.42 195.38
  A 1.97 1.25 66.0 0 1 252.37 195.72
  L 249.68 207.44
  A 7.05 6.10 67.4 0 1 249.30 208.59
  Q 248.59 210.21 247.36 214.77
  Q 246.60 217.58 245.14 220.87
  C 242.96 225.77 240.68 232.85 237.25 238.00
  Q 230.49 248.15 225.53 253.54
  C 218.26 261.41 207.37 267.56 196.09 269.22
  Q 191.62 269.88 188.58 270.21
  A 0.72 0.72 0.0 0 1 187.97 269.01
  Z
  M 246.6388 198.6275
  A 3.50 3.28 16.9 0 0 244.2435 194.4717
  A 3.50 3.28 16.9 0 0 239.9412 196.5925
  A 3.50 3.28 16.9 0 0 242.3365 200.7483
  A 3.50 3.28 16.9 0 0 246.6388 198.6275
  Z
  M 229.47 228.97
  Q 225.79 236.39 219.62 245.93
  C 216.44 250.84 222.21 254.89 225.34 250.55
  Q 230.92 242.81 236.14 232.27
  Q 241.37 221.74 244.14 212.61
  C 245.70 207.49 238.99 205.35 237.00 210.86
  Q 233.15 221.54 229.47 228.97
  Z"
/>
<ellipse fill="#fcf9f9" cx="0.00" cy="0.00" transform="translate(243.29,197.61) rotate(16.9)" rx="3.50" ry="3.28"/>
<path fill="#fcf9f9" d="
  M 236.14 232.27
  Q 230.92 242.81 225.34 250.55
  C 222.21 254.89 216.44 250.84 219.62 245.93
  Q 225.79 236.39 229.47 228.97
  Q 233.15 221.54 237.00 210.86
  C 238.99 205.35 245.70 207.49 244.14 212.61
  Q 241.37 221.74 236.14 232.27
  Z"
/>
<path fill="#58a868" d="
  M 138.05 370.04
  A 0.33 0.33 0.0 0 1 137.47 370.18
  Q 129.28 360.41 118.61 353.64
  Q 110.30 348.38 97.42 339.32
  C 89.80 333.96 85.80 329.14 78.82 320.89
  Q 76.82 318.52 72.02 318.95
  A 1.65 1.62 19.7 0 0 71.00 319.42
  Q 68.03 322.34 68.97 326.68
  A 3.57 3.50 -68.2 0 0 69.50 327.95
  C 73.10 333.38 76.10 336.33 81.12 341.22
  Q 84.56 344.58 87.73 346.90
  Q 99.79 355.72 113.66 364.38
  Q 123.93 370.79 129.85 381.01
  Q 132.65 385.85 128.58 388.70
  C 119.19 395.26 110.89 395.40 99.67 391.85
  C 86.63 387.73 73.95 381.32 63.83 372.10
  Q 61.43 369.91 59.80 367.53
  C 58.31 365.35 56.45 363.65 54.62 361.03
  Q 45.47 347.92 41.81 330.95
  Q 40.34 324.12 40.52 321.16
  Q 40.65 319.11 39.87 314.56
  Q 39.13 310.19 40.46 305.00
  A 2.40 1.94 57.5 0 0 40.52 304.48
  L 40.52 295.04
  A 1.38 1.15 -39.8 0 1 40.60 294.60
  Q 41.52 291.80 41.40 288.58
  A 5.20 5.11 -36.2 0 1 41.73 286.56
  L 43.38 282.25
  A 1.23 0.87 80.4 0 1 43.51 281.98
  Q 45.16 279.44 48.28 278.13
  A 1.61 1.60 55.8 0 1 50.01 278.47
  Q 58.38 286.74 65.45 292.55
  Q 67.01 293.84 74.88 298.35
  Q 77.34 299.77 84.71 303.19
  Q 92.94 307.00 102.14 312.36
  Q 114.54 319.58 126.07 332.64
  C 135.37 343.18 141.31 356.10 138.05 370.04
  Z
  M 66.16 366.72
  L 66.40 366.50
  A 4.03 4.02 50.8 0 0 66.94 361.07
  Q 60.18 352.11 57.90 348.11
  Q 50.67 335.40 49.66 320.68
  Q 48.61 305.30 49.85 289.87
  C 50.11 286.65 49.53 283.74 45.77 284.47
  A 3.45 2.98 -88.1 0 0 43.33 287.11
  C 41.81 294.47 42.10 298.83 41.73 309.75
  Q 41.54 315.18 42.58 325.50
  Q 43.39 333.51 45.22 338.86
  C 48.80 349.34 53.59 357.25 61.11 366.33
  A 3.53 3.52 49.3 0 0 66.16 366.72
  Z
  M 81.13 375.17
  A 3.23 3.23 0.0 0 0 77.90 371.94
  A 3.23 3.23 0.0 0 0 74.67 375.17
  A 3.23 3.23 0.0 0 0 77.90 378.40
  A 3.23 3.23 0.0 0 0 81.13 375.17
  Z"
/>
<path fill="#58a868" d="
  M 166.80 279.19
  L 169.91 280.74
  A 2.22 2.21 24.4 0 1 170.98 283.58
  C 167.97 290.81 164.56 299.24 163.63 307.26
  Q 162.85 314.02 162.68 316.73
  C 162.56 318.72 161.87 321.56 161.30 323.64
  A 4.17 4.16 47.9 0 0 161.21 325.42
  Q 161.26 325.70 161.76 327.63
  C 162.58 330.84 161.62 333.73 158.86 335.76
  Q 153.94 339.37 150.19 343.01
  A 0.37 0.36 49.9 0 1 149.64 342.96
  Q 148.26 341.08 147.13 338.09
  A 2.45 2.12 22.5 0 0 146.89 337.61
  L 143.87 332.82
  A 2.11 2.01 -65.3 0 1 143.57 331.94
  Q 143.42 330.55 143.35 324.75
  Q 143.31 321.15 144.04 317.82
  Q 144.76 314.54 146.31 304.85
  A 0.86 0.67 -38.0 0 1 146.34 304.73
  L 148.25 298.84
  Q 148.49 302.22 147.03 305.50
  A 0.46 0.33 -35.8 0 0 146.99 305.62
  L 144.20 319.49
  A 3.43 3.42 -81.2 0 0 147.18 323.57
  L 147.38 323.59
  A 4.03 4.03 0.0 0 0 151.67 320.32
  Q 154.78 303.69 158.87 288.14
  Q 159.81 284.58 159.13 283.31
  Q 158.16 281.52 154.77 281.51
  C 157.25 279.23 160.78 280.22 163.53 279.26
  L 166.80 279.19
  Z
  M 151.06 331.27
  A 3.49 3.49 0.0 0 0 147.57 327.78
  A 3.49 3.49 0.0 0 0 144.08 331.27
  A 3.49 3.49 0.0 0 0 147.57 334.76
  A 3.49 3.49 0.0 0 0 151.06 331.27
  Z"
/>
<path fill="#1e6f2a" d="
  M 154.77 281.51
  Q 158.16 281.52 159.13 283.31
  Q 159.81 284.58 158.87 288.14
  Q 154.78 303.69 151.67 320.32
  A 4.03 4.03 0.0 0 1 147.38 323.59
  L 147.18 323.57
  A 3.43 3.42 -81.2 0 1 144.20 319.49
  L 146.99 305.62
  A 0.46 0.33 -35.8 0 1 147.03 305.50
  Q 148.49 302.22 148.25 298.84
  Q 149.75 293.63 152.07 288.06
  Q 152.67 286.63 153.29 283.04
  A 2.07 2.02 -23.0 0 1 153.63 282.23
  Q 154.27 281.31 154.77 281.51
  Z"
/>
<path fill="#1e6f2a" d="
  M 66.16 366.72
  A 3.53 3.52 49.3 0 1 61.11 366.33
  C 53.59 357.25 48.80 349.34 45.22 338.86
  Q 43.39 333.51 42.58 325.50
  Q 41.54 315.18 41.73 309.75
  C 42.10 298.83 41.81 294.47 43.33 287.11
  A 3.45 2.98 -88.1 0 1 45.77 284.47
  C 49.53 283.74 50.11 286.65 49.85 289.87
  Q 48.61 305.30 49.66 320.68
  Q 50.67 335.40 57.90 348.11
  Q 60.18 352.11 66.94 361.07
  A 4.03 4.02 50.8 0 1 66.40 366.50
  L 66.16 366.72
  Z"
/>
<path fill="#58a868" d="
  M 205.46 329.10
  Q 205.80 329.05 206.02 328.89
  C 209.99 328.87 214.52 327.88 217.67 327.81
  Q 224.71 327.66 232.23 327.82
  A 8.33 8.17 -35.4 0 1 234.36 328.16
  Q 236.13 328.69 237.94 328.67
  A 8.74 8.56 -35.5 0 1 240.70 329.10
  C 246.12 330.89 253.22 334.83 256.30 339.64
  Q 259.73 345.01 260.33 349.60
  Q 261.33 357.29 253.56 360.10
  Q 240.72 364.75 235.80 367.32
  Q 233.69 368.43 226.39 374.00
  Q 224.33 375.57 217.84 381.76
  Q 211.21 388.07 203.83 393.05
  C 197.40 397.39 190.45 398.45 183.25 399.93
  C 177.66 401.08 171.40 399.86 164.32 398.63
  Q 154.75 396.96 148.16 389.82
  A 1.56 1.56 0.0 0 1 148.15 387.72
  C 149.36 386.37 151.91 384.15 153.63 383.09
  Q 163.55 377.01 174.84 374.38
  Q 188.51 371.19 193.64 369.45
  Q 196.10 368.62 211.21 360.47
  Q 213.61 359.17 214.48 358.82
  C 218.82 357.03 223.31 354.71 221.09 349.27
  C 219.90 346.37 214.44 347.22 211.99 347.51
  A 5.31 5.09 -59.0 0 0 210.52 347.91
  C 207.39 349.26 203.62 351.03 200.11 353.04
  Q 192.29 357.54 187.41 359.16
  C 182.60 360.76 176.26 362.72 171.41 363.57
  C 168.03 364.16 165.92 365.37 162.84 366.04
  Q 159.07 366.86 154.16 369.43
  A 1.21 1.21 0.0 0 1 152.53 367.80
  L 158.48 356.31
  A 6.91 6.48 -12.7 0 1 159.39 354.97
  C 164.91 348.63 172.35 342.46 180.20 338.75
  C 185.72 336.14 190.43 332.87 196.33 331.58
  Q 200.96 330.57 205.46 329.10
  Z
  M 221.0735 338.0103
  A 3.64 3.43 58.1 0 0 222.0620 333.1075
  A 3.64 3.43 58.1 0 0 217.2265 331.8297
  A 3.64 3.43 58.1 0 0 216.2380 336.7325
  A 3.64 3.43 58.1 0 0 221.0735 338.0103
  Z
  M 247.18 351.88
  C 246.56 356.15 252.80 356.88 254.34 352.65
  C 259.30 339.06 247.10 333.22 236.12 331.92
  A 3.09 3.08 -82.3 0 0 232.71 334.52
  L 232.68 334.74
  A 3.42 3.41 -78.7 0 0 235.23 338.56
  Q 239.43 339.61 244.45 341.82
  C 249.20 343.90 247.81 347.51 247.18 351.88
  Z"
/>
<circle fill="#1e6f2a" cx="147.57" cy="331.27" r="3.49"/>
<ellipse fill="#fcf9f9" cx="0.00" cy="0.00" transform="translate(219.15,334.92) rotate(58.1)" rx="3.64" ry="3.43"/>
<path fill="#fcf9f9" d="
  M 254.34 352.65
  C 252.80 356.88 246.56 356.15 247.18 351.88
  C 247.81 347.51 249.20 343.90 244.45 341.82
  Q 239.43 339.61 235.23 338.56
  A 3.42 3.41 -78.7 0 1 232.68 334.74
  L 232.71 334.52
  A 3.09 3.08 -82.3 0 1 236.12 331.92
  C 247.10 333.22 259.30 339.06 254.34 352.65
  Z"
/>
<circle fill="#1e6f2a" cx="77.90" cy="375.17" r="3.23"/>
</svg>
