<?xml version="1.0" encoding="UTF-8" standalone="no"?>
<!DOCTYPE svg PUBLIC "-//W3C//DTD SVG 1.1//EN" "http://www.w3.org/Graphics/SVG/1.1/DTD/svg11.dtd">
<svg xmlns="http://www.w3.org/2000/svg" version="1.1" viewBox="0.00 0.00 390.00 491.00">
<g stroke-width="2.00" fill="none" stroke-linecap="butt">
<path stroke="#7c5a5c" vector-effect="non-scaling-stroke" d="
  M 186.56 104.04
  Q 172.76 105.39 159.48 109.32
  C 151.07 111.80 143.88 116.84 137.17 121.18
  Q 129.57 126.10 122.54 134.06
  Q 109.08 149.32 103.81 169.04
  C 101.55 177.46 100.97 187.90 100.12 197.32"
/>
<path stroke="#7c5a5c" vector-effect="non-scaling-stroke" d="
  M 100.12 197.32
  L 99.83 199.79"
/>
<path stroke="#7c5a5c" vector-effect="non-scaling-stroke" d="
  M 99.70 200.28
  C 100.22 211.04 93.02 217.59 85.61 225.02
  Q 78.60 232.05 84.40 240.42
  Q 86.42 243.33 88.69 244.91
  A 3.90 3.89 63.3 0 0 90.77 245.60
  Q 93.73 245.69 99.51 245.60
  Q 102.28 245.56 106.39 242.28"
/>
<path stroke="#793f43" vector-effect="non-scaling-stroke" d="
  M 106.39 242.28
  Q 107.75 242.06 108.91 240.72"
/>
<path stroke="#7c5a5c" vector-effect="non-scaling-stroke" d="
  M 108.91 240.72
  C 118.55 238.50 128.85 245.31 136.94 250.54
  Q 142.17 253.91 148.05 252.48
  A 4.84 4.64 -65.5 0 0 149.36 251.96
  Q 150.63 251.22 155.69 247.70
  C 161.08 243.96 165.68 241.90 172.06 242.05
  Q 174.53 242.10 179.12 244.72
  Q 179.76 245.08 188.95 249.75
  A 9.84 9.83 -29.8 0 0 192.83 250.80
  Q 197.56 251.08 202.76 250.72
  C 212.13 250.05 218.29 244.09 224.13 237.41
  Q 228.67 232.21 234.22 232.15
  C 241.45 232.07 246.70 233.50 254.06 235.56
  A 6.50 6.48 -46.5 0 0 257.93 235.45
  C 261.76 234.14 264.98 232.85 267.81 229.12
  Q 272.72 222.64 277.25 218.23
  A 10.14 9.14 3.0 0 1 278.53 217.19
  L 284.64 213.11
  A 1.37 1.30 25.3 0 1 285.31 212.89
  L 291.23 212.64"
/>
<path stroke="#7c5a5c" vector-effect="non-scaling-stroke" d="
  M 291.96 212.81
  Q 292.31 212.63 293.37 212.72"
/>
<path stroke="#793f43" vector-effect="non-scaling-stroke" d="
  M 293.37 212.72
  L 298.96 213.56
  A 2.01 1.77 41.4 0 0 299.51 213.56
  L 303.82 212.88"
/>
<path stroke="#7c5a5c" vector-effect="non-scaling-stroke" d="
  M 303.82 212.88
  Q 308.26 211.72 311.78 208.52
  Q 313.74 206.74 314.29 203.94
  Q 316.16 194.23 307.50 189.45
  Q 296.73 183.51 295.33 182.68
  C 289.88 179.48 286.57 174.47 283.67 167.95
  Q 281.54 163.17 278.83 157.41
  Q 269.47 137.46 252.25 124.54
  C 247.93 121.30 241.47 116.83 235.84 114.14
  Q 218.16 105.65 198.59 104.02"
/>
<path stroke="#7c5a5c" vector-effect="non-scaling-stroke" d="
  M 196.95 103.97
  L 188.51 103.90"
/>
<path stroke="#f5999f" vector-effect="non-scaling-stroke" d="
  M 303.82 212.88
  C 303.23 210.64 305.03 209.16 302.74 206.87
  A 2.43 2.42 76.5 0 0 301.78 206.28
  C 299.28 205.45 292.69 204.23 291.98 208.10
  Q 291.62 210.03 293.37 212.72"
/>
<path stroke="#f5999f" vector-effect="non-scaling-stroke" d="
  M 108.91 240.72
  Q 110.49 238.36 110.09 236.91
  Q 109.35 234.22 106.41 234.10
  A 2.12 2.10 37.2 0 0 105.65 234.20
  C 102.44 235.21 99.04 236.64 97.32 235.85
  A 2.53 2.12 -73.8 0 1 96.16 233.21
  C 96.87 229.38 99.45 226.31 102.17 224.01
  C 103.91 222.53 104.31 220.33 102.75 218.81
  C 100.73 216.83 98.01 218.27 96.27 219.76
  C 90.96 224.31 85.75 233.34 90.56 239.72
  Q 94.06 244.34 100.23 243.15
  Q 103.16 242.59 106.39 242.28"
/>
<path stroke="#6c412a" vector-effect="non-scaling-stroke" d="
  M 139.71 281.07
  C 141.27 283.79 143.21 286.40 144.68 289.03
  Q 149.98 298.54 155.78 306.48
  Q 178.05 336.97 204.41 366.37"
/>
<path stroke="#755b49" vector-effect="non-scaling-stroke" d="
  M 204.41 366.37
  L 216.34 378.65"
/>
<path stroke="#6c412a" vector-effect="non-scaling-stroke" d="
  M 216.34 378.65
  L 221.92 382.77"
/>
<path stroke="#755b49" vector-effect="non-scaling-stroke" d="
  M 221.92 382.77
  Q 229.45 388.53 234.31 380.78
  Q 242.10 368.37 246.18 357.18
  Q 256.54 328.71 264.31 304.82
  Q 266.95 296.69 277.15 256.58
  C 278.56 251.04 279.38 244.04 281.12 239.10
  A 0.41 0.40 -84.3 0 0 280.68 238.56
  Q 280.14 238.65 279.89 238.89
  Q 275.94 242.78 273.11 245.04
  Q 266.55 250.30 257.77 250.23
  Q 250.94 250.17 248.48 249.53
  C 245.22 248.68 237.73 246.22 235.81 248.38
  C 229.75 255.17 224.19 260.06 215.56 263.11
  Q 193.46 270.93 172.44 258.34
  Q 170.33 257.08 168.64 258.16
  C 165.13 260.42 161.41 263.41 157.65 265.01
  Q 142.68 271.43 128.58 262.66
  A 0.44 0.44 0.0 0 0 127.94 263.19
  Q 128.78 265.43 130.38 267.62
  Q 135.22 274.20 139.71 281.07"
/>
<path stroke="#e19c73" vector-effect="non-scaling-stroke" d="
  M 221.92 382.77
  C 222.48 381.47 223.98 380.72 224.21 379.62
  C 224.79 376.80 222.89 374.10 220.69 371.93
  A 2.52 2.51 63.7 0 0 218.61 371.22
  Q 212.87 371.92 216.34 378.65"
/>
<path stroke="#e19c73" vector-effect="non-scaling-stroke" d="
  M 204.41 366.37
  C 207.43 364.49 209.95 361.90 207.16 358.58
  C 183.90 331.00 164.47 306.94 147.20 278.54
  C 145.72 276.11 142.40 274.10 140.41 277.58
  A 1.45 1.44 58.3 0 0 140.22 278.40
  Q 140.32 279.88 139.71 281.07"
/>
<path stroke="#fad6d9" vector-effect="non-scaling-stroke" d="
  M 207.10 114.54
  A 2.93 2.93 0.0 0 0 208.79 118.76
  C 224.11 123.52 241.30 132.85 250.14 146.12
  Q 254.46 152.62 254.70 152.93
  A 3.75 3.75 0.0 0 0 259.74 153.75
  L 259.93 153.62
  A 3.85 3.85 0.0 0 0 261.15 148.52
  Q 255.75 138.94 247.98 132.00
  Q 233.34 118.93 212.11 112.36
  A 4.18 4.17 -66.8 0 0 207.23 114.32
  L 207.10 114.54"
/>
<path stroke="#f5999f" vector-effect="non-scaling-stroke" d="
  M 109.28 195.72
  C 110.17 199.51 115.55 199.07 116.56 195.58
  A 2.06 1.97 54.0 0 0 116.65 194.92
  Q 116.30 179.83 119.93 166.42
  Q 127.32 139.15 152.39 125.38
  Q 159.70 121.37 167.08 120.38
  C 169.96 119.99 172.13 118.66 171.15 115.54
  A 3.08 3.07 82.9 0 0 168.41 113.40
  C 159.53 112.83 147.85 118.69 140.59 123.84
  Q 116.12 141.23 110.54 170.79
  Q 109.06 178.68 108.72 188.50
  Q 108.57 192.69 109.28 195.72"
/>
<path stroke="#fad6d9" vector-effect="non-scaling-stroke" d="
  M 270.58 164.72
  A 3.21 3.21 0.0 0 0 267.37 161.51
  A 3.21 3.21 0.0 0 0 264.16 164.72
  A 3.21 3.21 0.0 0 0 267.37 167.93
  A 3.21 3.21 0.0 0 0 270.58 164.72"
/>
<path stroke="#f5999f" vector-effect="non-scaling-stroke" d="
  M 113.27 209.89
  A 3.25 3.25 0.0 0 0 110.02 206.64
  A 3.25 3.25 0.0 0 0 106.77 209.89
  A 3.25 3.25 0.0 0 0 110.02 213.14
  A 3.25 3.25 0.0 0 0 113.27 209.89"
/>
<path stroke="#f5999f" vector-effect="non-scaling-stroke" d="
  M 255.96 224.11
  Q 253.93 225.23 250.92 225.93
  C 247.74 226.67 245.64 227.91 246.79 231.27
  A 1.66 1.61 -83.2 0 0 247.42 232.09
  C 251.07 234.53 255.97 232.44 259.49 230.50
  C 263.00 228.56 267.38 225.52 267.25 221.13
  A 1.66 1.61 25.4 0 0 266.89 220.16
  C 264.66 217.40 262.49 218.52 260.18 220.82
  Q 257.98 223.00 255.96 224.11"
/>
<path stroke="#f5999f" vector-effect="non-scaling-stroke" d="
  M 207.17 234.75
  Q 202.50 236.24 199.26 237.79
  Q 192.69 240.93 182.40 236.97
  A 3.42 3.42 0.0 0 0 178.02 238.85
  L 177.95 239.02
  A 3.25 3.25 0.0 0 0 179.66 243.26
  Q 186.82 246.36 189.20 246.41
  Q 198.65 246.61 207.02 242.55
  C 209.98 241.11 212.31 239.08 210.04 235.74
  A 2.55 2.54 -25.8 0 0 207.17 234.75"
/>
<path stroke="#f5999f" vector-effect="non-scaling-stroke" d="
  M 141.52 248.16
  Q 147.37 249.08 153.72 245.68
  A 3.83 3.38 75.7 0 0 155.50 242.20
  C 155.32 239.11 152.04 238.71 149.65 239.71
  C 147.55 240.59 145.21 241.29 142.67 240.89
  C 140.13 240.49 138.12 239.10 136.39 237.61
  C 134.43 235.92 131.19 235.29 130.06 238.18
  A 3.83 3.38 -57.7 0 0 130.69 242.04
  Q 135.68 247.23 141.52 248.16"
/>
</g>
<path fill="#000000" d="
  M 301.11 228.89
  C 296.87 229.25 297.75 233.73 297.11 236.41
  C 295.95 241.18 295.55 245.70 294.32 250.72
  C 291.74 261.19 289.35 273.77 286.03 285.59
  Q 276.14 320.81 263.28 355.81
  Q 259.33 366.56 255.75 374.50
  C 251.73 383.42 247.26 391.24 239.74 396.96
  Q 235.33 400.32 229.48 399.76
  Q 216.10 398.49 206.95 390.60
  Q 200.09 384.67 192.22 375.83
  Q 182.96 365.43 169.76 349.53
  C 162.27 340.52 153.39 329.40 145.86 317.58
  Q 139.29 307.28 124.58 286.02
  C 118.58 277.34 113.71 269.41 108.83 260.74
  A 1.83 1.83 0.0 0 0 107.00 259.83
  C 102.47 260.45 95.35 262.06 90.34 261.04
  C 77.61 258.46 67.48 250.05 67.38 236.08
  C 67.32 228.07 67.54 222.16 72.67 216.17
  Q 78.26 209.65 80.80 207.01
  Q 85.36 202.28 85.38 195.66
  Q 85.43 183.30 87.70 170.25
  Q 89.49 159.98 93.39 151.42
  C 101.32 134.02 112.68 118.85 128.46 108.51
  C 141.43 100.02 155.02 93.41 170.55 90.91
  C 176.58 89.93 185.87 89.00 193.17 89.50
  C 205.11 90.32 214.23 91.02 224.52 94.23
  Q 241.68 99.60 256.33 109.07
  Q 261.84 112.63 265.42 116.34
  C 268.83 119.87 273.13 123.01 276.78 127.03
  C 285.75 136.92 291.37 148.11 297.31 161.43
  Q 300.13 167.75 305.75 170.74
  Q 309.58 172.77 318.33 177.67
  Q 322.01 179.73 324.78 183.64
  C 332.92 195.13 332.63 210.29 322.39 220.23
  C 316.19 226.26 309.24 228.18 301.11 228.89
  Z
  M 186.56 104.04
  Q 172.76 105.39 159.48 109.32
  C 151.07 111.80 143.88 116.84 137.17 121.18
  Q 129.57 126.10 122.54 134.06
  Q 109.08 149.32 103.81 169.04
  C 101.55 177.46 100.97 187.90 100.12 197.32
  L 99.87 196.74
  A 0.11 0.11 0.0 0 0 99.67 196.74
  Q 99.62 196.89 99.62 197.04
  Q 99.61 197.19 100.12 197.32
  L 99.83 199.79
  Q 99.48 199.01 99.70 200.28
  C 100.22 211.04 93.02 217.59 85.61 225.02
  Q 78.60 232.05 84.40 240.42
  Q 86.42 243.33 88.69 244.91
  A 3.90 3.89 63.3 0 0 90.77 245.60
  Q 93.73 245.69 99.51 245.60
  Q 102.28 245.56 106.39 242.28
  Q 107.75 242.06 108.91 240.72
  C 118.55 238.50 128.85 245.31 136.94 250.54
  Q 142.17 253.91 148.05 252.48
  A 4.84 4.64 -65.5 0 0 149.36 251.96
  Q 150.63 251.22 155.69 247.70
  C 161.08 243.96 165.68 241.90 172.06 242.05
  Q 174.53 242.10 179.12 244.72
  Q 179.76 245.08 188.95 249.75
  A 9.84 9.83 -29.8 0 0 192.83 250.80
  Q 197.56 251.08 202.76 250.72
  C 212.13 250.05 218.29 244.09 224.13 237.41
  Q 228.67 232.21 234.22 232.15
  C 241.45 232.07 246.70 233.50 254.06 235.56
  A 6.50 6.48 -46.5 0 0 257.93 235.45
  C 261.76 234.14 264.98 232.85 267.81 229.12
  Q 272.72 222.64 277.25 218.23
  A 10.14 9.14 3.0 0 1 278.53 217.19
  L 284.64 213.11
  A 1.37 1.30 25.3 0 1 285.31 212.89
  L 291.23 212.64
  Q 290.99 212.61 290.83 212.63
  A 0.16 0.12 34.8 0 0 290.92 212.90
  Q 291.44 212.93 291.96 212.81
  Q 292.31 212.63 293.37 212.72
  L 298.96 213.56
  A 2.01 1.77 41.4 0 0 299.51 213.56
  L 303.82 212.88
  Q 308.26 211.72 311.78 208.52
  Q 313.74 206.74 314.29 203.94
  Q 316.16 194.23 307.50 189.45
  Q 296.73 183.51 295.33 182.68
  C 289.88 179.48 286.57 174.47 283.67 167.95
  Q 281.54 163.17 278.83 157.41
  Q 269.47 137.46 252.25 124.54
  C 247.93 121.30 241.47 116.83 235.84 114.14
  Q 218.16 105.65 198.59 104.02
  Q 197.79 103.23 196.95 103.97
  L 188.51 103.90
  C 187.17 103.76 186.01 103.87 184.64 103.87
  C 185.35 103.89 185.87 103.84 186.56 104.04
  Z
  M 289.28 212.67
  Q 288.98 212.63 288.89 212.66
  A 0.32 0.32 0.0 0 0 288.77 213.23
  Q 289.11 213.48 289.37 213.38
  A 0.37 0.37 0.0 0 0 289.28 212.67
  Z
  M 139.71 281.07
  C 141.27 283.79 143.21 286.40 144.68 289.03
  Q 149.98 298.54 155.78 306.48
  Q 178.05 336.97 204.41 366.37
  L 216.34 378.65
  L 221.92 382.77
  Q 229.45 388.53 234.31 380.78
  Q 242.10 368.37 246.18 357.18
  Q 256.54 328.71 264.31 304.82
  Q 266.95 296.69 277.15 256.58
  C 278.56 251.04 279.38 244.04 281.12 239.10
  A 0.41 0.40 -84.3 0 0 280.68 238.56
  Q 280.14 238.65 279.89 238.89
  Q 275.94 242.78 273.11 245.04
  Q 266.55 250.30 257.77 250.23
  Q 250.94 250.17 248.48 249.53
  C 245.22 248.68 237.73 246.22 235.81 248.38
  C 229.75 255.17 224.19 260.06 215.56 263.11
  Q 193.46 270.93 172.44 258.34
  Q 170.33 257.08 168.64 258.16
  C 165.13 260.42 161.41 263.41 157.65 265.01
  Q 142.68 271.43 128.58 262.66
  A 0.44 0.44 0.0 0 0 127.94 263.19
  Q 128.78 265.43 130.38 267.62
  Q 135.22 274.20 139.71 281.07
  Z"
/>
<path fill="#f8b3b8" d="
  M 188.51 103.90
  L 196.95 103.97
  L 198.59 104.02
  Q 218.16 105.65 235.84 114.14
  C 241.47 116.83 247.93 121.30 252.25 124.54
  Q 269.47 137.46 278.83 157.41
  Q 281.54 163.17 283.67 167.95
  C 286.57 174.47 289.88 179.48 295.33 182.68
  Q 296.73 183.51 307.50 189.45
  Q 316.16 194.23 314.29 203.94
  Q 313.74 206.74 311.78 208.52
  Q 308.26 211.72 303.82 212.88
  C 303.23 210.64 305.03 209.16 302.74 206.87
  A 2.43 2.42 76.5 0 0 301.78 206.28
  C 299.28 205.45 292.69 204.23 291.98 208.10
  Q 291.62 210.03 293.37 212.72
  Q 292.31 212.63 291.96 212.81
  L 291.23 212.64
  L 285.31 212.89
  A 1.37 1.30 25.3 0 0 284.64 213.11
  L 278.53 217.19
  A 10.14 9.14 3.0 0 0 277.25 218.23
  Q 272.72 222.64 267.81 229.12
  C 264.98 232.85 261.76 234.14 257.93 235.45
  A 6.50 6.48 -46.5 0 1 254.06 235.56
  C 246.70 233.50 241.45 232.07 234.22 232.15
  Q 228.67 232.21 224.13 237.41
  C 218.29 244.09 212.13 250.05 202.76 250.72
  Q 197.56 251.08 192.83 250.80
  A 9.84 9.83 -29.8 0 1 188.95 249.75
  Q 179.76 245.08 179.12 244.72
  Q 174.53 242.10 172.06 242.05
  C 165.68 241.90 161.08 243.96 155.69 247.70
  Q 150.63 251.22 149.36 251.96
  A 4.84 4.64 -65.5 0 1 148.05 252.48
  Q 142.17 253.91 136.94 250.54
  C 128.85 245.31 118.55 238.50 108.91 240.72
  Q 110.49 238.36 110.09 236.91
  Q 109.35 234.22 106.41 234.10
  A 2.12 2.10 37.2 0 0 105.65 234.20
  C 102.44 235.21 99.04 236.64 97.32 235.85
  A 2.53 2.12 -73.8 0 1 96.16 233.21
  C 96.87 229.38 99.45 226.31 102.17 224.01
  C 103.91 222.53 104.31 220.33 102.75 218.81
  C 100.73 216.83 98.01 218.27 96.27 219.76
  C 90.96 224.31 85.75 233.34 90.56 239.72
  Q 94.06 244.34 100.23 243.15
  Q 103.16 242.59 106.39 242.28
  Q 102.28 245.56 99.51 245.60
  Q 93.73 245.69 90.77 245.60
  A 3.90 3.89 63.3 0 1 88.69 244.91
  Q 86.42 243.33 84.40 240.42
  Q 78.60 232.05 85.61 225.02
  C 93.02 217.59 100.22 211.04 99.70 200.28
  Q 99.71 199.94 99.83 199.79
  L 100.12 197.32
  C 100.97 187.90 101.55 177.46 103.81 169.04
  Q 109.08 149.32 122.54 134.06
  Q 129.57 126.10 137.17 121.18
  C 143.88 116.84 151.07 111.80 159.48 109.32
  Q 172.76 105.39 186.56 104.04
  L 188.51 103.90
  Z
  M 207.10 114.54
  A 2.93 2.93 0.0 0 0 208.79 118.76
  C 224.11 123.52 241.30 132.85 250.14 146.12
  Q 254.46 152.62 254.70 152.93
  A 3.75 3.75 0.0 0 0 259.74 153.75
  L 259.93 153.62
  A 3.85 3.85 0.0 0 0 261.15 148.52
  Q 255.75 138.94 247.98 132.00
  Q 233.34 118.93 212.11 112.36
  A 4.18 4.17 -66.8 0 0 207.23 114.32
  L 207.10 114.54
  Z
  M 109.28 195.72
  C 110.17 199.51 115.55 199.07 116.56 195.58
  A 2.06 1.97 54.0 0 0 116.65 194.92
  Q 116.30 179.83 119.93 166.42
  Q 127.32 139.15 152.39 125.38
  Q 159.70 121.37 167.08 120.38
  C 169.96 119.99 172.13 118.66 171.15 115.54
  A 3.08 3.07 82.9 0 0 168.41 113.40
  C 159.53 112.83 147.85 118.69 140.59 123.84
  Q 116.12 141.23 110.54 170.79
  Q 109.06 178.68 108.72 188.50
  Q 108.57 192.69 109.28 195.72
  Z
  M 270.58 164.72
  A 3.21 3.21 0.0 0 0 267.37 161.51
  A 3.21 3.21 0.0 0 0 264.16 164.72
  A 3.21 3.21 0.0 0 0 267.37 167.93
  A 3.21 3.21 0.0 0 0 270.58 164.72
  Z
  M 113.27 209.89
  A 3.25 3.25 0.0 0 0 110.02 206.64
  A 3.25 3.25 0.0 0 0 106.77 209.89
  A 3.25 3.25 0.0 0 0 110.02 213.14
  A 3.25 3.25 0.0 0 0 113.27 209.89
  Z
  M 255.96 224.11
  Q 253.93 225.23 250.92 225.93
  C 247.74 226.67 245.64 227.91 246.79 231.27
  A 1.66 1.61 -83.2 0 0 247.42 232.09
  C 251.07 234.53 255.97 232.44 259.49 230.50
  C 263.00 228.56 267.38 225.52 267.25 221.13
  A 1.66 1.61 25.4 0 0 266.89 220.16
  C 264.66 217.40 262.49 218.52 260.18 220.82
  Q 257.98 223.00 255.96 224.11
  Z
  M 207.17 234.75
  Q 202.50 236.24 199.26 237.79
  Q 192.69 240.93 182.40 236.97
  A 3.42 3.42 0.0 0 0 178.02 238.85
  L 177.95 239.02
  A 3.25 3.25 0.0 0 0 179.66 243.26
  Q 186.82 246.36 189.20 246.41
  Q 198.65 246.61 207.02 242.55
  C 209.98 241.11 212.31 239.08 210.04 235.74
  A 2.55 2.54 -25.8 0 0 207.17 234.75
  Z
  M 141.52 248.16
  Q 147.37 249.08 153.72 245.68
  A 3.83 3.38 75.7 0 0 155.50 242.20
  C 155.32 239.11 152.04 238.71 149.65 239.71
  C 147.55 240.59 145.21 241.29 142.67 240.89
  C 140.13 240.49 138.12 239.10 136.39 237.61
  C 134.43 235.92 131.19 235.29 130.06 238.18
  A 3.83 3.38 -57.7 0 0 130.69 242.04
  Q 135.68 247.23 141.52 248.16
  Z"
/>
<path fill="#fcf9f9" d="
  M 207.10 114.54
  L 207.23 114.32
  A 4.18 4.17 -66.8 0 1 212.11 112.36
  Q 233.34 118.93 247.98 132.00
  Q 255.75 138.94 261.15 148.52
  A 3.85 3.85 0.0 0 1 259.93 153.62
  L 259.74 153.75
  A 3.75 3.75 0.0 0 1 254.70 152.93
  Q 254.46 152.62 250.14 146.12
  C 241.30 132.85 224.11 123.52 208.79 118.76
  A 2.93 2.93 0.0 0 1 207.10 114.54
  Z"
/>
<path fill="#f17e85" d="
  M 116.56 195.58
  C 115.55 199.07 110.17 199.51 109.28 195.72
  Q 108.57 192.69 108.72 188.50
  Q 109.06 178.68 110.54 170.79
  Q 116.12 141.23 140.59 123.84
  C 147.85 118.69 159.53 112.83 168.41 113.40
  A 3.08 3.07 82.9 0 1 171.15 115.54
  C 172.13 118.66 169.96 119.99 167.08 120.38
  Q 159.70 121.37 152.39 125.38
  Q 127.32 139.15 119.93 166.42
  Q 116.30 179.83 116.65 194.92
  A 2.06 1.97 54.0 0 1 116.56 195.58
  Z"
/>
<circle fill="#fcf9f9" cx="267.37" cy="164.72" r="3.21"/>
<path fill="#f17e85" d="
  M 303.82 212.88
  L 299.51 213.56
  A 2.01 1.77 41.4 0 1 298.96 213.56
  L 293.37 212.72
  Q 291.62 210.03 291.98 208.10
  C 292.69 204.23 299.28 205.45 301.78 206.28
  A 2.43 2.42 76.5 0 1 302.74 206.87
  C 305.03 209.16 303.23 210.64 303.82 212.88
  Z"
/>
<circle fill="#f17e85" cx="110.02" cy="209.89" r="3.25"/>
<path fill="#f17e85" d="
  M 108.91 240.72
  Q 107.75 242.06 106.39 242.28
  Q 103.16 242.59 100.23 243.15
  Q 94.06 244.34 90.56 239.72
  C 85.75 233.34 90.96 224.31 96.27 219.76
  C 98.01 218.27 100.73 216.83 102.75 218.81
  C 104.31 220.33 103.91 222.53 102.17 224.01
  C 99.45 226.31 96.87 229.38 96.16 233.21
  A 2.53 2.12 -73.8 0 0 97.32 235.85
  C 99.04 236.64 102.44 235.21 105.65 234.20
  A 2.12 2.10 37.2 0 1 106.41 234.10
  Q 109.35 234.22 110.09 236.91
  Q 110.49 238.36 108.91 240.72
  Z"
/>
<path fill="#f17e85" d="
  M 259.49 230.50
  C 255.97 232.44 251.07 234.53 247.42 232.09
  A 1.66 1.61 -83.2 0 1 246.79 231.27
  C 245.64 227.91 247.74 226.67 250.92 225.93
  Q 253.93 225.23 255.96 224.11
  Q 257.98 223.00 260.18 220.82
  C 262.49 218.52 264.66 217.40 266.89 220.16
  A 1.66 1.61 25.4 0 1 267.25 221.13
  C 267.38 225.52 263.00 228.56 259.49 230.50
  Z"
/>
<path fill="#f17e85" d="
  M 207.17 234.75
  A 2.55 2.54 -25.8 0 1 210.04 235.74
  C 212.31 239.08 209.98 241.11 207.02 242.55
  Q 198.65 246.61 189.20 246.41
  Q 186.82 246.36 179.66 243.26
  A 3.25 3.25 0.0 0 1 177.95 239.02
  L 178.02 238.85
  A 3.42 3.42 0.0 0 1 182.40 236.97
  Q 192.69 240.93 199.26 237.79
  Q 202.50 236.24 207.17 234.75
  Z"
/>
<path fill="#f17e85" d="
  M 142.67 240.89
  C 145.21 241.29 147.55 240.59 149.65 239.71
  C 152.04 238.71 155.32 239.11 155.50 242.20
  A 3.83 3.38 75.7 0 1 153.72 245.68
  Q 147.37 249.08 141.52 248.16
  Q 135.68 247.23 130.69 242.04
  A 3.83 3.38 -57.7 0 1 130.06 238.18
  C 131.19 235.29 134.43 235.92 136.39 237.61
  C 138.12 239.10 140.13 240.49 142.67 240.89
  Z"
/>
<path fill="#eab692" d="
  M 221.92 382.77
  C 222.48 381.47 223.98 380.72 224.21 379.62
  C 224.79 376.80 222.89 374.10 220.69 371.93
  A 2.52 2.51 63.7 0 0 218.61 371.22
  Q 212.87 371.92 216.34 378.65
  L 204.41 366.37
  C 207.43 364.49 209.95 361.90 207.16 358.58
  C 183.90 331.00 164.47 306.94 147.20 278.54
  C 145.72 276.11 142.40 274.10 140.41 277.58
  A 1.45 1.44 58.3 0 0 140.22 278.40
  Q 140.32 279.88 139.71 281.07
  Q 135.22 274.20 130.38 267.62
  Q 128.78 265.43 127.94 263.19
  A 0.44 0.44 0.0 0 1 128.58 262.66
  Q 142.68 271.43 157.65 265.01
  C 161.41 263.41 165.13 260.42 168.64 258.16
  Q 170.33 257.08 172.44 258.34
  Q 193.46 270.93 215.56 263.11
  C 224.19 260.06 229.75 255.17 235.81 248.38
  C 237.73 246.22 245.22 248.68 248.48 249.53
  Q 250.94 250.17 257.77 250.23
  Q 266.55 250.30 273.11 245.04
  Q 275.94 242.78 279.89 238.89
  Q 280.14 238.65 280.68 238.56
  A 0.41 0.40 -84.3 0 1 281.12 239.10
  C 279.38 244.04 278.56 251.04 277.15 256.58
  Q 266.95 296.69 264.31 304.82
  Q 256.54 328.71 246.18 357.18
  Q 242.10 368.37 234.31 380.78
  Q 229.45 388.53 221.92 382.77
  Z"
/>
<path fill="#d78254" d="
  M 204.41 366.37
  Q 178.05 336.97 155.78 306.48
  Q 149.98 298.54 144.68 289.03
  C 143.21 286.40 141.27 283.79 139.71 281.07
  Q 140.32 279.88 140.22 278.40
  A 1.45 1.44 58.3 0 1 140.41 277.58
  C 142.40 274.10 145.72 276.11 147.20 278.54
  C 164.47 306.94 183.90 331.00 207.16 358.58
  C 209.95 361.90 207.43 364.49 204.41 366.37
  Z"
/>
<path fill="#d78254" d="
  M 221.92 382.77
  L 216.34 378.65
  Q 212.87 371.92 218.61 371.22
  A 2.52 2.51 63.7 0 1 220.69 371.93
  C 222.89 374.10 224.79 376.80 224.21 379.62
  C 223.98 380.72 222.48 381.47 221.92 382.77
  Z"
/>
</svg>
