<?xml version="1.0" encoding="utf-8" ?>
<!-- Generator: Assembly 2.4 - http://assemblyapp.co -->
<svg version="1.1" xmlns="http://www.w3.org/2000/svg" xmlns:xlink="http://www.w3.org/1999/xlink" width="4096.00" height="4096.00" viewBox="0 0 4096.0 2048.0">
  <g id="document" transform="scale(1.0 1.0) translate(2048.0 2048.0)">
    <path d="M-1086.73,-3.53222e-06 L1086.73,-2.94505e-05 L1086.73,-289.185 L-1086.73,-289.185 L-1086.73,-3.53222e-06 Z " fill="#a5a5a5" fill-opacity="1.00" />
    <defs>
      <filter id="oYl32B33" x="0.00%" y="0.00%" width="103.17%" height="112.74%" filterUnits="objectBoundingBox">
        <feOffset dx="68.86" dy="131.46" in="SourceAlpha" result="shadowOffsetOuter1" />
        <feGaussianBlur stdDeviation="0.00" in="shadowOffsetOuter1" result="shadowBlurOuter1" />
        <feFlood flood-color="#000000" flood-opacity="0.09" />
        <feComposite in2="shadowBlurOuter1" operator="in" />
        <feMerge>
          <feMergeNode />
          <feMergeNode in="SourceGraphic" />
        </feMerge>
      </filter>
    </defs>
    <path d="M1.41448e-05,515.821 C600.184,515.821 1086.73,284.88 1086.73,-2.98002e-05 C1086.73,-284.88 600.184,-515.821 -1.41448e-05,-515.821 C-600.184,-515.821 -1086.73,-284.88 -1086.73,2.98002e-05 C-1086.73,284.88 -600.184,515.821 1.41448e-05,515.821 Z " fill="#a5a5a5" fill-opacity="1.00" filter="url(#oYl32B33)" />
    <path d="M1.41448e-05,210.952 C600.184,210.952 1086.73,-19.9893 1086.73,-304.869 C1086.73,-589.749 600.184,-820.69 -1.41448e-05,-820.69 C-600.184,-820.69 -1086.73,-589.749 -1086.73,-304.869 C-1086.73,-19.9892 -600.184,210.952 1.41448e-05,210.952 Z " fill="#4d4d4d" fill-opacity="1.00" />
    <path d="M1.59402e-05,-41.389 C424.312,-41.3891 768.284,-204.657 768.284,-406.059 C768.284,-607.46 424.312,-770.728 -1.59402e-05,-770.728 C-424.312,-770.728 -768.284,-607.46 -768.284,-406.059 C-768.284,-204.657 -424.312,-41.389 1.59402e-05,-41.389 Z " fill="#e13e3e" fill-opacity="1.00" />
    <path d="M-768.285,-406.059 L768.284,-406.059 L768.285,-768.143 L-768.284,-768.143 L-768.285,-406.059 Z " fill="#e13e3e" fill-opacity="1.00" />
    <path d="M-2.22686,-406.059 C422.085,-406.059 766.058,-569.327 766.058,-770.728 C766.058,-972.13 422.085,-1135.4 -2.22689,-1135.4 C-426.539,-1135.4 -770.511,-972.13 -770.511,-770.728 C-770.511,-569.327 -426.539,-406.059 -2.22686,-406.059 Z " fill="#bd2627" fill-opacity="1.00" />
    <path d="M-367.435,-795.709 C-326.323,-795.709 -307.138,-819.006 -307.138,-863.543 L-307.138,-958.785 C-307.138,-1003.32 -326.323,-1026.62 -367.435,-1026.62 L-402.38,-1026.62 C-409.232,-1026.62 -414.713,-1021.14 -414.713,-1014.29 L-414.713,-808.043 C-414.713,-801.191 -409.232,-795.709 -402.38,-795.709 L-367.435,-795.709 Z M-367.435,-992.702 C-349.277,-992.702 -341.74,-981.739 -341.74,-958.785 L-341.74,-863.543 C-341.74,-840.589 -349.277,-829.626 -367.435,-829.626 L-380.796,-829.626 L-380.796,-992.702 L-367.435,-992.702 Z M-261.915,-862.858 C-261.915,-835.793 -254.378,-820.034 -243.757,-809.413 C-232.452,-798.45 -218.063,-795.709 -205.729,-795.709 C-193.053,-795.709 -178.664,-798.45 -167.358,-809.413 C-156.738,-820.034 -149.543,-835.793 -149.543,-862.858 L-149.543,-959.813 C-149.543,-1003.32 -168.044,-1026.62 -205.729,-1026.62 C-243.072,-1026.62 -261.915,-1002.98 -261.915,-959.813 L-261.915,-862.858 Z M-227.655,-959.813 C-227.655,-982.082 -220.803,-992.702 -205.729,-992.702 C-190.998,-992.702 -183.803,-982.767 -183.803,-959.813 L-183.803,-862.858 C-183.803,-839.562 -191.34,-829.626 -205.729,-829.626 C-220.461,-829.626 -227.655,-840.247 -227.655,-862.858 L-227.655,-959.813 Z M84.45,-795.709 C91.302,-795.709 96.7835,-801.191 96.7835,-808.043 L96.7835,-1014.29 C96.7835,-1021.14 91.302,-1026.62 84.45,-1026.62 L74.8573,-1026.62 C68.0054,-1026.62 62.5239,-1021.14 62.5239,-1014.29 L62.5239,-901.229 L14.9029,-1019.08 C13.5326,-1022.85 8.05102,-1026.62 3.59726,-1026.62 L-4.62505,-1026.62 C-11.1344,-1026.62 -16.9585,-1021.14 -16.9585,-1014.29 L-16.9585,-808.043 C-16.9585,-801.191 -11.1344,-795.709 -4.62505,-795.709 L5.31025,-795.709 C11.8196,-795.709 17.6437,-801.191 17.6437,-808.043 L17.6437,-921.1 L65.2646,-803.246 C66.635,-799.478 72.4592,-795.709 76.5703,-795.709 L84.45,-795.709 Z M140.978,-862.858 C140.978,-835.793 148.516,-820.034 159.136,-809.413 C170.442,-798.45 184.831,-795.709 197.164,-795.709 C209.84,-795.709 224.229,-798.45 235.535,-809.413 C246.156,-820.034 253.35,-835.793 253.35,-862.858 L253.35,-959.813 C253.35,-1003.32 234.85,-1026.62 197.164,-1026.62 C159.821,-1026.62 140.978,-1002.98 140.978,-959.813 L140.978,-862.858 Z M175.238,-959.813 C175.238,-982.082 182.09,-992.702 197.164,-992.702 C211.896,-992.702 219.09,-982.767 219.09,-959.813 L219.09,-862.858 C219.09,-839.562 211.553,-829.626 197.164,-829.626 C182.433,-829.626 175.238,-840.247 175.238,-862.858 L175.238,-959.813 Z M295.832,-1005.04 C295.832,-998.184 301.314,-992.702 308.166,-992.702 L335.916,-992.702 L335.916,-808.385 C335.916,-801.533 341.397,-796.052 348.249,-796.052 L357.499,-796.052 C364.351,-796.052 369.833,-801.533 369.833,-808.385 L369.833,-992.702 L397.926,-992.702 C404.778,-992.702 410.259,-998.184 410.259,-1005.04 L410.259,-1014.63 C410.259,-1021.48 404.778,-1026.96 397.926,-1026.96 L308.166,-1026.96 C301.314,-1026.96 295.832,-1021.48 295.832,-1014.63 L295.832,-1005.04 Z M-235.021,-613.162 C-193.224,-613.162 -174.724,-635.089 -174.724,-679.283 C-174.724,-723.478 -193.224,-745.405 -235.021,-745.405 L-272.022,-745.405 C-278.874,-745.405 -284.355,-739.923 -284.355,-733.071 L-284.355,-526.828 C-284.355,-519.976 -278.874,-514.495 -272.022,-514.495 L-262.429,-514.495 C-255.92,-514.495 -250.438,-519.976 -250.438,-526.828 L-250.438,-613.162 L-235.021,-613.162 Z M-235.021,-711.488 C-216.521,-711.488 -208.984,-702.237 -208.984,-679.283 C-208.984,-657.015 -216.521,-647.079 -235.021,-647.079 L-250.438,-647.079 L-250.438,-711.488 L-235.021,-711.488 Z M-136.353,-577.532 C-136.353,-541.217 -121.279,-514.837 -80.1676,-514.837 C-40.4264,-514.837 -23.9818,-539.162 -23.9818,-577.532 L-23.9818,-733.414 C-23.9818,-740.266 -29.4633,-745.747 -36.3152,-745.747 L-45.9079,-745.747 C-52.4173,-745.747 -57.8988,-740.266 -57.8988,-733.414 L-57.8988,-577.532 C-57.8988,-561.088 -62.6952,-548.754 -80.1676,-548.754 C-96.9548,-548.754 -102.436,-559.375 -102.436,-577.532 L-102.436,-733.414 C-102.436,-740.266 -107.918,-745.747 -114.77,-745.747 L-124.363,-745.747 C-130.872,-745.747 -136.353,-740.266 -136.353,-733.414 L-136.353,-577.532 Z M15.4168,-581.643 C15.4168,-536.763 34.2597,-514.837 71.9453,-514.837 C108.261,-514.837 128.474,-535.393 128.474,-573.764 C128.474,-606.996 105.52,-624.468 82.9084,-641.94 L83.251,-641.94 C66.4637,-654.959 49.6765,-668.32 49.6765,-685.793 C49.6765,-703.608 57.5562,-711.488 71.9453,-711.488 C87.0195,-711.488 94.214,-701.21 94.214,-678.598 L94.214,-673.802 C94.214,-666.95 99.6956,-661.468 106.548,-661.468 L116.14,-661.468 C122.992,-661.468 128.474,-666.95 128.474,-673.802 L128.474,-678.598 C128.474,-722.108 108.946,-745.747 71.9453,-745.747 C35.63,-745.747 15.4168,-723.478 15.4168,-684.765 C15.4168,-650.848 39.056,-632.348 61.6674,-614.533 L61.6674,-614.875 C78.4546,-601.857 94.214,-589.181 94.214,-573.079 C94.214,-554.921 86.3343,-548.754 71.9453,-548.754 C67.1489,-548.754 61.3248,-549.439 57.5562,-553.208 C52.7599,-557.319 49.6765,-565.199 49.6765,-581.643 L49.6765,-586.097 C49.6765,-592.949 43.8524,-598.431 37.343,-598.431 L27.7503,-598.431 C20.8984,-598.431 15.4168,-592.949 15.4168,-586.097 L15.4168,-581.643 Z M203.16,-646.737 L203.16,-733.071 C203.16,-739.923 197.678,-745.405 190.826,-745.405 L181.234,-745.405 C174.382,-745.405 168.9,-739.923 168.9,-733.071 L168.9,-526.828 C168.9,-519.976 174.382,-514.495 181.234,-514.495 L190.826,-514.495 C197.678,-514.495 203.16,-519.976 203.16,-526.828 L203.16,-612.82 L241.188,-612.82 L241.188,-526.828 C241.188,-519.976 246.669,-514.495 253.521,-514.495 L263.114,-514.495 C269.966,-514.495 275.448,-519.976 275.448,-526.828 L275.448,-733.071 C275.448,-739.923 269.966,-745.405 263.114,-745.405 L253.521,-745.405 C246.669,-745.405 241.188,-739.923 241.188,-733.071 L241.188,-646.737 L203.16,-646.737 Z " fill="#000000" fill-opacity="1.00" />
  </g>
</svg>