<?xml version="1.0" encoding="utf-8" ?>
<!-- Generator: Assembly 2.4 - http://assemblyapp.co -->
<svg version="1.1" xmlns="http://www.w3.org/2000/svg" xmlns:xlink="http://www.w3.org/1999/xlink" width="4096.00" height="4096.00" viewBox="0 0 4096.0 2048.0">
  <g id="document" transform="scale(1.0 1.0) translate(2048.0 2048.0)">
    <path d="M-1086.73,-3.53222e-06 L1086.73,-2.94505e-05 L1086.73,-289.185 L-1086.73,-289.185 L-1086.73,-3.53222e-06 Z " fill="#a5a5a5" fill-opacity="1.00" />
    <defs>
      <filter id="qM75Gl8F" x="0.00%" y="0.00%" width="103.17%" height="112.74%" filterUnits="objectBoundingBox">
        <feOffset dx="68.86" dy="131.46" in="SourceAlpha" result="shadowOffsetOuter1" />
        <feGaussianBlur stdDeviation="0.00" in="shadowOffsetOuter1" result="shadowBlurOuter1" />
        <feFlood flood-color="#000000" flood-opacity="0.09" />
        <feComposite in2="shadowBlurOuter1" operator="in" />
        <feMerge>
          <feMergeNode />
          <feMergeNode in="SourceGraphic" />
        </feMerge>
      </filter>
    </defs>
    <path d="M1.41448e-05,515.821 C600.184,515.821 1086.73,284.88 1086.73,-2.98002e-05 C1086.73,-284.88 600.184,-515.821 -1.41448e-05,-515.821 C-600.184,-515.821 -1086.73,-284.88 -1086.73,2.98002e-05 C-1086.73,284.88 -600.184,515.821 1.41448e-05,515.821 Z " fill="#a5a5a5" fill-opacity="1.00" filter="url(#qM75Gl8F)" />
    <path d="M1.41448e-05,210.952 C600.184,210.952 1086.73,-19.9893 1086.73,-304.869 C1086.73,-589.749 600.184,-820.69 -1.41448e-05,-820.69 C-600.184,-820.69 -1086.73,-589.749 -1086.73,-304.869 C-1086.73,-19.9892 -600.184,210.952 1.41448e-05,210.952 Z " fill="#4d4d4d" fill-opacity="1.00" />
    <path d="M1.59402e-05,-41.389 C424.312,-41.3891 768.284,-204.657 768.284,-406.059 C768.284,-607.46 424.312,-770.728 -1.59402e-05,-770.728 C-424.312,-770.728 -768.284,-607.46 -768.284,-406.059 C-768.284,-204.657 -424.312,-41.389 1.59402e-05,-41.389 Z " fill="#e13e3e" fill-opacity="1.00" />
    <path d="M-768.285,-406.059 L768.284,-406.059 L768.284,-610.787 L-768.284,-610.787 L-768.285,-406.059 Z " fill="#e13e3e" fill-opacity="1.00" />
    <path d="M1.59402e-05,-271.098 C424.312,-271.098 768.284,-434.367 768.284,-635.768 C768.284,-837.169 424.312,-1000.44 -1.59402e-05,-1000.44 C-424.312,-1000.44 -768.284,-837.169 -768.284,-635.768 C-768.284,-434.366 -424.312,-271.098 1.59402e-05,-271.098 Z " fill="#bd2627" fill-opacity="1.00" />
    <path d="M-362.981,-635.768 C-321.869,-635.768 -302.684,-659.065 -302.684,-703.602 L-302.684,-798.844 C-302.684,-843.381 -321.869,-866.678 -362.981,-866.678 L-397.926,-866.678 C-404.778,-866.678 -410.259,-861.196 -410.259,-854.345 L-410.259,-648.101 C-410.259,-641.25 -404.778,-635.768 -397.926,-635.768 L-362.981,-635.768 Z M-362.981,-832.761 C-344.823,-832.761 -337.286,-821.798 -337.286,-798.844 L-337.286,-703.602 C-337.286,-680.648 -344.823,-669.685 -362.981,-669.685 L-376.342,-669.685 L-376.342,-832.761 L-362.981,-832.761 Z M-257.461,-702.917 C-257.461,-675.852 -249.924,-660.092 -239.304,-649.472 C-227.998,-638.509 -213.609,-635.768 -201.275,-635.768 C-188.599,-635.768 -174.21,-638.509 -162.905,-649.472 C-152.284,-660.092 -145.09,-675.852 -145.09,-702.917 L-145.09,-799.872 C-145.09,-843.381 -163.59,-866.678 -201.275,-866.678 C-238.618,-866.678 -257.461,-843.039 -257.461,-799.872 L-257.461,-702.917 Z M-223.202,-799.872 C-223.202,-822.14 -216.35,-832.761 -201.275,-832.761 C-186.544,-832.761 -179.349,-822.826 -179.349,-799.872 L-179.349,-702.917 C-179.349,-679.62 -186.886,-669.685 -201.275,-669.685 C-216.007,-669.685 -223.202,-680.306 -223.202,-702.917 L-223.202,-799.872 Z M88.9038,-635.768 C95.7557,-635.768 101.237,-641.25 101.237,-648.101 L101.237,-854.345 C101.237,-861.196 95.7557,-866.678 88.9038,-866.678 L79.3111,-866.678 C72.4592,-866.678 66.9776,-861.196 66.9776,-854.345 L66.9776,-741.288 L19.3567,-859.141 C17.9863,-862.909 12.5048,-866.678 8.05102,-866.678 L-0.171298,-866.678 C-6.68063,-866.678 -12.5048,-861.196 -12.5048,-854.345 L-12.5048,-648.101 C-12.5048,-641.25 -6.68063,-635.768 -0.171298,-635.768 L9.764,-635.768 C16.2733,-635.768 22.0975,-641.25 22.0975,-648.101 L22.0975,-761.158 L69.7184,-643.305 C71.0888,-639.537 76.9129,-635.768 81.0241,-635.768 L88.9038,-635.768 Z M145.432,-702.917 C145.432,-675.852 152.969,-660.092 163.59,-649.472 C174.896,-638.509 189.285,-635.768 201.618,-635.768 C214.294,-635.768 228.683,-638.509 239.989,-649.472 C250.609,-660.092 257.804,-675.852 257.804,-702.917 L257.804,-799.872 C257.804,-843.381 239.304,-866.678 201.618,-866.678 C164.275,-866.678 145.432,-843.039 145.432,-799.872 L145.432,-702.917 Z M179.692,-799.872 C179.692,-822.14 186.544,-832.761 201.618,-832.761 C216.35,-832.761 223.544,-822.826 223.544,-799.872 L223.544,-702.917 C223.544,-679.62 216.007,-669.685 201.618,-669.685 C186.886,-669.685 179.692,-680.306 179.692,-702.917 L179.692,-799.872 Z M300.286,-845.094 C300.286,-838.243 305.767,-832.761 312.619,-832.761 L340.37,-832.761 L340.37,-648.444 C340.37,-641.592 345.851,-636.111 352.703,-636.111 L361.953,-636.111 C368.805,-636.111 374.287,-641.592 374.287,-648.444 L374.287,-832.761 L402.38,-832.761 C409.232,-832.761 414.713,-838.243 414.713,-845.094 L414.713,-854.687 C414.713,-861.539 409.232,-867.021 402.38,-867.021 L312.619,-867.021 C305.767,-867.021 300.286,-861.539 300.286,-854.687 L300.286,-845.094 Z M-230.567,-453.221 C-188.771,-453.221 -170.27,-475.147 -170.27,-519.342 C-170.27,-563.537 -188.771,-585.463 -230.567,-585.463 L-267.568,-585.463 C-274.42,-585.463 -279.901,-579.982 -279.901,-573.13 L-279.901,-366.887 C-279.901,-360.035 -274.42,-354.553 -267.568,-354.553 L-257.975,-354.553 C-251.466,-354.553 -245.984,-360.035 -245.984,-366.887 L-245.984,-453.221 L-230.567,-453.221 Z M-230.567,-551.546 C-212.067,-551.546 -204.53,-542.296 -204.53,-519.342 C-204.53,-497.073 -212.067,-487.138 -230.567,-487.138 L-245.984,-487.138 L-245.984,-551.546 L-230.567,-551.546 Z M-131.9,-417.591 C-131.9,-381.276 -116.825,-354.896 -75.7138,-354.896 C-35.9726,-354.896 -19.528,-379.22 -19.528,-417.591 L-19.528,-573.472 C-19.528,-580.324 -25.0095,-585.806 -31.8615,-585.806 L-41.4542,-585.806 C-47.9635,-585.806 -53.4451,-580.324 -53.4451,-573.472 L-53.4451,-417.591 C-53.4451,-401.146 -58.2414,-388.813 -75.7138,-388.813 C-92.5011,-388.813 -97.9826,-399.433 -97.9826,-417.591 L-97.9826,-573.472 C-97.9826,-580.324 -103.464,-585.806 -110.316,-585.806 L-119.909,-585.806 C-126.418,-585.806 -131.9,-580.324 -131.9,-573.472 L-131.9,-417.591 Z M19.8706,-421.702 C19.8706,-376.822 38.7134,-354.896 76.399,-354.896 C112.714,-354.896 132.927,-375.452 132.927,-413.823 C132.927,-447.054 109.973,-464.527 87.3621,-481.999 L87.7047,-481.999 C70.9175,-495.018 54.1303,-508.379 54.1303,-525.852 C54.1303,-543.667 62.01,-551.546 76.399,-551.546 C91.4733,-551.546 98.6678,-541.268 98.6678,-518.657 L98.6678,-513.861 C98.6678,-507.009 104.149,-501.527 111.001,-501.527 L120.594,-501.527 C127.446,-501.527 132.927,-507.009 132.927,-513.861 L132.927,-518.657 C132.927,-562.167 113.399,-585.806 76.399,-585.806 C40.0838,-585.806 19.8706,-563.537 19.8706,-524.824 C19.8706,-490.907 43.5098,-472.407 66.1211,-454.591 L66.1211,-454.934 C82.9084,-441.915 98.6678,-429.239 98.6678,-413.137 C98.6678,-394.98 90.7881,-388.813 76.399,-388.813 C71.6027,-388.813 65.7785,-389.498 62.01,-393.267 C57.2136,-397.378 54.1303,-405.258 54.1303,-421.702 L54.1303,-426.156 C54.1303,-433.008 48.3061,-438.489 41.7968,-438.489 L32.2041,-438.489 C25.3521,-438.489 19.8706,-433.008 19.8706,-426.156 L19.8706,-421.702 Z M207.613,-486.796 L207.613,-573.13 C207.613,-579.982 202.132,-585.463 195.28,-585.463 L185.687,-585.463 C178.835,-585.463 173.354,-579.982 173.354,-573.13 L173.354,-366.887 C173.354,-360.035 178.835,-354.553 185.687,-354.553 L195.28,-354.553 C202.132,-354.553 207.613,-360.035 207.613,-366.887 L207.613,-452.879 L245.642,-452.879 L245.642,-366.887 C245.642,-360.035 251.123,-354.553 257.975,-354.553 L267.568,-354.553 C274.42,-354.553 279.901,-360.035 279.901,-366.887 L279.901,-573.13 C279.901,-579.982 274.42,-585.463 267.568,-585.463 L257.975,-585.463 C251.123,-585.463 245.642,-579.982 245.642,-573.13 L245.642,-486.796 L207.613,-486.796 Z " fill="#000000" fill-opacity="1.00" />
  </g>
</svg>