<?xml version="1.0" encoding="utf-8" ?>
<!-- Generator: Assembly 2.4 - http://assemblyapp.co -->
<svg version="1.1" xmlns="http://www.w3.org/2000/svg" xmlns:xlink="http://www.w3.org/1999/xlink" width="4096.00" height="4096.00" viewBox="0 0 4096.0 2048.0">
  <g id="document" transform="scale(1.0 1.0) translate(2048.0 2048.0)">
    <defs>
      <filter id="CtqFrIWM" x="0.00%" y="0.00%" width="103.17%" height="112.74%" filterUnits="objectBoundingBox">
        <feOffset dx="68.86" dy="131.46" in="SourceAlpha" result="shadowOffsetOuter1" />
        <feGaussianBlur stdDeviation="0.00" in="shadowOffsetOuter1" result="shadowBlurOuter1" />
        <feFlood flood-color="#000000" flood-opacity="0.09" />
        <feComposite in2="shadowBlurOuter1" operator="in" />
        <feMerge>
          <feMergeNode />
          <feMergeNode in="SourceGraphic" />
        </feMerge>
      </filter>
    </defs>
    <path d="M1.41448e-05,515.821 C600.184,515.821 1086.73,284.88 1086.73,-2.98002e-05 C1086.73,-284.88 600.184,-515.821 -1.41448e-05,-515.821 C-600.184,-515.821 -1086.73,-284.88 -1086.73,2.98002e-05 C-1086.73,284.88 -600.184,515.821 1.41448e-05,515.821 Z " fill="#a5a5a5" fill-opacity="1.00" filter="url(#CtqFrIWM)" />
    <path d="M-1086.73,-3.53222e-06 L1086.73,-2.94505e-05 L1086.73,-289.185 L-1086.73,-289.185 L-1086.73,-3.53222e-06 Z " fill="#a5a5a5" fill-opacity="1.00" />
    <path d="M1.41448e-05,515.821 C600.184,515.821 1086.73,284.88 1086.73,-2.98002e-05 C1086.73,-284.88 600.184,-515.821 -1.41448e-05,-515.821 C-600.184,-515.821 -1086.73,-284.88 -1086.73,2.98002e-05 C-1086.73,284.88 -600.184,515.821 1.41448e-05,515.821 Z " fill="#a5a5a5" fill-opacity="1.00" />
    <path d="M1.41448e-05,210.952 C600.184,210.952 1086.73,-19.9893 1086.73,-304.869 C1086.73,-589.749 600.184,-820.69 -1.41448e-05,-820.69 C-600.184,-820.69 -1086.73,-589.749 -1086.73,-304.869 C-1086.73,-19.9892 -600.184,210.952 1.41448e-05,210.952 Z " fill="#4d4d4d" fill-opacity="1.00" />
    <path d="M1.59402e-05,-41.389 C424.312,-41.3891 768.284,-204.657 768.284,-406.059 C768.284,-607.46 424.312,-770.728 -1.59402e-05,-770.728 C-424.312,-770.728 -768.284,-607.46 -768.284,-406.059 C-768.284,-204.657 -424.312,-41.389 1.59402e-05,-41.389 Z " fill="#e13e3e" fill-opacity="1.00" />
    <path d="M1.59402e-05,-91.351 C424.312,-91.351 768.284,-254.619 768.284,-456.021 C768.284,-657.422 424.312,-820.69 -1.59402e-05,-820.69 C-424.312,-820.69 -768.284,-657.422 -768.284,-456.021 C-768.284,-254.619 -424.312,-91.351 1.59402e-05,-91.351 Z " fill="#bd2627" fill-opacity="1.00" />
    <path d="M-336.658,-481.002 C-295.547,-481.002 -276.361,-504.298 -276.361,-548.836 L-276.361,-644.078 C-276.361,-688.615 -295.547,-711.912 -336.658,-711.912 L-371.603,-711.912 C-378.455,-711.912 -383.937,-706.43 -383.937,-699.578 L-383.937,-493.335 C-383.937,-486.483 -378.455,-481.002 -371.603,-481.002 L-336.658,-481.002 Z M-336.658,-677.995 C-318.501,-677.995 -310.963,-667.032 -310.963,-644.078 L-310.963,-548.836 C-310.963,-525.882 -318.501,-514.919 -336.658,-514.919 L-350.019,-514.919 L-350.019,-677.995 L-336.658,-677.995 Z M-242.558,-548.151 C-242.558,-521.085 -235.021,-505.326 -224.401,-494.705 C-213.095,-483.742 -198.706,-481.002 -186.373,-481.002 C-173.696,-481.002 -159.307,-483.742 -148.002,-494.705 C-137.381,-505.326 -130.187,-521.085 -130.187,-548.151 L-130.187,-645.105 C-130.187,-688.615 -148.687,-711.912 -186.373,-711.912 C-223.716,-711.912 -242.558,-688.273 -242.558,-645.105 L-242.558,-548.151 Z M-208.299,-645.105 C-208.299,-667.374 -201.447,-677.995 -186.373,-677.995 C-171.641,-677.995 -164.446,-668.059 -164.446,-645.105 L-164.446,-548.151 C-164.446,-524.854 -171.983,-514.919 -186.373,-514.919 C-201.104,-514.919 -208.299,-525.539 -208.299,-548.151 L-208.299,-645.105 Z M80.967,-481.002 C87.8189,-481.002 93.3005,-486.483 93.3005,-493.335 L93.3005,-699.578 C93.3005,-706.43 87.8189,-711.912 80.967,-711.912 L71.3743,-711.912 C64.5223,-711.912 59.0408,-706.43 59.0408,-699.578 L59.0408,-586.521 L11.4199,-704.375 C10.0495,-708.143 4.56795,-711.912 0.114199,-711.912 L-8.10812,-711.912 C-14.6175,-711.912 -20.4416,-706.43 -20.4416,-699.578 L-20.4416,-493.335 C-20.4416,-486.483 -14.6175,-481.002 -8.10812,-481.002 L1.82718,-481.002 C8.33652,-481.002 14.1607,-486.483 14.1607,-493.335 L14.1607,-606.392 L61.7816,-488.539 C63.152,-484.77 68.9761,-481.002 73.0873,-481.002 L80.967,-481.002 Z M126.076,-548.151 C126.076,-521.085 133.613,-505.326 144.233,-494.705 C155.539,-483.742 169.928,-481.002 182.261,-481.002 C194.937,-481.002 209.326,-483.742 220.632,-494.705 C231.253,-505.326 238.447,-521.085 238.447,-548.151 L238.447,-645.105 C238.447,-688.615 219.947,-711.912 182.261,-711.912 C144.918,-711.912 126.076,-688.273 126.076,-645.105 L126.076,-548.151 Z M160.335,-645.105 C160.335,-667.374 167.187,-677.995 182.261,-677.995 C196.993,-677.995 204.188,-668.059 204.188,-645.105 L204.188,-548.151 C204.188,-524.854 196.65,-514.919 182.261,-514.919 C167.53,-514.919 160.335,-525.539 160.335,-548.151 L160.335,-645.105 Z M269.509,-690.328 C269.509,-683.476 274.991,-677.995 281.843,-677.995 L309.593,-677.995 L309.593,-493.678 C309.593,-486.826 315.075,-481.344 321.927,-481.344 L331.177,-481.344 C338.029,-481.344 343.51,-486.826 343.51,-493.678 L343.51,-677.995 L371.603,-677.995 C378.455,-677.995 383.937,-683.476 383.937,-690.328 L383.937,-699.921 C383.937,-706.773 378.455,-712.254 371.603,-712.254 L281.843,-712.254 C274.991,-712.254 269.509,-706.773 269.509,-699.921 L269.509,-690.328 Z M-215.665,-298.455 C-173.868,-298.455 -155.368,-320.381 -155.368,-364.576 C-155.368,-408.771 -173.868,-430.697 -215.665,-430.697 L-252.665,-430.697 C-259.517,-430.697 -264.998,-425.215 -264.998,-418.364 L-264.998,-212.12 C-264.998,-205.269 -259.517,-199.787 -252.665,-199.787 L-243.072,-199.787 C-236.563,-199.787 -231.081,-205.269 -231.081,-212.12 L-231.081,-298.455 L-215.665,-298.455 Z M-215.665,-396.78 C-197.164,-396.78 -189.627,-387.53 -189.627,-364.576 C-189.627,-342.307 -197.164,-332.372 -215.665,-332.372 L-231.081,-332.372 L-231.081,-396.78 L-215.665,-396.78 Z M-128.417,-262.825 C-128.417,-226.509 -113.342,-200.13 -72.2308,-200.13 C-32.4896,-200.13 -16.0449,-224.454 -16.0449,-262.825 L-16.0449,-418.706 C-16.0449,-425.558 -21.5265,-431.04 -28.3784,-431.04 L-37.9711,-431.04 C-44.4804,-431.04 -49.962,-425.558 -49.962,-418.706 L-49.962,-262.825 C-49.962,-246.38 -54.7583,-234.047 -72.2308,-234.047 C-89.018,-234.047 -94.4995,-244.667 -94.4995,-262.825 L-94.4995,-418.706 C-94.4995,-425.558 -99.9811,-431.04 -106.833,-431.04 L-116.426,-431.04 C-122.935,-431.04 -128.417,-425.558 -128.417,-418.706 L-128.417,-262.825 Z M11.9338,-266.936 C11.9338,-222.056 30.7766,-200.13 68.4622,-200.13 C104.777,-200.13 124.991,-220.685 124.991,-259.056 C124.991,-292.288 102.037,-309.76 79.4253,-327.233 L79.7679,-327.233 C62.9807,-340.252 46.1934,-353.613 46.1934,-371.085 C46.1934,-388.9 54.0732,-396.78 68.4622,-396.78 C83.5365,-396.78 90.731,-386.502 90.731,-363.891 L90.731,-359.094 C90.731,-352.242 96.2125,-346.761 103.064,-346.761 L112.657,-346.761 C119.509,-346.761 124.991,-352.242 124.991,-359.094 L124.991,-363.891 C124.991,-407.4 105.463,-431.04 68.4622,-431.04 C32.147,-431.04 11.9338,-408.771 11.9338,-370.057 C11.9338,-336.14 35.5729,-317.64 58.1843,-299.825 L58.1843,-300.168 C74.9715,-287.149 90.731,-274.473 90.731,-258.371 C90.731,-240.213 82.8513,-234.047 68.4622,-234.047 C63.6659,-234.047 57.8417,-234.732 54.0732,-238.5 C49.2768,-242.612 46.1934,-250.491 46.1934,-266.936 L46.1934,-271.39 C46.1934,-278.242 40.3693,-283.723 33.86,-283.723 L24.2673,-283.723 C17.4153,-283.723 11.9338,-278.242 11.9338,-271.39 L11.9338,-266.936 Z M188.257,-332.029 L188.257,-418.364 C188.257,-425.215 182.775,-430.697 175.923,-430.697 L166.331,-430.697 C159.479,-430.697 153.997,-425.215 153.997,-418.364 L153.997,-212.12 C153.997,-205.269 159.479,-199.787 166.331,-199.787 L175.923,-199.787 C182.775,-199.787 188.257,-205.269 188.257,-212.12 L188.257,-298.112 L226.285,-298.112 L226.285,-212.12 C226.285,-205.269 231.767,-199.787 238.618,-199.787 L248.211,-199.787 C255.063,-199.787 260.545,-205.269 260.545,-212.12 L260.545,-418.364 C260.545,-425.215 255.063,-430.697 248.211,-430.697 L238.618,-430.697 C231.767,-430.697 226.285,-425.215 226.285,-418.364 L226.285,-332.029 L188.257,-332.029 Z " fill="#000000" fill-opacity="1.00" />
  </g>
</svg>