<?xml version="1.0" encoding="UTF-8" standalone="no"?>
<!DOCTYPE svg PUBLIC "-//W3C//DTD SVG 1.1//EN" "http://www.w3.org/Graphics/SVG/1.1/DTD/svg11.dtd">
<svg xmlns="http://www.w3.org/2000/svg" version="1.1" viewBox="0.00 0.00 390.00 443.00">
<g stroke-width="2.00" fill="none" stroke-linecap="butt">
<path stroke="#777878" vector-effect="non-scaling-stroke" d="
  M 192.79 133.34
  Q 193.01 133.97 193.41 134.34
  Q 206.13 146.25 212.27 161.48
  Q 215.29 168.96 218.69 184.80
  C 219.26 187.45 219.03 190.25 219.45 192.77
  A 1.51 1.50 87.1 0 0 220.83 194.02
  Q 224.70 194.28 228.64 194.03
  C 231.07 193.87 231.69 192.97 233.20 190.97
  C 243.20 177.68 251.23 163.51 245.35 146.29
  C 240.80 132.95 227.21 126.44 213.67 126.66
  Q 202.96 126.83 193.05 132.62
  A 0.60 0.60 0.0 0 0 192.79 133.34"
/>
<path stroke="#777878" vector-effect="non-scaling-stroke" d="
  M 203.35 194.29
  C 204.00 189.71 203.19 186.75 202.20 180.87
  C 198.93 161.55 185.85 143.37 167.04 136.42
  C 157.16 132.76 144.94 130.81 134.63 132.95
  C 120.94 135.80 109.75 143.41 101.72 154.49
  Q 93.61 165.68 92.27 177.71
  C 89.79 200.14 104.32 216.26 121.07 228.17
  C 123.73 230.06 125.59 231.82 128.18 229.48
  C 131.27 226.70 133.96 224.01 137.37 221.66
  Q 150.91 212.30 165.91 206.66
  Q 168.72 205.60 181.39 200.98
  Q 186.80 199.00 191.76 198.03
  Q 199.08 196.59 202.32 195.52
  A 1.54 1.51 85.4 0 0 203.35 194.29"
/>
<path stroke="#80642a" vector-effect="non-scaling-stroke" d="
  M 228.56 208.00
  A 3.25 3.23 -64.6 0 0 225.48 209.11
  Q 223.79 211.14 222.78 213.54
  C 220.07 219.96 218.30 225.13 217.35 231.57
  C 213.47 257.90 223.49 287.61 242.86 305.89
  Q 243.76 306.75 246.02 308.19
  A 1.35 1.35 0.0 0 0 246.99 308.37
  Q 248.80 308.00 250.10 307.35
  C 269.33 297.79 283.93 284.30 289.97 263.29
  Q 294.50 247.52 285.80 234.74
  Q 279.25 225.13 272.92 221.12
  Q 265.45 216.40 256.01 213.26
  Q 251.46 211.75 242.28 210.37
  Q 236.76 209.55 228.56 208.00"
/>
<path stroke="#131313" vector-effect="non-scaling-stroke" d="
  M 234.32 312.91
  Q 230.86 310.35 228.01 306.47
  C 222.52 299.01 216.93 290.35 213.39 281.78
  Q 203.61 258.07 206.17 231.81
  C 206.48 228.65 207.50 226.22 207.82 223.51
  C 208.31 219.32 210.31 214.23 212.06 210.74
  A 0.90 0.90 0.0 0 0 211.13 209.45
  Q 193.79 211.96 177.71 218.73
  Q 175.05 219.85 173.85 221.87
  Q 169.61 228.95 167.26 237.68
  C 165.77 243.23 165.73 248.56 164.85 253.51
  Q 163.85 259.22 164.32 265.52
  Q 165.62 282.83 173.40 298.09
  Q 177.99 307.07 184.64 315.90
  Q 186.35 318.17 189.23 320.59
  A 2.31 2.25 -15.8 0 0 190.10 321.06
  Q 192.72 321.82 194.52 321.57
  Q 201.33 320.62 205.66 320.57
  Q 205.67 320.57 205.69 320.57
  L 223.34 317.38
  A 1.98 1.57 -51.5 0 0 223.60 317.32
  L 234.16 313.88
  A 0.55 0.55 0.0 0 0 234.32 312.91"
/>
<path stroke="#80642a" vector-effect="non-scaling-stroke" d="
  M 173.44 320.11
  C 163.61 305.14 156.11 290.44 154.33 272.47
  C 152.86 257.70 154.07 242.08 158.75 228.02
  A 0.60 0.59 -5.6 0 0 157.89 227.32
  Q 152.14 230.54 145.59 235.34
  Q 141.51 238.33 131.04 249.43
  A 15.90 15.83 -11.7 0 0 128.01 254.02
  Q 126.80 256.79 122.63 264.35
  C 120.16 268.84 118.61 273.39 117.60 277.58
  C 115.08 288.09 121.77 297.66 128.73 304.75
  C 136.09 312.25 148.39 316.42 158.70 318.71
  C 163.52 319.78 168.44 320.92 173.17 320.64
  A 0.35 0.34 -18.3 0 0 173.44 320.11"
/>
<path stroke="#80642a" vector-effect="non-scaling-stroke" d="
  M 269.74 241.25
  A 5.96 5.96 0.0 0 0 263.78 235.29
  A 5.96 5.96 0.0 0 0 257.82 241.25
  A 5.96 5.96 0.0 0 0 263.78 247.21
  A 5.96 5.96 0.0 0 0 269.74 241.25"
/>
<path stroke="#f6dba2" vector-effect="non-scaling-stroke" d="
  M 285.22 251.22
  A 3.13 3.13 0.0 0 0 282.09 248.09
  A 3.13 3.13 0.0 0 0 278.96 251.22
  A 3.13 3.13 0.0 0 0 282.09 254.35
  A 3.13 3.13 0.0 0 0 285.22 251.22"
/>
<path stroke="#f6dba2" vector-effect="non-scaling-stroke" d="
  M 281.42 260.41
  A 3.73 3.73 0.0 0 0 276.62 262.41
  Q 272.66 271.61 267.86 277.12
  Q 263.92 281.65 249.03 295.66
  A 3.67 3.67 0.0 0 0 248.56 300.49
  L 248.63 300.59
  A 3.08 3.07 52.1 0 0 253.11 301.15
  Q 262.25 293.50 270.70 284.96
  Q 279.39 276.19 283.66 265.09
  A 3.57 3.56 21.3 0 0 281.63 260.49
  L 281.42 260.41"
/>
</g>
<path fill="#000000" d="
  M 249.49 196.23
  Q 251.66 197.09 259.17 198.91
  C 276.30 203.06 290.86 213.54 300.07 228.40
  C 309.04 242.88 308.26 261.78 301.62 277.39
  Q 292.02 299.97 270.24 313.75
  Q 253.05 324.62 233.49 330.21
  Q 231.82 330.69 219.47 333.77
  Q 216.31 334.56 212.95 334.66
  Q 209.62 334.76 206.52 335.90
  A 6.01 5.98 35.7 0 1 204.16 336.28
  C 200.51 336.14 196.99 337.01 193.52 337.13
  Q 174.65 337.77 157.57 334.09
  C 145.02 331.39 133.63 327.93 123.71 320.07
  Q 118.62 316.04 109.18 305.95
  A 1.85 1.82 76.1 0 0 108.37 305.45
  Q 106.36 304.85 104.26 304.88
  Q 96.42 305.02 92.00 304.57
  C 90.27 304.40 88.71 303.09 88.09 301.34
  C 85.14 293.13 93.42 291.03 99.68 287.94
  C 101.63 286.98 102.17 284.85 102.15 282.48
  C 102.08 275.91 103.34 267.37 106.68 261.39
  C 108.46 258.21 109.89 253.87 112.17 250.44
  Q 113.16 248.95 116.04 245.54
  A 1.52 1.51 -52.4 0 0 115.76 243.32
  Q 109.00 238.55 104.42 234.84
  C 93.51 226.03 82.93 213.03 79.18 199.11
  Q 72.93 175.87 83.52 154.30
  C 90.62 139.86 102.29 128.25 117.50 122.15
  Q 131.72 116.44 146.02 117.17
  Q 162.66 118.02 177.81 124.54
  A 1.37 1.36 33.9 0 0 179.31 124.25
  Q 184.78 118.84 192.65 115.95
  Q 201.68 112.64 210.74 111.44
  Q 213.89 111.02 218.25 111.61
  Q 229.67 113.16 239.54 117.98
  C 258.95 127.45 266.15 150.37 261.26 170.61
  Q 257.92 184.43 249.22 195.23
  A 0.65 0.64 30.4 0 0 249.49 196.23
  Z
  M 192.79 133.34
  Q 193.01 133.97 193.41 134.34
  Q 206.13 146.25 212.27 161.48
  Q 215.29 168.96 218.69 184.80
  C 219.26 187.45 219.03 190.25 219.45 192.77
  A 1.51 1.50 87.1 0 0 220.83 194.02
  Q 224.70 194.28 228.64 194.03
  C 231.07 193.87 231.69 192.97 233.20 190.97
  C 243.20 177.68 251.23 163.51 245.35 146.29
  C 240.80 132.95 227.21 126.44 213.67 126.66
  Q 202.96 126.83 193.05 132.62
  A 0.60 0.60 0.0 0 0 192.79 133.34
  Z
  M 203.35 194.29
  C 204.00 189.71 203.19 186.75 202.20 180.87
  C 198.93 161.55 185.85 143.37 167.04 136.42
  C 157.16 132.76 144.94 130.81 134.63 132.95
  C 120.94 135.80 109.75 143.41 101.72 154.49
  Q 93.61 165.68 92.27 177.71
  C 89.79 200.14 104.32 216.26 121.07 228.17
  C 123.73 230.06 125.59 231.82 128.18 229.48
  C 131.27 226.70 133.96 224.01 137.37 221.66
  Q 150.91 212.30 165.91 206.66
  Q 168.72 205.60 181.39 200.98
  Q 186.80 199.00 191.76 198.03
  Q 199.08 196.59 202.32 195.52
  A 1.54 1.51 85.4 0 0 203.35 194.29
  Z
  M 228.56 208.00
  A 3.25 3.23 -64.6 0 0 225.48 209.11
  Q 223.79 211.14 222.78 213.54
  C 220.07 219.96 218.30 225.13 217.35 231.57
  C 213.47 257.90 223.49 287.61 242.86 305.89
  Q 243.76 306.75 246.02 308.19
  A 1.35 1.35 0.0 0 0 246.99 308.37
  Q 248.80 308.00 250.10 307.35
  C 269.33 297.79 283.93 284.30 289.97 263.29
  Q 294.50 247.52 285.80 234.74
  Q 279.25 225.13 272.92 221.12
  Q 265.45 216.40 256.01 213.26
  Q 251.46 211.75 242.28 210.37
  Q 236.76 209.55 228.56 208.00
  Z
  M 234.32 312.91
  Q 230.86 310.35 228.01 306.47
  C 222.52 299.01 216.93 290.35 213.39 281.78
  Q 203.61 258.07 206.17 231.81
  C 206.48 228.65 207.50 226.22 207.82 223.51
  C 208.31 219.32 210.31 214.23 212.06 210.74
  A 0.90 0.90 0.0 0 0 211.13 209.45
  Q 193.79 211.96 177.71 218.73
  Q 175.05 219.85 173.85 221.87
  Q 169.61 228.95 167.26 237.68
  C 165.77 243.23 165.73 248.56 164.85 253.51
  Q 163.85 259.22 164.32 265.52
  Q 165.62 282.83 173.40 298.09
  Q 177.99 307.07 184.64 315.90
  Q 186.35 318.17 189.23 320.59
  A 2.31 2.25 -15.8 0 0 190.10 321.06
  Q 192.72 321.82 194.52 321.57
  Q 201.33 320.62 205.66 320.57
  Q 205.67 320.57 205.69 320.57
  L 223.34 317.38
  A 1.98 1.57 -51.5 0 0 223.60 317.32
  L 234.16 313.88
  A 0.55 0.55 0.0 0 0 234.32 312.91
  Z
  M 173.44 320.11
  C 163.61 305.14 156.11 290.44 154.33 272.47
  C 152.86 257.70 154.07 242.08 158.75 228.02
  A 0.60 0.59 -5.6 0 0 157.89 227.32
  Q 152.14 230.54 145.59 235.34
  Q 141.51 238.33 131.04 249.43
  A 15.90 15.83 -11.7 0 0 128.01 254.02
  Q 126.80 256.79 122.63 264.35
  C 120.16 268.84 118.61 273.39 117.60 277.58
  C 115.08 288.09 121.77 297.66 128.73 304.75
  C 136.09 312.25 148.39 316.42 158.70 318.71
  C 163.52 319.78 168.44 320.92 173.17 320.64
  A 0.35 0.34 -18.3 0 0 173.44 320.11
  Z"
/>
<path fill="#edefef" d="
  M 192.79 133.34
  A 0.60 0.60 0.0 0 1 193.05 132.62
  Q 202.96 126.83 213.67 126.66
  C 227.21 126.44 240.80 132.95 245.35 146.29
  C 251.23 163.51 243.20 177.68 233.20 190.97
  C 231.69 192.97 231.07 193.87 228.64 194.03
  Q 224.70 194.28 220.83 194.02
  A 1.51 1.50 87.1 0 1 219.45 192.77
  C 219.03 190.25 219.26 187.45 218.69 184.80
  Q 215.29 168.96 212.27 161.48
  Q 206.13 146.25 193.41 134.34
  Q 193.01 133.97 192.79 133.34
  Z"
/>
<path fill="#edefef" d="
  M 203.35 194.29
  A 1.54 1.51 85.4 0 1 202.32 195.52
  Q 199.08 196.59 191.76 198.03
  Q 186.80 199.00 181.39 200.98
  Q 168.72 205.60 165.91 206.66
  Q 150.91 212.30 137.37 221.66
  C 133.96 224.01 131.27 226.70 128.18 229.48
  C 125.59 231.82 123.73 230.06 121.07 228.17
  C 104.32 216.26 89.79 200.14 92.27 177.71
  Q 93.61 165.68 101.72 154.49
  C 109.75 143.41 120.94 135.80 134.63 132.95
  C 144.94 130.81 157.16 132.76 167.04 136.42
  C 185.85 143.37 198.93 161.55 202.20 180.87
  C 203.19 186.75 204.00 189.71 203.35 194.29
  Z"
/>
<path fill="#ffc754" d="
  M 228.56 208.00
  Q 236.76 209.55 242.28 210.37
  Q 251.46 211.75 256.01 213.26
  Q 265.45 216.40 272.92 221.12
  Q 279.25 225.13 285.80 234.74
  Q 294.50 247.52 289.97 263.29
  C 283.93 284.30 269.33 297.79 250.10 307.35
  Q 248.80 308.00 246.99 308.37
  A 1.35 1.35 0.0 0 1 246.02 308.19
  Q 243.76 306.75 242.86 305.89
  C 223.49 287.61 213.47 257.90 217.35 231.57
  C 218.30 225.13 220.07 219.96 222.78 213.54
  Q 223.79 211.14 225.48 209.11
  A 3.25 3.23 -64.6 0 1 228.56 208.00
  Z
  M 269.74 241.25
  A 5.96 5.96 0.0 0 0 263.78 235.29
  A 5.96 5.96 0.0 0 0 257.82 241.25
  A 5.96 5.96 0.0 0 0 263.78 247.21
  A 5.96 5.96 0.0 0 0 269.74 241.25
  Z
  M 285.22 251.22
  A 3.13 3.13 0.0 0 0 282.09 248.09
  A 3.13 3.13 0.0 0 0 278.96 251.22
  A 3.13 3.13 0.0 0 0 282.09 254.35
  A 3.13 3.13 0.0 0 0 285.22 251.22
  Z
  M 281.42 260.41
  A 3.73 3.73 0.0 0 0 276.62 262.41
  Q 272.66 271.61 267.86 277.12
  Q 263.92 281.65 249.03 295.66
  A 3.67 3.67 0.0 0 0 248.56 300.49
  L 248.63 300.59
  A 3.08 3.07 52.1 0 0 253.11 301.15
  Q 262.25 293.50 270.70 284.96
  Q 279.39 276.19 283.66 265.09
  A 3.57 3.56 21.3 0 0 281.63 260.49
  L 281.42 260.41
  Z"
/>
<path fill="#262626" d="
  M 234.32 312.91
  A 0.55 0.55 0.0 0 1 234.16 313.88
  L 223.60 317.32
  A 1.98 1.57 -51.5 0 1 223.34 317.38
  L 205.69 320.57
  Q 205.67 320.57 205.66 320.57
  Q 201.33 320.62 194.52 321.57
  Q 192.72 321.82 190.10 321.06
  A 2.31 2.25 -15.8 0 1 189.23 320.59
  Q 186.35 318.17 184.64 315.90
  Q 177.99 307.07 173.40 298.09
  Q 165.62 282.83 164.32 265.52
  Q 163.85 259.22 164.85 253.51
  C 165.73 248.56 165.77 243.23 167.26 237.68
  Q 169.61 228.95 173.85 221.87
  Q 175.05 219.85 177.71 218.73
  Q 193.79 211.96 211.13 209.45
  A 0.90 0.90 0.0 0 1 212.06 210.74
  C 210.31 214.23 208.31 219.32 207.82 223.51
  C 207.50 226.22 206.48 228.65 206.17 231.81
  Q 203.61 258.07 213.39 281.78
  C 216.93 290.35 222.52 299.01 228.01 306.47
  Q 230.86 310.35 234.32 312.91
  Z"
/>
<path fill="#ffc754" d="
  M 173.44 320.11
  A 0.35 0.34 -18.3 0 1 173.17 320.64
  C 168.44 320.92 163.52 319.78 158.70 318.71
  C 148.39 316.42 136.09 312.25 128.73 304.75
  C 121.77 297.66 115.08 288.09 117.60 277.58
  C 118.61 273.39 120.16 268.84 122.63 264.35
  Q 126.80 256.79 128.01 254.02
  A 15.90 15.83 -11.7 0 1 131.04 249.43
  Q 141.51 238.33 145.59 235.34
  Q 152.14 230.54 157.89 227.32
  A 0.60 0.59 -5.6 0 1 158.75 228.02
  C 154.07 242.08 152.86 257.70 154.33 272.47
  C 156.11 290.44 163.61 305.14 173.44 320.11
  Z"
/>
<circle fill="#000000" cx="263.78" cy="241.25" r="5.96"/>
<circle fill="#edefef" cx="282.09" cy="251.22" r="3.13"/>
<path fill="#edefef" d="
  M 281.42 260.41
  L 281.63 260.49
  A 3.57 3.56 21.3 0 1 283.66 265.09
  Q 279.39 276.19 270.70 284.96
  Q 262.25 293.50 253.11 301.15
  A 3.08 3.07 52.1 0 1 248.63 300.59
  L 248.56 300.49
  A 3.67 3.67 0.0 0 1 249.03 295.66
  Q 263.92 281.65 267.86 277.12
  Q 272.66 271.61 276.62 262.41
  A 3.73 3.73 0.0 0 1 281.42 260.41
  Z"
/>
</svg>
