<?xml version="1.0" encoding="UTF-8" standalone="no"?>
<!DOCTYPE svg PUBLIC "-//W3C//DTD SVG 1.1//EN" "http://www.w3.org/Graphics/SVG/1.1/DTD/svg11.dtd">
<svg xmlns="http://www.w3.org/2000/svg" version="1.1" viewBox="0.00 50.00 400.00 600.00">
<g stroke-width="2.00" fill="none" stroke-linecap="butt">
<path stroke="#7b755e" vector-effect="non-scaling-stroke" d="
  M 216.63 276.26
  C 218.64 274.37 218.00 272.01 217.52 269.73
  Q 214.54 255.72 209.56 242.02
  Q 209.01 240.51 208.25 237.72
  C 207.24 234.04 206.90 230.11 204.93 227.06
  Q 201.39 221.55 193.74 222.56
  Q 187.83 223.33 179.17 226.05
  C 174.48 227.52 171.97 229.35 170.50 233.65
  A 2.79 2.77 45.8 0 0 170.48 235.40
  Q 173.85 245.90 176.88 260.73
  Q 177.33 262.90 178.33 265.74
  C 179.44 268.90 179.80 272.30 180.98 275.58
  C 182.32 279.27 184.09 282.85 187.54 283.21
  Q 200.45 284.57 213.87 278.31
  Q 215.03 277.77 216.63 276.26"
/>
<path stroke="#777777" vector-effect="non-scaling-stroke" d="
  M 231.30 258.90
  Q 231.27 259.82 231.48 260.50
  C 234.61 270.25 235.69 280.81 226.91 288.05
  C 218.10 295.33 200.60 300.11 188.99 299.06
  C 180.49 298.29 170.93 294.11 168.24 285.75
  Q 166.14 279.21 164.85 274.22
  A 1.22 1.21 -22.0 0 0 163.07 273.47
  C 158.49 276.10 154.98 279.45 150.99 283.57
  Q 140.98 293.91 135.58 305.53
  Q 128.75 320.25 129.24 337.45
  C 129.60 349.92 136.87 352.89 147.86 353.61
  C 162.97 354.61 177.72 352.92 192.13 351.08
  Q 230.57 346.16 268.53 330.98
  C 275.71 328.10 282.45 324.51 288.80 320.36
  C 293.71 317.17 298.47 312.83 297.30 307.28
  Q 296.76 304.69 293.49 298.74
  C 288.18 289.06 279.97 279.05 271.94 273.35
  Q 263.20 267.15 252.23 262.23
  C 245.88 259.38 238.99 257.81 232.04 258.15
  A 0.78 0.78 0.0 0 0 231.30 258.90"
/>
<path stroke="#777777" vector-effect="non-scaling-stroke" d="
  M 121.47 360.26
  A 0.44 0.44 0.0 0 0 120.86 360.39
  Q 116.12 367.41 117.43 375.63
  C 119.37 387.80 125.46 394.74 137.58 397.38
  Q 149.73 400.04 162.26 399.56
  Q 190.04 398.49 214.50 393.94
  Q 243.74 388.50 264.80 380.49
  C 282.25 373.85 293.95 369.74 307.24 361.48
  C 314.94 356.69 321.24 351.13 322.16 341.78
  Q 323.64 326.70 312.26 317.69
  A 0.53 0.53 0.0 0 0 311.54 317.74
  C 309.02 320.47 307.62 324.60 305.18 326.90
  C 297.01 334.60 285.60 340.29 274.29 344.79
  Q 253.28 353.16 230.87 359.40
  C 224.98 361.04 218.97 362.35 212.69 363.19
  Q 191.88 366.01 182.23 367.15
  Q 177.07 367.77 157.16 368.59
  C 152.68 368.77 148.96 368.07 144.51 368.03
  C 136.40 367.96 128.48 364.76 121.47 360.26"
/>
<path stroke="#785545" vector-effect="non-scaling-stroke" d="
  M 146.77 418.21
  Q 153.76 432.85 160.70 447.10
  C 169.24 464.65 179.18 486.12 188.82 505.43
  Q 190.02 507.83 191.38 509.59"
/>
<path stroke="#713925" vector-effect="non-scaling-stroke" d="
  M 191.38 509.59
  Q 193.85 514.92 195.64 516.87
  C 199.82 521.41 206.04 524.00 211.84 525.95
  Q 215.87 527.30 217.50 527.48
  C 222.29 528.02 226.83 529.25 232.04 529.40
  Q 246.44 529.83 260.53 526.10"
/>
<path stroke="#785545" vector-effect="non-scaling-stroke" d="
  M 260.53 526.10
  Q 268.08 524.45 277.91 521.15
  Q 297.41 514.62 310.46 501.01
  Q 317.26 493.92 318.79 485.81
  Q 320.09 478.98 319.65 474.02
  Q 318.29 458.62 317.22 444.14
  C 316.75 437.89 316.96 430.05 316.68 425.54
  A 5.75 5.57 32.8 0 0 316.26 423.74
  L 315.24 421.35
  A 2.37 2.20 36.1 0 1 315.07 420.49
  C 315.06 409.70 315.54 403.03 314.44 398.87
  A 9.13 9.10 -52.5 0 1 314.14 396.55
  L 314.14 387.50
  A 3.05 2.80 38.5 0 0 314.00 386.61
  Q 313.29 384.25 313.28 381.69"
/>
<path stroke="#713925" vector-effect="non-scaling-stroke" d="
  M 313.28 381.69
  Q 313.61 379.64 313.03 377.57
  A 0.68 0.68 0.0 0 0 312.28 377.07
  C 307.79 377.68 303.21 381.60 299.06 383.16
  Q 291.83 385.86 283.36 389.76
  C 279.88 391.37 276.73 392.24 272.36 393.93
  C 269.79 394.93 266.72 395.52 263.69 397.10
  A 4.37 4.31 22.2 0 1 262.94 397.41
  Q 253.12 400.50 237.88 404.70
  C 229.29 407.08 218.94 408.42 211.46 409.85
  Q 201.56 411.73 191.43 412.42
  Q 183.72 412.95 177.14 413.62
  C 166.77 414.68 157.58 414.22 146.23 414.30
  A 0.72 0.72 0.0 0 0 145.56 415.29
  L 146.77 418.21"
/>
<path stroke="#e98e6a" vector-effect="non-scaling-stroke" d="
  M 313.28 381.69
  Q 307.82 383.69 292.55 390.31
  C 265.45 402.06 234.55 409.56 204.88 416.14
  Q 176.26 422.50 146.77 418.21"
/>
<path stroke="#e98e6a" vector-effect="non-scaling-stroke" d="
  M 260.53 526.10
  Q 257.73 524.83 254.91 525.93
  A 2.39 2.30 32.9 0 1 254.03 526.10
  C 250.24 526.09 246.16 526.84 241.98 526.94
  Q 236.62 527.07 223.00 524.73
  Q 204.21 521.50 191.38 509.59"
/>
<path stroke="#7b755e" vector-effect="non-scaling-stroke" d="
  M 172.73 236.34
  C 175.29 244.11 188.56 241.53 194.54 239.66
  Q 200.55 237.79 201.69 236.81
  C 206.08 233.03 205.22 225.12 198.26 224.82
  A 3.26 3.26 0.0 0 0 196.91 225.05
  Q 188.55 228.43 187.07 228.61
  Q 182.51 229.16 178.40 229.67
  Q 172.98 230.34 172.59 235.26
  A 2.79 2.69 38.7 0 0 172.73 236.34"
/>
<path stroke="#efccbc" vector-effect="non-scaling-stroke" d="
  M 306.0121 391.2396
  A 3.62 3.62 0.0 0 0 302.0618 387.9833
  L 301.9025 387.9986
  A 3.62 3.62 0.0 0 0 298.6461 391.9489
  L 302.9879 437.0404
  A 3.62 3.62 0.0 0 0 306.9382 440.2967
  L 307.0975 440.2814
  A 3.62 3.62 0.0 0 0 310.3539 436.3311
  L 306.0121 391.2396"
/>
<path stroke="#785545" vector-effect="non-scaling-stroke" d="
  M 248.00 461.51
  C 260.20 461.75 270.33 455.51 272.90 443.54
  C 274.27 437.16 273.29 428.09 269.04 422.41
  C 264.13 415.83 257.15 412.60 248.61 412.43
  C 236.41 412.18 226.27 418.41 223.71 430.39
  C 222.34 436.77 223.32 445.84 227.56 451.52
  C 232.47 458.09 239.46 461.33 248.00 461.51"
/>
<path stroke="#efccbc" vector-effect="non-scaling-stroke" d="
  M 310.17 449.13
  A 3.15 3.15 0.0 0 0 307.02 445.98
  A 3.15 3.15 0.0 0 0 303.87 449.13
  A 3.15 3.15 0.0 0 0 307.02 452.28
  A 3.15 3.15 0.0 0 0 310.17 449.13"
/>
<path stroke="#785545" vector-effect="non-scaling-stroke" d="
  M 308.05 477.09
  A 21.89 21.89 0.0 0 0 286.16 455.20
  L 280.28 455.20
  A 21.89 21.89 0.0 0 0 258.39 477.09
  L 258.39 481.33
  A 21.89 21.89 0.0 0 0 280.28 503.22
  L 286.16 503.22
  A 21.89 21.89 0.0 0 0 308.05 481.33
  L 308.05 477.09"
/>
<path stroke="#785545" vector-effect="non-scaling-stroke" d="
  M 217.46 507.47
  C 229.69 507.69 239.86 501.43 242.42 489.41
  C 243.78 483.01 242.79 473.91 238.52 468.21
  C 233.59 461.62 226.58 458.38 218.01 458.23
  C 205.77 457.99 195.61 464.25 193.05 476.27
  C 191.68 482.67 192.67 491.77 196.94 497.47
  C 201.87 504.06 208.88 507.30 217.46 507.47"
/>
<path stroke="#3b2b27" vector-effect="non-scaling-stroke" d="
  M 258.4332 444.0644
  A 11.25 11.25 0.0 0 0 257.3787 428.1895
  L 255.8890 426.8853
  A 11.25 11.25 0.0 0 0 240.0140 427.9397
  L 238.4068 429.7756
  A 11.25 11.25 0.0 0 0 239.4613 445.6505
  L 240.9510 446.9547
  A 11.25 11.25 0.0 0 0 256.8260 445.9003
  L 258.4332 444.0644"
/>
<path stroke="#3b2b27" vector-effect="non-scaling-stroke" d="
  M 295.82 479.17
  A 12.55 12.55 0.0 0 0 283.27 466.62
  A 12.55 12.55 0.0 0 0 270.72 479.17
  A 12.55 12.55 0.0 0 0 283.27 491.72
  A 12.55 12.55 0.0 0 0 295.82 479.17"
/>
<path stroke="#3b2b27" vector-effect="non-scaling-stroke" d="
  M 231.13 484.22
  Q 231.08 482.56 230.23 480.00
  Q 227.63 472.23 219.87 470.51
  Q 216.70 469.80 213.72 471.16
  C 210.69 472.55 207.08 475.40 206.22 478.71
  C 204.42 485.65 205.69 490.27 212.02 494.04
  Q 215.17 495.92 218.26 495.49
  Q 226.90 494.31 230.90 485.34
  A 2.65 2.56 57.6 0 0 231.13 484.22"
/>
</g>
<path fill="#000000" d="
  M 226.54 242.06
  Q 239.81 243.45 241.26 243.71
  Q 257.44 246.61 272.41 255.11
  C 281.58 260.32 288.73 267.16 295.70 275.04
  Q 305.43 286.05 310.76 299.68
  A 3.64 3.64 0.0 0 0 313.00 301.81
  Q 328.65 307.00 334.62 321.82
  Q 336.27 325.91 337.24 335.00
  Q 338.05 342.61 335.69 350.21
  C 334.21 354.98 331.93 358.45 328.67 364.46
  A 3.84 3.81 59.4 0 0 328.21 366.28
  L 328.21 382.89
  A 1.24 1.15 29.6 0 0 328.42 383.56
  Q 328.56 383.75 328.64 383.89
  A 3.42 3.38 30.6 0 1 329.08 385.56
  L 329.06 395.55
  A 2.32 2.31 -59.8 0 0 329.36 396.69
  Q 330.11 398.00 329.86 399.74
  A 1.36 1.35 32.1 0 0 330.08 400.68
  Q 330.81 401.74 330.81 403.75
  Q 330.78 421.92 330.84 427.88
  Q 330.84 428.26 331.22 429.21
  A 2.83 2.74 -57.2 0 1 331.41 430.17
  Q 331.67 441.03 332.54 448.35
  C 333.58 457.20 333.21 465.06 333.73 473.16
  Q 333.89 475.59 333.66 479.96
  C 333.34 486.18 333.80 492.46 330.78 498.49
  Q 325.36 509.30 316.17 517.32
  Q 299.99 531.44 278.10 537.79
  Q 258.96 543.35 241.24 544.45
  Q 223.04 545.59 205.25 540.00
  Q 189.91 535.19 180.91 522.65
  Q 177.23 517.54 170.64 503.66
  C 158.14 477.37 152.54 464.77 141.25 442.15
  Q 135.36 430.36 129.20 416.35
  C 128.31 414.32 126.70 411.49 124.05 409.82
  Q 122.75 409.01 117.60 405.10
  C 111.51 400.48 107.12 395.13 104.66 387.69
  C 100.44 374.89 101.05 364.10 107.58 352.47
  A 9.93 9.74 -8.5 0 1 109.17 350.36
  C 112.20 347.30 114.69 345.55 114.31 342.24
  Q 112.57 327.11 116.51 311.78
  C 121.56 292.17 134.20 275.44 150.34 263.09
  Q 154.45 259.95 159.63 257.68
  A 1.40 1.39 69.5 0 0 160.40 255.98
  Q 157.80 247.89 156.15 240.92
  C 154.99 236.01 154.60 229.02 156.95 224.46
  C 160.84 216.90 166.78 214.12 175.25 211.33
  C 188.50 206.96 205.56 204.07 216.11 216.04
  C 219.39 219.76 222.12 227.89 223.04 232.46
  Q 224.14 237.99 225.72 241.48
  A 1.03 1.00 -9.1 0 0 226.54 242.06
  Z
  M 216.63 276.26
  C 218.64 274.37 218.00 272.01 217.52 269.73
  Q 214.54 255.72 209.56 242.02
  Q 209.01 240.51 208.25 237.72
  C 207.24 234.04 206.90 230.11 204.93 227.06
  Q 201.39 221.55 193.74 222.56
  Q 187.83 223.33 179.17 226.05
  C 174.48 227.52 171.97 229.35 170.50 233.65
  A 2.79 2.77 45.8 0 0 170.48 235.40
  Q 173.85 245.90 176.88 260.73
  Q 177.33 262.90 178.33 265.74
  C 179.44 268.90 179.80 272.30 180.98 275.58
  C 182.32 279.27 184.09 282.85 187.54 283.21
  Q 200.45 284.57 213.87 278.31
  Q 215.03 277.77 216.63 276.26
  Z
  M 231.30 258.90
  Q 231.27 259.82 231.48 260.50
  C 234.61 270.25 235.69 280.81 226.91 288.05
  C 218.10 295.33 200.60 300.11 188.99 299.06
  C 180.49 298.29 170.93 294.11 168.24 285.75
  Q 166.14 279.21 164.85 274.22
  A 1.22 1.21 -22.0 0 0 163.07 273.47
  C 158.49 276.10 154.98 279.45 150.99 283.57
  Q 140.98 293.91 135.58 305.53
  Q 128.75 320.25 129.24 337.45
  C 129.60 349.92 136.87 352.89 147.86 353.61
  C 162.97 354.61 177.72 352.92 192.13 351.08
  Q 230.57 346.16 268.53 330.98
  C 275.71 328.10 282.45 324.51 288.80 320.36
  C 293.71 317.17 298.47 312.83 297.30 307.28
  Q 296.76 304.69 293.49 298.74
  C 288.18 289.06 279.97 279.05 271.94 273.35
  Q 263.20 267.15 252.23 262.23
  C 245.88 259.38 238.99 257.81 232.04 258.15
  A 0.78 0.78 0.0 0 0 231.30 258.90
  Z
  M 121.47 360.26
  A 0.44 0.44 0.0 0 0 120.86 360.39
  Q 116.12 367.41 117.43 375.63
  C 119.37 387.80 125.46 394.74 137.58 397.38
  Q 149.73 400.04 162.26 399.56
  Q 190.04 398.49 214.50 393.94
  Q 243.74 388.50 264.80 380.49
  C 282.25 373.85 293.95 369.74 307.24 361.48
  C 314.94 356.69 321.24 351.13 322.16 341.78
  Q 323.64 326.70 312.26 317.69
  A 0.53 0.53 0.0 0 0 311.54 317.74
  C 309.02 320.47 307.62 324.60 305.18 326.90
  C 297.01 334.60 285.60 340.29 274.29 344.79
  Q 253.28 353.16 230.87 359.40
  C 224.98 361.04 218.97 362.35 212.69 363.19
  Q 191.88 366.01 182.23 367.15
  Q 177.07 367.77 157.16 368.59
  C 152.68 368.77 148.96 368.07 144.51 368.03
  C 136.40 367.96 128.48 364.76 121.47 360.26
  Z
  M 146.77 418.21
  Q 153.76 432.85 160.70 447.10
  C 169.24 464.65 179.18 486.12 188.82 505.43
  Q 190.02 507.83 191.38 509.59
  Q 193.85 514.92 195.64 516.87
  C 199.82 521.41 206.04 524.00 211.84 525.95
  Q 215.87 527.30 217.50 527.48
  C 222.29 528.02 226.83 529.25 232.04 529.40
  Q 246.44 529.83 260.53 526.10
  Q 268.08 524.45 277.91 521.15
  Q 297.41 514.62 310.46 501.01
  Q 317.26 493.92 318.79 485.81
  Q 320.09 478.98 319.65 474.02
  Q 318.29 458.62 317.22 444.14
  C 316.75 437.89 316.96 430.05 316.68 425.54
  A 5.75 5.57 32.8 0 0 316.26 423.74
  L 315.24 421.35
  A 2.37 2.20 36.1 0 1 315.07 420.49
  C 315.06 409.70 315.54 403.03 314.44 398.87
  A 9.13 9.10 -52.5 0 1 314.14 396.55
  L 314.14 387.50
  A 3.05 2.80 38.5 0 0 314.00 386.61
  Q 313.29 384.25 313.28 381.69
  Q 313.61 379.64 313.03 377.57
  A 0.68 0.68 0.0 0 0 312.28 377.07
  C 307.79 377.68 303.21 381.60 299.06 383.16
  Q 291.83 385.86 283.36 389.76
  C 279.88 391.37 276.73 392.24 272.36 393.93
  C 269.79 394.93 266.72 395.52 263.69 397.10
  A 4.37 4.31 22.2 0 1 262.94 397.41
  Q 253.12 400.50 237.88 404.70
  C 229.29 407.08 218.94 408.42 211.46 409.85
  Q 201.56 411.73 191.43 412.42
  Q 183.72 412.95 177.14 413.62
  C 166.77 414.68 157.58 414.22 146.23 414.30
  A 0.72 0.72 0.0 0 0 145.56 415.29
  L 146.77 418.21
  Z"
/>
<path fill="#f5eabc" d="
  M 217.52 269.73
  C 218.00 272.01 218.64 274.37 216.63 276.26
  Q 215.03 277.77 213.87 278.31
  Q 200.45 284.57 187.54 283.21
  C 184.09 282.85 182.32 279.27 180.98 275.58
  C 179.80 272.30 179.44 268.90 178.33 265.74
  Q 177.33 262.90 176.88 260.73
  Q 173.85 245.90 170.48 235.40
  A 2.79 2.77 45.8 0 1 170.50 233.65
  C 171.97 229.35 174.48 227.52 179.17 226.05
  Q 187.83 223.33 193.74 222.56
  Q 201.39 221.55 204.93 227.06
  C 206.90 230.11 207.24 234.04 208.25 237.72
  Q 209.01 240.51 209.56 242.02
  Q 214.54 255.72 217.52 269.73
  Z
  M 172.73 236.34
  C 175.29 244.11 188.56 241.53 194.54 239.66
  Q 200.55 237.79 201.69 236.81
  C 206.08 233.03 205.22 225.12 198.26 224.82
  A 3.26 3.26 0.0 0 0 196.91 225.05
  Q 188.55 228.43 187.07 228.61
  Q 182.51 229.16 178.40 229.67
  Q 172.98 230.34 172.59 235.26
  A 2.79 2.69 38.7 0 0 172.73 236.34
  Z"
/>
<path fill="#000000" d="
  M 172.59 235.26
  Q 172.98 230.34 178.40 229.67
  Q 182.51 229.16 187.07 228.61
  Q 188.55 228.43 196.91 225.05
  A 3.26 3.26 0.0 0 1 198.26 224.82
  C 205.22 225.12 206.08 233.03 201.69 236.81
  Q 200.55 237.79 194.54 239.66
  C 188.56 241.53 175.29 244.11 172.73 236.34
  A 2.79 2.69 38.7 0 1 172.59 235.26
  Z"
/>
<path fill="#eeeeee" d="
  M 231.30 258.90
  A 0.78 0.78 0.0 0 1 232.04 258.15
  C 238.99 257.81 245.88 259.38 252.23 262.23
  Q 263.20 267.15 271.94 273.35
  C 279.97 279.05 288.18 289.06 293.49 298.74
  Q 296.76 304.69 297.30 307.28
  C 298.47 312.83 293.71 317.17 288.80 320.36
  C 282.45 324.51 275.71 328.10 268.53 330.98
  Q 230.57 346.16 192.13 351.08
  C 177.72 352.92 162.97 354.61 147.86 353.61
  C 136.87 352.89 129.60 349.92 129.24 337.45
  Q 128.75 320.25 135.58 305.53
  Q 140.98 293.91 150.99 283.57
  C 154.98 279.45 158.49 276.10 163.07 273.47
  A 1.22 1.21 -22.0 0 1 164.85 274.22
  Q 166.14 279.21 168.24 285.75
  C 170.93 294.11 180.49 298.29 188.99 299.06
  C 200.60 300.11 218.10 295.33 226.91 288.05
  C 235.69 280.81 234.61 270.25 231.48 260.50
  Q 231.27 259.82 231.30 258.90
  Z"
/>
<path fill="#eeeeee" d="
  M 121.47 360.26
  C 128.48 364.76 136.40 367.96 144.51 368.03
  C 148.96 368.07 152.68 368.77 157.16 368.59
  Q 177.07 367.77 182.23 367.15
  Q 191.88 366.01 212.69 363.19
  C 218.97 362.35 224.98 361.04 230.87 359.40
  Q 253.28 353.16 274.29 344.79
  C 285.60 340.29 297.01 334.60 305.18 326.90
  C 307.62 324.60 309.02 320.47 311.54 317.74
  A 0.53 0.53 0.0 0 1 312.26 317.69
  Q 323.64 326.70 322.16 341.78
  C 321.24 351.13 314.94 356.69 307.24 361.48
  C 293.95 369.74 282.25 373.85 264.80 380.49
  Q 243.74 388.50 214.50 393.94
  Q 190.04 398.49 162.26 399.56
  Q 149.73 400.04 137.58 397.38
  C 125.46 394.74 119.37 387.80 117.43 375.63
  Q 116.12 367.41 120.86 360.39
  A 0.44 0.44 0.0 0 1 121.47 360.26
  Z"
/>
<path fill="#e2714a" d="
  M 313.28 381.69
  Q 307.82 383.69 292.55 390.31
  C 265.45 402.06 234.55 409.56 204.88 416.14
  Q 176.26 422.50 146.77 418.21
  L 145.56 415.29
  A 0.72 0.72 0.0 0 1 146.23 414.30
  C 157.58 414.22 166.77 414.68 177.14 413.62
  Q 183.72 412.95 191.43 412.42
  Q 201.56 411.73 211.46 409.85
  C 218.94 408.42 229.29 407.08 237.88 404.70
  Q 253.12 400.50 262.94 397.41
  A 4.37 4.31 22.2 0 0 263.69 397.10
  C 266.72 395.52 269.79 394.93 272.36 393.93
  C 276.73 392.24 279.88 391.37 283.36 389.76
  Q 291.83 385.86 299.06 383.16
  C 303.21 381.60 307.79 377.68 312.28 377.07
  A 0.68 0.68 0.0 0 1 313.03 377.57
  Q 313.61 379.64 313.28 381.69
  Z"
/>
<path fill="#f0aa89" d="
  M 313.28 381.69
  Q 313.29 384.25 314.00 386.61
  A 3.05 2.80 38.5 0 1 314.14 387.50
  L 314.14 396.55
  A 9.13 9.10 -52.5 0 0 314.44 398.87
  C 315.54 403.03 315.06 409.70 315.07 420.49
  A 2.37 2.20 36.1 0 0 315.24 421.35
  L 316.26 423.74
  A 5.75 5.57 32.8 0 1 316.68 425.54
  C 316.96 430.05 316.75 437.89 317.22 444.14
  Q 318.29 458.62 319.65 474.02
  Q 320.09 478.98 318.79 485.81
  Q 317.26 493.92 310.46 501.01
  Q 297.41 514.62 277.91 521.15
  Q 268.08 524.45 260.53 526.10
  Q 257.73 524.83 254.91 525.93
  A 2.39 2.30 32.9 0 1 254.03 526.10
  C 250.24 526.09 246.16 526.84 241.98 526.94
  Q 236.62 527.07 223.00 524.73
  Q 204.21 521.50 191.38 509.59
  Q 190.02 507.83 188.82 505.43
  C 179.18 486.12 169.24 464.65 160.70 447.10
  Q 153.76 432.85 146.77 418.21
  Q 176.26 422.50 204.88 416.14
  C 234.55 409.56 265.45 402.06 292.55 390.31
  Q 307.82 383.69 313.28 381.69
  Z
  M 306.0121 391.2396
  A 3.62 3.62 0.0 0 0 302.0618 387.9833
  L 301.9025 387.9986
  A 3.62 3.62 0.0 0 0 298.6461 391.9489
  L 302.9879 437.0404
  A 3.62 3.62 0.0 0 0 306.9382 440.2967
  L 307.0975 440.2814
  A 3.62 3.62 0.0 0 0 310.3539 436.3311
  L 306.0121 391.2396
  Z
  M 248.00 461.51
  C 260.20 461.75 270.33 455.51 272.90 443.54
  C 274.27 437.16 273.29 428.09 269.04 422.41
  C 264.13 415.83 257.15 412.60 248.61 412.43
  C 236.41 412.18 226.27 418.41 223.71 430.39
  C 222.34 436.77 223.32 445.84 227.56 451.52
  C 232.47 458.09 239.46 461.33 248.00 461.51
  Z
  M 310.17 449.13
  A 3.15 3.15 0.0 0 0 307.02 445.98
  A 3.15 3.15 0.0 0 0 303.87 449.13
  A 3.15 3.15 0.0 0 0 307.02 452.28
  A 3.15 3.15 0.0 0 0 310.17 449.13
  Z
  M 308.05 477.09
  A 21.89 21.89 0.0 0 0 286.16 455.20
  L 280.28 455.20
  A 21.89 21.89 0.0 0 0 258.39 477.09
  L 258.39 481.33
  A 21.89 21.89 0.0 0 0 280.28 503.22
  L 286.16 503.22
  A 21.89 21.89 0.0 0 0 308.05 481.33
  L 308.05 477.09
  Z
  M 217.46 507.47
  C 229.69 507.69 239.86 501.43 242.42 489.41
  C 243.78 483.01 242.79 473.91 238.52 468.21
  C 233.59 461.62 226.58 458.38 218.01 458.23
  C 205.77 457.99 195.61 464.25 193.05 476.27
  C 191.68 482.67 192.67 491.77 196.94 497.47
  C 201.87 504.06 208.88 507.30 217.46 507.47
  Z"
/>
<rect fill="#eeeeee" x="-3.70" y="-26.27" transform="translate(304.50,414.14) rotate(-5.5)" width="7.40" height="52.54" rx="3.62"/>
<path fill="#000000" d="
  M 248.00 461.51
  C 239.46 461.33 232.47 458.09 227.56 451.52
  C 223.32 445.84 222.34 436.77 223.71 430.39
  C 226.27 418.41 236.41 412.18 248.61 412.43
  C 257.15 412.60 264.13 415.83 269.04 422.41
  C 273.29 428.09 274.27 437.16 272.90 443.54
  C 270.33 455.51 260.20 461.75 248.00 461.51
  Z
  M 258.4332 444.0644
  A 11.25 11.25 0.0 0 0 257.3787 428.1895
  L 255.8890 426.8853
  A 11.25 11.25 0.0 0 0 240.0140 427.9397
  L 238.4068 429.7756
  A 11.25 11.25 0.0 0 0 239.4613 445.6505
  L 240.9510 446.9547
  A 11.25 11.25 0.0 0 0 256.8260 445.9003
  L 258.4332 444.0644
  Z"
/>
<rect fill="#75564d" x="-12.24" y="-12.47" transform="translate(248.42,436.92) rotate(41.2)" width="24.48" height="24.94" rx="11.25"/>
<circle fill="#eeeeee" cx="307.02" cy="449.13" r="3.15"/>
<path fill="#000000" d="
  M 308.05 481.33
  A 21.89 21.89 0.0 0 1 286.16 503.22
  L 280.28 503.22
  A 21.89 21.89 0.0 0 1 258.39 481.33
  L 258.39 477.09
  A 21.89 21.89 0.0 0 1 280.28 455.20
  L 286.16 455.20
  A 21.89 21.89 0.0 0 1 308.05 477.09
  L 308.05 481.33
  Z
  M 295.82 479.17
  A 12.55 12.55 0.0 0 0 283.27 466.62
  A 12.55 12.55 0.0 0 0 270.72 479.17
  A 12.55 12.55 0.0 0 0 283.27 491.72
  A 12.55 12.55 0.0 0 0 295.82 479.17
  Z"
/>
<path fill="#000000" d="
  M 217.46 507.47
  C 208.88 507.30 201.87 504.06 196.94 497.47
  C 192.67 491.77 191.68 482.67 193.05 476.27
  C 195.61 464.25 205.77 457.99 218.01 458.23
  C 226.58 458.38 233.59 461.62 238.52 468.21
  C 242.79 473.91 243.78 483.01 242.42 489.41
  C 239.86 501.43 229.69 507.69 217.46 507.47
  Z
  M 231.13 484.22
  Q 231.08 482.56 230.23 480.00
  Q 227.63 472.23 219.87 470.51
  Q 216.70 469.80 213.72 471.16
  C 210.69 472.55 207.08 475.40 206.22 478.71
  C 204.42 485.65 205.69 490.27 212.02 494.04
  Q 215.17 495.92 218.26 495.49
  Q 226.90 494.31 230.90 485.34
  A 2.65 2.56 57.6 0 0 231.13 484.22
  Z"
/>
<circle fill="#75564d" cx="283.27" cy="479.17" r="12.55"/>
<path fill="#75564d" d="
  M 230.90 485.34
  Q 226.90 494.31 218.26 495.49
  Q 215.17 495.92 212.02 494.04
  C 205.69 490.27 204.42 485.65 206.22 478.71
  C 207.08 475.40 210.69 472.55 213.72 471.16
  Q 216.70 469.80 219.87 470.51
  Q 227.63 472.23 230.23 480.00
  Q 231.08 482.56 231.13 484.22
  A 2.65 2.56 57.6 0 1 230.90 485.34
  Z"
/>
<path fill="#e2714a" d="
  M 260.53 526.10
  Q 246.44 529.83 232.04 529.40
  C 226.83 529.25 222.29 528.02 217.50 527.48
  Q 215.87 527.30 211.84 525.95
  C 206.04 524.00 199.82 521.41 195.64 516.87
  Q 193.85 514.92 191.38 509.59
  Q 204.21 521.50 223.00 524.73
  Q 236.62 527.07 241.98 526.94
  C 246.16 526.84 250.24 526.09 254.03 526.10
  A 2.39 2.30 32.9 0 0 254.91 525.93
  Q 257.73 524.83 260.53 526.10
  Z"
/>
</svg>
