<?xml version="1.0" encoding="UTF-8" standalone="no"?>
<!DOCTYPE svg PUBLIC "-//W3C//DTD SVG 1.1//EN" "http://www.w3.org/Graphics/SVG/1.1/DTD/svg11.dtd">
<svg xmlns="http://www.w3.org/2000/svg" version="1.1" viewBox="0.00 0.00 547.00 636.00">
<g stroke-width="2.00" fill="none" stroke-linecap="butt">
<path stroke="#604134" vector-effect="non-scaling-stroke" d="
  M 290.60 171.46
  A 1.75 1.74 -66.4 0 0 288.54 172.27
  Q 287.24 174.61 285.69 178.35
  C 284.61 180.94 281.27 184.24 278.13 185.78
  Q 271.24 189.19 263.53 188.85
  C 258.13 188.62 253.06 186.20 253.35 179.98
  C 253.75 171.52 262.16 172.05 268.36 172.09
  C 272.11 172.12 273.67 170.66 275.04 167.68
  Q 275.75 166.13 274.01 164.02
  C 269.30 158.30 261.53 165.08 258.42 161.62
  Q 255.49 158.36 256.15 154.02
  C 256.84 149.44 263.75 146.59 258.82 141.90
  C 255.67 138.91 254.06 139.33 250.97 142.21
  A 3.52 3.32 85.6 0 0 250.34 142.99
  L 247.62 147.53
  A 3.89 3.87 3.9 0 1 245.85 149.07
  C 240.54 151.33 233.95 150.51 233.57 143.50
  Q 233.37 139.72 233.41 135.99
  C 233.44 132.41 231.66 130.30 228.73 128.93
  Q 226.80 128.03 224.54 129.37
  C 216.07 134.41 217.90 144.56 221.54 152.04
  C 223.10 155.24 226.74 156.85 225.37 161.36
  Q 224.21 165.16 221.59 167.29
  Q 219.84 168.72 215.08 169.83
  Q 204.51 172.28 196.26 176.77
  Q 191.13 179.56 182.61 185.39
  A 6.79 6.58 -69.5 0 1 180.67 186.31
  Q 176.19 187.61 171.01 186.77
  A 3.86 3.86 0.0 0 1 168.90 185.69
  Q 164.70 181.48 161.99 178.52
  C 153.93 169.69 139.83 162.67 128.39 167.50
  Q 118.93 171.48 113.30 180.69
  C 111.06 184.36 110.08 188.94 108.92 192.93
  A 3.68 3.62 46.9 0 0 108.87 194.79
  C 109.79 198.64 110.23 201.85 111.59 205.19
  Q 115.63 215.07 124.19 221.55
  Q 125.27 222.37 133.11 227.59
  C 139.49 231.83 138.28 238.10 134.70 244.22
  C 132.69 247.66 130.02 252.11 128.68 256.02
  Q 125.43 265.45 125.30 273.02
  C 125.14 282.08 125.90 291.83 123.76 300.78
  C 122.48 306.16 118.45 312.46 117.23 317.76
  C 114.89 327.92 114.22 339.50 116.93 349.03
  C 120.77 362.50 129.12 371.80 140.22 379.73
  C 146.29 384.06 145.34 392.33 140.94 397.44
  Q 127.59 412.96 118.84 430.55
  C 110.91 446.52 103.26 461.01 99.34 476.29
  Q 98.20 480.73 95.75 491.75
  C 95.01 495.08 95.95 495.86 99.12 495.83
  C 103.07 495.79 107.10 496.62 110.99 496.63
  Q 173.59 496.79 219.78 496.52
  Q 219.86 496.52 223.52 496.54
  Q 257.68 496.76 318.35 496.66
  C 324.61 496.65 330.75 495.95 336.91 495.43
  C 343.37 494.88 350.42 496.12 357.29 495.39
  C 365.76 494.50 374.74 495.39 383.29 494.32
  C 406.71 491.37 429.09 471.44 435.30 448.95
  C 437.72 440.18 437.27 432.76 433.43 424.79
  C 428.77 415.09 423.42 408.07 413.76 403.22
  Q 400.10 396.36 385.03 398.50
  C 379.83 399.23 373.17 401.39 368.36 402.91
  C 360.32 405.45 351.32 407.33 343.36 408.65
  Q 323.77 411.90 302.71 408.43
  C 299.10 407.84 297.76 407.01 296.25 403.96
  Q 294.87 401.14 296.18 397.99
  Q 298.82 391.63 306.26 392.55
  Q 330.99 395.60 354.20 389.54
  Q 365.41 386.61 372.98 381.64
  C 385.43 373.46 395.67 362.47 401.54 348.24
  C 405.02 339.81 405.51 333.81 406.94 324.25
  Q 407.46 320.80 406.61 317.63
  Q 405.88 314.92 405.56 312.89
  Q 403.41 299.21 393.22 289.27
  Q 388.06 284.23 385.72 282.12
  C 380.52 277.42 376.52 271.39 374.60 265.70
  Q 369.16 249.55 362.72 235.88
  Q 354.90 219.24 341.92 204.40
  Q 339.23 201.31 334.41 197.43
  C 320.49 186.22 307.09 176.89 290.60 171.46"
/>
<path stroke="#482115" vector-effect="non-scaling-stroke" d="
  M 327.15 164.75
  L 324.83 167.95
  A 1.28 1.27 -53.3 0 0 325.08 169.70
  L 341.99 182.81
  A 0.98 0.98 0.0 0 0 343.50 182.42
  L 345.34 178.06"
/>
<path stroke="#261604" vector-effect="non-scaling-stroke" d="
  M 345.34 178.06
  L 346.67 178.45
  A 0.37 0.37 0.0 0 1 346.93 178.72
  Q 347.07 179.36 347.79 179.13
  A 0.99 0.93 -80.5 0 0 348.29 178.75
  L 351.08 174.60
  A 1.29 1.13 -5.6 0 1 351.39 174.27
  L 356.40 170.45
  A 3.95 3.94 -70.8 0 1 357.82 169.76
  Q 362.42 168.58 363.26 168.65
  Q 368.44 169.10 368.82 174.49
  Q 368.99 177.08 368.10 178.33
  C 366.51 180.56 362.68 182.43 360.89 184.76
  C 359.62 186.40 357.79 188.71 358.19 190.54
  A 0.24 0.23 -11.8 0 0 358.46 190.71
  Q 358.58 190.68 358.63 190.68
  A 0.70 0.68 73.0 0 1 359.33 191.06
  Q 359.72 191.86 359.53 192.80"
/>
<path stroke="#482115" vector-effect="non-scaling-stroke" d="
  M 359.53 192.80
  Q 358.07 193.77 356.55 194.07
  A 1.00 1.00 0.0 0 0 355.95 195.66
  L 361.99 203.60
  A 1.54 1.53 -27.2 0 0 363.67 204.13
  Q 365.91 203.41 367.65 202.09"
/>
<path stroke="#604134" vector-effect="non-scaling-stroke" d="
  M 367.65 202.09
  C 378.42 196.12 388.39 179.74 384.73 167.74
  C 381.43 156.93 371.39 151.09 360.27 149.53
  C 349.63 148.05 341.99 152.22 333.51 158.00
  Q 329.63 160.65 327.15 164.75"
/>
<path stroke="#a76149" vector-effect="non-scaling-stroke" d="
  M 367.65 202.09
  L 361.15 191.88"
/>
<path stroke="#865638" vector-effect="non-scaling-stroke" d="
  M 361.15 191.88
  C 366.44 186.40 372.07 181.02 370.50 172.51
  C 369.06 164.75 361.32 162.39 354.89 166.18
  Q 349.10 169.60 346.02 175.79"
/>
<path stroke="#a76149" vector-effect="non-scaling-stroke" d="
  M 346.02 175.79
  Q 345.00 176.84 344.10 176.18
  Q 334.82 169.42 327.15 164.75"
/>
<path stroke="#6e3619" vector-effect="non-scaling-stroke" d="
  M 361.15 191.88
  L 359.53 192.80"
/>
<path stroke="#6e3619" vector-effect="non-scaling-stroke" d="
  M 346.02 175.79
  Q 345.48 176.80 345.34 178.06"
/>
<path stroke="#482115" vector-effect="non-scaling-stroke" d="
  M 404.21 376.08
  L 400.06 380.64
  A 0.91 0.91 0.0 0 0 400.50 382.13
  L 418.34 387.04
  A 1.26 1.24 -55.2 0 0 419.41 386.84
  L 425.53 382.26"
/>
<path stroke="#604134" vector-effect="non-scaling-stroke" d="
  M 425.53 382.26
  L 435.16 382.40
  A 1.55 1.52 -26.6 0 1 436.06 382.69
  Q 442.44 387.16 440.96 394.96"
/>
<path stroke="#482115" vector-effect="non-scaling-stroke" d="
  M 440.96 394.96
  Q 441.56 399.14 438.89 401.21
  A 1.03 1.02 53.8 0 0 438.68 402.60
  C 443.87 410.18 448.53 417.13 451.18 425.86
  A 0.96 0.95 69.3 0 0 452.48 426.45
  Q 454.55 425.54 455.91 424.26"
/>
<path stroke="#604134" vector-effect="non-scaling-stroke" d="
  M 455.91 424.26
  Q 468.56 414.87 473.51 401.71
  Q 480.82 382.24 467.98 365.52
  C 460.05 355.20 446.84 347.84 434.15 348.44
  C 428.94 348.68 418.68 351.42 415.88 356.64
  C 412.27 363.37 409.14 370.08 404.21 376.08"
/>
<path stroke="#a76149" vector-effect="non-scaling-stroke" d="
  M 455.91 424.26
  Q 453.71 412.27 447.01 403.73
  Q 442.98 398.59 440.96 394.96"
/>
<path stroke="#a76149" vector-effect="non-scaling-stroke" d="
  M 425.53 382.26
  Q 422.51 382.61 421.07 381.95
  Q 413.07 378.30 404.21 376.08"
/>
<path stroke="#865638" vector-effect="non-scaling-stroke" d="
  M 163.3626 213.6340
  A 20.34 13.65 34.0 0 0 154.1330 190.9436
  A 20.34 13.65 34.0 0 0 129.6374 190.8860
  A 20.34 13.65 34.0 0 0 138.8670 213.5764
  A 20.34 13.65 34.0 0 0 163.3626 213.6340"
/>
<path stroke="#604134" vector-effect="non-scaling-stroke" d="
  M 370.36 275.11
  Q 370.68 272.97 370.51 270.70
  C 370.03 264.48 362.10 265.01 357.30 265.51
  Q 352.80 265.98 349.21 270.83
  A 2.70 2.69 -24.2 0 0 348.70 272.17
  C 348.27 276.79 348.63 280.31 353.48 281.08
  C 355.75 281.44 359.12 278.30 361.36 278.06
  C 364.69 277.70 368.35 277.81 369.97 275.96
  A 1.68 1.65 -20.8 0 0 370.36 275.11"
/>
<path stroke="#604134" vector-effect="non-scaling-stroke" d="
  M 337.43 282.09
  Q 334.67 282.01 322.50 282.03
  C 317.37 282.03 308.92 286.33 305.50 290.11
  Q 298.21 298.16 296.18 305.04
  Q 291.48 320.88 298.16 337.16
  Q 303.09 349.18 313.38 357.67
  C 319.89 363.05 326.64 364.67 334.73 365.13
  C 350.67 366.02 363.59 353.36 367.09 338.33
  C 371.08 321.19 368.08 303.69 355.13 291.31
  C 352.55 288.85 350.08 286.36 346.92 285.10
  Q 343.98 283.93 339.23 282.40
  A 6.69 6.61 54.4 0 0 337.43 282.09"
/>
<path stroke="#604134" vector-effect="non-scaling-stroke" d="
  M 257.00 306.77
  Q 257.39 309.31 260.76 310.90
  Q 261.03 311.02 265.34 310.80
  A 2.41 2.39 -67.3 0 0 266.84 310.18
  Q 268.86 308.35 272.07 307.85
  A 1.96 1.95 48.2 0 1 272.92 307.90
  Q 277.00 309.10 280.21 306.48
  C 281.67 305.29 281.48 304.02 281.55 302.32
  Q 281.73 297.96 278.77 296.50
  Q 273.80 294.05 267.12 295.65
  C 261.25 297.06 255.97 300.05 257.00 306.77"
/>
<path stroke="#261604" vector-effect="non-scaling-stroke" d="
  M 128.39 198.35
  Q 128.47 201.03 130.25 202.78
  A 2.02 2.01 75.0 0 0 131.09 203.27
  C 135.50 204.51 139.89 206.16 143.74 209.58
  Q 146.66 212.17 148.60 212.78
  C 152.22 213.92 154.87 213.39 157.25 210.30
  A 1.39 1.37 -26.8 0 0 157.53 209.47
  L 157.53 204.61
  A 1.44 1.43 24.1 0 0 157.16 203.65
  Q 149.87 195.43 139.70 192.62
  Q 135.88 191.56 132.75 192.48
  Q 128.26 193.80 128.39 198.35"
/>
<path stroke="#261604" vector-effect="non-scaling-stroke" d="
  M 324.39 292.69
  C 321.27 293.15 317.35 294.63 314.53 297.22
  C 300.05 310.52 303.81 328.31 314.01 342.92
  C 320.27 351.87 332.36 357.63 342.85 352.61
  C 349.79 349.30 355.07 343.38 356.65 335.84
  Q 357.46 332.01 358.13 329.66
  A 4.44 4.07 56.5 0 0 358.29 328.65
  Q 358.92 314.59 350.56 302.61
  Q 346.62 296.96 339.73 293.98
  Q 336.10 292.42 331.02 292.45
  Q 325.79 292.48 324.39 292.69"
/>
<path stroke="#261604" vector-effect="non-scaling-stroke" d="
  M 324.89 306.62
  Q 321.01 306.34 318.76 306.52
  A 3.02 3.01 -79.5 0 0 316.26 308.24
  C 314.24 312.45 315.65 314.20 319.59 316.36
  C 324.76 319.18 329.48 321.63 330.79 326.27
  Q 333.13 334.56 334.52 340.92
  A 2.75 2.74 83.9 0 0 337.20 343.09
  L 342.26 343.09
  A 2.64 2.63 -83.9 0 0 344.83 341.01
  Q 345.74 336.81 344.42 332.87
  Q 341.96 325.53 339.56 318.71
  A 2.09 2.08 -29.7 0 1 340.19 316.42
  C 342.66 314.37 346.15 309.11 344.76 305.62
  Q 343.72 303.02 342.08 302.48
  Q 337.35 300.92 334.95 304.13
  C 333.50 306.08 333.69 310.20 330.45 310.19
  C 328.03 310.18 327.00 306.77 324.89 306.62"
/>
</g>
<path fill="#000000" d="
  M 124.80 389.58
  Q 118.78 383.40 117.41 381.98
  Q 108.13 372.34 103.41 360.32
  C 97.72 345.81 97.82 328.93 101.53 313.61
  C 103.72 304.59 109.30 296.79 108.93 287.26
  C 108.26 270.06 109.94 254.56 118.16 239.18
  A 1.53 1.53 0.0 0 0 117.66 237.19
  C 115.08 235.46 112.44 234.21 110.28 232.05
  C 101.87 223.64 95.01 213.27 93.99 201.41
  Q 93.28 193.01 94.04 186.60
  C 95.46 174.51 104.25 163.72 114.02 156.70
  Q 122.23 150.79 132.78 150.31
  C 138.57 150.04 144.46 149.95 150.08 151.69
  Q 165.04 156.33 175.78 168.14
  A 1.61 1.60 -37.4 0 0 177.84 168.41
  Q 184.70 163.99 193.41 159.93
  C 196.93 158.29 201.05 157.33 205.27 155.89
  A 1.37 1.37 0.0 0 0 206.13 154.17
  C 205.86 153.30 205.16 152.39 204.95 151.33
  Q 203.09 142.06 203.92 135.35
  C 204.79 128.30 210.90 121.22 216.95 117.30
  C 224.03 112.72 232.66 111.73 239.92 116.07
  C 243.45 118.17 243.98 119.56 245.73 123.37
  A 1.94 1.93 75.2 0 0 247.66 124.50
  C 250.72 124.25 254.16 122.97 257.45 123.25
  C 264.78 123.88 271.16 128.38 274.51 134.64
  C 276.16 137.72 276.57 141.25 277.38 144.46
  A 2.13 2.07 -75.1 0 0 277.91 145.41
  C 281.85 149.51 285.72 153.78 290.59 154.91
  Q 299.00 156.85 307.04 160.46
  Q 309.56 161.59 311.20 159.20
  C 313.49 155.84 315.08 152.99 317.91 150.15
  Q 326.95 141.08 339.53 136.48
  C 354.67 130.95 369.66 133.35 383.74 141.06
  Q 393.82 146.58 399.16 159.36
  C 403.35 169.40 402.50 177.68 399.00 187.72
  Q 391.93 207.93 373.08 217.75
  A 1.32 1.32 0.0 0 0 372.65 219.74
  Q 373.90 221.33 374.85 223.40
  Q 377.53 229.19 383.88 243.16
  C 387.95 252.10 388.91 262.56 395.86 269.13
  C 403.11 275.98 408.59 280.68 413.63 288.44
  Q 416.69 293.15 418.48 300.25
  C 421.44 311.95 424.01 321.57 421.96 332.46
  A 0.45 0.45 0.0 0 0 422.37 333.00
  Q 436.04 333.91 442.93 334.35
  Q 450.20 334.81 455.82 336.86
  C 473.21 343.20 488.64 358.69 491.30 377.73
  Q 493.05 390.29 491.05 399.41
  Q 488.60 410.58 481.17 421.94
  C 475.01 431.34 464.77 440.81 453.68 443.75
  A 1.50 1.49 -7.6 0 0 452.57 445.19
  L 452.57 447.82
  A 2.61 2.60 57.2 0 1 452.34 448.89
  C 450.69 452.44 449.87 457.21 448.23 461.09
  Q 446.03 466.30 443.81 472.53
  C 442.95 474.95 438.70 480.23 436.57 482.40
  C 429.07 490.03 420.04 498.03 410.48 502.41
  C 404.03 505.35 398.23 508.01 391.55 509.03
  Q 389.38 509.37 383.92 509.37
  Q 125.36 509.57 85.75 509.64
  Q 82.76 509.64 81.59 507.22
  Q 79.89 503.70 78.95 498.92
  C 78.29 495.55 79.98 491.55 79.89 487.84
  A 5.33 5.15 -37.9 0 1 80.13 486.15
  C 81.37 482.19 82.15 476.99 83.15 473.19
  Q 86.51 460.49 92.59 446.82
  Q 99.79 430.67 104.21 422.17
  Q 113.39 404.54 124.84 390.65
  A 0.80 0.79 43.1 0 0 124.80 389.58
  Z
  M 290.60 171.46
  A 1.75 1.74 -66.4 0 0 288.54 172.27
  Q 287.24 174.61 285.69 178.35
  C 284.61 180.94 281.27 184.24 278.13 185.78
  Q 271.24 189.19 263.53 188.85
  C 258.13 188.62 253.06 186.20 253.35 179.98
  C 253.75 171.52 262.16 172.05 268.36 172.09
  C 272.11 172.12 273.67 170.66 275.04 167.68
  Q 275.75 166.13 274.01 164.02
  C 269.30 158.30 261.53 165.08 258.42 161.62
  Q 255.49 158.36 256.15 154.02
  C 256.84 149.44 263.75 146.59 258.82 141.90
  C 255.67 138.91 254.06 139.33 250.97 142.21
  A 3.52 3.32 85.6 0 0 250.34 142.99
  L 247.62 147.53
  A 3.89 3.87 3.9 0 1 245.85 149.07
  C 240.54 151.33 233.95 150.51 233.57 143.50
  Q 233.37 139.72 233.41 135.99
  C 233.44 132.41 231.66 130.30 228.73 128.93
  Q 226.80 128.03 224.54 129.37
  C 216.07 134.41 217.90 144.56 221.54 152.04
  C 223.10 155.24 226.74 156.85 225.37 161.36
  Q 224.21 165.16 221.59 167.29
  Q 219.84 168.72 215.08 169.83
  Q 204.51 172.28 196.26 176.77
  Q 191.13 179.56 182.61 185.39
  A 6.79 6.58 -69.5 0 1 180.67 186.31
  Q 176.19 187.61 171.01 186.77
  A 3.86 3.86 0.0 0 1 168.90 185.69
  Q 164.70 181.48 161.99 178.52
  C 153.93 169.69 139.83 162.67 128.39 167.50
  Q 118.93 171.48 113.30 180.69
  C 111.06 184.36 110.08 188.94 108.92 192.93
  A 3.68 3.62 46.9 0 0 108.87 194.79
  C 109.79 198.64 110.23 201.85 111.59 205.19
  Q 115.63 215.07 124.19 221.55
  Q 125.27 222.37 133.11 227.59
  C 139.49 231.83 138.28 238.10 134.70 244.22
  C 132.69 247.66 130.02 252.11 128.68 256.02
  Q 125.43 265.45 125.30 273.02
  C 125.14 282.08 125.90 291.83 123.76 300.78
  C 122.48 306.16 118.45 312.46 117.23 317.76
  C 114.89 327.92 114.22 339.50 116.93 349.03
  C 120.77 362.50 129.12 371.80 140.22 379.73
  C 146.29 384.06 145.34 392.33 140.94 397.44
  Q 127.59 412.96 118.84 430.55
  C 110.91 446.52 103.26 461.01 99.34 476.29
  Q 98.20 480.73 95.75 491.75
  C 95.01 495.08 95.95 495.86 99.12 495.83
  C 103.07 495.79 107.10 496.62 110.99 496.63
  Q 173.59 496.79 219.78 496.52
  Q 219.86 496.52 223.52 496.54
  Q 257.68 496.76 318.35 496.66
  C 324.61 496.65 330.75 495.95 336.91 495.43
  C 343.37 494.88 350.42 496.12 357.29 495.39
  C 365.76 494.50 374.74 495.39 383.29 494.32
  C 406.71 491.37 429.09 471.44 435.30 448.95
  C 437.72 440.18 437.27 432.76 433.43 424.79
  C 428.77 415.09 423.42 408.07 413.76 403.22
  Q 400.10 396.36 385.03 398.50
  C 379.83 399.23 373.17 401.39 368.36 402.91
  C 360.32 405.45 351.32 407.33 343.36 408.65
  Q 323.77 411.90 302.71 408.43
  C 299.10 407.84 297.76 407.01 296.25 403.96
  Q 294.87 401.14 296.18 397.99
  Q 298.82 391.63 306.26 392.55
  Q 330.99 395.60 354.20 389.54
  Q 365.41 386.61 372.98 381.64
  C 385.43 373.46 395.67 362.47 401.54 348.24
  C 405.02 339.81 405.51 333.81 406.94 324.25
  Q 407.46 320.80 406.61 317.63
  Q 405.88 314.92 405.56 312.89
  Q 403.41 299.21 393.22 289.27
  Q 388.06 284.23 385.72 282.12
  C 380.52 277.42 376.52 271.39 374.60 265.70
  Q 369.16 249.55 362.72 235.88
  Q 354.90 219.24 341.92 204.40
  Q 339.23 201.31 334.41 197.43
  C 320.49 186.22 307.09 176.89 290.60 171.46
  Z
  M 327.15 164.75
  L 324.83 167.95
  A 1.28 1.27 -53.3 0 0 325.08 169.70
  L 341.99 182.81
  A 0.98 0.98 0.0 0 0 343.50 182.42
  L 345.34 178.06
  L 346.67 178.45
  A 0.37 0.37 0.0 0 1 346.93 178.72
  Q 347.07 179.36 347.79 179.13
  A 0.99 0.93 -80.5 0 0 348.29 178.75
  L 351.08 174.60
  A 1.29 1.13 -5.6 0 1 351.39 174.27
  L 356.40 170.45
  A 3.95 3.94 -70.8 0 1 357.82 169.76
  Q 362.42 168.58 363.26 168.65
  Q 368.44 169.10 368.82 174.49
  Q 368.99 177.08 368.10 178.33
  C 366.51 180.56 362.68 182.43 360.89 184.76
  C 359.62 186.40 357.79 188.71 358.19 190.54
  A 0.24 0.23 -11.8 0 0 358.46 190.71
  Q 358.58 190.68 358.63 190.68
  A 0.70 0.68 73.0 0 1 359.33 191.06
  Q 359.72 191.86 359.53 192.80
  Q 358.07 193.77 356.55 194.07
  A 1.00 1.00 0.0 0 0 355.95 195.66
  L 361.99 203.60
  A 1.54 1.53 -27.2 0 0 363.67 204.13
  Q 365.91 203.41 367.65 202.09
  C 378.42 196.12 388.39 179.74 384.73 167.74
  C 381.43 156.93 371.39 151.09 360.27 149.53
  C 349.63 148.05 341.99 152.22 333.51 158.00
  Q 329.63 160.65 327.15 164.75
  Z
  M 404.21 376.08
  L 400.06 380.64
  A 0.91 0.91 0.0 0 0 400.50 382.13
  L 418.34 387.04
  A 1.26 1.24 -55.2 0 0 419.41 386.84
  L 425.53 382.26
  L 435.16 382.40
  A 1.55 1.52 -26.6 0 1 436.06 382.69
  Q 442.44 387.16 440.96 394.96
  Q 441.56 399.14 438.89 401.21
  A 1.03 1.02 53.8 0 0 438.68 402.60
  C 443.87 410.18 448.53 417.13 451.18 425.86
  A 0.96 0.95 69.3 0 0 452.48 426.45
  Q 454.55 425.54 455.91 424.26
  Q 468.56 414.87 473.51 401.71
  Q 480.82 382.24 467.98 365.52
  C 460.05 355.20 446.84 347.84 434.15 348.44
  C 428.94 348.68 418.68 351.42 415.88 356.64
  C 412.27 363.37 409.14 370.08 404.21 376.08
  Z"
/>
<path fill="#bf8167" d="
  M 290.60 171.46
  C 307.09 176.89 320.49 186.22 334.41 197.43
  Q 339.23 201.31 341.92 204.40
  Q 354.90 219.24 362.72 235.88
  Q 369.16 249.55 374.60 265.70
  C 376.52 271.39 380.52 277.42 385.72 282.12
  Q 388.06 284.23 393.22 289.27
  Q 403.41 299.21 405.56 312.89
  Q 405.88 314.92 406.61 317.63
  Q 407.46 320.80 406.94 324.25
  C 405.51 333.81 405.02 339.81 401.54 348.24
  C 395.67 362.47 385.43 373.46 372.98 381.64
  Q 365.41 386.61 354.20 389.54
  Q 330.99 395.60 306.26 392.55
  Q 298.82 391.63 296.18 397.99
  Q 294.87 401.14 296.25 403.96
  C 297.76 407.01 299.10 407.84 302.71 408.43
  Q 323.77 411.90 343.36 408.65
  C 351.32 407.33 360.32 405.45 368.36 402.91
  C 373.17 401.39 379.83 399.23 385.03 398.50
  Q 400.10 396.36 413.76 403.22
  C 423.42 408.07 428.77 415.09 433.43 424.79
  C 437.27 432.76 437.72 440.18 435.30 448.95
  C 429.09 471.44 406.71 491.37 383.29 494.32
  C 374.74 495.39 365.76 494.50 357.29 495.39
  C 350.42 496.12 343.37 494.88 336.91 495.43
  C 330.75 495.95 324.61 496.65 318.35 496.66
  Q 257.68 496.76 223.52 496.54
  Q 219.86 496.52 219.78 496.52
  Q 173.59 496.79 110.99 496.63
  C 107.10 496.62 103.07 495.79 99.12 495.83
  C 95.95 495.86 95.01 495.08 95.75 491.75
  Q 98.20 480.73 99.34 476.29
  C 103.26 461.01 110.91 446.52 118.84 430.55
  Q 127.59 412.96 140.94 397.44
  C 145.34 392.33 146.29 384.06 140.22 379.73
  C 129.12 371.80 120.77 362.50 116.93 349.03
  C 114.22 339.50 114.89 327.92 117.23 317.76
  C 118.45 312.46 122.48 306.16 123.76 300.78
  C 125.90 291.83 125.14 282.08 125.30 273.02
  Q 125.43 265.45 128.68 256.02
  C 130.02 252.11 132.69 247.66 134.70 244.22
  C 138.28 238.10 139.49 231.83 133.11 227.59
  Q 125.27 222.37 124.19 221.55
  Q 115.63 215.07 111.59 205.19
  C 110.23 201.85 109.79 198.64 108.87 194.79
  A 3.68 3.62 46.9 0 1 108.92 192.93
  C 110.08 188.94 111.06 184.36 113.30 180.69
  Q 118.93 171.48 128.39 167.50
  C 139.83 162.67 153.93 169.69 161.99 178.52
  Q 164.70 181.48 168.90 185.69
  A 3.86 3.86 0.0 0 0 171.01 186.77
  Q 176.19 187.61 180.67 186.31
  A 6.79 6.58 -69.5 0 0 182.61 185.39
  Q 191.13 179.56 196.26 176.77
  Q 204.51 172.28 215.08 169.83
  Q 219.84 168.72 221.59 167.29
  Q 224.21 165.16 225.37 161.36
  C 226.74 156.85 223.10 155.24 221.54 152.04
  C 217.90 144.56 216.07 134.41 224.54 129.37
  Q 226.80 128.03 228.73 128.93
  C 231.66 130.30 233.44 132.41 233.41 135.99
  Q 233.37 139.72 233.57 143.50
  C 233.95 150.51 240.54 151.33 245.85 149.07
  A 3.89 3.87 3.9 0 0 247.62 147.53
  L 250.34 142.99
  A 3.52 3.32 85.6 0 1 250.97 142.21
  C 254.06 139.33 255.67 138.91 258.82 141.90
  C 263.75 146.59 256.84 149.44 256.15 154.02
  Q 255.49 158.36 258.42 161.62
  C 261.53 165.08 269.30 158.30 274.01 164.02
  Q 275.75 166.13 275.04 167.68
  C 273.67 170.66 272.11 172.12 268.36 172.09
  C 262.16 172.05 253.75 171.52 253.35 179.98
  C 253.06 186.20 258.13 188.62 263.53 188.85
  Q 271.24 189.19 278.13 185.78
  C 281.27 184.24 284.61 180.94 285.69 178.35
  Q 287.24 174.61 288.54 172.27
  A 1.75 1.74 -66.4 0 1 290.60 171.46
  Z
  M 163.3626 213.6340
  A 20.34 13.65 34.0 0 0 154.1330 190.9436
  A 20.34 13.65 34.0 0 0 129.6374 190.8860
  A 20.34 13.65 34.0 0 0 138.8670 213.5764
  A 20.34 13.65 34.0 0 0 163.3626 213.6340
  Z
  M 370.36 275.11
  Q 370.68 272.97 370.51 270.70
  C 370.03 264.48 362.10 265.01 357.30 265.51
  Q 352.80 265.98 349.21 270.83
  A 2.70 2.69 -24.2 0 0 348.70 272.17
  C 348.27 276.79 348.63 280.31 353.48 281.08
  C 355.75 281.44 359.12 278.30 361.36 278.06
  C 364.69 277.70 368.35 277.81 369.97 275.96
  A 1.68 1.65 -20.8 0 0 370.36 275.11
  Z
  M 337.43 282.09
  Q 334.67 282.01 322.50 282.03
  C 317.37 282.03 308.92 286.33 305.50 290.11
  Q 298.21 298.16 296.18 305.04
  Q 291.48 320.88 298.16 337.16
  Q 303.09 349.18 313.38 357.67
  C 319.89 363.05 326.64 364.67 334.73 365.13
  C 350.67 366.02 363.59 353.36 367.09 338.33
  C 371.08 321.19 368.08 303.69 355.13 291.31
  C 352.55 288.85 350.08 286.36 346.92 285.10
  Q 343.98 283.93 339.23 282.40
  A 6.69 6.61 54.4 0 0 337.43 282.09
  Z
  M 257.00 306.77
  Q 257.39 309.31 260.76 310.90
  Q 261.03 311.02 265.34 310.80
  A 2.41 2.39 -67.3 0 0 266.84 310.18
  Q 268.86 308.35 272.07 307.85
  A 1.96 1.95 48.2 0 1 272.92 307.90
  Q 277.00 309.10 280.21 306.48
  C 281.67 305.29 281.48 304.02 281.55 302.32
  Q 281.73 297.96 278.77 296.50
  Q 273.80 294.05 267.12 295.65
  C 261.25 297.06 255.97 300.05 257.00 306.77
  Z"
/>
<path fill="#bf8167" d="
  M 367.65 202.09
  L 361.15 191.88
  C 366.44 186.40 372.07 181.02 370.50 172.51
  C 369.06 164.75 361.32 162.39 354.89 166.18
  Q 349.10 169.60 346.02 175.79
  Q 345.00 176.84 344.10 176.18
  Q 334.82 169.42 327.15 164.75
  Q 329.63 160.65 333.51 158.00
  C 341.99 152.22 349.63 148.05 360.27 149.53
  C 371.39 151.09 381.43 156.93 384.73 167.74
  C 388.39 179.74 378.42 196.12 367.65 202.09
  Z"
/>
<path fill="#8f412a" d="
  M 327.15 164.75
  Q 334.82 169.42 344.10 176.18
  Q 345.00 176.84 346.02 175.79
  Q 345.48 176.80 345.34 178.06
  L 343.50 182.42
  A 0.98 0.98 0.0 0 1 341.99 182.81
  L 325.08 169.70
  A 1.28 1.27 -53.3 0 1 324.83 167.95
  L 327.15 164.75
  Z"
/>
<path fill="#4c2b08" d="
  M 361.15 191.88
  L 359.53 192.80
  Q 359.72 191.86 359.33 191.06
  A 0.70 0.68 73.0 0 0 358.63 190.68
  Q 358.58 190.68 358.46 190.71
  A 0.24 0.23 -11.8 0 1 358.19 190.54
  C 357.79 188.71 359.62 186.40 360.89 184.76
  C 362.68 182.43 366.51 180.56 368.10 178.33
  Q 368.99 177.08 368.82 174.49
  Q 368.44 169.10 363.26 168.65
  Q 362.42 168.58 357.82 169.76
  A 3.95 3.94 -70.8 0 0 356.40 170.45
  L 351.39 174.27
  A 1.29 1.13 -5.6 0 0 351.08 174.60
  L 348.29 178.75
  A 0.99 0.93 -80.5 0 1 347.79 179.13
  Q 347.07 179.36 346.93 178.72
  A 0.37 0.37 0.0 0 0 346.67 178.45
  L 345.34 178.06
  Q 345.48 176.80 346.02 175.79
  Q 349.10 169.60 354.89 166.18
  C 361.32 162.39 369.06 164.75 370.50 172.51
  C 372.07 181.02 366.44 186.40 361.15 191.88
  Z"
/>
<path fill="#4c2b08" d="
  M 163.3626 213.6340
  A 20.34 13.65 34.0 0 1 138.8670 213.5764
  A 20.34 13.65 34.0 0 1 129.6374 190.8860
  A 20.34 13.65 34.0 0 1 154.1330 190.9436
  A 20.34 13.65 34.0 0 1 163.3626 213.6340
  Z
  M 128.39 198.35
  Q 128.47 201.03 130.25 202.78
  A 2.02 2.01 75.0 0 0 131.09 203.27
  C 135.50 204.51 139.89 206.16 143.74 209.58
  Q 146.66 212.17 148.60 212.78
  C 152.22 213.92 154.87 213.39 157.25 210.30
  A 1.39 1.37 -26.8 0 0 157.53 209.47
  L 157.53 204.61
  A 1.44 1.43 24.1 0 0 157.16 203.65
  Q 149.87 195.43 139.70 192.62
  Q 135.88 191.56 132.75 192.48
  Q 128.26 193.80 128.39 198.35
  Z"
/>
<path fill="#8f412a" d="
  M 361.15 191.88
  L 367.65 202.09
  Q 365.91 203.41 363.67 204.13
  A 1.54 1.53 -27.2 0 1 361.99 203.60
  L 355.95 195.66
  A 1.00 1.00 0.0 0 1 356.55 194.07
  Q 358.07 193.77 359.53 192.80
  L 361.15 191.88
  Z"
/>
<path fill="#000000" d="
  M 128.39 198.35
  Q 128.26 193.80 132.75 192.48
  Q 135.88 191.56 139.70 192.62
  Q 149.87 195.43 157.16 203.65
  A 1.44 1.43 24.1 0 1 157.53 204.61
  L 157.53 209.47
  A 1.39 1.37 -26.8 0 1 157.25 210.30
  C 154.87 213.39 152.22 213.92 148.60 212.78
  Q 146.66 212.17 143.74 209.58
  C 139.89 206.16 135.50 204.51 131.09 203.27
  A 2.02 2.01 75.0 0 1 130.25 202.78
  Q 128.47 201.03 128.39 198.35
  Z"
/>
<path fill="#000000" d="
  M 369.97 275.96
  C 368.35 277.81 364.69 277.70 361.36 278.06
  C 359.12 278.30 355.75 281.44 353.48 281.08
  C 348.63 280.31 348.27 276.79 348.70 272.17
  A 2.70 2.69 -24.2 0 1 349.21 270.83
  Q 352.80 265.98 357.30 265.51
  C 362.10 265.01 370.03 264.48 370.51 270.70
  Q 370.68 272.97 370.36 275.11
  A 1.68 1.65 -20.8 0 1 369.97 275.96
  Z"
/>
<path fill="#000000" d="
  M 339.23 282.40
  Q 343.98 283.93 346.92 285.10
  C 350.08 286.36 352.55 288.85 355.13 291.31
  C 368.08 303.69 371.08 321.19 367.09 338.33
  C 363.59 353.36 350.67 366.02 334.73 365.13
  C 326.64 364.67 319.89 363.05 313.38 357.67
  Q 303.09 349.18 298.16 337.16
  Q 291.48 320.88 296.18 305.04
  Q 298.21 298.16 305.50 290.11
  C 308.92 286.33 317.37 282.03 322.50 282.03
  Q 334.67 282.01 337.43 282.09
  A 6.69 6.61 54.4 0 1 339.23 282.40
  Z
  M 324.39 292.69
  C 321.27 293.15 317.35 294.63 314.53 297.22
  C 300.05 310.52 303.81 328.31 314.01 342.92
  C 320.27 351.87 332.36 357.63 342.85 352.61
  C 349.79 349.30 355.07 343.38 356.65 335.84
  Q 357.46 332.01 358.13 329.66
  A 4.44 4.07 56.5 0 0 358.29 328.65
  Q 358.92 314.59 350.56 302.61
  Q 346.62 296.96 339.73 293.98
  Q 336.10 292.42 331.02 292.45
  Q 325.79 292.48 324.39 292.69
  Z"
/>
<path fill="#4c2b08" d="
  M 324.39 292.69
  Q 325.79 292.48 331.02 292.45
  Q 336.10 292.42 339.73 293.98
  Q 346.62 296.96 350.56 302.61
  Q 358.92 314.59 358.29 328.65
  A 4.44 4.07 56.5 0 1 358.13 329.66
  Q 357.46 332.01 356.65 335.84
  C 355.07 343.38 349.79 349.30 342.85 352.61
  C 332.36 357.63 320.27 351.87 314.01 342.92
  C 303.81 328.31 300.05 310.52 314.53 297.22
  C 317.35 294.63 321.27 293.15 324.39 292.69
  Z
  M 324.89 306.62
  Q 321.01 306.34 318.76 306.52
  A 3.02 3.01 -79.5 0 0 316.26 308.24
  C 314.24 312.45 315.65 314.20 319.59 316.36
  C 324.76 319.18 329.48 321.63 330.79 326.27
  Q 333.13 334.56 334.52 340.92
  A 2.75 2.74 83.9 0 0 337.20 343.09
  L 342.26 343.09
  A 2.64 2.63 -83.9 0 0 344.83 341.01
  Q 345.74 336.81 344.42 332.87
  Q 341.96 325.53 339.56 318.71
  A 2.09 2.08 -29.7 0 1 340.19 316.42
  C 342.66 314.37 346.15 309.11 344.76 305.62
  Q 343.72 303.02 342.08 302.48
  Q 337.35 300.92 334.95 304.13
  C 333.50 306.08 333.69 310.20 330.45 310.19
  C 328.03 310.18 327.00 306.77 324.89 306.62
  Z"
/>
<path fill="#000000" d="
  M 257.00 306.77
  C 255.97 300.05 261.25 297.06 267.12 295.65
  Q 273.80 294.05 278.77 296.50
  Q 281.73 297.96 281.55 302.32
  C 281.48 304.02 281.67 305.29 280.21 306.48
  Q 277.00 309.10 272.92 307.90
  A 1.96 1.95 48.2 0 0 272.07 307.85
  Q 268.86 308.35 266.84 310.18
  A 2.41 2.39 -67.3 0 1 265.34 310.80
  Q 261.03 311.02 260.76 310.90
  Q 257.39 309.31 257.00 306.77
  Z"
/>
<path fill="#000000" d="
  M 324.89 306.62
  C 327.00 306.77 328.03 310.18 330.45 310.19
  C 333.69 310.20 333.50 306.08 334.95 304.13
  Q 337.35 300.92 342.08 302.48
  Q 343.72 303.02 344.76 305.62
  C 346.15 309.11 342.66 314.37 340.19 316.42
  A 2.09 2.08 -29.7 0 0 339.56 318.71
  Q 341.96 325.53 344.42 332.87
  Q 345.74 336.81 344.83 341.01
  A 2.64 2.63 -83.9 0 1 342.26 343.09
  L 337.20 343.09
  A 2.75 2.74 83.9 0 1 334.52 340.92
  Q 333.13 334.56 330.79 326.27
  C 329.48 321.63 324.76 319.18 319.59 316.36
  C 315.65 314.20 314.24 312.45 316.26 308.24
  A 3.02 3.01 -79.5 0 1 318.76 306.52
  Q 321.01 306.34 324.89 306.62
  Z"
/>
<path fill="#bf8167" d="
  M 455.91 424.26
  Q 453.71 412.27 447.01 403.73
  Q 442.98 398.59 440.96 394.96
  Q 442.44 387.16 436.06 382.69
  A 1.55 1.52 -26.6 0 0 435.16 382.40
  L 425.53 382.26
  Q 422.51 382.61 421.07 381.95
  Q 413.07 378.30 404.21 376.08
  C 409.14 370.08 412.27 363.37 415.88 356.64
  C 418.68 351.42 428.94 348.68 434.15 348.44
  C 446.84 347.84 460.05 355.20 467.98 365.52
  Q 480.82 382.24 473.51 401.71
  Q 468.56 414.87 455.91 424.26
  Z"
/>
<path fill="#8f412a" d="
  M 404.21 376.08
  Q 413.07 378.30 421.07 381.95
  Q 422.51 382.61 425.53 382.26
  L 419.41 386.84
  A 1.26 1.24 -55.2 0 1 418.34 387.04
  L 400.50 382.13
  A 0.91 0.91 0.0 0 1 400.06 380.64
  L 404.21 376.08
  Z"
/>
<path fill="#8f412a" d="
  M 455.91 424.26
  Q 454.55 425.54 452.48 426.45
  A 0.96 0.95 69.3 0 1 451.18 425.86
  C 448.53 417.13 443.87 410.18 438.68 402.60
  A 1.03 1.02 53.8 0 1 438.89 401.21
  Q 441.56 399.14 440.96 394.96
  Q 442.98 398.59 447.01 403.73
  Q 453.71 412.27 455.91 424.26
  Z"
/>
</svg>
