<?xml version="1.0" encoding="UTF-8" standalone="no"?>
<!DOCTYPE svg PUBLIC "-//W3C//DTD SVG 1.1//EN" "http://www.w3.org/Graphics/SVG/1.1/DTD/svg11.dtd">
<svg xmlns="http://www.w3.org/2000/svg" version="1.1" viewBox="0.00 0.00 588.00 534.00">
<g stroke-width="2.00" fill="none" stroke-linecap="butt">
<path stroke="#3b2b27" vector-effect="non-scaling-stroke" d="
  M 272.53 155.92
  A 2.11 2.09 31.9 0 0 271.93 153.38
  Q 263.37 146.65 254.61 152.56
  C 246.37 158.11 239.19 165.13 232.06 173.06
  Q 203.93 204.32 181.02 236.98
  Q 169.54 253.35 158.09 274.09
  Q 156.45 277.07 151.89 286.27
  C 148.70 292.70 145.60 298.89 141.17 306.61
  Q 140.23 308.27 138.19 309.79
  Q 136.71 310.90 134.97 313.98
  C 132.57 318.24 130.35 322.72 127.67 327.05
  C 115.60 346.60 105.33 362.69 99.96 382.43
  C 97.74 390.59 95.71 403.07 99.02 410.27
  A 2.70 2.70 0.0 0 0 102.04 411.79
  C 107.57 410.63 112.58 405.66 116.16 401.15
  C 128.44 385.71 137.94 366.53 148.47 346.11
  C 152.60 338.10 158.49 328.04 162.77 319.73
  Q 163.80 317.74 169.77 306.77
  Q 173.29 300.32 176.49 293.65
  C 178.43 289.62 180.69 286.59 182.50 282.77
  Q 183.94 279.74 186.93 274.56
  C 192.45 264.97 197.51 255.38 204.08 245.34
  Q 210.97 234.81 219.32 222.56
  Q 224.08 215.58 243.20 191.44
  Q 248.77 184.41 267.29 163.56
  C 269.12 161.50 271.40 158.32 272.53 155.92"
/>
<path stroke="#3b4c79" vector-effect="non-scaling-stroke" d="
  M 357.99 370.84
  Q 361.82 369.22 363.81 368.80
  Q 377.18 366.01 386.00 362.45
  C 406.37 354.23 424.92 339.44 439.96 322.46
  Q 456.65 303.61 465.19 280.78
  Q 468.19 272.77 469.45 266.52
  Q 470.88 259.46 470.80 252.50
  C 470.70 243.81 471.35 236.16 469.16 227.72
  Q 466.63 217.96 465.55 215.25
  Q 460.26 201.97 446.39 195.15"
/>
<path stroke="#1b2e73" vector-effect="non-scaling-stroke" d="
  M 446.39 195.15
  Q 438.47 190.98 433.22 189.81
  Q 426.49 188.32 413.89 188.39
  Q 410.32 188.41 410.11 188.41
  C 406.78 188.26 404.67 189.18 400.98 189.29
  Q 398.41 189.36 395.63 190.14
  Q 390.56 191.57 381.92 194.33
  Q 374.36 196.75 368.76 199.84
  Q 357.87 205.84 348.45 213.82
  Q 341.50 219.69 334.52 229.08
  Q 326.38 240.01 323.07 246.30
  Q 320.83 250.55 317.33 258.63
  C 314.48 265.20 312.91 270.61 310.58 277.04
  C 310.18 278.13 309.88 280.44 309.38 281.93
  Q 306.21 291.44 305.97 293.22
  Q 305.52 296.50 304.98 302.09
  Q 304.64 305.54 303.72 310.87
  Q 302.48 318.06 303.44 323.86
  C 304.29 328.96 308.27 337.66 303.32 343.59
  Q 301.68 345.54 299.04 346.29
  C 290.74 348.65 283.65 352.50 277.81 359.03
  C 275.20 361.94 270.62 368.23 271.79 372.07
  Q 273.52 377.81 278.51 380.34
  Q 282.49 382.36 289.23 382.12
  Q 293.02 381.98 301.53 382.16
  A 4.51 4.50 -18.6 0 1 304.98 383.87
  Q 307.72 387.33 308.46 392.17
  A 7.39 6.74 33.6 0 0 308.79 393.49
  Q 309.35 395.02 311.33 400.61
  Q 312.21 403.10 316.32 407.89
  Q 323.52 416.26 334.69 414.09
  A 4.02 3.76 -62.5 0 0 335.82 413.69
  Q 343.25 409.64 345.35 407.19
  Q 350.02 401.75 352.56 392.66
  A 4.13 3.95 54.3 0 0 352.72 391.53
  Q 352.72 387.38 354.18 383.24
  A 6.00 5.97 56.6 0 0 354.52 381.57
  C 354.76 377.33 353.46 373.54 357.99 370.84"
/>
<path stroke="#567aec" vector-effect="non-scaling-stroke" d="
  M 446.39 195.15
  Q 446.15 195.94 445.72 196.37
  A 0.79 0.79 0.0 0 1 444.89 196.54
  Q 433.47 191.95 418.25 191.95
  Q 397.15 191.95 381.64 198.91
  C 357.38 209.81 335.98 231.66 324.63 255.06
  C 313.27 278.45 308.01 305.57 309.74 332.26
  Q 310.17 338.90 310.16 339.27
  A 2.83 2.82 67.4 0 1 309.40 341.12
  L 305.09 345.75
  A 3.74 3.68 9.3 0 1 303.84 346.63
  C 295.09 350.39 278.32 359.83 277.77 370.72
  C 277.52 375.65 281.78 379.05 286.28 379.71
  C 292.65 380.64 296.17 380.30 304.17 379.54
  C 308.79 379.11 310.77 381.02 311.48 385.85
  C 312.36 391.88 313.18 396.11 316.22 401.28
  C 322.12 411.27 333.57 410.72 342.16 404.95
  C 350.67 399.25 352.63 385.52 352.44 376.61
  C 352.35 372.43 352.87 369.17 357.99 370.84"
/>
<path stroke="#3b4c79" vector-effect="non-scaling-stroke" d="
  M 419.6758 210.5073
  A 7.31 7.06 -27.3 0 0 409.9419 207.5864
  A 7.31 7.06 -27.3 0 0 406.6842 217.2127
  A 7.31 7.06 -27.3 0 0 416.4181 220.1336
  A 7.31 7.06 -27.3 0 0 419.6758 210.5073"
/>
<path stroke="#baccf9" vector-effect="non-scaling-stroke" d="
  M 454.26 216.10
  C 451.30 216.90 451.58 219.07 452.44 221.77
  C 456.12 233.31 455.13 245.58 452.34 257.64
  Q 447.45 278.77 434.32 296.35
  Q 429.62 302.64 419.56 312.82
  A 3.76 3.75 -45.3 0 0 419.58 318.13
  L 419.69 318.24
  A 3.90 3.89 -43.7 0 0 425.07 318.35
  Q 458.93 287.46 461.98 243.13
  C 462.27 238.90 462.01 213.98 454.26 216.10"
/>
<path stroke="#3b4c79" vector-effect="non-scaling-stroke" d="
  M 371.27 242.16
  A 1.39 1.38 0.0 0 0 369.88 240.78
  L 362.61 240.78
  A 2.61 2.60 32.8 0 0 361.54 241.01
  Q 359.93 241.74 358.33 243.64
  C 355.07 247.49 354.67 251.89 354.53 257.18
  C 354.30 265.50 357.11 271.65 365.32 274.74
  C 367.70 275.63 370.30 275.65 373.45 275.87
  A 2.30 2.30 0.0 0 1 375.42 277.30
  C 378.78 285.57 383.21 292.57 392.24 295.85
  C 400.80 298.96 410.30 297.43 417.33 291.38
  C 422.05 287.31 424.62 284.83 423.50 278.23
  Q 423.19 276.40 421.66 275.71
  C 410.53 270.71 406.63 288.39 395.98 281.69
  C 391.84 279.09 389.38 274.31 388.34 269.38
  C 387.07 263.38 382.49 260.05 376.19 260.91
  Q 376.14 260.92 372.79 261.43
  A 2.58 2.53 48.1 0 1 371.72 261.36
  C 364.96 259.33 369.00 253.57 371.01 249.85
  A 2.24 2.20 -31.5 0 0 371.27 248.81
  L 371.27 242.16"
/>
<path stroke="#3b4c79" vector-effect="non-scaling-stroke" d="
  M 341.31 293.20
  C 342.72 287.87 339.68 284.04 333.86 285.45
  A 2.58 2.50 21.1 0 0 333.08 285.78
  Q 326.71 289.98 324.94 296.85
  Q 323.20 303.61 326.24 310.52
  Q 330.76 320.81 343.61 322.15
  A 2.02 2.00 -7.8 0 1 345.26 323.39
  C 350.38 335.76 359.55 342.39 373.20 340.01
  C 378.26 339.13 380.90 336.79 385.73 332.96
  C 389.03 330.35 389.93 327.41 389.64 323.57
  Q 389.51 321.85 387.85 320.64
  C 382.74 316.93 378.95 321.32 375.38 325.17
  A 3.54 3.42 5.8 0 1 374.53 325.84
  C 368.36 329.34 361.36 328.47 358.61 321.38
  Q 358.01 319.81 356.20 313.08
  C 354.76 307.76 346.77 310.38 343.76 309.52
  Q 339.06 308.17 337.58 305.13
  C 335.46 300.79 338.64 297.66 340.94 294.06
  A 3.14 3.06 69.0 0 0 341.31 293.20"
/>
<path stroke="#baccf9" vector-effect="non-scaling-stroke" d="
  M 411.1993 327.1400
  A 3.33 3.33 0.0 0 0 406.4934 326.9592
  L 401.5041 331.5794
  A 3.33 3.33 0.0 0 0 401.3233 336.2852
  L 401.5407 336.5200
  A 3.33 3.33 0.0 0 0 406.2466 336.7008
  L 411.2359 332.0806
  A 3.33 3.33 0.0 0 0 411.4167 327.3748
  L 411.1993 327.1400"
/>
</g>
<path fill="#000000" d="
  M 416.14 158.85
  A 1.74 1.73 26.6 0 0 415.30 156.35
  Q 412.97 155.41 411.20 155.28
  C 406.17 154.93 401.52 153.68 395.56 153.13
  Q 380.14 151.71 364.25 151.71
  Q 359.88 151.71 357.57 152.02
  C 351.29 152.89 343.80 152.47 338.74 153.19
  Q 315.97 156.44 294.30 162.81
  Q 290.35 163.97 286.87 166.20
  A 5.24 4.92 -83.6 0 0 285.79 167.12
  Q 260.51 195.53 243.67 217.42
  Q 227.69 238.18 211.02 265.00
  Q 209.15 268.00 202.39 280.81
  C 199.93 285.46 196.81 290.06 194.83 294.60
  Q 193.89 296.76 189.78 304.51
  C 184.81 313.87 180.10 323.62 175.18 331.80
  C 167.38 344.75 161.99 355.38 155.08 368.57
  Q 145.45 386.99 133.54 405.27
  Q 126.30 416.38 117.67 423.90
  C 113.00 427.96 104.40 431.67 98.05 429.80
  C 87.31 426.63 82.83 415.54 82.12 405.01
  C 80.37 378.93 94.82 352.68 107.95 330.95
  Q 123.84 304.66 131.96 289.16
  Q 147.47 259.55 150.32 254.88
  Q 166.07 229.12 176.16 216.15
  C 197.70 188.48 210.80 170.95 231.66 150.92
  C 238.47 144.38 245.49 137.93 255.10 135.12
  C 264.10 132.49 273.73 135.43 281.58 140.43
  Q 285.47 142.92 287.53 147.02
  A 2.04 2.03 65.8 0 0 290.11 148.00
  Q 295.92 145.68 302.43 144.17
  Q 316.84 140.82 323.44 139.68
  C 339.50 136.89 355.03 136.79 374.49 136.92
  Q 385.10 136.99 393.00 137.66
  Q 409.54 139.05 411.43 139.35
  Q 415.53 140.01 428.24 143.51
  C 430.95 144.25 436.36 141.50 438.89 140.33
  A 11.85 11.73 28.9 0 1 442.50 139.31
  Q 452.43 138.12 458.26 138.79
  Q 472.93 140.48 481.05 152.68
  C 486.91 161.50 487.94 172.24 485.62 182.33
  Q 485.04 184.87 482.84 189.38
  C 481.30 192.55 479.74 197.19 476.52 199.58
  A 1.04 1.04 0.0 0 0 476.23 200.90
  Q 483.48 214.43 485.92 230.05
  C 487.27 238.73 487.04 249.36 486.84 258.34
  Q 486.79 260.66 485.66 267.87
  Q 484.83 273.13 483.64 277.26
  C 474.49 309.13 454.87 335.04 429.36 355.86
  Q 409.12 372.37 384.65 380.46
  C 380.45 381.84 375.44 382.65 371.04 384.52
  A 2.22 2.22 0.0 0 0 369.70 386.43
  Q 368.94 399.15 363.63 409.43
  Q 357.92 420.46 347.56 426.54
  Q 330.54 436.52 310.71 425.14
  C 302.44 420.38 297.32 409.63 294.28 400.77
  Q 292.89 396.73 288.75 396.93
  Q 282.93 397.21 282.27 397.19
  C 272.94 396.78 264.73 392.87 259.70 384.82
  C 255.64 378.32 255.97 367.06 257.86 360.31
  C 261.23 348.29 275.58 337.36 286.97 333.01
  Q 288.78 332.31 288.62 330.04
  C 288.45 327.57 287.62 324.80 287.62 321.66
  Q 287.63 296.80 294.32 273.79
  Q 299.60 255.59 308.05 239.08
  C 320.76 214.29 341.77 193.03 367.64 182.44
  Q 382.10 176.51 397.63 173.30
  C 401.61 172.48 404.98 172.65 409.22 172.67
  A 2.89 2.89 0.0 0 0 412.13 169.82
  C 412.18 165.81 414.02 162.36 416.14 158.85
  Z
  M 272.53 155.92
  A 2.11 2.09 31.9 0 0 271.93 153.38
  Q 263.37 146.65 254.61 152.56
  C 246.37 158.11 239.19 165.13 232.06 173.06
  Q 203.93 204.32 181.02 236.98
  Q 169.54 253.35 158.09 274.09
  Q 156.45 277.07 151.89 286.27
  C 148.70 292.70 145.60 298.89 141.17 306.61
  Q 140.23 308.27 138.19 309.79
  Q 136.71 310.90 134.97 313.98
  C 132.57 318.24 130.35 322.72 127.67 327.05
  C 115.60 346.60 105.33 362.69 99.96 382.43
  C 97.74 390.59 95.71 403.07 99.02 410.27
  A 2.70 2.70 0.0 0 0 102.04 411.79
  C 107.57 410.63 112.58 405.66 116.16 401.15
  C 128.44 385.71 137.94 366.53 148.47 346.11
  C 152.60 338.10 158.49 328.04 162.77 319.73
  Q 163.80 317.74 169.77 306.77
  Q 173.29 300.32 176.49 293.65
  C 178.43 289.62 180.69 286.59 182.50 282.77
  Q 183.94 279.74 186.93 274.56
  C 192.45 264.97 197.51 255.38 204.08 245.34
  Q 210.97 234.81 219.32 222.56
  Q 224.08 215.58 243.20 191.44
  Q 248.77 184.41 267.29 163.56
  C 269.12 161.50 271.40 158.32 272.53 155.92
  Z
  M 428.43 172.37
  C 432.62 173.99 438.63 174.63 443.01 176.23
  Q 453.84 180.19 464.52 187.40
  A 1.18 1.18 0.0 0 0 466.25 186.92
  Q 467.70 183.77 469.63 178.43
  C 472.03 171.83 470.23 165.28 466.14 159.81
  C 463.80 156.67 460.15 155.29 456.49 154.28
  Q 453.22 153.37 451.42 153.62
  Q 434.56 155.94 427.95 171.25
  A 0.85 0.84 22.2 0 0 428.43 172.37
  Z
  M 357.99 370.84
  Q 361.82 369.22 363.81 368.80
  Q 377.18 366.01 386.00 362.45
  C 406.37 354.23 424.92 339.44 439.96 322.46
  Q 456.65 303.61 465.19 280.78
  Q 468.19 272.77 469.45 266.52
  Q 470.88 259.46 470.80 252.50
  C 470.70 243.81 471.35 236.16 469.16 227.72
  Q 466.63 217.96 465.55 215.25
  Q 460.26 201.97 446.39 195.15
  Q 438.47 190.98 433.22 189.81
  Q 426.49 188.32 413.89 188.39
  Q 410.32 188.41 410.11 188.41
  C 406.78 188.26 404.67 189.18 400.98 189.29
  Q 398.41 189.36 395.63 190.14
  Q 390.56 191.57 381.92 194.33
  Q 374.36 196.75 368.76 199.84
  Q 357.87 205.84 348.45 213.82
  Q 341.50 219.69 334.52 229.08
  Q 326.38 240.01 323.07 246.30
  Q 320.83 250.55 317.33 258.63
  C 314.48 265.20 312.91 270.61 310.58 277.04
  C 310.18 278.13 309.88 280.44 309.38 281.93
  Q 306.21 291.44 305.97 293.22
  Q 305.52 296.50 304.98 302.09
  Q 304.64 305.54 303.72 310.87
  Q 302.48 318.06 303.44 323.86
  C 304.29 328.96 308.27 337.66 303.32 343.59
  Q 301.68 345.54 299.04 346.29
  C 290.74 348.65 283.65 352.50 277.81 359.03
  C 275.20 361.94 270.62 368.23 271.79 372.07
  Q 273.52 377.81 278.51 380.34
  Q 282.49 382.36 289.23 382.12
  Q 293.02 381.98 301.53 382.16
  A 4.51 4.50 -18.6 0 1 304.98 383.87
  Q 307.72 387.33 308.46 392.17
  A 7.39 6.74 33.6 0 0 308.79 393.49
  Q 309.35 395.02 311.33 400.61
  Q 312.21 403.10 316.32 407.89
  Q 323.52 416.26 334.69 414.09
  A 4.02 3.76 -62.5 0 0 335.82 413.69
  Q 343.25 409.64 345.35 407.19
  Q 350.02 401.75 352.56 392.66
  A 4.13 3.95 54.3 0 0 352.72 391.53
  Q 352.72 387.38 354.18 383.24
  A 6.00 5.97 56.6 0 0 354.52 381.57
  C 354.76 377.33 353.46 373.54 357.99 370.84
  Z
  M 137.84 308.75
  Q 137.40 309.22 137.36 309.34
  A 0.25 0.25 0.0 0 0 137.78 309.57
  Q 137.80 309.55 138.11 308.93
  A 0.16 0.16 0.0 0 0 137.84 308.75
  Z"
/>
<path fill="#75564d" d="
  M 272.53 155.92
  C 271.40 158.32 269.12 161.50 267.29 163.56
  Q 248.77 184.41 243.20 191.44
  Q 224.08 215.58 219.32 222.56
  Q 210.97 234.81 204.08 245.34
  C 197.51 255.38 192.45 264.97 186.93 274.56
  Q 183.94 279.74 182.50 282.77
  C 180.69 286.59 178.43 289.62 176.49 293.65
  Q 173.29 300.32 169.77 306.77
  Q 163.80 317.74 162.77 319.73
  C 158.49 328.04 152.60 338.10 148.47 346.11
  C 137.94 366.53 128.44 385.71 116.16 401.15
  C 112.58 405.66 107.57 410.63 102.04 411.79
  A 2.70 2.70 0.0 0 1 99.02 410.27
  C 95.71 403.07 97.74 390.59 99.96 382.43
  C 105.33 362.69 115.60 346.60 127.67 327.05
  C 130.35 322.72 132.57 318.24 134.97 313.98
  Q 136.71 310.90 138.19 309.79
  Q 140.23 308.27 141.17 306.61
  C 145.60 298.89 148.70 292.70 151.89 286.27
  Q 156.45 277.07 158.09 274.09
  Q 169.54 253.35 181.02 236.98
  Q 203.93 204.32 232.06 173.06
  C 239.19 165.13 246.37 158.11 254.61 152.56
  Q 263.37 146.65 271.93 153.38
  A 2.11 2.09 31.9 0 1 272.53 155.92
  Z"
/>
<path fill="#365be6" d="
  M 446.39 195.15
  Q 446.15 195.94 445.72 196.37
  A 0.79 0.79 0.0 0 1 444.89 196.54
  Q 433.47 191.95 418.25 191.95
  Q 397.15 191.95 381.64 198.91
  C 357.38 209.81 335.98 231.66 324.63 255.06
  C 313.27 278.45 308.01 305.57 309.74 332.26
  Q 310.17 338.90 310.16 339.27
  A 2.83 2.82 67.4 0 1 309.40 341.12
  L 305.09 345.75
  A 3.74 3.68 9.3 0 1 303.84 346.63
  C 295.09 350.39 278.32 359.83 277.77 370.72
  C 277.52 375.65 281.78 379.05 286.28 379.71
  C 292.65 380.64 296.17 380.30 304.17 379.54
  C 308.79 379.11 310.77 381.02 311.48 385.85
  C 312.36 391.88 313.18 396.11 316.22 401.28
  C 322.12 411.27 333.57 410.72 342.16 404.95
  C 350.67 399.25 352.63 385.52 352.44 376.61
  C 352.35 372.43 352.87 369.17 357.99 370.84
  C 353.46 373.54 354.76 377.33 354.52 381.57
  A 6.00 5.97 56.6 0 1 354.18 383.24
  Q 352.72 387.38 352.72 391.53
  A 4.13 3.95 54.3 0 1 352.56 392.66
  Q 350.02 401.75 345.35 407.19
  Q 343.25 409.64 335.82 413.69
  A 4.02 3.76 -62.5 0 1 334.69 414.09
  Q 323.52 416.26 316.32 407.89
  Q 312.21 403.10 311.33 400.61
  Q 309.35 395.02 308.79 393.49
  A 7.39 6.74 33.6 0 1 308.46 392.17
  Q 307.72 387.33 304.98 383.87
  A 4.51 4.50 -18.6 0 0 301.53 382.16
  Q 293.02 381.98 289.23 382.12
  Q 282.49 382.36 278.51 380.34
  Q 273.52 377.81 271.79 372.07
  C 270.62 368.23 275.20 361.94 277.81 359.03
  C 283.65 352.50 290.74 348.65 299.04 346.29
  Q 301.68 345.54 303.32 343.59
  C 308.27 337.66 304.29 328.96 303.44 323.86
  Q 302.48 318.06 303.72 310.87
  Q 304.64 305.54 304.98 302.09
  Q 305.52 296.50 305.97 293.22
  Q 306.21 291.44 309.38 281.93
  C 309.88 280.44 310.18 278.13 310.58 277.04
  C 312.91 270.61 314.48 265.20 317.33 258.63
  Q 320.83 250.55 323.07 246.30
  Q 326.38 240.01 334.52 229.08
  Q 341.50 219.69 348.45 213.82
  Q 357.87 205.84 368.76 199.84
  Q 374.36 196.75 381.92 194.33
  Q 390.56 191.57 395.63 190.14
  Q 398.41 189.36 400.98 189.29
  C 404.67 189.18 406.78 188.26 410.11 188.41
  Q 410.32 188.41 413.89 188.39
  Q 426.49 188.32 433.22 189.81
  Q 438.47 190.98 446.39 195.15
  Z"
/>
<path fill="#7598f2" d="
  M 446.39 195.15
  Q 460.26 201.97 465.55 215.25
  Q 466.63 217.96 469.16 227.72
  C 471.35 236.16 470.70 243.81 470.80 252.50
  Q 470.88 259.46 469.45 266.52
  Q 468.19 272.77 465.19 280.78
  Q 456.65 303.61 439.96 322.46
  C 424.92 339.44 406.37 354.23 386.00 362.45
  Q 377.18 366.01 363.81 368.80
  Q 361.82 369.22 357.99 370.84
  C 352.87 369.17 352.35 372.43 352.44 376.61
  C 352.63 385.52 350.67 399.25 342.16 404.95
  C 333.57 410.72 322.12 411.27 316.22 401.28
  C 313.18 396.11 312.36 391.88 311.48 385.85
  C 310.77 381.02 308.79 379.11 304.17 379.54
  C 296.17 380.30 292.65 380.64 286.28 379.71
  C 281.78 379.05 277.52 375.65 277.77 370.72
  C 278.32 359.83 295.09 350.39 303.84 346.63
  A 3.74 3.68 9.3 0 0 305.09 345.75
  L 309.40 341.12
  A 2.83 2.82 67.4 0 0 310.16 339.27
  Q 310.17 338.90 309.74 332.26
  C 308.01 305.57 313.27 278.45 324.63 255.06
  C 335.98 231.66 357.38 209.81 381.64 198.91
  Q 397.15 191.95 418.25 191.95
  Q 433.47 191.95 444.89 196.54
  A 0.79 0.79 0.0 0 0 445.72 196.37
  Q 446.15 195.94 446.39 195.15
  Z
  M 419.6758 210.5073
  A 7.31 7.06 -27.3 0 0 409.9419 207.5864
  A 7.31 7.06 -27.3 0 0 406.6842 217.2127
  A 7.31 7.06 -27.3 0 0 416.4181 220.1336
  A 7.31 7.06 -27.3 0 0 419.6758 210.5073
  Z
  M 454.26 216.10
  C 451.30 216.90 451.58 219.07 452.44 221.77
  C 456.12 233.31 455.13 245.58 452.34 257.64
  Q 447.45 278.77 434.32 296.35
  Q 429.62 302.64 419.56 312.82
  A 3.76 3.75 -45.3 0 0 419.58 318.13
  L 419.69 318.24
  A 3.90 3.89 -43.7 0 0 425.07 318.35
  Q 458.93 287.46 461.98 243.13
  C 462.27 238.90 462.01 213.98 454.26 216.10
  Z
  M 371.27 242.16
  A 1.39 1.38 0.0 0 0 369.88 240.78
  L 362.61 240.78
  A 2.61 2.60 32.8 0 0 361.54 241.01
  Q 359.93 241.74 358.33 243.64
  C 355.07 247.49 354.67 251.89 354.53 257.18
  C 354.30 265.50 357.11 271.65 365.32 274.74
  C 367.70 275.63 370.30 275.65 373.45 275.87
  A 2.30 2.30 0.0 0 1 375.42 277.30
  C 378.78 285.57 383.21 292.57 392.24 295.85
  C 400.80 298.96 410.30 297.43 417.33 291.38
  C 422.05 287.31 424.62 284.83 423.50 278.23
  Q 423.19 276.40 421.66 275.71
  C 410.53 270.71 406.63 288.39 395.98 281.69
  C 391.84 279.09 389.38 274.31 388.34 269.38
  C 387.07 263.38 382.49 260.05 376.19 260.91
  Q 376.14 260.92 372.79 261.43
  A 2.58 2.53 48.1 0 1 371.72 261.36
  C 364.96 259.33 369.00 253.57 371.01 249.85
  A 2.24 2.20 -31.5 0 0 371.27 248.81
  L 371.27 242.16
  Z
  M 341.31 293.20
  C 342.72 287.87 339.68 284.04 333.86 285.45
  A 2.58 2.50 21.1 0 0 333.08 285.78
  Q 326.71 289.98 324.94 296.85
  Q 323.20 303.61 326.24 310.52
  Q 330.76 320.81 343.61 322.15
  A 2.02 2.00 -7.8 0 1 345.26 323.39
  C 350.38 335.76 359.55 342.39 373.20 340.01
  C 378.26 339.13 380.90 336.79 385.73 332.96
  C 389.03 330.35 389.93 327.41 389.64 323.57
  Q 389.51 321.85 387.85 320.64
  C 382.74 316.93 378.95 321.32 375.38 325.17
  A 3.54 3.42 5.8 0 1 374.53 325.84
  C 368.36 329.34 361.36 328.47 358.61 321.38
  Q 358.01 319.81 356.20 313.08
  C 354.76 307.76 346.77 310.38 343.76 309.52
  Q 339.06 308.17 337.58 305.13
  C 335.46 300.79 338.64 297.66 340.94 294.06
  A 3.14 3.06 69.0 0 0 341.31 293.20
  Z
  M 411.1993 327.1400
  A 3.33 3.33 0.0 0 0 406.4934 326.9592
  L 401.5041 331.5794
  A 3.33 3.33 0.0 0 0 401.3233 336.2852
  L 401.5407 336.5200
  A 3.33 3.33 0.0 0 0 406.2466 336.7008
  L 411.2359 332.0806
  A 3.33 3.33 0.0 0 0 411.4167 327.3748
  L 411.1993 327.1400
  Z"
/>
<ellipse fill="#000000" cx="0.00" cy="0.00" transform="translate(413.18,213.86) rotate(-27.3)" rx="7.31" ry="7.06"/>
<path fill="#ffffff" d="
  M 454.26 216.10
  C 462.01 213.98 462.27 238.90 461.98 243.13
  Q 458.93 287.46 425.07 318.35
  A 3.90 3.89 -43.7 0 1 419.69 318.24
  L 419.58 318.13
  A 3.76 3.75 -45.3 0 1 419.56 312.82
  Q 429.62 302.64 434.32 296.35
  Q 447.45 278.77 452.34 257.64
  C 455.13 245.58 456.12 233.31 452.44 221.77
  C 451.58 219.07 451.30 216.90 454.26 216.10
  Z"
/>
<path fill="#000000" d="
  M 371.27 242.16
  L 371.27 248.81
  A 2.24 2.20 -31.5 0 1 371.01 249.85
  C 369.00 253.57 364.96 259.33 371.72 261.36
  A 2.58 2.53 48.1 0 0 372.79 261.43
  Q 376.14 260.92 376.19 260.91
  C 382.49 260.05 387.07 263.38 388.34 269.38
  C 389.38 274.31 391.84 279.09 395.98 281.69
  C 406.63 288.39 410.53 270.71 421.66 275.71
  Q 423.19 276.40 423.50 278.23
  C 424.62 284.83 422.05 287.31 417.33 291.38
  C 410.30 297.43 400.80 298.96 392.24 295.85
  C 383.21 292.57 378.78 285.57 375.42 277.30
  A 2.30 2.30 0.0 0 0 373.45 275.87
  C 370.30 275.65 367.70 275.63 365.32 274.74
  C 357.11 271.65 354.30 265.50 354.53 257.18
  C 354.67 251.89 355.07 247.49 358.33 243.64
  Q 359.93 241.74 361.54 241.01
  A 2.61 2.60 32.8 0 1 362.61 240.78
  L 369.88 240.78
  A 1.39 1.38 0.0 0 1 371.27 242.16
  Z"
/>
<path fill="#000000" d="
  M 333.86 285.45
  C 339.68 284.04 342.72 287.87 341.31 293.20
  A 3.14 3.06 69.0 0 1 340.94 294.06
  C 338.64 297.66 335.46 300.79 337.58 305.13
  Q 339.06 308.17 343.76 309.52
  C 346.77 310.38 354.76 307.76 356.20 313.08
  Q 358.01 319.81 358.61 321.38
  C 361.36 328.47 368.36 329.34 374.53 325.84
  A 3.54 3.42 5.8 0 0 375.38 325.17
  C 378.95 321.32 382.74 316.93 387.85 320.64
  Q 389.51 321.85 389.64 323.57
  C 389.93 327.41 389.03 330.35 385.73 332.96
  C 380.90 336.79 378.26 339.13 373.20 340.01
  C 359.55 342.39 350.38 335.76 345.26 323.39
  A 2.02 2.00 -7.8 0 0 343.61 322.15
  Q 330.76 320.81 326.24 310.52
  Q 323.20 303.61 324.94 296.85
  Q 326.71 289.98 333.08 285.78
  A 2.58 2.50 21.1 0 1 333.86 285.45
  Z"
/>
<rect fill="#ffffff" x="-6.73" y="-3.49" transform="translate(406.37,331.83) rotate(-42.8)" width="13.46" height="6.98" rx="3.33"/>
</svg>
