<?xml version="1.0" encoding="UTF-8" standalone="no"?>
<!DOCTYPE svg PUBLIC "-//W3C//DTD SVG 1.1//EN" "http://www.w3.org/Graphics/SVG/1.1/DTD/svg11.dtd">
<svg xmlns="http://www.w3.org/2000/svg" version="1.1" viewBox="0.00 0.00 449.00 540.00">
<g stroke-width="2.00" fill="none" stroke-linecap="butt">
<path stroke="#7e5b3d" vector-effect="non-scaling-stroke" d="
  M 156.93 207.08
  Q 156.85 212.57 158.88 217.47
  C 160.30 220.90 162.30 222.66 165.99 222.64
  C 176.03 222.57 184.22 222.83 193.25 224.56
  Q 218.67 229.40 239.87 240.64
  Q 254.29 248.29 265.06 259.68
  C 272.22 267.27 277.26 272.26 281.12 278.88
  Q 287.86 290.43 295.27 307.44
  C 298.64 315.18 299.50 322.31 303.13 329.76
  C 308.12 339.98 312.40 352.09 325.79 353.57"
/>
<path stroke="#633916" vector-effect="non-scaling-stroke" d="
  M 325.79 353.57
  Q 334.79 355.51 342.79 353.31
  C 358.48 348.99 370.75 334.47 374.08 318.34
  Q 374.78 314.91 373.96 310.51
  Q 372.10 300.49 366.50 292.75"
/>
<path stroke="#7e5b3d" vector-effect="non-scaling-stroke" d="
  M 366.50 292.75
  L 361.74 285.82"
/>
<path stroke="#633916" vector-effect="non-scaling-stroke" d="
  M 361.74 285.82
  Q 359.04 281.46 356.41 277.28
  C 351.40 269.32 347.11 260.96 342.59 252.74"
/>
<path stroke="#7e5b3d" vector-effect="non-scaling-stroke" d="
  M 342.59 252.74
  Q 338.34 244.94 333.26 237.66
  Q 329.16 231.78 325.06 228.42
  Q 319.77 224.09 314.68 221.62
  Q 297.67 213.38 290.11 208.67
  Q 285.55 205.82 283.30 203.80
  C 276.40 197.60 268.37 192.16 259.89 188.95
  Q 257.34 187.98 247.06 186.00
  Q 240.80 184.79 234.16 183.35"
/>
<path stroke="#633916" vector-effect="non-scaling-stroke" d="
  M 234.16 183.35
  Q 229.53 181.92 224.44 180.40
  C 216.88 178.14 210.07 174.91 202.28 173.47
  Q 192.30 171.62 182.91 174.67
  Q 159.98 182.14 156.93 207.08"
/>
<path stroke="#e19452" vector-effect="non-scaling-stroke" d="
  M 234.16 183.35
  Q 235.27 184.89 239.46 186.04
  Q 244.95 187.55 248.53 188.32
  C 255.88 189.92 261.56 192.76 266.43 197.13
  Q 270.55 200.84 273.05 202.98
  C 278.18 207.37 285.38 207.82 291.01 211.48
  Q 293.15 212.87 298.11 215.33
  Q 308.20 220.33 310.87 221.94
  Q 323.89 229.80 334.62 244.40
  Q 338.57 249.78 341.77 253.72
  Q 341.83 253.79 342.29 253.44
  Q 342.62 253.20 342.59 252.74"
/>
<path stroke="#e19452" vector-effect="non-scaling-stroke" d="
  M 361.74 285.82
  C 357.05 285.34 351.89 284.37 347.70 284.52
  Q 336.83 284.90 327.21 290.30
  A 1.32 1.31 -87.8 0 0 326.74 290.74
  Q 326.31 291.42 325.50 291.51
  Q 325.09 291.56 324.73 292.14
  Q 324.48 292.56 324.07 293.05"
/>
<path stroke="#e2b995" vector-effect="non-scaling-stroke" d="
  M 324.07 293.05
  C 316.35 297.78 311.42 304.70 308.04 313.03"
/>
<path stroke="#e19452" vector-effect="non-scaling-stroke" d="
  M 308.04 313.03
  Q 307.15 313.45 306.91 311.92
  Q 306.73 310.75 306.44 310.09
  Q 299.96 295.38 295.76 287.46
  Q 271.87 242.39 223.54 225.99
  Q 209.52 221.23 204.85 218.89
  Q 198.60 215.75 195.87 215.23
  C 188.11 213.75 182.37 213.68 174.25 214.49
  C 169.76 214.94 165.72 211.41 161.49 208.51
  Q 159.44 207.11 156.93 207.08"
/>
<path stroke="#808080" vector-effect="non-scaling-stroke" d="
  M 355.73 292.58
  Q 346.76 291.99 342.08 292.85
  C 333.92 294.35 324.47 299.46 318.88 306.94
  Q 313.66 313.94 311.92 317.70
  Q 308.64 324.78 310.16 334.73"
/>
<path stroke="#fedabc" vector-effect="non-scaling-stroke" d="
  M 308.04 313.03
  C 305.96 318.40 303.47 327.99 306.79 333.18
  Q 308.45 335.77 310.16 334.73"
/>
<path stroke="#7e5b3d" vector-effect="non-scaling-stroke" d="
  M 310.16 334.73
  Q 310.79 338.57 312.53 340.98
  Q 314.30 343.44 318.28 343.12"
/>
<path stroke="#e19452" vector-effect="non-scaling-stroke" d="
  M 318.28 343.12
  L 325.79 353.57"
/>
<path stroke="#e19452" vector-effect="non-scaling-stroke" d="
  M 366.50 292.75
  Q 365.34 295.14 362.09 294.57"
/>
<path stroke="#7e5b3d" vector-effect="non-scaling-stroke" d="
  M 362.09 294.57
  Q 359.07 293.04 355.73 292.58"
/>
<path stroke="#fedabc" vector-effect="non-scaling-stroke" d="
  M 355.73 292.58
  Q 355.77 289.63 351.36 288.89
  Q 336.99 286.50 324.07 293.05"
/>
<path stroke="#633916" vector-effect="non-scaling-stroke" d="
  M 362.09 294.57
  Q 367.54 297.91 366.42 303.47
  C 365.41 308.50 360.35 307.26 356.97 305.88
  C 351.90 303.82 345.41 304.10 340.89 306.13
  C 333.50 309.44 326.22 316.78 322.97 324.94
  Q 321.80 327.87 322.14 329.36
  C 323.17 333.80 324.51 338.09 323.19 341.91
  A 1.51 1.50 1.9 0 1 322.17 342.86
  Q 320.35 343.37 318.28 343.12"
/>
<path stroke="#806642" vector-effect="non-scaling-stroke" d="
  M 164.41 239.98
  L 159.20 248.37
  A 0.86 0.86 0.0 0 0 159.66 249.64
  L 164.64 251.23
  A 10.56 10.52 -20.2 0 1 166.95 252.29
  C 178.76 259.54 185.80 269.07 185.68 283.50
  C 185.65 286.69 185.57 290.40 184.89 293.53
  Q 181.09 311.24 168.77 323.70
  C 159.57 333.02 148.28 339.61 135.27 338.73
  Q 130.26 338.38 126.42 337.91
  A 1.15 1.14 -77.2 0 0 125.20 338.68
  Q 111.94 378.09 119.39 418.81
  Q 120.47 424.68 122.07 429.52
  C 124.75 437.58 128.32 445.47 135.19 450.63
  A 2.23 2.21 47.1 0 0 137.71 450.73
  Q 139.80 449.40 143.20 445.70
  C 148.28 440.15 152.88 434.19 159.11 428.94
  Q 174.65 415.85 190.73 407.98
  Q 201.89 402.53 222.79 393.97
  C 225.48 392.87 228.24 392.52 230.65 390.92
  A 3.91 3.62 -70.4 0 1 231.32 390.57
  Q 241.20 386.75 245.07 384.89
  Q 249.22 382.90 251.73 382.13
  C 255.90 380.84 259.53 379.39 264.26 376.96
  Q 265.99 376.07 270.03 374.27
  Q 272.80 373.04 278.20 369.68
  A 18.38 17.43 16.3 0 1 281.00 368.24
  Q 287.14 365.73 292.71 362.28"
/>
<path stroke="#805122" vector-effect="non-scaling-stroke" d="
  M 292.71 362.28
  L 299.52 356.41
  A 0.42 0.42 0.0 0 0 299.62 355.89
  L 289.60 337.30
  A 0.35 0.34 -40.0 0 0 289.02 337.25
  L 286.13 340.99"
/>
<path stroke="#806642" vector-effect="non-scaling-stroke" d="
  M 286.13 340.99
  Q 279.25 346.80 272.01 348.77
  A 5.52 5.47 -83.1 0 0 268.60 351.47
  Q 266.11 356.07 266.00 356.27
  C 263.96 359.67 261.23 360.76 257.28 362.42
  A 6.08 6.02 29.3 0 1 255.72 362.85
  C 248.67 363.84 242.40 364.70 235.26 362.82
  C 231.04 361.71 223.67 356.88 222.64 352.35
  C 221.00 345.09 215.12 346.80 210.41 344.25
  C 196.66 336.82 192.98 323.47 197.71 308.87
  Q 200.36 300.70 207.59 293.60
  Q 220.13 281.28 237.49 279.52
  Q 240.76 279.19 252.16 279.38"
/>
<path stroke="#805122" vector-effect="non-scaling-stroke" d="
  M 252.16 279.38
  L 263.08 281.76
  A 0.59 0.59 0.0 0 0 263.67 280.83
  Q 260.29 276.46 256.65 272.86
  Q 250.41 266.68 249.07 265.43
  Q 239.06 256.15 224.45 249.80
  Q 199.24 238.85 174.29 236.76
  C 170.00 236.40 166.46 235.53 164.41 239.98"
/>
<path stroke="#ffb663" vector-effect="non-scaling-stroke" d="
  M 252.16 279.38
  Q 241.34 267.40 227.90 260.35
  C 213.28 252.68 200.26 248.56 183.46 243.83
  Q 174.28 241.25 164.41 239.98"
/>
<path stroke="#ffb663" vector-effect="non-scaling-stroke" d="
  M 286.13 340.99
  L 290.92 354.68"
/>
<path stroke="#ffe5c1" vector-effect="non-scaling-stroke" d="
  M 290.92 354.68
  Q 288.46 353.47 285.49 354.71
  Q 262.21 364.45 194.36 393.28
  A 3.90 3.90 0.0 0 0 192.32 398.45
  L 192.38 398.60
  A 4.04 4.04 0.0 0 0 197.64 400.68
  Q 245.25 380.62 290.08 361.58
  Q 290.82 361.27 292.04 359.61"
/>
<path stroke="#ffb663" vector-effect="non-scaling-stroke" d="
  M 292.04 359.61
  L 292.71 362.28"
/>
<path stroke="#ffd0a1" vector-effect="non-scaling-stroke" d="
  M 292.04 359.61
  Q 293.29 356.82 290.92 354.68"
/>
<path stroke="#42050a" vector-effect="non-scaling-stroke" d="
  M 117.32 300.93
  Q 118.51 307.73 120.69 312.29
  C 124.55 320.34 132.98 326.53 142.27 323.25
  C 156.25 318.33 166.03 305.17 169.79 291.02
  Q 171.45 284.79 170.85 281.16
  C 169.80 274.88 165.33 269.25 160.48 266.03
  C 156.68 263.50 148.05 261.76 143.67 263.17
  Q 138.16 264.95 135.13 267.38
  C 129.94 271.53 124.49 276.66 121.64 282.65
  C 118.89 288.45 118.56 294.12 117.35 299.63
  A 3.23 3.16 -44.3 0 0 117.32 300.93"
/>
<path stroke="#3b2b27" vector-effect="non-scaling-stroke" d="
  M 238.00 348.09
  C 242.39 349.47 248.47 350.00 252.54 347.53
  A 2.79 2.79 0.0 0 0 253.89 345.35
  Q 254.21 341.19 253.17 336.92
  C 252.58 334.45 253.89 330.72 253.94 328.05
  C 254.01 323.84 255.85 318.79 260.59 318.53
  Q 263.67 318.36 265.21 319.68
  Q 267.01 321.22 267.75 323.83
  A 1.12 0.99 -50.9 0 1 267.77 324.33
  L 265.82 332.95
  A 1.19 1.19 0.0 0 0 266.79 334.39
  C 270.88 335.06 276.28 329.11 277.98 326.01
  C 279.23 323.72 279.46 320.77 278.38 318.61
  Q 274.87 311.57 272.50 305.69
  A 3.39 3.37 -75.8 0 0 271.95 304.76
  C 266.48 297.93 258.02 295.22 249.50 294.20
  Q 248.16 294.04 238.76 294.17
  A 6.49 6.30 33.8 0 0 236.73 294.54
  Q 227.27 297.89 224.74 299.73
  C 216.78 305.51 211.34 311.57 210.90 321.74
  C 210.66 327.19 218.37 332.24 222.88 333.47
  A 1.71 1.71 0.0 0 0 225.02 331.99
  C 225.44 327.88 223.75 324.36 224.39 319.99
  A 1.52 1.51 -7.9 0 1 225.28 318.82
  Q 232.15 315.82 235.90 321.19
  C 237.17 323.00 237.59 326.95 238.19 330.85
  Q 238.49 332.84 237.51 337.50
  Q 237.34 338.32 237.37 347.23
  A 0.90 0.90 0.0 0 0 238.00 348.09"
/>
<path stroke="#806642" vector-effect="non-scaling-stroke" d="
  M 161.85 401.21
  C 171.08 398.95 181.39 394.44 188.85 389.00
  Q 193.25 385.80 194.98 382.43
  C 199.46 373.66 197.59 361.28 190.51 354.30
  Q 181.94 345.85 168.91 349.14
  Q 162.22 350.83 152.96 354.19
  Q 146.76 356.45 143.50 358.52
  Q 128.32 368.18 133.60 386.15
  C 137.60 399.79 148.70 404.43 161.85 401.21"
/>
<path stroke="#ffe5c1" vector-effect="non-scaling-stroke" d="
  M 179.7280 401.4485
  A 3.38 3.38 0.0 0 0 175.0191 400.6267
  L 165.3159 407.4463
  A 3.38 3.38 0.0 0 0 164.4940 412.1551
  L 164.6320 412.3515
  A 3.38 3.38 0.0 0 0 169.3409 413.1733
  L 179.0441 406.3537
  A 3.38 3.38 0.0 0 0 179.8660 401.6449
  L 179.7280 401.4485"
/>
<path stroke="#ffe5c1" vector-effect="non-scaling-stroke" d="
  M 137.22 445.20
  A 3.26 3.25 -60.5 0 0 141.76 443.93
  Q 146.25 435.50 151.35 428.82
  A 3.76 3.40 -2.9 0 1 152.06 428.11
  C 155.20 425.75 160.35 423.18 156.63 419.84
  Q 155.21 418.57 153.29 419.02
  C 148.19 420.24 146.04 423.52 142.77 428.32
  Q 138.67 434.31 135.68 440.48
  A 3.58 3.57 28.3 0 0 137.07 445.11
  L 137.22 445.20"
/>
<path stroke="#135328" vector-effect="non-scaling-stroke" d="
  M 177.09 363.43
  A 2.27 2.24 50.4 0 0 175.30 363.25
  C 165.93 366.19 160.33 367.38 152.95 371.23
  Q 147.53 374.05 148.05 379.12
  C 148.48 383.40 149.72 388.72 155.48 387.21
  Q 167.53 384.05 178.17 377.69
  C 182.25 375.25 182.27 371.41 180.73 367.41
  Q 179.77 364.93 177.09 363.43"
/>
</g>
<path fill="#000000" d="
  M 149.97 231.68
  Q 141.44 220.98 141.80 206.73
  Q 142.06 196.67 145.82 188.60
  C 152.12 175.07 161.43 165.65 175.77 161.03
  Q 194.01 155.15 212.34 160.67
  Q 218.87 162.64 228.72 166.29
  C 237.60 169.58 247.30 171.07 256.10 172.72
  Q 261.73 173.77 264.23 174.86
  C 267.86 176.45 274.29 178.24 278.50 181.21
  C 281.51 183.33 283.85 184.48 286.42 186.71
  Q 296.38 195.37 308.36 201.34
  C 314.71 204.50 321.13 208.18 326.80 211.44
  Q 339.08 218.51 346.73 230.27
  Q 353.53 240.71 358.29 249.72
  Q 365.02 262.46 368.85 268.43
  Q 369.15 268.90 380.90 286.58
  Q 386.33 294.75 387.81 302.16
  Q 389.62 311.16 390.08 313.34
  A 4.34 4.27 -42.5 0 1 389.97 315.48
  C 388.67 319.55 388.43 324.76 386.77 328.87
  C 379.72 346.34 369.23 359.15 352.22 365.97
  Q 346.92 368.09 341.24 368.46
  Q 327.46 369.37 313.94 366.65
  A 3.70 3.68 31.4 0 0 310.89 367.38
  C 301.50 374.86 290.60 380.59 279.43 386.45
  Q 272.10 390.30 255.84 397.06
  Q 228.59 408.40 210.29 416.02
  C 193.62 422.96 175.84 433.90 162.78 447.79
  Q 161.01 449.67 150.98 460.46
  Q 147.59 464.11 143.68 465.48
  C 137.05 467.81 127.44 464.75 122.71 460.26
  C 111.62 449.71 106.55 434.31 104.29 419.73
  Q 102.31 407.02 102.13 396.49
  C 102.04 390.66 101.80 381.14 102.27 374.51
  Q 103.91 351.79 112.27 329.06
  A 2.67 2.67 0.0 0 0 111.90 326.54
  Q 107.45 320.63 104.64 313.06
  C 102.28 306.74 102.53 298.51 102.98 292.11
  C 103.24 288.30 104.37 285.49 105.34 281.54
  C 106.91 275.08 111.38 268.61 116.28 263.54
  C 123.83 255.70 130.74 250.31 141.07 248.42
  A 4.00 4.00 0.0 0 0 144.16 245.68
  Q 145.94 240.01 150.07 233.58
  A 1.64 1.63 -48.2 0 0 149.97 231.68
  Z
  M 156.93 207.08
  Q 156.85 212.57 158.88 217.47
  C 160.30 220.90 162.30 222.66 165.99 222.64
  C 176.03 222.57 184.22 222.83 193.25 224.56
  Q 218.67 229.40 239.87 240.64
  Q 254.29 248.29 265.06 259.68
  C 272.22 267.27 277.26 272.26 281.12 278.88
  Q 287.86 290.43 295.27 307.44
  C 298.64 315.18 299.50 322.31 303.13 329.76
  C 308.12 339.98 312.40 352.09 325.79 353.57
  Q 334.79 355.51 342.79 353.31
  C 358.48 348.99 370.75 334.47 374.08 318.34
  Q 374.78 314.91 373.96 310.51
  Q 372.10 300.49 366.50 292.75
  L 361.74 285.82
  Q 359.04 281.46 356.41 277.28
  C 351.40 269.32 347.11 260.96 342.59 252.74
  Q 338.34 244.94 333.26 237.66
  Q 329.16 231.78 325.06 228.42
  Q 319.77 224.09 314.68 221.62
  Q 297.67 213.38 290.11 208.67
  Q 285.55 205.82 283.30 203.80
  C 276.40 197.60 268.37 192.16 259.89 188.95
  Q 257.34 187.98 247.06 186.00
  Q 240.80 184.79 234.16 183.35
  Q 229.53 181.92 224.44 180.40
  C 216.88 178.14 210.07 174.91 202.28 173.47
  Q 192.30 171.62 182.91 174.67
  Q 159.98 182.14 156.93 207.08
  Z
  M 164.41 239.98
  L 159.20 248.37
  A 0.86 0.86 0.0 0 0 159.66 249.64
  L 164.64 251.23
  A 10.56 10.52 -20.2 0 1 166.95 252.29
  C 178.76 259.54 185.80 269.07 185.68 283.50
  C 185.65 286.69 185.57 290.40 184.89 293.53
  Q 181.09 311.24 168.77 323.70
  C 159.57 333.02 148.28 339.61 135.27 338.73
  Q 130.26 338.38 126.42 337.91
  A 1.15 1.14 -77.2 0 0 125.20 338.68
  Q 111.94 378.09 119.39 418.81
  Q 120.47 424.68 122.07 429.52
  C 124.75 437.58 128.32 445.47 135.19 450.63
  A 2.23 2.21 47.1 0 0 137.71 450.73
  Q 139.80 449.40 143.20 445.70
  C 148.28 440.15 152.88 434.19 159.11 428.94
  Q 174.65 415.85 190.73 407.98
  Q 201.89 402.53 222.79 393.97
  C 225.48 392.87 228.24 392.52 230.65 390.92
  A 3.91 3.62 -70.4 0 1 231.32 390.57
  Q 241.20 386.75 245.07 384.89
  Q 249.22 382.90 251.73 382.13
  C 255.90 380.84 259.53 379.39 264.26 376.96
  Q 265.99 376.07 270.03 374.27
  Q 272.80 373.04 278.20 369.68
  A 18.38 17.43 16.3 0 1 281.00 368.24
  Q 287.14 365.73 292.71 362.28
  L 299.52 356.41
  A 0.42 0.42 0.0 0 0 299.62 355.89
  L 289.60 337.30
  A 0.35 0.34 -40.0 0 0 289.02 337.25
  L 286.13 340.99
  Q 279.25 346.80 272.01 348.77
  A 5.52 5.47 -83.1 0 0 268.60 351.47
  Q 266.11 356.07 266.00 356.27
  C 263.96 359.67 261.23 360.76 257.28 362.42
  A 6.08 6.02 29.3 0 1 255.72 362.85
  C 248.67 363.84 242.40 364.70 235.26 362.82
  C 231.04 361.71 223.67 356.88 222.64 352.35
  C 221.00 345.09 215.12 346.80 210.41 344.25
  C 196.66 336.82 192.98 323.47 197.71 308.87
  Q 200.36 300.70 207.59 293.60
  Q 220.13 281.28 237.49 279.52
  Q 240.76 279.19 252.16 279.38
  L 263.08 281.76
  A 0.59 0.59 0.0 0 0 263.67 280.83
  Q 260.29 276.46 256.65 272.86
  Q 250.41 266.68 249.07 265.43
  Q 239.06 256.15 224.45 249.80
  Q 199.24 238.85 174.29 236.76
  C 170.00 236.40 166.46 235.53 164.41 239.98
  Z
  M 117.32 300.93
  Q 118.51 307.73 120.69 312.29
  C 124.55 320.34 132.98 326.53 142.27 323.25
  C 156.25 318.33 166.03 305.17 169.79 291.02
  Q 171.45 284.79 170.85 281.16
  C 169.80 274.88 165.33 269.25 160.48 266.03
  C 156.68 263.50 148.05 261.76 143.67 263.17
  Q 138.16 264.95 135.13 267.38
  C 129.94 271.53 124.49 276.66 121.64 282.65
  C 118.89 288.45 118.56 294.12 117.35 299.63
  A 3.23 3.16 -44.3 0 0 117.32 300.93
  Z
  M 238.00 348.09
  C 242.39 349.47 248.47 350.00 252.54 347.53
  A 2.79 2.79 0.0 0 0 253.89 345.35
  Q 254.21 341.19 253.17 336.92
  C 252.58 334.45 253.89 330.72 253.94 328.05
  C 254.01 323.84 255.85 318.79 260.59 318.53
  Q 263.67 318.36 265.21 319.68
  Q 267.01 321.22 267.75 323.83
  A 1.12 0.99 -50.9 0 1 267.77 324.33
  L 265.82 332.95
  A 1.19 1.19 0.0 0 0 266.79 334.39
  C 270.88 335.06 276.28 329.11 277.98 326.01
  C 279.23 323.72 279.46 320.77 278.38 318.61
  Q 274.87 311.57 272.50 305.69
  A 3.39 3.37 -75.8 0 0 271.95 304.76
  C 266.48 297.93 258.02 295.22 249.50 294.20
  Q 248.16 294.04 238.76 294.17
  A 6.49 6.30 33.8 0 0 236.73 294.54
  Q 227.27 297.89 224.74 299.73
  C 216.78 305.51 211.34 311.57 210.90 321.74
  C 210.66 327.19 218.37 332.24 222.88 333.47
  A 1.71 1.71 0.0 0 0 225.02 331.99
  C 225.44 327.88 223.75 324.36 224.39 319.99
  A 1.52 1.51 -7.9 0 1 225.28 318.82
  Q 232.15 315.82 235.90 321.19
  C 237.17 323.00 237.59 326.95 238.19 330.85
  Q 238.49 332.84 237.51 337.50
  Q 237.34 338.32 237.37 347.23
  A 0.90 0.90 0.0 0 0 238.00 348.09
  Z"
/>
<path fill="#c5722b" d="
  M 234.16 183.35
  Q 235.27 184.89 239.46 186.04
  Q 244.95 187.55 248.53 188.32
  C 255.88 189.92 261.56 192.76 266.43 197.13
  Q 270.55 200.84 273.05 202.98
  C 278.18 207.37 285.38 207.82 291.01 211.48
  Q 293.15 212.87 298.11 215.33
  Q 308.20 220.33 310.87 221.94
  Q 323.89 229.80 334.62 244.40
  Q 338.57 249.78 341.77 253.72
  Q 341.83 253.79 342.29 253.44
  Q 342.62 253.20 342.59 252.74
  C 347.11 260.96 351.40 269.32 356.41 277.28
  Q 359.04 281.46 361.74 285.82
  C 357.05 285.34 351.89 284.37 347.70 284.52
  Q 336.83 284.90 327.21 290.30
  A 1.32 1.31 -87.8 0 0 326.74 290.74
  Q 326.31 291.42 325.50 291.51
  Q 325.09 291.56 324.73 292.14
  Q 324.48 292.56 324.07 293.05
  C 316.35 297.78 311.42 304.70 308.04 313.03
  Q 307.15 313.45 306.91 311.92
  Q 306.73 310.75 306.44 310.09
  Q 299.96 295.38 295.76 287.46
  Q 271.87 242.39 223.54 225.99
  Q 209.52 221.23 204.85 218.89
  Q 198.60 215.75 195.87 215.23
  C 188.11 213.75 182.37 213.68 174.25 214.49
  C 169.76 214.94 165.72 211.41 161.49 208.51
  Q 159.44 207.11 156.93 207.08
  Q 159.98 182.14 182.91 174.67
  Q 192.30 171.62 202.28 173.47
  C 210.07 174.91 216.88 178.14 224.44 180.40
  Q 229.53 181.92 234.16 183.35
  Z"
/>
<path fill="#fcb579" d="
  M 234.16 183.35
  Q 240.80 184.79 247.06 186.00
  Q 257.34 187.98 259.89 188.95
  C 268.37 192.16 276.40 197.60 283.30 203.80
  Q 285.55 205.82 290.11 208.67
  Q 297.67 213.38 314.68 221.62
  Q 319.77 224.09 325.06 228.42
  Q 329.16 231.78 333.26 237.66
  Q 338.34 244.94 342.59 252.74
  Q 342.62 253.20 342.29 253.44
  Q 341.83 253.79 341.77 253.72
  Q 338.57 249.78 334.62 244.40
  Q 323.89 229.80 310.87 221.94
  Q 308.20 220.33 298.11 215.33
  Q 293.15 212.87 291.01 211.48
  C 285.38 207.82 278.18 207.37 273.05 202.98
  Q 270.55 200.84 266.43 197.13
  C 261.56 192.76 255.88 189.92 248.53 188.32
  Q 244.95 187.55 239.46 186.04
  Q 235.27 184.89 234.16 183.35
  Z"
/>
<path fill="#fcb579" d="
  M 308.04 313.03
  C 305.96 318.40 303.47 327.99 306.79 333.18
  Q 308.45 335.77 310.16 334.73
  Q 310.79 338.57 312.53 340.98
  Q 314.30 343.44 318.28 343.12
  L 325.79 353.57
  C 312.40 352.09 308.12 339.98 303.13 329.76
  C 299.50 322.31 298.64 315.18 295.27 307.44
  Q 287.86 290.43 281.12 278.88
  C 277.26 272.26 272.22 267.27 265.06 259.68
  Q 254.29 248.29 239.87 240.64
  Q 218.67 229.40 193.25 224.56
  C 184.22 222.83 176.03 222.57 165.99 222.64
  C 162.30 222.66 160.30 220.90 158.88 217.47
  Q 156.85 212.57 156.93 207.08
  Q 159.44 207.11 161.49 208.51
  C 165.72 211.41 169.76 214.94 174.25 214.49
  C 182.37 213.68 188.11 213.75 195.87 215.23
  Q 198.60 215.75 204.85 218.89
  Q 209.52 221.23 223.54 225.99
  Q 271.87 242.39 295.76 287.46
  Q 299.96 295.38 306.44 310.09
  Q 306.73 310.75 306.91 311.92
  Q 307.15 313.45 308.04 313.03
  Z"
/>
<path fill="#ffa143" d="
  M 252.16 279.38
  Q 241.34 267.40 227.90 260.35
  C 213.28 252.68 200.26 248.56 183.46 243.83
  Q 174.28 241.25 164.41 239.98
  C 166.46 235.53 170.00 236.40 174.29 236.76
  Q 199.24 238.85 224.45 249.80
  Q 239.06 256.15 249.07 265.43
  Q 250.41 266.68 256.65 272.86
  Q 260.29 276.46 263.67 280.83
  A 0.59 0.59 0.0 0 1 263.08 281.76
  L 252.16 279.38
  Z"
/>
<path fill="#ffcb83" d="
  M 252.16 279.38
  Q 240.76 279.19 237.49 279.52
  Q 220.13 281.28 207.59 293.60
  Q 200.36 300.70 197.71 308.87
  C 192.98 323.47 196.66 336.82 210.41 344.25
  C 215.12 346.80 221.00 345.09 222.64 352.35
  C 223.67 356.88 231.04 361.71 235.26 362.82
  C 242.40 364.70 248.67 363.84 255.72 362.85
  A 6.08 6.02 29.3 0 0 257.28 362.42
  C 261.23 360.76 263.96 359.67 266.00 356.27
  Q 266.11 356.07 268.60 351.47
  A 5.52 5.47 -83.1 0 1 272.01 348.77
  Q 279.25 346.80 286.13 340.99
  L 290.92 354.68
  Q 288.46 353.47 285.49 354.71
  Q 262.21 364.45 194.36 393.28
  A 3.90 3.90 0.0 0 0 192.32 398.45
  L 192.38 398.60
  A 4.04 4.04 0.0 0 0 197.64 400.68
  Q 245.25 380.62 290.08 361.58
  Q 290.82 361.27 292.04 359.61
  L 292.71 362.28
  Q 287.14 365.73 281.00 368.24
  A 18.38 17.43 16.3 0 0 278.20 369.68
  Q 272.80 373.04 270.03 374.27
  Q 265.99 376.07 264.26 376.96
  C 259.53 379.39 255.90 380.84 251.73 382.13
  Q 249.22 382.90 245.07 384.89
  Q 241.20 386.75 231.32 390.57
  A 3.91 3.62 -70.4 0 0 230.65 390.92
  C 228.24 392.52 225.48 392.87 222.79 393.97
  Q 201.89 402.53 190.73 407.98
  Q 174.65 415.85 159.11 428.94
  C 152.88 434.19 148.28 440.15 143.20 445.70
  Q 139.80 449.40 137.71 450.73
  A 2.23 2.21 47.1 0 1 135.19 450.63
  C 128.32 445.47 124.75 437.58 122.07 429.52
  Q 120.47 424.68 119.39 418.81
  Q 111.94 378.09 125.20 338.68
  A 1.15 1.14 -77.2 0 1 126.42 337.91
  Q 130.26 338.38 135.27 338.73
  C 148.28 339.61 159.57 333.02 168.77 323.70
  Q 181.09 311.24 184.89 293.53
  C 185.57 290.40 185.65 286.69 185.68 283.50
  C 185.80 269.07 178.76 259.54 166.95 252.29
  A 10.56 10.52 -20.2 0 0 164.64 251.23
  L 159.66 249.64
  A 0.86 0.86 0.0 0 1 159.20 248.37
  L 164.41 239.98
  Q 174.28 241.25 183.46 243.83
  C 200.26 248.56 213.28 252.68 227.90 260.35
  Q 241.34 267.40 252.16 279.38
  Z
  M 161.85 401.21
  C 171.08 398.95 181.39 394.44 188.85 389.00
  Q 193.25 385.80 194.98 382.43
  C 199.46 373.66 197.59 361.28 190.51 354.30
  Q 181.94 345.85 168.91 349.14
  Q 162.22 350.83 152.96 354.19
  Q 146.76 356.45 143.50 358.52
  Q 128.32 368.18 133.60 386.15
  C 137.60 399.79 148.70 404.43 161.85 401.21
  Z
  M 179.7280 401.4485
  A 3.38 3.38 0.0 0 0 175.0191 400.6267
  L 165.3159 407.4463
  A 3.38 3.38 0.0 0 0 164.4940 412.1551
  L 164.6320 412.3515
  A 3.38 3.38 0.0 0 0 169.3409 413.1733
  L 179.0441 406.3537
  A 3.38 3.38 0.0 0 0 179.8660 401.6449
  L 179.7280 401.4485
  Z
  M 137.22 445.20
  A 3.26 3.25 -60.5 0 0 141.76 443.93
  Q 146.25 435.50 151.35 428.82
  A 3.76 3.40 -2.9 0 1 152.06 428.11
  C 155.20 425.75 160.35 423.18 156.63 419.84
  Q 155.21 418.57 153.29 419.02
  C 148.19 420.24 146.04 423.52 142.77 428.32
  Q 138.67 434.31 135.68 440.48
  A 3.58 3.57 28.3 0 0 137.07 445.11
  L 137.22 445.20
  Z"
/>
<path fill="#840a14" d="
  M 117.35 299.63
  C 118.56 294.12 118.89 288.45 121.64 282.65
  C 124.49 276.66 129.94 271.53 135.13 267.38
  Q 138.16 264.95 143.67 263.17
  C 148.05 261.76 156.68 263.50 160.48 266.03
  C 165.33 269.25 169.80 274.88 170.85 281.16
  Q 171.45 284.79 169.79 291.02
  C 166.03 305.17 156.25 318.33 142.27 323.25
  C 132.98 326.53 124.55 320.34 120.69 312.29
  Q 118.51 307.73 117.32 300.93
  A 3.23 3.16 -44.3 0 1 117.35 299.63
  Z"
/>
<path fill="#fcb579" d="
  M 361.74 285.82
  L 366.50 292.75
  Q 365.34 295.14 362.09 294.57
  Q 359.07 293.04 355.73 292.58
  Q 355.77 289.63 351.36 288.89
  Q 336.99 286.50 324.07 293.05
  Q 324.48 292.56 324.73 292.14
  Q 325.09 291.56 325.50 291.51
  Q 326.31 291.42 326.74 290.74
  A 1.32 1.31 -87.8 0 1 327.21 290.30
  Q 336.83 284.90 347.70 284.52
  C 351.89 284.37 357.05 285.34 361.74 285.82
  Z"
/>
<path fill="#ffffff" d="
  M 355.73 292.58
  Q 346.76 291.99 342.08 292.85
  C 333.92 294.35 324.47 299.46 318.88 306.94
  Q 313.66 313.94 311.92 317.70
  Q 308.64 324.78 310.16 334.73
  Q 308.45 335.77 306.79 333.18
  C 303.47 327.99 305.96 318.40 308.04 313.03
  C 311.42 304.70 316.35 297.78 324.07 293.05
  Q 336.99 286.50 351.36 288.89
  Q 355.77 289.63 355.73 292.58
  Z"
/>
<path fill="#000000" d="
  M 355.73 292.58
  Q 359.07 293.04 362.09 294.57
  Q 367.54 297.91 366.42 303.47
  C 365.41 308.50 360.35 307.26 356.97 305.88
  C 351.90 303.82 345.41 304.10 340.89 306.13
  C 333.50 309.44 326.22 316.78 322.97 324.94
  Q 321.80 327.87 322.14 329.36
  C 323.17 333.80 324.51 338.09 323.19 341.91
  A 1.51 1.50 1.9 0 1 322.17 342.86
  Q 320.35 343.37 318.28 343.12
  Q 314.30 343.44 312.53 340.98
  Q 310.79 338.57 310.16 334.73
  Q 308.64 324.78 311.92 317.70
  Q 313.66 313.94 318.88 306.94
  C 324.47 299.46 333.92 294.35 342.08 292.85
  Q 346.76 291.99 355.73 292.58
  Z"
/>
<path fill="#c5722b" d="
  M 325.79 353.57
  L 318.28 343.12
  Q 320.35 343.37 322.17 342.86
  A 1.51 1.50 1.9 0 0 323.19 341.91
  C 324.51 338.09 323.17 333.80 322.14 329.36
  Q 321.80 327.87 322.97 324.94
  C 326.22 316.78 333.50 309.44 340.89 306.13
  C 345.41 304.10 351.90 303.82 356.97 305.88
  C 360.35 307.26 365.41 308.50 366.42 303.47
  Q 367.54 297.91 362.09 294.57
  Q 365.34 295.14 366.50 292.75
  Q 372.10 300.49 373.96 310.51
  Q 374.78 314.91 374.08 318.34
  C 370.75 334.47 358.48 348.99 342.79 353.31
  Q 334.79 355.51 325.79 353.57
  Z"
/>
<path fill="#75564d" d="
  M 237.37 347.23
  Q 237.34 338.32 237.51 337.50
  Q 238.49 332.84 238.19 330.85
  C 237.59 326.95 237.17 323.00 235.90 321.19
  Q 232.15 315.82 225.28 318.82
  A 1.52 1.51 -7.9 0 0 224.39 319.99
  C 223.75 324.36 225.44 327.88 225.02 331.99
  A 1.71 1.71 0.0 0 1 222.88 333.47
  C 218.37 332.24 210.66 327.19 210.90 321.74
  C 211.34 311.57 216.78 305.51 224.74 299.73
  Q 227.27 297.89 236.73 294.54
  A 6.49 6.30 33.8 0 1 238.76 294.17
  Q 248.16 294.04 249.50 294.20
  C 258.02 295.22 266.48 297.93 271.95 304.76
  A 3.39 3.37 -75.8 0 1 272.50 305.69
  Q 274.87 311.57 278.38 318.61
  C 279.46 320.77 279.23 323.72 277.98 326.01
  C 276.28 329.11 270.88 335.06 266.79 334.39
  A 1.19 1.19 0.0 0 1 265.82 332.95
  L 267.77 324.33
  A 1.12 0.99 -50.9 0 0 267.75 323.83
  Q 267.01 321.22 265.21 319.68
  Q 263.67 318.36 260.59 318.53
  C 255.85 318.79 254.01 323.84 253.94 328.05
  C 253.89 330.72 252.58 334.45 253.17 336.92
  Q 254.21 341.19 253.89 345.35
  A 2.79 2.79 0.0 0 1 252.54 347.53
  C 248.47 350.00 242.39 349.47 238.00 348.09
  A 0.90 0.90 0.0 0 1 237.37 347.23
  Z"
/>
<path fill="#ffa143" d="
  M 292.71 362.28
  L 292.04 359.61
  Q 293.29 356.82 290.92 354.68
  L 286.13 340.99
  L 289.02 337.25
  A 0.35 0.34 -40.0 0 1 289.60 337.30
  L 299.62 355.89
  A 0.42 0.42 0.0 0 1 299.52 356.41
  L 292.71 362.28
  Z"
/>
<path fill="#000000" d="
  M 188.85 389.00
  C 181.39 394.44 171.08 398.95 161.85 401.21
  C 148.70 404.43 137.60 399.79 133.60 386.15
  Q 128.32 368.18 143.50 358.52
  Q 146.76 356.45 152.96 354.19
  Q 162.22 350.83 168.91 349.14
  Q 181.94 345.85 190.51 354.30
  C 197.59 361.28 199.46 373.66 194.98 382.43
  Q 193.25 385.80 188.85 389.00
  Z
  M 177.09 363.43
  A 2.27 2.24 50.4 0 0 175.30 363.25
  C 165.93 366.19 160.33 367.38 152.95 371.23
  Q 147.53 374.05 148.05 379.12
  C 148.48 383.40 149.72 388.72 155.48 387.21
  Q 167.53 384.05 178.17 377.69
  C 182.25 375.25 182.27 371.41 180.73 367.41
  Q 179.77 364.93 177.09 363.43
  Z"
/>
<path fill="#ffffff" d="
  M 290.92 354.68
  Q 293.29 356.82 292.04 359.61
  Q 290.82 361.27 290.08 361.58
  Q 245.25 380.62 197.64 400.68
  A 4.04 4.04 0.0 0 1 192.38 398.60
  L 192.32 398.45
  A 3.90 3.90 0.0 0 1 194.36 393.28
  Q 262.21 364.45 285.49 354.71
  Q 288.46 353.47 290.92 354.68
  Z"
/>
<path fill="#25a650" d="
  M 177.09 363.43
  Q 179.77 364.93 180.73 367.41
  C 182.27 371.41 182.25 375.25 178.17 377.69
  Q 167.53 384.05 155.48 387.21
  C 149.72 388.72 148.48 383.40 148.05 379.12
  Q 147.53 374.05 152.95 371.23
  C 160.33 367.38 165.93 366.19 175.30 363.25
  A 2.27 2.24 50.4 0 1 177.09 363.43
  Z"
/>
<rect fill="#ffffff" x="-9.31" y="-3.50" transform="translate(172.18,406.90) rotate(-35.1)" width="18.62" height="7.00" rx="3.38"/>
<path fill="#ffffff" d="
  M 137.22 445.20
  L 137.07 445.11
  A 3.58 3.57 28.3 0 1 135.68 440.48
  Q 138.67 434.31 142.77 428.32
  C 146.04 423.52 148.19 420.24 153.29 419.02
  Q 155.21 418.57 156.63 419.84
  C 160.35 423.18 155.20 425.75 152.06 428.11
  A 3.76 3.40 -2.9 0 0 151.35 428.82
  Q 146.25 435.50 141.76 443.93
  A 3.26 3.25 -60.5 0 1 137.22 445.20
  Z"
/>
</svg>
