<?xml version="1.0" encoding="UTF-8" standalone="no"?>
<!DOCTYPE svg PUBLIC "-//W3C//DTD SVG 1.1//EN" "http://www.w3.org/Graphics/SVG/1.1/DTD/svg11.dtd">
<svg xmlns="http://www.w3.org/2000/svg" version="1.1" viewBox="0.00 0.00 810.00 713.00">
<g stroke-width="2.00" fill="none" stroke-linecap="butt">
<path stroke="#7d4115" vector-effect="non-scaling-stroke" d="
  M 405.27 58.36
  C 397.29 59.85 389.12 61.38 381.18 61.60
  Q 374.66 61.77 368.17 62.42
  A 1.82 1.81 -67.5 0 0 367.24 62.81
  Q 367.15 62.88 367.11 62.91
  A 1.89 1.78 20.1 0 1 366.18 63.31
  Q 354.07 64.98 344.55 67.83
  Q 340.05 69.17 319.80 75.61
  A 2.73 2.44 -68.8 0 0 319.21 75.91
  Q 318.49 76.42 318.04 76.54
  C 303.48 80.55 292.41 86.77 277.03 94.42
  Q 274.31 95.78 271.30 97.46
  C 266.39 100.22 261.98 102.31 257.21 105.44
  Q 244.26 113.95 235.24 119.49
  Q 230.91 122.14 227.54 125.43
  A 7.55 7.23 6.0 0 1 226.29 126.40
  Q 221.52 129.32 215.29 135.30
  Q 201.92 148.11 191.21 160.97
  Q 184.72 168.76 179.69 176.23"
/>
<path stroke="#7a7a7a" vector-effect="non-scaling-stroke" d="
  M 179.69 176.23
  L 174.99 184.05
  A 0.28 0.10 -70.7 0 1 174.95 184.10
  L 167.62 194.44
  A 1.27 0.95 81.8 0 0 167.50 194.66
  Q 164.45 202.74 157.58 209.54
  A 7.05 6.77 84.8 0 0 156.55 210.83
  Q 154.78 213.71 152.38 216.30
  A 6.10 6.03 -10.2 0 0 151.50 217.55
  Q 150.18 220.10 147.44 222.82
  A 5.34 5.23 -6.5 0 0 146.75 223.67
  C 142.61 230.07 137.89 236.54 134.32 243.48
  Q 128.20 255.37 123.67 267.42
  A 7.68 7.29 -31.4 0 0 123.29 268.83
  Q 121.40 279.44 120.34 283.12
  Q 118.79 288.48 118.79 292.34"
/>
<path stroke="#131313" vector-effect="non-scaling-stroke" d="
  M 118.79 292.34
  Q 117.14 297.95 116.43 308.75
  Q 115.35 325.09 115.12 329.74
  Q 114.63 339.40 116.37 348.40
  A 14.36 14.30 38.5 0 1 116.63 350.66
  Q 116.93 358.54 117.47 362.09
  C 118.15 366.63 120.13 371.31 121.15 375.78
  C 121.97 379.39 123.79 384.32 124.57 386.94
  Q 125.86 391.28 127.63 395.13
  C 129.85 399.97 131.81 406.16 135.07 411.48
  A 6.05 5.71 -71.4 0 1 135.66 412.76
  C 136.98 416.92 139.91 420.40 141.61 424.24
  C 143.42 428.31 146.07 433.73 149.53 438.51
  Q 150.43 439.75 153.23 444.26
  Q 156.84 450.08 163.19 457.40"
/>
<path stroke="#7a7a7a" vector-effect="non-scaling-stroke" d="
  M 163.19 457.40
  Q 162.90 457.91 163.29 458.45
  Q 166.38 462.74 173.27 471.48
  C 177.95 477.43 181.79 480.81 188.69 487.48
  Q 191.99 490.66 195.71 493.01
  C 198.90 495.01 203.18 498.54 207.23 500.99
  C 209.97 502.64 213.36 505.28 216.72 505.83
  C 223.26 506.89 229.84 506.36 234.25 500.70
  Q 235.33 499.32 236.40 495.37
  Q 238.70 486.89 240.42 482.36
  A 6.69 6.42 -34.1 0 0 240.83 480.45
  Q 240.84 480.35 240.99 475.46
  Q 241.16 469.95 247.89 468.37"
/>
<path stroke="#7d4115" vector-effect="non-scaling-stroke" d="
  M 247.89 468.37
  Q 254.94 468.97 264.51 471.19
  C 276.73 474.02 289.23 472.55 301.74 470.98
  Q 309.93 469.96 319.15 466.57
  A 0.64 0.63 -13.0 0 0 319.57 465.91
  L 318.95 459.96"
/>
<path stroke="#7a7a7a" vector-effect="non-scaling-stroke" d="
  M 318.95 459.96
  Q 318.51 446.58 319.94 433.79
  Q 320.69 427.12 320.70 424.18
  C 320.73 417.23 320.90 411.01 318.65 405.04
  C 317.95 403.18 316.28 401.15 316.29 399.00
  C 316.30 394.48 319.51 393.18 323.60 394.30
  Q 328.25 395.58 330.10 399.98
  C 330.90 401.88 332.11 404.06 333.01 406.50
  A 0.33 0.32 37.6 0 0 333.64 406.42
  C 333.81 404.41 334.95 403.71 335.84 402.08
  Q 340.31 393.88 341.40 392.27
  Q 341.88 391.57 346.40 382.18
  Q 348.84 377.12 351.75 372.24
  Q 352.25 371.40 353.47 370.23
  A 1.67 1.48 86.5 0 0 353.76 369.86
  L 364.33 351.55
  A 3.39 3.30 66.6 0 0 364.72 350.52
  C 365.31 347.67 366.79 345.29 367.28 342.38
  Q 368.88 332.90 367.34 323.63
  Q 365.27 311.13 361.93 298.52
  Q 359.88 290.76 353.83 278.95
  A 2.96 2.87 -82.8 0 0 353.20 278.11
  Q 350.21 275.25 349.25 270.88"
/>
<path stroke="#131313" vector-effect="non-scaling-stroke" d="
  M 349.25 270.88
  Q 348.51 269.16 347.59 267.84
  Q 342.70 260.83 340.41 257.78
  Q 336.63 252.73 333.39 249.17
  C 327.89 243.15 325.17 240.33 319.18 234.88
  Q 316.55 232.48 312.14 229.93
  Q 297.78 221.63 296.48 221.03
  C 293.01 219.42 286.97 217.47 281.55 216.67
  Q 277.77 216.10 274.32 215.02
  A 2.30 2.17 49.5 0 0 273.39 214.92
  L 269.82 215.30"
/>
<path stroke="#7a7a7a" vector-effect="non-scaling-stroke" d="
  M 269.82 215.30
  Q 268.49 214.07 266.49 214.06
  Q 250.31 213.95 250.26 213.95
  Q 247.11 214.06 246.79 211.23
  A 1.34 1.33 -78.0 0 0 246.13 210.21
  Q 245.98 210.11 245.97 210.11
  A 1.53 1.52 12.9 0 1 245.17 208.84
  L 244.90 203.28
  A 2.61 2.60 70.1 0 1 245.93 201.07
  L 250.81 197.37
  A 1.47 1.45 -66.1 0 1 251.55 197.08
  Q 257.58 196.56 263.77 198.34
  A 6.22 5.95 53.0 0 0 265.19 198.57
  C 274.47 199.01 280.59 198.88 288.05 201.36
  Q 294.31 203.44 299.63 204.31
  A 4.58 4.33 63.1 0 1 301.11 204.84
  Q 305.63 207.45 313.56 211.69
  Q 321.72 216.07 329.45 223.31
  C 330.61 224.40 331.98 225.08 332.93 225.78
  A 6.72 6.31 -1.8 0 1 333.78 226.53
  C 336.76 229.66 340.10 232.06 342.92 235.28
  Q 349.92 243.26 354.40 249.58
  Q 357.75 254.30 358.61 256.18
  C 360.35 259.96 363.98 264.60 366.74 269.33
  C 371.81 278.03 376.29 285.76 378.99 295.13
  A 0.25 0.24 37.7 0 0 379.47 295.07
  Q 379.57 289.40 380.24 284.13
  C 381.02 278.03 380.65 273.95 380.76 267.50
  C 380.81 264.70 381.93 262.57 384.68 261.57
  Q 393.33 258.42 397.38 266.66
  A 5.04 4.96 31.7 0 1 397.88 268.70
  C 397.99 273.94 399.12 280.06 399.04 285.77
  Q 398.68 308.38 391.16 330.17
  Q 389.41 335.24 385.81 344.48
  Q 385.16 346.15 384.56 347.67
  Q 382.15 353.77 379.89 360.08
  A 6.03 5.90 71.0 0 1 379.35 361.22
  C 375.76 367.10 373.26 370.51 370.62 375.17
  C 369.15 377.77 365.49 380.67 364.89 384.17
  A 0.53 0.52 -89.2 0 0 365.48 384.78
  C 370.08 384.14 374.42 382.27 379.56 381.79
  Q 394.05 380.41 409.53 383.44
  Q 413.42 384.20 418.85 386.10
  Q 424.46 388.06 428.19 388.83
  Q 432.50 389.71 435.70 390.93
  Q 436.24 391.14 437.74 391.28
  Q 438.83 391.39 439.16 392.13
  A 1.17 1.16 77.8 0 0 440.24 392.83
  Q 444.01 392.76 447.93 395.42
  A 1.23 1.22 -38.2 0 0 449.04 395.55
  Q 451.65 394.56 453.89 392.39
  Q 456.53 389.83 464.72 381.58
  C 466.22 380.06 467.25 378.44 468.22 376.79
  A 0.93 0.93 0.0 0 0 468.19 375.81
  Q 456.92 359.14 449.56 340.70
  C 448.38 337.74 447.83 334.24 446.56 331.42
  A 2.38 2.19 28.6 0 1 446.42 331.01
  L 443.33 317.23
  A 2.53 2.19 40.9 0 1 443.26 316.75
  Q 443.01 311.40 442.35 308.71
  Q 441.24 304.21 441.07 300.27
  Q 440.55 287.86 441.67 279.64
  Q 442.13 276.29 444.39 268.48
  A 0.20 0.17 -40.3 0 0 444.40 268.42
  L 445.88 256.54
  A 7.53 7.43 64.0 0 1 446.83 253.72
  Q 448.64 250.60 450.68 245.32
  Q 452.09 241.69 454.50 237.56
  Q 456.37 234.37 461.62 225.78
  A 4.91 4.89 -7.0 0 1 462.27 224.95
  Q 465.72 221.43 467.40 219.24
  C 470.69 214.95 474.91 212.03 479.33 208.84
  Q 481.40 207.34 483.33 204.88
  A 1.39 1.31 8.5 0 1 483.98 204.43
  L 487.21 203.37
  A 3.10 2.92 15.1 0 0 488.05 202.92
  L 492.05 199.79
  A 3.13 3.01 -69.3 0 1 493.27 199.21
  Q 495.49 198.71 496.80 197.81
  A 3.58 3.52 22.5 0 1 498.26 197.22
  C 502.08 196.60 505.45 194.36 510.13 195.23
  A 1.13 1.11 -10.0 0 1 510.90 195.76
  C 511.81 197.25 512.44 196.86 514.07 197.13
  A 0.98 0.97 -3.3 0 1 514.85 197.82
  L 516.10 202.02"
/>
<path stroke="#7d4115" vector-effect="non-scaling-stroke" d="
  M 516.10 202.02
  L 514.76 208.29
  A 1.90 1.90 0.0 0 1 513.55 209.68
  Q 509.58 211.10 506.58 212.79
  C 504.57 213.93 501.94 213.94 500.15 215.16
  Q 491.75 220.89 485.59 226.07
  Q 485.39 226.23 485.25 226.71"
/>
<path stroke="#131313" vector-effect="non-scaling-stroke" d="
  M 485.25 226.71
  Q 484.19 227.05 483.86 227.36
  Q 475.64 235.05 470.58 244.37
  C 467.46 250.13 464.04 256.75 461.51 263.73
  C 459.33 269.74 458.82 278.58 458.11 282.73
  C 456.03 294.90 457.62 307.92 460.56 319.98
  Q 460.75 320.75 461.03 321.11"
/>
<path stroke="#7a7a7a" vector-effect="non-scaling-stroke" d="
  M 461.03 321.11
  L 460.91 321.36
  A 0.49 0.46 51.9 0 0 460.88 321.70
  C 462.21 325.86 462.92 328.84 464.83 332.86
  Q 471.83 347.52 481.85 360.50
  A 7.25 7.22 -76.3 0 1 482.75 361.99
  Q 486.05 369.14 486.94 373.74
  C 487.46 376.38 485.88 378.93 485.91 381.50
  C 485.98 389.26 475.53 398.63 469.50 402.72
  A 1.36 1.36 0.0 0 0 469.28 404.78
  Q 469.95 405.47 470.75 405.80
  Q 483.93 411.19 486.83 412.44
  A 5.44 5.24 61.4 0 0 487.88 412.77
  L 495.04 414.14
  A 4.42 4.36 67.9 0 1 496.83 414.91
  Q 501.60 418.39 507.96 420.49
  Q 518.24 423.89 528.12 424.42
  A 13.57 13.19 -34.9 0 1 530.98 424.89
  Q 533.94 425.70 537.46 426.06
  C 540.65 426.38 545.99 428.31 549.52 427.85
  Q 556.10 427.00 559.96 427.35
  A 1.88 1.84 -55.8 0 0 560.95 427.15
  Q 562.35 426.42 562.99 426.40
  Q 575.66 425.98 579.05 425.86
  C 584.83 425.65 589.40 424.56 595.76 423.77
  C 599.55 423.30 602.99 421.89 605.72 420.99
  Q 608.57 420.06 613.17 418.74
  Q 623.44 415.80 627.65 413.54
  Q 633.43 410.44 635.79 409.27
  Q 639.72 407.33 643.62 404.46
  C 651.23 398.86 655.26 395.32 661.60 390.42
  Q 669.83 384.04 675.77 375.52
  Q 677.42 373.15 684.46 366.26
  A 9.54 8.37 89.6 0 0 685.42 365.15
  C 687.53 362.21 689.67 358.99 692.82 357.74
  C 694.09 357.23 694.00 356.36 695.76 356.06
  C 704.18 354.63 706.62 361.60 704.61 368.27
  A 4.29 4.19 71.9 0 1 703.96 369.59
  C 701.59 372.90 697.39 375.32 695.62 380.79
  A 1.02 0.99 76.4 0 1 695.40 381.16
  L 679.93 397.19
  A 1.78 1.72 6.1 0 1 679.52 397.51
  Q 673.04 401.19 668.50 408.06
  A 6.62 6.33 -4.2 0 1 667.19 409.51
  Q 659.17 416.12 652.14 420.14
  Q 651.18 420.68 649.30 421.27
  A 2.31 2.23 -69.2 0 0 648.77 421.52
  L 637.80 428.15"
/>
<path stroke="#131313" vector-effect="non-scaling-stroke" d="
  M 637.80 428.15
  Q 635.21 429.48 627.06 432.33
  Q 615.69 436.30 611.90 436.93
  Q 594.36 439.81 579.74 441.95
  C 573.03 442.93 565.73 443.21 559.75 443.72
  Q 553.60 444.23 545.62 443.18
  Q 541.13 442.59 536.68 443.33
  A 2.07 2.05 -33.7 0 1 535.25 443.05
  Q 532.45 441.29 528.03 440.98
  C 525.13 440.77 522.39 439.71 520.21 439.44
  Q 505.50 437.57 499.39 434.84
  C 494.93 432.84 490.99 431.17 486.87 429.80
  Q 482.31 428.27 479.65 426.69
  Q 478.49 425.99 473.89 424.60
  A 5.53 5.44 67.3 0 1 472.89 424.18
  Q 465.30 420.02 456.49 418.44"
/>
<path stroke="#7a7a7a" vector-effect="non-scaling-stroke" d="
  M 456.49 418.44
  Q 449.41 413.17 442.40 411.30
  Q 435.98 409.59 431.35 407.42
  Q 430.80 407.16 428.56 405.96
  Q 426.37 404.78 423.54 404.13
  Q 419.78 403.25 418.30 402.63
  Q 409.79 399.06 397.00 397.75
  Q 382.77 396.28 371.05 400.63
  Q 359.27 405.01 350.60 413.45
  C 344.49 419.40 339.83 428.35 337.58 436.37
  C 334.87 446.06 333.24 454.39 336.35 463.65
  Q 340.90 477.18 350.59 487.66
  Q 356.17 493.71 363.56 500.20
  C 368.37 504.42 374.10 507.02 378.91 511.25
  C 384.30 515.98 389.52 519.59 396.78 523.38
  Q 398.53 524.29 400.26 526.62
  C 401.36 528.09 404.29 528.05 406.00 528.75
  Q 410.43 530.56 411.92 531.31
  Q 420.20 535.49 422.98 536.64"
/>
<path stroke="#7d4115" vector-effect="non-scaling-stroke" d="
  M 422.98 536.64
  Q 428.88 536.95 433.26 539.47
  C 438.64 542.58 445.96 543.23 451.60 544.53
  Q 456.98 545.76 460.10 546.08
  Q 477.05 547.84 491.53 548.81
  Q 500.07 549.38 514.46 548.63
  Q 525.88 548.03 537.37 547.38"
/>
<path stroke="#7a7a7a" vector-effect="non-scaling-stroke" d="
  M 537.37 547.38
  Q 540.60 546.59 544.26 546.01
  Q 549.12 545.25 551.18 544.74
  C 557.02 543.29 560.36 543.08 565.45 541.68
  Q 566.84 541.29 571.48 540.53
  Q 573.80 540.15 579.15 537.78
  A 4.66 4.39 -59.7 0 1 580.20 537.47
  Q 585.98 536.52 596.81 532.09
  Q 598.88 531.24 604.34 529.84
  A 7.92 7.54 -64.0 0 0 605.98 529.23
  Q 611.08 526.69 615.64 525.72
  A 3.87 3.84 -66.6 0 0 616.91 525.21
  Q 621.60 522.32 628.82 519.09
  Q 629.27 518.89 630.24 517.92
  A 1.89 1.88 -74.7 0 1 631.09 517.43
  Q 633.74 516.70 637.03 515.03
  Q 641.30 512.87 650.79 507.76
  Q 655.27 505.34 657.45 503.70
  C 667.91 495.77 673.97 491.49 679.36 487.05
  Q 682.34 484.60 685.67 483.22
  Q 687.32 482.54 689.46 478.70"
/>
<path stroke="#7d4115" vector-effect="non-scaling-stroke" d="
  M 689.46 478.70
  L 699.14 469.28
  A 1.75 1.40 -90.0 0 0 699.42 468.93
  Q 701.70 465.21 704.40 462.79
  Q 705.73 461.61 706.98 459.63
  Q 707.68 458.54 709.98 456.25
  A 1.17 0.52 -24.0 0 0 710.07 456.15
  L 721.39 439.78
  A 4.52 4.38 71.9 0 0 721.96 438.61
  L 722.47 436.99
  A 1.15 1.14 75.8 0 1 722.73 436.55
  C 726.77 432.27 729.33 426.48 732.55 420.57
  Q 735.72 414.75 737.40 409.72
  Q 737.95 408.07 744.58 390.69
  A 2.29 2.27 77.5 0 1 745.04 389.96
  Q 745.38 389.61 745.47 389.27
  C 747.29 382.22 748.91 375.51 749.03 367.50
  Q 749.64 327.69 740.19 288.95"
/>
<path stroke="#131313" vector-effect="non-scaling-stroke" d="
  M 740.19 288.95
  Q 734.83 265.78 725.81 243.70
  Q 723.34 237.67 720.00 231.67
  Q 714.59 221.98 713.54 219.98
  Q 705.26 204.32 695.33 191.18
  Q 681.42 172.78 664.38 154.87
  C 663.18 153.62 661.56 152.44 660.23 151.07
  Q 659.61 150.42 659.04 151.09"
/>
<path stroke="#7a7a7a" vector-effect="non-scaling-stroke" d="
  M 659.04 151.09
  Q 659.10 150.69 659.06 150.35
  Q 659.03 150.04 658.75 149.74
  Q 650.77 141.18 641.98 134.05
  Q 641.06 133.31 637.67 131.45
  A 1.62 1.33 -5.7 0 1 637.43 131.29
  L 623.35 119.55
  A 1.61 1.59 -11.6 0 0 622.95 119.29
  Q 620.54 118.19 618.75 116.70
  Q 616.48 114.81 614.53 113.56
  C 606.28 108.31 599.61 103.69 591.04 99.71
  Q 587.40 98.03 579.81 93.73
  Q 573.89 90.39 562.40 85.13
  Q 556.23 82.31 548.53 79.87
  C 538.93 76.82 529.10 71.14 518.83 68.91
  Q 516.63 68.43 513.20 67.29
  Q 511.89 66.86 502.87 65.29
  A 1.27 1.23 69.9 0 1 502.25 64.99
  Q 501.90 64.67 501.66 64.62
  Q 488.08 61.30 481.99 60.81
  Q 470.91 59.93 459.82 58.36
  Q 454.54 57.61 447.93 57.46
  Q 440.76 57.29 435.95 57.32
  Q 434.88 57.33 426.06 57.24
  Q 415.68 57.14 405.27 58.36"
/>
<path stroke="#8d8d8d" vector-effect="non-scaling-stroke" d="
  M 659.04 151.09
  Q 653.84 157.55 651.80 166.55
  Q 648.28 182.01 647.38 195.78
  C 646.31 211.98 646.57 225.25 653.32 238.69
  Q 668.20 268.30 699.00 282.38"
/>
<path stroke="#f7bb8f" vector-effect="non-scaling-stroke" d="
  M 699.00 282.38
  Q 701.19 296.33 710.15 307.12
  Q 714.57 312.43 719.72 318.50
  Q 724.75 324.43 723.69 330.83
  Q 720.18 352.16 708.81 371.83
  Q 703.55 380.94 697.02 392.98
  C 685.21 414.75 679.75 441.15 685.23 465.55
  C 686.18 469.79 687.95 474.34 689.46 478.70"
/>
<path stroke="#f7bb8f" vector-effect="non-scaling-stroke" d="
  M 537.37 547.38
  Q 533.11 534.08 521.01 525.73
  C 505.43 514.98 488.09 511.95 468.90 513.13
  C 464.71 513.39 460.85 514.62 456.17 515.54
  C 450.67 516.61 444.88 518.87 440.24 521.47
  Q 430.24 527.08 422.98 536.64"
/>
<path stroke="#8d8d8d" vector-effect="non-scaling-stroke" d="
  M 456.49 418.44
  Q 465.67 428.50 476.45 438.80
  Q 488.26 450.08 500.91 458.49
  Q 516.29 468.72 527.84 473.28
  Q 541.50 478.68 557.76 479.82
  C 569.68 480.66 583.15 480.33 595.37 476.97
  Q 603.45 474.75 609.09 471.36
  Q 617.30 466.42 620.83 462.32
  Q 627.85 454.17 633.59 441.61
  Q 636.80 434.59 637.80 428.15"
/>
<path stroke="#8d8d8d" vector-effect="non-scaling-stroke" d="
  M 461.03 321.11
  Q 470.85 320.27 481.37 317.35
  Q 492.07 314.39 500.55 308.25
  Q 504.48 305.42 507.63 303.06"
/>
<path stroke="#f7bb8f" vector-effect="non-scaling-stroke" d="
  M 507.63 303.06
  Q 515.68 309.30 517.86 311.40
  Q 531.27 324.31 544.25 339.74
  Q 545.78 341.57 556.78 352.29
  C 560.99 356.41 566.92 360.64 571.36 363.15
  Q 583.51 370.02 597.49 370.02
  C 620.99 370.02 640.17 352.50 642.71 329.27
  Q 644.91 309.21 637.00 291.29
  C 628.60 272.28 615.66 255.99 600.17 241.81
  Q 582.49 225.62 564.45 215.41
  Q 550.19 207.33 539.45 204.41
  Q 530.58 201.99 526.76 201.98
  Q 521.41 201.97 516.10 202.02"
/>
<path stroke="#8d8d8d" vector-effect="non-scaling-stroke" d="
  M 269.82 215.30
  Q 273.35 223.93 274.60 226.38
  C 285.45 247.63 306.60 263.07 329.43 268.78
  Q 340.19 271.47 349.25 270.88"
/>
<path stroke="#f7bb8f" vector-effect="non-scaling-stroke" d="
  M 318.95 459.96
  Q 315.73 457.87 312.91 455.44
  Q 308.67 451.78 307.06 450.67
  Q 297.19 443.83 286.73 439.03
  C 278.52 435.26 270.36 432.51 261.65 432.87
  C 257.75 433.03 255.23 437.04 253.93 440.40
  Q 248.66 453.96 247.89 468.37"
/>
<path stroke="#8d8d8d" vector-effect="non-scaling-stroke" d="
  M 163.19 457.40
  Q 165.09 456.67 168.07 454.32
  Q 184.52 441.40 193.87 424.58
  C 200.55 412.57 198.94 398.56 192.85 386.59"
/>
<path stroke="#7a7a7a" vector-effect="non-scaling-stroke" d="
  M 192.85 386.59
  Q 197.34 385.54 201.19 383.67
  Q 203.10 382.75 204.27 380.95
  A 1.76 1.72 3.6 0 1 204.99 380.33
  Q 209.16 378.32 211.08 376.57
  C 219.86 368.56 224.92 360.29 232.50 347.98
  Q 232.89 347.35 235.84 343.43
  A 3.76 3.55 -16.8 0 0 236.24 342.73
  L 240.56 332.47
  A 0.79 0.78 -87.5 0 1 241.05 332.02
  Q 242.87 331.42 242.99 328.51
  Q 243.35 319.97 242.78 317.73
  A 0.85 0.84 88.8 0 0 242.14 317.11
  C 237.72 316.12 234.00 315.06 230.30 317.24
  Q 228.89 318.07 227.69 321.49
  Q 226.20 325.75 223.24 330.33
  Q 220.50 334.55 219.76 336.09
  Q 216.93 341.94 216.74 342.16
  A 7.61 6.32 -36.6 0 1 216.01 342.94
  Q 214.90 343.98 213.21 346.45
  Q 209.22 352.26 207.47 355.17
  A 6.10 5.87 84.5 0 1 206.55 356.33
  Q 203.61 359.24 196.03 366.71
  Q 194.16 368.55 187.92 370.39
  A 2.18 2.14 40.2 0 1 186.98 370.46
  Q 182.46 369.84 180.36 365.70"
/>
<path stroke="#8d8d8d" vector-effect="non-scaling-stroke" d="
  M 180.36 365.70
  L 168.05 349.15"
/>
<path stroke="#7a7a7a" vector-effect="non-scaling-stroke" d="
  M 168.05 349.15
  C 162.81 343.03 162.21 337.38 159.57 326.99
  A 8.05 7.82 -66.0 0 0 159.02 325.49
  C 157.99 323.37 157.99 321.23 157.70 317.45
  A 3.99 3.97 -62.4 0 0 157.18 315.77
  L 156.57 314.71
  A 3.58 3.48 -61.7 0 1 156.10 313.06
  L 155.90 307.22
  A 1.13 1.11 18.7 0 0 155.49 306.40
  L 151.11 302.74
  A 1.71 1.69 74.3 0 0 150.60 302.45
  Q 146.89 301.12 143.74 302.66
  A 1.98 1.93 2.0 0 0 142.95 303.38
  Q 141.78 305.25 141.39 308.56
  Q 140.89 312.72 140.97 314.89"
/>
<path stroke="#8d8d8d" vector-effect="non-scaling-stroke" d="
  M 140.97 314.89
  Q 135.94 309.39 130.54 304.08
  Q 129.53 303.08 124.92 297.96
  Q 122.11 294.85 118.79 292.34"
/>
<path stroke="#f7bb8f" vector-effect="non-scaling-stroke" d="
  M 179.69 176.23
  Q 182.71 184.03 187.70 189.87
  Q 191.69 194.54 195.79 196.46
  C 204.36 200.46 214.43 198.64 222.34 193.52
  C 230.76 188.07 237.30 180.82 245.89 175.16
  Q 256.71 168.03 269.27 168.08
  Q 277.52 168.11 283.69 169.13
  C 292.04 170.50 302.60 172.71 311.82 172.95
  Q 319.10 173.13 325.50 172.90
  C 339.30 172.41 353.04 166.36 363.75 158.48
  Q 375.92 149.53 383.42 135.28
  C 387.80 126.97 389.85 117.54 390.82 108.00
  Q 391.14 104.82 392.43 88.73
  Q 393.63 73.69 403.22 63.23
  Q 404.89 61.41 405.27 58.36"
/>
<path stroke="#905428" vector-effect="non-scaling-stroke" d="
  M 740.19 288.95
  C 737.25 289.19 734.32 289.91 731.58 289.85
  Q 721.36 289.65 711.54 286.72
  Q 708.26 285.74 699.00 282.38"
/>
<path stroke="#905428" vector-effect="non-scaling-stroke" d="
  M 507.63 303.06
  Q 509.14 300.82 512.32 296.58
  Q 517.11 290.19 518.47 281.75
  C 519.79 273.51 519.68 263.35 516.60 255.20
  C 511.90 242.75 498.45 229.62 485.25 226.71"
/>
<path stroke="#131313" vector-effect="non-scaling-stroke" d="
  M 168.05 349.15
  Q 168.36 351.40 170.32 354.19
  Q 175.05 360.94 175.49 361.64
  A 3.97 3.61 8.6 0 0 176.06 362.34
  C 176.90 363.15 176.97 362.90 177.68 364.30
  Q 178.47 365.85 180.36 365.70"
/>
<path stroke="#131313" vector-effect="non-scaling-stroke" d="
  M 140.97 314.89
  C 143.26 323.84 143.93 333.20 146.99 341.92
  Q 149.80 349.93 149.81 349.95
  C 152.64 357.66 156.15 362.40 162.18 370.90
  Q 166.33 376.74 169.59 379.39
  Q 174.99 383.78 179.10 385.42
  Q 185.29 387.89 192.85 386.59"
/>
<path stroke="#7a7a7a" vector-effect="non-scaling-stroke" d="
  M 310.21 327.18
  C 312.18 321.32 309.95 314.48 306.54 309.69
  A 1.88 1.83 -70.7 0 1 306.30 309.17
  L 305.80 307.31
  A 0.83 0.71 26.2 0 0 305.70 307.08
  C 303.29 303.25 297.42 297.36 292.32 299.70
  C 287.05 302.13 291.47 308.70 294.27 311.22
  Q 296.64 313.36 297.38 314.63
  C 299.79 318.81 299.28 324.08 302.20 327.41
  A 1.71 1.70 -20.2 0 0 303.46 327.99
  L 308.95 328.07
  A 1.30 1.30 0.0 0 0 310.21 327.18"
/>
<path stroke="#7a7a7a" vector-effect="non-scaling-stroke" d="
  M 342.10 344.34
  C 341.85 343.53 341.47 342.91 340.70 342.56
  C 335.64 340.27 330.49 334.77 325.31 340.63
  C 323.38 342.82 323.87 347.60 324.44 350.03
  Q 326.36 358.24 327.24 365.00
  A 1.21 1.20 15.6 0 0 327.70 365.81
  C 329.60 367.29 329.68 369.64 332.78 369.95
  Q 336.62 370.33 340.37 369.85
  A 1.32 1.31 7.4 0 0 341.41 369.06
  L 344.61 361.46
  A 0.55 0.50 -15.9 0 1 344.69 361.33
  Q 349.80 355.57 355.97 352.86
  A 1.47 1.44 84.2 0 0 356.81 351.81
  Q 357.56 347.83 356.74 343.71
  A 1.15 1.13 -84.8 0 0 356.05 342.87
  Q 351.55 341.08 346.62 342.39
  C 345.49 342.69 343.87 344.21 342.77 344.66
  A 0.50 0.50 0.0 0 1 342.10 344.34"
/>
</g>
<path fill="#000000" d="
  M 338.80 52.04
  Q 339.19 51.41 340.17 51.30
  Q 345.32 50.73 347.68 49.72
  A 4.17 4.12 30.6 0 1 348.91 49.41
  L 358.99 48.40
  A 1.34 1.31 21.1 0 0 359.74 48.08
  Q 359.77 48.05 359.85 47.96
  A 0.56 0.55 10.1 0 1 360.10 47.79
  Q 365.71 46.02 372.01 45.37
  C 382.23 44.31 388.58 44.18 397.11 42.79
  Q 399.52 42.40 407.89 41.80
  Q 410.70 41.60 417.41 40.63
  C 423.03 39.82 429.04 40.58 434.67 40.39
  C 444.88 40.06 455.28 41.56 468.14 43.24
  Q 480.51 44.86 487.81 45.44
  Q 488.94 45.53 489.85 46.02
  A 2.56 2.44 61.9 0 0 490.76 46.32
  Q 500.43 47.55 512.86 50.81
  Q 517.38 52.00 526.42 54.19
  Q 534.32 56.11 542.86 59.43
  Q 544.03 59.89 546.48 60.22
  A 1.98 1.96 -20.4 0 1 547.50 60.68
  Q 550.04 62.91 559.10 65.96
  Q 564.05 67.63 581.45 76.37
  A 3.92 3.72 64.9 0 0 582.24 76.68
  Q 586.27 77.78 589.17 80.07
  A 0.18 0.06 16.8 0 0 589.23 80.11
  L 598.50 85.47
  A 2.37 2.36 -23.3 0 0 599.16 85.73
  Q 601.78 86.28 604.74 88.94
  A 4.58 4.47 79.4 0 0 605.78 89.67
  Q 613.73 93.81 619.69 97.74
  Q 621.85 99.16 622.96 99.28
  Q 623.83 99.37 625.69 100.87
  Q 627.27 102.14 627.94 102.86
  C 630.04 105.12 632.99 106.24 635.28 108.12
  Q 640.02 112.03 648.98 118.82
  C 649.80 119.45 650.46 120.68 651.21 120.70
  Q 651.73 120.72 652.42 121.31
  Q 657.42 125.64 660.21 127.46
  A 2.06 1.87 84.6 0 1 660.67 127.88
  L 663.54 131.46
  A 0.89 0.87 -14.1 0 0 664.05 131.76
  Q 665.39 132.00 666.00 133.23
  Q 668.03 137.32 671.13 138.34
  A 0.98 0.97 89.3 0 1 671.75 138.95
  Q 672.19 140.19 672.62 140.61
  Q 678.07 146.04 678.77 146.69
  Q 678.98 146.89 679.91 147.23
  A 1.17 1.16 88.0 0 1 680.57 147.85
  Q 681.98 151.00 685.31 152.75
  Q 686.64 153.45 687.08 154.70
  A 1.62 1.60 13.6 0 0 687.47 155.33
  Q 693.32 161.37 695.83 163.87
  Q 699.93 167.93 702.10 171.17
  Q 704.00 173.99 706.06 176.40
  Q 707.55 178.14 709.76 181.65
  Q 713.35 187.37 717.57 193.05
  Q 721.62 198.51 724.36 203.82
  Q 727.68 210.26 733.72 220.35
  A 2.47 2.23 59.4 0 1 733.88 220.66
  L 743.69 242.98
  A 7.97 7.85 -76.3 0 0 744.70 244.67
  Q 748.17 249.06 748.30 254.73
  A 1.21 1.19 16.1 0 0 748.86 255.72
  Q 748.91 255.76 748.92 255.76
  A 1.83 1.83 0.0 0 1 749.67 256.80
  L 755.44 278.19
  A 0.67 0.65 25.7 0 0 755.51 278.38
  Q 757.10 281.58 757.21 286.09
  A 3.43 3.41 30.1 0 0 757.63 287.65
  Q 758.01 288.35 759.15 293.17
  Q 760.11 297.23 763.56 307.72
  Q 764.08 309.29 764.36 316.50
  A 1.87 1.50 -60.6 0 0 764.43 316.92
  L 765.45 320.73
  A 16.39 16.22 -52.8 0 1 766.01 324.97
  Q 765.94 340.44 766.62 343.99
  Q 769.29 358.08 766.00 371.06
  Q 764.41 377.33 764.18 380.12
  Q 764.02 382.13 762.75 389.30
  A 5.82 5.74 61.7 0 1 762.40 390.50
  Q 760.75 394.60 759.25 399.40
  C 758.43 402.01 757.09 404.14 756.85 406.93
  A 4.51 4.47 61.1 0 1 756.37 408.63
  C 754.33 412.63 752.57 418.86 750.53 422.77
  Q 748.38 426.88 748.20 427.47
  Q 747.83 428.70 745.77 432.11
  Q 742.30 437.85 741.79 438.97
  Q 741.34 439.95 737.01 446.86
  Q 733.98 451.69 732.65 454.95
  A 1.42 1.41 -89.4 0 1 731.87 455.72
  L 731.18 456.00
  A 1.38 1.37 6.9 0 0 730.55 456.49
  Q 728.42 459.43 727.41 461.89
  C 726.63 463.77 725.11 464.75 724.02 466.25
  Q 708.68 487.42 686.24 503.97
  Q 678.89 509.38 668.91 514.90
  Q 661.52 518.98 651.55 525.82
  C 648.81 527.69 644.60 529.83 641.95 530.94
  C 632.29 534.96 627.89 536.64 619.82 541.01
  Q 613.22 544.59 608.23 547.10
  A 5.31 4.99 -63.5 0 1 607.26 547.46
  Q 603.90 548.36 600.12 549.87
  C 595.57 551.69 591.64 552.28 587.55 553.80
  A 1.46 0.00 -6.8 0 0 586.11 553.97
  Q 584.25 554.19 579.81 555.75
  Q 576.56 556.89 566.79 558.66
  Q 562.10 559.52 558.81 560.36
  C 554.50 561.46 551.70 562.36 548.23 562.81
  Q 525.97 565.69 509.74 565.48
  Q 484.87 565.17 456.87 562.39
  Q 455.62 562.27 446.51 560.13
  Q 446.50 560.13 441.19 558.87
  C 437.64 558.03 433.63 556.13 430.70 555.24
  Q 415.18 550.55 410.56 548.96
  Q 402.78 546.28 399.83 544.29
  Q 394.13 540.44 392.81 539.86
  Q 386.27 536.95 383.59 535.12
  Q 374.09 528.65 372.91 527.91
  Q 370.72 526.53 368.49 524.65
  Q 367.40 523.72 364.24 521.97
  A 3.52 3.49 82.2 0 1 363.43 521.35
  Q 360.48 518.37 357.05 516.64
  Q 355.72 515.97 354.15 513.68
  Q 353.32 512.46 352.31 511.82
  Q 351.54 511.33 350.50 510.32
  Q 343.26 503.30 337.17 497.56
  Q 336.89 497.30 334.53 494.61
  Q 334.52 494.59 334.51 494.57
  L 328.54 485.19
  A 3.50 3.48 67.6 0 0 324.85 483.64
  Q 316.90 485.34 314.45 486.08
  Q 310.78 487.19 307.95 487.39
  C 305.52 487.56 302.05 488.69 299.22 488.85
  Q 289.39 489.40 284.99 489.62
  Q 273.40 490.21 261.07 487.14
  Q 259.94 486.86 257.24 487.01
  A 1.49 1.47 10.5 0 0 255.97 487.87
  L 254.59 490.82
  A 0.45 0.38 66.8 0 0 254.55 490.95
  Q 252.77 498.74 251.36 503.92
  Q 250.82 505.91 250.00 507.57
  A 3.68 3.37 65.6 0 0 249.68 508.55
  Q 248.59 514.95 243.91 519.33
  A 5.90 5.78 16.6 0 1 241.18 520.77
  C 231.91 522.81 221.84 523.95 212.55 522.16
  Q 208.60 521.40 204.13 518.65
  C 200.21 516.23 196.69 514.18 194.86 511.90
  C 194.17 511.05 193.18 511.18 192.33 510.38
  Q 189.23 507.47 184.57 504.11
  Q 178.68 499.86 176.63 497.85
  Q 170.30 491.60 165.44 486.16
  C 165.09 485.77 165.02 485.24 164.68 484.83
  Q 161.31 480.77 158.06 477.27
  Q 154.38 473.32 151.85 469.42
  C 145.81 460.09 140.87 451.74 134.95 443.03
  Q 130.00 435.74 128.99 434.02
  Q 126.27 429.34 119.06 414.69
  Q 118.90 414.37 118.68 413.21
  A 2.88 2.81 24.1 0 0 118.29 412.22
  Q 115.46 407.74 114.71 403.47
  A 3.13 3.00 -62.2 0 0 114.50 402.74
  L 111.25 395.19
  A 0.13 0.13 0.0 0 0 111.17 395.11
  Q 110.79 394.92 110.52 394.22
  Q 108.29 388.51 106.92 383.97
  Q 105.52 379.32 104.54 373.21
  Q 103.53 366.88 102.52 362.38
  Q 100.64 354.03 100.25 346.80
  C 100.16 345.29 99.31 344.03 99.86 342.88
  Q 100.11 342.37 100.04 341.12
  Q 99.73 334.89 100.22 331.56
  Q 100.96 326.65 101.06 322.05
  Q 101.16 317.62 102.08 314.02
  Q 102.86 311.03 102.71 307.41
  Q 102.19 294.85 104.03 280.22
  C 104.49 276.60 105.64 273.13 106.47 269.35
  A 1.03 0.99 -9.9 0 1 106.96 268.68
  L 107.20 268.54
  A 0.39 0.39 0.0 0 0 107.38 268.25
  Q 107.70 265.26 108.28 263.50
  Q 109.93 258.54 113.08 252.25
  A 5.72 5.22 69.0 0 0 113.44 251.33
  Q 115.00 246.19 116.93 242.94
  Q 123.43 232.04 128.96 223.86
  Q 133.97 216.45 137.08 211.25
  C 141.19 204.38 144.05 199.22 148.03 194.98
  A 4.14 3.98 -8.9 0 0 148.63 194.19
  Q 149.87 192.09 151.43 190.63
  Q 153.43 188.77 154.05 187.01
  Q 154.53 185.65 162.34 172.66
  C 163.41 170.89 165.05 167.22 167.15 165.12
  Q 171.47 160.80 175.10 155.10
  Q 176.23 153.33 176.27 152.29
  A 0.85 0.80 68.5 0 1 176.48 151.76
  L 190.72 136.18
  A 0.80 0.24 -73.2 0 0 190.78 136.09
  Q 192.18 134.02 194.17 131.92
  Q 199.75 126.02 205.15 121.22
  Q 208.84 117.94 229.10 103.07
  Q 230.17 102.28 233.31 100.41
  Q 236.76 98.36 237.45 97.63
  A 0.86 0.78 -74.3 0 1 237.77 97.43
  L 239.79 96.72
  A 3.18 3.05 -70.7 0 0 240.56 96.33
  C 244.13 93.85 248.15 91.92 251.50 89.51
  Q 260.40 83.11 273.88 77.12
  Q 280.83 74.04 294.92 66.37
  Q 294.97 66.35 295.02 66.33
  L 310.17 60.29
  A 1.27 0.89 -39.3 0 1 310.33 60.24
  Q 315.08 59.13 322.01 56.33
  Q 329.08 53.47 338.13 52.46
  A 0.92 0.90 12.3 0 0 338.80 52.04
  Z
  M 405.27 58.36
  C 397.29 59.85 389.12 61.38 381.18 61.60
  Q 374.66 61.77 368.17 62.42
  A 1.82 1.81 -67.5 0 0 367.24 62.81
  Q 367.15 62.88 367.11 62.91
  A 1.89 1.78 20.1 0 1 366.18 63.31
  Q 354.07 64.98 344.55 67.83
  Q 340.05 69.17 319.80 75.61
  A 2.73 2.44 -68.8 0 0 319.21 75.91
  Q 318.49 76.42 318.04 76.54
  C 303.48 80.55 292.41 86.77 277.03 94.42
  Q 274.31 95.78 271.30 97.46
  C 266.39 100.22 261.98 102.31 257.21 105.44
  Q 244.26 113.95 235.24 119.49
  Q 230.91 122.14 227.54 125.43
  A 7.55 7.23 6.0 0 1 226.29 126.40
  Q 221.52 129.32 215.29 135.30
  Q 201.92 148.11 191.21 160.97
  Q 184.72 168.76 179.69 176.23
  L 174.99 184.05
  A 0.28 0.10 -70.7 0 1 174.95 184.10
  L 167.62 194.44
  A 1.27 0.95 81.8 0 0 167.50 194.66
  Q 164.45 202.74 157.58 209.54
  A 7.05 6.77 84.8 0 0 156.55 210.83
  Q 154.78 213.71 152.38 216.30
  A 6.10 6.03 -10.2 0 0 151.50 217.55
  Q 150.18 220.10 147.44 222.82
  A 5.34 5.23 -6.5 0 0 146.75 223.67
  C 142.61 230.07 137.89 236.54 134.32 243.48
  Q 128.20 255.37 123.67 267.42
  A 7.68 7.29 -31.4 0 0 123.29 268.83
  Q 121.40 279.44 120.34 283.12
  Q 118.79 288.48 118.79 292.34
  Q 117.14 297.95 116.43 308.75
  Q 115.35 325.09 115.12 329.74
  Q 114.63 339.40 116.37 348.40
  A 14.36 14.30 38.5 0 1 116.63 350.66
  Q 116.93 358.54 117.47 362.09
  C 118.15 366.63 120.13 371.31 121.15 375.78
  C 121.97 379.39 123.79 384.32 124.57 386.94
  Q 125.86 391.28 127.63 395.13
  C 129.85 399.97 131.81 406.16 135.07 411.48
  A 6.05 5.71 -71.4 0 1 135.66 412.76
  C 136.98 416.92 139.91 420.40 141.61 424.24
  C 143.42 428.31 146.07 433.73 149.53 438.51
  Q 150.43 439.75 153.23 444.26
  Q 156.84 450.08 163.19 457.40
  Q 162.90 457.91 163.29 458.45
  Q 166.38 462.74 173.27 471.48
  C 177.95 477.43 181.79 480.81 188.69 487.48
  Q 191.99 490.66 195.71 493.01
  C 198.90 495.01 203.18 498.54 207.23 500.99
  C 209.97 502.64 213.36 505.28 216.72 505.83
  C 223.26 506.89 229.84 506.36 234.25 500.70
  Q 235.33 499.32 236.40 495.37
  Q 238.70 486.89 240.42 482.36
  A 6.69 6.42 -34.1 0 0 240.83 480.45
  Q 240.84 480.35 240.99 475.46
  Q 241.16 469.95 247.89 468.37
  Q 254.94 468.97 264.51 471.19
  C 276.73 474.02 289.23 472.55 301.74 470.98
  Q 309.93 469.96 319.15 466.57
  A 0.64 0.63 -13.0 0 0 319.57 465.91
  L 318.95 459.96
  Q 318.51 446.58 319.94 433.79
  Q 320.69 427.12 320.70 424.18
  C 320.73 417.23 320.90 411.01 318.65 405.04
  C 317.95 403.18 316.28 401.15 316.29 399.00
  C 316.30 394.48 319.51 393.18 323.60 394.30
  Q 328.25 395.58 330.10 399.98
  C 330.90 401.88 332.11 404.06 333.01 406.50
  A 0.33 0.32 37.6 0 0 333.64 406.42
  C 333.81 404.41 334.95 403.71 335.84 402.08
  Q 340.31 393.88 341.40 392.27
  Q 341.88 391.57 346.40 382.18
  Q 348.84 377.12 351.75 372.24
  Q 352.25 371.40 353.47 370.23
  A 1.67 1.48 86.5 0 0 353.76 369.86
  L 364.33 351.55
  A 3.39 3.30 66.6 0 0 364.72 350.52
  C 365.31 347.67 366.79 345.29 367.28 342.38
  Q 368.88 332.90 367.34 323.63
  Q 365.27 311.13 361.93 298.52
  Q 359.88 290.76 353.83 278.95
  A 2.96 2.87 -82.8 0 0 353.20 278.11
  Q 350.21 275.25 349.25 270.88
  Q 348.51 269.16 347.59 267.84
  Q 342.70 260.83 340.41 257.78
  Q 336.63 252.73 333.39 249.17
  C 327.89 243.15 325.17 240.33 319.18 234.88
  Q 316.55 232.48 312.14 229.93
  Q 297.78 221.63 296.48 221.03
  C 293.01 219.42 286.97 217.47 281.55 216.67
  Q 277.77 216.10 274.32 215.02
  A 2.30 2.17 49.5 0 0 273.39 214.92
  L 269.82 215.30
  Q 268.49 214.07 266.49 214.06
  Q 250.31 213.95 250.26 213.95
  Q 247.11 214.06 246.79 211.23
  A 1.34 1.33 -78.0 0 0 246.13 210.21
  Q 245.98 210.11 245.97 210.11
  A 1.53 1.52 12.9 0 1 245.17 208.84
  L 244.90 203.28
  A 2.61 2.60 70.1 0 1 245.93 201.07
  L 250.81 197.37
  A 1.47 1.45 -66.1 0 1 251.55 197.08
  Q 257.58 196.56 263.77 198.34
  A 6.22 5.95 53.0 0 0 265.19 198.57
  C 274.47 199.01 280.59 198.88 288.05 201.36
  Q 294.31 203.44 299.63 204.31
  A 4.58 4.33 63.1 0 1 301.11 204.84
  Q 305.63 207.45 313.56 211.69
  Q 321.72 216.07 329.45 223.31
  C 330.61 224.40 331.98 225.08 332.93 225.78
  A 6.72 6.31 -1.8 0 1 333.78 226.53
  C 336.76 229.66 340.10 232.06 342.92 235.28
  Q 349.92 243.26 354.40 249.58
  Q 357.75 254.30 358.61 256.18
  C 360.35 259.96 363.98 264.60 366.74 269.33
  C 371.81 278.03 376.29 285.76 378.99 295.13
  A 0.25 0.24 37.7 0 0 379.47 295.07
  Q 379.57 289.40 380.24 284.13
  C 381.02 278.03 380.65 273.95 380.76 267.50
  C 380.81 264.70 381.93 262.57 384.68 261.57
  Q 393.33 258.42 397.38 266.66
  A 5.04 4.96 31.7 0 1 397.88 268.70
  C 397.99 273.94 399.12 280.06 399.04 285.77
  Q 398.68 308.38 391.16 330.17
  Q 389.41 335.24 385.81 344.48
  Q 385.16 346.15 384.56 347.67
  Q 382.15 353.77 379.89 360.08
  A 6.03 5.90 71.0 0 1 379.35 361.22
  C 375.76 367.10 373.26 370.51 370.62 375.17
  C 369.15 377.77 365.49 380.67 364.89 384.17
  A 0.53 0.52 -89.2 0 0 365.48 384.78
  C 370.08 384.14 374.42 382.27 379.56 381.79
  Q 394.05 380.41 409.53 383.44
  Q 413.42 384.20 418.85 386.10
  Q 424.46 388.06 428.19 388.83
  Q 432.50 389.71 435.70 390.93
  Q 436.24 391.14 437.74 391.28
  Q 438.83 391.39 439.16 392.13
  A 1.17 1.16 77.8 0 0 440.24 392.83
  Q 444.01 392.76 447.93 395.42
  A 1.23 1.22 -38.2 0 0 449.04 395.55
  Q 451.65 394.56 453.89 392.39
  Q 456.53 389.83 464.72 381.58
  C 466.22 380.06 467.25 378.44 468.22 376.79
  A 0.93 0.93 0.0 0 0 468.19 375.81
  Q 456.92 359.14 449.56 340.70
  C 448.38 337.74 447.83 334.24 446.56 331.42
  A 2.38 2.19 28.6 0 1 446.42 331.01
  L 443.33 317.23
  A 2.53 2.19 40.9 0 1 443.26 316.75
  Q 443.01 311.40 442.35 308.71
  Q 441.24 304.21 441.07 300.27
  Q 440.55 287.86 441.67 279.64
  Q 442.13 276.29 444.39 268.48
  A 0.20 0.17 -40.3 0 0 444.40 268.42
  L 445.88 256.54
  A 7.53 7.43 64.0 0 1 446.83 253.72
  Q 448.64 250.60 450.68 245.32
  Q 452.09 241.69 454.50 237.56
  Q 456.37 234.37 461.62 225.78
  A 4.91 4.89 -7.0 0 1 462.27 224.95
  Q 465.72 221.43 467.40 219.24
  C 470.69 214.95 474.91 212.03 479.33 208.84
  Q 481.40 207.34 483.33 204.88
  A 1.39 1.31 8.5 0 1 483.98 204.43
  L 487.21 203.37
  A 3.10 2.92 15.1 0 0 488.05 202.92
  L 492.05 199.79
  A 3.13 3.01 -69.3 0 1 493.27 199.21
  Q 495.49 198.71 496.80 197.81
  A 3.58 3.52 22.5 0 1 498.26 197.22
  C 502.08 196.60 505.45 194.36 510.13 195.23
  A 1.13 1.11 -10.0 0 1 510.90 195.76
  C 511.81 197.25 512.44 196.86 514.07 197.13
  A 0.98 0.97 -3.3 0 1 514.85 197.82
  L 516.10 202.02
  L 514.76 208.29
  A 1.90 1.90 0.0 0 1 513.55 209.68
  Q 509.58 211.10 506.58 212.79
  C 504.57 213.93 501.94 213.94 500.15 215.16
  Q 491.75 220.89 485.59 226.07
  Q 485.39 226.23 485.25 226.71
  Q 484.19 227.05 483.86 227.36
  Q 475.64 235.05 470.58 244.37
  C 467.46 250.13 464.04 256.75 461.51 263.73
  C 459.33 269.74 458.82 278.58 458.11 282.73
  C 456.03 294.90 457.62 307.92 460.56 319.98
  Q 460.75 320.75 461.03 321.11
  L 460.91 321.36
  A 0.49 0.46 51.9 0 0 460.88 321.70
  C 462.21 325.86 462.92 328.84 464.83 332.86
  Q 471.83 347.52 481.85 360.50
  A 7.25 7.22 -76.3 0 1 482.75 361.99
  Q 486.05 369.14 486.94 373.74
  C 487.46 376.38 485.88 378.93 485.91 381.50
  C 485.98 389.26 475.53 398.63 469.50 402.72
  A 1.36 1.36 0.0 0 0 469.28 404.78
  Q 469.95 405.47 470.75 405.80
  Q 483.93 411.19 486.83 412.44
  A 5.44 5.24 61.4 0 0 487.88 412.77
  L 495.04 414.14
  A 4.42 4.36 67.9 0 1 496.83 414.91
  Q 501.60 418.39 507.96 420.49
  Q 518.24 423.89 528.12 424.42
  A 13.57 13.19 -34.9 0 1 530.98 424.89
  Q 533.94 425.70 537.46 426.06
  C 540.65 426.38 545.99 428.31 549.52 427.85
  Q 556.10 427.00 559.96 427.35
  A 1.88 1.84 -55.8 0 0 560.95 427.15
  Q 562.35 426.42 562.99 426.40
  Q 575.66 425.98 579.05 425.86
  C 584.83 425.65 589.40 424.56 595.76 423.77
  C 599.55 423.30 602.99 421.89 605.72 420.99
  Q 608.57 420.06 613.17 418.74
  Q 623.44 415.80 627.65 413.54
  Q 633.43 410.44 635.79 409.27
  Q 639.72 407.33 643.62 404.46
  C 651.23 398.86 655.26 395.32 661.60 390.42
  Q 669.83 384.04 675.77 375.52
  Q 677.42 373.15 684.46 366.26
  A 9.54 8.37 89.6 0 0 685.42 365.15
  C 687.53 362.21 689.67 358.99 692.82 357.74
  C 694.09 357.23 694.00 356.36 695.76 356.06
  C 704.18 354.63 706.62 361.60 704.61 368.27
  A 4.29 4.19 71.9 0 1 703.96 369.59
  C 701.59 372.90 697.39 375.32 695.62 380.79
  A 1.02 0.99 76.4 0 1 695.40 381.16
  L 679.93 397.19
  A 1.78 1.72 6.1 0 1 679.52 397.51
  Q 673.04 401.19 668.50 408.06
  A 6.62 6.33 -4.2 0 1 667.19 409.51
  Q 659.17 416.12 652.14 420.14
  Q 651.18 420.68 649.30 421.27
  A 2.31 2.23 -69.2 0 0 648.77 421.52
  L 637.80 428.15
  Q 635.21 429.48 627.06 432.33
  Q 615.69 436.30 611.90 436.93
  Q 594.36 439.81 579.74 441.95
  C 573.03 442.93 565.73 443.21 559.75 443.72
  Q 553.60 444.23 545.62 443.18
  Q 541.13 442.59 536.68 443.33
  A 2.07 2.05 -33.7 0 1 535.25 443.05
  Q 532.45 441.29 528.03 440.98
  C 525.13 440.77 522.39 439.71 520.21 439.44
  Q 505.50 437.57 499.39 434.84
  C 494.93 432.84 490.99 431.17 486.87 429.80
  Q 482.31 428.27 479.65 426.69
  Q 478.49 425.99 473.89 424.60
  A 5.53 5.44 67.3 0 1 472.89 424.18
  Q 465.30 420.02 456.49 418.44
  Q 449.41 413.17 442.40 411.30
  Q 435.98 409.59 431.35 407.42
  Q 430.80 407.16 428.56 405.96
  Q 426.37 404.78 423.54 404.13
  Q 419.78 403.25 418.30 402.63
  Q 409.79 399.06 397.00 397.75
  Q 382.77 396.28 371.05 400.63
  Q 359.27 405.01 350.60 413.45
  C 344.49 419.40 339.83 428.35 337.58 436.37
  C 334.87 446.06 333.24 454.39 336.35 463.65
  Q 340.90 477.18 350.59 487.66
  Q 356.17 493.71 363.56 500.20
  C 368.37 504.42 374.10 507.02 378.91 511.25
  C 384.30 515.98 389.52 519.59 396.78 523.38
  Q 398.53 524.29 400.26 526.62
  C 401.36 528.09 404.29 528.05 406.00 528.75
  Q 410.43 530.56 411.92 531.31
  Q 420.20 535.49 422.98 536.64
  Q 428.88 536.95 433.26 539.47
  C 438.64 542.58 445.96 543.23 451.60 544.53
  Q 456.98 545.76 460.10 546.08
  Q 477.05 547.84 491.53 548.81
  Q 500.07 549.38 514.46 548.63
  Q 525.88 548.03 537.37 547.38
  Q 540.60 546.59 544.26 546.01
  Q 549.12 545.25 551.18 544.74
  C 557.02 543.29 560.36 543.08 565.45 541.68
  Q 566.84 541.29 571.48 540.53
  Q 573.80 540.15 579.15 537.78
  A 4.66 4.39 -59.7 0 1 580.20 537.47
  Q 585.98 536.52 596.81 532.09
  Q 598.88 531.24 604.34 529.84
  A 7.92 7.54 -64.0 0 0 605.98 529.23
  Q 611.08 526.69 615.64 525.72
  A 3.87 3.84 -66.6 0 0 616.91 525.21
  Q 621.60 522.32 628.82 519.09
  Q 629.27 518.89 630.24 517.92
  A 1.89 1.88 -74.7 0 1 631.09 517.43
  Q 633.74 516.70 637.03 515.03
  Q 641.30 512.87 650.79 507.76
  Q 655.27 505.34 657.45 503.70
  C 667.91 495.77 673.97 491.49 679.36 487.05
  Q 682.34 484.60 685.67 483.22
  Q 687.32 482.54 689.46 478.70
  L 699.14 469.28
  A 1.75 1.40 -90.0 0 0 699.42 468.93
  Q 701.70 465.21 704.40 462.79
  Q 705.73 461.61 706.98 459.63
  Q 707.68 458.54 709.98 456.25
  A 1.17 0.52 -24.0 0 0 710.07 456.15
  L 721.39 439.78
  A 4.52 4.38 71.9 0 0 721.96 438.61
  L 722.47 436.99
  A 1.15 1.14 75.8 0 1 722.73 436.55
  C 726.77 432.27 729.33 426.48 732.55 420.57
  Q 735.72 414.75 737.40 409.72
  Q 737.95 408.07 744.58 390.69
  A 2.29 2.27 77.5 0 1 745.04 389.96
  Q 745.38 389.61 745.47 389.27
  C 747.29 382.22 748.91 375.51 749.03 367.50
  Q 749.64 327.69 740.19 288.95
  Q 734.83 265.78 725.81 243.70
  Q 723.34 237.67 720.00 231.67
  Q 714.59 221.98 713.54 219.98
  Q 705.26 204.32 695.33 191.18
  Q 681.42 172.78 664.38 154.87
  C 663.18 153.62 661.56 152.44 660.23 151.07
  Q 659.61 150.42 659.04 151.09
  Q 659.10 150.69 659.06 150.35
  Q 659.03 150.04 658.75 149.74
  Q 650.77 141.18 641.98 134.05
  Q 641.06 133.31 637.67 131.45
  A 1.62 1.33 -5.7 0 1 637.43 131.29
  L 623.35 119.55
  A 1.61 1.59 -11.6 0 0 622.95 119.29
  Q 620.54 118.19 618.75 116.70
  Q 616.48 114.81 614.53 113.56
  C 606.28 108.31 599.61 103.69 591.04 99.71
  Q 587.40 98.03 579.81 93.73
  Q 573.89 90.39 562.40 85.13
  Q 556.23 82.31 548.53 79.87
  C 538.93 76.82 529.10 71.14 518.83 68.91
  Q 516.63 68.43 513.20 67.29
  Q 511.89 66.86 502.87 65.29
  A 1.27 1.23 69.9 0 1 502.25 64.99
  Q 501.90 64.67 501.66 64.62
  Q 488.08 61.30 481.99 60.81
  Q 470.91 59.93 459.82 58.36
  Q 454.54 57.61 447.93 57.46
  Q 440.76 57.29 435.95 57.32
  Q 434.88 57.33 426.06 57.24
  Q 415.68 57.14 405.27 58.36
  Z"
/>
<path fill="#f3f3f3" d="
  M 659.04 151.09
  Q 653.84 157.55 651.80 166.55
  Q 648.28 182.01 647.38 195.78
  C 646.31 211.98 646.57 225.25 653.32 238.69
  Q 668.20 268.30 699.00 282.38
  Q 701.19 296.33 710.15 307.12
  Q 714.57 312.43 719.72 318.50
  Q 724.75 324.43 723.69 330.83
  Q 720.18 352.16 708.81 371.83
  Q 703.55 380.94 697.02 392.98
  C 685.21 414.75 679.75 441.15 685.23 465.55
  C 686.18 469.79 687.95 474.34 689.46 478.70
  Q 687.32 482.54 685.67 483.22
  Q 682.34 484.60 679.36 487.05
  C 673.97 491.49 667.91 495.77 657.45 503.70
  Q 655.27 505.34 650.79 507.76
  Q 641.30 512.87 637.03 515.03
  Q 633.74 516.70 631.09 517.43
  A 1.89 1.88 -74.7 0 0 630.24 517.92
  Q 629.27 518.89 628.82 519.09
  Q 621.60 522.32 616.91 525.21
  A 3.87 3.84 -66.6 0 1 615.64 525.72
  Q 611.08 526.69 605.98 529.23
  A 7.92 7.54 -64.0 0 1 604.34 529.84
  Q 598.88 531.24 596.81 532.09
  Q 585.98 536.52 580.20 537.47
  A 4.66 4.39 -59.7 0 0 579.15 537.78
  Q 573.80 540.15 571.48 540.53
  Q 566.84 541.29 565.45 541.68
  C 560.36 543.08 557.02 543.29 551.18 544.74
  Q 549.12 545.25 544.26 546.01
  Q 540.60 546.59 537.37 547.38
  Q 533.11 534.08 521.01 525.73
  C 505.43 514.98 488.09 511.95 468.90 513.13
  C 464.71 513.39 460.85 514.62 456.17 515.54
  C 450.67 516.61 444.88 518.87 440.24 521.47
  Q 430.24 527.08 422.98 536.64
  Q 420.20 535.49 411.92 531.31
  Q 410.43 530.56 406.00 528.75
  C 404.29 528.05 401.36 528.09 400.26 526.62
  Q 398.53 524.29 396.78 523.38
  C 389.52 519.59 384.30 515.98 378.91 511.25
  C 374.10 507.02 368.37 504.42 363.56 500.20
  Q 356.17 493.71 350.59 487.66
  Q 340.90 477.18 336.35 463.65
  C 333.24 454.39 334.87 446.06 337.58 436.37
  C 339.83 428.35 344.49 419.40 350.60 413.45
  Q 359.27 405.01 371.05 400.63
  Q 382.77 396.28 397.00 397.75
  Q 409.79 399.06 418.30 402.63
  Q 419.78 403.25 423.54 404.13
  Q 426.37 404.78 428.56 405.96
  Q 430.80 407.16 431.35 407.42
  Q 435.98 409.59 442.40 411.30
  Q 449.41 413.17 456.49 418.44
  Q 465.67 428.50 476.45 438.80
  Q 488.26 450.08 500.91 458.49
  Q 516.29 468.72 527.84 473.28
  Q 541.50 478.68 557.76 479.82
  C 569.68 480.66 583.15 480.33 595.37 476.97
  Q 603.45 474.75 609.09 471.36
  Q 617.30 466.42 620.83 462.32
  Q 627.85 454.17 633.59 441.61
  Q 636.80 434.59 637.80 428.15
  L 648.77 421.52
  A 2.31 2.23 -69.2 0 1 649.30 421.27
  Q 651.18 420.68 652.14 420.14
  Q 659.17 416.12 667.19 409.51
  A 6.62 6.33 -4.2 0 0 668.50 408.06
  Q 673.04 401.19 679.52 397.51
  A 1.78 1.72 6.1 0 0 679.93 397.19
  L 695.40 381.16
  A 1.02 0.99 76.4 0 0 695.62 380.79
  C 697.39 375.32 701.59 372.90 703.96 369.59
  A 4.29 4.19 71.9 0 0 704.61 368.27
  C 706.62 361.60 704.18 354.63 695.76 356.06
  C 694.00 356.36 694.09 357.23 692.82 357.74
  C 689.67 358.99 687.53 362.21 685.42 365.15
  A 9.54 8.37 89.6 0 1 684.46 366.26
  Q 677.42 373.15 675.77 375.52
  Q 669.83 384.04 661.60 390.42
  C 655.26 395.32 651.23 398.86 643.62 404.46
  Q 639.72 407.33 635.79 409.27
  Q 633.43 410.44 627.65 413.54
  Q 623.44 415.80 613.17 418.74
  Q 608.57 420.06 605.72 420.99
  C 602.99 421.89 599.55 423.30 595.76 423.77
  C 589.40 424.56 584.83 425.65 579.05 425.86
  Q 575.66 425.98 562.99 426.40
  Q 562.35 426.42 560.95 427.15
  A 1.88 1.84 -55.8 0 1 559.96 427.35
  Q 556.10 427.00 549.52 427.85
  C 545.99 428.31 540.65 426.38 537.46 426.06
  Q 533.94 425.70 530.98 424.89
  A 13.57 13.19 -34.9 0 0 528.12 424.42
  Q 518.24 423.89 507.96 420.49
  Q 501.60 418.39 496.83 414.91
  A 4.42 4.36 67.9 0 0 495.04 414.14
  L 487.88 412.77
  A 5.44 5.24 61.4 0 1 486.83 412.44
  Q 483.93 411.19 470.75 405.80
  Q 469.95 405.47 469.28 404.78
  A 1.36 1.36 0.0 0 1 469.50 402.72
  C 475.53 398.63 485.98 389.26 485.91 381.50
  C 485.88 378.93 487.46 376.38 486.94 373.74
  Q 486.05 369.14 482.75 361.99
  A 7.25 7.22 -76.3 0 0 481.85 360.50
  Q 471.83 347.52 464.83 332.86
  C 462.92 328.84 462.21 325.86 460.88 321.70
  A 0.49 0.46 51.9 0 1 460.91 321.36
  L 461.03 321.11
  Q 470.85 320.27 481.37 317.35
  Q 492.07 314.39 500.55 308.25
  Q 504.48 305.42 507.63 303.06
  Q 515.68 309.30 517.86 311.40
  Q 531.27 324.31 544.25 339.74
  Q 545.78 341.57 556.78 352.29
  C 560.99 356.41 566.92 360.64 571.36 363.15
  Q 583.51 370.02 597.49 370.02
  C 620.99 370.02 640.17 352.50 642.71 329.27
  Q 644.91 309.21 637.00 291.29
  C 628.60 272.28 615.66 255.99 600.17 241.81
  Q 582.49 225.62 564.45 215.41
  Q 550.19 207.33 539.45 204.41
  Q 530.58 201.99 526.76 201.98
  Q 521.41 201.97 516.10 202.02
  L 514.85 197.82
  A 0.98 0.97 -3.3 0 0 514.07 197.13
  C 512.44 196.86 511.81 197.25 510.90 195.76
  A 1.13 1.11 -10.0 0 0 510.13 195.23
  C 505.45 194.36 502.08 196.60 498.26 197.22
  A 3.58 3.52 22.5 0 0 496.80 197.81
  Q 495.49 198.71 493.27 199.21
  A 3.13 3.01 -69.3 0 0 492.05 199.79
  L 488.05 202.92
  A 3.10 2.92 15.1 0 1 487.21 203.37
  L 483.98 204.43
  A 1.39 1.31 8.5 0 0 483.33 204.88
  Q 481.40 207.34 479.33 208.84
  C 474.91 212.03 470.69 214.95 467.40 219.24
  Q 465.72 221.43 462.27 224.95
  A 4.91 4.89 -7.0 0 0 461.62 225.78
  Q 456.37 234.37 454.50 237.56
  Q 452.09 241.69 450.68 245.32
  Q 448.64 250.60 446.83 253.72
  A 7.53 7.43 64.0 0 0 445.88 256.54
  L 444.40 268.42
  A 0.20 0.17 -40.3 0 1 444.39 268.48
  Q 442.13 276.29 441.67 279.64
  Q 440.55 287.86 441.07 300.27
  Q 441.24 304.21 442.35 308.71
  Q 443.01 311.40 443.26 316.75
  A 2.53 2.19 40.9 0 0 443.33 317.23
  L 446.42 331.01
  A 2.38 2.19 28.6 0 0 446.56 331.42
  C 447.83 334.24 448.38 337.74 449.56 340.70
  Q 456.92 359.14 468.19 375.81
  A 0.93 0.93 0.0 0 1 468.22 376.79
  C 467.25 378.44 466.22 380.06 464.72 381.58
  Q 456.53 389.83 453.89 392.39
  Q 451.65 394.56 449.04 395.55
  A 1.23 1.22 -38.2 0 1 447.93 395.42
  Q 444.01 392.76 440.24 392.83
  A 1.17 1.16 77.8 0 1 439.16 392.13
  Q 438.83 391.39 437.74 391.28
  Q 436.24 391.14 435.70 390.93
  Q 432.50 389.71 428.19 388.83
  Q 424.46 388.06 418.85 386.10
  Q 413.42 384.20 409.53 383.44
  Q 394.05 380.41 379.56 381.79
  C 374.42 382.27 370.08 384.14 365.48 384.78
  A 0.53 0.52 -89.2 0 1 364.89 384.17
  C 365.49 380.67 369.15 377.77 370.62 375.17
  C 373.26 370.51 375.76 367.10 379.35 361.22
  A 6.03 5.90 71.0 0 0 379.89 360.08
  Q 382.15 353.77 384.56 347.67
  Q 385.16 346.15 385.81 344.48
  Q 389.41 335.24 391.16 330.17
  Q 398.68 308.38 399.04 285.77
  C 399.12 280.06 397.99 273.94 397.88 268.70
  A 5.04 4.96 31.7 0 0 397.38 266.66
  Q 393.33 258.42 384.68 261.57
  C 381.93 262.57 380.81 264.70 380.76 267.50
  C 380.65 273.95 381.02 278.03 380.24 284.13
  Q 379.57 289.40 379.47 295.07
  A 0.25 0.24 37.7 0 1 378.99 295.13
  C 376.29 285.76 371.81 278.03 366.74 269.33
  C 363.98 264.60 360.35 259.96 358.61 256.18
  Q 357.75 254.30 354.40 249.58
  Q 349.92 243.26 342.92 235.28
  C 340.10 232.06 336.76 229.66 333.78 226.53
  A 6.72 6.31 -1.8 0 0 332.93 225.78
  C 331.98 225.08 330.61 224.40 329.45 223.31
  Q 321.72 216.07 313.56 211.69
  Q 305.63 207.45 301.11 204.84
  A 4.58 4.33 63.1 0 0 299.63 204.31
  Q 294.31 203.44 288.05 201.36
  C 280.59 198.88 274.47 199.01 265.19 198.57
  A 6.22 5.95 53.0 0 1 263.77 198.34
  Q 257.58 196.56 251.55 197.08
  A 1.47 1.45 -66.1 0 0 250.81 197.37
  L 245.93 201.07
  A 2.61 2.60 70.1 0 0 244.90 203.28
  L 245.17 208.84
  A 1.53 1.52 12.9 0 0 245.97 210.11
  Q 245.98 210.11 246.13 210.21
  A 1.34 1.33 -78.0 0 1 246.79 211.23
  Q 247.11 214.06 250.26 213.95
  Q 250.31 213.95 266.49 214.06
  Q 268.49 214.07 269.82 215.30
  Q 273.35 223.93 274.60 226.38
  C 285.45 247.63 306.60 263.07 329.43 268.78
  Q 340.19 271.47 349.25 270.88
  Q 350.21 275.25 353.20 278.11
  A 2.96 2.87 -82.8 0 1 353.83 278.95
  Q 359.88 290.76 361.93 298.52
  Q 365.27 311.13 367.34 323.63
  Q 368.88 332.90 367.28 342.38
  C 366.79 345.29 365.31 347.67 364.72 350.52
  A 3.39 3.30 66.6 0 1 364.33 351.55
  L 353.76 369.86
  A 1.67 1.48 86.5 0 1 353.47 370.23
  Q 352.25 371.40 351.75 372.24
  Q 348.84 377.12 346.40 382.18
  Q 341.88 391.57 341.40 392.27
  Q 340.31 393.88 335.84 402.08
  C 334.95 403.71 333.81 404.41 333.64 406.42
  A 0.33 0.32 37.6 0 1 333.01 406.50
  C 332.11 404.06 330.90 401.88 330.10 399.98
  Q 328.25 395.58 323.60 394.30
  C 319.51 393.18 316.30 394.48 316.29 399.00
  C 316.28 401.15 317.95 403.18 318.65 405.04
  C 320.90 411.01 320.73 417.23 320.70 424.18
  Q 320.69 427.12 319.94 433.79
  Q 318.51 446.58 318.95 459.96
  Q 315.73 457.87 312.91 455.44
  Q 308.67 451.78 307.06 450.67
  Q 297.19 443.83 286.73 439.03
  C 278.52 435.26 270.36 432.51 261.65 432.87
  C 257.75 433.03 255.23 437.04 253.93 440.40
  Q 248.66 453.96 247.89 468.37
  Q 241.16 469.95 240.99 475.46
  Q 240.84 480.35 240.83 480.45
  A 6.69 6.42 -34.1 0 1 240.42 482.36
  Q 238.70 486.89 236.40 495.37
  Q 235.33 499.32 234.25 500.70
  C 229.84 506.36 223.26 506.89 216.72 505.83
  C 213.36 505.28 209.97 502.64 207.23 500.99
  C 203.18 498.54 198.90 495.01 195.71 493.01
  Q 191.99 490.66 188.69 487.48
  C 181.79 480.81 177.95 477.43 173.27 471.48
  Q 166.38 462.74 163.29 458.45
  Q 162.90 457.91 163.19 457.40
  Q 165.09 456.67 168.07 454.32
  Q 184.52 441.40 193.87 424.58
  C 200.55 412.57 198.94 398.56 192.85 386.59
  Q 197.34 385.54 201.19 383.67
  Q 203.10 382.75 204.27 380.95
  A 1.76 1.72 3.6 0 1 204.99 380.33
  Q 209.16 378.32 211.08 376.57
  C 219.86 368.56 224.92 360.29 232.50 347.98
  Q 232.89 347.35 235.84 343.43
  A 3.76 3.55 -16.8 0 0 236.24 342.73
  L 240.56 332.47
  A 0.79 0.78 -87.5 0 1 241.05 332.02
  Q 242.87 331.42 242.99 328.51
  Q 243.35 319.97 242.78 317.73
  A 0.85 0.84 88.8 0 0 242.14 317.11
  C 237.72 316.12 234.00 315.06 230.30 317.24
  Q 228.89 318.07 227.69 321.49
  Q 226.20 325.75 223.24 330.33
  Q 220.50 334.55 219.76 336.09
  Q 216.93 341.94 216.74 342.16
  A 7.61 6.32 -36.6 0 1 216.01 342.94
  Q 214.90 343.98 213.21 346.45
  Q 209.22 352.26 207.47 355.17
  A 6.10 5.87 84.5 0 1 206.55 356.33
  Q 203.61 359.24 196.03 366.71
  Q 194.16 368.55 187.92 370.39
  A 2.18 2.14 40.2 0 1 186.98 370.46
  Q 182.46 369.84 180.36 365.70
  L 168.05 349.15
  C 162.81 343.03 162.21 337.38 159.57 326.99
  A 8.05 7.82 -66.0 0 0 159.02 325.49
  C 157.99 323.37 157.99 321.23 157.70 317.45
  A 3.99 3.97 -62.4 0 0 157.18 315.77
  L 156.57 314.71
  A 3.58 3.48 -61.7 0 1 156.10 313.06
  L 155.90 307.22
  A 1.13 1.11 18.7 0 0 155.49 306.40
  L 151.11 302.74
  A 1.71 1.69 74.3 0 0 150.60 302.45
  Q 146.89 301.12 143.74 302.66
  A 1.98 1.93 2.0 0 0 142.95 303.38
  Q 141.78 305.25 141.39 308.56
  Q 140.89 312.72 140.97 314.89
  Q 135.94 309.39 130.54 304.08
  Q 129.53 303.08 124.92 297.96
  Q 122.11 294.85 118.79 292.34
  Q 118.79 288.48 120.34 283.12
  Q 121.40 279.44 123.29 268.83
  A 7.68 7.29 -31.4 0 1 123.67 267.42
  Q 128.20 255.37 134.32 243.48
  C 137.89 236.54 142.61 230.07 146.75 223.67
  A 5.34 5.23 -6.5 0 1 147.44 222.82
  Q 150.18 220.10 151.50 217.55
  A 6.10 6.03 -10.2 0 1 152.38 216.30
  Q 154.78 213.71 156.55 210.83
  A 7.05 6.77 84.8 0 1 157.58 209.54
  Q 164.45 202.74 167.50 194.66
  A 1.27 0.95 81.8 0 1 167.62 194.44
  L 174.95 184.10
  A 0.28 0.10 -70.7 0 0 174.99 184.05
  L 179.69 176.23
  Q 182.71 184.03 187.70 189.87
  Q 191.69 194.54 195.79 196.46
  C 204.36 200.46 214.43 198.64 222.34 193.52
  C 230.76 188.07 237.30 180.82 245.89 175.16
  Q 256.71 168.03 269.27 168.08
  Q 277.52 168.11 283.69 169.13
  C 292.04 170.50 302.60 172.71 311.82 172.95
  Q 319.10 173.13 325.50 172.90
  C 339.30 172.41 353.04 166.36 363.75 158.48
  Q 375.92 149.53 383.42 135.28
  C 387.80 126.97 389.85 117.54 390.82 108.00
  Q 391.14 104.82 392.43 88.73
  Q 393.63 73.69 403.22 63.23
  Q 404.89 61.41 405.27 58.36
  Q 415.68 57.14 426.06 57.24
  Q 434.88 57.33 435.95 57.32
  Q 440.76 57.29 447.93 57.46
  Q 454.54 57.61 459.82 58.36
  Q 470.91 59.93 481.99 60.81
  Q 488.08 61.30 501.66 64.62
  Q 501.90 64.67 502.25 64.99
  A 1.27 1.23 69.9 0 0 502.87 65.29
  Q 511.89 66.86 513.20 67.29
  Q 516.63 68.43 518.83 68.91
  C 529.10 71.14 538.93 76.82 548.53 79.87
  Q 556.23 82.31 562.40 85.13
  Q 573.89 90.39 579.81 93.73
  Q 587.40 98.03 591.04 99.71
  C 599.61 103.69 606.28 108.31 614.53 113.56
  Q 616.48 114.81 618.75 116.70
  Q 620.54 118.19 622.95 119.29
  A 1.61 1.59 -11.6 0 1 623.35 119.55
  L 637.43 131.29
  A 1.62 1.33 -5.7 0 0 637.67 131.45
  Q 641.06 133.31 641.98 134.05
  Q 650.77 141.18 658.75 149.74
  Q 659.03 150.04 659.06 150.35
  Q 659.10 150.69 659.04 151.09
  Z
  M 310.21 327.18
  C 312.18 321.32 309.95 314.48 306.54 309.69
  A 1.88 1.83 -70.7 0 1 306.30 309.17
  L 305.80 307.31
  A 0.83 0.71 26.2 0 0 305.70 307.08
  C 303.29 303.25 297.42 297.36 292.32 299.70
  C 287.05 302.13 291.47 308.70 294.27 311.22
  Q 296.64 313.36 297.38 314.63
  C 299.79 318.81 299.28 324.08 302.20 327.41
  A 1.71 1.70 -20.2 0 0 303.46 327.99
  L 308.95 328.07
  A 1.30 1.30 0.0 0 0 310.21 327.18
  Z
  M 342.10 344.34
  C 341.85 343.53 341.47 342.91 340.70 342.56
  C 335.64 340.27 330.49 334.77 325.31 340.63
  C 323.38 342.82 323.87 347.60 324.44 350.03
  Q 326.36 358.24 327.24 365.00
  A 1.21 1.20 15.6 0 0 327.70 365.81
  C 329.60 367.29 329.68 369.64 332.78 369.95
  Q 336.62 370.33 340.37 369.85
  A 1.32 1.31 7.4 0 0 341.41 369.06
  L 344.61 361.46
  A 0.55 0.50 -15.9 0 1 344.69 361.33
  Q 349.80 355.57 355.97 352.86
  A 1.47 1.44 84.2 0 0 356.81 351.81
  Q 357.56 347.83 356.74 343.71
  A 1.15 1.13 -84.8 0 0 356.05 342.87
  Q 351.55 341.08 346.62 342.39
  C 345.49 342.69 343.87 344.21 342.77 344.66
  A 0.50 0.50 0.0 0 1 342.10 344.34
  Z"
/>
<path fill="#fa822a" d="
  M 405.27 58.36
  Q 404.89 61.41 403.22 63.23
  Q 393.63 73.69 392.43 88.73
  Q 391.14 104.82 390.82 108.00
  C 389.85 117.54 387.80 126.97 383.42 135.28
  Q 375.92 149.53 363.75 158.48
  C 353.04 166.36 339.30 172.41 325.50 172.90
  Q 319.10 173.13 311.82 172.95
  C 302.60 172.71 292.04 170.50 283.69 169.13
  Q 277.52 168.11 269.27 168.08
  Q 256.71 168.03 245.89 175.16
  C 237.30 180.82 230.76 188.07 222.34 193.52
  C 214.43 198.64 204.36 200.46 195.79 196.46
  Q 191.69 194.54 187.70 189.87
  Q 182.71 184.03 179.69 176.23
  Q 184.72 168.76 191.21 160.97
  Q 201.92 148.11 215.29 135.30
  Q 221.52 129.32 226.29 126.40
  A 7.55 7.23 6.0 0 0 227.54 125.43
  Q 230.91 122.14 235.24 119.49
  Q 244.26 113.95 257.21 105.44
  C 261.98 102.31 266.39 100.22 271.30 97.46
  Q 274.31 95.78 277.03 94.42
  C 292.41 86.77 303.48 80.55 318.04 76.54
  Q 318.49 76.42 319.21 75.91
  A 2.73 2.44 -68.8 0 1 319.80 75.61
  Q 340.05 69.17 344.55 67.83
  Q 354.07 64.98 366.18 63.31
  A 1.89 1.78 20.1 0 0 367.11 62.91
  Q 367.15 62.88 367.24 62.81
  A 1.82 1.81 -67.5 0 1 368.17 62.42
  Q 374.66 61.77 381.18 61.60
  C 389.12 61.38 397.29 59.85 405.27 58.36
  Z"
/>
<path fill="#262626" d="
  M 740.19 288.95
  C 737.25 289.19 734.32 289.91 731.58 289.85
  Q 721.36 289.65 711.54 286.72
  Q 708.26 285.74 699.00 282.38
  Q 668.20 268.30 653.32 238.69
  C 646.57 225.25 646.31 211.98 647.38 195.78
  Q 648.28 182.01 651.80 166.55
  Q 653.84 157.55 659.04 151.09
  Q 659.61 150.42 660.23 151.07
  C 661.56 152.44 663.18 153.62 664.38 154.87
  Q 681.42 172.78 695.33 191.18
  Q 705.26 204.32 713.54 219.98
  Q 714.59 221.98 720.00 231.67
  Q 723.34 237.67 725.81 243.70
  Q 734.83 265.78 740.19 288.95
  Z"
/>
<path fill="#fa822a" d="
  M 507.63 303.06
  Q 509.14 300.82 512.32 296.58
  Q 517.11 290.19 518.47 281.75
  C 519.79 273.51 519.68 263.35 516.60 255.20
  C 511.90 242.75 498.45 229.62 485.25 226.71
  Q 485.39 226.23 485.59 226.07
  Q 491.75 220.89 500.15 215.16
  C 501.94 213.94 504.57 213.93 506.58 212.79
  Q 509.58 211.10 513.55 209.68
  A 1.90 1.90 0.0 0 0 514.76 208.29
  L 516.10 202.02
  Q 521.41 201.97 526.76 201.98
  Q 530.58 201.99 539.45 204.41
  Q 550.19 207.33 564.45 215.41
  Q 582.49 225.62 600.17 241.81
  C 615.66 255.99 628.60 272.28 637.00 291.29
  Q 644.91 309.21 642.71 329.27
  C 640.17 352.50 620.99 370.02 597.49 370.02
  Q 583.51 370.02 571.36 363.15
  C 566.92 360.64 560.99 356.41 556.78 352.29
  Q 545.78 341.57 544.25 339.74
  Q 531.27 324.31 517.86 311.40
  Q 515.68 309.30 507.63 303.06
  Z"
/>
<path fill="#262626" d="
  M 349.25 270.88
  Q 340.19 271.47 329.43 268.78
  C 306.60 263.07 285.45 247.63 274.60 226.38
  Q 273.35 223.93 269.82 215.30
  L 273.39 214.92
  A 2.30 2.17 49.5 0 1 274.32 215.02
  Q 277.77 216.10 281.55 216.67
  C 286.97 217.47 293.01 219.42 296.48 221.03
  Q 297.78 221.63 312.14 229.93
  Q 316.55 232.48 319.18 234.88
  C 325.17 240.33 327.89 243.15 333.39 249.17
  Q 336.63 252.73 340.41 257.78
  Q 342.70 260.83 347.59 267.84
  Q 348.51 269.16 349.25 270.88
  Z"
/>
<path fill="#262626" d="
  M 485.25 226.71
  C 498.45 229.62 511.90 242.75 516.60 255.20
  C 519.68 263.35 519.79 273.51 518.47 281.75
  Q 517.11 290.19 512.32 296.58
  Q 509.14 300.82 507.63 303.06
  Q 504.48 305.42 500.55 308.25
  Q 492.07 314.39 481.37 317.35
  Q 470.85 320.27 461.03 321.11
  Q 460.75 320.75 460.56 319.98
  C 457.62 307.92 456.03 294.90 458.11 282.73
  C 458.82 278.58 459.33 269.74 461.51 263.73
  C 464.04 256.75 467.46 250.13 470.58 244.37
  Q 475.64 235.05 483.86 227.36
  Q 484.19 227.05 485.25 226.71
  Z"
/>
<path fill="#fa822a" d="
  M 740.19 288.95
  Q 749.64 327.69 749.03 367.50
  C 748.91 375.51 747.29 382.22 745.47 389.27
  Q 745.38 389.61 745.04 389.96
  A 2.29 2.27 77.5 0 0 744.58 390.69
  Q 737.95 408.07 737.40 409.72
  Q 735.72 414.75 732.55 420.57
  C 729.33 426.48 726.77 432.27 722.73 436.55
  A 1.15 1.14 75.8 0 0 722.47 436.99
  L 721.96 438.61
  A 4.52 4.38 71.9 0 1 721.39 439.78
  L 710.07 456.15
  A 1.17 0.52 -24.0 0 1 709.98 456.25
  Q 707.68 458.54 706.98 459.63
  Q 705.73 461.61 704.40 462.79
  Q 701.70 465.21 699.42 468.93
  A 1.75 1.40 -90.0 0 1 699.14 469.28
  L 689.46 478.70
  C 687.95 474.34 686.18 469.79 685.23 465.55
  C 679.75 441.15 685.21 414.75 697.02 392.98
  Q 703.55 380.94 708.81 371.83
  Q 720.18 352.16 723.69 330.83
  Q 724.75 324.43 719.72 318.50
  Q 714.57 312.43 710.15 307.12
  Q 701.19 296.33 699.00 282.38
  Q 708.26 285.74 711.54 286.72
  Q 721.36 289.65 731.58 289.85
  C 734.32 289.91 737.25 289.19 740.19 288.95
  Z"
/>
<path fill="#262626" d="
  M 118.79 292.34
  Q 122.11 294.85 124.92 297.96
  Q 129.53 303.08 130.54 304.08
  Q 135.94 309.39 140.97 314.89
  C 143.26 323.84 143.93 333.20 146.99 341.92
  Q 149.80 349.93 149.81 349.95
  C 152.64 357.66 156.15 362.40 162.18 370.90
  Q 166.33 376.74 169.59 379.39
  Q 174.99 383.78 179.10 385.42
  Q 185.29 387.89 192.85 386.59
  C 198.94 398.56 200.55 412.57 193.87 424.58
  Q 184.52 441.40 168.07 454.32
  Q 165.09 456.67 163.19 457.40
  Q 156.84 450.08 153.23 444.26
  Q 150.43 439.75 149.53 438.51
  C 146.07 433.73 143.42 428.31 141.61 424.24
  C 139.91 420.40 136.98 416.92 135.66 412.76
  A 6.05 5.71 -71.4 0 0 135.07 411.48
  C 131.81 406.16 129.85 399.97 127.63 395.13
  Q 125.86 391.28 124.57 386.94
  C 123.79 384.32 121.97 379.39 121.15 375.78
  C 120.13 371.31 118.15 366.63 117.47 362.09
  Q 116.93 358.54 116.63 350.66
  A 14.36 14.30 38.5 0 0 116.37 348.40
  Q 114.63 339.40 115.12 329.74
  Q 115.35 325.09 116.43 308.75
  Q 117.14 297.95 118.79 292.34
  Z"
/>
<path fill="#000000" d="
  M 308.95 328.07
  L 303.46 327.99
  A 1.71 1.70 -20.2 0 1 302.20 327.41
  C 299.28 324.08 299.79 318.81 297.38 314.63
  Q 296.64 313.36 294.27 311.22
  C 291.47 308.70 287.05 302.13 292.32 299.70
  C 297.42 297.36 303.29 303.25 305.70 307.08
  A 0.83 0.71 26.2 0 1 305.80 307.31
  L 306.30 309.17
  A 1.88 1.83 -70.7 0 0 306.54 309.69
  C 309.95 314.48 312.18 321.32 310.21 327.18
  A 1.30 1.30 0.0 0 1 308.95 328.07
  Z"
/>
<path fill="#000000" d="
  M 168.05 349.15
  Q 168.36 351.40 170.32 354.19
  Q 175.05 360.94 175.49 361.64
  A 3.97 3.61 8.6 0 0 176.06 362.34
  C 176.90 363.15 176.97 362.90 177.68 364.30
  Q 178.47 365.85 180.36 365.70
  Q 182.46 369.84 186.98 370.46
  A 2.18 2.14 40.2 0 0 187.92 370.39
  Q 194.16 368.55 196.03 366.71
  Q 203.61 359.24 206.55 356.33
  A 6.10 5.87 84.5 0 0 207.47 355.17
  Q 209.22 352.26 213.21 346.45
  Q 214.90 343.98 216.01 342.94
  A 7.61 6.32 -36.6 0 0 216.74 342.16
  Q 216.93 341.94 219.76 336.09
  Q 220.50 334.55 223.24 330.33
  Q 226.20 325.75 227.69 321.49
  Q 228.89 318.07 230.30 317.24
  C 234.00 315.06 237.72 316.12 242.14 317.11
  A 0.85 0.84 88.8 0 1 242.78 317.73
  Q 243.35 319.97 242.99 328.51
  Q 242.87 331.42 241.05 332.02
  A 0.79 0.78 -87.5 0 0 240.56 332.47
  L 236.24 342.73
  A 3.76 3.55 -16.8 0 1 235.84 343.43
  Q 232.89 347.35 232.50 347.98
  C 224.92 360.29 219.86 368.56 211.08 376.57
  Q 209.16 378.32 204.99 380.33
  A 1.76 1.72 3.6 0 0 204.27 380.95
  Q 203.10 382.75 201.19 383.67
  Q 197.34 385.54 192.85 386.59
  Q 185.29 387.89 179.10 385.42
  Q 174.99 383.78 169.59 379.39
  Q 166.33 376.74 162.18 370.90
  C 156.15 362.40 152.64 357.66 149.81 349.95
  Q 149.80 349.93 146.99 341.92
  C 143.93 333.20 143.26 323.84 140.97 314.89
  Q 140.89 312.72 141.39 308.56
  Q 141.78 305.25 142.95 303.38
  A 1.98 1.93 2.0 0 1 143.74 302.66
  Q 146.89 301.12 150.60 302.45
  A 1.71 1.69 74.3 0 1 151.11 302.74
  L 155.49 306.40
  A 1.13 1.11 18.7 0 1 155.90 307.22
  L 156.10 313.06
  A 3.58 3.48 -61.7 0 0 156.57 314.71
  L 157.18 315.77
  A 3.99 3.97 -62.4 0 1 157.70 317.45
  C 157.99 321.23 157.99 323.37 159.02 325.49
  A 8.05 7.82 -66.0 0 1 159.57 326.99
  C 162.21 337.38 162.81 343.03 168.05 349.15
  Z"
/>
<path fill="#000000" d="
  M 342.77 344.66
  C 343.87 344.21 345.49 342.69 346.62 342.39
  Q 351.55 341.08 356.05 342.87
  A 1.15 1.13 -84.8 0 1 356.74 343.71
  Q 357.56 347.83 356.81 351.81
  A 1.47 1.44 84.2 0 1 355.97 352.86
  Q 349.80 355.57 344.69 361.33
  A 0.55 0.50 -15.9 0 0 344.61 361.46
  L 341.41 369.06
  A 1.32 1.31 7.4 0 1 340.37 369.85
  Q 336.62 370.33 332.78 369.95
  C 329.68 369.64 329.60 367.29 327.70 365.81
  A 1.21 1.20 15.6 0 1 327.24 365.00
  Q 326.36 358.24 324.44 350.03
  C 323.87 347.60 323.38 342.82 325.31 340.63
  C 330.49 334.77 335.64 340.27 340.70 342.56
  C 341.47 342.91 341.85 343.53 342.10 344.34
  A 0.50 0.50 0.0 0 0 342.77 344.66
  Z"
/>
<path fill="#262626" d="
  M 180.36 365.70
  Q 178.47 365.85 177.68 364.30
  C 176.97 362.90 176.90 363.15 176.06 362.34
  A 3.97 3.61 8.6 0 1 175.49 361.64
  Q 175.05 360.94 170.32 354.19
  Q 168.36 351.40 168.05 349.15
  L 180.36 365.70
  Z"
/>
<path fill="#262626" d="
  M 637.80 428.15
  Q 636.80 434.59 633.59 441.61
  Q 627.85 454.17 620.83 462.32
  Q 617.30 466.42 609.09 471.36
  Q 603.45 474.75 595.37 476.97
  C 583.15 480.33 569.68 480.66 557.76 479.82
  Q 541.50 478.68 527.84 473.28
  Q 516.29 468.72 500.91 458.49
  Q 488.26 450.08 476.45 438.80
  Q 465.67 428.50 456.49 418.44
  Q 465.30 420.02 472.89 424.18
  A 5.53 5.44 67.3 0 0 473.89 424.60
  Q 478.49 425.99 479.65 426.69
  Q 482.31 428.27 486.87 429.80
  C 490.99 431.17 494.93 432.84 499.39 434.84
  Q 505.50 437.57 520.21 439.44
  C 522.39 439.71 525.13 440.77 528.03 440.98
  Q 532.45 441.29 535.25 443.05
  A 2.07 2.05 -33.7 0 0 536.68 443.33
  Q 541.13 442.59 545.62 443.18
  Q 553.60 444.23 559.75 443.72
  C 565.73 443.21 573.03 442.93 579.74 441.95
  Q 594.36 439.81 611.90 436.93
  Q 615.69 436.30 627.06 432.33
  Q 635.21 429.48 637.80 428.15
  Z"
/>
<path fill="#fa822a" d="
  M 318.95 459.96
  L 319.57 465.91
  A 0.64 0.63 -13.0 0 1 319.15 466.57
  Q 309.93 469.96 301.74 470.98
  C 289.23 472.55 276.73 474.02 264.51 471.19
  Q 254.94 468.97 247.89 468.37
  Q 248.66 453.96 253.93 440.40
  C 255.23 437.04 257.75 433.03 261.65 432.87
  C 270.36 432.51 278.52 435.26 286.73 439.03
  Q 297.19 443.83 307.06 450.67
  Q 308.67 451.78 312.91 455.44
  Q 315.73 457.87 318.95 459.96
  Z"
/>
<path fill="#fa822a" d="
  M 537.37 547.38
  Q 525.88 548.03 514.46 548.63
  Q 500.07 549.38 491.53 548.81
  Q 477.05 547.84 460.10 546.08
  Q 456.98 545.76 451.60 544.53
  C 445.96 543.23 438.64 542.58 433.26 539.47
  Q 428.88 536.95 422.98 536.64
  Q 430.24 527.08 440.24 521.47
  C 444.88 518.87 450.67 516.61 456.17 515.54
  C 460.85 514.62 464.71 513.39 468.90 513.13
  C 488.09 511.95 505.43 514.98 521.01 525.73
  Q 533.11 534.08 537.37 547.38
  Z"
/>
</svg>
