<?xml version="1.0" encoding="UTF-8" standalone="no"?>
<!DOCTYPE svg PUBLIC "-//W3C//DTD SVG 1.1//EN" "http://www.w3.org/Graphics/SVG/1.1/DTD/svg11.dtd">
<svg xmlns="http://www.w3.org/2000/svg" version="1.1" viewBox="0.00 0.00 631.00 632.00">
<g stroke-width="2.00" fill="none" stroke-linecap="butt">
<path stroke="#808080" vector-effect="non-scaling-stroke" d="
  M 211.37 212.15
  Q 211.80 212.12 212.35 211.58
  C 214.78 209.15 217.35 205.85 220.22 203.82
  Q 224.68 200.65 231.43 197.95
  Q 236.78 195.80 235.65 190.48
  C 234.17 183.59 233.95 178.23 235.24 172.01
  C 236.54 165.76 235.67 160.52 229.28 157.78
  C 224.29 155.64 219.72 153.48 216.96 148.68
  C 215.59 146.32 215.09 142.95 214.32 140.44
  C 213.38 137.40 210.21 131.38 206.78 130.48
  C 201.21 129.01 193.62 130.45 188.47 131.86
  C 182.39 133.52 175.28 132.43 169.23 128.95
  C 162.47 125.07 155.95 123.55 148.39 125.67
  Q 144.09 126.88 142.12 128.90
  Q 133.39 137.85 133.11 138.11
  C 128.92 142.04 123.19 142.89 117.58 143.52
  Q 111.59 144.20 108.89 145.39
  Q 101.52 148.62 97.12 156.07
  A 4.57 4.48 -25.4 0 0 96.58 157.54
  Q 95.08 166.08 97.42 176.06
  Q 99.10 183.22 95.96 190.43
  Q 95.59 191.29 92.44 196.69
  Q 90.82 199.46 89.15 204.70
  C 86.31 213.64 94.62 217.25 98.45 222.17
  C 102.45 227.32 100.27 234.90 98.42 242.39
  Q 97.84 244.76 98.62 246.14
  C 102.80 253.46 110.59 255.25 118.77 254.49
  C 123.81 254.03 130.10 245.28 133.16 241.22
  A 1.34 1.33 51.7 0 0 133.31 239.86
  C 130.70 234.23 128.57 229.30 127.69 223.26
  C 126.59 215.63 129.29 207.43 136.39 203.89
  C 143.85 200.17 147.11 199.01 152.89 194.49
  Q 158.33 190.24 161.65 188.21
  C 172.61 181.55 192.38 178.99 201.65 190.60
  C 205.49 195.41 208.72 200.87 209.55 206.60
  Q 210.09 210.29 210.48 211.54
  A 0.88 0.86 79.0 0 0 211.37 212.15"
/>
<path stroke="#59070a" vector-effect="non-scaling-stroke" d="
  M 194.46 209.02
  Q 192.15 200.33 183.90 197.17
  A 2.19 2.13 48.7 0 0 182.62 197.07
  Q 176.37 198.48 174.56 198.93
  C 170.98 199.84 168.06 201.79 165.32 204.07
  Q 160.12 208.40 155.83 211.41
  A 10.94 10.64 -73.4 0 1 153.77 212.56
  C 150.02 214.14 146.60 215.27 144.33 216.87
  Q 142.45 218.18 142.65 221.22
  C 142.86 224.44 143.83 229.23 146.54 230.99
  A 2.07 2.06 -38.3 0 0 148.37 231.20
  L 154.73 228.93
  A 10.47 10.28 -55.3 0 1 157.96 228.31
  C 161.50 228.20 165.93 228.58 166.97 226.31
  C 172.10 215.04 181.96 211.25 193.81 209.96
  A 0.75 0.75 0.0 0 0 194.46 209.02"
/>
<path stroke="#6a1d23" vector-effect="non-scaling-stroke" d="
  M 200.64 384.10
  C 204.38 380.35 205.21 376.89 206.58 371.10
  C 207.74 366.21 210.54 364.79 215.25 364.59
  Q 217.18 364.51 221.09 366.56
  Q 223.54 367.85 227.28 369.27
  A 6.45 6.11 -31.5 0 0 229.07 369.65
  C 236.44 370.10 241.11 366.03 243.70 359.43
  C 245.86 353.90 249.22 352.71 254.86 353.75
  A 3.61 3.56 64.8 0 1 255.92 354.14
  C 259.59 356.19 264.11 359.32 267.71 358.40
  C 274.79 356.59 277.84 351.66 280.74 345.42
  C 284.71 336.90 291.48 340.67 297.64 342.90
  Q 309.45 347.18 314.88 336.28
  Q 318.21 329.59 319.13 327.41
  A 2.87 2.86 -9.1 0 1 319.90 326.35
  Q 322.98 323.70 326.80 324.17
  Q 337.22 325.45 337.55 325.48
  C 345.15 326.22 349.42 324.36 354.54 318.48
  C 357.69 314.86 357.78 310.09 362.13 307.05
  C 364.93 305.08 370.85 306.22 373.83 307.49
  A 2.75 2.70 -37.5 0 0 375.31 307.67
  C 382.26 306.60 384.62 302.06 388.33 296.28
  C 391.37 291.55 394.59 290.75 399.97 289.28
  A 7.46 7.10 -64.9 0 0 401.38 288.73
  Q 406.42 286.10 410.38 280.89
  A 3.67 3.64 -20.6 0 0 411.01 279.52
  C 412.26 274.06 410.10 269.23 405.20 266.49
  C 400.36 263.80 395.79 262.41 393.74 257.16
  A 3.89 3.88 -56.2 0 1 393.47 255.79
  C 393.45 251.48 393.25 247.64 390.44 244.36
  Q 386.82 240.13 381.36 237.84
  C 376.92 235.97 370.03 235.96 365.46 235.56
  C 356.00 234.73 354.68 226.94 348.28 222.15
  C 343.13 218.29 337.88 217.12 330.84 217.26
  C 323.56 217.40 316.13 217.20 309.50 213.55
  C 306.56 211.92 302.79 208.12 298.91 206.04
  C 292.76 202.74 289.15 200.70 283.01 202.48
  C 274.91 204.81 269.88 207.58 262.58 211.60
  C 258.79 213.69 252.55 213.16 248.30 212.59
  C 240.39 211.52 233.80 212.13 228.05 217.08
  A 4.64 4.56 82.9 0 0 226.94 218.53
  C 225.64 221.17 224.77 223.64 223.10 225.39
  C 220.00 228.65 213.89 231.70 209.84 228.85
  Q 201.13 222.70 191.16 225.64
  Q 186.76 226.93 184.30 228.64
  C 180.90 230.99 179.43 234.98 177.97 239.00
  A 3.33 3.31 81.9 0 1 176.84 240.52
  C 172.04 244.10 168.55 243.50 161.53 243.49
  A 8.07 7.66 -49.7 0 0 159.86 243.67
  Q 153.18 245.09 147.57 249.36
  C 143.27 252.64 140.25 257.12 136.51 261.25
  Q 132.47 265.71 129.97 266.91
  Q 125.98 268.81 120.05 269.66
  C 112.82 270.70 105.40 273.67 101.97 280.37
  Q 100.59 283.07 100.57 287.85
  C 100.55 292.77 100.55 300.01 98.78 303.52
  Q 98.77 303.55 95.12 311.78
  C 93.88 314.56 92.82 318.86 93.10 321.02
  Q 94.04 328.42 93.74 334.25
  Q 93.54 338.29 92.65 339.90
  C 89.83 345.03 83.99 354.78 86.80 359.96
  C 89.72 365.37 92.92 370.84 92.32 375.34
  C 91.52 381.41 88.84 387.31 92.36 393.64
  C 94.10 396.74 96.16 399.85 99.01 402.15
  A 4.90 4.88 -23.4 0 0 101.73 403.22
  C 108.02 403.66 115.72 403.82 120.20 406.57
  C 124.76 409.37 127.33 411.40 131.93 409.16
  C 137.89 406.25 140.49 401.73 144.52 396.50
  C 149.00 390.70 156.89 394.96 162.85 393.44
  C 168.50 392.00 170.89 389.10 174.37 383.74
  A 3.97 3.93 -1.1 0 1 175.39 382.69
  C 179.22 380.01 181.93 380.49 186.03 381.64
  A 8.20 8.16 -20.7 0 1 188.24 382.63
  C 192.73 385.54 194.85 386.78 199.83 384.65
  A 2.44 2.39 -78.5 0 0 200.64 384.10"
/>
<path stroke="#7f5c36" vector-effect="non-scaling-stroke" d="
  M 432.81 273.19
  C 429.85 273.71 427.93 273.51 426.64 276.89
  Q 425.85 278.99 425.73 280.24
  Q 425.14 286.58 422.96 289.77
  Q 421.20 292.35 415.36 297.82
  C 412.40 300.60 406.43 303.32 403.54 304.61
  C 401.34 305.59 398.90 307.40 398.06 309.11
  Q 393.21 319.05 383.12 321.56
  C 379.39 322.49 376.43 322.16 372.08 322.20
  A 1.43 1.41 21.3 0 0 371.04 322.65
  Q 367.51 326.33 365.50 330.72"
/>
<path stroke="#7f6c53" vector-effect="non-scaling-stroke" d="
  M 365.50 330.72
  C 364.60 339.51 365.75 344.79 373.73 349.28
  C 379.67 352.62 391.27 356.35 392.27 364.51
  C 392.74 368.36 392.19 372.90 393.07 376.57
  C 394.61 382.97 397.71 391.11 404.89 392.15
  A 4.01 3.92 -45.6 0 0 406.23 392.12
  C 411.96 390.97 416.23 389.97 421.00 389.85
  C 425.52 389.74 428.09 391.27 431.57 394.68
  C 435.33 398.37 438.89 402.15 443.40 404.09
  Q 451.71 407.68 459.61 403.63
  C 462.67 402.06 465.79 398.19 468.68 395.42
  C 471.26 392.94 476.78 392.12 480.27 391.58
  C 486.41 390.63 492.12 386.77 496.25 382.43
  Q 500.14 378.35 501.34 372.59
  C 501.89 369.95 501.28 366.21 501.05 363.99
  C 500.51 358.56 502.21 353.59 505.65 349.40
  C 509.74 344.43 512.06 340.62 513.71 334.76
  C 516.99 323.03 502.50 317.42 496.36 311.22
  C 492.62 307.45 492.53 303.63 491.48 298.26
  Q 490.46 293.02 487.39 289.06
  C 483.04 283.46 477.48 283.90 470.57 284.21
  C 463.94 284.51 454.66 286.50 449.41 281.10
  C 444.93 276.51 439.41 272.58 432.81 273.19"
/>
<path stroke="#fec889" vector-effect="non-scaling-stroke" d="
  M 365.50 330.72
  C 368.44 329.44 370.66 329.01 373.43 326.79
  A 3.37 3.36 -65.8 0 1 375.34 326.06
  Q 375.67 326.04 380.49 326.50
  C 389.99 327.40 400.17 322.21 402.81 312.65
  C 403.36 310.65 404.10 309.36 405.85 308.80
  C 417.22 305.18 431.32 296.69 431.55 282.96
  C 431.61 279.54 432.23 276.50 432.81 273.19"
/>
<path stroke="#7f6c53" vector-effect="non-scaling-stroke" d="
  M 147.95 423.69
  L 148.82 437.68
  A 3.75 3.75 0.0 0 0 150.77 440.74
  Q 162.04 446.90 167.52 459.56"
/>
<path stroke="#7f5c36" vector-effect="non-scaling-stroke" d="
  M 167.52 459.56
  Q 167.99 460.26 169.09 459.87
  C 175.88 457.48 183.49 454.40 190.11 453.26
  Q 203.52 450.95 219.01 453.00
  Q 229.87 454.45 240.59 461.38
  Q 259.00 473.28 259.65 494.05
  Q 259.87 501.20 259.03 511.51
  A 0.81 0.80 15.3 0 0 259.48 512.29
  Q 260.92 512.99 262.43 513.04"
/>
<path stroke="#7f6c53" vector-effect="non-scaling-stroke" d="
  M 262.43 513.04
  L 276.96 513.66
  A 2.15 1.83 49.5 0 1 277.40 513.73
  Q 281.23 514.75 285.05 514.15
  C 289.03 513.52 292.22 513.48 295.95 513.45"
/>
<path stroke="#7f5c36" vector-effect="non-scaling-stroke" d="
  M 295.95 513.45
  L 303.52 513.21
  A 0.91 0.91 0.0 0 0 304.35 511.98
  C 303.79 510.46 303.08 509.15 302.93 507.23
  Q 302.06 496.06 302.40 492.73
  C 303.60 480.70 309.01 470.18 317.73 461.73
  Q 323.36 456.27 325.04 454.99
  C 340.71 443.02 362.39 442.33 380.92 447.09
  Q 387.91 448.89 397.85 454.82"
/>
<path stroke="#7f6c53" vector-effect="non-scaling-stroke" d="
  M 397.85 454.82
  Q 399.31 458.08 399.39 461.07
  C 399.52 466.10 396.28 468.80 391.46 468.51
  Q 390.07 468.43 386.07 465.59
  C 378.75 460.39 366.78 459.09 357.23 459.15
  C 342.56 459.25 331.60 467.59 323.23 479.27
  Q 318.61 485.72 316.80 495.44
  C 316.21 498.61 316.92 500.40 317.64 503.64
  C 319.74 513.19 327.81 519.75 336.67 522.72
  C 357.80 529.81 381.11 529.53 403.22 526.65
  Q 419.33 524.56 435.67 518.42
  Q 452.62 512.05 460.89 497.54
  C 464.91 490.51 468.34 482.05 468.62 474.18
  C 469.21 457.48 463.68 439.51 455.68 424.80"
/>
<path stroke="#7f5c36" vector-effect="non-scaling-stroke" d="
  M 455.68 424.80
  Q 454.23 421.52 450.98 421.00
  C 440.80 419.40 434.87 418.52 427.42 411.98
  Q 421.66 406.91 421.29 406.62
  C 418.43 404.37 416.72 405.25 413.84 406.23
  A 12.15 12.00 -54.2 0 1 410.15 406.85
  Q 399.95 406.95 399.30 406.83
  Q 392.41 405.53 387.50 399.38
  Q 379.99 389.97 378.77 380.74
  Q 378.22 376.48 378.02 371.48
  Q 377.89 368.06 374.78 366.72
  C 365.35 362.66 358.11 358.55 353.13 349.22
  C 351.84 346.80 351.44 344.20 350.70 340.99
  A 1.29 1.29 0.0 0 0 349.20 340.00
  C 343.63 341.06 339.88 340.81 331.39 340.81
  A 1.86 1.84 -76.2 0 0 329.75 341.81
  C 327.94 345.26 327.42 346.89 325.32 349.37
  C 317.12 359.05 304.99 359.98 293.21 357.66
  A 1.41 1.41 0.0 0 0 291.65 358.46
  Q 290.82 360.28 288.80 362.66
  Q 282.35 370.28 270.58 373.19
  Q 264.75 374.63 258.75 372.25
  A 3.95 3.95 0.0 0 0 254.48 373.16
  Q 252.40 375.29 248.18 379.17
  C 244.31 382.74 238.89 384.04 233.55 384.02
  C 227.91 383.99 223.60 384.40 220.60 383.19
  A 1.51 1.51 0.0 0 0 218.69 383.88
  L 214.02 392.79
  A 1.84 1.69 83.7 0 1 213.66 393.28
  Q 209.33 397.45 202.90 399.95
  A 2.50 2.39 33.0 0 1 202.00 400.12
  L 190.14 400.12
  A 1.55 1.45 53.2 0 1 189.63 400.03
  L 185.60 398.55
  A 2.41 2.39 -54.4 0 0 183.24 398.95
  C 178.48 402.86 175.40 405.64 169.93 407.42
  Q 163.15 409.64 156.80 409.39
  A 3.52 3.51 -67.9 0 0 154.06 410.55
  L 146.72 418.70
  A 0.63 0.63 0.0 0 0 146.58 419.32
  L 147.95 423.69"
/>
<path stroke="#fec889" vector-effect="non-scaling-stroke" d="
  M 455.68 424.80
  Q 451.48 424.84 447.22 424.92
  Q 429.19 425.26 418.25 411.50
  Q 416.43 409.21 416.33 409.09
  A 2.50 2.50 0.0 0 0 413.71 408.35
  Q 403.53 411.53 393.92 407.32
  C 382.82 402.45 370.95 389.15 370.32 376.51
  Q 370.03 370.88 369.99 370.26
  A 1.56 1.55 10.8 0 0 369.10 368.96
  C 366.85 367.90 363.43 367.03 360.94 365.62
  Q 348.85 358.77 344.90 345.17
  A 1.03 1.02 84.1 0 0 344.01 344.44
  L 335.02 343.61
  A 2.78 2.77 -70.6 0 0 332.43 344.86
  Q 329.01 350.04 324.96 354.72
  Q 312.95 368.59 295.17 362.38
  A 1.68 1.66 30.4 0 0 293.37 362.84
  Q 289.59 367.02 284.87 371.12
  C 276.60 378.29 266.85 380.49 256.37 376.79
  A 1.60 1.59 -58.0 0 0 254.71 377.18
  C 247.54 384.46 241.18 388.63 230.24 387.40
  Q 228.05 387.15 224.35 386.39
  A 1.44 1.43 14.6 0 0 222.69 387.36
  C 220.11 395.44 214.11 403.19 206.02 405.43
  C 199.93 407.11 194.69 405.98 189.07 403.69
  A 1.21 1.20 30.7 0 0 187.69 404.04
  Q 176.52 417.75 159.55 413.97
  A 2.32 2.30 29.3 0 0 157.45 414.55
  Q 153.31 418.55 148.39 420.03
  A 0.65 0.65 0.0 0 0 147.93 420.65
  L 147.95 423.69"
/>
<path stroke="#fec889" vector-effect="non-scaling-stroke" d="
  M 397.85 454.82
  Q 393.53 447.79 382.53 445.16
  C 374.95 443.36 365.93 440.77 358.28 440.60
  Q 327.14 439.91 306.96 464.20
  Q 298.70 474.16 295.49 485.25
  Q 291.49 499.06 295.95 513.45"
/>
<path stroke="#fec889" vector-effect="non-scaling-stroke" d="
  M 262.43 513.04
  Q 262.63 510.67 263.99 505.48
  Q 266.29 496.74 263.42 484.82
  C 258.17 463.01 240.51 448.78 218.50 446.74
  C 202.84 445.29 187.12 448.40 173.42 456.28
  Q 170.49 457.97 167.52 459.56"
/>
<path stroke="#7f5c36" vector-effect="non-scaling-stroke" d="
  M 134.36 428.52
  Q 134.06 425.08 130.44 424.76
  Q 119.92 423.84 118.61 423.28
  Q 117.01 422.60 112.36 419.30
  A 2.86 2.85 60.8 0 0 110.54 418.78
  Q 102.29 419.29 94.69 417.37"
/>
<path stroke="#7f6c53" vector-effect="non-scaling-stroke" d="
  M 94.69 417.37
  Q 93.05 415.53 90.77 416.37
  C 88.79 417.10 87.07 419.78 86.74 421.77
  C 86.01 426.26 84.65 432.56 80.34 434.34
  C 74.61 436.70 66.51 443.42 66.87 450.29
  C 67.17 456.22 67.95 462.65 66.01 467.51
  C 63.09 474.82 59.81 481.63 65.93 488.06
  C 70.58 492.94 77.21 495.27 78.47 504.26
  C 79.13 508.98 81.04 515.33 86.22 517.09
  Q 87.75 517.61 91.39 517.65
  Q 98.03 517.72 102.97 519.30
  A 8.04 7.80 69.6 0 1 104.84 520.19
  C 108.30 522.40 113.01 525.41 116.49 524.66
  Q 120.37 523.83 125.80 521.04
  Q 138.18 514.71 141.55 512.78
  Q 143.32 511.76 143.40 509.89
  C 143.93 497.84 143.96 489.94 148.19 481.44
  C 151.76 474.26 155.61 467.51 151.18 460.33
  C 149.05 456.88 142.72 453.26 139.90 450.84
  Q 134.15 445.92 134.30 438.32
  Q 134.38 433.63 134.36 428.52"
/>
<path stroke="#fec889" vector-effect="non-scaling-stroke" d="
  M 94.69 417.37
  Q 99.68 424.16 109.35 421.44
  A 1.04 1.02 -32.0 0 1 110.32 421.65
  Q 118.23 428.57 128.76 429.40
  Q 131.36 429.60 134.36 428.52"
/>
<path stroke="#7f6c53" vector-effect="non-scaling-stroke" d="
  M 245.28 495.11
  C 244.51 489.87 241.93 481.51 237.62 477.86
  Q 225.65 467.73 210.83 466.31
  C 201.04 465.37 189.40 467.90 180.33 471.81
  C 172.52 475.18 164.10 481.95 161.62 490.38
  Q 159.47 497.68 159.82 505.93
  C 160.27 516.51 167.67 520.73 176.21 524.88
  Q 181.74 527.57 184.95 528.90
  C 191.83 531.73 199.58 531.72 207.15 531.21
  Q 225.28 529.98 238.37 516.58
  C 243.91 510.90 246.44 502.93 245.28 495.11"
/>
<path stroke="#dd5561" vector-effect="non-scaling-stroke" d="
  M 292.13 216.19
  A 3.09 3.09 0.0 0 0 289.04 213.10
  A 3.09 3.09 0.0 0 0 285.95 216.19
  A 3.09 3.09 0.0 0 0 289.04 219.28
  A 3.09 3.09 0.0 0 0 292.13 216.19"
/>
<path stroke="#c3232c" vector-effect="non-scaling-stroke" d="
  M 316.20 224.72
  A 3.40 3.40 0.0 0 0 312.80 221.32
  A 3.40 3.40 0.0 0 0 309.40 224.72
  A 3.40 3.40 0.0 0 0 312.80 228.12
  A 3.40 3.40 0.0 0 0 316.20 224.72"
/>
<path stroke="#c3232c" vector-effect="non-scaling-stroke" d="
  M 261.0639 227.7266
  A 4.01 3.40 8.7 0 0 257.6143 223.7591
  A 4.01 3.40 8.7 0 0 253.1361 226.5134
  A 4.01 3.40 8.7 0 0 256.5857 230.4809
  A 4.01 3.40 8.7 0 0 261.0639 227.7266"
/>
<path stroke="#dd5561" vector-effect="non-scaling-stroke" d="
  M 288.6457 232.3950
  A 4.37 3.46 -13.7 0 0 283.5805 230.0684
  A 4.37 3.46 -13.7 0 0 280.1543 234.4650
  A 4.37 3.46 -13.7 0 0 285.2195 236.7916
  A 4.37 3.46 -13.7 0 0 288.6457 232.3950"
/>
<path stroke="#dd5561" vector-effect="non-scaling-stroke" d="
  M 322.8009 232.2299
  A 3.60 3.29 -21.0 0 0 318.2610 230.4485
  A 3.60 3.29 -21.0 0 0 316.0791 234.8101
  A 3.60 3.29 -21.0 0 0 320.6190 236.5915
  A 3.60 3.29 -21.0 0 0 322.8009 232.2299"
/>
<path stroke="#dd5561" vector-effect="non-scaling-stroke" d="
  M 219.06 238.28
  A 3.21 3.21 0.0 0 0 215.85 235.07
  A 3.21 3.21 0.0 0 0 212.64 238.28
  A 3.21 3.21 0.0 0 0 215.85 241.49
  A 3.21 3.21 0.0 0 0 219.06 238.28"
/>
<path stroke="#c3232c" vector-effect="non-scaling-stroke" d="
  M 239.3887 240.1576
  A 5.21 3.57 -23.2 0 0 233.1936 238.9287
  A 5.21 3.57 -23.2 0 0 229.8113 244.2624
  A 5.21 3.57 -23.2 0 0 236.0064 245.4913
  A 5.21 3.57 -23.2 0 0 239.3887 240.1576"
/>
<path stroke="#c3232c" vector-effect="non-scaling-stroke" d="
  M 346.84 241.98
  A 3.42 3.42 0.0 0 0 343.42 238.56
  A 3.42 3.42 0.0 0 0 340.00 241.98
  A 3.42 3.42 0.0 0 0 343.42 245.40
  A 3.42 3.42 0.0 0 0 346.84 241.98"
/>
<path stroke="#c3232c" vector-effect="non-scaling-stroke" d="
  M 192.27 245.97
  A 3.15 3.15 0.0 0 0 189.12 242.82
  A 3.15 3.15 0.0 0 0 185.97 245.97
  A 3.15 3.15 0.0 0 0 189.12 249.12
  A 3.15 3.15 0.0 0 0 192.27 245.97"
/>
<path stroke="#c3232c" vector-effect="non-scaling-stroke" d="
  M 300.77 246.51
  A 3.06 3.06 0.0 0 0 297.71 243.45
  A 3.06 3.06 0.0 0 0 294.65 246.51
  A 3.06 3.06 0.0 0 0 297.71 249.57
  A 3.06 3.06 0.0 0 0 300.77 246.51"
/>
<path stroke="#dd5561" vector-effect="non-scaling-stroke" d="
  M 230.8046 246.6722
  A 4.48 3.47 -27.2 0 0 225.2339 245.6337
  A 4.48 3.47 -27.2 0 0 222.8354 250.7678
  A 4.48 3.47 -27.2 0 0 228.4061 251.8063
  A 4.48 3.47 -27.2 0 0 230.8046 246.6722"
/>
<path stroke="#dd5561" vector-effect="non-scaling-stroke" d="
  M 374.54 249.79
  A 3.08 3.08 0.0 0 0 371.46 246.71
  A 3.08 3.08 0.0 0 0 368.38 249.79
  A 3.08 3.08 0.0 0 0 371.46 252.87
  A 3.08 3.08 0.0 0 0 374.54 249.79"
/>
<path stroke="#dd5561" vector-effect="non-scaling-stroke" d="
  M 339.79 250.62
  A 3.33 3.33 0.0 0 0 336.46 247.29
  A 3.33 3.33 0.0 0 0 333.13 250.62
  A 3.33 3.33 0.0 0 0 336.46 253.95
  A 3.33 3.33 0.0 0 0 339.79 250.62"
/>
<path stroke="#c3232c" vector-effect="non-scaling-stroke" d="
  M 275.2767 259.0911
  A 3.50 3.26 115.8 0 0 279.7350 257.3589
  A 3.50 3.26 115.8 0 0 278.3233 252.7889
  A 3.50 3.26 115.8 0 0 273.8650 254.5211
  A 3.50 3.26 115.8 0 0 275.2767 259.0911"
/>
<path stroke="#dd5561" vector-effect="non-scaling-stroke" d="
  M 180.4848 260.3498
  A 3.54 3.31 115.7 0 0 185.0026 258.5954
  A 3.54 3.31 115.7 0 0 183.5552 253.9702
  A 3.54 3.31 115.7 0 0 179.0374 255.7246
  A 3.54 3.31 115.7 0 0 180.4848 260.3498"
/>
<path stroke="#c3232c" vector-effect="non-scaling-stroke" d="
  M 163.24 257.33
  A 3.10 3.10 0.0 0 0 160.14 254.23
  A 3.10 3.10 0.0 0 0 157.04 257.33
  A 3.10 3.10 0.0 0 0 160.14 260.43
  A 3.10 3.10 0.0 0 0 163.24 257.33"
/>
<path stroke="#c3232c" vector-effect="non-scaling-stroke" d="
  M 391.3333 256.6190
  A 5.05 3.53 -32.2 0 0 385.1789 256.3229
  A 5.05 3.53 -32.2 0 0 382.7867 262.0010
  A 5.05 3.53 -32.2 0 0 388.9411 262.2971
  A 5.05 3.53 -32.2 0 0 391.3333 256.6190"
/>
<path stroke="#c3232c" vector-effect="non-scaling-stroke" d="
  M 246.0135 258.6438
  A 3.50 3.29 -44.8 0 0 241.2118 258.7755
  A 3.50 3.29 -44.8 0 0 241.0465 263.5762
  A 3.50 3.29 -44.8 0 0 245.8482 263.4445
  A 3.50 3.29 -44.8 0 0 246.0135 258.6438"
/>
<path stroke="#dd5561" vector-effect="non-scaling-stroke" d="
  M 299.1459 265.8492
  A 4.39 3.43 -17.1 0 0 293.9414 263.8616
  A 4.39 3.43 -17.1 0 0 290.7541 268.4308
  A 4.39 3.43 -17.1 0 0 295.9586 270.4184
  A 4.39 3.43 -17.1 0 0 299.1459 265.8492"
/>
<path stroke="#c3232c" vector-effect="non-scaling-stroke" d="
  M 206.0213 268.3102
  A 3.54 3.29 -7.3 0 0 202.0920 265.4967
  A 3.54 3.29 -7.3 0 0 198.9987 269.2098
  A 3.54 3.29 -7.3 0 0 202.9280 272.0233
  A 3.54 3.29 -7.3 0 0 206.0213 268.3102"
/>
<path stroke="#c3232c" vector-effect="non-scaling-stroke" d="
  M 336.0492 273.4353
  A 3.92 3.37 125.4 0 0 341.0670 272.1922
  A 3.92 3.37 125.4 0 0 340.5908 267.0447
  A 3.92 3.37 125.4 0 0 335.5730 268.2878
  A 3.92 3.37 125.4 0 0 336.0492 273.4353"
/>
<path stroke="#dd5561" vector-effect="non-scaling-stroke" d="
  M 214.8493 272.3070
  A 3.48 3.17 -4.5 0 0 211.1313 269.4198
  A 3.48 3.17 -4.5 0 0 207.9107 272.8530
  A 3.48 3.17 -4.5 0 0 211.6287 275.7402
  A 3.48 3.17 -4.5 0 0 214.8493 272.3070"
/>
<path stroke="#c3232c" vector-effect="non-scaling-stroke" d="
  M 367.3184 272.5914
  A 3.51 3.26 -42.0 0 0 362.5286 272.5173
  A 3.51 3.26 -42.0 0 0 362.1016 277.2886
  A 3.51 3.26 -42.0 0 0 366.8914 277.3627
  A 3.51 3.26 -42.0 0 0 367.3184 272.5914"
/>
<path stroke="#c3232c" vector-effect="non-scaling-stroke" d="
  M 168.3865 274.0283
  A 3.49 3.25 -34.2 0 0 163.6732 273.3020
  A 3.49 3.25 -34.2 0 0 162.6135 277.9517
  A 3.49 3.25 -34.2 0 0 167.3268 278.6780
  A 3.49 3.25 -34.2 0 0 168.3865 274.0283"
/>
<path stroke="#c3232c" vector-effect="non-scaling-stroke" d="
  M 315.66 277.46
  A 3.42 3.42 0.0 0 0 312.24 274.04
  A 3.42 3.42 0.0 0 0 308.82 277.46
  A 3.42 3.42 0.0 0 0 312.24 280.88
  A 3.42 3.42 0.0 0 0 315.66 277.46"
/>
<path stroke="#c3232c" vector-effect="non-scaling-stroke" d="
  M 260.5066 280.8530
  A 3.46 3.25 20.7 0 0 258.4188 276.5898
  A 3.46 3.25 20.7 0 0 254.0334 278.4070
  A 3.46 3.25 20.7 0 0 256.1212 282.6702
  A 3.46 3.25 20.7 0 0 260.5066 280.8530"
/>
<path stroke="#c3232c" vector-effect="non-scaling-stroke" d="
  M 120.5450 288.9438
  A 4.79 3.52 101.5 0 0 124.9493 284.9518
  A 4.79 3.52 101.5 0 0 122.4550 279.5562
  A 4.79 3.52 101.5 0 0 118.0507 283.5482
  A 4.79 3.52 101.5 0 0 120.5450 288.9438"
/>
<path stroke="#dd5561" vector-effect="non-scaling-stroke" d="
  M 236.5456 282.1389
  A 3.48 3.24 -21.6 0 0 232.1173 280.4075
  A 3.48 3.24 -21.6 0 0 230.0744 284.7011
  A 3.48 3.24 -21.6 0 0 234.5027 286.4325
  A 3.48 3.24 -21.6 0 0 236.5456 282.1389"
/>
<path stroke="#dd5561" vector-effect="non-scaling-stroke" d="
  M 145.3164 288.9211
  A 4.01 3.36 111.1 0 0 149.8947 286.3896
  A 4.01 3.36 111.1 0 0 148.2036 281.4389
  A 4.01 3.36 111.1 0 0 143.6253 283.9704
  A 4.01 3.36 111.1 0 0 145.3164 288.9211"
/>
<path stroke="#c3232c" vector-effect="non-scaling-stroke" d="
  M 284.7071 291.2882
  A 4.59 3.46 134.6 0 0 290.3936 290.4494
  A 4.59 3.46 134.6 0 0 291.1529 284.7518
  A 4.59 3.46 134.6 0 0 285.4664 285.5906
  A 4.59 3.46 134.6 0 0 284.7071 291.2882"
/>
<path stroke="#dd5561" vector-effect="non-scaling-stroke" d="
  M 196.9024 292.5951
  A 3.47 3.23 117.6 0 0 201.3724 291.0164
  A 3.47 3.23 117.6 0 0 200.1176 286.4449
  A 3.47 3.23 117.6 0 0 195.6476 288.0236
  A 3.47 3.23 117.6 0 0 196.9024 292.5951"
/>
<path stroke="#dd5561" vector-effect="non-scaling-stroke" d="
  M 332.65 290.29
  A 3.39 3.39 0.0 0 0 329.26 286.90
  A 3.39 3.39 0.0 0 0 325.87 290.29
  A 3.39 3.39 0.0 0 0 329.26 293.68
  A 3.39 3.39 0.0 0 0 332.65 290.29"
/>
<path stroke="#c3232c" vector-effect="non-scaling-stroke" d="
  M 375.16 291.70
  A 3.20 3.20 0.0 0 0 371.96 288.50
  A 3.20 3.20 0.0 0 0 368.76 291.70
  A 3.20 3.20 0.0 0 0 371.96 294.90
  A 3.20 3.20 0.0 0 0 375.16 291.70"
/>
<path stroke="#dd5561" vector-effect="non-scaling-stroke" d="
  M 364.3800 291.1358
  A 3.60 3.30 -18.7 0 0 359.9120 289.1642
  A 3.60 3.30 -18.7 0 0 357.5600 293.4442
  A 3.60 3.30 -18.7 0 0 362.0280 295.4158
  A 3.60 3.30 -18.7 0 0 364.3800 291.1358"
/>
<path stroke="#c3232c" vector-effect="non-scaling-stroke" d="
  M 185.1462 296.9476
  A 3.75 3.27 -7.7 0 0 180.9919 294.2095
  A 3.75 3.27 -7.7 0 0 177.7138 297.9524
  A 3.75 3.27 -7.7 0 0 181.8681 300.6905
  A 3.75 3.27 -7.7 0 0 185.1462 296.9476"
/>
<path stroke="#c3232c" vector-effect="non-scaling-stroke" d="
  M 154.5891 300.9696
  A 3.51 3.30 1.3 0 0 151.1549 297.5908
  A 3.51 3.30 1.3 0 0 147.5709 300.8104
  A 3.51 3.30 1.3 0 0 151.0051 304.1892
  A 3.51 3.30 1.3 0 0 154.5891 300.9696"
/>
<path stroke="#dd5561" vector-effect="non-scaling-stroke" d="
  M 115.9396 302.6395
  A 3.53 3.33 24.6 0 0 114.1162 298.1422
  A 3.53 3.33 24.6 0 0 109.5204 299.7005
  A 3.53 3.33 24.6 0 0 111.3438 304.1978
  A 3.53 3.33 24.6 0 0 115.9396 302.6395"
/>
<path stroke="#dd5561" vector-effect="non-scaling-stroke" d="
  M 206.82 302.56
  A 2.99 2.99 0.0 0 0 203.83 299.57
  A 2.99 2.99 0.0 0 0 200.84 302.56
  A 2.99 2.99 0.0 0 0 203.83 305.55
  A 2.99 2.99 0.0 0 0 206.82 302.56"
/>
<path stroke="#c3232c" vector-effect="non-scaling-stroke" d="
  M 240.9875 309.1852
  A 3.36 3.19 67.1 0 0 242.6186 304.8487
  A 3.36 3.19 67.1 0 0 238.3725 302.9948
  A 3.36 3.19 67.1 0 0 236.7414 307.3313
  A 3.36 3.19 67.1 0 0 240.9875 309.1852"
/>
<path stroke="#dd5561" vector-effect="non-scaling-stroke" d="
  M 132.8777 305.2176
  A 4.17 3.37 -39.5 0 0 127.5164 305.2696
  A 4.17 3.37 -39.5 0 0 126.4423 310.5224
  A 4.17 3.37 -39.5 0 0 131.8036 310.4704
  A 4.17 3.37 -39.5 0 0 132.8777 305.2176"
/>
<path stroke="#c3232c" vector-effect="non-scaling-stroke" d="
  M 216.67 310.97
  A 2.91 2.91 0.0 0 0 213.76 308.06
  A 2.91 2.91 0.0 0 0 210.85 310.97
  A 2.91 2.91 0.0 0 0 213.76 313.88
  A 2.91 2.91 0.0 0 0 216.67 310.97"
/>
<path stroke="#dd5561" vector-effect="non-scaling-stroke" d="
  M 259.9205 312.0776
  A 4.34 3.42 3.8 0 0 255.8167 308.3775
  A 4.34 3.42 3.8 0 0 251.2595 311.5024
  A 4.34 3.42 3.8 0 0 255.3633 315.2025
  A 4.34 3.42 3.8 0 0 259.9205 312.0776"
/>
<path stroke="#c3232c" vector-effect="non-scaling-stroke" d="
  M 332.5290 310.6266
  A 3.70 3.30 -44.5 0 0 327.5770 310.8663
  A 3.70 3.30 -44.5 0 0 327.2510 315.8134
  A 3.70 3.30 -44.5 0 0 332.2030 315.5737
  A 3.70 3.30 -44.5 0 0 332.5290 310.6266"
/>
<path stroke="#c3232c" vector-effect="non-scaling-stroke" d="
  M 121.4755 325.4616
  A 4.23 3.42 73.3 0 0 123.5358 320.4272
  A 4.23 3.42 73.3 0 0 119.0445 317.3584
  A 4.23 3.42 73.3 0 0 116.9842 322.3928
  A 4.23 3.42 73.3 0 0 121.4755 325.4616"
/>
<path stroke="#c3232c" vector-effect="non-scaling-stroke" d="
  M 281.9193 326.0873
  A 3.46 3.26 71.3 0 0 283.8979 321.7648
  A 3.46 3.26 71.3 0 0 279.7007 319.5327
  A 3.46 3.26 71.3 0 0 277.7221 323.8552
  A 3.46 3.26 71.3 0 0 281.9193 326.0873"
/>
<path stroke="#dd5561" vector-effect="non-scaling-stroke" d="
  M 303.48 322.76
  A 2.97 2.97 0.0 0 0 300.51 319.79
  A 2.97 2.97 0.0 0 0 297.54 322.76
  A 2.97 2.97 0.0 0 0 300.51 325.73
  A 2.97 2.97 0.0 0 0 303.48 322.76"
/>
<path stroke="#c3232c" vector-effect="non-scaling-stroke" d="
  M 225.8431 331.8568
  A 3.48 3.25 117.5 0 0 230.3328 330.2707
  A 3.48 3.25 117.5 0 0 229.0569 325.6832
  A 3.48 3.25 117.5 0 0 224.5672 327.2693
  A 3.48 3.25 117.5 0 0 225.8431 331.8568"
/>
<path stroke="#dd5561" vector-effect="non-scaling-stroke" d="
  M 108.2364 335.4434
  A 4.87 3.51 110.1 0 0 113.2062 332.0762
  A 4.87 3.51 110.1 0 0 111.5836 326.2966
  A 4.87 3.51 110.1 0 0 106.6138 329.6638
  A 4.87 3.51 110.1 0 0 108.2364 335.4434"
/>
<path stroke="#c3232c" vector-effect="non-scaling-stroke" d="
  M 171.9817 332.5147
  A 3.92 3.48 14.7 0 0 169.0731 328.1539
  A 3.92 3.48 14.7 0 0 164.3983 330.5253
  A 3.92 3.48 14.7 0 0 167.3069 334.8861
  A 3.92 3.48 14.7 0 0 171.9817 332.5147"
/>
<path stroke="#c3232c" vector-effect="non-scaling-stroke" d="
  M 198.8239 334.5177
  A 3.47 3.19 -16.1 0 0 194.6054 332.4151
  A 3.47 3.19 -16.1 0 0 192.1561 336.4423
  A 3.47 3.19 -16.1 0 0 196.3746 338.5449
  A 3.47 3.19 -16.1 0 0 198.8239 334.5177"
/>
<path stroke="#c3232c" vector-effect="non-scaling-stroke" d="
  M 180.0294 343.8132
  A 4.32 3.47 107.8 0 0 184.6539 340.7608
  A 4.32 3.47 107.8 0 0 182.6706 335.5868
  A 4.32 3.47 107.8 0 0 178.0461 338.6392
  A 4.32 3.47 107.8 0 0 180.0294 343.8132"
/>
<path stroke="#c3232c" vector-effect="non-scaling-stroke" d="
  M 122.7863 341.6746
  A 3.50 3.28 133.6 0 0 127.5753 341.4020
  A 3.50 3.28 133.6 0 0 127.6137 336.6054
  A 3.50 3.28 133.6 0 0 122.8247 336.8780
  A 3.50 3.28 133.6 0 0 122.7863 341.6746"
/>
<path stroke="#dd5561" vector-effect="non-scaling-stroke" d="
  M 159.68 339.09
  A 3.35 3.35 0.0 0 0 156.33 335.74
  A 3.35 3.35 0.0 0 0 152.98 339.09
  A 3.35 3.35 0.0 0 0 156.33 342.44
  A 3.35 3.35 0.0 0 0 159.68 339.09"
/>
<path stroke="#dd5561" vector-effect="non-scaling-stroke" d="
  M 200.3773 345.2646
  A 3.80 3.38 18.8 0 0 197.8693 340.8403
  A 3.80 3.38 18.8 0 0 193.1827 342.8154
  A 3.80 3.38 18.8 0 0 195.6907 347.2397
  A 3.80 3.38 18.8 0 0 200.3773 345.2646"
/>
<path stroke="#dd5561" vector-effect="non-scaling-stroke" d="
  M 124.76 352.31
  A 3.22 3.22 0.0 0 0 121.54 349.09
  A 3.22 3.22 0.0 0 0 118.32 352.31
  A 3.22 3.22 0.0 0 0 121.54 355.53
  A 3.22 3.22 0.0 0 0 124.76 352.31"
/>
<path stroke="#dd5561" vector-effect="non-scaling-stroke" d="
  M 237.3142 351.6730
  A 3.96 3.39 -21.9 0 0 232.3756 350.0046
  A 3.96 3.39 -21.9 0 0 229.9658 354.6270
  A 3.96 3.39 -21.9 0 0 234.9044 356.2954
  A 3.96 3.39 -21.9 0 0 237.3142 351.6730"
/>
<path stroke="#dd5561" vector-effect="non-scaling-stroke" d="
  M 145.6039 353.8179
  A 3.48 3.22 -42.3 0 0 140.8629 353.7784
  A 3.48 3.22 -42.3 0 0 140.4561 358.5021
  A 3.48 3.22 -42.3 0 0 145.1971 358.5416
  A 3.48 3.22 -42.3 0 0 145.6039 353.8179"
/>
<path stroke="#c3232c" vector-effect="non-scaling-stroke" d="
  M 163.78 367.87
  A 3.09 3.09 0.0 0 0 160.69 364.78
  A 3.09 3.09 0.0 0 0 157.60 367.87
  A 3.09 3.09 0.0 0 0 160.69 370.96
  A 3.09 3.09 0.0 0 0 163.78 367.87"
/>
<path stroke="#dd5561" vector-effect="non-scaling-stroke" d="
  M 182.0097 372.9062
  A 3.97 3.43 113.3 0 0 186.7303 370.6167
  A 3.97 3.43 113.3 0 0 185.1503 365.6138
  A 3.97 3.43 113.3 0 0 180.4297 367.9033
  A 3.97 3.43 113.3 0 0 182.0097 372.9062"
/>
<path stroke="#c3232c" vector-effect="non-scaling-stroke" d="
  M 114.76 379.81
  Q 117.49 382.89 119.44 381.25
  Q 121.55 379.47 120.62 376.27
  Q 119.64 372.93 115.89 374.72"
/>
<path stroke="#dd5561" vector-effect="non-scaling-stroke" d="
  M 115.89 374.72
  Q 111.83 372.20 109.91 375.05
  Q 108.04 377.82 109.86 379.98
  Q 111.37 381.77 114.76 379.81"
/>
<path stroke="#cc3f48" vector-effect="non-scaling-stroke" d="
  M 115.89 374.72
  Q 116.44 377.75 114.76 379.81"
/>
<path stroke="#c3232c" vector-effect="non-scaling-stroke" d="
  M 141.93 385.19
  A 2.90 2.90 0.0 0 0 139.03 382.29
  A 2.90 2.90 0.0 0 0 136.13 385.19
  A 2.90 2.90 0.0 0 0 139.03 388.09
  A 2.90 2.90 0.0 0 0 141.93 385.19"
/>
<path stroke="#7f6c53" vector-effect="non-scaling-stroke" d="
  M 233.68 412.12
  L 239.21 412.12
  A 1.67 1.65 70.7 0 1 240.51 412.75
  Q 243.29 416.23 240.23 419.99
  A 1.07 1.05 -69.6 0 1 239.42 420.37
  L 236.29 420.37
  A 1.59 1.58 -63.1 0 0 235.35 420.68
  Q 231.58 423.41 231.63 427.65
  A 2.74 2.74 0.0 0 0 231.80 428.60
  Q 233.45 433.26 238.95 433.71
  Q 246.99 434.37 251.89 428.60
  A 2.80 2.79 -59.6 0 1 254.99 427.79
  Q 258.45 429.09 262.91 428.90
  C 265.84 428.77 266.68 428.99 269.00 427.48
  Q 273.19 424.75 275.52 421.84
  A 1.27 1.26 63.9 0 0 275.78 421.07
  L 275.78 415.48
  A 1.87 1.84 -69.3 0 0 275.17 414.10
  L 272.12 411.35
  A 1.24 1.21 65.2 0 0 271.31 411.04
  L 267.52 411.04
  A 1.66 1.63 20.1 0 0 266.27 411.61
  Q 264.43 413.75 262.26 414.99
  A 2.40 2.39 -29.8 0 1 259.00 414.11
  L 256.90 410.48
  A 2.10 2.10 0.0 0 1 257.52 407.71
  Q 260.30 405.75 260.52 402.50
  Q 260.90 397.12 259.54 393.82
  A 2.25 2.23 -79.5 0 0 259.07 393.13
  Q 257.05 391.11 255.98 390.98
  Q 243.58 389.57 234.34 394.57
  Q 231.47 396.13 229.48 400.30
  A 1.87 1.87 0.0 0 0 229.30 401.10
  L 229.30 406.74
  A 1.24 1.20 -69.6 0 0 229.70 407.65
  L 234.02 411.54
  A 0.13 0.12 -32.9 0 1 233.97 411.75
  Q 233.79 411.80 233.65 411.83
  A 0.15 0.15 0.0 0 0 233.68 412.12"
/>
</g>
<path fill="#000000" d="
  M 469.07 417.56
  Q 478.23 434.95 481.73 452.38
  C 482.87 458.07 483.03 464.19 483.15 470.00
  Q 483.37 480.75 480.73 491.73
  Q 479.57 496.56 478.29 499.02
  Q 466.87 521.15 445.18 531.43
  Q 437.60 535.02 425.36 538.09
  Q 416.23 540.38 404.66 542.08
  Q 395.35 543.45 384.23 543.15
  C 368.54 542.72 355.72 542.79 342.21 539.97
  C 335.99 538.68 329.53 535.71 324.44 534.00
  A 5.71 5.59 -31.6 0 0 323.29 533.74
  Q 316.08 532.94 314.23 532.98
  Q 307.11 533.13 303.45 532.99
  A 2.13 2.08 -55.5 0 0 302.49 533.18
  Q 299.06 534.72 295.60 533.21
  A 2.71 2.64 56.0 0 0 294.54 532.99
  Q 268.76 533.07 252.75 533.00
  Q 248.91 532.98 244.99 533.61
  A 2.32 2.24 24.1 0 0 244.19 533.90
  Q 232.44 541.13 227.69 542.96
  Q 219.05 546.28 210.24 546.72
  Q 205.86 546.94 196.11 546.64
  C 183.36 546.26 169.60 538.79 157.90 532.06
  C 147.68 526.18 141.43 531.10 131.62 536.11
  C 122.91 540.57 112.34 541.48 103.34 537.39
  Q 97.30 534.64 96.94 534.54
  Q 96.11 534.31 92.28 533.86
  C 80.02 532.41 70.19 529.38 66.13 516.65
  C 65.23 513.83 64.24 509.06 61.47 505.03
  A 4.59 4.42 3.0 0 0 60.56 504.06
  C 52.34 497.52 46.77 490.17 47.54 479.16
  C 48.01 472.57 49.55 468.61 52.28 461.44
  A 3.84 3.76 -32.3 0 0 52.52 460.43
  Q 52.85 456.77 52.66 456.12
  Q 51.61 452.47 51.65 451.76
  C 52.35 438.45 59.49 429.49 70.79 421.76
  A 3.85 3.81 -5.3 0 0 72.12 420.17
  C 74.70 414.46 75.50 408.72 79.94 404.70
  A 2.42 2.41 -32.8 0 0 80.54 401.96
  C 78.13 396.34 77.03 392.02 77.07 385.54
  Q 77.12 377.22 77.16 374.69
  A 5.01 5.01 0.0 0 0 76.96 373.22
  C 75.67 368.91 73.06 364.67 72.72 360.60
  Q 72.22 354.53 72.86 349.10
  C 73.63 342.64 77.88 336.35 79.49 331.02
  A 4.03 4.01 51.5 0 0 79.65 329.59
  Q 78.75 315.46 80.24 308.01
  Q 80.78 305.36 85.14 295.76
  A 3.14 2.89 -32.0 0 0 85.40 294.81
  C 85.94 289.56 86.34 281.57 88.29 275.33
  Q 90.60 267.92 90.82 266.77
  C 91.74 261.72 89.50 259.94 87.07 256.18
  C 82.34 248.90 82.87 239.99 85.63 232.07
  A 1.31 1.29 30.2 0 0 85.25 230.67
  C 73.54 220.45 71.76 209.83 76.56 195.16
  C 78.37 189.62 82.75 185.76 82.38 179.51
  Q 81.84 170.28 81.80 161.20
  Q 81.76 148.16 91.35 137.86
  C 96.47 132.36 101.30 129.57 108.79 128.41
  C 114.05 127.60 118.78 127.61 121.30 125.54
  C 129.62 118.70 138.90 110.10 150.36 109.56
  Q 159.44 109.13 166.70 111.10
  Q 170.01 111.99 179.84 116.44
  C 181.54 117.21 185.00 117.01 187.43 116.45
  Q 196.65 114.33 206.26 114.97
  C 211.60 115.33 217.17 119.79 220.25 123.83
  Q 224.10 128.88 227.83 135.91
  C 230.53 141.01 235.29 143.29 239.96 146.10
  C 251.74 153.19 251.15 166.07 249.71 178.22
  Q 248.89 185.12 252.21 191.57
  C 252.97 193.03 253.82 194.28 255.65 194.43
  C 260.47 194.82 265.13 192.83 269.53 190.64
  Q 274.31 188.27 278.13 187.52
  Q 294.44 184.30 308.25 193.74
  Q 310.34 195.17 318.67 200.80
  A 4.98 4.94 -26.8 0 0 321.28 201.65
  C 335.02 202.10 348.07 202.52 359.26 211.49
  C 361.72 213.46 365.38 217.86 366.89 219.67
  A 1.30 1.29 -16.6 0 0 367.73 220.12
  Q 367.92 220.14 373.30 220.72
  Q 385.60 222.02 395.76 228.21
  C 404.11 233.30 406.61 240.29 408.98 248.96
  A 5.33 5.32 6.2 0 0 411.68 252.31
  Q 416.87 255.01 421.14 259.86
  A 1.75 1.75 0.0 0 0 423.34 260.22
  Q 425.78 258.81 428.49 258.71
  Q 435.36 258.45 441.10 258.94
  A 9.16 8.90 55.9 0 1 443.31 259.40
  Q 451.96 262.33 459.22 268.37
  Q 459.82 268.86 460.74 268.55
  Q 461.65 268.24 462.38 268.33
  Q 464.51 268.62 479.24 269.17
  C 487.99 269.49 496.01 273.60 500.77 281.36
  Q 505.95 289.83 506.27 297.96
  C 506.39 301.19 513.31 304.65 515.97 306.51
  Q 532.78 318.26 529.11 338.00
  C 527.67 345.74 522.61 353.75 517.62 360.44
  A 4.59 4.58 60.9 0 0 516.72 363.61
  Q 517.83 376.30 512.53 386.27
  C 507.80 395.17 497.90 402.39 488.03 405.11
  C 485.80 405.73 480.97 407.00 478.46 408.66
  Q 473.46 411.97 469.22 416.47
  A 0.94 0.94 0.0 0 0 469.07 417.56
  Z
  M 211.37 212.15
  Q 211.80 212.12 212.35 211.58
  C 214.78 209.15 217.35 205.85 220.22 203.82
  Q 224.68 200.65 231.43 197.95
  Q 236.78 195.80 235.65 190.48
  C 234.17 183.59 233.95 178.23 235.24 172.01
  C 236.54 165.76 235.67 160.52 229.28 157.78
  C 224.29 155.64 219.72 153.48 216.96 148.68
  C 215.59 146.32 215.09 142.95 214.32 140.44
  C 213.38 137.40 210.21 131.38 206.78 130.48
  C 201.21 129.01 193.62 130.45 188.47 131.86
  C 182.39 133.52 175.28 132.43 169.23 128.95
  C 162.47 125.07 155.95 123.55 148.39 125.67
  Q 144.09 126.88 142.12 128.90
  Q 133.39 137.85 133.11 138.11
  C 128.92 142.04 123.19 142.89 117.58 143.52
  Q 111.59 144.20 108.89 145.39
  Q 101.52 148.62 97.12 156.07
  A 4.57 4.48 -25.4 0 0 96.58 157.54
  Q 95.08 166.08 97.42 176.06
  Q 99.10 183.22 95.96 190.43
  Q 95.59 191.29 92.44 196.69
  Q 90.82 199.46 89.15 204.70
  C 86.31 213.64 94.62 217.25 98.45 222.17
  C 102.45 227.32 100.27 234.90 98.42 242.39
  Q 97.84 244.76 98.62 246.14
  C 102.80 253.46 110.59 255.25 118.77 254.49
  C 123.81 254.03 130.10 245.28 133.16 241.22
  A 1.34 1.33 51.7 0 0 133.31 239.86
  C 130.70 234.23 128.57 229.30 127.69 223.26
  C 126.59 215.63 129.29 207.43 136.39 203.89
  C 143.85 200.17 147.11 199.01 152.89 194.49
  Q 158.33 190.24 161.65 188.21
  C 172.61 181.55 192.38 178.99 201.65 190.60
  C 205.49 195.41 208.72 200.87 209.55 206.60
  Q 210.09 210.29 210.48 211.54
  A 0.88 0.86 79.0 0 0 211.37 212.15
  Z
  M 194.46 209.02
  Q 192.15 200.33 183.90 197.17
  A 2.19 2.13 48.7 0 0 182.62 197.07
  Q 176.37 198.48 174.56 198.93
  C 170.98 199.84 168.06 201.79 165.32 204.07
  Q 160.12 208.40 155.83 211.41
  A 10.94 10.64 -73.4 0 1 153.77 212.56
  C 150.02 214.14 146.60 215.27 144.33 216.87
  Q 142.45 218.18 142.65 221.22
  C 142.86 224.44 143.83 229.23 146.54 230.99
  A 2.07 2.06 -38.3 0 0 148.37 231.20
  L 154.73 228.93
  A 10.47 10.28 -55.3 0 1 157.96 228.31
  C 161.50 228.20 165.93 228.58 166.97 226.31
  C 172.10 215.04 181.96 211.25 193.81 209.96
  A 0.75 0.75 0.0 0 0 194.46 209.02
  Z
  M 200.64 384.10
  C 204.38 380.35 205.21 376.89 206.58 371.10
  C 207.74 366.21 210.54 364.79 215.25 364.59
  Q 217.18 364.51 221.09 366.56
  Q 223.54 367.85 227.28 369.27
  A 6.45 6.11 -31.5 0 0 229.07 369.65
  C 236.44 370.10 241.11 366.03 243.70 359.43
  C 245.86 353.90 249.22 352.71 254.86 353.75
  A 3.61 3.56 64.8 0 1 255.92 354.14
  C 259.59 356.19 264.11 359.32 267.71 358.40
  C 274.79 356.59 277.84 351.66 280.74 345.42
  C 284.71 336.90 291.48 340.67 297.64 342.90
  Q 309.45 347.18 314.88 336.28
  Q 318.21 329.59 319.13 327.41
  A 2.87 2.86 -9.1 0 1 319.90 326.35
  Q 322.98 323.70 326.80 324.17
  Q 337.22 325.45 337.55 325.48
  C 345.15 326.22 349.42 324.36 354.54 318.48
  C 357.69 314.86 357.78 310.09 362.13 307.05
  C 364.93 305.08 370.85 306.22 373.83 307.49
  A 2.75 2.70 -37.5 0 0 375.31 307.67
  C 382.26 306.60 384.62 302.06 388.33 296.28
  C 391.37 291.55 394.59 290.75 399.97 289.28
  A 7.46 7.10 -64.9 0 0 401.38 288.73
  Q 406.42 286.10 410.38 280.89
  A 3.67 3.64 -20.6 0 0 411.01 279.52
  C 412.26 274.06 410.10 269.23 405.20 266.49
  C 400.36 263.80 395.79 262.41 393.74 257.16
  A 3.89 3.88 -56.2 0 1 393.47 255.79
  C 393.45 251.48 393.25 247.64 390.44 244.36
  Q 386.82 240.13 381.36 237.84
  C 376.92 235.97 370.03 235.96 365.46 235.56
  C 356.00 234.73 354.68 226.94 348.28 222.15
  C 343.13 218.29 337.88 217.12 330.84 217.26
  C 323.56 217.40 316.13 217.20 309.50 213.55
  C 306.56 211.92 302.79 208.12 298.91 206.04
  C 292.76 202.74 289.15 200.70 283.01 202.48
  C 274.91 204.81 269.88 207.58 262.58 211.60
  C 258.79 213.69 252.55 213.16 248.30 212.59
  C 240.39 211.52 233.80 212.13 228.05 217.08
  A 4.64 4.56 82.9 0 0 226.94 218.53
  C 225.64 221.17 224.77 223.64 223.10 225.39
  C 220.00 228.65 213.89 231.70 209.84 228.85
  Q 201.13 222.70 191.16 225.64
  Q 186.76 226.93 184.30 228.64
  C 180.90 230.99 179.43 234.98 177.97 239.00
  A 3.33 3.31 81.9 0 1 176.84 240.52
  C 172.04 244.10 168.55 243.50 161.53 243.49
  A 8.07 7.66 -49.7 0 0 159.86 243.67
  Q 153.18 245.09 147.57 249.36
  C 143.27 252.64 140.25 257.12 136.51 261.25
  Q 132.47 265.71 129.97 266.91
  Q 125.98 268.81 120.05 269.66
  C 112.82 270.70 105.40 273.67 101.97 280.37
  Q 100.59 283.07 100.57 287.85
  C 100.55 292.77 100.55 300.01 98.78 303.52
  Q 98.77 303.55 95.12 311.78
  C 93.88 314.56 92.82 318.86 93.10 321.02
  Q 94.04 328.42 93.74 334.25
  Q 93.54 338.29 92.65 339.90
  C 89.83 345.03 83.99 354.78 86.80 359.96
  C 89.72 365.37 92.92 370.84 92.32 375.34
  C 91.52 381.41 88.84 387.31 92.36 393.64
  C 94.10 396.74 96.16 399.85 99.01 402.15
  A 4.90 4.88 -23.4 0 0 101.73 403.22
  C 108.02 403.66 115.72 403.82 120.20 406.57
  C 124.76 409.37 127.33 411.40 131.93 409.16
  C 137.89 406.25 140.49 401.73 144.52 396.50
  C 149.00 390.70 156.89 394.96 162.85 393.44
  C 168.50 392.00 170.89 389.10 174.37 383.74
  A 3.97 3.93 -1.1 0 1 175.39 382.69
  C 179.22 380.01 181.93 380.49 186.03 381.64
  A 8.20 8.16 -20.7 0 1 188.24 382.63
  C 192.73 385.54 194.85 386.78 199.83 384.65
  A 2.44 2.39 -78.5 0 0 200.64 384.10
  Z
  M 432.81 273.19
  C 429.85 273.71 427.93 273.51 426.64 276.89
  Q 425.85 278.99 425.73 280.24
  Q 425.14 286.58 422.96 289.77
  Q 421.20 292.35 415.36 297.82
  C 412.40 300.60 406.43 303.32 403.54 304.61
  C 401.34 305.59 398.90 307.40 398.06 309.11
  Q 393.21 319.05 383.12 321.56
  C 379.39 322.49 376.43 322.16 372.08 322.20
  A 1.43 1.41 21.3 0 0 371.04 322.65
  Q 367.51 326.33 365.50 330.72
  C 364.60 339.51 365.75 344.79 373.73 349.28
  C 379.67 352.62 391.27 356.35 392.27 364.51
  C 392.74 368.36 392.19 372.90 393.07 376.57
  C 394.61 382.97 397.71 391.11 404.89 392.15
  A 4.01 3.92 -45.6 0 0 406.23 392.12
  C 411.96 390.97 416.23 389.97 421.00 389.85
  C 425.52 389.74 428.09 391.27 431.57 394.68
  C 435.33 398.37 438.89 402.15 443.40 404.09
  Q 451.71 407.68 459.61 403.63
  C 462.67 402.06 465.79 398.19 468.68 395.42
  C 471.26 392.94 476.78 392.12 480.27 391.58
  C 486.41 390.63 492.12 386.77 496.25 382.43
  Q 500.14 378.35 501.34 372.59
  C 501.89 369.95 501.28 366.21 501.05 363.99
  C 500.51 358.56 502.21 353.59 505.65 349.40
  C 509.74 344.43 512.06 340.62 513.71 334.76
  C 516.99 323.03 502.50 317.42 496.36 311.22
  C 492.62 307.45 492.53 303.63 491.48 298.26
  Q 490.46 293.02 487.39 289.06
  C 483.04 283.46 477.48 283.90 470.57 284.21
  C 463.94 284.51 454.66 286.50 449.41 281.10
  C 444.93 276.51 439.41 272.58 432.81 273.19
  Z
  M 147.95 423.69
  L 148.82 437.68
  A 3.75 3.75 0.0 0 0 150.77 440.74
  Q 162.04 446.90 167.52 459.56
  Q 167.99 460.26 169.09 459.87
  C 175.88 457.48 183.49 454.40 190.11 453.26
  Q 203.52 450.95 219.01 453.00
  Q 229.87 454.45 240.59 461.38
  Q 259.00 473.28 259.65 494.05
  Q 259.87 501.20 259.03 511.51
  A 0.81 0.80 15.3 0 0 259.48 512.29
  Q 260.92 512.99 262.43 513.04
  L 276.96 513.66
  A 2.15 1.83 49.5 0 1 277.40 513.73
  Q 281.23 514.75 285.05 514.15
  C 289.03 513.52 292.22 513.48 295.95 513.45
  L 303.52 513.21
  A 0.91 0.91 0.0 0 0 304.35 511.98
  C 303.79 510.46 303.08 509.15 302.93 507.23
  Q 302.06 496.06 302.40 492.73
  C 303.60 480.70 309.01 470.18 317.73 461.73
  Q 323.36 456.27 325.04 454.99
  C 340.71 443.02 362.39 442.33 380.92 447.09
  Q 387.91 448.89 397.85 454.82
  Q 399.31 458.08 399.39 461.07
  C 399.52 466.10 396.28 468.80 391.46 468.51
  Q 390.07 468.43 386.07 465.59
  C 378.75 460.39 366.78 459.09 357.23 459.15
  C 342.56 459.25 331.60 467.59 323.23 479.27
  Q 318.61 485.72 316.80 495.44
  C 316.21 498.61 316.92 500.40 317.64 503.64
  C 319.74 513.19 327.81 519.75 336.67 522.72
  C 357.80 529.81 381.11 529.53 403.22 526.65
  Q 419.33 524.56 435.67 518.42
  Q 452.62 512.05 460.89 497.54
  C 464.91 490.51 468.34 482.05 468.62 474.18
  C 469.21 457.48 463.68 439.51 455.68 424.80
  Q 454.23 421.52 450.98 421.00
  C 440.80 419.40 434.87 418.52 427.42 411.98
  Q 421.66 406.91 421.29 406.62
  C 418.43 404.37 416.72 405.25 413.84 406.23
  A 12.15 12.00 -54.2 0 1 410.15 406.85
  Q 399.95 406.95 399.30 406.83
  Q 392.41 405.53 387.50 399.38
  Q 379.99 389.97 378.77 380.74
  Q 378.22 376.48 378.02 371.48
  Q 377.89 368.06 374.78 366.72
  C 365.35 362.66 358.11 358.55 353.13 349.22
  C 351.84 346.80 351.44 344.20 350.70 340.99
  A 1.29 1.29 0.0 0 0 349.20 340.00
  C 343.63 341.06 339.88 340.81 331.39 340.81
  A 1.86 1.84 -76.2 0 0 329.75 341.81
  C 327.94 345.26 327.42 346.89 325.32 349.37
  C 317.12 359.05 304.99 359.98 293.21 357.66
  A 1.41 1.41 0.0 0 0 291.65 358.46
  Q 290.82 360.28 288.80 362.66
  Q 282.35 370.28 270.58 373.19
  Q 264.75 374.63 258.75 372.25
  A 3.95 3.95 0.0 0 0 254.48 373.16
  Q 252.40 375.29 248.18 379.17
  C 244.31 382.74 238.89 384.04 233.55 384.02
  C 227.91 383.99 223.60 384.40 220.60 383.19
  A 1.51 1.51 0.0 0 0 218.69 383.88
  L 214.02 392.79
  A 1.84 1.69 83.7 0 1 213.66 393.28
  Q 209.33 397.45 202.90 399.95
  A 2.50 2.39 33.0 0 1 202.00 400.12
  L 190.14 400.12
  A 1.55 1.45 53.2 0 1 189.63 400.03
  L 185.60 398.55
  A 2.41 2.39 -54.4 0 0 183.24 398.95
  C 178.48 402.86 175.40 405.64 169.93 407.42
  Q 163.15 409.64 156.80 409.39
  A 3.52 3.51 -67.9 0 0 154.06 410.55
  L 146.72 418.70
  A 0.63 0.63 0.0 0 0 146.58 419.32
  L 147.95 423.69
  Z
  M 134.36 428.52
  Q 134.06 425.08 130.44 424.76
  Q 119.92 423.84 118.61 423.28
  Q 117.01 422.60 112.36 419.30
  A 2.86 2.85 60.8 0 0 110.54 418.78
  Q 102.29 419.29 94.69 417.37
  Q 93.05 415.53 90.77 416.37
  C 88.79 417.10 87.07 419.78 86.74 421.77
  C 86.01 426.26 84.65 432.56 80.34 434.34
  C 74.61 436.70 66.51 443.42 66.87 450.29
  C 67.17 456.22 67.95 462.65 66.01 467.51
  C 63.09 474.82 59.81 481.63 65.93 488.06
  C 70.58 492.94 77.21 495.27 78.47 504.26
  C 79.13 508.98 81.04 515.33 86.22 517.09
  Q 87.75 517.61 91.39 517.65
  Q 98.03 517.72 102.97 519.30
  A 8.04 7.80 69.6 0 1 104.84 520.19
  C 108.30 522.40 113.01 525.41 116.49 524.66
  Q 120.37 523.83 125.80 521.04
  Q 138.18 514.71 141.55 512.78
  Q 143.32 511.76 143.40 509.89
  C 143.93 497.84 143.96 489.94 148.19 481.44
  C 151.76 474.26 155.61 467.51 151.18 460.33
  C 149.05 456.88 142.72 453.26 139.90 450.84
  Q 134.15 445.92 134.30 438.32
  Q 134.38 433.63 134.36 428.52
  Z
  M 245.28 495.11
  C 244.51 489.87 241.93 481.51 237.62 477.86
  Q 225.65 467.73 210.83 466.31
  C 201.04 465.37 189.40 467.90 180.33 471.81
  C 172.52 475.18 164.10 481.95 161.62 490.38
  Q 159.47 497.68 159.82 505.93
  C 160.27 516.51 167.67 520.73 176.21 524.88
  Q 181.74 527.57 184.95 528.90
  C 191.83 531.73 199.58 531.72 207.15 531.21
  Q 225.28 529.98 238.37 516.58
  C 243.91 510.90 246.44 502.93 245.28 495.11
  Z"
/>
<path fill="#ffffff" d="
  M 211.37 212.15
  A 0.88 0.86 79.0 0 1 210.48 211.54
  Q 210.09 210.29 209.55 206.60
  C 208.72 200.87 205.49 195.41 201.65 190.60
  C 192.38 178.99 172.61 181.55 161.65 188.21
  Q 158.33 190.24 152.89 194.49
  C 147.11 199.01 143.85 200.17 136.39 203.89
  C 129.29 207.43 126.59 215.63 127.69 223.26
  C 128.57 229.30 130.70 234.23 133.31 239.86
  A 1.34 1.33 51.7 0 1 133.16 241.22
  C 130.10 245.28 123.81 254.03 118.77 254.49
  C 110.59 255.25 102.80 253.46 98.62 246.14
  Q 97.84 244.76 98.42 242.39
  C 100.27 234.90 102.45 227.32 98.45 222.17
  C 94.62 217.25 86.31 213.64 89.15 204.70
  Q 90.82 199.46 92.44 196.69
  Q 95.59 191.29 95.96 190.43
  Q 99.10 183.22 97.42 176.06
  Q 95.08 166.08 96.58 157.54
  A 4.57 4.48 -25.4 0 1 97.12 156.07
  Q 101.52 148.62 108.89 145.39
  Q 111.59 144.20 117.58 143.52
  C 123.19 142.89 128.92 142.04 133.11 138.11
  Q 133.39 137.85 142.12 128.90
  Q 144.09 126.88 148.39 125.67
  C 155.95 123.55 162.47 125.07 169.23 128.95
  C 175.28 132.43 182.39 133.52 188.47 131.86
  C 193.62 130.45 201.21 129.01 206.78 130.48
  C 210.21 131.38 213.38 137.40 214.32 140.44
  C 215.09 142.95 215.59 146.32 216.96 148.68
  C 219.72 153.48 224.29 155.64 229.28 157.78
  C 235.67 160.52 236.54 165.76 235.24 172.01
  C 233.95 178.23 234.17 183.59 235.65 190.48
  Q 236.78 195.80 231.43 197.95
  Q 224.68 200.65 220.22 203.82
  C 217.35 205.85 214.78 209.15 212.35 211.58
  Q 211.80 212.12 211.37 212.15
  Z"
/>
<path fill="#b10d13" d="
  M 194.46 209.02
  A 0.75 0.75 0.0 0 1 193.81 209.96
  C 181.96 211.25 172.10 215.04 166.97 226.31
  C 165.93 228.58 161.50 228.20 157.96 228.31
  A 10.47 10.28 -55.3 0 0 154.73 228.93
  L 148.37 231.20
  A 2.07 2.06 -38.3 0 1 146.54 230.99
  C 143.83 229.23 142.86 224.44 142.65 221.22
  Q 142.45 218.18 144.33 216.87
  C 146.60 215.27 150.02 214.14 153.77 212.56
  A 10.94 10.64 -73.4 0 0 155.83 211.41
  Q 160.12 208.40 165.32 204.07
  C 168.06 201.79 170.98 199.84 174.56 198.93
  Q 176.37 198.48 182.62 197.07
  A 2.19 2.13 48.7 0 1 183.90 197.17
  Q 192.15 200.33 194.46 209.02
  Z"
/>
<path fill="#d43945" d="
  M 199.83 384.65
  C 194.85 386.78 192.73 385.54 188.24 382.63
  A 8.20 8.16 -20.7 0 0 186.03 381.64
  C 181.93 380.49 179.22 380.01 175.39 382.69
  A 3.97 3.93 -1.1 0 0 174.37 383.74
  C 170.89 389.10 168.50 392.00 162.85 393.44
  C 156.89 394.96 149.00 390.70 144.52 396.50
  C 140.49 401.73 137.89 406.25 131.93 409.16
  C 127.33 411.40 124.76 409.37 120.20 406.57
  C 115.72 403.82 108.02 403.66 101.73 403.22
  A 4.90 4.88 -23.4 0 1 99.01 402.15
  C 96.16 399.85 94.10 396.74 92.36 393.64
  C 88.84 387.31 91.52 381.41 92.32 375.34
  C 92.92 370.84 89.72 365.37 86.80 359.96
  C 83.99 354.78 89.83 345.03 92.65 339.90
  Q 93.54 338.29 93.74 334.25
  Q 94.04 328.42 93.10 321.02
  C 92.82 318.86 93.88 314.56 95.12 311.78
  Q 98.77 303.55 98.78 303.52
  C 100.55 300.01 100.55 292.77 100.57 287.85
  Q 100.59 283.07 101.97 280.37
  C 105.40 273.67 112.82 270.70 120.05 269.66
  Q 125.98 268.81 129.97 266.91
  Q 132.47 265.71 136.51 261.25
  C 140.25 257.12 143.27 252.64 147.57 249.36
  Q 153.18 245.09 159.86 243.67
  A 8.07 7.66 -49.7 0 1 161.53 243.49
  C 168.55 243.50 172.04 244.10 176.84 240.52
  A 3.33 3.31 81.9 0 0 177.97 239.00
  C 179.43 234.98 180.90 230.99 184.30 228.64
  Q 186.76 226.93 191.16 225.64
  Q 201.13 222.70 209.84 228.85
  C 213.89 231.70 220.00 228.65 223.10 225.39
  C 224.77 223.64 225.64 221.17 226.94 218.53
  A 4.64 4.56 82.9 0 1 228.05 217.08
  C 233.80 212.13 240.39 211.52 248.30 212.59
  C 252.55 213.16 258.79 213.69 262.58 211.60
  C 269.88 207.58 274.91 204.81 283.01 202.48
  C 289.15 200.70 292.76 202.74 298.91 206.04
  C 302.79 208.12 306.56 211.92 309.50 213.55
  C 316.13 217.20 323.56 217.40 330.84 217.26
  C 337.88 217.12 343.13 218.29 348.28 222.15
  C 354.68 226.94 356.00 234.73 365.46 235.56
  C 370.03 235.96 376.92 235.97 381.36 237.84
  Q 386.82 240.13 390.44 244.36
  C 393.25 247.64 393.45 251.48 393.47 255.79
  A 3.89 3.88 -56.2 0 0 393.74 257.16
  C 395.79 262.41 400.36 263.80 405.20 266.49
  C 410.10 269.23 412.26 274.06 411.01 279.52
  A 3.67 3.64 -20.6 0 1 410.38 280.89
  Q 406.42 286.10 401.38 288.73
  A 7.46 7.10 -64.9 0 1 399.97 289.28
  C 394.59 290.75 391.37 291.55 388.33 296.28
  C 384.62 302.06 382.26 306.60 375.31 307.67
  A 2.75 2.70 -37.5 0 1 373.83 307.49
  C 370.85 306.22 364.93 305.08 362.13 307.05
  C 357.78 310.09 357.69 314.86 354.54 318.48
  C 349.42 324.36 345.15 326.22 337.55 325.48
  Q 337.22 325.45 326.80 324.17
  Q 322.98 323.70 319.90 326.35
  A 2.87 2.86 -9.1 0 0 319.13 327.41
  Q 318.21 329.59 314.88 336.28
  Q 309.45 347.18 297.64 342.90
  C 291.48 340.67 284.71 336.90 280.74 345.42
  C 277.84 351.66 274.79 356.59 267.71 358.40
  C 264.11 359.32 259.59 356.19 255.92 354.14
  A 3.61 3.56 64.8 0 0 254.86 353.75
  C 249.22 352.71 245.86 353.90 243.70 359.43
  C 241.11 366.03 236.44 370.10 229.07 369.65
  A 6.45 6.11 -31.5 0 1 227.28 369.27
  Q 223.54 367.85 221.09 366.56
  Q 217.18 364.51 215.25 364.59
  C 210.54 364.79 207.74 366.21 206.58 371.10
  C 205.21 376.89 204.38 380.35 200.64 384.10
  A 2.44 2.39 -78.5 0 1 199.83 384.65
  Z
  M 292.13 216.19
  A 3.09 3.09 0.0 0 0 289.04 213.10
  A 3.09 3.09 0.0 0 0 285.95 216.19
  A 3.09 3.09 0.0 0 0 289.04 219.28
  A 3.09 3.09 0.0 0 0 292.13 216.19
  Z
  M 316.20 224.72
  A 3.40 3.40 0.0 0 0 312.80 221.32
  A 3.40 3.40 0.0 0 0 309.40 224.72
  A 3.40 3.40 0.0 0 0 312.80 228.12
  A 3.40 3.40 0.0 0 0 316.20 224.72
  Z
  M 261.0639 227.7266
  A 4.01 3.40 8.7 0 0 257.6143 223.7591
  A 4.01 3.40 8.7 0 0 253.1361 226.5134
  A 4.01 3.40 8.7 0 0 256.5857 230.4809
  A 4.01 3.40 8.7 0 0 261.0639 227.7266
  Z
  M 288.6457 232.3950
  A 4.37 3.46 -13.7 0 0 283.5805 230.0684
  A 4.37 3.46 -13.7 0 0 280.1543 234.4650
  A 4.37 3.46 -13.7 0 0 285.2195 236.7916
  A 4.37 3.46 -13.7 0 0 288.6457 232.3950
  Z
  M 322.8009 232.2299
  A 3.60 3.29 -21.0 0 0 318.2610 230.4485
  A 3.60 3.29 -21.0 0 0 316.0791 234.8101
  A 3.60 3.29 -21.0 0 0 320.6190 236.5915
  A 3.60 3.29 -21.0 0 0 322.8009 232.2299
  Z
  M 219.06 238.28
  A 3.21 3.21 0.0 0 0 215.85 235.07
  A 3.21 3.21 0.0 0 0 212.64 238.28
  A 3.21 3.21 0.0 0 0 215.85 241.49
  A 3.21 3.21 0.0 0 0 219.06 238.28
  Z
  M 239.3887 240.1576
  A 5.21 3.57 -23.2 0 0 233.1936 238.9287
  A 5.21 3.57 -23.2 0 0 229.8113 244.2624
  A 5.21 3.57 -23.2 0 0 236.0064 245.4913
  A 5.21 3.57 -23.2 0 0 239.3887 240.1576
  Z
  M 346.84 241.98
  A 3.42 3.42 0.0 0 0 343.42 238.56
  A 3.42 3.42 0.0 0 0 340.00 241.98
  A 3.42 3.42 0.0 0 0 343.42 245.40
  A 3.42 3.42 0.0 0 0 346.84 241.98
  Z
  M 192.27 245.97
  A 3.15 3.15 0.0 0 0 189.12 242.82
  A 3.15 3.15 0.0 0 0 185.97 245.97
  A 3.15 3.15 0.0 0 0 189.12 249.12
  A 3.15 3.15 0.0 0 0 192.27 245.97
  Z
  M 300.77 246.51
  A 3.06 3.06 0.0 0 0 297.71 243.45
  A 3.06 3.06 0.0 0 0 294.65 246.51
  A 3.06 3.06 0.0 0 0 297.71 249.57
  A 3.06 3.06 0.0 0 0 300.77 246.51
  Z
  M 230.8046 246.6722
  A 4.48 3.47 -27.2 0 0 225.2339 245.6337
  A 4.48 3.47 -27.2 0 0 222.8354 250.7678
  A 4.48 3.47 -27.2 0 0 228.4061 251.8063
  A 4.48 3.47 -27.2 0 0 230.8046 246.6722
  Z
  M 374.54 249.79
  A 3.08 3.08 0.0 0 0 371.46 246.71
  A 3.08 3.08 0.0 0 0 368.38 249.79
  A 3.08 3.08 0.0 0 0 371.46 252.87
  A 3.08 3.08 0.0 0 0 374.54 249.79
  Z
  M 339.79 250.62
  A 3.33 3.33 0.0 0 0 336.46 247.29
  A 3.33 3.33 0.0 0 0 333.13 250.62
  A 3.33 3.33 0.0 0 0 336.46 253.95
  A 3.33 3.33 0.0 0 0 339.79 250.62
  Z
  M 275.2767 259.0911
  A 3.50 3.26 115.8 0 0 279.7350 257.3589
  A 3.50 3.26 115.8 0 0 278.3233 252.7889
  A 3.50 3.26 115.8 0 0 273.8650 254.5211
  A 3.50 3.26 115.8 0 0 275.2767 259.0911
  Z
  M 180.4848 260.3498
  A 3.54 3.31 115.7 0 0 185.0026 258.5954
  A 3.54 3.31 115.7 0 0 183.5552 253.9702
  A 3.54 3.31 115.7 0 0 179.0374 255.7246
  A 3.54 3.31 115.7 0 0 180.4848 260.3498
  Z
  M 163.24 257.33
  A 3.10 3.10 0.0 0 0 160.14 254.23
  A 3.10 3.10 0.0 0 0 157.04 257.33
  A 3.10 3.10 0.0 0 0 160.14 260.43
  A 3.10 3.10 0.0 0 0 163.24 257.33
  Z
  M 391.3333 256.6190
  A 5.05 3.53 -32.2 0 0 385.1789 256.3229
  A 5.05 3.53 -32.2 0 0 382.7867 262.0010
  A 5.05 3.53 -32.2 0 0 388.9411 262.2971
  A 5.05 3.53 -32.2 0 0 391.3333 256.6190
  Z
  M 246.0135 258.6438
  A 3.50 3.29 -44.8 0 0 241.2118 258.7755
  A 3.50 3.29 -44.8 0 0 241.0465 263.5762
  A 3.50 3.29 -44.8 0 0 245.8482 263.4445
  A 3.50 3.29 -44.8 0 0 246.0135 258.6438
  Z
  M 299.1459 265.8492
  A 4.39 3.43 -17.1 0 0 293.9414 263.8616
  A 4.39 3.43 -17.1 0 0 290.7541 268.4308
  A 4.39 3.43 -17.1 0 0 295.9586 270.4184
  A 4.39 3.43 -17.1 0 0 299.1459 265.8492
  Z
  M 206.0213 268.3102
  A 3.54 3.29 -7.3 0 0 202.0920 265.4967
  A 3.54 3.29 -7.3 0 0 198.9987 269.2098
  A 3.54 3.29 -7.3 0 0 202.9280 272.0233
  A 3.54 3.29 -7.3 0 0 206.0213 268.3102
  Z
  M 336.0492 273.4353
  A 3.92 3.37 125.4 0 0 341.0670 272.1922
  A 3.92 3.37 125.4 0 0 340.5908 267.0447
  A 3.92 3.37 125.4 0 0 335.5730 268.2878
  A 3.92 3.37 125.4 0 0 336.0492 273.4353
  Z
  M 214.8493 272.3070
  A 3.48 3.17 -4.5 0 0 211.1313 269.4198
  A 3.48 3.17 -4.5 0 0 207.9107 272.8530
  A 3.48 3.17 -4.5 0 0 211.6287 275.7402
  A 3.48 3.17 -4.5 0 0 214.8493 272.3070
  Z
  M 367.3184 272.5914
  A 3.51 3.26 -42.0 0 0 362.5286 272.5173
  A 3.51 3.26 -42.0 0 0 362.1016 277.2886
  A 3.51 3.26 -42.0 0 0 366.8914 277.3627
  A 3.51 3.26 -42.0 0 0 367.3184 272.5914
  Z
  M 168.3865 274.0283
  A 3.49 3.25 -34.2 0 0 163.6732 273.3020
  A 3.49 3.25 -34.2 0 0 162.6135 277.9517
  A 3.49 3.25 -34.2 0 0 167.3268 278.6780
  A 3.49 3.25 -34.2 0 0 168.3865 274.0283
  Z
  M 315.66 277.46
  A 3.42 3.42 0.0 0 0 312.24 274.04
  A 3.42 3.42 0.0 0 0 308.82 277.46
  A 3.42 3.42 0.0 0 0 312.24 280.88
  A 3.42 3.42 0.0 0 0 315.66 277.46
  Z
  M 260.5066 280.8530
  A 3.46 3.25 20.7 0 0 258.4188 276.5898
  A 3.46 3.25 20.7 0 0 254.0334 278.4070
  A 3.46 3.25 20.7 0 0 256.1212 282.6702
  A 3.46 3.25 20.7 0 0 260.5066 280.8530
  Z
  M 120.5450 288.9438
  A 4.79 3.52 101.5 0 0 124.9493 284.9518
  A 4.79 3.52 101.5 0 0 122.4550 279.5562
  A 4.79 3.52 101.5 0 0 118.0507 283.5482
  A 4.79 3.52 101.5 0 0 120.5450 288.9438
  Z
  M 236.5456 282.1389
  A 3.48 3.24 -21.6 0 0 232.1173 280.4075
  A 3.48 3.24 -21.6 0 0 230.0744 284.7011
  A 3.48 3.24 -21.6 0 0 234.5027 286.4325
  A 3.48 3.24 -21.6 0 0 236.5456 282.1389
  Z
  M 145.3164 288.9211
  A 4.01 3.36 111.1 0 0 149.8947 286.3896
  A 4.01 3.36 111.1 0 0 148.2036 281.4389
  A 4.01 3.36 111.1 0 0 143.6253 283.9704
  A 4.01 3.36 111.1 0 0 145.3164 288.9211
  Z
  M 284.7071 291.2882
  A 4.59 3.46 134.6 0 0 290.3936 290.4494
  A 4.59 3.46 134.6 0 0 291.1529 284.7518
  A 4.59 3.46 134.6 0 0 285.4664 285.5906
  A 4.59 3.46 134.6 0 0 284.7071 291.2882
  Z
  M 196.9024 292.5951
  A 3.47 3.23 117.6 0 0 201.3724 291.0164
  A 3.47 3.23 117.6 0 0 200.1176 286.4449
  A 3.47 3.23 117.6 0 0 195.6476 288.0236
  A 3.47 3.23 117.6 0 0 196.9024 292.5951
  Z
  M 332.65 290.29
  A 3.39 3.39 0.0 0 0 329.26 286.90
  A 3.39 3.39 0.0 0 0 325.87 290.29
  A 3.39 3.39 0.0 0 0 329.26 293.68
  A 3.39 3.39 0.0 0 0 332.65 290.29
  Z
  M 375.16 291.70
  A 3.20 3.20 0.0 0 0 371.96 288.50
  A 3.20 3.20 0.0 0 0 368.76 291.70
  A 3.20 3.20 0.0 0 0 371.96 294.90
  A 3.20 3.20 0.0 0 0 375.16 291.70
  Z
  M 364.3800 291.1358
  A 3.60 3.30 -18.7 0 0 359.9120 289.1642
  A 3.60 3.30 -18.7 0 0 357.5600 293.4442
  A 3.60 3.30 -18.7 0 0 362.0280 295.4158
  A 3.60 3.30 -18.7 0 0 364.3800 291.1358
  Z
  M 185.1462 296.9476
  A 3.75 3.27 -7.7 0 0 180.9919 294.2095
  A 3.75 3.27 -7.7 0 0 177.7138 297.9524
  A 3.75 3.27 -7.7 0 0 181.8681 300.6905
  A 3.75 3.27 -7.7 0 0 185.1462 296.9476
  Z
  M 154.5891 300.9696
  A 3.51 3.30 1.3 0 0 151.1549 297.5908
  A 3.51 3.30 1.3 0 0 147.5709 300.8104
  A 3.51 3.30 1.3 0 0 151.0051 304.1892
  A 3.51 3.30 1.3 0 0 154.5891 300.9696
  Z
  M 115.9396 302.6395
  A 3.53 3.33 24.6 0 0 114.1162 298.1422
  A 3.53 3.33 24.6 0 0 109.5204 299.7005
  A 3.53 3.33 24.6 0 0 111.3438 304.1978
  A 3.53 3.33 24.6 0 0 115.9396 302.6395
  Z
  M 206.82 302.56
  A 2.99 2.99 0.0 0 0 203.83 299.57
  A 2.99 2.99 0.0 0 0 200.84 302.56
  A 2.99 2.99 0.0 0 0 203.83 305.55
  A 2.99 2.99 0.0 0 0 206.82 302.56
  Z
  M 240.9875 309.1852
  A 3.36 3.19 67.1 0 0 242.6186 304.8487
  A 3.36 3.19 67.1 0 0 238.3725 302.9948
  A 3.36 3.19 67.1 0 0 236.7414 307.3313
  A 3.36 3.19 67.1 0 0 240.9875 309.1852
  Z
  M 132.8777 305.2176
  A 4.17 3.37 -39.5 0 0 127.5164 305.2696
  A 4.17 3.37 -39.5 0 0 126.4423 310.5224
  A 4.17 3.37 -39.5 0 0 131.8036 310.4704
  A 4.17 3.37 -39.5 0 0 132.8777 305.2176
  Z
  M 216.67 310.97
  A 2.91 2.91 0.0 0 0 213.76 308.06
  A 2.91 2.91 0.0 0 0 210.85 310.97
  A 2.91 2.91 0.0 0 0 213.76 313.88
  A 2.91 2.91 0.0 0 0 216.67 310.97
  Z
  M 259.9205 312.0776
  A 4.34 3.42 3.8 0 0 255.8167 308.3775
  A 4.34 3.42 3.8 0 0 251.2595 311.5024
  A 4.34 3.42 3.8 0 0 255.3633 315.2025
  A 4.34 3.42 3.8 0 0 259.9205 312.0776
  Z
  M 332.5290 310.6266
  A 3.70 3.30 -44.5 0 0 327.5770 310.8663
  A 3.70 3.30 -44.5 0 0 327.2510 315.8134
  A 3.70 3.30 -44.5 0 0 332.2030 315.5737
  A 3.70 3.30 -44.5 0 0 332.5290 310.6266
  Z
  M 121.4755 325.4616
  A 4.23 3.42 73.3 0 0 123.5358 320.4272
  A 4.23 3.42 73.3 0 0 119.0445 317.3584
  A 4.23 3.42 73.3 0 0 116.9842 322.3928
  A 4.23 3.42 73.3 0 0 121.4755 325.4616
  Z
  M 281.9193 326.0873
  A 3.46 3.26 71.3 0 0 283.8979 321.7648
  A 3.46 3.26 71.3 0 0 279.7007 319.5327
  A 3.46 3.26 71.3 0 0 277.7221 323.8552
  A 3.46 3.26 71.3 0 0 281.9193 326.0873
  Z
  M 303.48 322.76
  A 2.97 2.97 0.0 0 0 300.51 319.79
  A 2.97 2.97 0.0 0 0 297.54 322.76
  A 2.97 2.97 0.0 0 0 300.51 325.73
  A 2.97 2.97 0.0 0 0 303.48 322.76
  Z
  M 225.8431 331.8568
  A 3.48 3.25 117.5 0 0 230.3328 330.2707
  A 3.48 3.25 117.5 0 0 229.0569 325.6832
  A 3.48 3.25 117.5 0 0 224.5672 327.2693
  A 3.48 3.25 117.5 0 0 225.8431 331.8568
  Z
  M 108.2364 335.4434
  A 4.87 3.51 110.1 0 0 113.2062 332.0762
  A 4.87 3.51 110.1 0 0 111.5836 326.2966
  A 4.87 3.51 110.1 0 0 106.6138 329.6638
  A 4.87 3.51 110.1 0 0 108.2364 335.4434
  Z
  M 171.9817 332.5147
  A 3.92 3.48 14.7 0 0 169.0731 328.1539
  A 3.92 3.48 14.7 0 0 164.3983 330.5253
  A 3.92 3.48 14.7 0 0 167.3069 334.8861
  A 3.92 3.48 14.7 0 0 171.9817 332.5147
  Z
  M 198.8239 334.5177
  A 3.47 3.19 -16.1 0 0 194.6054 332.4151
  A 3.47 3.19 -16.1 0 0 192.1561 336.4423
  A 3.47 3.19 -16.1 0 0 196.3746 338.5449
  A 3.47 3.19 -16.1 0 0 198.8239 334.5177
  Z
  M 180.0294 343.8132
  A 4.32 3.47 107.8 0 0 184.6539 340.7608
  A 4.32 3.47 107.8 0 0 182.6706 335.5868
  A 4.32 3.47 107.8 0 0 178.0461 338.6392
  A 4.32 3.47 107.8 0 0 180.0294 343.8132
  Z
  M 122.7863 341.6746
  A 3.50 3.28 133.6 0 0 127.5753 341.4020
  A 3.50 3.28 133.6 0 0 127.6137 336.6054
  A 3.50 3.28 133.6 0 0 122.8247 336.8780
  A 3.50 3.28 133.6 0 0 122.7863 341.6746
  Z
  M 159.68 339.09
  A 3.35 3.35 0.0 0 0 156.33 335.74
  A 3.35 3.35 0.0 0 0 152.98 339.09
  A 3.35 3.35 0.0 0 0 156.33 342.44
  A 3.35 3.35 0.0 0 0 159.68 339.09
  Z
  M 200.3773 345.2646
  A 3.80 3.38 18.8 0 0 197.8693 340.8403
  A 3.80 3.38 18.8 0 0 193.1827 342.8154
  A 3.80 3.38 18.8 0 0 195.6907 347.2397
  A 3.80 3.38 18.8 0 0 200.3773 345.2646
  Z
  M 124.76 352.31
  A 3.22 3.22 0.0 0 0 121.54 349.09
  A 3.22 3.22 0.0 0 0 118.32 352.31
  A 3.22 3.22 0.0 0 0 121.54 355.53
  A 3.22 3.22 0.0 0 0 124.76 352.31
  Z
  M 237.3142 351.6730
  A 3.96 3.39 -21.9 0 0 232.3756 350.0046
  A 3.96 3.39 -21.9 0 0 229.9658 354.6270
  A 3.96 3.39 -21.9 0 0 234.9044 356.2954
  A 3.96 3.39 -21.9 0 0 237.3142 351.6730
  Z
  M 145.6039 353.8179
  A 3.48 3.22 -42.3 0 0 140.8629 353.7784
  A 3.48 3.22 -42.3 0 0 140.4561 358.5021
  A 3.48 3.22 -42.3 0 0 145.1971 358.5416
  A 3.48 3.22 -42.3 0 0 145.6039 353.8179
  Z
  M 163.78 367.87
  A 3.09 3.09 0.0 0 0 160.69 364.78
  A 3.09 3.09 0.0 0 0 157.60 367.87
  A 3.09 3.09 0.0 0 0 160.69 370.96
  A 3.09 3.09 0.0 0 0 163.78 367.87
  Z
  M 182.0097 372.9062
  A 3.97 3.43 113.3 0 0 186.7303 370.6167
  A 3.97 3.43 113.3 0 0 185.1503 365.6138
  A 3.97 3.43 113.3 0 0 180.4297 367.9033
  A 3.97 3.43 113.3 0 0 182.0097 372.9062
  Z
  M 114.76 379.81
  Q 117.49 382.89 119.44 381.25
  Q 121.55 379.47 120.62 376.27
  Q 119.64 372.93 115.89 374.72
  Q 111.83 372.20 109.91 375.05
  Q 108.04 377.82 109.86 379.98
  Q 111.37 381.77 114.76 379.81
  Z
  M 141.93 385.19
  A 2.90 2.90 0.0 0 0 139.03 382.29
  A 2.90 2.90 0.0 0 0 136.13 385.19
  A 2.90 2.90 0.0 0 0 139.03 388.09
  A 2.90 2.90 0.0 0 0 141.93 385.19
  Z"
/>
<circle fill="#e6707c" cx="289.04" cy="216.19" r="3.09"/>
<circle fill="#b10d13" cx="312.80" cy="224.72" r="3.40"/>
<ellipse fill="#b10d13" cx="0.00" cy="0.00" transform="translate(257.10,227.12) rotate(8.7)" rx="4.01" ry="3.40"/>
<ellipse fill="#e6707c" cx="0.00" cy="0.00" transform="translate(284.40,233.43) rotate(-13.7)" rx="4.37" ry="3.46"/>
<ellipse fill="#e6707c" cx="0.00" cy="0.00" transform="translate(319.44,233.52) rotate(-21.0)" rx="3.60" ry="3.29"/>
<circle fill="#e6707c" cx="215.85" cy="238.28" r="3.21"/>
<ellipse fill="#b10d13" cx="0.00" cy="0.00" transform="translate(234.60,242.21) rotate(-23.2)" rx="5.21" ry="3.57"/>
<circle fill="#b10d13" cx="343.42" cy="241.98" r="3.42"/>
<circle fill="#b10d13" cx="189.12" cy="245.97" r="3.15"/>
<circle fill="#b10d13" cx="297.71" cy="246.51" r="3.06"/>
<ellipse fill="#e6707c" cx="0.00" cy="0.00" transform="translate(226.82,248.72) rotate(-27.2)" rx="4.48" ry="3.47"/>
<circle fill="#e6707c" cx="371.46" cy="249.79" r="3.08"/>
<circle fill="#e6707c" cx="336.46" cy="250.62" r="3.33"/>
<ellipse fill="#b10d13" cx="0.00" cy="0.00" transform="translate(276.80,255.94) rotate(115.8)" rx="3.50" ry="3.26"/>
<ellipse fill="#e6707c" cx="0.00" cy="0.00" transform="translate(182.02,257.16) rotate(115.7)" rx="3.54" ry="3.31"/>
<circle fill="#b10d13" cx="160.14" cy="257.33" r="3.10"/>
<ellipse fill="#b10d13" cx="0.00" cy="0.00" transform="translate(387.06,259.31) rotate(-32.2)" rx="5.05" ry="3.53"/>
<ellipse fill="#b10d13" cx="0.00" cy="0.00" transform="translate(243.53,261.11) rotate(-44.8)" rx="3.50" ry="3.29"/>
<ellipse fill="#e6707c" cx="0.00" cy="0.00" transform="translate(294.95,267.14) rotate(-17.1)" rx="4.39" ry="3.43"/>
<ellipse fill="#b10d13" cx="0.00" cy="0.00" transform="translate(202.51,268.76) rotate(-7.3)" rx="3.54" ry="3.29"/>
<ellipse fill="#b10d13" cx="0.00" cy="0.00" transform="translate(338.32,270.24) rotate(125.4)" rx="3.92" ry="3.37"/>
<ellipse fill="#e6707c" cx="0.00" cy="0.00" transform="translate(211.38,272.58) rotate(-4.5)" rx="3.48" ry="3.17"/>
<ellipse fill="#b10d13" cx="0.00" cy="0.00" transform="translate(364.71,274.94) rotate(-42.0)" rx="3.51" ry="3.26"/>
<ellipse fill="#b10d13" cx="0.00" cy="0.00" transform="translate(165.50,275.99) rotate(-34.2)" rx="3.49" ry="3.25"/>
<path fill="#fed8a6" d="
  M 365.50 330.72
  C 368.44 329.44 370.66 329.01 373.43 326.79
  A 3.37 3.36 -65.8 0 1 375.34 326.06
  Q 375.67 326.04 380.49 326.50
  C 389.99 327.40 400.17 322.21 402.81 312.65
  C 403.36 310.65 404.10 309.36 405.85 308.80
  C 417.22 305.18 431.32 296.69 431.55 282.96
  C 431.61 279.54 432.23 276.50 432.81 273.19
  C 439.41 272.58 444.93 276.51 449.41 281.10
  C 454.66 286.50 463.94 284.51 470.57 284.21
  C 477.48 283.90 483.04 283.46 487.39 289.06
  Q 490.46 293.02 491.48 298.26
  C 492.53 303.63 492.62 307.45 496.36 311.22
  C 502.50 317.42 516.99 323.03 513.71 334.76
  C 512.06 340.62 509.74 344.43 505.65 349.40
  C 502.21 353.59 500.51 358.56 501.05 363.99
  C 501.28 366.21 501.89 369.95 501.34 372.59
  Q 500.14 378.35 496.25 382.43
  C 492.12 386.77 486.41 390.63 480.27 391.58
  C 476.78 392.12 471.26 392.94 468.68 395.42
  C 465.79 398.19 462.67 402.06 459.61 403.63
  Q 451.71 407.68 443.40 404.09
  C 438.89 402.15 435.33 398.37 431.57 394.68
  C 428.09 391.27 425.52 389.74 421.00 389.85
  C 416.23 389.97 411.96 390.97 406.23 392.12
  A 4.01 3.92 -45.6 0 1 404.89 392.15
  C 397.71 391.11 394.61 382.97 393.07 376.57
  C 392.19 372.90 392.74 368.36 392.27 364.51
  C 391.27 356.35 379.67 352.62 373.73 349.28
  C 365.75 344.79 364.60 339.51 365.50 330.72
  Z"
/>
<path fill="#fdb76c" d="
  M 432.81 273.19
  C 432.23 276.50 431.61 279.54 431.55 282.96
  C 431.32 296.69 417.22 305.18 405.85 308.80
  C 404.10 309.36 403.36 310.65 402.81 312.65
  C 400.17 322.21 389.99 327.40 380.49 326.50
  Q 375.67 326.04 375.34 326.06
  A 3.37 3.36 -65.8 0 0 373.43 326.79
  C 370.66 329.01 368.44 329.44 365.50 330.72
  Q 367.51 326.33 371.04 322.65
  A 1.43 1.41 21.3 0 1 372.08 322.20
  C 376.43 322.16 379.39 322.49 383.12 321.56
  Q 393.21 319.05 398.06 309.11
  C 398.90 307.40 401.34 305.59 403.54 304.61
  C 406.43 303.32 412.40 300.60 415.36 297.82
  Q 421.20 292.35 422.96 289.77
  Q 425.14 286.58 425.73 280.24
  Q 425.85 278.99 426.64 276.89
  C 427.93 273.51 429.85 273.71 432.81 273.19
  Z"
/>
<circle fill="#b10d13" cx="312.24" cy="277.46" r="3.42"/>
<ellipse fill="#b10d13" cx="0.00" cy="0.00" transform="translate(257.27,279.63) rotate(20.7)" rx="3.46" ry="3.25"/>
<ellipse fill="#b10d13" cx="0.00" cy="0.00" transform="translate(121.50,284.25) rotate(101.5)" rx="4.79" ry="3.52"/>
<ellipse fill="#e6707c" cx="0.00" cy="0.00" transform="translate(233.31,283.42) rotate(-21.6)" rx="3.48" ry="3.24"/>
<ellipse fill="#e6707c" cx="0.00" cy="0.00" transform="translate(146.76,285.18) rotate(111.1)" rx="4.01" ry="3.36"/>
<ellipse fill="#b10d13" cx="0.00" cy="0.00" transform="translate(287.93,288.02) rotate(134.6)" rx="4.59" ry="3.46"/>
<ellipse fill="#e6707c" cx="0.00" cy="0.00" transform="translate(198.51,289.52) rotate(117.6)" rx="3.47" ry="3.23"/>
<circle fill="#e6707c" cx="329.26" cy="290.29" r="3.39"/>
<circle fill="#b10d13" cx="371.96" cy="291.70" r="3.20"/>
<ellipse fill="#e6707c" cx="0.00" cy="0.00" transform="translate(360.97,292.29) rotate(-18.7)" rx="3.60" ry="3.30"/>
<ellipse fill="#b10d13" cx="0.00" cy="0.00" transform="translate(181.43,297.45) rotate(-7.7)" rx="3.75" ry="3.27"/>
<ellipse fill="#b10d13" cx="0.00" cy="0.00" transform="translate(151.08,300.89) rotate(1.3)" rx="3.51" ry="3.30"/>
<ellipse fill="#e6707c" cx="0.00" cy="0.00" transform="translate(112.73,301.17) rotate(24.6)" rx="3.53" ry="3.33"/>
<circle fill="#e6707c" cx="203.83" cy="302.56" r="2.99"/>
<ellipse fill="#b10d13" cx="0.00" cy="0.00" transform="translate(239.68,306.09) rotate(67.1)" rx="3.36" ry="3.19"/>
<ellipse fill="#e6707c" cx="0.00" cy="0.00" transform="translate(129.66,307.87) rotate(-39.5)" rx="4.17" ry="3.37"/>
<circle fill="#b10d13" cx="213.76" cy="310.97" r="2.91"/>
<ellipse fill="#e6707c" cx="0.00" cy="0.00" transform="translate(255.59,311.79) rotate(3.8)" rx="4.34" ry="3.42"/>
<ellipse fill="#b10d13" cx="0.00" cy="0.00" transform="translate(329.89,313.22) rotate(-44.5)" rx="3.70" ry="3.30"/>
<ellipse fill="#b10d13" cx="0.00" cy="0.00" transform="translate(120.26,321.41) rotate(73.3)" rx="4.23" ry="3.42"/>
<ellipse fill="#b10d13" cx="0.00" cy="0.00" transform="translate(280.81,322.81) rotate(71.3)" rx="3.46" ry="3.26"/>
<circle fill="#e6707c" cx="300.51" cy="322.76" r="2.97"/>
<ellipse fill="#b10d13" cx="0.00" cy="0.00" transform="translate(227.45,328.77) rotate(117.5)" rx="3.48" ry="3.25"/>
<ellipse fill="#e6707c" cx="0.00" cy="0.00" transform="translate(109.91,330.87) rotate(110.1)" rx="4.87" ry="3.51"/>
<ellipse fill="#b10d13" cx="0.00" cy="0.00" transform="translate(168.19,331.52) rotate(14.7)" rx="3.92" ry="3.48"/>
<ellipse fill="#b10d13" cx="0.00" cy="0.00" transform="translate(195.49,335.48) rotate(-16.1)" rx="3.47" ry="3.19"/>
<ellipse fill="#b10d13" cx="0.00" cy="0.00" transform="translate(181.35,339.70) rotate(107.8)" rx="4.32" ry="3.47"/>
<ellipse fill="#b10d13" cx="0.00" cy="0.00" transform="translate(125.20,339.14) rotate(133.6)" rx="3.50" ry="3.28"/>
<circle fill="#e6707c" cx="156.33" cy="339.09" r="3.35"/>
<path fill="#fdb76c" d="
  M 455.68 424.80
  Q 451.48 424.84 447.22 424.92
  Q 429.19 425.26 418.25 411.50
  Q 416.43 409.21 416.33 409.09
  A 2.50 2.50 0.0 0 0 413.71 408.35
  Q 403.53 411.53 393.92 407.32
  C 382.82 402.45 370.95 389.15 370.32 376.51
  Q 370.03 370.88 369.99 370.26
  A 1.56 1.55 10.8 0 0 369.10 368.96
  C 366.85 367.90 363.43 367.03 360.94 365.62
  Q 348.85 358.77 344.90 345.17
  A 1.03 1.02 84.1 0 0 344.01 344.44
  L 335.02 343.61
  A 2.78 2.77 -70.6 0 0 332.43 344.86
  Q 329.01 350.04 324.96 354.72
  Q 312.95 368.59 295.17 362.38
  A 1.68 1.66 30.4 0 0 293.37 362.84
  Q 289.59 367.02 284.87 371.12
  C 276.60 378.29 266.85 380.49 256.37 376.79
  A 1.60 1.59 -58.0 0 0 254.71 377.18
  C 247.54 384.46 241.18 388.63 230.24 387.40
  Q 228.05 387.15 224.35 386.39
  A 1.44 1.43 14.6 0 0 222.69 387.36
  C 220.11 395.44 214.11 403.19 206.02 405.43
  C 199.93 407.11 194.69 405.98 189.07 403.69
  A 1.21 1.20 30.7 0 0 187.69 404.04
  Q 176.52 417.75 159.55 413.97
  A 2.32 2.30 29.3 0 0 157.45 414.55
  Q 153.31 418.55 148.39 420.03
  A 0.65 0.65 0.0 0 0 147.93 420.65
  L 147.95 423.69
  L 146.58 419.32
  A 0.63 0.63 0.0 0 1 146.72 418.70
  L 154.06 410.55
  A 3.52 3.51 -67.9 0 1 156.80 409.39
  Q 163.15 409.64 169.93 407.42
  C 175.40 405.64 178.48 402.86 183.24 398.95
  A 2.41 2.39 -54.4 0 1 185.60 398.55
  L 189.63 400.03
  A 1.55 1.45 53.2 0 0 190.14 400.12
  L 202.00 400.12
  A 2.50 2.39 33.0 0 0 202.90 399.95
  Q 209.33 397.45 213.66 393.28
  A 1.84 1.69 83.7 0 0 214.02 392.79
  L 218.69 383.88
  A 1.51 1.51 0.0 0 1 220.60 383.19
  C 223.60 384.40 227.91 383.99 233.55 384.02
  C 238.89 384.04 244.31 382.74 248.18 379.17
  Q 252.40 375.29 254.48 373.16
  A 3.95 3.95 0.0 0 1 258.75 372.25
  Q 264.75 374.63 270.58 373.19
  Q 282.35 370.28 288.80 362.66
  Q 290.82 360.28 291.65 358.46
  A 1.41 1.41 0.0 0 1 293.21 357.66
  C 304.99 359.98 317.12 359.05 325.32 349.37
  C 327.42 346.89 327.94 345.26 329.75 341.81
  A 1.86 1.84 -76.2 0 1 331.39 340.81
  C 339.88 340.81 343.63 341.06 349.20 340.00
  A 1.29 1.29 0.0 0 1 350.70 340.99
  C 351.44 344.20 351.84 346.80 353.13 349.22
  C 358.11 358.55 365.35 362.66 374.78 366.72
  Q 377.89 368.06 378.02 371.48
  Q 378.22 376.48 378.77 380.74
  Q 379.99 389.97 387.50 399.38
  Q 392.41 405.53 399.30 406.83
  Q 399.95 406.95 410.15 406.85
  A 12.15 12.00 -54.2 0 0 413.84 406.23
  C 416.72 405.25 418.43 404.37 421.29 406.62
  Q 421.66 406.91 427.42 411.98
  C 434.87 418.52 440.80 419.40 450.98 421.00
  Q 454.23 421.52 455.68 424.80
  Z"
/>
<ellipse fill="#e6707c" cx="0.00" cy="0.00" transform="translate(196.78,344.04) rotate(18.8)" rx="3.80" ry="3.38"/>
<path fill="#fed8a6" d="
  M 455.68 424.80
  C 463.68 439.51 469.21 457.48 468.62 474.18
  C 468.34 482.05 464.91 490.51 460.89 497.54
  Q 452.62 512.05 435.67 518.42
  Q 419.33 524.56 403.22 526.65
  C 381.11 529.53 357.80 529.81 336.67 522.72
  C 327.81 519.75 319.74 513.19 317.64 503.64
  C 316.92 500.40 316.21 498.61 316.80 495.44
  Q 318.61 485.72 323.23 479.27
  C 331.60 467.59 342.56 459.25 357.23 459.15
  C 366.78 459.09 378.75 460.39 386.07 465.59
  Q 390.07 468.43 391.46 468.51
  C 396.28 468.80 399.52 466.10 399.39 461.07
  Q 399.31 458.08 397.85 454.82
  Q 393.53 447.79 382.53 445.16
  C 374.95 443.36 365.93 440.77 358.28 440.60
  Q 327.14 439.91 306.96 464.20
  Q 298.70 474.16 295.49 485.25
  Q 291.49 499.06 295.95 513.45
  C 292.22 513.48 289.03 513.52 285.05 514.15
  Q 281.23 514.75 277.40 513.73
  A 2.15 1.83 49.5 0 0 276.96 513.66
  L 262.43 513.04
  Q 262.63 510.67 263.99 505.48
  Q 266.29 496.74 263.42 484.82
  C 258.17 463.01 240.51 448.78 218.50 446.74
  C 202.84 445.29 187.12 448.40 173.42 456.28
  Q 170.49 457.97 167.52 459.56
  Q 162.04 446.90 150.77 440.74
  A 3.75 3.75 0.0 0 1 148.82 437.68
  L 147.95 423.69
  L 147.93 420.65
  A 0.65 0.65 0.0 0 1 148.39 420.03
  Q 153.31 418.55 157.45 414.55
  A 2.32 2.30 29.3 0 1 159.55 413.97
  Q 176.52 417.75 187.69 404.04
  A 1.21 1.20 30.7 0 1 189.07 403.69
  C 194.69 405.98 199.93 407.11 206.02 405.43
  C 214.11 403.19 220.11 395.44 222.69 387.36
  A 1.44 1.43 14.6 0 1 224.35 386.39
  Q 228.05 387.15 230.24 387.40
  C 241.18 388.63 247.54 384.46 254.71 377.18
  A 1.60 1.59 -58.0 0 1 256.37 376.79
  C 266.85 380.49 276.60 378.29 284.87 371.12
  Q 289.59 367.02 293.37 362.84
  A 1.68 1.66 30.4 0 1 295.17 362.38
  Q 312.95 368.59 324.96 354.72
  Q 329.01 350.04 332.43 344.86
  A 2.78 2.77 -70.6 0 1 335.02 343.61
  L 344.01 344.44
  A 1.03 1.02 84.1 0 1 344.90 345.17
  Q 348.85 358.77 360.94 365.62
  C 363.43 367.03 366.85 367.90 369.10 368.96
  A 1.56 1.55 10.8 0 1 369.99 370.26
  Q 370.03 370.88 370.32 376.51
  C 370.95 389.15 382.82 402.45 393.92 407.32
  Q 403.53 411.53 413.71 408.35
  A 2.50 2.50 0.0 0 1 416.33 409.09
  Q 416.43 409.21 418.25 411.50
  Q 429.19 425.26 447.22 424.92
  Q 451.48 424.84 455.68 424.80
  Z
  M 233.68 412.12
  L 239.21 412.12
  A 1.67 1.65 70.7 0 1 240.51 412.75
  Q 243.29 416.23 240.23 419.99
  A 1.07 1.05 -69.6 0 1 239.42 420.37
  L 236.29 420.37
  A 1.59 1.58 -63.1 0 0 235.35 420.68
  Q 231.58 423.41 231.63 427.65
  A 2.74 2.74 0.0 0 0 231.80 428.60
  Q 233.45 433.26 238.95 433.71
  Q 246.99 434.37 251.89 428.60
  A 2.80 2.79 -59.6 0 1 254.99 427.79
  Q 258.45 429.09 262.91 428.90
  C 265.84 428.77 266.68 428.99 269.00 427.48
  Q 273.19 424.75 275.52 421.84
  A 1.27 1.26 63.9 0 0 275.78 421.07
  L 275.78 415.48
  A 1.87 1.84 -69.3 0 0 275.17 414.10
  L 272.12 411.35
  A 1.24 1.21 65.2 0 0 271.31 411.04
  L 267.52 411.04
  A 1.66 1.63 20.1 0 0 266.27 411.61
  Q 264.43 413.75 262.26 414.99
  A 2.40 2.39 -29.8 0 1 259.00 414.11
  L 256.90 410.48
  A 2.10 2.10 0.0 0 1 257.52 407.71
  Q 260.30 405.75 260.52 402.50
  Q 260.90 397.12 259.54 393.82
  A 2.25 2.23 -79.5 0 0 259.07 393.13
  Q 257.05 391.11 255.98 390.98
  Q 243.58 389.57 234.34 394.57
  Q 231.47 396.13 229.48 400.30
  A 1.87 1.87 0.0 0 0 229.30 401.10
  L 229.30 406.74
  A 1.24 1.20 -69.6 0 0 229.70 407.65
  L 234.02 411.54
  A 0.13 0.12 -32.9 0 1 233.97 411.75
  Q 233.79 411.80 233.65 411.83
  A 0.15 0.15 0.0 0 0 233.68 412.12
  Z"
/>
<circle fill="#e6707c" cx="121.54" cy="352.31" r="3.22"/>
<ellipse fill="#e6707c" cx="0.00" cy="0.00" transform="translate(233.64,353.15) rotate(-21.9)" rx="3.96" ry="3.39"/>
<ellipse fill="#e6707c" cx="0.00" cy="0.00" transform="translate(143.03,356.16) rotate(-42.3)" rx="3.48" ry="3.22"/>
<circle fill="#b10d13" cx="160.69" cy="367.87" r="3.09"/>
<ellipse fill="#e6707c" cx="0.00" cy="0.00" transform="translate(183.58,369.26) rotate(113.3)" rx="3.97" ry="3.43"/>
<path fill="#e6707c" d="
  M 115.89 374.72
  Q 116.44 377.75 114.76 379.81
  Q 111.37 381.77 109.86 379.98
  Q 108.04 377.82 109.91 375.05
  Q 111.83 372.20 115.89 374.72
  Z"
/>
<path fill="#b10d13" d="
  M 114.76 379.81
  Q 116.44 377.75 115.89 374.72
  Q 119.64 372.93 120.62 376.27
  Q 121.55 379.47 119.44 381.25
  Q 117.49 382.89 114.76 379.81
  Z"
/>
<circle fill="#b10d13" cx="139.03" cy="385.19" r="2.90"/>
<path fill="#000000" d="
  M 233.65 411.83
  Q 233.79 411.80 233.97 411.75
  A 0.13 0.12 -32.9 0 0 234.02 411.54
  L 229.70 407.65
  A 1.24 1.20 -69.6 0 1 229.30 406.74
  L 229.30 401.10
  A 1.87 1.87 0.0 0 1 229.48 400.30
  Q 231.47 396.13 234.34 394.57
  Q 243.58 389.57 255.98 390.98
  Q 257.05 391.11 259.07 393.13
  A 2.25 2.23 -79.5 0 1 259.54 393.82
  Q 260.90 397.12 260.52 402.50
  Q 260.30 405.75 257.52 407.71
  A 2.10 2.10 0.0 0 0 256.90 410.48
  L 259.00 414.11
  A 2.40 2.39 -29.8 0 0 262.26 414.99
  Q 264.43 413.75 266.27 411.61
  A 1.66 1.63 20.1 0 1 267.52 411.04
  L 271.31 411.04
  A 1.24 1.21 65.2 0 1 272.12 411.35
  L 275.17 414.10
  A 1.87 1.84 -69.3 0 1 275.78 415.48
  L 275.78 421.07
  A 1.27 1.26 63.9 0 1 275.52 421.84
  Q 273.19 424.75 269.00 427.48
  C 266.68 428.99 265.84 428.77 262.91 428.90
  Q 258.45 429.09 254.99 427.79
  A 2.80 2.79 -59.6 0 0 251.89 428.60
  Q 246.99 434.37 238.95 433.71
  Q 233.45 433.26 231.80 428.60
  A 2.74 2.74 0.0 0 1 231.63 427.65
  Q 231.58 423.41 235.35 420.68
  A 1.59 1.58 -63.1 0 1 236.29 420.37
  L 239.42 420.37
  A 1.07 1.05 -69.6 0 0 240.23 419.99
  Q 243.29 416.23 240.51 412.75
  A 1.67 1.65 70.7 0 0 239.21 412.12
  L 233.68 412.12
  A 0.15 0.15 0.0 0 1 233.65 411.83
  Z"
/>
<path fill="#fed8a6" d="
  M 94.69 417.37
  Q 99.68 424.16 109.35 421.44
  A 1.04 1.02 -32.0 0 1 110.32 421.65
  Q 118.23 428.57 128.76 429.40
  Q 131.36 429.60 134.36 428.52
  Q 134.38 433.63 134.30 438.32
  Q 134.15 445.92 139.90 450.84
  C 142.72 453.26 149.05 456.88 151.18 460.33
  C 155.61 467.51 151.76 474.26 148.19 481.44
  C 143.96 489.94 143.93 497.84 143.40 509.89
  Q 143.32 511.76 141.55 512.78
  Q 138.18 514.71 125.80 521.04
  Q 120.37 523.83 116.49 524.66
  C 113.01 525.41 108.30 522.40 104.84 520.19
  A 8.04 7.80 69.6 0 0 102.97 519.30
  Q 98.03 517.72 91.39 517.65
  Q 87.75 517.61 86.22 517.09
  C 81.04 515.33 79.13 508.98 78.47 504.26
  C 77.21 495.27 70.58 492.94 65.93 488.06
  C 59.81 481.63 63.09 474.82 66.01 467.51
  C 67.95 462.65 67.17 456.22 66.87 450.29
  C 66.51 443.42 74.61 436.70 80.34 434.34
  C 84.65 432.56 86.01 426.26 86.74 421.77
  C 87.07 419.78 88.79 417.10 90.77 416.37
  Q 93.05 415.53 94.69 417.37
  Z"
/>
<path fill="#fdb76c" d="
  M 134.36 428.52
  Q 131.36 429.60 128.76 429.40
  Q 118.23 428.57 110.32 421.65
  A 1.04 1.02 -32.0 0 0 109.35 421.44
  Q 99.68 424.16 94.69 417.37
  Q 102.29 419.29 110.54 418.78
  A 2.86 2.85 60.8 0 1 112.36 419.30
  Q 117.01 422.60 118.61 423.28
  Q 119.92 423.84 130.44 424.76
  Q 134.06 425.08 134.36 428.52
  Z"
/>
<path fill="#fdb76c" d="
  M 397.85 454.82
  Q 387.91 448.89 380.92 447.09
  C 362.39 442.33 340.71 443.02 325.04 454.99
  Q 323.36 456.27 317.73 461.73
  C 309.01 470.18 303.60 480.70 302.40 492.73
  Q 302.06 496.06 302.93 507.23
  C 303.08 509.15 303.79 510.46 304.35 511.98
  A 0.91 0.91 0.0 0 1 303.52 513.21
  L 295.95 513.45
  Q 291.49 499.06 295.49 485.25
  Q 298.70 474.16 306.96 464.20
  Q 327.14 439.91 358.28 440.60
  C 365.93 440.77 374.95 443.36 382.53 445.16
  Q 393.53 447.79 397.85 454.82
  Z"
/>
<path fill="#fdb76c" d="
  M 262.43 513.04
  Q 260.92 512.99 259.48 512.29
  A 0.81 0.80 15.3 0 1 259.03 511.51
  Q 259.87 501.20 259.65 494.05
  Q 259.00 473.28 240.59 461.38
  Q 229.87 454.45 219.01 453.00
  Q 203.52 450.95 190.11 453.26
  C 183.49 454.40 175.88 457.48 169.09 459.87
  Q 167.99 460.26 167.52 459.56
  Q 170.49 457.97 173.42 456.28
  C 187.12 448.40 202.84 445.29 218.50 446.74
  C 240.51 448.78 258.17 463.01 263.42 484.82
  Q 266.29 496.74 263.99 505.48
  Q 262.63 510.67 262.43 513.04
  Z"
/>
<path fill="#fed8a6" d="
  M 245.28 495.11
  C 246.44 502.93 243.91 510.90 238.37 516.58
  Q 225.28 529.98 207.15 531.21
  C 199.58 531.72 191.83 531.73 184.95 528.90
  Q 181.74 527.57 176.21 524.88
  C 167.67 520.73 160.27 516.51 159.82 505.93
  Q 159.47 497.68 161.62 490.38
  C 164.10 481.95 172.52 475.18 180.33 471.81
  C 189.40 467.90 201.04 465.37 210.83 466.31
  Q 225.65 467.73 237.62 477.86
  C 241.93 481.51 244.51 489.87 245.28 495.11
  Z"
/>
</svg>
