<?xml version="1.0" encoding="UTF-8" standalone="no"?>
<!DOCTYPE svg PUBLIC "-//W3C//DTD SVG 1.1//EN" "http://www.w3.org/Graphics/SVG/1.1/DTD/svg11.dtd">
<svg xmlns="http://www.w3.org/2000/svg" version="1.1" viewBox="0.00 0.00 332.00 543.00">
<g stroke-width="2.00" fill="none" stroke-linecap="butt">
<path stroke="#584880" vector-effect="non-scaling-stroke" d="
  M 139.16 179.97
  C 130.65 160.51 120.07 142.06 104.88 127.14
  C 96.66 119.07 87.67 114.43 76.34 113.18
  A 3.49 3.36 -46.1 0 0 75.30 113.22
  C 64.54 115.36 59.22 121.92 57.10 132.65
  Q 55.91 138.67 55.09 147.86
  Q 53.73 162.99 48.41 178.91
  C 46.74 183.93 42.54 190.90 40.83 195.60
  Q 35.42 210.51 43.01 223.25
  C 48.10 231.78 57.09 236.70 65.75 239.13
  C 70.71 240.52 75.38 240.87 80.29 242.19
  A 6.78 6.51 -35.8 0 0 81.99 242.43
  Q 96.28 242.60 98.51 242.35
  Q 110.11 241.09 121.90 238.60
  A 2.62 2.60 89.2 0 0 123.93 236.50
  Q 127.17 218.41 130.38 204.10
  Q 131.55 198.90 137.21 184.63
  C 137.77 183.24 139.13 181.94 139.29 180.97
  A 1.82 1.80 -52.6 0 0 139.16 179.97"
/>
<path stroke="#584880" vector-effect="non-scaling-stroke" d="
  M 186.62 248.55
  Q 195.23 254.05 206.70 259.19
  C 213.19 262.10 219.47 263.54 227.46 266.04
  Q 228.96 266.51 235.29 267.12
  A 8.17 7.91 -31.3 0 1 237.19 267.55
  Q 241.66 269.18 247.59 268.71
  C 250.61 268.47 253.47 267.14 256.48 266.75
  A 6.08 6.03 -60.3 0 0 258.21 266.27
  Q 263.56 263.93 264.34 263.35
  Q 272.34 257.37 275.44 248.20
  C 277.38 242.46 277.06 234.85 276.32 229.00
  C 274.87 217.42 273.90 211.72 274.65 202.93
  Q 275.87 188.45 279.47 175.48
  C 282.13 165.86 281.81 155.06 273.13 148.97
  Q 264.88 143.19 255.36 143.32
  C 252.34 143.36 250.20 144.65 247.22 145.15
  Q 244.48 145.62 241.23 147.02
  Q 222.46 155.12 207.28 169.04
  Q 197.42 178.08 188.47 188.19
  A 2.35 2.33 -15.9 0 0 187.97 189.08
  C 187.55 190.41 188.52 192.84 188.56 194.57
  Q 188.73 202.93 189.19 212.74
  Q 189.44 217.99 187.85 236.85
  Q 187.39 242.26 186.02 246.96
  A 1.43 1.42 -65.8 0 0 186.62 248.55"
/>
<path stroke="#806d46" vector-effect="non-scaling-stroke" d="
  M 173.64 193.12
  L 173.19 192.66
  A 1.82 1.79 -73.7 0 1 172.72 191.78
  Q 171.99 188.37 169.48 186.54
  C 167.54 185.12 162.16 182.38 159.30 183.54
  Q 153.06 186.06 150.60 192.36
  Q 146.22 203.56 144.43 211.72
  Q 142.14 222.13 138.07 247.26
  Q 135.85 260.96 136.44 268.84
  Q 137.48 282.68 140.24 293.13
  Q 141.66 298.51 145.18 301.71
  A 3.34 3.34 0.0 0 0 149.30 301.99
  C 154.23 298.63 156.56 293.94 159.52 287.84
  Q 166.65 273.12 169.63 257.08
  Q 173.58 235.76 174.98 212.50
  Q 175.17 209.48 175.10 204.55
  A 3.46 3.36 -54.5 0 0 174.97 203.69
  Q 173.96 200.20 174.38 195.19
  A 2.67 2.66 25.5 0 0 173.64 193.12"
/>
<path stroke="#584880" vector-effect="non-scaling-stroke" d="
  M 121.20 254.43
  C 118.56 254.31 115.46 255.79 112.99 255.90
  Q 110.86 255.99 107.32 256.47
  C 99.41 257.55 92.07 256.18 84.21 257.83
  C 72.94 260.20 63.59 262.53 56.03 267.56
  C 46.61 273.84 38.60 285.94 47.20 296.81
  Q 51.70 302.51 56.40 308.07
  C 61.16 313.72 63.43 320.73 65.77 326.98
  C 68.33 333.85 72.28 344.07 79.93 345.25
  C 88.44 346.57 95.09 343.09 101.49 337.49
  Q 116.50 324.38 127.69 307.44
  C 129.20 305.16 126.49 300.66 125.82 298.07
  Q 120.96 279.41 121.93 259.69
  Q 122.02 257.82 122.36 255.89
  A 1.24 1.24 0.0 0 0 121.20 254.43"
/>
<path stroke="#584880" vector-effect="non-scaling-stroke" d="
  M 184.49 265.37
  A 1.10 1.09 -77.8 0 0 183.18 266.22
  Q 179.68 282.33 171.92 297.42
  Q 167.81 305.41 165.42 308.08
  C 164.35 309.27 163.27 311.52 163.43 312.75
  Q 163.77 315.39 165.97 321.29
  Q 168.44 327.90 173.21 337.91
  C 178.54 349.10 184.60 361.49 196.67 364.60
  C 203.89 366.46 208.22 361.95 212.65 356.80
  Q 214.95 354.12 217.63 350.51
  C 222.25 344.27 227.01 339.68 233.81 335.23
  C 240.55 330.82 247.92 327.20 248.66 317.50
  Q 249.16 310.97 248.17 308.03
  Q 243.90 295.33 230.72 287.06
  Q 219.99 280.33 216.21 278.81
  Q 210.99 276.71 203.83 274.21
  C 197.61 272.04 191.64 268.85 185.57 265.66
  Q 185.43 265.58 184.49 265.37"
/>
<path stroke="#d7c8ff" vector-effect="non-scaling-stroke" d="
  M 49.77 201.94
  Q 46.23 201.25 45.59 204.90
  Q 43.66 215.98 51.78 224.53
  C 54.03 226.89 61.75 234.21 65.24 234.34
  C 69.42 234.49 70.00 229.62 67.27 227.84
  C 60.31 223.33 51.54 216.97 51.96 207.45
  Q 52.03 205.74 51.91 204.33
  A 2.67 2.65 -87.0 0 0 49.77 201.94"
/>
<path stroke="#d7c8ff" vector-effect="non-scaling-stroke" d="
  M 241.13 156.13
  C 242.06 158.78 244.07 158.87 246.45 157.89
  Q 249.92 156.46 251.89 155.90
  C 258.85 153.94 266.64 156.11 265.53 165.01
  Q 265.28 166.99 264.12 171.95
  A 3.50 3.49 14.7 0 0 266.56 176.11
  L 266.64 176.14
  A 3.61 3.61 0.0 0 0 271.02 173.91
  C 273.89 166.03 274.37 156.35 266.61 151.02
  C 259.87 146.40 249.58 148.19 243.10 152.17
  C 241.82 152.96 240.60 154.63 241.13 156.13"
/>
<path stroke="#d7c8ff" vector-effect="non-scaling-stroke" d="
  M 268.67 185.56
  A 3.09 3.09 0.0 0 0 265.58 182.47
  A 3.09 3.09 0.0 0 0 262.49 185.56
  A 3.09 3.09 0.0 0 0 265.58 188.65
  A 3.09 3.09 0.0 0 0 268.67 185.56"
/>
<path stroke="#d7c8ff" vector-effect="non-scaling-stroke" d="
  M 266.82 242.63
  A 3.23 3.23 0.0 0 0 262.09 243.48
  Q 257.44 250.97 252.55 254.03
  Q 249.16 256.15 243.07 255.99
  Q 235.46 255.79 227.24 255.22
  A 3.13 3.13 0.0 0 0 223.90 258.25
  L 223.89 258.34
  A 3.41 3.40 3.1 0 0 227.05 261.85
  Q 239.76 263.02 240.03 263.04
  Q 258.24 265.01 267.97 247.91
  A 4.04 4.03 33.9 0 0 266.95 242.73
  L 266.82 242.63"
/>
<path stroke="#ffecc5" vector-effect="non-scaling-stroke" d="
  M 164.35 193.38
  L 162.88 217.31
  A 1.56 1.56 0.0 0 0 164.35 218.97
  L 165.27 219.02
  A 7.05 4.51 -86.5 0 0 170.21 212.26
  L 171.00 199.29
  A 7.05 4.51 -86.5 0 0 166.93 191.97
  L 166.00 191.92
  A 1.56 1.56 0.0 0 0 164.35 193.38"
/>
<path stroke="#ffecc5" vector-effect="non-scaling-stroke" d="
  M 163.7432 230.2795
  A 3.02 2.66 127.7 0 0 167.6947 229.5167
  A 3.02 2.66 127.7 0 0 167.4368 225.5005
  A 3.02 2.66 127.7 0 0 163.4853 226.2633
  A 3.02 2.66 127.7 0 0 163.7432 230.2795"
/>
<path stroke="#d7c8ff" vector-effect="non-scaling-stroke" d="
  M 102.22 324.10
  L 102.15 324.01
  A 3.32 3.32 0.0 0 0 97.64 323.19
  Q 89.55 328.51 89.53 328.52
  Q 86.58 329.88 84.77 330.10
  A 2.71 2.70 70.1 0 1 82.16 328.87
  L 80.28 325.97
  A 1.04 1.00 88.1 0 0 79.91 325.61
  C 76.44 323.64 74.04 326.47 74.93 329.74
  C 77.09 337.75 86.12 338.21 92.47 334.86
  Q 98.91 331.46 101.89 328.46
  A 3.38 3.38 0.0 0 0 102.22 324.10"
/>
<path stroke="#d7c8ff" vector-effect="non-scaling-stroke" d="
  M 232.21 299.87
  Q 231.91 300.91 232.49 301.79
  C 235.77 306.73 236.90 313.35 232.18 317.94
  C 228.86 321.18 214.50 326.49 215.57 331.54
  Q 216.06 333.88 218.18 334.33
  C 220.48 334.81 223.22 332.40 225.10 330.98
  C 228.04 328.76 232.41 326.77 234.37 325.36
  C 242.95 319.23 244.40 309.37 239.78 300.56
  C 238.07 297.32 233.55 295.29 232.21 299.87"
/>
<path stroke="#d7c8ff" vector-effect="non-scaling-stroke" d="
  M 208.14 348.41
  A 2.75 2.75 0.0 0 0 205.39 345.66
  A 2.75 2.75 0.0 0 0 202.64 348.41
  A 2.75 2.75 0.0 0 0 205.39 351.16
  A 2.75 2.75 0.0 0 0 208.14 348.41"
/>
</g>
<path fill="#000000" d="
  M 52.94 250.78
  Q 50.44 249.58 44.75 246.07
  C 32.36 238.44 23.90 224.63 24.46 209.67
  Q 24.71 203.07 25.05 200.03
  C 26.41 188.12 33.88 177.87 37.27 166.50
  Q 40.66 155.12 41.63 142.98
  Q 42.26 135.06 43.15 130.18
  C 44.85 120.94 49.69 109.78 57.50 104.40
  Q 64.08 99.87 70.29 98.91
  C 88.77 96.04 105.44 106.14 117.94 118.86
  Q 127.80 128.90 136.16 141.93
  Q 144.97 155.67 149.61 166.66
  Q 150.86 169.62 151.78 169.76
  Q 153.49 170.02 155.69 168.89
  C 158.02 167.70 157.56 164.81 157.17 162.78
  Q 156.22 157.92 154.17 148.81
  C 152.67 142.12 150.50 137.32 147.81 131.95
  C 146.70 129.76 145.06 125.41 147.80 123.91
  Q 151.15 122.09 154.04 123.91
  C 156.37 125.38 159.26 129.73 160.34 132.28
  Q 163.44 139.60 165.00 148.40
  C 165.56 151.57 166.93 154.11 166.86 157.20
  A 0.79 0.79 0.0 0 0 168.39 157.51
  Q 172.64 146.57 179.77 137.82
  C 182.60 134.34 186.89 129.78 191.24 129.16
  A 2.39 2.31 -40.4 0 1 192.20 129.22
  Q 196.20 130.35 196.56 134.46
  C 196.71 136.22 195.03 138.50 193.44 140.00
  Q 187.67 145.47 185.40 149.17
  Q 178.86 159.81 177.12 163.64
  Q 176.45 165.11 174.52 170.29
  A 1.09 1.09 0.0 0 0 174.64 171.29
  C 177.14 174.91 179.60 175.62 182.53 172.14
  Q 200.15 151.24 224.15 137.70
  Q 233.97 132.16 244.58 129.92
  Q 249.83 128.82 259.07 128.87
  C 280.09 129.01 295.44 144.07 295.48 165.00
  Q 295.49 172.91 293.37 181.71
  Q 291.42 189.82 291.24 190.84
  Q 288.85 204.86 290.00 217.99
  Q 291.17 231.29 291.29 234.74
  C 291.87 251.23 286.27 265.51 273.08 275.79
  C 267.42 280.20 259.52 282.14 252.58 282.55
  Q 252.11 282.58 250.58 283.61
  A 0.49 0.49 0.0 0 0 250.55 284.41
  L 252.82 286.19
  A 2.19 2.11 2.8 0 1 253.28 286.68
  Q 256.83 291.94 257.28 292.71
  C 260.77 298.60 262.96 305.37 263.00 312.28
  C 263.04 320.36 261.97 329.58 256.61 335.90
  C 252.73 340.46 247.83 344.24 242.69 347.59
  Q 240.21 349.20 237.35 352.00
  C 234.65 354.65 232.78 356.45 230.96 358.74
  C 223.82 367.74 216.05 379.04 204.37 380.12
  Q 193.19 381.15 183.87 375.80
  C 172.46 369.24 166.42 359.35 160.65 347.09
  Q 154.57 334.17 149.29 320.18
  A 3.83 3.82 89.0 0 0 146.96 317.93
  Q 143.64 316.81 140.57 317.82
  Q 139.13 318.29 136.16 322.45
  Q 127.16 335.02 112.77 348.48
  C 102.18 358.38 87.24 364.02 73.00 359.68
  C 64.61 357.11 58.11 347.46 54.81 339.70
  C 51.48 331.86 49.03 322.65 42.51 315.04
  Q 39.30 311.30 35.05 305.73
  C 28.53 297.21 28.26 287.16 30.02 277.01
  C 31.26 269.84 35.57 264.86 41.05 259.62
  Q 45.91 254.96 52.95 251.38
  A 0.33 0.33 0.0 0 0 52.94 250.78
  Z
  M 139.16 179.97
  C 130.65 160.51 120.07 142.06 104.88 127.14
  C 96.66 119.07 87.67 114.43 76.34 113.18
  A 3.49 3.36 -46.1 0 0 75.30 113.22
  C 64.54 115.36 59.22 121.92 57.10 132.65
  Q 55.91 138.67 55.09 147.86
  Q 53.73 162.99 48.41 178.91
  C 46.74 183.93 42.54 190.90 40.83 195.60
  Q 35.42 210.51 43.01 223.25
  C 48.10 231.78 57.09 236.70 65.75 239.13
  C 70.71 240.52 75.38 240.87 80.29 242.19
  A 6.78 6.51 -35.8 0 0 81.99 242.43
  Q 96.28 242.60 98.51 242.35
  Q 110.11 241.09 121.90 238.60
  A 2.62 2.60 89.2 0 0 123.93 236.50
  Q 127.17 218.41 130.38 204.10
  Q 131.55 198.90 137.21 184.63
  C 137.77 183.24 139.13 181.94 139.29 180.97
  A 1.82 1.80 -52.6 0 0 139.16 179.97
  Z
  M 186.62 248.55
  Q 195.23 254.05 206.70 259.19
  C 213.19 262.10 219.47 263.54 227.46 266.04
  Q 228.96 266.51 235.29 267.12
  A 8.17 7.91 -31.3 0 1 237.19 267.55
  Q 241.66 269.18 247.59 268.71
  C 250.61 268.47 253.47 267.14 256.48 266.75
  A 6.08 6.03 -60.3 0 0 258.21 266.27
  Q 263.56 263.93 264.34 263.35
  Q 272.34 257.37 275.44 248.20
  C 277.38 242.46 277.06 234.85 276.32 229.00
  C 274.87 217.42 273.90 211.72 274.65 202.93
  Q 275.87 188.45 279.47 175.48
  C 282.13 165.86 281.81 155.06 273.13 148.97
  Q 264.88 143.19 255.36 143.32
  C 252.34 143.36 250.20 144.65 247.22 145.15
  Q 244.48 145.62 241.23 147.02
  Q 222.46 155.12 207.28 169.04
  Q 197.42 178.08 188.47 188.19
  A 2.35 2.33 -15.9 0 0 187.97 189.08
  C 187.55 190.41 188.52 192.84 188.56 194.57
  Q 188.73 202.93 189.19 212.74
  Q 189.44 217.99 187.85 236.85
  Q 187.39 242.26 186.02 246.96
  A 1.43 1.42 -65.8 0 0 186.62 248.55
  Z
  M 173.64 193.12
  L 173.19 192.66
  A 1.82 1.79 -73.7 0 1 172.72 191.78
  Q 171.99 188.37 169.48 186.54
  C 167.54 185.12 162.16 182.38 159.30 183.54
  Q 153.06 186.06 150.60 192.36
  Q 146.22 203.56 144.43 211.72
  Q 142.14 222.13 138.07 247.26
  Q 135.85 260.96 136.44 268.84
  Q 137.48 282.68 140.24 293.13
  Q 141.66 298.51 145.18 301.71
  A 3.34 3.34 0.0 0 0 149.30 301.99
  C 154.23 298.63 156.56 293.94 159.52 287.84
  Q 166.65 273.12 169.63 257.08
  Q 173.58 235.76 174.98 212.50
  Q 175.17 209.48 175.10 204.55
  A 3.46 3.36 -54.5 0 0 174.97 203.69
  Q 173.96 200.20 174.38 195.19
  A 2.67 2.66 25.5 0 0 173.64 193.12
  Z
  M 121.20 254.43
  C 118.56 254.31 115.46 255.79 112.99 255.90
  Q 110.86 255.99 107.32 256.47
  C 99.41 257.55 92.07 256.18 84.21 257.83
  C 72.94 260.20 63.59 262.53 56.03 267.56
  C 46.61 273.84 38.60 285.94 47.20 296.81
  Q 51.70 302.51 56.40 308.07
  C 61.16 313.72 63.43 320.73 65.77 326.98
  C 68.33 333.85 72.28 344.07 79.93 345.25
  C 88.44 346.57 95.09 343.09 101.49 337.49
  Q 116.50 324.38 127.69 307.44
  C 129.20 305.16 126.49 300.66 125.82 298.07
  Q 120.96 279.41 121.93 259.69
  Q 122.02 257.82 122.36 255.89
  A 1.24 1.24 0.0 0 0 121.20 254.43
  Z
  M 184.49 265.37
  A 1.10 1.09 -77.8 0 0 183.18 266.22
  Q 179.68 282.33 171.92 297.42
  Q 167.81 305.41 165.42 308.08
  C 164.35 309.27 163.27 311.52 163.43 312.75
  Q 163.77 315.39 165.97 321.29
  Q 168.44 327.90 173.21 337.91
  C 178.54 349.10 184.60 361.49 196.67 364.60
  C 203.89 366.46 208.22 361.95 212.65 356.80
  Q 214.95 354.12 217.63 350.51
  C 222.25 344.27 227.01 339.68 233.81 335.23
  C 240.55 330.82 247.92 327.20 248.66 317.50
  Q 249.16 310.97 248.17 308.03
  Q 243.90 295.33 230.72 287.06
  Q 219.99 280.33 216.21 278.81
  Q 210.99 276.71 203.83 274.21
  C 197.61 272.04 191.64 268.85 185.57 265.66
  Q 185.43 265.58 184.49 265.37
  Z"
/>
<path fill="#af90ff" d="
  M 139.29 180.97
  C 139.13 181.94 137.77 183.24 137.21 184.63
  Q 131.55 198.90 130.38 204.10
  Q 127.17 218.41 123.93 236.50
  A 2.62 2.60 89.2 0 1 121.90 238.60
  Q 110.11 241.09 98.51 242.35
  Q 96.28 242.60 81.99 242.43
  A 6.78 6.51 -35.8 0 1 80.29 242.19
  C 75.38 240.87 70.71 240.52 65.75 239.13
  C 57.09 236.70 48.10 231.78 43.01 223.25
  Q 35.42 210.51 40.83 195.60
  C 42.54 190.90 46.74 183.93 48.41 178.91
  Q 53.73 162.99 55.09 147.86
  Q 55.91 138.67 57.10 132.65
  C 59.22 121.92 64.54 115.36 75.30 113.22
  A 3.49 3.36 -46.1 0 1 76.34 113.18
  C 87.67 114.43 96.66 119.07 104.88 127.14
  C 120.07 142.06 130.65 160.51 139.16 179.97
  A 1.82 1.80 -52.6 0 1 139.29 180.97
  Z
  M 49.77 201.94
  Q 46.23 201.25 45.59 204.90
  Q 43.66 215.98 51.78 224.53
  C 54.03 226.89 61.75 234.21 65.24 234.34
  C 69.42 234.49 70.00 229.62 67.27 227.84
  C 60.31 223.33 51.54 216.97 51.96 207.45
  Q 52.03 205.74 51.91 204.33
  A 2.67 2.65 -87.0 0 0 49.77 201.94
  Z"
/>
<path fill="#af90ff" d="
  M 186.62 248.55
  A 1.43 1.42 -65.8 0 1 186.02 246.96
  Q 187.39 242.26 187.85 236.85
  Q 189.44 217.99 189.19 212.74
  Q 188.73 202.93 188.56 194.57
  C 188.52 192.84 187.55 190.41 187.97 189.08
  A 2.35 2.33 -15.9 0 1 188.47 188.19
  Q 197.42 178.08 207.28 169.04
  Q 222.46 155.12 241.23 147.02
  Q 244.48 145.62 247.22 145.15
  C 250.20 144.65 252.34 143.36 255.36 143.32
  Q 264.88 143.19 273.13 148.97
  C 281.81 155.06 282.13 165.86 279.47 175.48
  Q 275.87 188.45 274.65 202.93
  C 273.90 211.72 274.87 217.42 276.32 229.00
  C 277.06 234.85 277.38 242.46 275.44 248.20
  Q 272.34 257.37 264.34 263.35
  Q 263.56 263.93 258.21 266.27
  A 6.08 6.03 -60.3 0 1 256.48 266.75
  C 253.47 267.14 250.61 268.47 247.59 268.71
  Q 241.66 269.18 237.19 267.55
  A 8.17 7.91 -31.3 0 0 235.29 267.12
  Q 228.96 266.51 227.46 266.04
  C 219.47 263.54 213.19 262.10 206.70 259.19
  Q 195.23 254.05 186.62 248.55
  Z
  M 241.13 156.13
  C 242.06 158.78 244.07 158.87 246.45 157.89
  Q 249.92 156.46 251.89 155.90
  C 258.85 153.94 266.64 156.11 265.53 165.01
  Q 265.28 166.99 264.12 171.95
  A 3.50 3.49 14.7 0 0 266.56 176.11
  L 266.64 176.14
  A 3.61 3.61 0.0 0 0 271.02 173.91
  C 273.89 166.03 274.37 156.35 266.61 151.02
  C 259.87 146.40 249.58 148.19 243.10 152.17
  C 241.82 152.96 240.60 154.63 241.13 156.13
  Z
  M 268.67 185.56
  A 3.09 3.09 0.0 0 0 265.58 182.47
  A 3.09 3.09 0.0 0 0 262.49 185.56
  A 3.09 3.09 0.0 0 0 265.58 188.65
  A 3.09 3.09 0.0 0 0 268.67 185.56
  Z
  M 266.82 242.63
  A 3.23 3.23 0.0 0 0 262.09 243.48
  Q 257.44 250.97 252.55 254.03
  Q 249.16 256.15 243.07 255.99
  Q 235.46 255.79 227.24 255.22
  A 3.13 3.13 0.0 0 0 223.90 258.25
  L 223.89 258.34
  A 3.41 3.40 3.1 0 0 227.05 261.85
  Q 239.76 263.02 240.03 263.04
  Q 258.24 265.01 267.97 247.91
  A 4.04 4.03 33.9 0 0 266.95 242.73
  L 266.82 242.63
  Z"
/>
<path fill="#ffffff" d="
  M 241.13 156.13
  C 240.60 154.63 241.82 152.96 243.10 152.17
  C 249.58 148.19 259.87 146.40 266.61 151.02
  C 274.37 156.35 273.89 166.03 271.02 173.91
  A 3.61 3.61 0.0 0 1 266.64 176.14
  L 266.56 176.11
  A 3.50 3.49 14.7 0 1 264.12 171.95
  Q 265.28 166.99 265.53 165.01
  C 266.64 156.11 258.85 153.94 251.89 155.90
  Q 249.92 156.46 246.45 157.89
  C 244.07 158.87 242.06 158.78 241.13 156.13
  Z"
/>
<circle fill="#ffffff" cx="265.58" cy="185.56" r="3.09"/>
<path fill="#ffd98b" d="
  M 173.64 193.12
  A 2.67 2.66 25.5 0 1 174.38 195.19
  Q 173.96 200.20 174.97 203.69
  A 3.46 3.36 -54.5 0 1 175.10 204.55
  Q 175.17 209.48 174.98 212.50
  Q 173.58 235.76 169.63 257.08
  Q 166.65 273.12 159.52 287.84
  C 156.56 293.94 154.23 298.63 149.30 301.99
  A 3.34 3.34 0.0 0 1 145.18 301.71
  Q 141.66 298.51 140.24 293.13
  Q 137.48 282.68 136.44 268.84
  Q 135.85 260.96 138.07 247.26
  Q 142.14 222.13 144.43 211.72
  Q 146.22 203.56 150.60 192.36
  Q 153.06 186.06 159.30 183.54
  C 162.16 182.38 167.54 185.12 169.48 186.54
  Q 171.99 188.37 172.72 191.78
  A 1.82 1.79 -73.7 0 0 173.19 192.66
  L 173.64 193.12
  Z
  M 164.35 193.38
  L 162.88 217.31
  A 1.56 1.56 0.0 0 0 164.35 218.97
  L 165.27 219.02
  A 7.05 4.51 -86.5 0 0 170.21 212.26
  L 171.00 199.29
  A 7.05 4.51 -86.5 0 0 166.93 191.97
  L 166.00 191.92
  A 1.56 1.56 0.0 0 0 164.35 193.38
  Z
  M 163.7432 230.2795
  A 3.02 2.66 127.7 0 0 167.6947 229.5167
  A 3.02 2.66 127.7 0 0 167.4368 225.5005
  A 3.02 2.66 127.7 0 0 163.4853 226.2633
  A 3.02 2.66 127.7 0 0 163.7432 230.2795
  Z"
/>
<path fill="#ffffff" d="
  M 164.35 193.38
  A 1.56 1.56 0.0 0 1 166.00 191.92
  L 166.93 191.97
  A 7.05 4.51 -86.5 0 1 171.00 199.29
  L 170.21 212.26
  A 7.05 4.51 -86.5 0 1 165.27 219.02
  L 164.35 218.97
  A 1.56 1.56 0.0 0 1 162.88 217.31
  L 164.35 193.38
  Z"
/>
<path fill="#ffffff" d="
  M 49.77 201.94
  A 2.67 2.65 -87.0 0 1 51.91 204.33
  Q 52.03 205.74 51.96 207.45
  C 51.54 216.97 60.31 223.33 67.27 227.84
  C 70.00 229.62 69.42 234.49 65.24 234.34
  C 61.75 234.21 54.03 226.89 51.78 224.53
  Q 43.66 215.98 45.59 204.90
  Q 46.23 201.25 49.77 201.94
  Z"
/>
<ellipse fill="#ffffff" cx="0.00" cy="0.00" transform="translate(165.59,227.89) rotate(127.7)" rx="3.02" ry="2.66"/>
<path fill="#ffffff" d="
  M 266.82 242.63
  L 266.95 242.73
  A 4.04 4.03 33.9 0 1 267.97 247.91
  Q 258.24 265.01 240.03 263.04
  Q 239.76 263.02 227.05 261.85
  A 3.41 3.40 3.1 0 1 223.89 258.34
  L 223.90 258.25
  A 3.13 3.13 0.0 0 1 227.24 255.22
  Q 235.46 255.79 243.07 255.99
  Q 249.16 256.15 252.55 254.03
  Q 257.44 250.97 262.09 243.48
  A 3.23 3.23 0.0 0 1 266.82 242.63
  Z"
/>
<path fill="#af90ff" d="
  M 121.20 254.43
  A 1.24 1.24 0.0 0 1 122.36 255.89
  Q 122.02 257.82 121.93 259.69
  Q 120.96 279.41 125.82 298.07
  C 126.49 300.66 129.20 305.16 127.69 307.44
  Q 116.50 324.38 101.49 337.49
  C 95.09 343.09 88.44 346.57 79.93 345.25
  C 72.28 344.07 68.33 333.85 65.77 326.98
  C 63.43 320.73 61.16 313.72 56.40 308.07
  Q 51.70 302.51 47.20 296.81
  C 38.60 285.94 46.61 273.84 56.03 267.56
  C 63.59 262.53 72.94 260.20 84.21 257.83
  C 92.07 256.18 99.41 257.55 107.32 256.47
  Q 110.86 255.99 112.99 255.90
  C 115.46 255.79 118.56 254.31 121.20 254.43
  Z
  M 102.22 324.10
  L 102.15 324.01
  A 3.32 3.32 0.0 0 0 97.64 323.19
  Q 89.55 328.51 89.53 328.52
  Q 86.58 329.88 84.77 330.10
  A 2.71 2.70 70.1 0 1 82.16 328.87
  L 80.28 325.97
  A 1.04 1.00 88.1 0 0 79.91 325.61
  C 76.44 323.64 74.04 326.47 74.93 329.74
  C 77.09 337.75 86.12 338.21 92.47 334.86
  Q 98.91 331.46 101.89 328.46
  A 3.38 3.38 0.0 0 0 102.22 324.10
  Z"
/>
<path fill="#af90ff" d="
  M 184.49 265.37
  Q 185.43 265.58 185.57 265.66
  C 191.64 268.85 197.61 272.04 203.83 274.21
  Q 210.99 276.71 216.21 278.81
  Q 219.99 280.33 230.72 287.06
  Q 243.90 295.33 248.17 308.03
  Q 249.16 310.97 248.66 317.50
  C 247.92 327.20 240.55 330.82 233.81 335.23
  C 227.01 339.68 222.25 344.27 217.63 350.51
  Q 214.95 354.12 212.65 356.80
  C 208.22 361.95 203.89 366.46 196.67 364.60
  C 184.60 361.49 178.54 349.10 173.21 337.91
  Q 168.44 327.90 165.97 321.29
  Q 163.77 315.39 163.43 312.75
  C 163.27 311.52 164.35 309.27 165.42 308.08
  Q 167.81 305.41 171.92 297.42
  Q 179.68 282.33 183.18 266.22
  A 1.10 1.09 -77.8 0 1 184.49 265.37
  Z
  M 232.21 299.87
  Q 231.91 300.91 232.49 301.79
  C 235.77 306.73 236.90 313.35 232.18 317.94
  C 228.86 321.18 214.50 326.49 215.57 331.54
  Q 216.06 333.88 218.18 334.33
  C 220.48 334.81 223.22 332.40 225.10 330.98
  C 228.04 328.76 232.41 326.77 234.37 325.36
  C 242.95 319.23 244.40 309.37 239.78 300.56
  C 238.07 297.32 233.55 295.29 232.21 299.87
  Z
  M 208.14 348.41
  A 2.75 2.75 0.0 0 0 205.39 345.66
  A 2.75 2.75 0.0 0 0 202.64 348.41
  A 2.75 2.75 0.0 0 0 205.39 351.16
  A 2.75 2.75 0.0 0 0 208.14 348.41
  Z"
/>
<path fill="#ffffff" d="
  M 232.21 299.87
  C 233.55 295.29 238.07 297.32 239.78 300.56
  C 244.40 309.37 242.95 319.23 234.37 325.36
  C 232.41 326.77 228.04 328.76 225.10 330.98
  C 223.22 332.40 220.48 334.81 218.18 334.33
  Q 216.06 333.88 215.57 331.54
  C 214.50 326.49 228.86 321.18 232.18 317.94
  C 236.90 313.35 235.77 306.73 232.49 301.79
  Q 231.91 300.91 232.21 299.87
  Z"
/>
<path fill="#ffffff" d="
  M 102.22 324.10
  A 3.38 3.38 0.0 0 1 101.89 328.46
  Q 98.91 331.46 92.47 334.86
  C 86.12 338.21 77.09 337.75 74.93 329.74
  C 74.04 326.47 76.44 323.64 79.91 325.61
  A 1.04 1.00 88.1 0 1 80.28 325.97
  L 82.16 328.87
  A 2.71 2.70 70.1 0 0 84.77 330.10
  Q 86.58 329.88 89.53 328.52
  Q 89.55 328.51 97.64 323.19
  A 3.32 3.32 0.0 0 1 102.15 324.01
  L 102.22 324.10
  Z"
/>
<circle fill="#ffffff" cx="205.39" cy="348.41" r="2.75"/>
</svg>
