<?xml version="1.0" encoding="UTF-8" standalone="no"?>
<!DOCTYPE svg PUBLIC "-//W3C//DTD SVG 1.1//EN" "http://www.w3.org/Graphics/SVG/1.1/DTD/svg11.dtd">
<svg xmlns="http://www.w3.org/2000/svg" version="1.1" viewBox="0.00 0.00 338.00 527.00">
<g stroke-width="2.00" fill="none" stroke-linecap="butt">
<path stroke="#57102c" vector-effect="non-scaling-stroke" d="
  M 151.76 150.41
  L 159.02 151.98
  A 3.17 3.15 -53.7 0 0 161.27 151.63
  L 170.01 146.58
  A 0.64 0.63 46.3 0 0 170.03 145.49
  C 168.17 144.29 165.49 143.04 163.91 141.60
  C 152.86 131.45 156.55 115.24 169.86 109.67
  Q 183.83 103.82 194.27 111.40"
/>
<path stroke="#692e4b" vector-effect="non-scaling-stroke" d="
  M 194.27 111.40
  Q 196.24 115.63 195.13 118.64
  A 1.37 1.29 -16.8 0 1 194.89 119.06
  L 192.83 121.58
  A 2.10 2.06 -70.0 0 1 191.22 122.35
  Q 187.87 122.35 178.05 122.43
  Q 174.88 122.45 172.24 126.26
  A 0.97 0.96 51.5 0 0 172.14 127.18
  C 173.73 131.07 179.05 133.82 182.74 134.58"
/>
<path stroke="#57102c" vector-effect="non-scaling-stroke" d="
  M 182.74 134.58
  Q 191.33 138.21 200.48 136.23
  Q 213.73 133.35 225.33 126.86
  Q 226.62 126.13 229.03 123.32
  Q 231.01 121.02 231.10 118.80
  Q 231.25 115.21 228.05 112.71"
/>
<path stroke="#692e4b" vector-effect="non-scaling-stroke" d="
  M 228.05 112.71
  Q 225.14 109.03 222.71 107.49
  C 205.81 96.83 185.33 92.20 165.56 95.80
  C 152.79 98.13 142.16 102.05 133.36 111.66
  C 127.33 118.25 124.71 128.80 128.85 136.83
  Q 130.73 140.47 135.92 143.94
  Q 143.20 148.82 151.76 150.41"
/>
<path stroke="#c03e77" vector-effect="non-scaling-stroke" d="
  M 228.05 112.71
  Q 226.53 116.55 221.62 119.36
  C 210.77 125.57 198.83 129.74 187.33 134.43
  Q 185.67 135.11 182.74 134.58"
/>
<path stroke="#c03e77" vector-effect="non-scaling-stroke" d="
  M 194.27 111.40
  Q 195.09 109.10 192.59 106.89
  Q 187.27 102.19 180.50 102.46
  Q 174.58 102.68 168.86 104.16
  C 162.13 105.89 156.60 110.94 152.97 116.56
  C 148.07 124.14 149.81 135.00 155.69 141.35
  Q 157.29 143.07 159.69 145.37
  A 0.39 0.38 -38.0 0 1 159.61 145.99
  L 151.76 150.41"
/>
<path stroke="#7d384b" vector-effect="non-scaling-stroke" d="
  M 240.10 136.18
  A 1.05 1.04 67.4 0 0 238.46 135.50
  C 234.40 138.42 231.27 140.85 227.26 142.73
  Q 216.21 147.90 208.62 149.62
  Q 194.04 152.94 187.57 155.07
  C 171.41 160.37 156.29 174.19 148.05 188.78
  C 144.31 195.41 140.15 204.90 138.71 213.58
  Q 137.94 218.18 137.23 221.21
  Q 136.12 225.99 136.15 231.90
  Q 136.22 242.22 136.26 243.16
  A 2.24 2.19 -67.3 0 0 136.79 244.49
  Q 140.32 248.55 146.83 250.66
  Q 157.31 254.07 165.30 255.05
  Q 173.36 256.05 181.59 254.99
  C 195.49 253.21 209.92 244.05 218.64 233.17
  Q 225.93 224.08 231.04 213.78
  Q 231.90 212.06 234.38 205.26
  Q 235.75 201.52 237.74 196.75
  A 9.08 8.70 63.4 0 0 238.22 195.20
  C 239.28 190.10 240.93 186.24 241.14 181.70
  Q 241.25 179.41 242.45 176.35
  A 5.45 5.38 56.3 0 0 242.84 174.33
  Q 242.87 158.83 242.79 149.51
  Q 242.78 148.91 241.89 146.61
  A 1.98 1.97 30.8 0 1 241.79 146.22
  L 240.10 136.18"
/>
<path stroke="#7b192c" vector-effect="non-scaling-stroke" d="
  M 116.01 240.04
  Q 117.03 240.73 120.21 241.26
  A 1.22 1.22 0.0 0 0 121.64 240.10
  C 121.95 232.37 121.69 225.44 122.75 217.86
  Q 126.88 188.49 145.84 165.65
  A 0.48 0.48 0.0 0 0 145.72 164.93
  Q 142.63 163.09 139.07 162.58"
/>
<path stroke="#7d384b" vector-effect="non-scaling-stroke" d="
  M 139.07 162.58
  Q 126.60 158.47 118.38 148.57
  A 9.07 8.97 -79.2 0 1 117.34 147.02
  L 114.29 141.24
  A 0.57 0.57 0.0 0 0 113.29 141.22
  Q 101.87 160.54 97.50 180.97
  C 93.47 199.83 94.64 217.28 105.85 232.89
  Q 109.53 238.00 116.01 240.04"
/>
<path stroke="#f85177" vector-effect="non-scaling-stroke" d="
  M 139.07 162.58
  Q 139.48 163.85 138.84 164.58
  Q 128.25 176.66 122.07 190.81
  Q 111.99 213.88 116.01 240.04"
/>
<path stroke="#103816" vector-effect="non-scaling-stroke" d="
  M 166.77 349.16
  Q 168.03 346.71 169.09 342.56
  Q 170.29 337.85 167.85 334.98"
/>
<path stroke="#2c5434" vector-effect="non-scaling-stroke" d="
  M 167.85 334.98
  C 159.40 320.01 155.95 303.78 155.72 286.51
  Q 155.53 272.21 155.66 270.52
  A 1.33 1.33 0.0 0 0 155.04 269.28
  C 151.80 267.26 147.90 267.23 144.90 266.20
  Q 137.88 263.80 136.82 263.28
  A 0.45 0.44 -77.4 0 0 136.18 263.69
  Q 136.20 267.89 136.17 278.72
  C 136.15 282.18 137.25 286.25 137.50 289.77
  Q 138.33 301.59 140.95 313.31
  Q 143.21 323.44 151.53 339.36
  C 153.08 342.33 157.25 347.88 159.40 349.11
  Q 163.75 351.62 166.77 349.16"
/>
<path stroke="#3c8c4a" vector-effect="non-scaling-stroke" d="
  M 167.85 334.98
  Q 165.39 342.13 166.77 349.16"
/>
<path stroke="#103816" vector-effect="non-scaling-stroke" d="
  M 133.48 349.61
  L 138.10 347.94
  A 0.58 0.58 0.0 0 0 138.43 347.17
  Q 136.75 343.31 134.74 339.78
  C 132.92 336.61 129.12 335.21 126.13 333.31"
/>
<path stroke="#2c5434" vector-effect="non-scaling-stroke" d="
  M 126.13 333.31
  C 120.27 326.92 112.56 318.88 107.70 314.52
  Q 99.65 307.29 89.37 303.94
  Q 86.93 303.15 84.74 300.79
  C 81.53 297.33 85.89 289.41 90.49 290.89
  Q 106.87 296.16 119.78 308.22"
/>
<path stroke="#103816" vector-effect="non-scaling-stroke" d="
  M 119.78 308.22
  L 124.72 313.76
  A 0.38 0.37 23.8 0 0 125.38 313.51
  C 125.26 307.20 124.44 301.35 119.30 296.58"
/>
<path stroke="#2c5434" vector-effect="non-scaling-stroke" d="
  M 119.30 296.58
  Q 109.87 286.32 97.12 279.61
  Q 95.14 278.57 86.44 274.69
  A 7.68 7.52 -25.6 0 0 85.18 274.26
  Q 80.01 273.05 77.20 272.05
  Q 75.58 271.48 72.49 271.40
  C 66.10 271.24 60.21 270.92 54.91 272.17
  C 49.54 273.43 45.02 274.51 41.18 277.47
  A 1.20 1.20 0.0 0 0 41.03 279.23
  Q 43.52 281.91 47.26 284.48
  C 56.65 290.93 64.67 298.79 70.98 308.70
  C 76.47 317.33 82.79 326.83 89.83 334.16
  Q 101.73 346.54 118.72 349.82
  Q 124.04 350.85 133.48 349.61"
/>
<path stroke="#3c8c4a" vector-effect="non-scaling-stroke" d="
  M 119.30 296.58
  L 119.78 308.22"
/>
<path stroke="#3c8c4a" vector-effect="non-scaling-stroke" d="
  M 126.13 333.31
  Q 128.72 341.59 133.48 349.61"
/>
<path stroke="#2c5434" vector-effect="non-scaling-stroke" d="
  M 192.81 317.69
  Q 194.30 317.57 198.87 316.34
  Q 203.81 315.01 215.38 312.38
  C 221.73 310.94 226.19 309.12 231.80 306.79
  Q 234.56 305.65 239.95 301.49
  Q 244.23 298.21 249.88 296.24
  C 256.10 294.07 258.61 300.17 256.79 305.13
  A 1.47 1.45 82.9 0 1 256.23 305.86
  L 241.33 316.04
  A 3.75 3.43 -70.7 0 1 240.68 316.39
  Q 231.17 320.28 224.28 322.72
  Q 219.64 324.37 208.28 326.39
  C 197.37 328.34 187.01 332.22 182.05 342.84
  Q 180.78 345.57 180.99 349.77
  C 181.20 353.82 183.03 356.54 187.52 357.69
  Q 189.80 358.28 194.12 360.21
  A 9.17 8.83 -25.9 0 0 195.93 360.80
  C 199.57 361.55 201.11 362.00 204.74 361.93
  Q 207.82 361.86 210.27 362.47
  A 8.29 8.27 48.2 0 0 213.26 362.64
  L 221.31 361.62
  A 5.66 5.62 -59.3 0 0 222.78 361.24
  Q 228.14 359.04 229.54 358.14
  Q 234.08 355.22 240.51 349.82
  C 243.36 347.42 244.97 344.66 247.05 342.30
  Q 248.67 340.45 251.31 336.15
  Q 255.77 328.92 263.65 318.85
  C 270.29 310.36 278.73 302.47 285.68 294.92
  Q 288.21 292.16 289.85 288.95
  A 1.17 1.17 0.0 0 0 289.42 287.43
  Q 283.29 283.64 276.02 282.93
  C 258.63 281.24 240.77 284.09 224.95 290.85
  Q 207.79 298.19 195.66 312.39
  Q 193.24 315.24 192.45 317.20
  A 0.36 0.36 0.0 0 0 192.81 317.69"
/>
<path stroke="#fdb8cb" vector-effect="non-scaling-stroke" d="
  M 235.37 151.50
  L 235.17 151.50
  A 3.49 3.49 0.0 0 0 231.67 155.01
  Q 231.74 172.48 227.32 188.64
  C 226.00 193.47 223.13 199.06 222.10 202.72
  A 3.37 3.36 -73.4 0 0 224.32 206.83
  L 224.46 206.87
  A 3.86 3.85 -68.2 0 0 229.09 204.88
  Q 235.17 192.38 236.95 178.49
  Q 238.73 164.56 238.75 154.90
  A 3.39 3.39 0.0 0 0 235.37 151.50"
/>
<path stroke="#fdb8cb" vector-effect="non-scaling-stroke" d="
  M 218.35 219.07
  A 3.01 3.01 0.0 0 0 215.34 216.06
  A 3.01 3.01 0.0 0 0 212.33 219.07
  A 3.01 3.01 0.0 0 0 215.34 222.08
  A 3.01 3.01 0.0 0 0 218.35 219.07"
/>
<path stroke="#fdb8cb" vector-effect="non-scaling-stroke" d="
  M 204.29 229.86
  L 183.95 243.84
  A 1.58 1.58 0.0 0 0 183.54 246.04
  L 184.30 247.14
  A 6.68 4.14 -34.5 0 0 192.15 246.77
  L 204.09 238.57
  A 6.68 4.14 -34.5 0 0 207.25 231.37
  L 206.49 230.27
  A 1.58 1.58 0.0 0 0 204.29 229.86"
/>
<path stroke="#acd4b4" vector-effect="non-scaling-stroke" d="
  M 64.67 281.65
  Q 69.62 281.72 73.47 282.90
  C 76.19 283.74 78.98 283.52 79.35 280.44
  A 3.15 3.09 -74.0 0 0 77.62 277.26
  C 73.54 275.30 69.42 274.62 64.76 274.56
  C 60.10 274.50 55.97 275.08 51.84 276.93
  A 3.15 3.09 75.5 0 0 50.03 280.07
  C 50.33 283.16 53.11 283.45 55.85 282.68
  Q 59.72 281.59 64.67 281.65"
/>
<path stroke="#acd4b4" vector-effect="non-scaling-stroke" d="
  M 91.75 282.63
  A 3.28 3.28 0.0 0 0 88.47 279.35
  A 3.28 3.28 0.0 0 0 85.19 282.63
  A 3.28 3.28 0.0 0 0 88.47 285.91
  A 3.28 3.28 0.0 0 0 91.75 282.63"
/>
<path stroke="#acd4b4" vector-effect="non-scaling-stroke" d="
  M 251.02 328.18
  A 3.07 3.07 0.0 0 0 247.95 325.11
  A 3.07 3.07 0.0 0 0 244.88 328.18
  A 3.07 3.07 0.0 0 0 247.95 331.25
  A 3.07 3.07 0.0 0 0 251.02 328.18"
/>
<path stroke="#acd4b4" vector-effect="non-scaling-stroke" d="
  M 192.44 352.39
  A 3.79 3.79 0.0 0 0 195.48 356.26
  Q 208.56 358.91 219.23 357.41
  C 228.59 356.11 235.07 349.52 241.05 342.93
  A 3.67 3.66 44.5 0 0 241.00 337.95
  L 240.96 337.90
  A 3.50 3.49 -43.0 0 0 236.05 337.73
  C 230.13 343.08 226.26 349.35 217.07 350.49
  Q 208.67 351.54 195.76 349.53
  A 2.88 2.88 0.0 0 0 192.44 352.26
  L 192.44 352.39"
/>
</g>
<path fill="#000000" d="
  M 120.21 276.70
  A 1.00 1.00 0.0 0 0 121.82 275.91
  L 121.82 259.13
  A 1.52 1.52 0.0 0 0 120.69 257.66
  C 112.40 255.46 104.23 252.90 97.90 246.88
  C 86.07 235.63 80.68 218.37 80.56 202.27
  C 80.41 183.06 84.89 164.40 93.19 146.99
  C 97.60 137.74 102.24 128.96 108.04 121.29
  C 111.33 116.94 113.59 114.00 116.20 109.86
  C 121.29 101.78 125.69 96.21 133.62 91.62
  Q 142.54 86.45 152.78 83.41
  C 162.30 80.59 170.19 80.82 182.25 80.77
  C 201.12 80.70 218.34 86.30 233.84 96.82
  C 236.45 98.60 239.80 102.38 241.94 105.79
  C 247.78 115.11 251.30 120.03 253.64 128.84
  Q 255.97 137.65 257.62 150.05
  C 258.40 155.99 258.07 160.68 258.12 167.00
  Q 258.13 167.38 257.52 168.33
  A 1.53 1.50 -29.7 0 0 257.29 169.13
  L 257.27 180.30
  A 1.92 1.88 66.6 0 1 256.78 181.58
  Q 256.18 182.26 256.42 184.69
  A 3.17 3.17 0.0 0 1 256.16 186.32
  Q 254.71 189.61 254.67 191.90
  A 2.48 2.30 -36.2 0 1 254.50 192.78
  C 252.86 197.01 251.98 201.99 250.38 206.42
  Q 245.14 220.90 239.38 230.66
  Q 224.41 256.03 197.20 266.67
  Q 186.60 270.81 173.73 270.60
  Q 172.29 270.58 170.60 271.40
  A 0.86 0.85 -13.7 0 0 170.12 272.18
  Q 170.14 276.32 170.11 288.22
  Q 170.10 293.03 171.41 298.85
  Q 173.72 309.15 174.79 315.07
  A 0.72 0.71 54.3 0 0 176.12 315.29
  C 180.00 308.13 184.27 301.61 190.21 295.98
  Q 209.06 278.13 235.49 271.26
  Q 255.73 266.00 275.21 267.80
  Q 289.02 269.07 300.82 276.02
  A 6.66 6.64 -85.6 0 1 303.63 279.31
  L 306.20 285.90
  A 4.96 4.96 0.0 0 1 306.35 289.07
  C 304.06 297.02 299.79 302.83 293.33 309.58
  Q 278.26 325.34 275.28 329.30
  Q 271.25 334.65 260.53 350.26
  Q 249.24 366.70 230.73 374.42
  C 226.33 376.26 221.16 376.74 216.99 377.87
  A 6.17 5.98 36.4 0 1 215.52 378.07
  C 213.05 378.10 210.77 378.20 208.17 377.84
  C 199.12 376.57 190.94 375.27 182.03 372.28
  Q 175.69 370.15 170.12 365.31
  A 2.47 2.44 -28.9 0 0 168.10 364.74
  L 164.59 365.33
  A 3.92 3.77 42.9 0 1 163.42 365.35
  C 159.69 364.86 152.05 363.67 149.49 360.54
  A 1.16 1.16 0.0 0 0 148.16 360.20
  Q 135.05 365.52 120.44 365.27
  A 9.29 9.27 -36.9 0 1 118.18 364.95
  C 114.93 364.08 109.89 363.27 105.48 361.69
  Q 89.21 355.87 77.57 343.50
  C 69.10 334.51 65.08 327.39 54.89 312.87
  C 48.86 304.28 41.88 299.64 33.04 292.70
  C 27.84 288.61 23.05 282.99 24.76 275.83
  C 26.82 267.26 33.76 262.38 41.75 259.90
  Q 57.93 254.89 75.43 256.71
  Q 84.45 257.65 94.83 261.70
  Q 107.45 266.63 113.21 271.84
  C 115.30 273.73 117.62 274.71 120.21 276.70
  Z
  M 151.76 150.41
  L 159.02 151.98
  A 3.17 3.15 -53.7 0 0 161.27 151.63
  L 170.01 146.58
  A 0.64 0.63 46.3 0 0 170.03 145.49
  C 168.17 144.29 165.49 143.04 163.91 141.60
  C 152.86 131.45 156.55 115.24 169.86 109.67
  Q 183.83 103.82 194.27 111.40
  Q 196.24 115.63 195.13 118.64
  A 1.37 1.29 -16.8 0 1 194.89 119.06
  L 192.83 121.58
  A 2.10 2.06 -70.0 0 1 191.22 122.35
  Q 187.87 122.35 178.05 122.43
  Q 174.88 122.45 172.24 126.26
  A 0.97 0.96 51.5 0 0 172.14 127.18
  C 173.73 131.07 179.05 133.82 182.74 134.58
  Q 191.33 138.21 200.48 136.23
  Q 213.73 133.35 225.33 126.86
  Q 226.62 126.13 229.03 123.32
  Q 231.01 121.02 231.10 118.80
  Q 231.25 115.21 228.05 112.71
  Q 225.14 109.03 222.71 107.49
  C 205.81 96.83 185.33 92.20 165.56 95.80
  C 152.79 98.13 142.16 102.05 133.36 111.66
  C 127.33 118.25 124.71 128.80 128.85 136.83
  Q 130.73 140.47 135.92 143.94
  Q 143.20 148.82 151.76 150.41
  Z
  M 240.10 136.18
  A 1.05 1.04 67.4 0 0 238.46 135.50
  C 234.40 138.42 231.27 140.85 227.26 142.73
  Q 216.21 147.90 208.62 149.62
  Q 194.04 152.94 187.57 155.07
  C 171.41 160.37 156.29 174.19 148.05 188.78
  C 144.31 195.41 140.15 204.90 138.71 213.58
  Q 137.94 218.18 137.23 221.21
  Q 136.12 225.99 136.15 231.90
  Q 136.22 242.22 136.26 243.16
  A 2.24 2.19 -67.3 0 0 136.79 244.49
  Q 140.32 248.55 146.83 250.66
  Q 157.31 254.07 165.30 255.05
  Q 173.36 256.05 181.59 254.99
  C 195.49 253.21 209.92 244.05 218.64 233.17
  Q 225.93 224.08 231.04 213.78
  Q 231.90 212.06 234.38 205.26
  Q 235.75 201.52 237.74 196.75
  A 9.08 8.70 63.4 0 0 238.22 195.20
  C 239.28 190.10 240.93 186.24 241.14 181.70
  Q 241.25 179.41 242.45 176.35
  A 5.45 5.38 56.3 0 0 242.84 174.33
  Q 242.87 158.83 242.79 149.51
  Q 242.78 148.91 241.89 146.61
  A 1.98 1.97 30.8 0 1 241.79 146.22
  L 240.10 136.18
  Z
  M 116.01 240.04
  Q 117.03 240.73 120.21 241.26
  A 1.22 1.22 0.0 0 0 121.64 240.10
  C 121.95 232.37 121.69 225.44 122.75 217.86
  Q 126.88 188.49 145.84 165.65
  A 0.48 0.48 0.0 0 0 145.72 164.93
  Q 142.63 163.09 139.07 162.58
  Q 126.60 158.47 118.38 148.57
  A 9.07 8.97 -79.2 0 1 117.34 147.02
  L 114.29 141.24
  A 0.57 0.57 0.0 0 0 113.29 141.22
  Q 101.87 160.54 97.50 180.97
  C 93.47 199.83 94.64 217.28 105.85 232.89
  Q 109.53 238.00 116.01 240.04
  Z
  M 166.77 349.16
  Q 168.03 346.71 169.09 342.56
  Q 170.29 337.85 167.85 334.98
  C 159.40 320.01 155.95 303.78 155.72 286.51
  Q 155.53 272.21 155.66 270.52
  A 1.33 1.33 0.0 0 0 155.04 269.28
  C 151.80 267.26 147.90 267.23 144.90 266.20
  Q 137.88 263.80 136.82 263.28
  A 0.45 0.44 -77.4 0 0 136.18 263.69
  Q 136.20 267.89 136.17 278.72
  C 136.15 282.18 137.25 286.25 137.50 289.77
  Q 138.33 301.59 140.95 313.31
  Q 143.21 323.44 151.53 339.36
  C 153.08 342.33 157.25 347.88 159.40 349.11
  Q 163.75 351.62 166.77 349.16
  Z
  M 133.48 349.61
  L 138.10 347.94
  A 0.58 0.58 0.0 0 0 138.43 347.17
  Q 136.75 343.31 134.74 339.78
  C 132.92 336.61 129.12 335.21 126.13 333.31
  C 120.27 326.92 112.56 318.88 107.70 314.52
  Q 99.65 307.29 89.37 303.94
  Q 86.93 303.15 84.74 300.79
  C 81.53 297.33 85.89 289.41 90.49 290.89
  Q 106.87 296.16 119.78 308.22
  L 124.72 313.76
  A 0.38 0.37 23.8 0 0 125.38 313.51
  C 125.26 307.20 124.44 301.35 119.30 296.58
  Q 109.87 286.32 97.12 279.61
  Q 95.14 278.57 86.44 274.69
  A 7.68 7.52 -25.6 0 0 85.18 274.26
  Q 80.01 273.05 77.20 272.05
  Q 75.58 271.48 72.49 271.40
  C 66.10 271.24 60.21 270.92 54.91 272.17
  C 49.54 273.43 45.02 274.51 41.18 277.47
  A 1.20 1.20 0.0 0 0 41.03 279.23
  Q 43.52 281.91 47.26 284.48
  C 56.65 290.93 64.67 298.79 70.98 308.70
  C 76.47 317.33 82.79 326.83 89.83 334.16
  Q 101.73 346.54 118.72 349.82
  Q 124.04 350.85 133.48 349.61
  Z
  M 192.81 317.69
  Q 194.30 317.57 198.87 316.34
  Q 203.81 315.01 215.38 312.38
  C 221.73 310.94 226.19 309.12 231.80 306.79
  Q 234.56 305.65 239.95 301.49
  Q 244.23 298.21 249.88 296.24
  C 256.10 294.07 258.61 300.17 256.79 305.13
  A 1.47 1.45 82.9 0 1 256.23 305.86
  L 241.33 316.04
  A 3.75 3.43 -70.7 0 1 240.68 316.39
  Q 231.17 320.28 224.28 322.72
  Q 219.64 324.37 208.28 326.39
  C 197.37 328.34 187.01 332.22 182.05 342.84
  Q 180.78 345.57 180.99 349.77
  C 181.20 353.82 183.03 356.54 187.52 357.69
  Q 189.80 358.28 194.12 360.21
  A 9.17 8.83 -25.9 0 0 195.93 360.80
  C 199.57 361.55 201.11 362.00 204.74 361.93
  Q 207.82 361.86 210.27 362.47
  A 8.29 8.27 48.2 0 0 213.26 362.64
  L 221.31 361.62
  A 5.66 5.62 -59.3 0 0 222.78 361.24
  Q 228.14 359.04 229.54 358.14
  Q 234.08 355.22 240.51 349.82
  C 243.36 347.42 244.97 344.66 247.05 342.30
  Q 248.67 340.45 251.31 336.15
  Q 255.77 328.92 263.65 318.85
  C 270.29 310.36 278.73 302.47 285.68 294.92
  Q 288.21 292.16 289.85 288.95
  A 1.17 1.17 0.0 0 0 289.42 287.43
  Q 283.29 283.64 276.02 282.93
  C 258.63 281.24 240.77 284.09 224.95 290.85
  Q 207.79 298.19 195.66 312.39
  Q 193.24 315.24 192.45 317.20
  A 0.36 0.36 0.0 0 0 192.81 317.69
  Z"
/>
<path fill="#d25b96" d="
  M 228.05 112.71
  Q 226.53 116.55 221.62 119.36
  C 210.77 125.57 198.83 129.74 187.33 134.43
  Q 185.67 135.11 182.74 134.58
  C 179.05 133.82 173.73 131.07 172.14 127.18
  A 0.97 0.96 51.5 0 1 172.24 126.26
  Q 174.88 122.45 178.05 122.43
  Q 187.87 122.35 191.22 122.35
  A 2.10 2.06 -70.0 0 0 192.83 121.58
  L 194.89 119.06
  A 1.37 1.29 -16.8 0 0 195.13 118.64
  Q 196.24 115.63 194.27 111.40
  Q 195.09 109.10 192.59 106.89
  Q 187.27 102.19 180.50 102.46
  Q 174.58 102.68 168.86 104.16
  C 162.13 105.89 156.60 110.94 152.97 116.56
  C 148.07 124.14 149.81 135.00 155.69 141.35
  Q 157.29 143.07 159.69 145.37
  A 0.39 0.38 -38.0 0 1 159.61 145.99
  L 151.76 150.41
  Q 143.20 148.82 135.92 143.94
  Q 130.73 140.47 128.85 136.83
  C 124.71 128.80 127.33 118.25 133.36 111.66
  C 142.16 102.05 152.79 98.13 165.56 95.80
  C 185.33 92.20 205.81 96.83 222.71 107.49
  Q 225.14 109.03 228.05 112.71
  Z"
/>
<path fill="#ad2058" d="
  M 194.27 111.40
  Q 183.83 103.82 169.86 109.67
  C 156.55 115.24 152.86 131.45 163.91 141.60
  C 165.49 143.04 168.17 144.29 170.03 145.49
  A 0.64 0.63 46.3 0 1 170.01 146.58
  L 161.27 151.63
  A 3.17 3.15 -53.7 0 1 159.02 151.98
  L 151.76 150.41
  L 159.61 145.99
  A 0.39 0.38 -38.0 0 0 159.69 145.37
  Q 157.29 143.07 155.69 141.35
  C 149.81 135.00 148.07 124.14 152.97 116.56
  C 156.60 110.94 162.13 105.89 168.86 104.16
  Q 174.58 102.68 180.50 102.46
  Q 187.27 102.19 192.59 106.89
  Q 195.09 109.10 194.27 111.40
  Z"
/>
<path fill="#ad2058" d="
  M 182.74 134.58
  Q 185.67 135.11 187.33 134.43
  C 198.83 129.74 210.77 125.57 221.62 119.36
  Q 226.53 116.55 228.05 112.71
  Q 231.25 115.21 231.10 118.80
  Q 231.01 121.02 229.03 123.32
  Q 226.62 126.13 225.33 126.86
  Q 213.73 133.35 200.48 136.23
  Q 191.33 138.21 182.74 134.58
  Z"
/>
<path fill="#fa7096" d="
  M 240.10 136.18
  L 241.79 146.22
  A 1.98 1.97 30.8 0 0 241.89 146.61
  Q 242.78 148.91 242.79 149.51
  Q 242.87 158.83 242.84 174.33
  A 5.45 5.38 56.3 0 1 242.45 176.35
  Q 241.25 179.41 241.14 181.70
  C 240.93 186.24 239.28 190.10 238.22 195.20
  A 9.08 8.70 63.4 0 1 237.74 196.75
  Q 235.75 201.52 234.38 205.26
  Q 231.90 212.06 231.04 213.78
  Q 225.93 224.08 218.64 233.17
  C 209.92 244.05 195.49 253.21 181.59 254.99
  Q 173.36 256.05 165.30 255.05
  Q 157.31 254.07 146.83 250.66
  Q 140.32 248.55 136.79 244.49
  A 2.24 2.19 -67.3 0 1 136.26 243.16
  Q 136.22 242.22 136.15 231.90
  Q 136.12 225.99 137.23 221.21
  Q 137.94 218.18 138.71 213.58
  C 140.15 204.90 144.31 195.41 148.05 188.78
  C 156.29 174.19 171.41 160.37 187.57 155.07
  Q 194.04 152.94 208.62 149.62
  Q 216.21 147.90 227.26 142.73
  C 231.27 140.85 234.40 138.42 238.46 135.50
  A 1.05 1.04 67.4 0 1 240.10 136.18
  Z
  M 235.37 151.50
  L 235.17 151.50
  A 3.49 3.49 0.0 0 0 231.67 155.01
  Q 231.74 172.48 227.32 188.64
  C 226.00 193.47 223.13 199.06 222.10 202.72
  A 3.37 3.36 -73.4 0 0 224.32 206.83
  L 224.46 206.87
  A 3.86 3.85 -68.2 0 0 229.09 204.88
  Q 235.17 192.38 236.95 178.49
  Q 238.73 164.56 238.75 154.90
  A 3.39 3.39 0.0 0 0 235.37 151.50
  Z
  M 218.35 219.07
  A 3.01 3.01 0.0 0 0 215.34 216.06
  A 3.01 3.01 0.0 0 0 212.33 219.07
  A 3.01 3.01 0.0 0 0 215.34 222.08
  A 3.01 3.01 0.0 0 0 218.35 219.07
  Z
  M 204.29 229.86
  L 183.95 243.84
  A 1.58 1.58 0.0 0 0 183.54 246.04
  L 184.30 247.14
  A 6.68 4.14 -34.5 0 0 192.15 246.77
  L 204.09 238.57
  A 6.68 4.14 -34.5 0 0 207.25 231.37
  L 206.49 230.27
  A 1.58 1.58 0.0 0 0 204.29 229.86
  Z"
/>
<path fill="#fa7096" d="
  M 139.07 162.58
  Q 139.48 163.85 138.84 164.58
  Q 128.25 176.66 122.07 190.81
  Q 111.99 213.88 116.01 240.04
  Q 109.53 238.00 105.85 232.89
  C 94.64 217.28 93.47 199.83 97.50 180.97
  Q 101.87 160.54 113.29 141.22
  A 0.57 0.57 0.0 0 1 114.29 141.24
  L 117.34 147.02
  A 9.07 8.97 -79.2 0 0 118.38 148.57
  Q 126.60 158.47 139.07 162.58
  Z"
/>
<path fill="#ffffff" d="
  M 235.37 151.50
  A 3.39 3.39 0.0 0 1 238.75 154.90
  Q 238.73 164.56 236.95 178.49
  Q 235.17 192.38 229.09 204.88
  A 3.86 3.85 -68.2 0 1 224.46 206.87
  L 224.32 206.83
  A 3.37 3.36 -73.4 0 1 222.10 202.72
  C 223.13 199.06 226.00 193.47 227.32 188.64
  Q 231.74 172.48 231.67 155.01
  A 3.49 3.49 0.0 0 1 235.17 151.50
  L 235.37 151.50
  Z"
/>
<path fill="#f53158" d="
  M 116.01 240.04
  Q 111.99 213.88 122.07 190.81
  Q 128.25 176.66 138.84 164.58
  Q 139.48 163.85 139.07 162.58
  Q 142.63 163.09 145.72 164.93
  A 0.48 0.48 0.0 0 1 145.84 165.65
  Q 126.88 188.49 122.75 217.86
  C 121.69 225.44 121.95 232.37 121.64 240.10
  A 1.22 1.22 0.0 0 1 120.21 241.26
  Q 117.03 240.73 116.01 240.04
  Z"
/>
<circle fill="#ffffff" cx="215.34" cy="219.07" r="3.01"/>
<path fill="#ffffff" d="
  M 204.29 229.86
  A 1.58 1.58 0.0 0 1 206.49 230.27
  L 207.25 231.37
  A 6.68 4.14 -34.5 0 1 204.09 238.57
  L 192.15 246.77
  A 6.68 4.14 -34.5 0 1 184.30 247.14
  L 183.54 246.04
  A 1.58 1.58 0.0 0 1 183.95 243.84
  L 204.29 229.86
  Z"
/>
<path fill="#58a868" d="
  M 167.85 334.98
  Q 165.39 342.13 166.77 349.16
  Q 163.75 351.62 159.40 349.11
  C 157.25 347.88 153.08 342.33 151.53 339.36
  Q 143.21 323.44 140.95 313.31
  Q 138.33 301.59 137.50 289.77
  C 137.25 286.25 136.15 282.18 136.17 278.72
  Q 136.20 267.89 136.18 263.69
  A 0.45 0.44 -77.4 0 1 136.82 263.28
  Q 137.88 263.80 144.90 266.20
  C 147.90 267.23 151.80 267.26 155.04 269.28
  A 1.33 1.33 0.0 0 1 155.66 270.52
  Q 155.53 272.21 155.72 286.51
  C 155.95 303.78 159.40 320.01 167.85 334.98
  Z"
/>
<path fill="#58a868" d="
  M 119.30 296.58
  L 119.78 308.22
  Q 106.87 296.16 90.49 290.89
  C 85.89 289.41 81.53 297.33 84.74 300.79
  Q 86.93 303.15 89.37 303.94
  Q 99.65 307.29 107.70 314.52
  C 112.56 318.88 120.27 326.92 126.13 333.31
  Q 128.72 341.59 133.48 349.61
  Q 124.04 350.85 118.72 349.82
  Q 101.73 346.54 89.83 334.16
  C 82.79 326.83 76.47 317.33 70.98 308.70
  C 64.67 298.79 56.65 290.93 47.26 284.48
  Q 43.52 281.91 41.03 279.23
  A 1.20 1.20 0.0 0 1 41.18 277.47
  C 45.02 274.51 49.54 273.43 54.91 272.17
  C 60.21 270.92 66.10 271.24 72.49 271.40
  Q 75.58 271.48 77.20 272.05
  Q 80.01 273.05 85.18 274.26
  A 7.68 7.52 -25.6 0 1 86.44 274.69
  Q 95.14 278.57 97.12 279.61
  Q 109.87 286.32 119.30 296.58
  Z
  M 64.67 281.65
  Q 69.62 281.72 73.47 282.90
  C 76.19 283.74 78.98 283.52 79.35 280.44
  A 3.15 3.09 -74.0 0 0 77.62 277.26
  C 73.54 275.30 69.42 274.62 64.76 274.56
  C 60.10 274.50 55.97 275.08 51.84 276.93
  A 3.15 3.09 75.5 0 0 50.03 280.07
  C 50.33 283.16 53.11 283.45 55.85 282.68
  Q 59.72 281.59 64.67 281.65
  Z
  M 91.75 282.63
  A 3.28 3.28 0.0 0 0 88.47 279.35
  A 3.28 3.28 0.0 0 0 85.19 282.63
  A 3.28 3.28 0.0 0 0 88.47 285.91
  A 3.28 3.28 0.0 0 0 91.75 282.63
  Z"
/>
<path fill="#ffffff" d="
  M 64.76 274.56
  C 69.42 274.62 73.54 275.30 77.62 277.26
  A 3.15 3.09 -74.0 0 1 79.35 280.44
  C 78.98 283.52 76.19 283.74 73.47 282.90
  Q 69.62 281.72 64.67 281.65
  Q 59.72 281.59 55.85 282.68
  C 53.11 283.45 50.33 283.16 50.03 280.07
  A 3.15 3.09 75.5 0 1 51.84 276.93
  C 55.97 275.08 60.10 274.50 64.76 274.56
  Z"
/>
<circle fill="#ffffff" cx="88.47" cy="282.63" r="3.28"/>
<path fill="#58a868" d="
  M 192.45 317.20
  Q 193.24 315.24 195.66 312.39
  Q 207.79 298.19 224.95 290.85
  C 240.77 284.09 258.63 281.24 276.02 282.93
  Q 283.29 283.64 289.42 287.43
  A 1.17 1.17 0.0 0 1 289.85 288.95
  Q 288.21 292.16 285.68 294.92
  C 278.73 302.47 270.29 310.36 263.65 318.85
  Q 255.77 328.92 251.31 336.15
  Q 248.67 340.45 247.05 342.30
  C 244.97 344.66 243.36 347.42 240.51 349.82
  Q 234.08 355.22 229.54 358.14
  Q 228.14 359.04 222.78 361.24
  A 5.66 5.62 -59.3 0 1 221.31 361.62
  L 213.26 362.64
  A 8.29 8.27 48.2 0 1 210.27 362.47
  Q 207.82 361.86 204.74 361.93
  C 201.11 362.00 199.57 361.55 195.93 360.80
  A 9.17 8.83 -25.9 0 1 194.12 360.21
  Q 189.80 358.28 187.52 357.69
  C 183.03 356.54 181.20 353.82 180.99 349.77
  Q 180.78 345.57 182.05 342.84
  C 187.01 332.22 197.37 328.34 208.28 326.39
  Q 219.64 324.37 224.28 322.72
  Q 231.17 320.28 240.68 316.39
  A 3.75 3.43 -70.7 0 0 241.33 316.04
  L 256.23 305.86
  A 1.47 1.45 82.9 0 0 256.79 305.13
  C 258.61 300.17 256.10 294.07 249.88 296.24
  Q 244.23 298.21 239.95 301.49
  Q 234.56 305.65 231.80 306.79
  C 226.19 309.12 221.73 310.94 215.38 312.38
  Q 203.81 315.01 198.87 316.34
  Q 194.30 317.57 192.81 317.69
  A 0.36 0.36 0.0 0 1 192.45 317.20
  Z
  M 251.02 328.18
  A 3.07 3.07 0.0 0 0 247.95 325.11
  A 3.07 3.07 0.0 0 0 244.88 328.18
  A 3.07 3.07 0.0 0 0 247.95 331.25
  A 3.07 3.07 0.0 0 0 251.02 328.18
  Z
  M 192.44 352.39
  A 3.79 3.79 0.0 0 0 195.48 356.26
  Q 208.56 358.91 219.23 357.41
  C 228.59 356.11 235.07 349.52 241.05 342.93
  A 3.67 3.66 44.5 0 0 241.00 337.95
  L 240.96 337.90
  A 3.50 3.49 -43.0 0 0 236.05 337.73
  C 230.13 343.08 226.26 349.35 217.07 350.49
  Q 208.67 351.54 195.76 349.53
  A 2.88 2.88 0.0 0 0 192.44 352.26
  L 192.44 352.39
  Z"
/>
<path fill="#1f6f2b" d="
  M 119.78 308.22
  L 119.30 296.58
  C 124.44 301.35 125.26 307.20 125.38 313.51
  A 0.38 0.37 23.8 0 1 124.72 313.76
  L 119.78 308.22
  Z"
/>
<circle fill="#ffffff" cx="247.95" cy="328.18" r="3.07"/>
<path fill="#1f6f2b" d="
  M 133.48 349.61
  Q 128.72 341.59 126.13 333.31
  C 129.12 335.21 132.92 336.61 134.74 339.78
  Q 136.75 343.31 138.43 347.17
  A 0.58 0.58 0.0 0 1 138.10 347.94
  L 133.48 349.61
  Z"
/>
<path fill="#1f6f2b" d="
  M 166.77 349.16
  Q 165.39 342.13 167.85 334.98
  Q 170.29 337.85 169.09 342.56
  Q 168.03 346.71 166.77 349.16
  Z"
/>
<path fill="#ffffff" d="
  M 192.44 352.39
  L 192.44 352.26
  A 2.88 2.88 0.0 0 1 195.76 349.53
  Q 208.67 351.54 217.07 350.49
  C 226.26 349.35 230.13 343.08 236.05 337.73
  A 3.50 3.49 -43.0 0 1 240.96 337.90
  L 241.00 337.95
  A 3.67 3.66 44.5 0 1 241.05 342.93
  C 235.07 349.52 228.59 356.11 219.23 357.41
  Q 208.56 358.91 195.48 356.26
  A 3.79 3.79 0.0 0 1 192.44 352.39
  Z"
/>
</svg>
