<?xml version="1.0" encoding="UTF-8" standalone="no"?>
<!DOCTYPE svg PUBLIC "-//W3C//DTD SVG 1.1//EN" "http://www.w3.org/Graphics/SVG/1.1/DTD/svg11.dtd">
<svg xmlns="http://www.w3.org/2000/svg" version="1.1" viewBox="0.00 0.00 435.00 553.00">
<g stroke-width="2.00" fill="none" stroke-linecap="butt">
<path stroke="#7d4115" vector-effect="non-scaling-stroke" d="
  M 90.65 307.96
  Q 91.69 309.37 92.99 309.89
  A 0.66 0.65 25.8 0 0 93.79 309.62
  Q 99.07 300.95 104.12 296.36
  Q 117.24 284.43 135.32 279.34
  C 144.71 276.70 153.37 276.80 163.00 277.24
  Q 164.20 277.29 166.44 278.48
  A 2.07 2.04 58.9 0 0 167.42 278.73
  L 170.84 278.73
  A 1.10 1.08 63.9 0 1 171.52 278.97
  C 174.29 281.18 176.53 277.48 178.46 275.04
  A 1.26 1.26 0.0 0 0 178.69 273.92
  L 177.43 269.40"
/>
<path stroke="#805634" vector-effect="non-scaling-stroke" d="
  M 177.43 269.40
  C 171.83 260.23 163.23 259.78 152.54 258.47
  C 144.66 257.51 134.43 254.38 133.46 245.06
  Q 133.22 242.83 132.81 236.57
  C 132.47 231.53 131.25 229.07 128.74 224.05
  Q 126.72 220.03 129.02 214.84
  Q 129.41 213.96 132.72 211.30
  C 138.09 206.99 142.43 198.87 143.21 190.09
  A 1.65 1.65 0.0 0 0 141.86 188.31
  Q 140.99 188.15 135.63 186.85
  C 130.99 185.72 130.81 181.71 131.45 177.65
  C 131.92 174.63 135.53 172.94 138.45 172.80
  C 145.91 172.45 154.05 178.04 159.77 182.47
  Q 162.11 184.28 163.98 184.57
  C 172.88 185.99 178.27 181.64 185.42 176.46
  Q 189.08 173.80 192.62 172.65
  C 197.04 171.22 203.39 171.65 205.77 176.55
  Q 207.94 181.03 209.32 183.38
  A 5.09 4.76 10.6 0 0 209.99 184.29
  Q 212.99 187.52 217.70 189.09
  A 1.29 1.29 0.0 0 0 219.29 188.38
  Q 220.25 186.21 220.17 183.85
  C 220.04 179.86 222.16 178.23 225.87 177.30
  A 2.32 2.30 45.3 0 1 227.01 177.31
  Q 230.87 178.34 231.96 179.33
  C 234.18 181.34 234.68 185.73 234.65 188.77
  Q 234.63 191.00 233.11 195.03
  C 231.63 198.93 231.30 203.65 228.94 207.69
  C 226.70 211.54 223.07 218.84 223.66 223.51
  Q 224.49 230.16 229.61 238.51"
/>
<path stroke="#7d4115" vector-effect="non-scaling-stroke" d="
  M 229.61 238.51
  Q 229.82 239.32 231.27 241.04
  A 1.77 1.77 0.0 0 0 233.72 241.29
  Q 243.90 233.30 255.97 229.47
  Q 258.59 228.64 261.31 228.64
  A 1.77 1.75 -56.6 0 0 262.02 228.49
  L 264.55 227.43
  A 4.20 4.11 -55.9 0 1 266.17 227.10
  L 277.98 227.10
  A 1.45 1.39 -33.6 0 1 278.48 227.19
  L 282.13 228.49
  A 2.14 2.13 -71.4 0 0 284.88 227.12
  L 286.77 221.17"
/>
<path stroke="#805634" vector-effect="non-scaling-stroke" d="
  M 286.77 221.17
  Q 290.39 213.03 294.28 204.86
  Q 296.15 200.95 296.54 197.50
  Q 297.34 190.53 292.16 185.81
  Q 286.24 180.42 281.64 177.13
  C 270.33 169.02 266.82 156.92 264.06 142.67
  C 261.40 129.00 256.87 118.69 242.14 115.80
  Q 239.59 115.30 238.62 115.48
  C 234.03 116.36 229.39 117.88 225.93 120.52
  A 2.22 2.22 0.0 0 0 225.26 123.21
  Q 226.79 126.55 225.03 129.54
  C 223.81 131.61 223.15 132.64 220.80 133.06
  C 216.79 133.77 212.59 132.13 211.62 127.92
  C 210.69 123.87 208.59 121.08 204.87 118.90
  Q 196.62 114.06 187.51 111.27
  C 182.13 109.62 177.40 109.65 172.21 112.44
  C 166.20 115.66 160.91 119.69 155.58 123.25
  C 149.30 127.45 142.24 127.75 134.93 127.76
  C 132.55 127.76 127.89 126.89 126.26 127.46
  Q 123.29 128.49 120.79 128.71
  Q 116.92 129.04 115.28 129.57
  Q 107.80 131.98 103.29 138.16
  A 4.72 4.66 74.9 0 0 102.73 139.15
  Q 101.29 142.59 96.75 154.50
  Q 94.70 159.89 89.62 165.52
  C 85.53 170.06 80.06 173.23 75.53 176.76
  Q 72.43 179.18 67.48 185.00
  C 66.26 186.43 65.69 189.41 64.76 191.79
  A 4.97 4.93 56.1 0 0 64.41 193.62
  L 64.41 196.30
  A 4.01 3.99 -57.4 0 0 64.77 197.96
  C 65.84 200.38 66.22 202.84 67.50 205.28
  C 70.55 211.11 73.50 217.33 73.66 223.81
  Q 73.91 233.99 72.47 243.03
  Q 71.35 250.10 71.93 253.08
  Q 73.18 259.45 76.51 264.10
  A 0.55 0.55 0.0 0 0 77.48 263.91
  Q 78.32 260.63 79.00 255.52
  Q 79.64 250.75 83.42 249.42
  C 85.64 248.63 90.65 249.25 91.95 252.01
  C 93.59 255.48 92.92 260.99 92.22 265.17
  Q 91.78 267.74 89.76 272.62
  Q 87.13 278.96 86.94 279.96
  Q 86.91 280.13 86.02 281.50
  A 0.43 0.30 -34.7 0 0 85.99 281.58
  L 83.22 291.84
  A 4.96 4.93 46.9 0 0 83.15 294.18
  Q 84.88 302.59 90.65 307.96"
/>
<path stroke="#fd9749" vector-effect="non-scaling-stroke" d="
  M 286.77 221.17
  Q 282.93 222.56 281.13 222.39
  Q 270.46 221.40 265.00 221.92
  Q 244.73 223.86 229.61 238.51"
/>
<path stroke="#fd9749" vector-effect="non-scaling-stroke" d="
  M 177.43 269.40
  Q 171.98 274.52 164.51 273.87
  Q 163.18 273.75 158.67 273.10
  C 138.93 270.26 120.27 275.99 105.46 288.97
  C 101.54 292.40 97.44 297.76 94.19 301.69
  Q 91.82 304.57 90.65 307.96"
/>
<path stroke="#7b2103" vector-effect="non-scaling-stroke" d="
  M 240.91 275.62
  L 242.61 278.72
  A 0.50 0.50 0.0 0 0 243.42 278.82
  L 247.39 274.33
  A 1.25 1.11 -82.3 0 1 247.61 274.14
  L 249.77 272.65
  A 2.59 2.49 -72.7 0 1 250.28 272.37
  L 260.12 268.23
  A 6.40 6.30 -4.7 0 1 260.98 267.95
  Q 261.50 267.94 265.74 266.97
  Q 273.46 265.21 277.67 270.98"
/>
<path stroke="#7d4115" vector-effect="non-scaling-stroke" d="
  M 277.67 270.98
  Q 277.81 274.16 277.80 276.73
  Q 277.80 280.41 274.43 281.08
  Q 272.04 281.55 268.57 282.06
  C 261.51 283.08 254.81 287.28 249.76 292.50
  Q 246.27 296.11 246.14 301.27
  Q 246.02 306.33 247.06 310.97
  C 249.11 320.03 261.84 323.25 270.02 323.89
  Q 279.10 324.59 282.26 324.52
  C 298.26 324.16 310.62 316.28 319.07 302.88
  Q 322.48 297.47 324.80 292.56
  Q 334.00 273.02 335.10 270.49
  Q 337.06 265.99 340.36 261.22
  Q 345.15 254.31 347.87 248.62
  C 350.71 242.69 343.71 242.89 339.64 243.44
  C 332.68 244.39 322.53 247.32 314.57 247.25
  C 303.97 247.16 293.88 244.81 283.71 243.00
  C 278.05 241.99 272.89 242.41 266.74 242.32
  Q 264.50 242.28 260.64 243.66
  C 248.83 247.86 240.27 253.83 234.66 265.02
  A 1.34 1.33 -54.7 0 0 234.92 266.58
  Q 238.44 270.03 240.91 275.62"
/>
<path stroke="#f86218" vector-effect="non-scaling-stroke" d="
  M 277.67 270.98
  L 277.08 266.49
  A 0.76 0.60 -64.9 0 0 277.04 266.32
  Q 275.54 262.36 270.88 262.92
  Q 253.89 264.94 240.91 275.62"
/>
<path stroke="#7d4115" vector-effect="non-scaling-stroke" d="
  M 188.22 288.25
  C 188.92 290.15 190.31 291.78 191.17 293.63
  C 196.30 304.61 202.15 315.72 209.35 325.17
  A 2.72 2.71 -30.9 0 0 212.63 325.99
  Q 215.46 324.70 218.08 322.83
  C 221.19 320.61 225.45 318.80 229.15 316.45
  C 231.75 314.80 232.81 312.66 232.96 309.76
  Q 233.72 295.51 227.73 282.60
  C 225.37 277.51 219.14 270.68 213.01 274.54
  Q 210.72 275.98 204.47 279.92
  Q 201.20 281.99 193.65 283.84
  Q 191.68 284.32 188.48 287.19
  A 0.97 0.97 0.0 0 0 188.22 288.25"
/>
<path stroke="#7b2103" vector-effect="non-scaling-stroke" d="
  M 146.17 328.08
  Q 145.59 320.57 151.89 316.67
  Q 153.82 315.48 157.94 313.01
  A 2.63 2.35 18.5 0 1 158.52 312.76
  Q 160.50 312.20 162.10 311.02
  A 3.18 3.07 -72.6 0 1 162.83 310.62
  Q 170.81 307.56 178.89 307.24
  A 1.58 1.58 0.0 0 0 180.38 305.35
  Q 180.10 303.93 178.94 302.80"
/>
<path stroke="#7d4115" vector-effect="non-scaling-stroke" d="
  M 178.94 302.80
  Q 177.53 297.69 173.00 295.47
  C 171.28 294.63 169.42 294.93 167.84 293.60
  A 1.68 1.64 63.8 0 0 166.80 293.23
  Q 164.62 293.25 159.62 292.39
  Q 155.55 291.68 152.34 291.93
  Q 129.21 293.71 113.64 308.92
  Q 106.58 315.82 102.14 327.39
  C 101.77 328.37 101.27 329.29 100.69 330.14
  A 4.32 4.19 67.9 0 0 100.03 331.77
  Q 99.24 336.06 97.46 339.03
  A 5.99 5.86 -25.9 0 0 96.67 341.24
  Q 96.40 343.13 95.82 344.30
  C 91.53 353.12 88.12 360.36 82.67 367.65
  C 79.62 371.73 81.81 375.13 86.25 376.27
  Q 90.29 377.30 104.37 380.44
  C 123.25 384.65 144.43 385.42 162.85 379.55
  Q 168.45 377.76 171.40 375.90
  C 184.65 367.53 194.90 354.15 195.26 337.76
  C 195.41 330.44 190.47 321.45 182.00 321.98
  Q 171.70 322.62 163.01 328.49
  Q 159.95 330.56 157.49 332.14
  A 4.21 4.13 -67.9 0 1 156.36 332.63
  Q 148.99 334.54 146.17 328.08"
/>
<path stroke="#f86218" vector-effect="non-scaling-stroke" d="
  M 178.94 302.80
  C 166.85 304.03 153.49 308.43 145.04 317.55
  Q 141.88 320.96 142.01 323.27
  Q 142.17 326.12 146.17 328.08"
/>
<path stroke="#ffd5b4" vector-effect="non-scaling-stroke" d="
  M 230.39 131.53
  C 233.30 133.32 235.22 131.29 237.88 130.15
  C 247.39 126.09 248.60 144.87 249.27 150.73
  Q 249.51 152.82 250.90 155.98
  A 1.84 1.81 -85.1 0 0 251.53 156.74
  C 254.11 158.48 257.81 156.90 257.26 153.52
  Q 255.97 145.61 255.18 140.54
  C 253.53 129.88 246.74 118.21 234.02 124.27
  C 231.32 125.55 228.73 127.64 229.78 130.76
  A 1.50 1.49 6.9 0 0 230.39 131.53"
/>
<path stroke="#ffd5b4" vector-effect="non-scaling-stroke" d="
  M 78.06 203.99
  A 3.07 3.05 44.2 0 0 78.00 200.40
  C 76.48 198.39 74.81 197.54 74.78 194.46
  Q 74.75 190.66 81.97 185.48
  A 2.65 2.64 -39.7 0 0 82.34 181.50
  L 82.18 181.33
  A 3.81 3.81 0.0 0 0 77.52 180.65
  C 68.96 185.53 63.24 196.53 71.92 204.13
  C 73.74 205.72 76.63 206.04 78.06 203.99"
/>
<path stroke="#ffd5b4" vector-effect="non-scaling-stroke" d="
  M 276.78 218.60
  A 3.66 3.65 -75.7 0 0 280.99 216.10
  Q 283.52 208.02 283.99 204.23
  Q 285.46 192.29 277.13 183.59
  C 275.11 181.48 272.14 179.70 270.13 182.92
  A 2.73 2.55 -50.8 0 0 270.34 186.11
  C 274.37 190.49 277.54 195.23 277.26 201.30
  C 277.08 204.99 274.79 210.80 274.12 214.78
  A 3.32 3.32 0.0 0 0 276.73 218.59
  L 276.78 218.60"
/>
<path stroke="#ffd5b4" vector-effect="non-scaling-stroke" d="
  M 100.9673 270.3717
  A 3.41 3.41 0.0 0 0 98.8004 266.0635
  L 98.6675 266.0195
  A 3.41 3.41 0.0 0 0 94.3593 268.1863
  L 86.6727 291.4283
  A 3.41 3.41 0.0 0 0 88.8396 295.7365
  L 88.9725 295.7805
  A 3.41 3.41 0.0 0 0 93.2807 293.6137
  L 100.9673 270.3717"
/>
<path stroke="#fdc195" vector-effect="non-scaling-stroke" d="
  M 333.70 252.73
  C 328.83 254.17 322.89 266.34 320.67 271.15
  Q 313.89 285.91 312.93 287.65
  Q 309.43 294.02 306.95 296.71
  C 304.27 299.61 299.39 304.48 303.88 307.05
  C 306.81 308.73 310.22 304.76 311.91 302.65
  C 317.91 295.17 321.48 287.42 325.34 278.08
  Q 329.82 267.22 335.69 259.25
  Q 337.34 257.01 337.40 256.12
  C 337.51 254.23 335.85 252.10 333.70 252.73"
/>
<path stroke="#fdc195" vector-effect="non-scaling-stroke" d="
  M 294.7422 313.4927
  A 3.33 3.13 40.5 0 0 294.2428 308.9499
  A 3.33 3.13 40.5 0 0 289.6778 309.1673
  A 3.33 3.13 40.5 0 0 290.1772 313.7101
  A 3.33 3.13 40.5 0 0 294.7422 313.4927"
/>
<path stroke="#fdc195" vector-effect="non-scaling-stroke" d="
  M 86.79 369.55
  A 3.23 2.91 -23.1 0 0 90.78 370.91
  Q 92.32 370.30 94.14 368.36
  C 100.95 361.13 104.64 352.86 107.66 343.53
  Q 109.69 337.25 110.21 334.58
  A 3.36 3.36 0.0 0 0 107.62 330.67
  L 107.45 330.64
  A 3.62 3.62 0.0 0 0 103.20 333.20
  C 99.60 346.03 96.58 356.10 87.86 365.04
  Q 85.71 367.24 86.79 369.55"
/>
</g>
<path fill="#000000" d="
  M 70.88 279.52
  Q 70.76 279.28 66.89 275.13
  Q 55.54 262.97 57.17 246.01
  Q 57.74 240.10 58.83 232.76
  Q 59.17 230.49 58.67 223.83
  A 8.44 8.36 34.7 0 0 58.36 222.16
  Q 57.86 220.45 54.06 210.74
  Q 43.93 184.84 64.52 167.27
  C 73.15 159.90 81.78 155.00 85.76 144.02
  C 88.69 135.92 90.69 129.23 96.52 123.36
  Q 99.26 120.60 104.32 118.21
  C 110.59 115.26 116.51 113.38 123.49 113.60
  Q 129.36 113.79 136.72 113.61
  C 145.82 113.39 151.73 107.77 159.19 102.69
  C 178.74 89.37 198.33 97.42 216.00 108.28
  A 1.06 1.05 42.9 0 0 217.17 108.24
  Q 220.70 105.70 224.73 104.07
  Q 244.03 96.28 261.18 107.85
  C 275.20 117.30 276.92 132.97 280.36 148.43
  C 282.02 155.91 286.48 162.32 293.51 167.42
  C 299.58 171.83 305.88 176.91 309.26 184.02
  C 310.67 186.99 311.02 191.74 311.01 195.44
  Q 310.99 206.17 307.27 213.55
  Q 302.57 222.87 300.85 226.78
  Q 299.96 228.81 300.44 230.44
  A 0.96 0.94 87.7 0 0 301.14 231.10
  Q 306.92 232.40 314.98 232.17
  Q 318.75 232.07 326.82 230.44
  Q 337.08 228.37 348.02 228.73
  Q 352.40 228.87 354.44 230.06
  Q 364.56 235.91 363.33 247.30
  C 362.73 252.80 360.34 257.25 357.23 262.34
  Q 349.06 275.71 346.86 280.62
  C 341.01 293.62 337.19 302.48 330.97 312.67
  Q 316.25 336.82 287.24 339.20
  Q 274.71 340.23 262.25 338.06
  C 254.31 336.67 247.31 333.99 241.92 328.45
  A 2.08 2.06 -36.5 0 0 239.43 328.09
  C 236.48 329.73 228.35 333.97 223.02 337.43
  Q 217.54 341.00 210.33 341.54
  A 1.73 1.71 87.7 0 0 208.75 343.27
  C 208.81 353.09 203.96 363.81 197.91 371.64
  C 190.24 381.55 180.53 390.27 168.54 394.25
  Q 155.76 398.50 140.23 399.11
  A 5.59 5.25 35.5 0 0 139.19 399.25
  Q 134.39 400.32 131.48 399.12
  A 2.72 2.71 53.5 0 0 130.15 398.92
  Q 123.55 399.53 113.29 397.80
  Q 92.59 394.29 79.23 389.98
  Q 69.69 386.90 66.67 377.05
  C 64.72 370.69 67.39 363.32 71.11 358.04
  Q 79.15 346.64 84.82 330.57
  Q 85.71 328.03 86.13 325.32
  A 1.85 1.83 -66.4 0 0 85.47 323.61
  C 76.20 316.17 70.22 307.50 68.94 295.61
  C 68.51 291.55 69.42 288.10 69.74 284.34
  A 5.30 4.95 59.4 0 1 70.03 283.03
  L 70.94 280.51
  A 1.23 1.22 -48.7 0 0 70.88 279.52
  Z
  M 90.65 307.96
  Q 91.69 309.37 92.99 309.89
  A 0.66 0.65 25.8 0 0 93.79 309.62
  Q 99.07 300.95 104.12 296.36
  Q 117.24 284.43 135.32 279.34
  C 144.71 276.70 153.37 276.80 163.00 277.24
  Q 164.20 277.29 166.44 278.48
  A 2.07 2.04 58.9 0 0 167.42 278.73
  L 170.84 278.73
  A 1.10 1.08 63.9 0 1 171.52 278.97
  C 174.29 281.18 176.53 277.48 178.46 275.04
  A 1.26 1.26 0.0 0 0 178.69 273.92
  L 177.43 269.40
  C 171.83 260.23 163.23 259.78 152.54 258.47
  C 144.66 257.51 134.43 254.38 133.46 245.06
  Q 133.22 242.83 132.81 236.57
  C 132.47 231.53 131.25 229.07 128.74 224.05
  Q 126.72 220.03 129.02 214.84
  Q 129.41 213.96 132.72 211.30
  C 138.09 206.99 142.43 198.87 143.21 190.09
  A 1.65 1.65 0.0 0 0 141.86 188.31
  Q 140.99 188.15 135.63 186.85
  C 130.99 185.72 130.81 181.71 131.45 177.65
  C 131.92 174.63 135.53 172.94 138.45 172.80
  C 145.91 172.45 154.05 178.04 159.77 182.47
  Q 162.11 184.28 163.98 184.57
  C 172.88 185.99 178.27 181.64 185.42 176.46
  Q 189.08 173.80 192.62 172.65
  C 197.04 171.22 203.39 171.65 205.77 176.55
  Q 207.94 181.03 209.32 183.38
  A 5.09 4.76 10.6 0 0 209.99 184.29
  Q 212.99 187.52 217.70 189.09
  A 1.29 1.29 0.0 0 0 219.29 188.38
  Q 220.25 186.21 220.17 183.85
  C 220.04 179.86 222.16 178.23 225.87 177.30
  A 2.32 2.30 45.3 0 1 227.01 177.31
  Q 230.87 178.34 231.96 179.33
  C 234.18 181.34 234.68 185.73 234.65 188.77
  Q 234.63 191.00 233.11 195.03
  C 231.63 198.93 231.30 203.65 228.94 207.69
  C 226.70 211.54 223.07 218.84 223.66 223.51
  Q 224.49 230.16 229.61 238.51
  Q 229.82 239.32 231.27 241.04
  A 1.77 1.77 0.0 0 0 233.72 241.29
  Q 243.90 233.30 255.97 229.47
  Q 258.59 228.64 261.31 228.64
  A 1.77 1.75 -56.6 0 0 262.02 228.49
  L 264.55 227.43
  A 4.20 4.11 -55.9 0 1 266.17 227.10
  L 277.98 227.10
  A 1.45 1.39 -33.6 0 1 278.48 227.19
  L 282.13 228.49
  A 2.14 2.13 -71.4 0 0 284.88 227.12
  L 286.77 221.17
  Q 290.39 213.03 294.28 204.86
  Q 296.15 200.95 296.54 197.50
  Q 297.34 190.53 292.16 185.81
  Q 286.24 180.42 281.64 177.13
  C 270.33 169.02 266.82 156.92 264.06 142.67
  C 261.40 129.00 256.87 118.69 242.14 115.80
  Q 239.59 115.30 238.62 115.48
  C 234.03 116.36 229.39 117.88 225.93 120.52
  A 2.22 2.22 0.0 0 0 225.26 123.21
  Q 226.79 126.55 225.03 129.54
  C 223.81 131.61 223.15 132.64 220.80 133.06
  C 216.79 133.77 212.59 132.13 211.62 127.92
  C 210.69 123.87 208.59 121.08 204.87 118.90
  Q 196.62 114.06 187.51 111.27
  C 182.13 109.62 177.40 109.65 172.21 112.44
  C 166.20 115.66 160.91 119.69 155.58 123.25
  C 149.30 127.45 142.24 127.75 134.93 127.76
  C 132.55 127.76 127.89 126.89 126.26 127.46
  Q 123.29 128.49 120.79 128.71
  Q 116.92 129.04 115.28 129.57
  Q 107.80 131.98 103.29 138.16
  A 4.72 4.66 74.9 0 0 102.73 139.15
  Q 101.29 142.59 96.75 154.50
  Q 94.70 159.89 89.62 165.52
  C 85.53 170.06 80.06 173.23 75.53 176.76
  Q 72.43 179.18 67.48 185.00
  C 66.26 186.43 65.69 189.41 64.76 191.79
  A 4.97 4.93 56.1 0 0 64.41 193.62
  L 64.41 196.30
  A 4.01 3.99 -57.4 0 0 64.77 197.96
  C 65.84 200.38 66.22 202.84 67.50 205.28
  C 70.55 211.11 73.50 217.33 73.66 223.81
  Q 73.91 233.99 72.47 243.03
  Q 71.35 250.10 71.93 253.08
  Q 73.18 259.45 76.51 264.10
  A 0.55 0.55 0.0 0 0 77.48 263.91
  Q 78.32 260.63 79.00 255.52
  Q 79.64 250.75 83.42 249.42
  C 85.64 248.63 90.65 249.25 91.95 252.01
  C 93.59 255.48 92.92 260.99 92.22 265.17
  Q 91.78 267.74 89.76 272.62
  Q 87.13 278.96 86.94 279.96
  Q 86.91 280.13 86.02 281.50
  A 0.43 0.30 -34.7 0 0 85.99 281.58
  L 83.22 291.84
  A 4.96 4.93 46.9 0 0 83.15 294.18
  Q 84.88 302.59 90.65 307.96
  Z
  M 195.63 189.86
  A 1.23 1.22 -35.0 0 0 193.83 189.55
  Q 187.67 194.46 180.89 197.37
  C 173.53 200.53 165.05 200.48 157.58 198.99
  A 0.85 0.84 13.3 0 0 156.60 199.59
  C 154.53 206.85 150.72 215.07 145.18 220.67
  A 2.15 2.14 57.0 0 0 144.70 222.94
  L 146.27 227.05
  A 1.14 1.06 35.9 0 1 146.35 227.46
  Q 146.50 235.85 146.94 238.34
  Q 147.77 243.09 152.14 243.40
  C 163.91 244.23 178.16 247.02 186.22 255.52
  Q 188.84 258.28 191.41 265.49
  Q 192.02 267.19 192.68 267.57
  Q 193.90 268.28 195.06 267.54
  C 200.59 264.03 206.15 260.06 211.23 259.17
  Q 220.34 257.58 221.88 257.14
  A 1.59 1.59 0.0 0 0 222.76 254.73
  Q 219.66 250.09 217.14 246.49
  Q 211.71 238.72 209.71 228.43
  Q 207.33 216.20 213.36 205.17
  A 1.61 1.61 0.0 0 0 212.41 202.86
  Q 201.76 199.64 195.63 189.86
  Z
  M 240.91 275.62
  L 242.61 278.72
  A 0.50 0.50 0.0 0 0 243.42 278.82
  L 247.39 274.33
  A 1.25 1.11 -82.3 0 1 247.61 274.14
  L 249.77 272.65
  A 2.59 2.49 -72.7 0 1 250.28 272.37
  L 260.12 268.23
  A 6.40 6.30 -4.7 0 1 260.98 267.95
  Q 261.50 267.94 265.74 266.97
  Q 273.46 265.21 277.67 270.98
  Q 277.81 274.16 277.80 276.73
  Q 277.80 280.41 274.43 281.08
  Q 272.04 281.55 268.57 282.06
  C 261.51 283.08 254.81 287.28 249.76 292.50
  Q 246.27 296.11 246.14 301.27
  Q 246.02 306.33 247.06 310.97
  C 249.11 320.03 261.84 323.25 270.02 323.89
  Q 279.10 324.59 282.26 324.52
  C 298.26 324.16 310.62 316.28 319.07 302.88
  Q 322.48 297.47 324.80 292.56
  Q 334.00 273.02 335.10 270.49
  Q 337.06 265.99 340.36 261.22
  Q 345.15 254.31 347.87 248.62
  C 350.71 242.69 343.71 242.89 339.64 243.44
  C 332.68 244.39 322.53 247.32 314.57 247.25
  C 303.97 247.16 293.88 244.81 283.71 243.00
  C 278.05 241.99 272.89 242.41 266.74 242.32
  Q 264.50 242.28 260.64 243.66
  C 248.83 247.86 240.27 253.83 234.66 265.02
  A 1.34 1.33 -54.7 0 0 234.92 266.58
  Q 238.44 270.03 240.91 275.62
  Z
  M 188.22 288.25
  C 188.92 290.15 190.31 291.78 191.17 293.63
  C 196.30 304.61 202.15 315.72 209.35 325.17
  A 2.72 2.71 -30.9 0 0 212.63 325.99
  Q 215.46 324.70 218.08 322.83
  C 221.19 320.61 225.45 318.80 229.15 316.45
  C 231.75 314.80 232.81 312.66 232.96 309.76
  Q 233.72 295.51 227.73 282.60
  C 225.37 277.51 219.14 270.68 213.01 274.54
  Q 210.72 275.98 204.47 279.92
  Q 201.20 281.99 193.65 283.84
  Q 191.68 284.32 188.48 287.19
  A 0.97 0.97 0.0 0 0 188.22 288.25
  Z
  M 146.17 328.08
  Q 145.59 320.57 151.89 316.67
  Q 153.82 315.48 157.94 313.01
  A 2.63 2.35 18.5 0 1 158.52 312.76
  Q 160.50 312.20 162.10 311.02
  A 3.18 3.07 -72.6 0 1 162.83 310.62
  Q 170.81 307.56 178.89 307.24
  A 1.58 1.58 0.0 0 0 180.38 305.35
  Q 180.10 303.93 178.94 302.80
  Q 177.53 297.69 173.00 295.47
  C 171.28 294.63 169.42 294.93 167.84 293.60
  A 1.68 1.64 63.8 0 0 166.80 293.23
  Q 164.62 293.25 159.62 292.39
  Q 155.55 291.68 152.34 291.93
  Q 129.21 293.71 113.64 308.92
  Q 106.58 315.82 102.14 327.39
  C 101.77 328.37 101.27 329.29 100.69 330.14
  A 4.32 4.19 67.9 0 0 100.03 331.77
  Q 99.24 336.06 97.46 339.03
  A 5.99 5.86 -25.9 0 0 96.67 341.24
  Q 96.40 343.13 95.82 344.30
  C 91.53 353.12 88.12 360.36 82.67 367.65
  C 79.62 371.73 81.81 375.13 86.25 376.27
  Q 90.29 377.30 104.37 380.44
  C 123.25 384.65 144.43 385.42 162.85 379.55
  Q 168.45 377.76 171.40 375.90
  C 184.65 367.53 194.90 354.15 195.26 337.76
  C 195.41 330.44 190.47 321.45 182.00 321.98
  Q 171.70 322.62 163.01 328.49
  Q 159.95 330.56 157.49 332.14
  A 4.21 4.13 -67.9 0 1 156.36 332.63
  Q 148.99 334.54 146.17 328.08
  Z"
/>
<path fill="#ffab68" d="
  M 286.77 221.17
  Q 282.93 222.56 281.13 222.39
  Q 270.46 221.40 265.00 221.92
  Q 244.73 223.86 229.61 238.51
  Q 224.49 230.16 223.66 223.51
  C 223.07 218.84 226.70 211.54 228.94 207.69
  C 231.30 203.65 231.63 198.93 233.11 195.03
  Q 234.63 191.00 234.65 188.77
  C 234.68 185.73 234.18 181.34 231.96 179.33
  Q 230.87 178.34 227.01 177.31
  A 2.32 2.30 45.3 0 0 225.87 177.30
  C 222.16 178.23 220.04 179.86 220.17 183.85
  Q 220.25 186.21 219.29 188.38
  A 1.29 1.29 0.0 0 1 217.70 189.09
  Q 212.99 187.52 209.99 184.29
  A 5.09 4.76 10.6 0 1 209.32 183.38
  Q 207.94 181.03 205.77 176.55
  C 203.39 171.65 197.04 171.22 192.62 172.65
  Q 189.08 173.80 185.42 176.46
  C 178.27 181.64 172.88 185.99 163.98 184.57
  Q 162.11 184.28 159.77 182.47
  C 154.05 178.04 145.91 172.45 138.45 172.80
  C 135.53 172.94 131.92 174.63 131.45 177.65
  C 130.81 181.71 130.99 185.72 135.63 186.85
  Q 140.99 188.15 141.86 188.31
  A 1.65 1.65 0.0 0 1 143.21 190.09
  C 142.43 198.87 138.09 206.99 132.72 211.30
  Q 129.41 213.96 129.02 214.84
  Q 126.72 220.03 128.74 224.05
  C 131.25 229.07 132.47 231.53 132.81 236.57
  Q 133.22 242.83 133.46 245.06
  C 134.43 254.38 144.66 257.51 152.54 258.47
  C 163.23 259.78 171.83 260.23 177.43 269.40
  Q 171.98 274.52 164.51 273.87
  Q 163.18 273.75 158.67 273.10
  C 138.93 270.26 120.27 275.99 105.46 288.97
  C 101.54 292.40 97.44 297.76 94.19 301.69
  Q 91.82 304.57 90.65 307.96
  Q 84.88 302.59 83.15 294.18
  A 4.96 4.93 46.9 0 1 83.22 291.84
  L 85.99 281.58
  A 0.43 0.30 -34.7 0 1 86.02 281.50
  Q 86.91 280.13 86.94 279.96
  Q 87.13 278.96 89.76 272.62
  Q 91.78 267.74 92.22 265.17
  C 92.92 260.99 93.59 255.48 91.95 252.01
  C 90.65 249.25 85.64 248.63 83.42 249.42
  Q 79.64 250.75 79.00 255.52
  Q 78.32 260.63 77.48 263.91
  A 0.55 0.55 0.0 0 1 76.51 264.10
  Q 73.18 259.45 71.93 253.08
  Q 71.35 250.10 72.47 243.03
  Q 73.91 233.99 73.66 223.81
  C 73.50 217.33 70.55 211.11 67.50 205.28
  C 66.22 202.84 65.84 200.38 64.77 197.96
  A 4.01 3.99 -57.4 0 1 64.41 196.30
  L 64.41 193.62
  A 4.97 4.93 56.1 0 1 64.76 191.79
  C 65.69 189.41 66.26 186.43 67.48 185.00
  Q 72.43 179.18 75.53 176.76
  C 80.06 173.23 85.53 170.06 89.62 165.52
  Q 94.70 159.89 96.75 154.50
  Q 101.29 142.59 102.73 139.15
  A 4.72 4.66 74.9 0 1 103.29 138.16
  Q 107.80 131.98 115.28 129.57
  Q 116.92 129.04 120.79 128.71
  Q 123.29 128.49 126.26 127.46
  C 127.89 126.89 132.55 127.76 134.93 127.76
  C 142.24 127.75 149.30 127.45 155.58 123.25
  C 160.91 119.69 166.20 115.66 172.21 112.44
  C 177.40 109.65 182.13 109.62 187.51 111.27
  Q 196.62 114.06 204.87 118.90
  C 208.59 121.08 210.69 123.87 211.62 127.92
  C 212.59 132.13 216.79 133.77 220.80 133.06
  C 223.15 132.64 223.81 131.61 225.03 129.54
  Q 226.79 126.55 225.26 123.21
  A 2.22 2.22 0.0 0 1 225.93 120.52
  C 229.39 117.88 234.03 116.36 238.62 115.48
  Q 239.59 115.30 242.14 115.80
  C 256.87 118.69 261.40 129.00 264.06 142.67
  C 266.82 156.92 270.33 169.02 281.64 177.13
  Q 286.24 180.42 292.16 185.81
  Q 297.34 190.53 296.54 197.50
  Q 296.15 200.95 294.28 204.86
  Q 290.39 213.03 286.77 221.17
  Z
  M 230.39 131.53
  C 233.30 133.32 235.22 131.29 237.88 130.15
  C 247.39 126.09 248.60 144.87 249.27 150.73
  Q 249.51 152.82 250.90 155.98
  A 1.84 1.81 -85.1 0 0 251.53 156.74
  C 254.11 158.48 257.81 156.90 257.26 153.52
  Q 255.97 145.61 255.18 140.54
  C 253.53 129.88 246.74 118.21 234.02 124.27
  C 231.32 125.55 228.73 127.64 229.78 130.76
  A 1.50 1.49 6.9 0 0 230.39 131.53
  Z
  M 78.06 203.99
  A 3.07 3.05 44.2 0 0 78.00 200.40
  C 76.48 198.39 74.81 197.54 74.78 194.46
  Q 74.75 190.66 81.97 185.48
  A 2.65 2.64 -39.7 0 0 82.34 181.50
  L 82.18 181.33
  A 3.81 3.81 0.0 0 0 77.52 180.65
  C 68.96 185.53 63.24 196.53 71.92 204.13
  C 73.74 205.72 76.63 206.04 78.06 203.99
  Z
  M 276.78 218.60
  A 3.66 3.65 -75.7 0 0 280.99 216.10
  Q 283.52 208.02 283.99 204.23
  Q 285.46 192.29 277.13 183.59
  C 275.11 181.48 272.14 179.70 270.13 182.92
  A 2.73 2.55 -50.8 0 0 270.34 186.11
  C 274.37 190.49 277.54 195.23 277.26 201.30
  C 277.08 204.99 274.79 210.80 274.12 214.78
  A 3.32 3.32 0.0 0 0 276.73 218.59
  L 276.78 218.60
  Z
  M 100.9673 270.3717
  A 3.41 3.41 0.0 0 0 98.8004 266.0635
  L 98.6675 266.0195
  A 3.41 3.41 0.0 0 0 94.3593 268.1863
  L 86.6727 291.4283
  A 3.41 3.41 0.0 0 0 88.8396 295.7365
  L 88.9725 295.7805
  A 3.41 3.41 0.0 0 0 93.2807 293.6137
  L 100.9673 270.3717
  Z"
/>
<path fill="#ffffff" d="
  M 229.78 130.76
  C 228.73 127.64 231.32 125.55 234.02 124.27
  C 246.74 118.21 253.53 129.88 255.18 140.54
  Q 255.97 145.61 257.26 153.52
  C 257.81 156.90 254.11 158.48 251.53 156.74
  A 1.84 1.81 -85.1 0 1 250.90 155.98
  Q 249.51 152.82 249.27 150.73
  C 248.60 144.87 247.39 126.09 237.88 130.15
  C 235.22 131.29 233.30 133.32 230.39 131.53
  A 1.50 1.49 6.9 0 1 229.78 130.76
  Z"
/>
<path fill="#ffffff" d="
  M 78.06 203.99
  C 76.63 206.04 73.74 205.72 71.92 204.13
  C 63.24 196.53 68.96 185.53 77.52 180.65
  A 3.81 3.81 0.0 0 1 82.18 181.33
  L 82.34 181.50
  A 2.65 2.64 -39.7 0 1 81.97 185.48
  Q 74.75 190.66 74.78 194.46
  C 74.81 197.54 76.48 198.39 78.00 200.40
  A 3.07 3.05 44.2 0 1 78.06 203.99
  Z"
/>
<path fill="#ffffff" d="
  M 276.78 218.60
  L 276.73 218.59
  A 3.32 3.32 0.0 0 1 274.12 214.78
  C 274.79 210.80 277.08 204.99 277.26 201.30
  C 277.54 195.23 274.37 190.49 270.34 186.11
  A 2.73 2.55 -50.8 0 1 270.13 182.92
  C 272.14 179.70 275.11 181.48 277.13 183.59
  Q 285.46 192.29 283.99 204.23
  Q 283.52 208.02 280.99 216.10
  A 3.66 3.65 -75.7 0 1 276.78 218.60
  Z"
/>
<path fill="#fa822a" d="
  M 286.77 221.17
  L 284.88 227.12
  A 2.14 2.13 -71.4 0 1 282.13 228.49
  L 278.48 227.19
  A 1.45 1.39 -33.6 0 0 277.98 227.10
  L 266.17 227.10
  A 4.20 4.11 -55.9 0 0 264.55 227.43
  L 262.02 228.49
  A 1.77 1.75 -56.6 0 1 261.31 228.64
  Q 258.59 228.64 255.97 229.47
  Q 243.90 233.30 233.72 241.29
  A 1.77 1.77 0.0 0 1 231.27 241.04
  Q 229.82 239.32 229.61 238.51
  Q 244.73 223.86 265.00 221.92
  Q 270.46 221.40 281.13 222.39
  Q 282.93 222.56 286.77 221.17
  Z"
/>
<path fill="#fa822a" d="
  M 277.67 270.98
  L 277.08 266.49
  A 0.76 0.60 -64.9 0 0 277.04 266.32
  Q 275.54 262.36 270.88 262.92
  Q 253.89 264.94 240.91 275.62
  Q 238.44 270.03 234.92 266.58
  A 1.34 1.33 -54.7 0 1 234.66 265.02
  C 240.27 253.83 248.83 247.86 260.64 243.66
  Q 264.50 242.28 266.74 242.32
  C 272.89 242.41 278.05 241.99 283.71 243.00
  C 293.88 244.81 303.97 247.16 314.57 247.25
  C 322.53 247.32 332.68 244.39 339.64 243.44
  C 343.71 242.89 350.71 242.69 347.87 248.62
  Q 345.15 254.31 340.36 261.22
  Q 337.06 265.99 335.10 270.49
  Q 334.00 273.02 324.80 292.56
  Q 322.48 297.47 319.07 302.88
  C 310.62 316.28 298.26 324.16 282.26 324.52
  Q 279.10 324.59 270.02 323.89
  C 261.84 323.25 249.11 320.03 247.06 310.97
  Q 246.02 306.33 246.14 301.27
  Q 246.27 296.11 249.76 292.50
  C 254.81 287.28 261.51 283.08 268.57 282.06
  Q 272.04 281.55 274.43 281.08
  Q 277.80 280.41 277.80 276.73
  Q 277.81 274.16 277.67 270.98
  Z
  M 333.70 252.73
  C 328.83 254.17 322.89 266.34 320.67 271.15
  Q 313.89 285.91 312.93 287.65
  Q 309.43 294.02 306.95 296.71
  C 304.27 299.61 299.39 304.48 303.88 307.05
  C 306.81 308.73 310.22 304.76 311.91 302.65
  C 317.91 295.17 321.48 287.42 325.34 278.08
  Q 329.82 267.22 335.69 259.25
  Q 337.34 257.01 337.40 256.12
  C 337.51 254.23 335.85 252.10 333.70 252.73
  Z
  M 294.7422 313.4927
  A 3.33 3.13 40.5 0 0 294.2428 308.9499
  A 3.33 3.13 40.5 0 0 289.6778 309.1673
  A 3.33 3.13 40.5 0 0 290.1772 313.7101
  A 3.33 3.13 40.5 0 0 294.7422 313.4927
  Z"
/>
<path fill="#ffffff" d="
  M 333.70 252.73
  C 335.85 252.10 337.51 254.23 337.40 256.12
  Q 337.34 257.01 335.69 259.25
  Q 329.82 267.22 325.34 278.08
  C 321.48 287.42 317.91 295.17 311.91 302.65
  C 310.22 304.76 306.81 308.73 303.88 307.05
  C 299.39 304.48 304.27 299.61 306.95 296.71
  Q 309.43 294.02 312.93 287.65
  Q 313.89 285.91 320.67 271.15
  C 322.89 266.34 328.83 254.17 333.70 252.73
  Z"
/>
<path fill="#f54106" d="
  M 277.67 270.98
  Q 273.46 265.21 265.74 266.97
  Q 261.50 267.94 260.98 267.95
  A 6.40 6.30 -4.7 0 0 260.12 268.23
  L 250.28 272.37
  A 2.59 2.49 -72.7 0 0 249.77 272.65
  L 247.61 274.14
  A 1.25 1.11 -82.3 0 0 247.39 274.33
  L 243.42 278.82
  A 0.50 0.50 0.0 0 1 242.61 278.72
  L 240.91 275.62
  Q 253.89 264.94 270.88 262.92
  Q 275.54 262.36 277.04 266.32
  A 0.76 0.60 -64.9 0 1 277.08 266.49
  L 277.67 270.98
  Z"
/>
<rect fill="#ffffff" x="-3.48" y="-15.65" transform="translate(93.82,280.90) rotate(18.3)" width="6.96" height="31.30" rx="3.41"/>
<path fill="#fa822a" d="
  M 177.43 269.40
  L 178.69 273.92
  A 1.26 1.26 0.0 0 1 178.46 275.04
  C 176.53 277.48 174.29 281.18 171.52 278.97
  A 1.10 1.08 63.9 0 0 170.84 278.73
  L 167.42 278.73
  A 2.07 2.04 58.9 0 1 166.44 278.48
  Q 164.20 277.29 163.00 277.24
  C 153.37 276.80 144.71 276.70 135.32 279.34
  Q 117.24 284.43 104.12 296.36
  Q 99.07 300.95 93.79 309.62
  A 0.66 0.65 25.8 0 1 92.99 309.89
  Q 91.69 309.37 90.65 307.96
  Q 91.82 304.57 94.19 301.69
  C 97.44 297.76 101.54 292.40 105.46 288.97
  C 120.27 275.99 138.93 270.26 158.67 273.10
  Q 163.18 273.75 164.51 273.87
  Q 171.98 274.52 177.43 269.40
  Z"
/>
<path fill="#fa822a" d="
  M 188.48 287.19
  Q 191.68 284.32 193.65 283.84
  Q 201.20 281.99 204.47 279.92
  Q 210.72 275.98 213.01 274.54
  C 219.14 270.68 225.37 277.51 227.73 282.60
  Q 233.72 295.51 232.96 309.76
  C 232.81 312.66 231.75 314.80 229.15 316.45
  C 225.45 318.80 221.19 320.61 218.08 322.83
  Q 215.46 324.70 212.63 325.99
  A 2.72 2.71 -30.9 0 1 209.35 325.17
  C 202.15 315.72 196.30 304.61 191.17 293.63
  C 190.31 291.78 188.92 290.15 188.22 288.25
  A 0.97 0.97 0.0 0 1 188.48 287.19
  Z"
/>
<path fill="#fa822a" d="
  M 178.94 302.80
  C 166.85 304.03 153.49 308.43 145.04 317.55
  Q 141.88 320.96 142.01 323.27
  Q 142.17 326.12 146.17 328.08
  Q 148.99 334.54 156.36 332.63
  A 4.21 4.13 -67.9 0 0 157.49 332.14
  Q 159.95 330.56 163.01 328.49
  Q 171.70 322.62 182.00 321.98
  C 190.47 321.45 195.41 330.44 195.26 337.76
  C 194.90 354.15 184.65 367.53 171.40 375.90
  Q 168.45 377.76 162.85 379.55
  C 144.43 385.42 123.25 384.65 104.37 380.44
  Q 90.29 377.30 86.25 376.27
  C 81.81 375.13 79.62 371.73 82.67 367.65
  C 88.12 360.36 91.53 353.12 95.82 344.30
  Q 96.40 343.13 96.67 341.24
  A 5.99 5.86 -25.9 0 1 97.46 339.03
  Q 99.24 336.06 100.03 331.77
  A 4.32 4.19 67.9 0 1 100.69 330.14
  C 101.27 329.29 101.77 328.37 102.14 327.39
  Q 106.58 315.82 113.64 308.92
  Q 129.21 293.71 152.34 291.93
  Q 155.55 291.68 159.62 292.39
  Q 164.62 293.25 166.80 293.23
  A 1.68 1.64 63.8 0 1 167.84 293.60
  C 169.42 294.93 171.28 294.63 173.00 295.47
  Q 177.53 297.69 178.94 302.80
  Z
  M 86.79 369.55
  A 3.23 2.91 -23.1 0 0 90.78 370.91
  Q 92.32 370.30 94.14 368.36
  C 100.95 361.13 104.64 352.86 107.66 343.53
  Q 109.69 337.25 110.21 334.58
  A 3.36 3.36 0.0 0 0 107.62 330.67
  L 107.45 330.64
  A 3.62 3.62 0.0 0 0 103.20 333.20
  C 99.60 346.03 96.58 356.10 87.86 365.04
  Q 85.71 367.24 86.79 369.55
  Z"
/>
<path fill="#f54106" d="
  M 178.94 302.80
  Q 180.10 303.93 180.38 305.35
  A 1.58 1.58 0.0 0 1 178.89 307.24
  Q 170.81 307.56 162.83 310.62
  A 3.18 3.07 -72.6 0 0 162.10 311.02
  Q 160.50 312.20 158.52 312.76
  A 2.63 2.35 18.5 0 0 157.94 313.01
  Q 153.82 315.48 151.89 316.67
  Q 145.59 320.57 146.17 328.08
  Q 142.17 326.12 142.01 323.27
  Q 141.88 320.96 145.04 317.55
  C 153.49 308.43 166.85 304.03 178.94 302.80
  Z"
/>
<ellipse fill="#ffffff" cx="0.00" cy="0.00" transform="translate(292.21,311.33) rotate(40.5)" rx="3.33" ry="3.13"/>
<path fill="#ffffff" d="
  M 86.79 369.55
  Q 85.71 367.24 87.86 365.04
  C 96.58 356.10 99.60 346.03 103.20 333.20
  A 3.62 3.62 0.0 0 1 107.45 330.64
  L 107.62 330.67
  A 3.36 3.36 0.0 0 1 110.21 334.58
  Q 109.69 337.25 107.66 343.53
  C 104.64 352.86 100.95 361.13 94.14 368.36
  Q 92.32 370.30 90.78 370.91
  A 3.23 2.91 -23.1 0 1 86.79 369.55
  Z"
/>
</svg>
