<?xml version="1.0" encoding="UTF-8" standalone="no"?>
<!DOCTYPE svg PUBLIC "-//W3C//DTD SVG 1.1//EN" "http://www.w3.org/Graphics/SVG/1.1/DTD/svg11.dtd">
<svg xmlns="http://www.w3.org/2000/svg" version="1.1" viewBox="0.00 0.00 328.00 557.00">
<g stroke-width="2.00" fill="none" stroke-linecap="butt">
<path stroke="#636363" vector-effect="non-scaling-stroke" d="
  M 190.57 160.02
  L 193.88 157.09
  A 8.11 8.09 83.4 0 0 195.63 154.88
  Q 195.73 154.68 197.66 150.00
  Q 198.36 148.30 197.81 145.38
  Q 195.92 135.43 185.49 132.87
  Q 177.98 131.03 168.24 131.34
  Q 147.62 131.99 127.63 135.37
  Q 123.37 136.09 101.38 142.47
  C 87.99 146.35 72.97 150.89 61.73 159.01
  Q 57.09 162.36 54.69 166.18
  C 52.07 170.35 53.13 175.43 55.31 179.65
  C 60.49 189.71 79.16 189.33 88.46 188.37
  Q 99.36 187.25 126.06 182.57
  C 134.15 181.16 146.85 177.09 157.38 174.45
  Q 165.79 172.33 167.59 171.59
  Q 174.13 168.91 182.29 165.36
  A 1.79 1.26 -5.7 0 0 182.50 165.25
  L 190.01 160.44
  A 4.64 4.03 4.1 0 0 190.57 160.02"
/>
<path stroke="#154971" vector-effect="non-scaling-stroke" d="
  M 202.21 174.36
  A 0.49 0.49 0.0 0 0 201.70 173.64
  L 196.22 174.64
  A 2.55 2.27 -61.4 0 0 195.47 174.91
  Q 184.99 180.84 183.80 181.32
  Q 166.40 188.25 147.54 192.53
  Q 134.52 195.48 117.90 199.12
  C 111.88 200.44 104.43 201.22 100.16 201.97
  C 90.27 203.73 77.07 203.20 69.64 203.12
  Q 64.45 203.06 61.75 207.74
  C 58.19 213.94 57.51 219.34 57.54 226.75
  Q 57.58 237.81 59.89 250.96
  Q 63.71 272.74 68.43 292.04
  A 0.52 0.52 0.0 0 0 69.30 292.28
  Q 71.85 289.70 76.00 286.75
  C 81.04 283.18 85.73 279.99 91.64 276.88
  Q 103.16 270.82 103.75 270.50
  Q 116.67 263.74 123.83 252.10
  Q 128.32 244.82 132.56 237.56
  Q 141.56 222.16 155.41 211.62
  C 165.97 203.58 178.75 199.24 189.08 190.80
  C 194.10 186.71 199.48 179.30 202.21 174.36"
/>
<path stroke="#808080" vector-effect="non-scaling-stroke" d="
  M 210.29 177.81
  C 204.51 189.13 194.45 198.91 183.72 205.22
  Q 171.27 212.55 164.58 216.83
  C 156.38 222.06 149.15 229.41 143.50 238.28
  C 137.49 247.72 132.17 256.98 126.26 263.76
  Q 119.14 271.93 109.75 276.99
  Q 96.53 284.12 93.20 285.72
  C 84.68 289.81 78.12 295.59 72.20 301.75
  A 1.77 1.74 -24.5 0 0 71.72 303.00
  Q 71.86 309.31 75.20 314.76
  A 1.27 1.26 -37.0 0 0 77.14 315.03
  Q 87.21 305.67 98.52 298.22
  C 112.13 289.27 126.80 285.74 136.63 272.62
  Q 140.05 268.06 150.70 252.91
  C 159.22 240.82 169.20 228.36 181.80 220.79
  Q 195.51 212.55 199.15 210.16
  Q 208.27 204.15 216.63 193.84
  C 217.72 192.49 218.89 191.42 218.19 189.53
  Q 215.73 182.94 211.00 177.72
  A 0.43 0.43 0.0 0 0 210.29 177.81"
/>
<path stroke="#6a1d23" vector-effect="non-scaling-stroke" d="
  M 221.39 200.56
  Q 210.73 212.16 203.01 217.27
  Q 197.67 220.80 185.31 228.31
  C 168.84 238.31 158.19 255.89 146.41 273.19
  Q 137.08 286.91 122.48 293.97
  C 110.60 299.71 102.64 303.49 94.59 309.85
  Q 89.38 313.97 78.88 323.95
  A 1.03 1.01 -28.1 0 0 78.59 324.88
  C 81.36 338.46 86.16 351.43 97.14 360.20
  A 0.47 0.46 -54.1 0 0 97.82 360.09
  Q 100.20 356.43 101.19 354.92
  C 109.76 341.80 123.07 335.33 138.56 327.53
  Q 156.71 318.38 170.74 299.23
  C 179.01 287.94 187.21 275.29 197.96 264.43
  C 204.02 258.31 213.28 251.80 219.07 246.82
  Q 225.19 241.56 231.60 233.89
  A 1.44 1.42 -33.9 0 0 231.87 232.55
  L 222.37 200.79
  A 0.58 0.57 57.8 0 0 221.39 200.56"
/>
<path stroke="#808080" vector-effect="non-scaling-stroke" d="
  M 234.77 242.81
  A 0.26 0.25 56.2 0 0 234.33 242.72
  C 226.15 252.59 214.50 260.49 205.90 267.88
  Q 198.65 274.12 190.29 285.29
  C 183.71 294.09 178.31 303.05 171.39 310.93
  C 165.36 317.81 158.99 325.21 151.72 329.50
  Q 144.15 333.96 132.14 339.64
  C 120.56 345.12 110.65 352.20 104.23 363.50
  A 0.78 0.77 29.1 0 0 104.54 364.57
  Q 107.78 366.30 111.35 367.09
  Q 117.23 368.41 123.13 369.76
  A 1.21 1.19 -64.9 0 0 124.35 369.31
  C 131.03 360.38 138.43 355.87 149.49 350.04
  Q 166.41 341.13 177.84 326.08
  Q 180.77 322.22 187.71 310.62
  C 198.07 293.31 210.09 278.35 225.96 265.94
  Q 235.96 258.13 237.45 256.60
  A 2.69 2.69 0.0 0 0 238.11 253.95
  L 234.77 242.81"
/>
<path stroke="#808080" vector-effect="non-scaling-stroke" d="
  M 230.30 272.65
  Q 229.25 274.03 227.13 275.02"
/>
<path stroke="#154971" vector-effect="non-scaling-stroke" d="
  M 227.13 275.02
  Q 210.85 288.47 199.05 307.11
  Q 194.20 314.78 192.34 318.35
  Q 184.95 332.54 174.58 343.31
  C 167.02 351.15 158.50 354.52 147.54 359.53
  Q 139.24 363.33 133.21 369.76
  A 0.69 0.69 0.0 0 0 133.51 370.89
  Q 137.93 372.23 143.04 371.10
  A 7.16 5.79 -25.4 0 1 144.02 370.96
  Q 166.84 369.36 171.40 368.37
  Q 185.94 365.19 196.23 361.18
  Q 196.68 361.01 205.66 357.32
  C 215.57 353.25 224.13 347.86 232.23 340.72
  Q 243.17 331.09 245.71 317.40
  Q 247.01 310.37 245.23 298.18
  Q 243.45 286.05 241.53 275.64
  Q 240.79 271.67 240.40 270.78
  Q 239.32 268.34 239.49 266.05
  A 0.38 0.37 -17.2 0 0 238.88 265.73
  L 230.30 272.65"
/>
<path stroke="#94c8f0" vector-effect="non-scaling-stroke" d="
  M 227.13 275.02
  Q 229.62 289.33 232.42 304.04
  Q 234.53 315.13 228.12 324.16
  C 225.75 327.50 221.97 331.19 226.23 333.88
  C 228.58 335.37 231.02 332.97 232.40 331.24
  Q 242.46 318.58 239.55 303.03
  Q 237.26 290.77 233.94 275.92
  Q 233.60 274.40 230.30 272.65"
/>
<path stroke="#636363" vector-effect="non-scaling-stroke" d="
  M 183.76 147.55
  L 183.76 142.30
  A 1.55 1.53 -75.4 0 0 182.99 140.96
  Q 178.69 138.48 175.01 140.10
  Q 153.01 149.75 128.08 154.62
  C 114.84 157.20 106.23 159.66 93.88 161.44
  C 85.60 162.63 77.56 162.55 70.25 163.46
  Q 68.03 163.73 66.60 164.95
  A 1.50 1.49 -20.4 0 0 66.07 166.09
  L 66.07 171.83
  A 1.21 1.20 -71.2 0 0 66.53 172.78
  Q 68.22 174.15 69.55 174.25
  Q 74.37 174.59 76.76 174.98
  A 4.21 4.14 43.4 0 0 78.25 174.95
  C 82.10 174.16 86.08 174.68 89.74 173.99
  C 96.82 172.66 104.29 172.10 110.99 170.73
  Q 119.58 168.96 140.75 164.20
  Q 159.93 159.88 178.19 152.12
  Q 179.55 151.55 183.20 148.70
  A 1.47 1.46 -19.1 0 0 183.76 147.55"
/>
<path stroke="#e2e2e2" vector-effect="non-scaling-stroke" d="
  M 188.32 149.28
  L 167.90 162.04
  A 1.58 1.58 0.0 0 0 167.40 164.21
  L 168.07 165.30
  A 7.55 4.20 -32.0 0 0 176.70 164.86
  L 187.00 158.43
  A 7.55 4.20 -32.0 0 0 191.18 150.86
  L 190.50 149.78
  A 1.58 1.58 0.0 0 0 188.32 149.28"
/>
<path stroke="#e2e2e2" vector-effect="non-scaling-stroke" d="
  M 158.7500 167.7588
  A 3.20 3.20 0.0 0 0 154.8034 165.5441
  L 146.5435 167.8659
  A 3.20 3.20 0.0 0 0 144.3288 171.8124
  L 144.4100 172.1012
  A 3.20 3.20 0.0 0 0 148.3566 174.3159
  L 156.6165 171.9941
  A 3.20 3.20 0.0 0 0 158.8312 168.0476
  L 158.7500 167.7588"
/>
<path stroke="#ea9ca2" vector-effect="non-scaling-stroke" d="
  M 219.3687 215.2741
  A 3.39 3.39 0.0 0 0 215.3075 212.7265
  L 215.0930 212.7756
  A 3.39 3.39 0.0 0 0 212.5454 216.8369
  L 216.7113 235.0259
  A 3.39 3.39 0.0 0 0 220.7725 237.5735
  L 220.9870 237.5244
  A 3.39 3.39 0.0 0 0 223.5346 233.4631
  L 219.3687 215.2741"
/>
</g>
<path fill="#000000" d="
  M 210.08 160.51
  A 1.10 1.09 27.8 0 0 210.50 161.86
  Q 212.07 162.89 213.74 163.34
  A 4.52 4.49 -15.0 0 1 215.78 164.51
  L 224.98 173.72
  A 16.83 16.79 10.3 0 1 228.35 178.58
  C 229.81 181.77 232.96 186.39 234.65 191.06
  C 241.57 210.11 247.88 230.95 251.86 252.03
  C 255.78 272.78 258.73 288.52 259.88 305.00
  C 260.45 313.10 259.49 323.24 256.52 331.04
  Q 252.26 342.21 242.03 352.05
  Q 241.12 352.92 235.75 356.25
  C 231.34 358.99 226.71 363.60 222.49 365.99
  Q 210.85 372.58 198.11 376.60
  C 188.60 379.60 182.70 381.88 175.29 382.86
  Q 163.04 384.48 153.25 385.08
  Q 149.83 385.28 127.87 385.13
  A 7.23 6.99 50.4 0 1 126.52 384.98
  C 123.04 384.25 120.58 383.70 117.35 383.31
  Q 115.23 383.06 113.19 382.31
  Q 108.68 380.66 95.73 375.29
  Q 94.37 374.72 91.75 373.83
  Q 88.31 372.65 85.34 370.07
  C 75.72 361.69 70.46 350.94 66.58 338.92
  Q 62.03 324.81 57.13 307.29
  Q 51.86 288.43 49.81 278.67
  Q 45.93 260.23 43.93 247.22
  Q 41.68 232.55 42.04 222.54
  Q 42.27 216.06 44.73 207.72
  C 45.83 203.98 47.74 201.08 49.59 197.83
  A 0.96 0.95 -54.4 0 0 49.40 196.65
  C 41.92 189.90 35.78 176.98 38.54 166.60
  Q 39.63 162.46 40.98 159.38
  C 45.83 148.27 61.03 140.87 71.65 136.67
  Q 85.40 131.24 95.98 128.26
  Q 105.21 125.66 124.27 121.39
  Q 130.62 119.97 140.08 118.88
  C 154.75 117.19 164.15 116.14 175.75 116.44
  Q 181.43 116.58 189.43 118.57
  C 199.91 121.17 208.21 127.59 211.35 137.85
  Q 212.71 142.30 212.61 145.89
  Q 212.51 149.34 212.51 154.18
  A 2.96 2.84 57.9 0 1 212.27 155.34
  L 210.08 160.51
  Z
  M 190.57 160.02
  L 193.88 157.09
  A 8.11 8.09 83.4 0 0 195.63 154.88
  Q 195.73 154.68 197.66 150.00
  Q 198.36 148.30 197.81 145.38
  Q 195.92 135.43 185.49 132.87
  Q 177.98 131.03 168.24 131.34
  Q 147.62 131.99 127.63 135.37
  Q 123.37 136.09 101.38 142.47
  C 87.99 146.35 72.97 150.89 61.73 159.01
  Q 57.09 162.36 54.69 166.18
  C 52.07 170.35 53.13 175.43 55.31 179.65
  C 60.49 189.71 79.16 189.33 88.46 188.37
  Q 99.36 187.25 126.06 182.57
  C 134.15 181.16 146.85 177.09 157.38 174.45
  Q 165.79 172.33 167.59 171.59
  Q 174.13 168.91 182.29 165.36
  A 1.79 1.26 -5.7 0 0 182.50 165.25
  L 190.01 160.44
  A 4.64 4.03 4.1 0 0 190.57 160.02
  Z
  M 202.21 174.36
  A 0.49 0.49 0.0 0 0 201.70 173.64
  L 196.22 174.64
  A 2.55 2.27 -61.4 0 0 195.47 174.91
  Q 184.99 180.84 183.80 181.32
  Q 166.40 188.25 147.54 192.53
  Q 134.52 195.48 117.90 199.12
  C 111.88 200.44 104.43 201.22 100.16 201.97
  C 90.27 203.73 77.07 203.20 69.64 203.12
  Q 64.45 203.06 61.75 207.74
  C 58.19 213.94 57.51 219.34 57.54 226.75
  Q 57.58 237.81 59.89 250.96
  Q 63.71 272.74 68.43 292.04
  A 0.52 0.52 0.0 0 0 69.30 292.28
  Q 71.85 289.70 76.00 286.75
  C 81.04 283.18 85.73 279.99 91.64 276.88
  Q 103.16 270.82 103.75 270.50
  Q 116.67 263.74 123.83 252.10
  Q 128.32 244.82 132.56 237.56
  Q 141.56 222.16 155.41 211.62
  C 165.97 203.58 178.75 199.24 189.08 190.80
  C 194.10 186.71 199.48 179.30 202.21 174.36
  Z
  M 210.29 177.81
  C 204.51 189.13 194.45 198.91 183.72 205.22
  Q 171.27 212.55 164.58 216.83
  C 156.38 222.06 149.15 229.41 143.50 238.28
  C 137.49 247.72 132.17 256.98 126.26 263.76
  Q 119.14 271.93 109.75 276.99
  Q 96.53 284.12 93.20 285.72
  C 84.68 289.81 78.12 295.59 72.20 301.75
  A 1.77 1.74 -24.5 0 0 71.72 303.00
  Q 71.86 309.31 75.20 314.76
  A 1.27 1.26 -37.0 0 0 77.14 315.03
  Q 87.21 305.67 98.52 298.22
  C 112.13 289.27 126.80 285.74 136.63 272.62
  Q 140.05 268.06 150.70 252.91
  C 159.22 240.82 169.20 228.36 181.80 220.79
  Q 195.51 212.55 199.15 210.16
  Q 208.27 204.15 216.63 193.84
  C 217.72 192.49 218.89 191.42 218.19 189.53
  Q 215.73 182.94 211.00 177.72
  A 0.43 0.43 0.0 0 0 210.29 177.81
  Z
  M 221.39 200.56
  Q 210.73 212.16 203.01 217.27
  Q 197.67 220.80 185.31 228.31
  C 168.84 238.31 158.19 255.89 146.41 273.19
  Q 137.08 286.91 122.48 293.97
  C 110.60 299.71 102.64 303.49 94.59 309.85
  Q 89.38 313.97 78.88 323.95
  A 1.03 1.01 -28.1 0 0 78.59 324.88
  C 81.36 338.46 86.16 351.43 97.14 360.20
  A 0.47 0.46 -54.1 0 0 97.82 360.09
  Q 100.20 356.43 101.19 354.92
  C 109.76 341.80 123.07 335.33 138.56 327.53
  Q 156.71 318.38 170.74 299.23
  C 179.01 287.94 187.21 275.29 197.96 264.43
  C 204.02 258.31 213.28 251.80 219.07 246.82
  Q 225.19 241.56 231.60 233.89
  A 1.44 1.42 -33.9 0 0 231.87 232.55
  L 222.37 200.79
  A 0.58 0.57 57.8 0 0 221.39 200.56
  Z
  M 234.77 242.81
  A 0.26 0.25 56.2 0 0 234.33 242.72
  C 226.15 252.59 214.50 260.49 205.90 267.88
  Q 198.65 274.12 190.29 285.29
  C 183.71 294.09 178.31 303.05 171.39 310.93
  C 165.36 317.81 158.99 325.21 151.72 329.50
  Q 144.15 333.96 132.14 339.64
  C 120.56 345.12 110.65 352.20 104.23 363.50
  A 0.78 0.77 29.1 0 0 104.54 364.57
  Q 107.78 366.30 111.35 367.09
  Q 117.23 368.41 123.13 369.76
  A 1.21 1.19 -64.9 0 0 124.35 369.31
  C 131.03 360.38 138.43 355.87 149.49 350.04
  Q 166.41 341.13 177.84 326.08
  Q 180.77 322.22 187.71 310.62
  C 198.07 293.31 210.09 278.35 225.96 265.94
  Q 235.96 258.13 237.45 256.60
  A 2.69 2.69 0.0 0 0 238.11 253.95
  L 234.77 242.81
  Z
  M 230.30 272.65
  Q 229.25 274.03 227.13 275.02
  Q 210.85 288.47 199.05 307.11
  Q 194.20 314.78 192.34 318.35
  Q 184.95 332.54 174.58 343.31
  C 167.02 351.15 158.50 354.52 147.54 359.53
  Q 139.24 363.33 133.21 369.76
  A 0.69 0.69 0.0 0 0 133.51 370.89
  Q 137.93 372.23 143.04 371.10
  A 7.16 5.79 -25.4 0 1 144.02 370.96
  Q 166.84 369.36 171.40 368.37
  Q 185.94 365.19 196.23 361.18
  Q 196.68 361.01 205.66 357.32
  C 215.57 353.25 224.13 347.86 232.23 340.72
  Q 243.17 331.09 245.71 317.40
  Q 247.01 310.37 245.23 298.18
  Q 243.45 286.05 241.53 275.64
  Q 240.79 271.67 240.40 270.78
  Q 239.32 268.34 239.49 266.05
  A 0.38 0.37 -17.2 0 0 238.88 265.73
  L 230.30 272.65
  Z"
/>
<path fill="#c5c5c5" d="
  M 190.01 160.44
  L 182.50 165.25
  A 1.79 1.26 -5.7 0 1 182.29 165.36
  Q 174.13 168.91 167.59 171.59
  Q 165.79 172.33 157.38 174.45
  C 146.85 177.09 134.15 181.16 126.06 182.57
  Q 99.36 187.25 88.46 188.37
  C 79.16 189.33 60.49 189.71 55.31 179.65
  C 53.13 175.43 52.07 170.35 54.69 166.18
  Q 57.09 162.36 61.73 159.01
  C 72.97 150.89 87.99 146.35 101.38 142.47
  Q 123.37 136.09 127.63 135.37
  Q 147.62 131.99 168.24 131.34
  Q 177.98 131.03 185.49 132.87
  Q 195.92 135.43 197.81 145.38
  Q 198.36 148.30 197.66 150.00
  Q 195.73 154.68 195.63 154.88
  A 8.11 8.09 83.4 0 1 193.88 157.09
  L 190.57 160.02
  A 4.64 4.03 4.1 0 1 190.01 160.44
  Z
  M 183.76 147.55
  L 183.76 142.30
  A 1.55 1.53 -75.4 0 0 182.99 140.96
  Q 178.69 138.48 175.01 140.10
  Q 153.01 149.75 128.08 154.62
  C 114.84 157.20 106.23 159.66 93.88 161.44
  C 85.60 162.63 77.56 162.55 70.25 163.46
  Q 68.03 163.73 66.60 164.95
  A 1.50 1.49 -20.4 0 0 66.07 166.09
  L 66.07 171.83
  A 1.21 1.20 -71.2 0 0 66.53 172.78
  Q 68.22 174.15 69.55 174.25
  Q 74.37 174.59 76.76 174.98
  A 4.21 4.14 43.4 0 0 78.25 174.95
  C 82.10 174.16 86.08 174.68 89.74 173.99
  C 96.82 172.66 104.29 172.10 110.99 170.73
  Q 119.58 168.96 140.75 164.20
  Q 159.93 159.88 178.19 152.12
  Q 179.55 151.55 183.20 148.70
  A 1.47 1.46 -19.1 0 0 183.76 147.55
  Z
  M 188.32 149.28
  L 167.90 162.04
  A 1.58 1.58 0.0 0 0 167.40 164.21
  L 168.07 165.30
  A 7.55 4.20 -32.0 0 0 176.70 164.86
  L 187.00 158.43
  A 7.55 4.20 -32.0 0 0 191.18 150.86
  L 190.50 149.78
  A 1.58 1.58 0.0 0 0 188.32 149.28
  Z
  M 158.7500 167.7588
  A 3.20 3.20 0.0 0 0 154.8034 165.5441
  L 146.5435 167.8659
  A 3.20 3.20 0.0 0 0 144.3288 171.8124
  L 144.4100 172.1012
  A 3.20 3.20 0.0 0 0 148.3566 174.3159
  L 156.6165 171.9941
  A 3.20 3.20 0.0 0 0 158.8312 168.0476
  L 158.7500 167.7588
  Z"
/>
<path fill="#000000" d="
  M 183.20 148.70
  Q 179.55 151.55 178.19 152.12
  Q 159.93 159.88 140.75 164.20
  Q 119.58 168.96 110.99 170.73
  C 104.29 172.10 96.82 172.66 89.74 173.99
  C 86.08 174.68 82.10 174.16 78.25 174.95
  A 4.21 4.14 43.4 0 1 76.76 174.98
  Q 74.37 174.59 69.55 174.25
  Q 68.22 174.15 66.53 172.78
  A 1.21 1.20 -71.2 0 1 66.07 171.83
  L 66.07 166.09
  A 1.50 1.49 -20.4 0 1 66.60 164.95
  Q 68.03 163.73 70.25 163.46
  C 77.56 162.55 85.60 162.63 93.88 161.44
  C 106.23 159.66 114.84 157.20 128.08 154.62
  Q 153.01 149.75 175.01 140.10
  Q 178.69 138.48 182.99 140.96
  A 1.55 1.53 -75.4 0 1 183.76 142.30
  L 183.76 147.55
  A 1.47 1.46 -19.1 0 1 183.20 148.70
  Z"
/>
<path fill="#ffffff" d="
  M 188.32 149.28
  A 1.58 1.58 0.0 0 1 190.50 149.78
  L 191.18 150.86
  A 7.55 4.20 -32.0 0 1 187.00 158.43
  L 176.70 164.86
  A 7.55 4.20 -32.0 0 1 168.07 165.30
  L 167.40 164.21
  A 1.58 1.58 0.0 0 1 167.90 162.04
  L 188.32 149.28
  Z"
/>
<rect fill="#ffffff" x="-7.49" y="-3.35" transform="translate(151.58,169.93) rotate(-15.7)" width="14.98" height="6.70" rx="3.20"/>
<path fill="#2991e1" d="
  M 202.21 174.36
  C 199.48 179.30 194.10 186.71 189.08 190.80
  C 178.75 199.24 165.97 203.58 155.41 211.62
  Q 141.56 222.16 132.56 237.56
  Q 128.32 244.82 123.83 252.10
  Q 116.67 263.74 103.75 270.50
  Q 103.16 270.82 91.64 276.88
  C 85.73 279.99 81.04 283.18 76.00 286.75
  Q 71.85 289.70 69.30 292.28
  A 0.52 0.52 0.0 0 1 68.43 292.04
  Q 63.71 272.74 59.89 250.96
  Q 57.58 237.81 57.54 226.75
  C 57.51 219.34 58.19 213.94 61.75 207.74
  Q 64.45 203.06 69.64 203.12
  C 77.07 203.20 90.27 203.73 100.16 201.97
  C 104.43 201.22 111.88 200.44 117.90 199.12
  Q 134.52 195.48 147.54 192.53
  Q 166.40 188.25 183.80 181.32
  Q 184.99 180.84 195.47 174.91
  A 2.55 2.27 -61.4 0 1 196.22 174.64
  L 201.70 173.64
  A 0.49 0.49 0.0 0 1 202.21 174.36
  Z"
/>
<path fill="#ffffff" d="
  M 210.29 177.81
  A 0.43 0.43 0.0 0 1 211.00 177.72
  Q 215.73 182.94 218.19 189.53
  C 218.89 191.42 217.72 192.49 216.63 193.84
  Q 208.27 204.15 199.15 210.16
  Q 195.51 212.55 181.80 220.79
  C 169.20 228.36 159.22 240.82 150.70 252.91
  Q 140.05 268.06 136.63 272.62
  C 126.80 285.74 112.13 289.27 98.52 298.22
  Q 87.21 305.67 77.14 315.03
  A 1.27 1.26 -37.0 0 1 75.20 314.76
  Q 71.86 309.31 71.72 303.00
  A 1.77 1.74 -24.5 0 1 72.20 301.75
  C 78.12 295.59 84.68 289.81 93.20 285.72
  Q 96.53 284.12 109.75 276.99
  Q 119.14 271.93 126.26 263.76
  C 132.17 256.98 137.49 247.72 143.50 238.28
  C 149.15 229.41 156.38 222.06 164.58 216.83
  Q 171.27 212.55 183.72 205.22
  C 194.45 198.91 204.51 189.13 210.29 177.81
  Z"
/>
<path fill="#d43945" d="
  M 222.37 200.79
  L 231.87 232.55
  A 1.44 1.42 -33.9 0 1 231.60 233.89
  Q 225.19 241.56 219.07 246.82
  C 213.28 251.80 204.02 258.31 197.96 264.43
  C 187.21 275.29 179.01 287.94 170.74 299.23
  Q 156.71 318.38 138.56 327.53
  C 123.07 335.33 109.76 341.80 101.19 354.92
  Q 100.20 356.43 97.82 360.09
  A 0.47 0.46 -54.1 0 1 97.14 360.20
  C 86.16 351.43 81.36 338.46 78.59 324.88
  A 1.03 1.01 -28.1 0 1 78.88 323.95
  Q 89.38 313.97 94.59 309.85
  C 102.64 303.49 110.60 299.71 122.48 293.97
  Q 137.08 286.91 146.41 273.19
  C 158.19 255.89 168.84 238.31 185.31 228.31
  Q 197.67 220.80 203.01 217.27
  Q 210.73 212.16 221.39 200.56
  A 0.58 0.57 57.8 0 1 222.37 200.79
  Z
  M 219.3687 215.2741
  A 3.39 3.39 0.0 0 0 215.3075 212.7265
  L 215.0930 212.7756
  A 3.39 3.39 0.0 0 0 212.5454 216.8369
  L 216.7113 235.0259
  A 3.39 3.39 0.0 0 0 220.7725 237.5735
  L 220.9870 237.5244
  A 3.39 3.39 0.0 0 0 223.5346 233.4631
  L 219.3687 215.2741
  Z"
/>
<rect fill="#ffffff" x="-3.50" y="-12.72" transform="translate(218.04,225.15) rotate(-12.9)" width="7.00" height="25.44" rx="3.39"/>
<path fill="#ffffff" d="
  M 234.77 242.81
  L 238.11 253.95
  A 2.69 2.69 0.0 0 1 237.45 256.60
  Q 235.96 258.13 225.96 265.94
  C 210.09 278.35 198.07 293.31 187.71 310.62
  Q 180.77 322.22 177.84 326.08
  Q 166.41 341.13 149.49 350.04
  C 138.43 355.87 131.03 360.38 124.35 369.31
  A 1.21 1.19 -64.9 0 1 123.13 369.76
  Q 117.23 368.41 111.35 367.09
  Q 107.78 366.30 104.54 364.57
  A 0.78 0.77 29.1 0 1 104.23 363.50
  C 110.65 352.20 120.56 345.12 132.14 339.64
  Q 144.15 333.96 151.72 329.50
  C 158.99 325.21 165.36 317.81 171.39 310.93
  C 178.31 303.05 183.71 294.09 190.29 285.29
  Q 198.65 274.12 205.90 267.88
  C 214.50 260.49 226.15 252.59 234.33 242.72
  A 0.26 0.25 56.2 0 1 234.77 242.81
  Z"
/>
<path fill="#2991e1" d="
  M 227.13 275.02
  Q 229.62 289.33 232.42 304.04
  Q 234.53 315.13 228.12 324.16
  C 225.75 327.50 221.97 331.19 226.23 333.88
  C 228.58 335.37 231.02 332.97 232.40 331.24
  Q 242.46 318.58 239.55 303.03
  Q 237.26 290.77 233.94 275.92
  Q 233.60 274.40 230.30 272.65
  L 238.88 265.73
  A 0.38 0.37 -17.2 0 1 239.49 266.05
  Q 239.32 268.34 240.40 270.78
  Q 240.79 271.67 241.53 275.64
  Q 243.45 286.05 245.23 298.18
  Q 247.01 310.37 245.71 317.40
  Q 243.17 331.09 232.23 340.72
  C 224.13 347.86 215.57 353.25 205.66 357.32
  Q 196.68 361.01 196.23 361.18
  Q 185.94 365.19 171.40 368.37
  Q 166.84 369.36 144.02 370.96
  A 7.16 5.79 -25.4 0 0 143.04 371.10
  Q 137.93 372.23 133.51 370.89
  A 0.69 0.69 0.0 0 1 133.21 369.76
  Q 139.24 363.33 147.54 359.53
  C 158.50 354.52 167.02 351.15 174.58 343.31
  Q 184.95 332.54 192.34 318.35
  Q 194.20 314.78 199.05 307.11
  Q 210.85 288.47 227.13 275.02
  Z"
/>
<path fill="#ffffff" d="
  M 230.30 272.65
  Q 233.60 274.40 233.94 275.92
  Q 237.26 290.77 239.55 303.03
  Q 242.46 318.58 232.40 331.24
  C 231.02 332.97 228.58 335.37 226.23 333.88
  C 221.97 331.19 225.75 327.50 228.12 324.16
  Q 234.53 315.13 232.42 304.04
  Q 229.62 289.33 227.13 275.02
  Q 229.25 274.03 230.30 272.65
  Z"
/>
</svg>
