<?xml version="1.0" encoding="UTF-8" standalone="no"?>
<!DOCTYPE svg PUBLIC "-//W3C//DTD SVG 1.1//EN" "http://www.w3.org/Graphics/SVG/1.1/DTD/svg11.dtd">
<svg xmlns="http://www.w3.org/2000/svg" version="1.1" viewBox="0.00 0.00 508.00 716.00">
<g stroke-width="2.00" fill="none" stroke-linecap="butt">
<path stroke="#78646c" vector-effect="non-scaling-stroke" d="
  M 249.83 262.31
  L 251.30 259.52"
/>
<path stroke="#714e5c" vector-effect="non-scaling-stroke" d="
  M 251.30 259.52
  C 257.12 250.45 257.42 240.98 253.80 230.79
  Q 251.26 223.64 248.11 218.88
  Q 238.55 204.46 232.57 193.80
  A 0.48 0.48 0.0 0 0 231.67 194.06
  L 231.93 201.04"
/>
<path stroke="#78646c" vector-effect="non-scaling-stroke" d="
  M 231.93 201.04
  C 232.38 205.31 233.14 209.69 233.21 213.85
  Q 233.34 221.77 233.24 237.50
  Q 233.16 251.28 226.87 261.46"
/>
<path stroke="#777878" vector-effect="non-scaling-stroke" d="
  M 226.87 261.46
  L 200.65 262.17
  A 7.52 7.44 34.3 0 0 198.36 262.59
  C 192.84 264.50 186.89 266.86 182.70 261.01"
/>
<path stroke="#78646c" vector-effect="non-scaling-stroke" d="
  M 182.70 261.01
  Q 179.76 255.13 179.68 252.25
  Q 179.18 234.44 182.19 218.34
  Q 183.70 210.27 185.42 202.43
  A 0.34 0.34 0.0 0 0 184.83 202.14
  L 178.54 209.65"
/>
<path stroke="#714e5c" vector-effect="non-scaling-stroke" d="
  M 178.54 209.65
  Q 172.86 215.29 168.92 221.71
  C 165.53 227.24 164.08 232.68 162.76 238.80
  C 162.06 242.05 161.33 247.64 163.09 250.09
  A 1.91 1.91 0.0 0 1 163.44 250.98
  Q 163.89 254.40 165.62 257.71"
/>
<path stroke="#78646c" vector-effect="non-scaling-stroke" d="
  M 165.62 257.71
  L 167.45 263.42"
/>
<path stroke="#777878" vector-effect="non-scaling-stroke" d="
  M 167.45 263.42
  C 167.42 268.57 167.77 269.93 162.87 272.43
  Q 161.98 272.88 155.77 275.15
  C 151.50 276.71 147.42 276.85 146.32 271.92
  C 145.10 266.47 149.64 265.14 152.76 262.24
  A 0.85 0.85 0.0 0 0 152.96 261.28
  C 146.57 246.88 150.27 228.77 158.06 215.52
  Q 161.30 210.01 168.15 201.90
  Q 174.17 194.80 179.62 188.38
  Q 183.84 183.42 186.65 177.89
  Q 188.88 173.51 186.49 169.48
  C 183.27 164.07 176.18 156.93 169.75 155.52
  Q 161.08 153.61 154.57 155.85
  Q 141.46 160.36 131.95 173.70
  Q 126.82 180.89 123.99 186.73
  Q 117.44 200.26 117.61 215.49
  Q 117.75 229.00 120.96 238.86
  Q 126.17 254.86 137.16 273.89
  C 139.41 277.79 140.15 281.10 138.85 284.81
  A 4.73 4.70 -13.2 0 1 137.76 286.55
  Q 137.63 286.68 132.01 291.25
  Q 122.55 298.95 115.43 309.24
  C 107.01 321.43 102.12 338.08 100.72 352.91
  C 100.08 359.73 101.26 370.16 100.29 376.26
  Q 99.84 379.06 98.17 381.41
  C 90.82 391.72 81.57 402.10 80.61 415.44
  C 79.80 426.72 83.83 439.39 90.72 448.02
  Q 96.42 455.18 105.08 461.48"
/>
<path stroke="#6e7070" vector-effect="non-scaling-stroke" d="
  M 105.08 461.48
  L 107.83 462.72
  A 0.68 0.68 0.0 0 0 108.79 462.07
  C 108.38 452.95 109.42 441.03 114.54 433.67
  Q 118.43 428.08 125.16 425.24
  Q 128.73 423.73 135.73 423.68
  Q 148.05 423.58 148.47 423.58
  A 5.87 5.57 36.5 0 0 149.86 423.41
  L 154.69 422.19
  A 2.65 2.08 30.1 0 1 155.19 422.12
  C 168.72 421.88 185.89 422.45 201.04 421.44
  Q 222.88 419.97 225.76 419.85
  Q 244.20 419.08 275.28 419.45
  C 278.72 419.49 283.26 419.13 286.82 419.99
  Q 293.36 421.58 301.35 425.79
  A 4.27 4.27 0.0 0 1 302.39 426.57
  Q 307.60 431.87 308.75 436.06
  Q 310.75 443.35 311.17 444.78
  A 6.24 6.19 -53.5 0 1 311.43 446.56
  Q 311.42 449.19 312.06 452.06
  Q 312.25 452.91 312.47 458.43
  Q 312.59 461.45 313.43 465.07
  Q 314.13 468.11 317.05 467.88"
/>
<path stroke="#777878" vector-effect="non-scaling-stroke" d="
  M 317.05 467.88
  Q 322.95 469.68 327.73 467.24
  C 346.99 457.42 355.21 432.30 352.24 412.26
  Q 350.90 403.24 344.03 394.72
  C 338.64 388.04 328.44 383.44 326.81 374.37
  Q 324.58 361.92 323.42 353.53
  C 321.85 342.21 318.36 335.43 312.52 323.51
  C 305.12 308.38 294.03 297.06 281.77 284.69
  Q 277.50 280.39 277.93 274.59
  Q 278.16 271.34 282.49 264.65
  Q 286.70 258.16 293.21 245.94
  Q 304.79 224.23 304.27 200.32
  Q 304.07 191.46 302.26 185.71
  C 297.62 170.92 289.47 159.93 274.04 154.98
  C 266.89 152.68 259.38 153.69 252.75 156.96
  Q 249.01 158.79 243.30 163.76
  C 236.78 169.42 237.89 174.39 240.71 181.57
  Q 243.36 188.33 246.51 193.11
  C 256.69 208.54 266.43 220.83 268.00 236.55
  C 268.91 245.61 268.13 254.52 263.62 262.56
  A 0.86 0.86 0.0 0 0 263.64 263.45
  C 265.11 265.81 266.39 272.93 262.01 273.44
  Q 254.86 274.28 250.74 268.50
  Q 248.48 265.33 249.83 262.31"
/>
<path stroke="#e5e8e8" vector-effect="non-scaling-stroke" d="
  M 317.05 467.88
  C 319.02 455.45 315.74 444.82 311.98 433.24
  C 305.24 412.52 284.99 412.56 267.12 412.38
  Q 263.82 412.35 225.75 412.27
  C 210.64 412.24 199.98 412.89 184.00 413.27
  C 166.01 413.71 150.22 416.24 130.85 419.58
  Q 114.26 422.45 107.77 437.27
  Q 103.16 447.80 105.08 461.48"
/>
<path stroke="#efdbe4" vector-effect="non-scaling-stroke" d="
  M 167.45 263.42
  C 172.28 262.83 178.21 262.85 182.70 261.01"
/>
<path stroke="#efdbe4" vector-effect="non-scaling-stroke" d="
  M 226.87 261.46
  Q 229.39 263.13 231.50 263.04
  C 233.84 262.93 236.14 263.01 238.49 262.74
  Q 244.12 262.08 249.83 262.31"
/>
<path stroke="#e9b1c8" vector-effect="non-scaling-stroke" d="
  M 165.62 257.71
  Q 165.90 232.08 178.54 209.65"
/>
<path stroke="#e9b1c8" vector-effect="non-scaling-stroke" d="
  M 251.30 259.52
  Q 249.14 258.95 249.09 255.63
  C 248.82 237.51 244.75 217.58 233.94 203.03
  A 2.91 2.81 -72.1 0 1 233.51 202.15
  Q 232.72 199.47 231.93 201.04"
/>
<path stroke="#425862" vector-effect="non-scaling-stroke" d="
  M 125.20 460.62
  L 125.21 466.02
  A 0.84 0.83 -78.1 0 0 125.68 466.76
  Q 127.45 467.62 128.99 467.82
  C 142.42 469.52 154.12 472.94 165.08 481.43
  Q 167.70 483.46 174.31 485.21"
/>
<path stroke="#5c6a70" vector-effect="non-scaling-stroke" d="
  M 174.31 485.21
  Q 178.02 486.48 181.97 486.25
  A 0.31 0.31 0.0 0 0 182.26 485.88
  Q 179.12 471.01 192.55 465.76
  Q 200.01 462.85 207.06 464.79
  Q 208.26 465.12 213.77 467.62
  A 0.86 0.85 -54.0 0 0 214.71 467.47
  C 219.39 463.07 226.68 461.54 232.69 461.50
  A 4.60 4.52 52.9 0 1 234.12 461.71
  C 237.75 462.85 241.67 463.53 244.02 466.69
  Q 245.90 469.22 247.39 472.65
  C 248.70 475.68 248.31 480.07 248.36 483.11
  A 0.44 0.44 0.0 0 0 248.88 483.53
  Q 263.89 480.84 276.73 477.14"
/>
<path stroke="#425862" vector-effect="non-scaling-stroke" d="
  M 276.73 477.14
  C 284.59 475.58 290.06 472.66 296.81 469.85
  A 2.20 2.20 0.0 0 0 298.16 467.65
  L 297.60 460.43"
/>
<path stroke="#5c6a70" vector-effect="non-scaling-stroke" d="
  M 297.60 460.43
  Q 296.25 452.48 295.24 445.76
  Q 294.76 442.59 292.41 439.47
  C 286.48 431.59 264.18 433.33 254.79 434.03
  C 247.54 434.57 242.01 434.03 235.42 434.84
  Q 233.78 435.04 220.00 435.29
  Q 211.96 435.43 194.31 437.07
  C 185.68 437.87 180.30 437.85 172.01 437.88
  C 169.40 437.89 166.47 438.58 164.00 438.62
  Q 157.52 438.73 137.75 438.72
  Q 129.89 438.72 126.68 444.41
  Q 125.25 446.96 125.20 452.32
  Q 125.16 456.52 125.20 460.62"
/>
<path stroke="#9dc1d1" vector-effect="non-scaling-stroke" d="
  M 297.60 460.43
  Q 285.59 466.72 276.73 477.14"
/>
<path stroke="#9dc1d1" vector-effect="non-scaling-stroke" d="
  M 174.31 485.21
  Q 156.27 465.40 129.50 462.01
  Q 127.66 461.78 125.20 460.62"
/>
<path stroke="#692e4b" vector-effect="non-scaling-stroke" d="
  M 233.56 475.19
  Q 230.33 472.96 226.22 475.25
  C 221.39 477.94 219.24 484.36 212.20 482.42
  C 206.59 480.87 202.99 473.02 195.84 478.42
  C 193.65 480.07 194.87 484.06 196.14 485.87
  Q 201.53 493.63 209.46 498.71
  Q 218.39 504.42 225.03 496.12
  Q 233.57 485.44 235.63 479.93
  A 1.34 1.32 42.2 0 0 235.57 478.85
  L 234.04 475.75
  A 1.52 1.52 0.0 0 0 233.56 475.19"
/>
<path stroke="#777878" vector-effect="non-scaling-stroke" d="
  M 161.17 537.44
  C 166.99 527.45 168.84 514.54 162.84 503.66
  C 157.23 493.48 149.44 487.67 138.54 485.00
  Q 131.26 483.22 128.66 482.90
  C 119.82 481.82 109.57 483.22 102.60 488.58
  C 94.14 495.07 91.02 503.99 89.65 514.06
  C 88.10 525.55 93.63 537.03 102.50 544.00
  Q 108.34 548.58 115.57 551.80
  C 124.30 555.69 134.81 556.17 143.49 552.57
  C 150.34 549.73 157.65 543.47 161.17 537.44"
/>
<path stroke="#777878" vector-effect="non-scaling-stroke" d="
  M 272.97 517.21
  A 7.81 7.65 48.3 0 0 272.85 519.80
  C 274.02 529.45 278.85 541.40 287.05 547.03
  Q 293.03 551.13 300.86 554.18
  A 6.75 6.72 57.1 0 0 302.93 554.63
  Q 310.79 555.10 318.93 554.67
  Q 320.34 554.59 325.81 552.83
  Q 333.57 550.34 338.85 545.35
  C 346.36 538.27 354.26 526.04 351.47 515.28
  C 349.08 506.08 343.14 497.34 336.84 491.38
  Q 326.39 481.50 310.21 482.91
  Q 294.48 484.28 283.32 496.88
  Q 275.44 505.78 272.97 517.21"
/>
<path stroke="#5c6a70" vector-effect="non-scaling-stroke" d="
  M 258.21 494.38
  Q 251.76 495.33 245.33 496.43
  Q 241.87 497.02 240.18 498.74
  C 231.42 507.67 224.40 516.33 209.88 512.73
  C 203.87 511.24 197.82 506.40 192.75 501.73
  Q 189.35 498.60 183.37 499.23"
/>
<path stroke="#425862" vector-effect="non-scaling-stroke" d="
  M 183.37 499.23
  L 179.35 498.76
  A 0.72 0.72 0.0 0 0 178.60 499.74
  Q 184.53 514.77 180.89 529.92
  Q 179.13 537.26 173.74 547.35
  C 171.20 552.11 166.35 555.96 162.73 559.34
  A 0.48 0.48 0.0 0 0 162.81 560.10
  Q 164.81 561.29 167.07 560.64"
/>
<path stroke="#5c6a70" vector-effect="non-scaling-stroke" d="
  M 167.07 560.64
  Q 174.23 559.85 181.50 560.26
  Q 197.39 561.16 213.28 561.41"
/>
<path stroke="#5c6a70" vector-effect="non-scaling-stroke" d="
  M 213.45 561.36
  Q 223.93 559.99 238.75 560.82
  Q 249.72 561.43 271.34 560.44"
/>
<path stroke="#425862" vector-effect="non-scaling-stroke" d="
  M 271.34 560.44
  L 277.31 559.83
  A 0.22 0.22 0.0 0 0 277.43 559.45
  C 258.35 542.95 250.68 516.25 265.82 494.12
  A 0.55 0.55 0.0 0 0 265.38 493.26
  Q 261.79 493.20 258.21 494.38"
/>
<path stroke="#9dc1d1" vector-effect="non-scaling-stroke" d="
  M 271.34 560.44
  Q 268.94 557.09 261.24 547.51
  Q 255.57 540.44 253.37 529.68
  Q 249.65 511.53 258.76 495.71
  A 0.80 0.80 0.0 0 0 258.80 495.01
  Q 258.62 494.57 258.21 494.38"
/>
<path stroke="#9dc1d1" vector-effect="non-scaling-stroke" d="
  M 167.07 560.64
  Q 165.91 560.16 166.24 559.77
  Q 169.79 555.63 173.20 551.39
  Q 177.39 546.17 179.47 542.51
  Q 190.84 522.48 183.37 499.23"
/>
<path stroke="#777878" vector-effect="non-scaling-stroke" d="
  M 252.09 381.86
  Q 252.31 381.87 252.51 381.93
  Q 255.59 382.90 258.46 384.36
  C 262.38 386.34 267.54 385.00 268.49 380.23
  Q 269.52 375.09 265.03 372.09
  C 260.92 369.34 257.55 368.45 252.69 368.24
  C 247.83 368.03 244.39 368.61 240.06 370.99
  Q 235.32 373.59 235.89 378.80
  C 236.42 383.64 241.45 385.42 245.52 383.79
  Q 248.51 382.59 251.67 381.89
  Q 251.87 381.85 252.09 381.86"
/>
<path stroke="#777878" vector-effect="non-scaling-stroke" d="
  M 171.80 380.15
  L 171.80 374.55
  A 1.31 1.29 -77.5 0 0 171.06 373.37
  C 168.64 372.22 165.69 369.73 161.98 369.39
  C 155.45 368.78 150.23 369.46 145.70 374.71
  C 142.92 377.93 142.49 381.55 146.51 383.79
  C 149.00 385.18 151.84 384.07 154.53 382.33
  A 4.10 4.06 -64.1 0 1 156.34 381.69
  C 161.37 381.17 165.36 383.64 170.49 381.96
  A 1.91 1.90 80.9 0 0 171.80 380.15"
/>
<path stroke="#777878" vector-effect="non-scaling-stroke" d="
  M 198.89 399.09
  C 199.36 400.91 199.54 403.79 200.78 405.70
  Q 203.46 409.80 208.65 408.74
  A 2.32 2.28 -68.4 0 0 209.53 408.35
  Q 211.49 406.94 211.37 402.30
  Q 211.30 399.72 214.11 397.80
  A 2.06 2.06 0.0 0 1 215.19 397.45
  C 220.95 397.17 221.55 392.40 220.89 387.88
  A 2.96 2.95 -81.0 0 0 219.27 385.64
  Q 212.79 382.42 207.62 386.51
  A 1.58 1.55 25.1 0 1 206.63 386.86
  L 203.58 386.86
  A 1.42 1.38 68.3 0 1 202.55 386.40
  Q 198.13 381.46 191.06 384.14
  A 2.69 2.68 -8.4 0 0 189.34 386.44
  Q 189.05 390.02 190.29 392.88
  A 2.47 2.46 -81.3 0 0 190.92 393.74
  Q 194.25 396.66 198.11 398.20
  A 1.31 1.29 4.2 0 1 198.89 399.09"
/>
<path stroke="#692e4b" vector-effect="non-scaling-stroke" d="
  M 384.69 264.65
  C 381.37 264.65 379.22 261.90 378.41 258.82
  Q 376.74 252.47 375.67 249.10
  C 373.35 241.82 367.27 232.97 359.13 231.86
  C 353.75 231.13 348.50 236.84 347.13 241.37
  Q 345.70 246.05 345.62 249.77
  Q 345.19 269.88 355.81 287.16
  C 357.82 290.43 362.03 295.82 366.13 296.16
  C 380.47 297.37 397.14 295.07 409.52 287.27
  Q 417.58 282.20 416.23 273.38
  C 415.05 265.66 402.95 263.35 396.72 264.00
  Q 390.43 264.66 384.69 264.65"
/>
</g>
<path fill="#000000" d="
  M 94.55 474.14
  A 0.96 0.96 0.0 0 0 94.38 472.77
  Q 89.55 469.13 86.39 466.33
  C 70.79 452.53 65.22 435.33 66.01 415.00
  C 66.45 403.54 70.71 393.02 77.12 383.61
  C 79.25 380.48 83.46 376.53 84.60 372.70
  Q 85.77 368.80 85.55 365.01
  Q 84.46 345.46 90.56 325.85
  Q 94.58 312.93 100.51 303.77
  C 105.34 296.31 113.01 286.59 120.52 280.61
  A 2.81 2.81 0.0 0 0 121.25 277.08
  C 114.62 264.75 108.28 252.00 104.93 239.08
  Q 103.59 233.90 103.23 227.01
  Q 102.68 216.13 103.36 205.07
  C 103.75 198.70 105.00 194.30 106.95 187.34
  Q 110.03 176.34 117.23 165.49
  C 122.51 157.55 130.33 151.89 138.29 146.95
  C 152.26 138.26 168.32 136.71 183.01 144.67
  C 188.25 147.51 192.96 152.19 197.36 155.89
  C 201.10 159.04 202.74 164.08 202.81 169.27
  Q 203.03 187.46 201.05 199.03
  C 198.20 215.71 195.71 227.95 195.44 242.70
  A 3.65 3.63 53.0 0 1 195.30 243.70
  C 195.04 244.64 194.56 245.56 195.16 246.34
  C 197.51 249.40 199.23 247.23 201.99 247.15
  Q 202.01 247.15 202.04 247.15
  L 214.95 247.15
  A 2.27 2.25 5.8 0 0 217.17 245.35
  Q 218.61 238.44 218.57 232.81
  Q 218.47 219.78 218.13 203.10
  C 218.08 200.92 218.46 199.94 218.75 198.14
  A 9.75 8.65 55.2 0 0 218.88 196.84
  Q 218.89 196.40 218.95 187.95
  C 219.00 181.63 220.25 175.66 221.21 169.49
  C 222.48 161.32 226.49 157.71 233.23 152.03
  C 240.63 145.79 248.48 140.78 258.68 139.33
  Q 278.84 136.46 296.74 150.13
  C 306.61 157.68 311.15 165.53 315.33 176.75
  Q 319.61 188.22 319.50 200.99
  C 319.45 206.48 319.42 213.47 318.34 219.29
  C 316.29 230.25 312.69 241.52 307.24 252.49
  C 303.18 260.66 300.18 267.21 295.41 273.42
  Q 293.89 275.40 295.82 277.28
  Q 310.02 291.13 319.11 303.69
  Q 327.69 315.54 334.93 334.64
  Q 335.28 335.55 336.78 341.56
  C 338.58 348.74 339.56 358.16 340.36 363.38
  Q 341.25 369.18 343.10 371.93
  C 345.23 375.10 349.91 378.34 352.25 380.53
  Q 368.39 395.69 368.49 419.76
  Q 368.59 446.23 353.29 466.00
  C 350.57 469.53 348.28 471.49 344.62 474.73
  A 1.64 1.64 0.0 0 0 344.62 477.18
  Q 355.52 486.88 362.59 500.16
  C 368.59 511.40 368.35 525.86 363.71 537.19
  Q 360.85 544.19 357.96 549.61
  Q 355.05 555.06 348.22 560.47
  Q 344.50 563.42 342.01 564.01
  C 336.19 565.38 327.52 568.40 320.35 569.30
  Q 312.57 570.28 310.49 570.27
  Q 304.51 570.25 298.42 569.03
  A 3.47 3.47 0.0 0 0 295.70 569.62
  Q 290.59 573.31 284.28 574.02
  C 280.62 574.43 278.80 575.00 275.80 575.76
  A 4.57 4.55 37.5 0 1 274.64 575.91
  L 150.96 575.91
  A 5.44 5.26 50.4 0 1 149.79 575.78
  Q 143.55 574.34 139.83 572.38
  Q 136.62 570.69 134.00 570.72
  C 109.43 571.04 84.28 557.60 76.16 533.14
  C 74.46 528.04 74.11 525.12 73.73 519.52
  Q 72.92 507.79 76.90 496.90
  Q 80.58 486.81 89.11 479.10
  Q 94.41 474.31 94.55 474.14
  Z
  M 249.83 262.31
  L 251.30 259.52
  C 257.12 250.45 257.42 240.98 253.80 230.79
  Q 251.26 223.64 248.11 218.88
  Q 238.55 204.46 232.57 193.80
  A 0.48 0.48 0.0 0 0 231.67 194.06
  L 231.93 201.04
  C 232.38 205.31 233.14 209.69 233.21 213.85
  Q 233.34 221.77 233.24 237.50
  Q 233.16 251.28 226.87 261.46
  L 200.65 262.17
  A 7.52 7.44 34.3 0 0 198.36 262.59
  C 192.84 264.50 186.89 266.86 182.70 261.01
  Q 179.76 255.13 179.68 252.25
  Q 179.18 234.44 182.19 218.34
  Q 183.70 210.27 185.42 202.43
  A 0.34 0.34 0.0 0 0 184.83 202.14
  L 178.54 209.65
  Q 172.86 215.29 168.92 221.71
  C 165.53 227.24 164.08 232.68 162.76 238.80
  C 162.06 242.05 161.33 247.64 163.09 250.09
  A 1.91 1.91 0.0 0 1 163.44 250.98
  Q 163.89 254.40 165.62 257.71
  L 167.45 263.42
  C 167.42 268.57 167.77 269.93 162.87 272.43
  Q 161.98 272.88 155.77 275.15
  C 151.50 276.71 147.42 276.85 146.32 271.92
  C 145.10 266.47 149.64 265.14 152.76 262.24
  A 0.85 0.85 0.0 0 0 152.96 261.28
  C 146.57 246.88 150.27 228.77 158.06 215.52
  Q 161.30 210.01 168.15 201.90
  Q 174.17 194.80 179.62 188.38
  Q 183.84 183.42 186.65 177.89
  Q 188.88 173.51 186.49 169.48
  C 183.27 164.07 176.18 156.93 169.75 155.52
  Q 161.08 153.61 154.57 155.85
  Q 141.46 160.36 131.95 173.70
  Q 126.82 180.89 123.99 186.73
  Q 117.44 200.26 117.61 215.49
  Q 117.75 229.00 120.96 238.86
  Q 126.17 254.86 137.16 273.89
  C 139.41 277.79 140.15 281.10 138.85 284.81
  A 4.73 4.70 -13.2 0 1 137.76 286.55
  Q 137.63 286.68 132.01 291.25
  Q 122.55 298.95 115.43 309.24
  C 107.01 321.43 102.12 338.08 100.72 352.91
  C 100.08 359.73 101.26 370.16 100.29 376.26
  Q 99.84 379.06 98.17 381.41
  C 90.82 391.72 81.57 402.10 80.61 415.44
  C 79.80 426.72 83.83 439.39 90.72 448.02
  Q 96.42 455.18 105.08 461.48
  L 107.83 462.72
  A 0.68 0.68 0.0 0 0 108.79 462.07
  C 108.38 452.95 109.42 441.03 114.54 433.67
  Q 118.43 428.08 125.16 425.24
  Q 128.73 423.73 135.73 423.68
  Q 148.05 423.58 148.47 423.58
  A 5.87 5.57 36.5 0 0 149.86 423.41
  L 154.69 422.19
  A 2.65 2.08 30.1 0 1 155.19 422.12
  C 168.72 421.88 185.89 422.45 201.04 421.44
  Q 222.88 419.97 225.76 419.85
  Q 244.20 419.08 275.28 419.45
  C 278.72 419.49 283.26 419.13 286.82 419.99
  Q 293.36 421.58 301.35 425.79
  A 4.27 4.27 0.0 0 1 302.39 426.57
  Q 307.60 431.87 308.75 436.06
  Q 310.75 443.35 311.17 444.78
  A 6.24 6.19 -53.5 0 1 311.43 446.56
  Q 311.42 449.19 312.06 452.06
  Q 312.25 452.91 312.47 458.43
  Q 312.59 461.45 313.43 465.07
  Q 314.13 468.11 317.05 467.88
  Q 322.95 469.68 327.73 467.24
  C 346.99 457.42 355.21 432.30 352.24 412.26
  Q 350.90 403.24 344.03 394.72
  C 338.64 388.04 328.44 383.44 326.81 374.37
  Q 324.58 361.92 323.42 353.53
  C 321.85 342.21 318.36 335.43 312.52 323.51
  C 305.12 308.38 294.03 297.06 281.77 284.69
  Q 277.50 280.39 277.93 274.59
  Q 278.16 271.34 282.49 264.65
  Q 286.70 258.16 293.21 245.94
  Q 304.79 224.23 304.27 200.32
  Q 304.07 191.46 302.26 185.71
  C 297.62 170.92 289.47 159.93 274.04 154.98
  C 266.89 152.68 259.38 153.69 252.75 156.96
  Q 249.01 158.79 243.30 163.76
  C 236.78 169.42 237.89 174.39 240.71 181.57
  Q 243.36 188.33 246.51 193.11
  C 256.69 208.54 266.43 220.83 268.00 236.55
  C 268.91 245.61 268.13 254.52 263.62 262.56
  A 0.86 0.86 0.0 0 0 263.64 263.45
  C 265.11 265.81 266.39 272.93 262.01 273.44
  Q 254.86 274.28 250.74 268.50
  Q 248.48 265.33 249.83 262.31
  Z
  M 125.20 460.62
  L 125.21 466.02
  A 0.84 0.83 -78.1 0 0 125.68 466.76
  Q 127.45 467.62 128.99 467.82
  C 142.42 469.52 154.12 472.94 165.08 481.43
  Q 167.70 483.46 174.31 485.21
  Q 178.02 486.48 181.97 486.25
  A 0.31 0.31 0.0 0 0 182.26 485.88
  Q 179.12 471.01 192.55 465.76
  Q 200.01 462.85 207.06 464.79
  Q 208.26 465.12 213.77 467.62
  A 0.86 0.85 -54.0 0 0 214.71 467.47
  C 219.39 463.07 226.68 461.54 232.69 461.50
  A 4.60 4.52 52.9 0 1 234.12 461.71
  C 237.75 462.85 241.67 463.53 244.02 466.69
  Q 245.90 469.22 247.39 472.65
  C 248.70 475.68 248.31 480.07 248.36 483.11
  A 0.44 0.44 0.0 0 0 248.88 483.53
  Q 263.89 480.84 276.73 477.14
  C 284.59 475.58 290.06 472.66 296.81 469.85
  A 2.20 2.20 0.0 0 0 298.16 467.65
  L 297.60 460.43
  Q 296.25 452.48 295.24 445.76
  Q 294.76 442.59 292.41 439.47
  C 286.48 431.59 264.18 433.33 254.79 434.03
  C 247.54 434.57 242.01 434.03 235.42 434.84
  Q 233.78 435.04 220.00 435.29
  Q 211.96 435.43 194.31 437.07
  C 185.68 437.87 180.30 437.85 172.01 437.88
  C 169.40 437.89 166.47 438.58 164.00 438.62
  Q 157.52 438.73 137.75 438.72
  Q 129.89 438.72 126.68 444.41
  Q 125.25 446.96 125.20 452.32
  Q 125.16 456.52 125.20 460.62
  Z
  M 233.56 475.19
  Q 230.33 472.96 226.22 475.25
  C 221.39 477.94 219.24 484.36 212.20 482.42
  C 206.59 480.87 202.99 473.02 195.84 478.42
  C 193.65 480.07 194.87 484.06 196.14 485.87
  Q 201.53 493.63 209.46 498.71
  Q 218.39 504.42 225.03 496.12
  Q 233.57 485.44 235.63 479.93
  A 1.34 1.32 42.2 0 0 235.57 478.85
  L 234.04 475.75
  A 1.52 1.52 0.0 0 0 233.56 475.19
  Z
  M 161.17 537.44
  C 166.99 527.45 168.84 514.54 162.84 503.66
  C 157.23 493.48 149.44 487.67 138.54 485.00
  Q 131.26 483.22 128.66 482.90
  C 119.82 481.82 109.57 483.22 102.60 488.58
  C 94.14 495.07 91.02 503.99 89.65 514.06
  C 88.10 525.55 93.63 537.03 102.50 544.00
  Q 108.34 548.58 115.57 551.80
  C 124.30 555.69 134.81 556.17 143.49 552.57
  C 150.34 549.73 157.65 543.47 161.17 537.44
  Z
  M 272.97 517.21
  A 7.81 7.65 48.3 0 0 272.85 519.80
  C 274.02 529.45 278.85 541.40 287.05 547.03
  Q 293.03 551.13 300.86 554.18
  A 6.75 6.72 57.1 0 0 302.93 554.63
  Q 310.79 555.10 318.93 554.67
  Q 320.34 554.59 325.81 552.83
  Q 333.57 550.34 338.85 545.35
  C 346.36 538.27 354.26 526.04 351.47 515.28
  C 349.08 506.08 343.14 497.34 336.84 491.38
  Q 326.39 481.50 310.21 482.91
  Q 294.48 484.28 283.32 496.88
  Q 275.44 505.78 272.97 517.21
  Z
  M 258.21 494.38
  Q 251.76 495.33 245.33 496.43
  Q 241.87 497.02 240.18 498.74
  C 231.42 507.67 224.40 516.33 209.88 512.73
  C 203.87 511.24 197.82 506.40 192.75 501.73
  Q 189.35 498.60 183.37 499.23
  L 179.35 498.76
  A 0.72 0.72 0.0 0 0 178.60 499.74
  Q 184.53 514.77 180.89 529.92
  Q 179.13 537.26 173.74 547.35
  C 171.20 552.11 166.35 555.96 162.73 559.34
  A 0.48 0.48 0.0 0 0 162.81 560.10
  Q 164.81 561.29 167.07 560.64
  Q 174.23 559.85 181.50 560.26
  Q 197.39 561.16 213.28 561.41
  L 212.09 561.58
  A 0.01 0.00 48.6 0 0 212.09 561.59
  Q 213.20 561.85 213.45 561.36
  Q 223.93 559.99 238.75 560.82
  Q 249.72 561.43 271.34 560.44
  L 277.31 559.83
  A 0.22 0.22 0.0 0 0 277.43 559.45
  C 258.35 542.95 250.68 516.25 265.82 494.12
  A 0.55 0.55 0.0 0 0 265.38 493.26
  Q 261.79 493.20 258.21 494.38
  Z
  M 207.7599 561.5622
  A 1.70 0.08 -0.6 0 0 206.0592 561.5000
  A 1.70 0.08 -0.6 0 0 204.3601 561.5978
  A 1.70 0.08 -0.6 0 0 206.0608 561.6600
  A 1.70 0.08 -0.6 0 0 207.7599 561.5622
  Z"
/>
<path fill="#edefef" d="
  M 317.05 467.88
  C 319.02 455.45 315.74 444.82 311.98 433.24
  C 305.24 412.52 284.99 412.56 267.12 412.38
  Q 263.82 412.35 225.75 412.27
  C 210.64 412.24 199.98 412.89 184.00 413.27
  C 166.01 413.71 150.22 416.24 130.85 419.58
  Q 114.26 422.45 107.77 437.27
  Q 103.16 447.80 105.08 461.48
  Q 96.42 455.18 90.72 448.02
  C 83.83 439.39 79.80 426.72 80.61 415.44
  C 81.57 402.10 90.82 391.72 98.17 381.41
  Q 99.84 379.06 100.29 376.26
  C 101.26 370.16 100.08 359.73 100.72 352.91
  C 102.12 338.08 107.01 321.43 115.43 309.24
  Q 122.55 298.95 132.01 291.25
  Q 137.63 286.68 137.76 286.55
  A 4.73 4.70 -13.2 0 0 138.85 284.81
  C 140.15 281.10 139.41 277.79 137.16 273.89
  Q 126.17 254.86 120.96 238.86
  Q 117.75 229.00 117.61 215.49
  Q 117.44 200.26 123.99 186.73
  Q 126.82 180.89 131.95 173.70
  Q 141.46 160.36 154.57 155.85
  Q 161.08 153.61 169.75 155.52
  C 176.18 156.93 183.27 164.07 186.49 169.48
  Q 188.88 173.51 186.65 177.89
  Q 183.84 183.42 179.62 188.38
  Q 174.17 194.80 168.15 201.90
  Q 161.30 210.01 158.06 215.52
  C 150.27 228.77 146.57 246.88 152.96 261.28
  A 0.85 0.85 0.0 0 1 152.76 262.24
  C 149.64 265.14 145.10 266.47 146.32 271.92
  C 147.42 276.85 151.50 276.71 155.77 275.15
  Q 161.98 272.88 162.87 272.43
  C 167.77 269.93 167.42 268.57 167.45 263.42
  C 172.28 262.83 178.21 262.85 182.70 261.01
  C 186.89 266.86 192.84 264.50 198.36 262.59
  A 7.52 7.44 34.3 0 1 200.65 262.17
  L 226.87 261.46
  Q 229.39 263.13 231.50 263.04
  C 233.84 262.93 236.14 263.01 238.49 262.74
  Q 244.12 262.08 249.83 262.31
  Q 248.48 265.33 250.74 268.50
  Q 254.86 274.28 262.01 273.44
  C 266.39 272.93 265.11 265.81 263.64 263.45
  A 0.86 0.86 0.0 0 1 263.62 262.56
  C 268.13 254.52 268.91 245.61 268.00 236.55
  C 266.43 220.83 256.69 208.54 246.51 193.11
  Q 243.36 188.33 240.71 181.57
  C 237.89 174.39 236.78 169.42 243.30 163.76
  Q 249.01 158.79 252.75 156.96
  C 259.38 153.69 266.89 152.68 274.04 154.98
  C 289.47 159.93 297.62 170.92 302.26 185.71
  Q 304.07 191.46 304.27 200.32
  Q 304.79 224.23 293.21 245.94
  Q 286.70 258.16 282.49 264.65
  Q 278.16 271.34 277.93 274.59
  Q 277.50 280.39 281.77 284.69
  C 294.03 297.06 305.12 308.38 312.52 323.51
  C 318.36 335.43 321.85 342.21 323.42 353.53
  Q 324.58 361.92 326.81 374.37
  C 328.44 383.44 338.64 388.04 344.03 394.72
  Q 350.90 403.24 352.24 412.26
  C 355.21 432.30 346.99 457.42 327.73 467.24
  Q 322.95 469.68 317.05 467.88
  Z
  M 252.09 381.86
  Q 252.31 381.87 252.51 381.93
  Q 255.59 382.90 258.46 384.36
  C 262.38 386.34 267.54 385.00 268.49 380.23
  Q 269.52 375.09 265.03 372.09
  C 260.92 369.34 257.55 368.45 252.69 368.24
  C 247.83 368.03 244.39 368.61 240.06 370.99
  Q 235.32 373.59 235.89 378.80
  C 236.42 383.64 241.45 385.42 245.52 383.79
  Q 248.51 382.59 251.67 381.89
  Q 251.87 381.85 252.09 381.86
  Z
  M 171.80 380.15
  L 171.80 374.55
  A 1.31 1.29 -77.5 0 0 171.06 373.37
  C 168.64 372.22 165.69 369.73 161.98 369.39
  C 155.45 368.78 150.23 369.46 145.70 374.71
  C 142.92 377.93 142.49 381.55 146.51 383.79
  C 149.00 385.18 151.84 384.07 154.53 382.33
  A 4.10 4.06 -64.1 0 1 156.34 381.69
  C 161.37 381.17 165.36 383.64 170.49 381.96
  A 1.91 1.90 80.9 0 0 171.80 380.15
  Z
  M 198.89 399.09
  C 199.36 400.91 199.54 403.79 200.78 405.70
  Q 203.46 409.80 208.65 408.74
  A 2.32 2.28 -68.4 0 0 209.53 408.35
  Q 211.49 406.94 211.37 402.30
  Q 211.30 399.72 214.11 397.80
  A 2.06 2.06 0.0 0 1 215.19 397.45
  C 220.95 397.17 221.55 392.40 220.89 387.88
  A 2.96 2.95 -81.0 0 0 219.27 385.64
  Q 212.79 382.42 207.62 386.51
  A 1.58 1.55 25.1 0 1 206.63 386.86
  L 203.58 386.86
  A 1.42 1.38 68.3 0 1 202.55 386.40
  Q 198.13 381.46 191.06 384.14
  A 2.69 2.68 -8.4 0 0 189.34 386.44
  Q 189.05 390.02 190.29 392.88
  A 2.47 2.46 -81.3 0 0 190.92 393.74
  Q 194.25 396.66 198.11 398.20
  A 1.31 1.29 4.2 0 1 198.89 399.09
  Z"
/>
<path fill="#e29bb7" d="
  M 251.30 259.52
  Q 249.14 258.95 249.09 255.63
  C 248.82 237.51 244.75 217.58 233.94 203.03
  A 2.91 2.81 -72.1 0 1 233.51 202.15
  Q 232.72 199.47 231.93 201.04
  L 231.67 194.06
  A 0.48 0.48 0.0 0 1 232.57 193.80
  Q 238.55 204.46 248.11 218.88
  Q 251.26 223.64 253.80 230.79
  C 257.42 240.98 257.12 250.45 251.30 259.52
  Z"
/>
<path fill="#f0c7d8" d="
  M 251.30 259.52
  L 249.83 262.31
  Q 244.12 262.08 238.49 262.74
  C 236.14 263.01 233.84 262.93 231.50 263.04
  Q 229.39 263.13 226.87 261.46
  Q 233.16 251.28 233.24 237.50
  Q 233.34 221.77 233.21 213.85
  C 233.14 209.69 232.38 205.31 231.93 201.04
  Q 232.72 199.47 233.51 202.15
  A 2.91 2.81 -72.1 0 0 233.94 203.03
  C 244.75 217.58 248.82 237.51 249.09 255.63
  Q 249.14 258.95 251.30 259.52
  Z"
/>
<path fill="#f0c7d8" d="
  M 182.70 261.01
  C 178.21 262.85 172.28 262.83 167.45 263.42
  L 165.62 257.71
  Q 165.90 232.08 178.54 209.65
  L 184.83 202.14
  A 0.34 0.34 0.0 0 1 185.42 202.43
  Q 183.70 210.27 182.19 218.34
  Q 179.18 234.44 179.68 252.25
  Q 179.76 255.13 182.70 261.01
  Z"
/>
<path fill="#e29bb7" d="
  M 178.54 209.65
  Q 165.90 232.08 165.62 257.71
  Q 163.89 254.40 163.44 250.98
  A 1.91 1.91 0.0 0 0 163.09 250.09
  C 161.33 247.64 162.06 242.05 162.76 238.80
  C 164.08 232.68 165.53 227.24 168.92 221.71
  Q 172.86 215.29 178.54 209.65
  Z"
/>
<path fill="#000000" d="
  M 391.78 247.61
  C 392.57 249.06 394.15 249.75 395.76 249.79
  C 401.17 249.93 408.38 249.45 413.57 251.47
  C 418.83 253.52 426.05 257.83 428.74 263.26
  C 431.99 269.85 433.35 276.19 430.97 283.23
  Q 426.49 296.47 414.05 302.26
  Q 393.08 312.01 368.46 311.35
  Q 355.18 311.00 347.67 301.88
  C 336.76 288.64 331.00 272.84 330.06 255.77
  C 329.40 243.74 333.42 227.90 344.29 221.12
  C 361.31 210.50 380.48 222.35 388.01 238.47
  C 389.38 241.40 390.23 244.77 391.78 247.61
  Z
  M 384.69 264.65
  C 381.37 264.65 379.22 261.90 378.41 258.82
  Q 376.74 252.47 375.67 249.10
  C 373.35 241.82 367.27 232.97 359.13 231.86
  C 353.75 231.13 348.50 236.84 347.13 241.37
  Q 345.70 246.05 345.62 249.77
  Q 345.19 269.88 355.81 287.16
  C 357.82 290.43 362.03 295.82 366.13 296.16
  C 380.47 297.37 397.14 295.07 409.52 287.27
  Q 417.58 282.20 416.23 273.38
  C 415.05 265.66 402.95 263.35 396.72 264.00
  Q 390.43 264.66 384.69 264.65
  Z"
/>
<path fill="#d25b96" d="
  M 378.41 258.82
  C 379.22 261.90 381.37 264.65 384.69 264.65
  Q 390.43 264.66 396.72 264.00
  C 402.95 263.35 415.05 265.66 416.23 273.38
  Q 417.58 282.20 409.52 287.27
  C 397.14 295.07 380.47 297.37 366.13 296.16
  C 362.03 295.82 357.82 290.43 355.81 287.16
  Q 345.19 269.88 345.62 249.77
  Q 345.70 246.05 347.13 241.37
  C 348.50 236.84 353.75 231.13 359.13 231.86
  C 367.27 232.97 373.35 241.82 375.67 249.10
  Q 376.74 252.47 378.41 258.82
  Z"
/>
<ellipse fill="#000000" cx="0.00" cy="0.00" transform="translate(406.24,308.93) rotate(-20.0)" rx="1.95" ry="0.17"/>
<path fill="#000000" d="
  M 252.69 368.24
  C 257.55 368.45 260.92 369.34 265.03 372.09
  Q 269.52 375.09 268.49 380.23
  C 267.54 385.00 262.38 386.34 258.46 384.36
  Q 255.59 382.90 252.51 381.93
  Q 252.31 381.87 252.09 381.86
  Q 251.87 381.85 251.67 381.89
  Q 248.51 382.59 245.52 383.79
  C 241.45 385.42 236.42 383.64 235.89 378.80
  Q 235.32 373.59 240.06 370.99
  C 244.39 368.61 247.83 368.03 252.69 368.24
  Z"
/>
<path fill="#000000" d="
  M 171.80 380.15
  A 1.91 1.90 80.9 0 1 170.49 381.96
  C 165.36 383.64 161.37 381.17 156.34 381.69
  A 4.10 4.06 -64.1 0 0 154.53 382.33
  C 151.84 384.07 149.00 385.18 146.51 383.79
  C 142.49 381.55 142.92 377.93 145.70 374.71
  C 150.23 369.46 155.45 368.78 161.98 369.39
  C 165.69 369.73 168.64 372.22 171.06 373.37
  A 1.31 1.29 -77.5 0 1 171.80 374.55
  L 171.80 380.15
  Z"
/>
<path fill="#000000" d="
  M 198.11 398.20
  Q 194.25 396.66 190.92 393.74
  A 2.47 2.46 -81.3 0 1 190.29 392.88
  Q 189.05 390.02 189.34 386.44
  A 2.69 2.68 -8.4 0 1 191.06 384.14
  Q 198.13 381.46 202.55 386.40
  A 1.42 1.38 68.3 0 0 203.58 386.86
  L 206.63 386.86
  A 1.58 1.55 25.1 0 0 207.62 386.51
  Q 212.79 382.42 219.27 385.64
  A 2.96 2.95 -81.0 0 1 220.89 387.88
  C 221.55 392.40 220.95 397.17 215.19 397.45
  A 2.06 2.06 0.0 0 0 214.11 397.80
  Q 211.30 399.72 211.37 402.30
  Q 211.49 406.94 209.53 408.35
  A 2.32 2.28 -68.4 0 1 208.65 408.74
  Q 203.46 409.80 200.78 405.70
  C 199.54 403.79 199.36 400.91 198.89 399.09
  A 1.31 1.29 4.2 0 0 198.11 398.20
  Z"
/>
<path fill="#dce0e0" d="
  M 317.05 467.88
  Q 314.13 468.11 313.43 465.07
  Q 312.59 461.45 312.47 458.43
  Q 312.25 452.91 312.06 452.06
  Q 311.42 449.19 311.43 446.56
  A 6.24 6.19 -53.5 0 0 311.17 444.78
  Q 310.75 443.35 308.75 436.06
  Q 307.60 431.87 302.39 426.57
  A 4.27 4.27 0.0 0 0 301.35 425.79
  Q 293.36 421.58 286.82 419.99
  C 283.26 419.13 278.72 419.49 275.28 419.45
  Q 244.20 419.08 225.76 419.85
  Q 222.88 419.97 201.04 421.44
  C 185.89 422.45 168.72 421.88 155.19 422.12
  A 2.65 2.08 30.1 0 0 154.69 422.19
  L 149.86 423.41
  A 5.87 5.57 36.5 0 1 148.47 423.58
  Q 148.05 423.58 135.73 423.68
  Q 128.73 423.73 125.16 425.24
  Q 118.43 428.08 114.54 433.67
  C 109.42 441.03 108.38 452.95 108.79 462.07
  A 0.68 0.68 0.0 0 1 107.83 462.72
  L 105.08 461.48
  Q 103.16 447.80 107.77 437.27
  Q 114.26 422.45 130.85 419.58
  C 150.22 416.24 166.01 413.71 184.00 413.27
  C 199.98 412.89 210.64 412.24 225.75 412.27
  Q 263.82 412.35 267.12 412.38
  C 284.99 412.56 305.24 412.52 311.98 433.24
  C 315.74 444.82 319.02 455.45 317.05 467.88
  Z"
/>
<path fill="#b7d3df" d="
  M 297.60 460.43
  Q 285.59 466.72 276.73 477.14
  Q 263.89 480.84 248.88 483.53
  A 0.44 0.44 0.0 0 1 248.36 483.11
  C 248.31 480.07 248.70 475.68 247.39 472.65
  Q 245.90 469.22 244.02 466.69
  C 241.67 463.53 237.75 462.85 234.12 461.71
  A 4.60 4.52 52.9 0 0 232.69 461.50
  C 226.68 461.54 219.39 463.07 214.71 467.47
  A 0.86 0.85 -54.0 0 1 213.77 467.62
  Q 208.26 465.12 207.06 464.79
  Q 200.01 462.85 192.55 465.76
  Q 179.12 471.01 182.26 485.88
  A 0.31 0.31 0.0 0 1 181.97 486.25
  Q 178.02 486.48 174.31 485.21
  Q 156.27 465.40 129.50 462.01
  Q 127.66 461.78 125.20 460.62
  Q 125.16 456.52 125.20 452.32
  Q 125.25 446.96 126.68 444.41
  Q 129.89 438.72 137.75 438.72
  Q 157.52 438.73 164.00 438.62
  C 166.47 438.58 169.40 437.89 172.01 437.88
  C 180.30 437.85 185.68 437.87 194.31 437.07
  Q 211.96 435.43 220.00 435.29
  Q 233.78 435.04 235.42 434.84
  C 242.01 434.03 247.54 434.57 254.79 434.03
  C 264.18 433.33 286.48 431.59 292.41 439.47
  Q 294.76 442.59 295.24 445.76
  Q 296.25 452.48 297.60 460.43
  Z"
/>
<path fill="#83afc3" d="
  M 297.60 460.43
  L 298.16 467.65
  A 2.20 2.20 0.0 0 1 296.81 469.85
  C 290.06 472.66 284.59 475.58 276.73 477.14
  Q 285.59 466.72 297.60 460.43
  Z"
/>
<path fill="#83afc3" d="
  M 125.20 460.62
  Q 127.66 461.78 129.50 462.01
  Q 156.27 465.40 174.31 485.21
  Q 167.70 483.46 165.08 481.43
  C 154.12 472.94 142.42 469.52 128.99 467.82
  Q 127.45 467.62 125.68 466.76
  A 0.84 0.83 -78.1 0 1 125.21 466.02
  L 125.20 460.62
  Z"
/>
<path fill="#d25b96" d="
  M 234.04 475.75
  L 235.57 478.85
  A 1.34 1.32 42.2 0 1 235.63 479.93
  Q 233.57 485.44 225.03 496.12
  Q 218.39 504.42 209.46 498.71
  Q 201.53 493.63 196.14 485.87
  C 194.87 484.06 193.65 480.07 195.84 478.42
  C 202.99 473.02 206.59 480.87 212.20 482.42
  C 219.24 484.36 221.39 477.94 226.22 475.25
  Q 230.33 472.96 233.56 475.19
  A 1.52 1.52 0.0 0 1 234.04 475.75
  Z"
/>
<path fill="#edefef" d="
  M 161.17 537.44
  C 157.65 543.47 150.34 549.73 143.49 552.57
  C 134.81 556.17 124.30 555.69 115.57 551.80
  Q 108.34 548.58 102.50 544.00
  C 93.63 537.03 88.10 525.55 89.65 514.06
  C 91.02 503.99 94.14 495.07 102.60 488.58
  C 109.57 483.22 119.82 481.82 128.66 482.90
  Q 131.26 483.22 138.54 485.00
  C 149.44 487.67 157.23 493.48 162.84 503.66
  C 168.84 514.54 166.99 527.45 161.17 537.44
  Z"
/>
<path fill="#edefef" d="
  M 272.97 517.21
  Q 275.44 505.78 283.32 496.88
  Q 294.48 484.28 310.21 482.91
  Q 326.39 481.50 336.84 491.38
  C 343.14 497.34 349.08 506.08 351.47 515.28
  C 354.26 526.04 346.36 538.27 338.85 545.35
  Q 333.57 550.34 325.81 552.83
  Q 320.34 554.59 318.93 554.67
  Q 310.79 555.10 302.93 554.63
  A 6.75 6.72 57.1 0 1 300.86 554.18
  Q 293.03 551.13 287.05 547.03
  C 278.85 541.40 274.02 529.45 272.85 519.80
  A 7.81 7.65 48.3 0 1 272.97 517.21
  Z"
/>
<path fill="#83afc3" d="
  M 271.34 560.44
  Q 268.94 557.09 261.24 547.51
  Q 255.57 540.44 253.37 529.68
  Q 249.65 511.53 258.76 495.71
  A 0.80 0.80 0.0 0 0 258.80 495.01
  Q 258.62 494.57 258.21 494.38
  Q 261.79 493.20 265.38 493.26
  A 0.55 0.55 0.0 0 1 265.82 494.12
  C 250.68 516.25 258.35 542.95 277.43 559.45
  A 0.22 0.22 0.0 0 1 277.31 559.83
  L 271.34 560.44
  Z"
/>
<path fill="#b7d3df" d="
  M 258.21 494.38
  Q 258.62 494.57 258.80 495.01
  A 0.80 0.80 0.0 0 1 258.76 495.71
  Q 249.65 511.53 253.37 529.68
  Q 255.57 540.44 261.24 547.51
  Q 268.94 557.09 271.34 560.44
  Q 249.72 561.43 238.75 560.82
  Q 223.93 559.99 213.45 561.36
  Q 213.37 561.39 213.28 561.41
  Q 197.39 561.16 181.50 560.26
  Q 174.23 559.85 167.07 560.64
  Q 165.91 560.16 166.24 559.77
  Q 169.79 555.63 173.20 551.39
  Q 177.39 546.17 179.47 542.51
  Q 190.84 522.48 183.37 499.23
  Q 189.35 498.60 192.75 501.73
  C 197.82 506.40 203.87 511.24 209.88 512.73
  C 224.40 516.33 231.42 507.67 240.18 498.74
  Q 241.87 497.02 245.33 496.43
  Q 251.76 495.33 258.21 494.38
  Z"
/>
<path fill="#83afc3" d="
  M 183.37 499.23
  Q 190.84 522.48 179.47 542.51
  Q 177.39 546.17 173.20 551.39
  Q 169.79 555.63 166.24 559.77
  Q 165.91 560.16 167.07 560.64
  Q 164.81 561.29 162.81 560.10
  A 0.48 0.48 0.0 0 1 162.73 559.34
  C 166.35 555.96 171.20 552.11 173.74 547.35
  Q 179.13 537.26 180.89 529.92
  Q 184.53 514.77 178.60 499.74
  A 0.72 0.72 0.0 0 1 179.35 498.76
  L 183.37 499.23
  Z"
/>
</svg>
