<?xml version="1.0" encoding="UTF-8" standalone="no"?>
<!DOCTYPE svg PUBLIC "-//W3C//DTD SVG 1.1//EN" "http://www.w3.org/Graphics/SVG/1.1/DTD/svg11.dtd">
<svg xmlns="http://www.w3.org/2000/svg" version="1.1" viewBox="0.00 50.00 390.00 600.00">
<g stroke-width="2.00" fill="none" stroke-linecap="butt">
<path stroke="#2c5434" vector-effect="non-scaling-stroke" d="
  M 177.97 273.39
  Q 178.75 277.13 178.77 281.66
  Q 178.79 285.41 179.26 286.33
  Q 180.42 288.61 183.03 288.96
  Q 185.28 289.27 207.23 295.30
  Q 209.64 295.97 210.93 293.69
  Q 215.50 285.56 219.37 279.70
  A 1.38 1.34 -21.0 0 0 219.56 279.29
  Q 220.06 277.67 222.01 274.55
  Q 223.85 271.59 226.20 263.15
  Q 227.42 258.74 226.69 256.90
  Q 225.52 254.00 222.32 252.25
  A 1.78 1.69 55.1 0 0 221.29 252.04
  Q 217.40 252.47 212.14 253.99
  C 204.97 256.05 199.45 255.23 194.09 249.99
  Q 191.94 247.89 189.62 246.06
  Q 185.90 243.14 183.34 246.84
  C 179.57 252.26 178.79 257.82 178.04 264.73"
/>
<path stroke="#2c5434" vector-effect="non-scaling-stroke" d="
  M 223.77 299.88
  A 0.32 0.32 0.0 0 0 223.84 300.33
  L 236.98 309.75
  A 2.42 2.40 -34.3 0 0 238.98 310.12
  Q 253.57 306.32 266.86 297.72
  C 268.89 296.41 270.25 294.70 272.01 293.32
  C 275.37 290.69 277.65 286.83 279.24 282.77
  C 280.82 278.77 278.54 276.44 274.93 275.25
  A 0.86 0.25 29.0 0 0 274.80 275.22
  L 271.76 275.13
  A 1.45 1.21 50.3 0 1 271.44 275.07
  L 264.63 272.84
  A 4.42 4.31 -16.2 0 1 263.30 272.13
  C 260.74 270.16 258.85 268.14 257.59 264.61
  Q 256.70 262.11 255.18 259.44
  A 1.87 1.77 88.4 0 0 254.51 258.77
  Q 252.11 257.38 250.02 257.78
  C 244.99 258.77 241.91 259.05 240.73 264.49
  C 240.03 267.70 239.32 271.95 237.74 275.73
  C 234.26 284.08 229.07 292.63 223.77 299.88"
/>
<path stroke="#7d4115" vector-effect="non-scaling-stroke" d="
  M 125.94 341.86
  C 130.70 342.13 141.62 343.74 144.27 348.31
  Q 147.28 353.47 142.23 358.07
  A 1.71 1.62 -69.0 0 1 141.33 358.50
  Q 136.25 359.22 131.43 357.30"
/>
<path stroke="#7d4115" vector-effect="non-scaling-stroke" d="
  M 130.95 357.27
  Q 122.48 355.57 113.77 356.09
  A 1.73 1.72 8.8 0 0 112.27 357.18
  C 110.14 362.65 109.01 368.10 107.61 373.77
  Q 103.74 389.46 100.06 405.22"
/>
<path stroke="#7d4115" vector-effect="non-scaling-stroke" d="
  M 100.06 405.22
  C 96.16 421.98 91.98 438.60 87.86 455.38
  C 86.58 460.58 86.25 465.00 85.18 469.97
  A 11.86 11.70 -43.0 0 0 85.01 473.97
  C 86.11 482.78 91.76 496.84 101.54 498.96
  Q 112.77 501.39 123.69 494.92"
/>
<path stroke="#808080" vector-effect="non-scaling-stroke" d="
  M 123.69 494.92
  Q 123.87 494.72 124.11 494.62"
/>
<path stroke="#7d4115" vector-effect="non-scaling-stroke" d="
  M 124.11 494.62
  Q 134.99 489.17 144.96 481.84
  A 1.08 1.08 0.0 0 0 145.14 480.27
  Q 141.64 476.17 138.19 473.68
  C 134.36 470.91 132.41 467.78 134.73 463.71
  C 137.76 458.38 144.09 459.51 148.29 462.73
  Q 153.55 466.76 157.60 471.25
  A 1.11 1.10 48.6 0 0 159.13 471.35
  C 174.07 458.54 187.30 444.74 201.89 429.94
  Q 205.40 426.38 206.76 424.72
  C 210.23 420.49 213.52 417.44 217.19 412.37
  Q 218.77 410.20 222.61 405.13
  Q 226.81 399.61 234.80 386.00
  C 237.83 380.85 240.33 373.82 241.42 368.94
  C 243.78 358.37 243.23 347.39 238.59 337.66
  C 234.21 328.48 227.26 318.73 218.57 315.04
  C 207.97 310.54 197.58 307.96 188.57 305.19
  Q 182.99 303.47 178.65 302.92
  C 169.93 301.82 163.52 301.31 155.99 304.28
  C 139.22 310.90 126.11 323.09 118.85 339.72
  A 0.70 0.70 0.0 0 0 119.35 340.69
  L 124.49 341.78"
/>
<path stroke="#fdc195" vector-effect="non-scaling-stroke" d="
  M 124.11 494.62
  Q 128.44 490.42 133.22 487.92
  C 135.54 486.70 136.09 483.19 133.54 481.68
  C 129.76 479.44 123.35 485.77 120.60 487.85
  C 118.17 489.68 116.50 492.91 119.84 494.91
  A 1.23 1.22 58.6 0 0 120.53 495.08
  L 123.69 494.92"
/>
<path stroke="#acd4b4" vector-effect="non-scaling-stroke" d="
  M 220.7259 262.0859
  A 3.63 3.40 99.9 0 0 224.6994 259.0946
  A 3.63 3.40 99.9 0 0 221.9741 254.9341
  A 3.63 3.40 99.9 0 0 218.0006 257.9254
  A 3.63 3.40 99.9 0 0 220.7259 262.0859"
/>
<path stroke="#acd4b4" vector-effect="non-scaling-stroke" d="
  M 221.2950 271.6104
  A 3.39 3.39 0.0 0 0 219.9414 267.0113
  L 219.6780 266.8677
  A 3.39 3.39 0.0 0 0 215.0788 268.2213
  L 211.3450 275.0696
  A 3.39 3.39 0.0 0 0 212.6986 279.6687
  L 212.9620 279.8123
  A 3.39 3.39 0.0 0 0 217.5612 278.4587
  L 221.2950 271.6104"
/>
<path stroke="#acd4b4" vector-effect="non-scaling-stroke" d="
  M 275.5332 283.6737
  A 3.43 3.43 0.0 0 0 274.4668 278.9417
  L 274.2301 278.7920
  A 3.43 3.43 0.0 0 0 269.4981 279.8585
  L 264.9668 287.0263
  A 3.43 3.43 0.0 0 0 266.0332 291.7583
  L 266.2699 291.9080
  A 3.43 3.43 0.0 0 0 271.0019 290.8415
  L 275.5332 283.6737"
/>
<path stroke="#fdc195" vector-effect="non-scaling-stroke" d="
  M 226.90 332.49
  C 224.39 332.63 222.96 335.12 224.13 337.41
  C 228.96 346.91 229.45 357.19 228.09 367.56
  Q 226.03 383.36 216.24 396.13
  Q 214.42 398.51 214.62 400.05
  C 215.14 404.14 219.41 404.75 221.82 401.83
  Q 229.30 392.79 232.58 382.21
  C 237.12 367.55 237.85 351.70 232.11 337.66
  C 231.27 335.60 229.64 332.34 226.90 332.49"
/>
<path stroke="#7d4115" vector-effect="non-scaling-stroke" d="
  M 192.77 411.66
  L 192.77 404.89
  A 1.60 1.59 26.4 0 0 192.44 403.92
  Q 184.49 393.67 172.11 390.36
  Q 170.80 390.01 165.78 391.57
  A 2.03 1.95 10.1 0 0 164.81 392.22
  C 162.34 395.24 161.53 401.66 165.46 403.52
  Q 173.16 407.16 173.88 407.59
  A 5.91 5.66 79.9 0 1 174.92 408.35
  L 181.34 414.13
  A 4.22 3.79 76.7 0 0 182.16 414.70
  Q 187.74 417.73 192.49 412.38
  A 1.09 1.06 -24.5 0 0 192.77 411.66"
/>
<path stroke="#fdc195" vector-effect="non-scaling-stroke" d="
  M 204.4456 421.0027
  A 3.45 3.45 0.0 0 0 203.7919 416.1677
  L 203.6328 416.0465
  A 3.45 3.45 0.0 0 0 198.7978 416.7002
  L 191.9744 425.6573
  A 3.45 3.45 0.0 0 0 192.6281 430.4923
  L 192.7872 430.6135
  A 3.45 3.45 0.0 0 0 197.6222 429.9598
  L 204.4456 421.0027"
/>
</g>
<path fill="#000000" d="
  M 247.69 322.84
  A 0.62 0.62 0.0 0 0 247.47 323.75
  Q 251.71 329.78 254.68 337.81
  Q 256.74 343.39 256.93 351.12
  Q 257.20 362.62 256.63 367.97
  Q 255.63 377.31 251.01 386.78
  Q 241.64 406.01 231.66 418.90
  Q 224.61 428.00 212.13 441.13
  Q 201.30 452.53 187.46 465.96
  Q 165.93 486.85 141.56 502.56
  C 123.99 513.89 99.25 522.04 82.57 504.00
  Q 73.54 494.24 70.82 480.43
  Q 70.36 478.06 70.47 470.12
  Q 70.53 465.75 71.73 459.88
  Q 74.08 448.38 76.98 436.95
  Q 83.12 412.76 85.06 403.81
  Q 90.12 380.45 94.45 362.64
  Q 97.51 350.05 103.07 337.47
  Q 109.26 323.48 116.60 314.63
  Q 132.18 295.85 156.51 288.82
  C 158.15 288.34 160.49 288.60 161.71 288.28
  C 165.16 287.40 164.80 284.97 163.94 282.31
  A 4.31 4.07 -55.9 0 1 163.74 281.09
  Q 163.49 260.88 163.92 257.62
  Q 164.73 251.58 168.13 243.15
  C 171.44 234.97 181.77 226.59 191.22 230.28
  Q 199.08 233.36 204.65 240.07
  A 1.86 1.84 61.9 0 0 206.59 240.67
  Q 211.37 239.29 216.49 237.98
  C 221.19 236.78 224.39 237.79 229.54 239.27
  C 233.26 240.35 235.54 242.83 238.18 245.49
  A 1.23 1.23 0.0 0 0 239.49 245.76
  C 249.38 241.89 262.67 242.01 268.11 252.90
  C 269.50 255.68 269.87 258.41 272.83 260.59
  A 2.00 1.98 64.7 0 0 273.93 260.99
  C 281.84 261.47 288.61 264.51 292.88 271.60
  A 4.02 3.95 24.8 0 1 293.39 272.95
  Q 295.02 281.69 293.40 287.21
  Q 290.47 297.20 282.08 304.57
  C 274.62 311.13 264.91 316.63 254.59 320.26
  Q 248.55 322.38 247.69 322.84
  Z
  M 178.04 264.73
  C 177.94 264.27 177.91 263.83 177.89 263.39
  Q 177.89 263.42 177.89 263.45
  Q 177.45 268.02 177.97 273.39
  Q 178.75 277.13 178.77 281.66
  Q 178.79 285.41 179.26 286.33
  Q 180.42 288.61 183.03 288.96
  Q 185.28 289.27 207.23 295.30
  Q 209.64 295.97 210.93 293.69
  Q 215.50 285.56 219.37 279.70
  A 1.38 1.34 -21.0 0 0 219.56 279.29
  Q 220.06 277.67 222.01 274.55
  Q 223.85 271.59 226.20 263.15
  Q 227.42 258.74 226.69 256.90
  Q 225.52 254.00 222.32 252.25
  A 1.78 1.69 55.1 0 0 221.29 252.04
  Q 217.40 252.47 212.14 253.99
  C 204.97 256.05 199.45 255.23 194.09 249.99
  Q 191.94 247.89 189.62 246.06
  Q 185.90 243.14 183.34 246.84
  C 179.57 252.26 178.79 257.82 178.04 264.73
  Z
  M 223.77 299.88
  A 0.32 0.32 0.0 0 0 223.84 300.33
  L 236.98 309.75
  A 2.42 2.40 -34.3 0 0 238.98 310.12
  Q 253.57 306.32 266.86 297.72
  C 268.89 296.41 270.25 294.70 272.01 293.32
  C 275.37 290.69 277.65 286.83 279.24 282.77
  C 280.82 278.77 278.54 276.44 274.93 275.25
  A 0.86 0.25 29.0 0 0 274.80 275.22
  L 271.76 275.13
  A 1.45 1.21 50.3 0 1 271.44 275.07
  L 264.63 272.84
  A 4.42 4.31 -16.2 0 1 263.30 272.13
  C 260.74 270.16 258.85 268.14 257.59 264.61
  Q 256.70 262.11 255.18 259.44
  A 1.87 1.77 88.4 0 0 254.51 258.77
  Q 252.11 257.38 250.02 257.78
  C 244.99 258.77 241.91 259.05 240.73 264.49
  C 240.03 267.70 239.32 271.95 237.74 275.73
  C 234.26 284.08 229.07 292.63 223.77 299.88
  Z
  M 124.49 341.78
  Q 125.02 342.16 125.94 341.86
  C 130.70 342.13 141.62 343.74 144.27 348.31
  Q 147.28 353.47 142.23 358.07
  A 1.71 1.62 -69.0 0 1 141.33 358.50
  Q 136.25 359.22 131.43 357.30
  Q 131.59 356.91 131.31 356.89
  Q 130.92 356.87 130.95 357.27
  Q 122.48 355.57 113.77 356.09
  A 1.73 1.72 8.8 0 0 112.27 357.18
  C 110.14 362.65 109.01 368.10 107.61 373.77
  Q 103.74 389.46 100.06 405.22
  L 99.86 404.40
  A 0.12 0.11 -46.3 0 0 99.64 404.41
  Q 99.54 404.88 100.06 405.22
  C 96.16 421.98 91.98 438.60 87.86 455.38
  C 86.58 460.58 86.25 465.00 85.18 469.97
  A 11.86 11.70 -43.0 0 0 85.01 473.97
  C 86.11 482.78 91.76 496.84 101.54 498.96
  Q 112.77 501.39 123.69 494.92
  Q 123.87 494.72 124.11 494.62
  Q 134.99 489.17 144.96 481.84
  A 1.08 1.08 0.0 0 0 145.14 480.27
  Q 141.64 476.17 138.19 473.68
  C 134.36 470.91 132.41 467.78 134.73 463.71
  C 137.76 458.38 144.09 459.51 148.29 462.73
  Q 153.55 466.76 157.60 471.25
  A 1.11 1.10 48.6 0 0 159.13 471.35
  C 174.07 458.54 187.30 444.74 201.89 429.94
  Q 205.40 426.38 206.76 424.72
  C 210.23 420.49 213.52 417.44 217.19 412.37
  Q 218.77 410.20 222.61 405.13
  Q 226.81 399.61 234.80 386.00
  C 237.83 380.85 240.33 373.82 241.42 368.94
  C 243.78 358.37 243.23 347.39 238.59 337.66
  C 234.21 328.48 227.26 318.73 218.57 315.04
  C 207.97 310.54 197.58 307.96 188.57 305.19
  Q 182.99 303.47 178.65 302.92
  C 169.93 301.82 163.52 301.31 155.99 304.28
  C 139.22 310.90 126.11 323.09 118.85 339.72
  A 0.70 0.70 0.0 0 0 119.35 340.69
  L 124.49 341.78
  Z"
/>
<path fill="#58a868" d="
  M 177.97 273.39
  L 178.04 264.73
  C 178.79 257.82 179.57 252.26 183.34 246.84
  Q 185.90 243.14 189.62 246.06
  Q 191.94 247.89 194.09 249.99
  C 199.45 255.23 204.97 256.05 212.14 253.99
  Q 217.40 252.47 221.29 252.04
  A 1.78 1.69 55.1 0 1 222.32 252.25
  Q 225.52 254.00 226.69 256.90
  Q 227.42 258.74 226.20 263.15
  Q 223.85 271.59 222.01 274.55
  Q 220.06 277.67 219.56 279.29
  A 1.38 1.34 -21.0 0 1 219.37 279.70
  Q 215.50 285.56 210.93 293.69
  Q 209.64 295.97 207.23 295.30
  Q 185.28 289.27 183.03 288.96
  Q 180.42 288.61 179.26 286.33
  Q 178.79 285.41 178.77 281.66
  Q 178.75 277.13 177.97 273.39
  Z
  M 220.7259 262.0859
  A 3.63 3.40 99.9 0 0 224.6994 259.0946
  A 3.63 3.40 99.9 0 0 221.9741 254.9341
  A 3.63 3.40 99.9 0 0 218.0006 257.9254
  A 3.63 3.40 99.9 0 0 220.7259 262.0859
  Z
  M 221.2950 271.6104
  A 3.39 3.39 0.0 0 0 219.9414 267.0113
  L 219.6780 266.8677
  A 3.39 3.39 0.0 0 0 215.0788 268.2213
  L 211.3450 275.0696
  A 3.39 3.39 0.0 0 0 212.6986 279.6687
  L 212.9620 279.8123
  A 3.39 3.39 0.0 0 0 217.5612 278.4587
  L 221.2950 271.6104
  Z"
/>
<ellipse fill="#ffffff" cx="0.00" cy="0.00" transform="translate(221.35,258.51) rotate(99.9)" rx="3.63" ry="3.40"/>
<path fill="#58a868" d="
  M 223.77 299.88
  C 229.07 292.63 234.26 284.08 237.74 275.73
  C 239.32 271.95 240.03 267.70 240.73 264.49
  C 241.91 259.05 244.99 258.77 250.02 257.78
  Q 252.11 257.38 254.51 258.77
  A 1.87 1.77 88.4 0 1 255.18 259.44
  Q 256.70 262.11 257.59 264.61
  C 258.85 268.14 260.74 270.16 263.30 272.13
  A 4.42 4.31 -16.2 0 0 264.63 272.84
  L 271.44 275.07
  A 1.45 1.21 50.3 0 0 271.76 275.13
  L 274.80 275.22
  A 0.86 0.25 29.0 0 1 274.93 275.25
  C 278.54 276.44 280.82 278.77 279.24 282.77
  C 277.65 286.83 275.37 290.69 272.01 293.32
  C 270.25 294.70 268.89 296.41 266.86 297.72
  Q 253.57 306.32 238.98 310.12
  A 2.42 2.40 -34.3 0 1 236.98 309.75
  L 223.84 300.33
  A 0.32 0.32 0.0 0 1 223.77 299.88
  Z
  M 275.5332 283.6737
  A 3.43 3.43 0.0 0 0 274.4668 278.9417
  L 274.2301 278.7920
  A 3.43 3.43 0.0 0 0 269.4981 279.8585
  L 264.9668 287.0263
  A 3.43 3.43 0.0 0 0 266.0332 291.7583
  L 266.2699 291.9080
  A 3.43 3.43 0.0 0 0 271.0019 290.8415
  L 275.5332 283.6737
  Z"
/>
<rect fill="#ffffff" x="-3.54" y="-7.29" transform="translate(216.32,273.34) rotate(28.6)" width="7.08" height="14.58" rx="3.39"/>
<rect fill="#ffffff" x="-3.57" y="-7.67" transform="translate(270.25,285.35) rotate(32.3)" width="7.14" height="15.34" rx="3.43"/>
<path fill="#fa822a" d="
  M 124.11 494.62
  Q 128.44 490.42 133.22 487.92
  C 135.54 486.70 136.09 483.19 133.54 481.68
  C 129.76 479.44 123.35 485.77 120.60 487.85
  C 118.17 489.68 116.50 492.91 119.84 494.91
  A 1.23 1.22 58.6 0 0 120.53 495.08
  L 123.69 494.92
  Q 112.77 501.39 101.54 498.96
  C 91.76 496.84 86.11 482.78 85.01 473.97
  A 11.86 11.70 -43.0 0 1 85.18 469.97
  C 86.25 465.00 86.58 460.58 87.86 455.38
  C 91.98 438.60 96.16 421.98 100.06 405.22
  Q 103.74 389.46 107.61 373.77
  C 109.01 368.10 110.14 362.65 112.27 357.18
  A 1.73 1.72 8.8 0 1 113.77 356.09
  Q 122.48 355.57 130.95 357.27
  Q 131.20 357.23 131.43 357.30
  Q 136.25 359.22 141.33 358.50
  A 1.71 1.62 -69.0 0 0 142.23 358.07
  Q 147.28 353.47 144.27 348.31
  C 141.62 343.74 130.70 342.13 125.94 341.86
  L 124.49 341.78
  L 119.35 340.69
  A 0.70 0.70 0.0 0 1 118.85 339.72
  C 126.11 323.09 139.22 310.90 155.99 304.28
  C 163.52 301.31 169.93 301.82 178.65 302.92
  Q 182.99 303.47 188.57 305.19
  C 197.58 307.96 207.97 310.54 218.57 315.04
  C 227.26 318.73 234.21 328.48 238.59 337.66
  C 243.23 347.39 243.78 358.37 241.42 368.94
  C 240.33 373.82 237.83 380.85 234.80 386.00
  Q 226.81 399.61 222.61 405.13
  Q 218.77 410.20 217.19 412.37
  C 213.52 417.44 210.23 420.49 206.76 424.72
  Q 205.40 426.38 201.89 429.94
  C 187.30 444.74 174.07 458.54 159.13 471.35
  A 1.11 1.10 48.6 0 1 157.60 471.25
  Q 153.55 466.76 148.29 462.73
  C 144.09 459.51 137.76 458.38 134.73 463.71
  C 132.41 467.78 134.36 470.91 138.19 473.68
  Q 141.64 476.17 145.14 480.27
  A 1.08 1.08 0.0 0 1 144.96 481.84
  Q 134.99 489.17 124.11 494.62
  Z
  M 226.90 332.49
  C 224.39 332.63 222.96 335.12 224.13 337.41
  C 228.96 346.91 229.45 357.19 228.09 367.56
  Q 226.03 383.36 216.24 396.13
  Q 214.42 398.51 214.62 400.05
  C 215.14 404.14 219.41 404.75 221.82 401.83
  Q 229.30 392.79 232.58 382.21
  C 237.12 367.55 237.85 351.70 232.11 337.66
  C 231.27 335.60 229.64 332.34 226.90 332.49
  Z
  M 192.77 411.66
  L 192.77 404.89
  A 1.60 1.59 26.4 0 0 192.44 403.92
  Q 184.49 393.67 172.11 390.36
  Q 170.80 390.01 165.78 391.57
  A 2.03 1.95 10.1 0 0 164.81 392.22
  C 162.34 395.24 161.53 401.66 165.46 403.52
  Q 173.16 407.16 173.88 407.59
  A 5.91 5.66 79.9 0 1 174.92 408.35
  L 181.34 414.13
  A 4.22 3.79 76.7 0 0 182.16 414.70
  Q 187.74 417.73 192.49 412.38
  A 1.09 1.06 -24.5 0 0 192.77 411.66
  Z
  M 204.4456 421.0027
  A 3.45 3.45 0.0 0 0 203.7919 416.1677
  L 203.6328 416.0465
  A 3.45 3.45 0.0 0 0 198.7978 416.7002
  L 191.9744 425.6573
  A 3.45 3.45 0.0 0 0 192.6281 430.4923
  L 192.7872 430.6135
  A 3.45 3.45 0.0 0 0 197.6222 429.9598
  L 204.4456 421.0027
  Z"
/>
<path fill="#ffffff" d="
  M 224.13 337.41
  C 222.96 335.12 224.39 332.63 226.90 332.49
  C 229.64 332.34 231.27 335.60 232.11 337.66
  C 237.85 351.70 237.12 367.55 232.58 382.21
  Q 229.30 392.79 221.82 401.83
  C 219.41 404.75 215.14 404.14 214.62 400.05
  Q 214.42 398.51 216.24 396.13
  Q 226.03 383.36 228.09 367.56
  C 229.45 357.19 228.96 346.91 224.13 337.41
  Z"
/>
<path fill="#000000" d="
  M 192.49 412.38
  Q 187.74 417.73 182.16 414.70
  A 4.22 3.79 76.7 0 1 181.34 414.13
  L 174.92 408.35
  A 5.91 5.66 79.9 0 0 173.88 407.59
  Q 173.16 407.16 165.46 403.52
  C 161.53 401.66 162.34 395.24 164.81 392.22
  A 2.03 1.95 10.1 0 1 165.78 391.57
  Q 170.80 390.01 172.11 390.36
  Q 184.49 393.67 192.44 403.92
  A 1.60 1.59 26.4 0 1 192.77 404.89
  L 192.77 411.66
  A 1.09 1.06 -24.5 0 1 192.49 412.38
  Z"
/>
<rect fill="#ffffff" x="-3.55" y="-9.08" transform="translate(198.21,423.33) rotate(37.3)" width="7.10" height="18.16" rx="3.45"/>
<path fill="#ffffff" d="
  M 124.11 494.62
  Q 123.87 494.72 123.69 494.92
  L 120.53 495.08
  A 1.23 1.22 58.6 0 1 119.84 494.91
  C 116.50 492.91 118.17 489.68 120.60 487.85
  C 123.35 485.77 129.76 479.44 133.54 481.68
  C 136.09 483.19 135.54 486.70 133.22 487.92
  Q 128.44 490.42 124.11 494.62
  Z"
/>
</svg>
