<?xml version="1.0" encoding="UTF-8" standalone="no"?>
<!DOCTYPE svg PUBLIC "-//W3C//DTD SVG 1.1//EN" "http://www.w3.org/Graphics/SVG/1.1/DTD/svg11.dtd">
<svg xmlns="http://www.w3.org/2000/svg" version="1.1" viewBox="0.00 0.00 420.00 438.00">
<g stroke-width="2.00" fill="none" stroke-linecap="butt">
<path stroke="#808080" vector-effect="non-scaling-stroke" d="
  M 83.54 223.00
  L 103.70 216.47"
/>
<path stroke="#7d384b" vector-effect="non-scaling-stroke" d="
  M 103.70 216.47
  Q 115.81 212.39 125.59 219.18
  C 131.77 223.46 134.26 231.11 136.81 238.33
  C 138.38 242.81 141.60 248.25 144.34 251.20
  C 149.55 256.82 158.29 258.43 164.86 254.61
  Q 169.66 251.82 173.95 248.19"
/>
<path stroke="#808080" vector-effect="non-scaling-stroke" d="
  M 173.95 248.19
  L 182.20 240.85"
/>
<path stroke="#7d384b" vector-effect="non-scaling-stroke" d="
  M 182.20 240.85
  C 192.05 233.21 201.61 228.51 214.33 230.95
  C 217.87 231.63 220.09 232.71 224.45 234.42
  C 230.02 236.61 235.06 236.89 240.39 234.68
  Q 250.93 230.29 254.50 220.63"
/>
<path stroke="#808080" vector-effect="non-scaling-stroke" d="
  M 254.50 220.63
  Q 257.70 211.32 258.20 207.48
  Q 259.04 200.96 260.85 194.29"
/>
<path stroke="#7d384b" vector-effect="non-scaling-stroke" d="
  M 260.85 194.29
  Q 268.06 178.44 285.08 172.36
  Q 286.12 171.99 293.48 168.81
  Q 298.49 166.64 301.14 164.03
  C 312.81 152.52 313.07 133.68 299.20 123.61"
/>
<path stroke="#808080" vector-effect="non-scaling-stroke" d="
  M 299.20 123.61
  Q 289.68 115.49 278.09 110.49"
/>
<path stroke="#7d384b" vector-effect="non-scaling-stroke" d="
  M 278.09 110.49
  Q 277.43 110.12 276.69 110.01"
/>
<path stroke="#7d384b" vector-effect="non-scaling-stroke" d="
  M 276.69 110.01
  L 268.88 106.63
  A 5.28 4.96 60.8 0 0 267.81 106.29
  C 263.72 105.47 260.29 103.72 256.24 103.48
  Q 255.36 103.42 252.60 102.57
  Q 246.31 100.62 240.58 100.87
  Q 238.59 100.96 236.18 100.28
  Q 235.20 100.00 231.57 99.88
  Q 224.54 99.66 220.22 100.77
  A 5.52 5.45 38.2 0 1 218.61 100.95
  Q 210.48 100.64 202.45 103.48
  A 2.22 2.16 38.6 0 1 201.44 103.58
  C 198.09 103.09 194.68 104.74 191.69 105.22
  Q 184.25 106.40 182.76 106.75
  Q 171.64 109.39 154.96 116.11
  C 145.32 120.00 139.13 124.08 127.25 130.77
  Q 94.85 149.02 74.19 180.68
  Q 70.45 186.43 66.57 195.86
  Q 64.47 200.98 64.19 205.49
  Q 63.90 210.15 66.52 215.03
  Q 71.64 224.54 83.54 223.00"
/>
<path stroke="#fdb8cb" vector-effect="non-scaling-stroke" d="
  M 276.69 110.01
  C 274.62 110.32 273.47 109.06 271.93 108.86
  C 269.52 108.54 267.53 107.49 264.66 106.81
  Q 239.75 100.89 212.81 102.33
  C 211.31 102.41 210.71 102.96 209.05 102.88
  Q 206.60 102.75 204.85 103.64
  A 2.13 2.07 31.7 0 1 203.87 103.86
  Q 199.41 103.74 197.70 107.46
  A 2.02 1.94 54.4 0 0 197.54 108.56
  Q 198.05 112.41 201.92 111.59
  Q 209.22 110.05 214.50 109.85
  C 242.10 108.81 268.94 113.16 292.37 127.36
  Q 297.06 130.21 299.20 123.61"
/>
<path stroke="#fdb8cb" vector-effect="non-scaling-stroke" d="
  M 260.85 194.29
  Q 257.79 189.40 254.47 193.04
  Q 253.85 193.73 253.60 194.91
  Q 251.94 202.83 249.56 210.81
  Q 247.31 218.37 241.73 224.16
  C 238.19 227.84 243.60 232.13 246.89 229.61
  Q 250.56 226.80 254.50 220.63"
/>
<path stroke="#fdb8cb" vector-effect="non-scaling-stroke" d="
  M 182.20 240.85
  C 183.39 238.48 186.35 235.99 185.98 233.33
  Q 185.62 230.73 182.91 230.39
  A 1.94 1.91 -53.8 0 0 181.80 230.57
  Q 179.89 231.49 179.13 232.38
  Q 175.53 236.61 172.40 239.42
  C 168.84 242.60 165.73 243.72 161.31 245.52
  Q 157.49 247.07 158.74 250.57
  A 3.04 2.77 -8.1 0 0 161.47 252.43
  Q 164.24 252.49 167.40 251.13
  Q 170.59 249.75 173.95 248.19"
/>
<path stroke="#fdb8cb" vector-effect="non-scaling-stroke" d="
  M 103.70 216.47
  C 105.38 212.29 102.71 208.83 98.29 210.79
  C 91.95 213.60 87.05 214.42 79.20 215.99
  A 2.77 2.62 21.5 0 0 78.33 216.34
  C 75.42 218.16 77.05 222.81 80.50 222.74
  Q 82.32 222.71 83.54 223.00"
/>
<path stroke="#fdb8cb" vector-effect="non-scaling-stroke" d="
  M 276.69 110.01
  Q 276.89 111.05 278.09 110.49"
/>
<path stroke="#604134" vector-effect="non-scaling-stroke" d="
  M 319.21 165.73
  Q 313.06 177.85 299.78 183.04
  C 287.29 187.92 277.13 191.35 274.19 205.66
  Q 273.46 209.21 272.73 213.76
  C 271.90 218.99 269.63 224.05 268.31 229.06
  Q 267.74 231.21 264.31 235.37
  C 257.29 243.91 247.42 250.01 236.47 250.74
  Q 224.35 251.53 212.68 246.33
  Q 206.70 243.66 201.12 247.08
  C 193.05 252.02 185.25 259.79 180.86 262.84
  Q 172.41 268.73 169.46 269.76
  Q 161.72 272.45 150.68 270.87
  Q 146.66 270.30 144.15 268.91
  Q 132.33 262.33 125.66 250.87
  C 123.60 247.33 122.12 242.64 119.99 237.03
  C 117.54 230.61 114.17 229.23 107.65 231.45
  C 104.09 232.66 98.85 234.02 94.87 235.40
  Q 87.47 237.96 79.08 238.15
  A 0.74 0.74 0.0 0 0 78.36 238.91
  Q 78.47 242.45 79.60 245.92
  C 86.84 268.07 104.87 283.43 125.82 292.18
  Q 133.13 295.23 148.04 300.02
  Q 148.92 300.30 158.05 301.26
  Q 161.90 301.66 165.40 302.32
  Q 170.37 303.27 177.02 302.54
  Q 189.79 301.15 191.58 300.84
  Q 205.19 298.47 220.48 294.67
  Q 253.77 286.39 282.26 265.51
  C 296.52 255.06 305.90 241.62 313.29 225.03
  Q 318.94 212.38 320.71 201.25
  Q 323.42 184.28 320.86 168.43
  Q 320.56 166.55 319.98 165.68
  A 0.45 0.45 0.0 0 0 319.21 165.73"
/>
<path stroke="#c4467f" vector-effect="non-scaling-stroke" d="
  M 193.2869 124.8300
  A 3.31 3.31 0.0 0 0 190.2968 121.2285
  L 189.9583 121.1970
  A 3.31 3.31 0.0 0 0 186.3567 124.1871
  L 185.5531 132.8500
  A 3.31 3.31 0.0 0 0 188.5432 136.4515
  L 188.8817 136.4830
  A 3.31 3.31 0.0 0 0 192.4833 133.4929
  L 193.2869 124.8300"
/>
<path stroke="#c4467f" vector-effect="non-scaling-stroke" d="
  M 245.5106 129.7713
  A 3.20 3.20 0.0 0 0 242.6382 126.2743
  L 236.9654 125.7181
  A 3.20 3.20 0.0 0 0 233.4684 128.5906
  L 233.4294 128.9887
  A 3.20 3.20 0.0 0 0 236.3018 132.4857
  L 241.9746 133.0419
  A 3.20 3.20 0.0 0 0 245.4716 130.1694
  L 245.5106 129.7713"
/>
<path stroke="#fdb8cb" vector-effect="non-scaling-stroke" d="
  M 306.6903 137.1952
  A 3.18 3.06 -18.8 0 0 302.6939 135.3233
  A 3.18 3.06 -18.8 0 0 300.6697 139.2448
  A 3.18 3.06 -18.8 0 0 304.6661 141.1167
  A 3.18 3.06 -18.8 0 0 306.6903 137.1952"
/>
<path stroke="#c4467f" vector-effect="non-scaling-stroke" d="
  M 142.3393 148.6698
  A 6.23 3.78 37.7 0 0 139.7216 141.8692
  A 6.23 3.78 37.7 0 0 132.4807 141.0502
  A 6.23 3.78 37.7 0 0 135.0984 147.8508
  A 6.23 3.78 37.7 0 0 142.3393 148.6698"
/>
<path stroke="#c4467f" vector-effect="non-scaling-stroke" d="
  M 283.7021 144.7827
  A 3.47 3.47 0.0 0 0 279.3066 142.6008
  L 270.8714 145.4395
  A 3.47 3.47 0.0 0 0 268.6895 149.8350
  L 268.7979 150.1573
  A 3.47 3.47 0.0 0 0 273.1934 152.3392
  L 281.6286 149.5005
  A 3.47 3.47 0.0 0 0 283.8105 145.1050
  L 283.7021 144.7827"
/>
<path stroke="#7d384b" vector-effect="non-scaling-stroke" d="
  M 144.29 185.95
  C 151.10 197.13 161.94 198.13 173.85 197.35
  C 188.14 196.42 202.28 190.28 212.21 179.49
  Q 217.92 173.30 217.63 164.87
  C 217.26 153.73 208.12 146.24 197.45 145.61
  C 185.36 144.91 172.91 147.72 162.23 152.96
  C 155.32 156.35 145.39 164.96 143.86 173.16
  Q 142.86 178.52 143.75 184.44
  A 4.12 4.09 -64.9 0 0 144.29 185.95"
/>
<path stroke="#c4467f" vector-effect="non-scaling-stroke" d="
  M 109.5538 160.2339
  A 3.34 3.34 0.0 0 0 104.8392 159.9455
  L 100.1357 164.1068
  A 3.34 3.34 0.0 0 0 99.8474 168.8214
  L 100.0462 169.0461
  A 3.34 3.34 0.0 0 0 104.7608 169.3345
  L 109.4643 165.1732
  A 3.34 3.34 0.0 0 0 109.7526 160.4586
  L 109.5538 160.2339"
/>
<path stroke="#c4467f" vector-effect="non-scaling-stroke" d="
  M 240.0550 177.0339
  A 3.34 3.34 0.0 0 0 235.5970 175.4728
  L 229.3074 178.4997
  A 3.34 3.34 0.0 0 0 227.7463 182.9577
  L 227.8850 183.2461
  A 3.34 3.34 0.0 0 0 232.3430 184.8072
  L 238.6326 181.7803
  A 3.34 3.34 0.0 0 0 240.1937 177.3223
  L 240.0550 177.0339"
/>
<path stroke="#fdb8cb" vector-effect="non-scaling-stroke" d="
  M 123.39 188.58
  A 3.33 3.33 0.0 0 0 120.06 185.25
  A 3.33 3.33 0.0 0 0 116.73 188.58
  A 3.33 3.33 0.0 0 0 120.06 191.91
  A 3.33 3.33 0.0 0 0 123.39 188.58"
/>
<path stroke="#c4467f" vector-effect="non-scaling-stroke" d="
  M 142.5635 196.4899
  A 3.35 3.35 0.0 0 0 140.9354 192.0408
  L 140.6633 191.9145
  A 3.35 3.35 0.0 0 0 136.2142 193.5426
  L 132.8965 200.6901
  A 3.35 3.35 0.0 0 0 134.5246 205.1392
  L 134.7967 205.2655
  A 3.35 3.35 0.0 0 0 139.2458 203.6374
  L 142.5635 196.4899"
/>
<path stroke="#c4467f" vector-effect="non-scaling-stroke" d="
  M 88.9640 195.1000
  A 3.32 3.32 0.0 0 0 85.4748 191.9583
  L 85.0753 191.9792
  A 3.32 3.32 0.0 0 0 81.9336 195.4684
  L 82.2560 201.6200
  A 3.32 3.32 0.0 0 0 85.7452 204.7617
  L 86.1447 204.7408
  A 3.32 3.32 0.0 0 0 89.2864 201.2516
  L 88.9640 195.1000"
/>
<path stroke="#c4467f" vector-effect="non-scaling-stroke" d="
  M 210.8671 207.5793
  A 3.26 3.26 0.0 0 0 208.0668 203.9168
  L 207.6704 203.8639
  A 3.26 3.26 0.0 0 0 204.0078 206.6641
  L 203.0529 213.8207
  A 3.26 3.26 0.0 0 0 205.8532 217.4832
  L 206.2496 217.5361
  A 3.26 3.26 0.0 0 0 209.9122 214.7359
  L 210.8671 207.5793"
/>
<path stroke="#c4467f" vector-effect="non-scaling-stroke" d="
  M 155.8366 226.3434
  A 6.13 3.73 -20.1 0 0 148.7981 224.9472
  A 6.13 3.73 -20.1 0 0 144.3234 230.5566
  A 6.13 3.73 -20.1 0 0 151.3619 231.9528
  A 6.13 3.73 -20.1 0 0 155.8366 226.3434"
/>
</g>
<path fill="#000000" d="
  M 59.68 230.89
  C 53.44 224.39 49.28 216.28 49.41 207.25
  C 49.61 192.18 55.58 180.48 63.90 168.12
  Q 84.95 136.85 118.09 118.08
  Q 143.46 103.71 166.67 95.14
  C 171.45 93.38 177.27 92.11 183.30 91.13
  Q 193.12 89.53 203.05 87.32
  C 205.72 86.72 208.50 86.68 211.08 86.61
  A 9.56 9.48 -54.5 0 0 213.70 86.16
  Q 217.03 85.10 218.77 85.07
  Q 235.67 84.80 239.25 85.25
  C 241.60 85.54 244.06 86.25 246.78 86.58
  C 265.11 88.81 282.10 93.97 298.15 103.84
  Q 308.04 109.92 315.17 117.61
  C 321.88 124.83 323.47 132.74 325.41 142.76
  A 3.71 3.68 -66.0 0 0 325.83 143.87
  C 331.31 153.14 334.21 157.93 336.15 166.87
  C 337.74 174.19 336.92 183.69 337.08 190.90
  Q 337.20 196.21 336.03 203.00
  C 332.55 223.22 324.39 240.70 312.60 257.10
  Q 304.39 268.50 292.36 277.65
  Q 267.93 296.22 236.02 306.03
  Q 212.74 313.19 190.44 316.16
  Q 182.28 317.24 175.02 317.13
  Q 169.53 317.05 164.68 317.12
  Q 160.96 317.17 154.38 316.33
  Q 139.26 314.41 118.35 305.67
  Q 95.21 296.01 79.57 277.23
  C 72.16 268.34 67.12 257.92 64.20 246.34
  Q 62.44 239.33 61.03 233.38
  A 5.45 5.41 -73.7 0 0 59.68 230.89
  Z
  M 83.54 223.00
  L 103.70 216.47
  Q 115.81 212.39 125.59 219.18
  C 131.77 223.46 134.26 231.11 136.81 238.33
  C 138.38 242.81 141.60 248.25 144.34 251.20
  C 149.55 256.82 158.29 258.43 164.86 254.61
  Q 169.66 251.82 173.95 248.19
  L 182.20 240.85
  C 192.05 233.21 201.61 228.51 214.33 230.95
  C 217.87 231.63 220.09 232.71 224.45 234.42
  C 230.02 236.61 235.06 236.89 240.39 234.68
  Q 250.93 230.29 254.50 220.63
  Q 257.70 211.32 258.20 207.48
  Q 259.04 200.96 260.85 194.29
  Q 268.06 178.44 285.08 172.36
  Q 286.12 171.99 293.48 168.81
  Q 298.49 166.64 301.14 164.03
  C 312.81 152.52 313.07 133.68 299.20 123.61
  Q 289.68 115.49 278.09 110.49
  Q 277.43 110.12 276.69 110.01
  L 268.88 106.63
  A 5.28 4.96 60.8 0 0 267.81 106.29
  C 263.72 105.47 260.29 103.72 256.24 103.48
  Q 255.36 103.42 252.60 102.57
  Q 246.31 100.62 240.58 100.87
  Q 238.59 100.96 236.18 100.28
  Q 235.20 100.00 231.57 99.88
  Q 224.54 99.66 220.22 100.77
  A 5.52 5.45 38.2 0 1 218.61 100.95
  Q 210.48 100.64 202.45 103.48
  A 2.22 2.16 38.6 0 1 201.44 103.58
  C 198.09 103.09 194.68 104.74 191.69 105.22
  Q 184.25 106.40 182.76 106.75
  Q 171.64 109.39 154.96 116.11
  C 145.32 120.00 139.13 124.08 127.25 130.77
  Q 94.85 149.02 74.19 180.68
  Q 70.45 186.43 66.57 195.86
  Q 64.47 200.98 64.19 205.49
  Q 63.90 210.15 66.52 215.03
  Q 71.64 224.54 83.54 223.00
  Z
  M 319.21 165.73
  Q 313.06 177.85 299.78 183.04
  C 287.29 187.92 277.13 191.35 274.19 205.66
  Q 273.46 209.21 272.73 213.76
  C 271.90 218.99 269.63 224.05 268.31 229.06
  Q 267.74 231.21 264.31 235.37
  C 257.29 243.91 247.42 250.01 236.47 250.74
  Q 224.35 251.53 212.68 246.33
  Q 206.70 243.66 201.12 247.08
  C 193.05 252.02 185.25 259.79 180.86 262.84
  Q 172.41 268.73 169.46 269.76
  Q 161.72 272.45 150.68 270.87
  Q 146.66 270.30 144.15 268.91
  Q 132.33 262.33 125.66 250.87
  C 123.60 247.33 122.12 242.64 119.99 237.03
  C 117.54 230.61 114.17 229.23 107.65 231.45
  C 104.09 232.66 98.85 234.02 94.87 235.40
  Q 87.47 237.96 79.08 238.15
  A 0.74 0.74 0.0 0 0 78.36 238.91
  Q 78.47 242.45 79.60 245.92
  C 86.84 268.07 104.87 283.43 125.82 292.18
  Q 133.13 295.23 148.04 300.02
  Q 148.92 300.30 158.05 301.26
  Q 161.90 301.66 165.40 302.32
  Q 170.37 303.27 177.02 302.54
  Q 189.79 301.15 191.58 300.84
  Q 205.19 298.47 220.48 294.67
  Q 253.77 286.39 282.26 265.51
  C 296.52 255.06 305.90 241.62 313.29 225.03
  Q 318.94 212.38 320.71 201.25
  Q 323.42 184.28 320.86 168.43
  Q 320.56 166.55 319.98 165.68
  A 0.45 0.45 0.0 0 0 319.21 165.73
  Z"
/>
<path fill="#fa7096" d="
  M 276.69 110.01
  C 274.62 110.32 273.47 109.06 271.93 108.86
  C 269.52 108.54 267.53 107.49 264.66 106.81
  Q 239.75 100.89 212.81 102.33
  C 211.31 102.41 210.71 102.96 209.05 102.88
  Q 206.60 102.75 204.85 103.64
  A 2.13 2.07 31.7 0 1 203.87 103.86
  Q 199.41 103.74 197.70 107.46
  A 2.02 1.94 54.4 0 0 197.54 108.56
  Q 198.05 112.41 201.92 111.59
  Q 209.22 110.05 214.50 109.85
  C 242.10 108.81 268.94 113.16 292.37 127.36
  Q 297.06 130.21 299.20 123.61
  C 313.07 133.68 312.81 152.52 301.14 164.03
  Q 298.49 166.64 293.48 168.81
  Q 286.12 171.99 285.08 172.36
  Q 268.06 178.44 260.85 194.29
  Q 257.79 189.40 254.47 193.04
  Q 253.85 193.73 253.60 194.91
  Q 251.94 202.83 249.56 210.81
  Q 247.31 218.37 241.73 224.16
  C 238.19 227.84 243.60 232.13 246.89 229.61
  Q 250.56 226.80 254.50 220.63
  Q 250.93 230.29 240.39 234.68
  C 235.06 236.89 230.02 236.61 224.45 234.42
  C 220.09 232.71 217.87 231.63 214.33 230.95
  C 201.61 228.51 192.05 233.21 182.20 240.85
  C 183.39 238.48 186.35 235.99 185.98 233.33
  Q 185.62 230.73 182.91 230.39
  A 1.94 1.91 -53.8 0 0 181.80 230.57
  Q 179.89 231.49 179.13 232.38
  Q 175.53 236.61 172.40 239.42
  C 168.84 242.60 165.73 243.72 161.31 245.52
  Q 157.49 247.07 158.74 250.57
  A 3.04 2.77 -8.1 0 0 161.47 252.43
  Q 164.24 252.49 167.40 251.13
  Q 170.59 249.75 173.95 248.19
  Q 169.66 251.82 164.86 254.61
  C 158.29 258.43 149.55 256.82 144.34 251.20
  C 141.60 248.25 138.38 242.81 136.81 238.33
  C 134.26 231.11 131.77 223.46 125.59 219.18
  Q 115.81 212.39 103.70 216.47
  C 105.38 212.29 102.71 208.83 98.29 210.79
  C 91.95 213.60 87.05 214.42 79.20 215.99
  A 2.77 2.62 21.5 0 0 78.33 216.34
  C 75.42 218.16 77.05 222.81 80.50 222.74
  Q 82.32 222.71 83.54 223.00
  Q 71.64 224.54 66.52 215.03
  Q 63.90 210.15 64.19 205.49
  Q 64.47 200.98 66.57 195.86
  Q 70.45 186.43 74.19 180.68
  Q 94.85 149.02 127.25 130.77
  C 139.13 124.08 145.32 120.00 154.96 116.11
  Q 171.64 109.39 182.76 106.75
  Q 184.25 106.40 191.69 105.22
  C 194.68 104.74 198.09 103.09 201.44 103.58
  A 2.22 2.16 38.6 0 0 202.45 103.48
  Q 210.48 100.64 218.61 100.95
  A 5.52 5.45 38.2 0 0 220.22 100.77
  Q 224.54 99.66 231.57 99.88
  Q 235.20 100.00 236.18 100.28
  Q 238.59 100.96 240.58 100.87
  Q 246.31 100.62 252.60 102.57
  Q 255.36 103.42 256.24 103.48
  C 260.29 103.72 263.72 105.47 267.81 106.29
  A 5.28 4.96 60.8 0 1 268.88 106.63
  L 276.69 110.01
  Z
  M 193.2869 124.8300
  A 3.31 3.31 0.0 0 0 190.2968 121.2285
  L 189.9583 121.1970
  A 3.31 3.31 0.0 0 0 186.3567 124.1871
  L 185.5531 132.8500
  A 3.31 3.31 0.0 0 0 188.5432 136.4515
  L 188.8817 136.4830
  A 3.31 3.31 0.0 0 0 192.4833 133.4929
  L 193.2869 124.8300
  Z
  M 245.5106 129.7713
  A 3.20 3.20 0.0 0 0 242.6382 126.2743
  L 236.9654 125.7181
  A 3.20 3.20 0.0 0 0 233.4684 128.5906
  L 233.4294 128.9887
  A 3.20 3.20 0.0 0 0 236.3018 132.4857
  L 241.9746 133.0419
  A 3.20 3.20 0.0 0 0 245.4716 130.1694
  L 245.5106 129.7713
  Z
  M 306.6903 137.1952
  A 3.18 3.06 -18.8 0 0 302.6939 135.3233
  A 3.18 3.06 -18.8 0 0 300.6697 139.2448
  A 3.18 3.06 -18.8 0 0 304.6661 141.1167
  A 3.18 3.06 -18.8 0 0 306.6903 137.1952
  Z
  M 142.3393 148.6698
  A 6.23 3.78 37.7 0 0 139.7216 141.8692
  A 6.23 3.78 37.7 0 0 132.4807 141.0502
  A 6.23 3.78 37.7 0 0 135.0984 147.8508
  A 6.23 3.78 37.7 0 0 142.3393 148.6698
  Z
  M 283.7021 144.7827
  A 3.47 3.47 0.0 0 0 279.3066 142.6008
  L 270.8714 145.4395
  A 3.47 3.47 0.0 0 0 268.6895 149.8350
  L 268.7979 150.1573
  A 3.47 3.47 0.0 0 0 273.1934 152.3392
  L 281.6286 149.5005
  A 3.47 3.47 0.0 0 0 283.8105 145.1050
  L 283.7021 144.7827
  Z
  M 144.29 185.95
  C 151.10 197.13 161.94 198.13 173.85 197.35
  C 188.14 196.42 202.28 190.28 212.21 179.49
  Q 217.92 173.30 217.63 164.87
  C 217.26 153.73 208.12 146.24 197.45 145.61
  C 185.36 144.91 172.91 147.72 162.23 152.96
  C 155.32 156.35 145.39 164.96 143.86 173.16
  Q 142.86 178.52 143.75 184.44
  A 4.12 4.09 -64.9 0 0 144.29 185.95
  Z
  M 109.5538 160.2339
  A 3.34 3.34 0.0 0 0 104.8392 159.9455
  L 100.1357 164.1068
  A 3.34 3.34 0.0 0 0 99.8474 168.8214
  L 100.0462 169.0461
  A 3.34 3.34 0.0 0 0 104.7608 169.3345
  L 109.4643 165.1732
  A 3.34 3.34 0.0 0 0 109.7526 160.4586
  L 109.5538 160.2339
  Z
  M 240.0550 177.0339
  A 3.34 3.34 0.0 0 0 235.5970 175.4728
  L 229.3074 178.4997
  A 3.34 3.34 0.0 0 0 227.7463 182.9577
  L 227.8850 183.2461
  A 3.34 3.34 0.0 0 0 232.3430 184.8072
  L 238.6326 181.7803
  A 3.34 3.34 0.0 0 0 240.1937 177.3223
  L 240.0550 177.0339
  Z
  M 123.39 188.58
  A 3.33 3.33 0.0 0 0 120.06 185.25
  A 3.33 3.33 0.0 0 0 116.73 188.58
  A 3.33 3.33 0.0 0 0 120.06 191.91
  A 3.33 3.33 0.0 0 0 123.39 188.58
  Z
  M 142.5635 196.4899
  A 3.35 3.35 0.0 0 0 140.9354 192.0408
  L 140.6633 191.9145
  A 3.35 3.35 0.0 0 0 136.2142 193.5426
  L 132.8965 200.6901
  A 3.35 3.35 0.0 0 0 134.5246 205.1392
  L 134.7967 205.2655
  A 3.35 3.35 0.0 0 0 139.2458 203.6374
  L 142.5635 196.4899
  Z
  M 88.9640 195.1000
  A 3.32 3.32 0.0 0 0 85.4748 191.9583
  L 85.0753 191.9792
  A 3.32 3.32 0.0 0 0 81.9336 195.4684
  L 82.2560 201.6200
  A 3.32 3.32 0.0 0 0 85.7452 204.7617
  L 86.1447 204.7408
  A 3.32 3.32 0.0 0 0 89.2864 201.2516
  L 88.9640 195.1000
  Z
  M 210.8671 207.5793
  A 3.26 3.26 0.0 0 0 208.0668 203.9168
  L 207.6704 203.8639
  A 3.26 3.26 0.0 0 0 204.0078 206.6641
  L 203.0529 213.8207
  A 3.26 3.26 0.0 0 0 205.8532 217.4832
  L 206.2496 217.5361
  A 3.26 3.26 0.0 0 0 209.9122 214.7359
  L 210.8671 207.5793
  Z
  M 155.8366 226.3434
  A 6.13 3.73 -20.1 0 0 148.7981 224.9472
  A 6.13 3.73 -20.1 0 0 144.3234 230.5566
  A 6.13 3.73 -20.1 0 0 151.3619 231.9528
  A 6.13 3.73 -20.1 0 0 155.8366 226.3434
  Z"
/>
<path fill="#ffffff" d="
  M 276.69 110.01
  Q 276.89 111.05 278.09 110.49
  Q 289.68 115.49 299.20 123.61
  Q 297.06 130.21 292.37 127.36
  C 268.94 113.16 242.10 108.81 214.50 109.85
  Q 209.22 110.05 201.92 111.59
  Q 198.05 112.41 197.54 108.56
  A 2.02 1.94 54.4 0 1 197.70 107.46
  Q 199.41 103.74 203.87 103.86
  A 2.13 2.07 31.7 0 0 204.85 103.64
  Q 206.60 102.75 209.05 102.88
  C 210.71 102.96 211.31 102.41 212.81 102.33
  Q 239.75 100.89 264.66 106.81
  C 267.53 107.49 269.52 108.54 271.93 108.86
  C 273.47 109.06 274.62 110.32 276.69 110.01
  Z"
/>
<path fill="#fa7096" d="
  M 278.09 110.49
  Q 276.89 111.05 276.69 110.01
  Q 277.43 110.12 278.09 110.49
  Z"
/>
<rect fill="#8d1c68" x="-3.48" y="-7.66" transform="translate(189.42,128.84) rotate(5.3)" width="6.96" height="15.32" rx="3.31"/>
<rect fill="#8d1c68" x="-6.05" y="-3.40" transform="translate(239.47,129.38) rotate(5.6)" width="12.10" height="6.80" rx="3.20"/>
<ellipse fill="#ffffff" cx="0.00" cy="0.00" transform="translate(303.68,138.22) rotate(-18.8)" rx="3.18" ry="3.06"/>
<ellipse fill="#8d1c68" cx="0.00" cy="0.00" transform="translate(137.41,144.86) rotate(37.7)" rx="6.23" ry="3.78"/>
<rect fill="#8d1c68" x="-7.92" y="-3.64" transform="translate(276.25,147.47) rotate(-18.6)" width="15.84" height="7.28" rx="3.47"/>
<path fill="#000000" d="
  M 143.75 184.44
  Q 142.86 178.52 143.86 173.16
  C 145.39 164.96 155.32 156.35 162.23 152.96
  C 172.91 147.72 185.36 144.91 197.45 145.61
  C 208.12 146.24 217.26 153.73 217.63 164.87
  Q 217.92 173.30 212.21 179.49
  C 202.28 190.28 188.14 196.42 173.85 197.35
  C 161.94 198.13 151.10 197.13 144.29 185.95
  A 4.12 4.09 -64.9 0 1 143.75 184.44
  Z
  M 157.91 177.67
  A 1.89 1.89 0.0 0 0 158.43 180.00
  Q 161.80 182.66 165.56 182.87
  Q 186.33 184.06 200.62 169.36
  Q 203.54 166.36 201.55 163.48
  C 199.61 160.66 197.16 159.40 193.50 159.91
  Q 185.28 161.05 180.56 162.06
  C 171.77 163.95 162.07 169.31 157.91 177.67
  Z"
/>
<rect fill="#8d1c68" x="-6.48" y="-3.49" transform="translate(104.80,164.64) rotate(-41.5)" width="12.96" height="6.98" rx="3.34"/>
<path fill="#bf8167" d="
  M 319.98 165.68
  Q 320.56 166.55 320.86 168.43
  Q 323.42 184.28 320.71 201.25
  Q 318.94 212.38 313.29 225.03
  C 305.90 241.62 296.52 255.06 282.26 265.51
  Q 253.77 286.39 220.48 294.67
  Q 205.19 298.47 191.58 300.84
  Q 189.79 301.15 177.02 302.54
  Q 170.37 303.27 165.40 302.32
  Q 161.90 301.66 158.05 301.26
  Q 148.92 300.30 148.04 300.02
  Q 133.13 295.23 125.82 292.18
  C 104.87 283.43 86.84 268.07 79.60 245.92
  Q 78.47 242.45 78.36 238.91
  A 0.74 0.74 0.0 0 1 79.08 238.15
  Q 87.47 237.96 94.87 235.40
  C 98.85 234.02 104.09 232.66 107.65 231.45
  C 114.17 229.23 117.54 230.61 119.99 237.03
  C 122.12 242.64 123.60 247.33 125.66 250.87
  Q 132.33 262.33 144.15 268.91
  Q 146.66 270.30 150.68 270.87
  Q 161.72 272.45 169.46 269.76
  Q 172.41 268.73 180.86 262.84
  C 185.25 259.79 193.05 252.02 201.12 247.08
  Q 206.70 243.66 212.68 246.33
  Q 224.35 251.53 236.47 250.74
  C 247.42 250.01 257.29 243.91 264.31 235.37
  Q 267.74 231.21 268.31 229.06
  C 269.63 224.05 271.90 218.99 272.73 213.76
  Q 273.46 209.21 274.19 205.66
  C 277.13 191.35 287.29 187.92 299.78 183.04
  Q 313.06 177.85 319.21 165.73
  A 0.45 0.45 0.0 0 1 319.98 165.68
  Z"
/>
<rect fill="#8d1c68" x="-6.83" y="-3.50" transform="translate(233.97,180.14) rotate(-25.7)" width="13.66" height="7.00" rx="3.34"/>
<circle fill="#ffffff" cx="120.06" cy="188.58" r="3.33"/>
<rect fill="#8d1c68" x="-3.50" y="-7.29" transform="translate(137.73,198.59) rotate(24.9)" width="7.00" height="14.58" rx="3.35"/>
<path fill="#ffffff" d="
  M 260.85 194.29
  Q 259.04 200.96 258.20 207.48
  Q 257.70 211.32 254.50 220.63
  Q 250.56 226.80 246.89 229.61
  C 243.60 232.13 238.19 227.84 241.73 224.16
  Q 247.31 218.37 249.56 210.81
  Q 251.94 202.83 253.60 194.91
  Q 253.85 193.73 254.47 193.04
  Q 257.79 189.40 260.85 194.29
  Z"
/>
<rect fill="#8d1c68" x="-3.52" y="-6.40" transform="translate(85.61,198.36) rotate(-3.0)" width="7.04" height="12.80" rx="3.32"/>
<rect fill="#8d1c68" x="-3.46" y="-6.87" transform="translate(206.96,210.70) rotate(7.6)" width="6.92" height="13.74" rx="3.26"/>
<path fill="#ffffff" d="
  M 103.70 216.47
  L 83.54 223.00
  Q 82.32 222.71 80.50 222.74
  C 77.05 222.81 75.42 218.16 78.33 216.34
  A 2.77 2.62 21.5 0 1 79.20 215.99
  C 87.05 214.42 91.95 213.60 98.29 210.79
  C 102.71 208.83 105.38 212.29 103.70 216.47
  Z"
/>
<ellipse fill="#8d1c68" cx="0.00" cy="0.00" transform="translate(150.08,228.45) rotate(-20.1)" rx="6.13" ry="3.73"/>
<path fill="#ffffff" d="
  M 182.20 240.85
  L 173.95 248.19
  Q 170.59 249.75 167.40 251.13
  Q 164.24 252.49 161.47 252.43
  A 3.04 2.77 -8.1 0 1 158.74 250.57
  Q 157.49 247.07 161.31 245.52
  C 165.73 243.72 168.84 242.60 172.40 239.42
  Q 175.53 236.61 179.13 232.38
  Q 179.89 231.49 181.80 230.57
  A 1.94 1.91 -53.8 0 1 182.91 230.39
  Q 185.62 230.73 185.98 233.33
  C 186.35 235.99 183.39 238.48 182.20 240.85
  Z"
/>
</svg>
