<?xml version="1.0" encoding="UTF-8" standalone="no"?>
<!DOCTYPE svg PUBLIC "-//W3C//DTD SVG 1.1//EN" "http://www.w3.org/Graphics/SVG/1.1/DTD/svg11.dtd">
<svg xmlns="http://www.w3.org/2000/svg" version="1.1" viewBox="0.00 0.00 377.00 631.00">
<g stroke-width="2.00" fill="none" stroke-linecap="butt">
<path stroke="#808080" vector-effect="non-scaling-stroke" d="
  M 272.97 276.75
  L 279.96 272.61"
/>
<path stroke="#584880" vector-effect="non-scaling-stroke" d="
  M 279.96 272.61
  L 284.50 270.08
  A 0.50 0.49 66.2 0 0 284.73 269.48
  Q 282.04 262.25 277.48 254.80
  Q 271.97 245.78 268.24 240.29
  Q 260.41 228.75 247.52 216.98
  C 238.57 208.81 227.96 201.95 215.76 199.94
  Q 212.07 199.33 208.68 199.87
  Q 185.28 203.58 168.59 220.08
  Q 150.29 238.17 139.39 260.63
  Q 138.86 261.74 138.58 262.81
  A 0.63 0.62 -86.6 0 0 139.27 263.59
  Q 157.38 261.02 175.23 267.26
  Q 186.57 271.23 197.12 275.71
  Q 203.78 278.53 209.94 280.59
  C 220.72 284.18 228.83 286.81 237.33 287.34
  Q 240.64 287.55 247.55 286.66
  Q 253.20 285.93 257.54 284.44
  Q 265.88 281.56 272.97 276.75"
/>
<path stroke="#d7c8ff" vector-effect="non-scaling-stroke" d="
  M 279.96 272.61
  Q 267.89 250.83 252.24 233.76
  Q 246.19 227.17 231.44 212.69
  A 3.10 3.09 -47.4 0 0 226.92 212.89
  L 226.83 212.99
  A 3.70 3.69 -46.2 0 0 226.93 217.91
  C 235.16 226.76 243.48 234.87 250.68 243.66
  Q 263.33 259.10 272.97 276.75"
/>
<path stroke="#808080" vector-effect="non-scaling-stroke" d="
  M 288.84 340.27
  L 297.18 336.72"
/>
<path stroke="#185e7a" vector-effect="non-scaling-stroke" d="
  M 297.18 336.72
  Q 300.12 335.53 302.32 335.55
  A 1.61 1.61 0.0 0 0 303.93 334.05
  Q 304.11 331.57 303.81 329.74
  Q 302.15 319.80 298.14 304.46
  C 296.43 297.88 293.16 290.55 291.23 283.51
  A 1.46 1.45 -14.3 0 0 289.48 282.48
  Q 286.57 283.20 285.25 284.36"
/>
<path stroke="#808080" vector-effect="non-scaling-stroke" d="
  M 285.25 284.36
  L 278.24 288.24"
/>
<path stroke="#185e7a" vector-effect="non-scaling-stroke" d="
  M 278.24 288.24
  Q 259.25 300.68 236.86 299.64
  Q 228.80 299.26 219.37 296.69
  C 205.15 292.81 194.28 288.23 178.06 281.46
  C 165.81 276.34 151.93 273.36 138.68 276.10
  Q 131.42 277.60 128.73 284.72
  Q 120.78 305.69 117.53 325.59
  C 116.75 330.36 116.54 334.86 116.70 339.34
  A 0.61 0.61 0.0 0 0 117.40 339.92
  C 122.91 339.04 130.16 337.56 136.57 337.74
  C 156.92 338.32 175.82 342.40 194.12 350.18
  C 203.45 354.15 212.72 358.31 220.50 359.21
  Q 222.60 359.46 233.50 359.50
  Q 239.97 359.53 246.37 357.95
  Q 257.09 355.30 262.04 353.31
  Q 273.15 348.83 288.84 340.27"
/>
<path stroke="#98def9" vector-effect="non-scaling-stroke" d="
  M 278.24 288.24
  Q 284.07 303.73 287.35 322.34
  Q 289.09 332.23 288.84 340.27"
/>
<path stroke="#98def9" vector-effect="non-scaling-stroke" d="
  M 297.18 336.72
  Q 295.21 309.62 285.25 284.36"
/>
<path stroke="#808080" vector-effect="non-scaling-stroke" d="
  M 296.94 350.76
  Q 292.25 352.19 288.02 355.17"
/>
<path stroke="#135328" vector-effect="non-scaling-stroke" d="
  M 288.02 355.17
  Q 284.79 356.50 281.66 358.16
  C 272.46 363.06 261.94 367.65 251.34 369.76
  Q 241.82 371.66 239.50 371.71
  Q 227.44 371.99 222.74 371.77
  C 213.00 371.32 204.29 368.82 194.60 364.21
  Q 186.93 360.56 172.30 355.71
  Q 162.54 352.48 153.87 351.60
  Q 140.24 350.21 134.98 350.26
  Q 128.09 350.32 120.76 351.78
  Q 118.39 352.25 117.10 354.19
  A 2.08 1.98 66.8 0 0 116.77 355.08
  Q 116.51 356.99 117.26 361.51
  Q 122.15 391.06 143.97 410.59
  Q 155.32 420.74 172.61 428.21
  Q 178.06 430.56 187.23 432.60
  C 199.18 435.27 208.69 436.79 219.18 435.62
  C 240.00 433.29 258.08 426.69 274.50 413.63
  Q 276.70 411.88 278.31 410.16
  C 281.42 406.82 284.48 404.02 287.12 400.66
  Q 297.15 387.89 301.67 372.70
  A 8.48 8.28 56.9 0 0 302.01 370.98
  Q 302.40 367.11 303.50 364.25
  A 4.39 4.26 -33.4 0 0 303.79 362.93
  Q 303.95 359.75 304.53 357.15
  C 305.06 354.81 304.91 351.35 304.78 349.36
  A 1.29 1.29 0.0 0 0 303.00 348.25
  L 296.94 350.76"
/>
<path stroke="#92d3a8" vector-effect="non-scaling-stroke" d="
  M 288.02 355.17
  Q 288.55 358.25 290.12 359.37
  C 292.92 361.36 295.85 359.10 296.08 356.18
  Q 296.29 353.62 296.94 350.76"
/>
<path stroke="#92d3a8" vector-effect="non-scaling-stroke" d="
  M 288.5026 377.7813
  A 5.39 5.03 99.8 0 0 294.3766 373.3262
  A 5.39 5.03 99.8 0 0 290.3374 367.1587
  A 5.39 5.03 99.8 0 0 284.4634 371.6138
  A 5.39 5.03 99.8 0 0 288.5026 377.7813"
/>
<path stroke="#92d3a8" vector-effect="non-scaling-stroke" d="
  M 269.09 401.12
  Q 263.71 406.58 258.86 409.85
  Q 256.68 411.32 256.26 412.24
  C 254.98 415.10 258.12 418.01 260.94 416.76
  C 266.07 414.46 270.63 409.98 274.30 406.25
  C 277.98 402.52 282.39 397.89 284.60 392.73
  C 285.82 389.89 282.86 386.80 280.02 388.12
  Q 279.11 388.56 277.67 390.76
  Q 274.48 395.66 269.09 401.12"
/>
</g>
<path fill="#000000" d="
  M 319.08 335.23
  L 319.64 336.51
  A 1.98 1.94 -57.6 0 1 319.81 337.31
  L 319.81 355.63
  A 1.56 1.53 64.0 0 1 319.50 356.56
  Q 319.35 356.76 319.28 356.86
  A 1.94 1.94 0.0 0 0 318.91 358.00
  C 318.92 360.91 319.09 363.42 318.62 366.20
  Q 312.28 403.55 283.50 426.23
  Q 258.59 445.87 225.94 450.89
  C 218.29 452.07 209.48 451.96 202.25 451.65
  Q 197.46 451.43 190.55 449.89
  C 165.51 444.30 143.00 432.47 125.63 413.71
  Q 114.61 401.81 107.89 384.85
  Q 103.06 372.64 101.96 355.23
  Q 101.04 340.47 102.60 324.96
  C 104.53 305.89 111.03 287.19 118.22 269.18
  Q 130.02 239.62 150.28 216.69
  C 160.77 204.81 172.10 196.26 186.31 189.06
  Q 194.37 184.97 204.51 184.59
  Q 214.54 184.21 219.99 184.80
  Q 236.24 186.55 248.76 197.23
  C 264.71 210.83 278.53 226.38 288.83 244.42
  Q 304.31 271.56 313.61 302.88
  Q 316.39 312.25 318.02 322.00
  Q 319.13 328.60 318.98 334.75
  A 1.21 1.20 33.5 0 0 319.08 335.23
  Z
  M 272.97 276.75
  L 279.96 272.61
  L 284.50 270.08
  A 0.50 0.49 66.2 0 0 284.73 269.48
  Q 282.04 262.25 277.48 254.80
  Q 271.97 245.78 268.24 240.29
  Q 260.41 228.75 247.52 216.98
  C 238.57 208.81 227.96 201.95 215.76 199.94
  Q 212.07 199.33 208.68 199.87
  Q 185.28 203.58 168.59 220.08
  Q 150.29 238.17 139.39 260.63
  Q 138.86 261.74 138.58 262.81
  A 0.63 0.62 -86.6 0 0 139.27 263.59
  Q 157.38 261.02 175.23 267.26
  Q 186.57 271.23 197.12 275.71
  Q 203.78 278.53 209.94 280.59
  C 220.72 284.18 228.83 286.81 237.33 287.34
  Q 240.64 287.55 247.55 286.66
  Q 253.20 285.93 257.54 284.44
  Q 265.88 281.56 272.97 276.75
  Z
  M 288.84 340.27
  L 297.18 336.72
  Q 300.12 335.53 302.32 335.55
  A 1.61 1.61 0.0 0 0 303.93 334.05
  Q 304.11 331.57 303.81 329.74
  Q 302.15 319.80 298.14 304.46
  C 296.43 297.88 293.16 290.55 291.23 283.51
  A 1.46 1.45 -14.3 0 0 289.48 282.48
  Q 286.57 283.20 285.25 284.36
  L 278.24 288.24
  Q 259.25 300.68 236.86 299.64
  Q 228.80 299.26 219.37 296.69
  C 205.15 292.81 194.28 288.23 178.06 281.46
  C 165.81 276.34 151.93 273.36 138.68 276.10
  Q 131.42 277.60 128.73 284.72
  Q 120.78 305.69 117.53 325.59
  C 116.75 330.36 116.54 334.86 116.70 339.34
  A 0.61 0.61 0.0 0 0 117.40 339.92
  C 122.91 339.04 130.16 337.56 136.57 337.74
  C 156.92 338.32 175.82 342.40 194.12 350.18
  C 203.45 354.15 212.72 358.31 220.50 359.21
  Q 222.60 359.46 233.50 359.50
  Q 239.97 359.53 246.37 357.95
  Q 257.09 355.30 262.04 353.31
  Q 273.15 348.83 288.84 340.27
  Z
  M 296.94 350.76
  Q 292.25 352.19 288.02 355.17
  Q 284.79 356.50 281.66 358.16
  C 272.46 363.06 261.94 367.65 251.34 369.76
  Q 241.82 371.66 239.50 371.71
  Q 227.44 371.99 222.74 371.77
  C 213.00 371.32 204.29 368.82 194.60 364.21
  Q 186.93 360.56 172.30 355.71
  Q 162.54 352.48 153.87 351.60
  Q 140.24 350.21 134.98 350.26
  Q 128.09 350.32 120.76 351.78
  Q 118.39 352.25 117.10 354.19
  A 2.08 1.98 66.8 0 0 116.77 355.08
  Q 116.51 356.99 117.26 361.51
  Q 122.15 391.06 143.97 410.59
  Q 155.32 420.74 172.61 428.21
  Q 178.06 430.56 187.23 432.60
  C 199.18 435.27 208.69 436.79 219.18 435.62
  C 240.00 433.29 258.08 426.69 274.50 413.63
  Q 276.70 411.88 278.31 410.16
  C 281.42 406.82 284.48 404.02 287.12 400.66
  Q 297.15 387.89 301.67 372.70
  A 8.48 8.28 56.9 0 0 302.01 370.98
  Q 302.40 367.11 303.50 364.25
  A 4.39 4.26 -33.4 0 0 303.79 362.93
  Q 303.95 359.75 304.53 357.15
  C 305.06 354.81 304.91 351.35 304.78 349.36
  A 1.29 1.29 0.0 0 0 303.00 348.25
  L 296.94 350.76
  Z"
/>
<path fill="#af90ff" d="
  M 279.96 272.61
  Q 267.89 250.83 252.24 233.76
  Q 246.19 227.17 231.44 212.69
  A 3.10 3.09 -47.4 0 0 226.92 212.89
  L 226.83 212.99
  A 3.70 3.69 -46.2 0 0 226.93 217.91
  C 235.16 226.76 243.48 234.87 250.68 243.66
  Q 263.33 259.10 272.97 276.75
  Q 265.88 281.56 257.54 284.44
  Q 253.20 285.93 247.55 286.66
  Q 240.64 287.55 237.33 287.34
  C 228.83 286.81 220.72 284.18 209.94 280.59
  Q 203.78 278.53 197.12 275.71
  Q 186.57 271.23 175.23 267.26
  Q 157.38 261.02 139.27 263.59
  A 0.63 0.62 -86.6 0 1 138.58 262.81
  Q 138.86 261.74 139.39 260.63
  Q 150.29 238.17 168.59 220.08
  Q 185.28 203.58 208.68 199.87
  Q 212.07 199.33 215.76 199.94
  C 227.96 201.95 238.57 208.81 247.52 216.98
  Q 260.41 228.75 268.24 240.29
  Q 271.97 245.78 277.48 254.80
  Q 282.04 262.25 284.73 269.48
  A 0.50 0.49 66.2 0 1 284.50 270.08
  L 279.96 272.61
  Z"
/>
<path fill="#ffffff" d="
  M 279.96 272.61
  L 272.97 276.75
  Q 263.33 259.10 250.68 243.66
  C 243.48 234.87 235.16 226.76 226.93 217.91
  A 3.70 3.69 -46.2 0 1 226.83 212.99
  L 226.92 212.89
  A 3.10 3.09 -47.4 0 1 231.44 212.69
  Q 246.19 227.17 252.24 233.76
  Q 267.89 250.83 279.96 272.61
  Z"
/>
<path fill="#30bcf3" d="
  M 278.24 288.24
  Q 284.07 303.73 287.35 322.34
  Q 289.09 332.23 288.84 340.27
  Q 273.15 348.83 262.04 353.31
  Q 257.09 355.30 246.37 357.95
  Q 239.97 359.53 233.50 359.50
  Q 222.60 359.46 220.50 359.21
  C 212.72 358.31 203.45 354.15 194.12 350.18
  C 175.82 342.40 156.92 338.32 136.57 337.74
  C 130.16 337.56 122.91 339.04 117.40 339.92
  A 0.61 0.61 0.0 0 1 116.70 339.34
  C 116.54 334.86 116.75 330.36 117.53 325.59
  Q 120.78 305.69 128.73 284.72
  Q 131.42 277.60 138.68 276.10
  C 151.93 273.36 165.81 276.34 178.06 281.46
  C 194.28 288.23 205.15 292.81 219.37 296.69
  Q 228.80 299.26 236.86 299.64
  Q 259.25 300.68 278.24 288.24
  Z"
/>
<path fill="#30bcf3" d="
  M 297.18 336.72
  Q 295.21 309.62 285.25 284.36
  Q 286.57 283.20 289.48 282.48
  A 1.46 1.45 -14.3 0 1 291.23 283.51
  C 293.16 290.55 296.43 297.88 298.14 304.46
  Q 302.15 319.80 303.81 329.74
  Q 304.11 331.57 303.93 334.05
  A 1.61 1.61 0.0 0 1 302.32 335.55
  Q 300.12 335.53 297.18 336.72
  Z"
/>
<path fill="#ffffff" d="
  M 285.25 284.36
  Q 295.21 309.62 297.18 336.72
  L 288.84 340.27
  Q 289.09 332.23 287.35 322.34
  Q 284.07 303.73 278.24 288.24
  L 285.25 284.36
  Z"
/>
<path fill="#25a650" d="
  M 288.02 355.17
  Q 288.55 358.25 290.12 359.37
  C 292.92 361.36 295.85 359.10 296.08 356.18
  Q 296.29 353.62 296.94 350.76
  L 303.00 348.25
  A 1.29 1.29 0.0 0 1 304.78 349.36
  C 304.91 351.35 305.06 354.81 304.53 357.15
  Q 303.95 359.75 303.79 362.93
  A 4.39 4.26 -33.4 0 1 303.50 364.25
  Q 302.40 367.11 302.01 370.98
  A 8.48 8.28 56.9 0 1 301.67 372.70
  Q 297.15 387.89 287.12 400.66
  C 284.48 404.02 281.42 406.82 278.31 410.16
  Q 276.70 411.88 274.50 413.63
  C 258.08 426.69 240.00 433.29 219.18 435.62
  C 208.69 436.79 199.18 435.27 187.23 432.60
  Q 178.06 430.56 172.61 428.21
  Q 155.32 420.74 143.97 410.59
  Q 122.15 391.06 117.26 361.51
  Q 116.51 356.99 116.77 355.08
  A 2.08 1.98 66.8 0 1 117.10 354.19
  Q 118.39 352.25 120.76 351.78
  Q 128.09 350.32 134.98 350.26
  Q 140.24 350.21 153.87 351.60
  Q 162.54 352.48 172.30 355.71
  Q 186.93 360.56 194.60 364.21
  C 204.29 368.82 213.00 371.32 222.74 371.77
  Q 227.44 371.99 239.50 371.71
  Q 241.82 371.66 251.34 369.76
  C 261.94 367.65 272.46 363.06 281.66 358.16
  Q 284.79 356.50 288.02 355.17
  Z
  M 288.5026 377.7813
  A 5.39 5.03 99.8 0 0 294.3766 373.3262
  A 5.39 5.03 99.8 0 0 290.3374 367.1587
  A 5.39 5.03 99.8 0 0 284.4634 371.6138
  A 5.39 5.03 99.8 0 0 288.5026 377.7813
  Z
  M 269.09 401.12
  Q 263.71 406.58 258.86 409.85
  Q 256.68 411.32 256.26 412.24
  C 254.98 415.10 258.12 418.01 260.94 416.76
  C 266.07 414.46 270.63 409.98 274.30 406.25
  C 277.98 402.52 282.39 397.89 284.60 392.73
  C 285.82 389.89 282.86 386.80 280.02 388.12
  Q 279.11 388.56 277.67 390.76
  Q 274.48 395.66 269.09 401.12
  Z"
/>
<path fill="#ffffff" d="
  M 296.94 350.76
  Q 296.29 353.62 296.08 356.18
  C 295.85 359.10 292.92 361.36 290.12 359.37
  Q 288.55 358.25 288.02 355.17
  Q 292.25 352.19 296.94 350.76
  Z"
/>
<ellipse fill="#ffffff" cx="0.00" cy="0.00" transform="translate(289.42,372.47) rotate(99.8)" rx="5.39" ry="5.03"/>
<path fill="#ffffff" d="
  M 274.30 406.25
  C 270.63 409.98 266.07 414.46 260.94 416.76
  C 258.12 418.01 254.98 415.10 256.26 412.24
  Q 256.68 411.32 258.86 409.85
  Q 263.71 406.58 269.09 401.12
  Q 274.48 395.66 277.67 390.76
  Q 279.11 388.56 280.02 388.12
  C 282.86 386.80 285.82 389.89 284.60 392.73
  C 282.39 397.89 277.98 402.52 274.30 406.25
  Z"
/>
</svg>
