<?xml version="1.0" encoding="UTF-8" standalone="no"?>
<!DOCTYPE svg PUBLIC "-//W3C//DTD SVG 1.1//EN" "http://www.w3.org/Graphics/SVG/1.1/DTD/svg11.dtd">
<svg xmlns="http://www.w3.org/2000/svg" version="1.1" viewBox="0.00 0.00 381.00 449.00">
<g stroke-width="2.00" fill="none" stroke-linecap="butt">
<path stroke="#777878" vector-effect="non-scaling-stroke" d="
  M 307.01 189.59
  L 300.38 194.42"
/>
<path stroke="#6a1d23" vector-effect="non-scaling-stroke" d="
  M 300.38 194.42
  L 296.14 196.96
  A 1.48 1.22 13.6 0 1 295.81 197.12
  C 284.57 201.51 271.36 202.55 260.37 197.57
  C 251.44 193.53 244.94 188.04 240.45 179.21
  C 237.21 172.84 238.13 161.93 239.14 154.82
  Q 239.21 154.38 238.86 153.89"
/>
<path stroke="#777878" vector-effect="non-scaling-stroke" d="
  M 238.86 153.89
  L 239.71 151.77"
/>
<path stroke="#6a1d23" vector-effect="non-scaling-stroke" d="
  M 239.71 151.77
  Q 241.49 150.31 241.73 148.70
  A 2.66 2.43 17.9 0 0 240.24 146.08
  Q 236.34 144.18 233.52 142.16
  Q 228.83 138.81 227.09 137.79
  Q 218.71 132.86 210.62 129.39
  Q 209.36 128.86 199.93 126.43
  A 4.91 4.87 52.8 0 0 198.73 126.26
  Q 194.47 126.17 191.34 125.51
  C 189.63 125.15 187.64 125.61 186.20 126.22
  A 0.75 0.75 0.0 0 0 185.80 127.20
  C 190.31 137.97 191.26 148.93 183.33 158.55
  Q 177.75 165.30 169.52 168.86
  C 166.92 169.97 160.62 172.42 157.25 172.69
  Q 153.09 173.03 144.60 172.80
  C 138.08 172.63 134.48 169.90 129.43 166.81
  A 0.77 0.76 -62.0 0 0 128.34 167.15
  C 123.75 177.34 121.44 187.12 118.94 199.41
  Q 117.40 207.03 112.32 212.91
  A 0.69 0.68 32.0 0 0 112.57 213.98
  Q 117.15 215.96 120.35 217.67
  Q 140.26 228.31 143.99 250.75
  C 145.09 257.31 144.21 262.72 142.37 269.58
  C 141.06 274.44 138.91 277.56 136.16 281.77
  A 0.59 0.59 0.0 0 0 136.62 282.68
  Q 158.12 284.16 180.71 280.77
  C 198.21 278.15 217.20 272.54 233.87 266.29
  Q 255.33 258.25 277.95 243.19
  Q 285.32 238.28 287.15 236.90
  Q 292.83 232.60 299.70 224.95
  Q 308.06 215.65 310.62 206.34
  C 311.21 204.20 312.46 202.47 312.51 199.76
  Q 312.63 193.94 312.83 191.55
  A 7.26 7.12 42.5 0 0 312.72 189.52
  L 312.09 186.42
  A 0.88 0.88 0.0 0 0 310.61 185.97
  L 307.01 189.59"
/>
<path stroke="#e1949a" vector-effect="non-scaling-stroke" d="
  M 239.71 151.77
  Q 239.43 149.76 237.25 147.99
  Q 224.99 138.00 210.31 132.30
  Q 208.59 131.63 207.11 132.92
  Q 204.18 135.48 207.17 138.53
  A 2.45 2.45 0.0 0 0 207.80 138.97
  Q 220.79 145.00 223.53 146.96
  Q 230.72 152.11 233.74 154.34
  Q 236.34 156.25 238.86 153.89"
/>
<path stroke="#e1949a" vector-effect="non-scaling-stroke" d="
  M 300.38 194.42
  Q 302.51 199.54 300.36 204.62
  C 296.68 213.29 289.97 220.37 282.90 227.55
  A 3.10 3.10 0.0 0 0 283.10 232.08
  L 283.22 232.18
  A 3.68 3.68 0.0 0 0 288.06 232.11
  Q 297.89 223.29 304.69 212.66
  Q 311.77 201.58 307.01 189.59"
/>
<path stroke="#777878" vector-effect="non-scaling-stroke" d="
  M 145.55 161.30
  L 149.23 161.34"
/>
<path stroke="#777878" vector-effect="non-scaling-stroke" d="
  M 152.57 161.00
  C 158.94 159.32 166.59 158.24 171.69 152.96
  Q 180.46 143.88 174.57 131.45
  C 173.25 128.67 171.85 127.47 168.70 128.42
  C 156.22 132.18 144.18 142.56 136.09 153.07
  A 1.83 1.81 -41.9 0 0 135.97 155.12
  Q 138.78 159.79 144.77 161.17"
/>
<path stroke="#777878" vector-effect="non-scaling-stroke" d="
  M 303.41 172.50
  C 299.80 166.97 290.12 163.89 283.11 162.19
  Q 268.88 158.74 255.62 154.47
  A 2.06 2.05 30.5 0 0 253.49 155.02
  C 250.32 158.43 250.32 164.44 250.72 168.76
  Q 251.38 175.88 256.23 180.28
  Q 263.75 187.09 272.16 188.36
  C 285.31 190.34 296.69 184.77 303.43 173.39
  A 0.86 0.86 0.0 0 0 303.41 172.50"
/>
<path stroke="#777878" vector-effect="non-scaling-stroke" d="
  M 119.60 279.52
  C 134.54 268.98 135.37 247.95 122.84 235.08
  C 117.81 229.91 113.66 227.25 106.85 225.18
  C 104.42 224.44 102.59 225.16 100.83 226.79
  Q 89.62 237.24 89.07 252.51
  C 88.77 261.03 95.96 269.99 102.92 273.82
  C 107.49 276.34 113.49 279.73 118.07 279.97
  A 2.46 2.43 -61.1 0 0 119.60 279.52"
/>
<path stroke="#755b49" vector-effect="non-scaling-stroke" d="
  M 189.06 298.78
  L 189.34 314.21"
/>
<path stroke="#755b49" vector-effect="non-scaling-stroke" d="
  M 189.54 315.44
  C 190.94 321.24 191.21 326.37 195.13 331.28
  C 199.08 336.24 204.58 340.25 210.70 341.63
  Q 213.42 342.25 215.04 342.90
  A 5.82 5.70 56.0 0 0 217.09 343.32
  C 223.57 343.41 229.89 343.76 236.60 342.50
  C 253.27 339.37 269.66 334.32 278.96 319.61
  C 284.78 310.41 284.82 296.63 280.45 287.32
  Q 278.64 283.45 274.54 277.19
  A 5.83 5.34 8.8 0 0 273.98 276.49
  L 268.60 270.90"
/>
<path stroke="#6c412a" vector-effect="non-scaling-stroke" d="
  M 268.60 270.90
  C 267.47 269.03 266.01 267.99 263.82 269.21
  Q 256.49 273.30 248.78 276.50
  Q 225.45 286.20 200.34 292.43
  C 196.86 293.29 193.67 293.53 190.10 294.27
  A 1.42 1.40 -75.8 0 0 189.29 294.76
  Q 187.32 297.21 189.06 298.78"
/>
<path stroke="#e19c73" vector-effect="non-scaling-stroke" d="
  M 268.60 270.90
  Q 265.41 272.56 264.05 274.25"
/>
<path stroke="#e2b9a2" vector-effect="non-scaling-stroke" d="
  M 264.05 274.25
  L 260.91 276.26"
/>
<path stroke="#e19c73" vector-effect="non-scaling-stroke" d="
  M 260.91 276.26
  Q 233.93 292.53 202.98 297.29
  Q 201.27 297.55 195.99 297.80
  Q 192.37 297.96 189.06 298.78"
/>
<path stroke="#ecd3c1" vector-effect="non-scaling-stroke" d="
  M 260.91 276.26
  Q 260.20 278.85 261.28 280.94
  Q 263.41 285.02 265.67 289.02
  Q 267.74 292.70 271.35 290.97
  A 2.73 2.73 0.0 0 0 272.77 287.70
  Q 270.19 279.46 264.05 274.25"
/>
<path stroke="#e1949a" vector-effect="non-scaling-stroke" d="
  M 199.52 132.24
  A 3.17 3.17 0.0 0 0 196.35 129.07
  A 3.17 3.17 0.0 0 0 193.18 132.24
  A 3.17 3.17 0.0 0 0 196.35 135.41
  A 3.17 3.17 0.0 0 0 199.52 132.24"
/>
<path stroke="#6a1d23" vector-effect="non-scaling-stroke" d="
  M 231.8496 217.8806
  A 37.12 33.58 -4.0 0 0 192.4776 186.9718
  A 37.12 33.58 -4.0 0 0 157.7904 223.0594
  A 37.12 33.58 -4.0 0 0 197.1624 253.9682
  A 37.12 33.58 -4.0 0 0 231.8496 217.8806"
/>
<path stroke="#777878" vector-effect="non-scaling-stroke" d="
  M 194.77 242.10
  Q 196.62 241.60 198.53 241.24
  C 216.28 237.83 227.73 218.54 211.23 204.66
  Q 207.09 201.17 202.32 200.08
  Q 187.00 196.56 176.30 207.43
  C 171.93 211.86 168.87 218.55 170.77 224.89
  C 173.63 234.47 180.98 239.94 190.51 241.99"
/>
<path stroke="#ecd3c1" vector-effect="non-scaling-stroke" d="
  M 278.71 299.59
  A 3.18 3.18 0.0 0 0 275.53 296.41
  A 3.18 3.18 0.0 0 0 272.35 299.59
  A 3.18 3.18 0.0 0 0 275.53 302.77
  A 3.18 3.18 0.0 0 0 278.71 299.59"
/>
</g>
<path fill="#000000" d="
  M 280.84 261.78
  C 291.66 272.17 298.67 285.43 298.96 300.23
  Q 299.54 329.96 274.63 345.08
  C 264.36 351.32 254.08 354.64 242.65 356.92
  Q 230.39 359.37 217.03 358.31
  C 204.71 357.33 193.73 353.63 185.59 344.00
  Q 176.82 333.62 175.34 320.98
  Q 174.04 309.91 173.11 298.54
  A 1.99 1.99 0.0 0 0 171.15 296.71
  C 167.14 296.68 162.62 298.00 158.81 298.23
  Q 146.34 298.96 133.44 298.20
  A 4.11 3.78 -32.2 0 1 132.51 298.03
  Q 130.43 297.36 123.79 296.64
  Q 107.78 294.90 93.73 286.26
  Q 79.06 277.25 74.66 261.12
  Q 72.09 251.67 74.89 240.58
  C 78.12 227.74 86.04 219.98 94.95 210.53
  C 100.12 205.05 103.56 198.50 105.04 191.79
  C 108.22 177.43 111.96 163.19 118.86 151.17
  C 128.74 133.96 148.54 116.51 168.97 112.99
  C 182.21 110.71 195.20 110.57 208.12 113.47
  Q 213.77 114.74 221.27 118.16
  Q 231.82 122.98 243.01 130.69
  Q 253.73 138.07 266.98 142.77
  Q 269.98 143.84 278.31 145.70
  C 291.71 148.69 305.53 152.67 315.65 162.40
  C 319.88 166.46 324.07 173.95 325.97 179.28
  C 328.62 186.72 328.22 194.96 327.05 203.21
  C 325.36 215.13 318.98 226.86 311.09 235.36
  Q 298.16 249.28 281.18 259.05
  A 1.72 1.72 0.0 0 0 280.84 261.78
  Z
  M 307.01 189.59
  L 300.38 194.42
  L 296.14 196.96
  A 1.48 1.22 13.6 0 1 295.81 197.12
  C 284.57 201.51 271.36 202.55 260.37 197.57
  C 251.44 193.53 244.94 188.04 240.45 179.21
  C 237.21 172.84 238.13 161.93 239.14 154.82
  Q 239.21 154.38 238.86 153.89
  L 239.71 151.77
  Q 241.49 150.31 241.73 148.70
  A 2.66 2.43 17.9 0 0 240.24 146.08
  Q 236.34 144.18 233.52 142.16
  Q 228.83 138.81 227.09 137.79
  Q 218.71 132.86 210.62 129.39
  Q 209.36 128.86 199.93 126.43
  A 4.91 4.87 52.8 0 0 198.73 126.26
  Q 194.47 126.17 191.34 125.51
  C 189.63 125.15 187.64 125.61 186.20 126.22
  A 0.75 0.75 0.0 0 0 185.80 127.20
  C 190.31 137.97 191.26 148.93 183.33 158.55
  Q 177.75 165.30 169.52 168.86
  C 166.92 169.97 160.62 172.42 157.25 172.69
  Q 153.09 173.03 144.60 172.80
  C 138.08 172.63 134.48 169.90 129.43 166.81
  A 0.77 0.76 -62.0 0 0 128.34 167.15
  C 123.75 177.34 121.44 187.12 118.94 199.41
  Q 117.40 207.03 112.32 212.91
  A 0.69 0.68 32.0 0 0 112.57 213.98
  Q 117.15 215.96 120.35 217.67
  Q 140.26 228.31 143.99 250.75
  C 145.09 257.31 144.21 262.72 142.37 269.58
  C 141.06 274.44 138.91 277.56 136.16 281.77
  A 0.59 0.59 0.0 0 0 136.62 282.68
  Q 158.12 284.16 180.71 280.77
  C 198.21 278.15 217.20 272.54 233.87 266.29
  Q 255.33 258.25 277.95 243.19
  Q 285.32 238.28 287.15 236.90
  Q 292.83 232.60 299.70 224.95
  Q 308.06 215.65 310.62 206.34
  C 311.21 204.20 312.46 202.47 312.51 199.76
  Q 312.63 193.94 312.83 191.55
  A 7.26 7.12 42.5 0 0 312.72 189.52
  L 312.09 186.42
  A 0.88 0.88 0.0 0 0 310.61 185.97
  L 307.01 189.59
  Z
  M 144.77 161.17
  C 144.55 161.25 144.33 161.35 144.14 161.37
  Q 144.13 161.38 144.14 161.38
  C 144.72 161.39 145.04 161.50 145.55 161.30
  L 149.23 161.34
  Q 151.34 161.84 152.57 161.00
  C 158.94 159.32 166.59 158.24 171.69 152.96
  Q 180.46 143.88 174.57 131.45
  C 173.25 128.67 171.85 127.47 168.70 128.42
  C 156.22 132.18 144.18 142.56 136.09 153.07
  A 1.83 1.81 -41.9 0 0 135.97 155.12
  Q 138.78 159.79 144.77 161.17
  Z
  M 303.41 172.50
  C 299.80 166.97 290.12 163.89 283.11 162.19
  Q 268.88 158.74 255.62 154.47
  A 2.06 2.05 30.5 0 0 253.49 155.02
  C 250.32 158.43 250.32 164.44 250.72 168.76
  Q 251.38 175.88 256.23 180.28
  Q 263.75 187.09 272.16 188.36
  C 285.31 190.34 296.69 184.77 303.43 173.39
  A 0.86 0.86 0.0 0 0 303.41 172.50
  Z
  M 119.60 279.52
  C 134.54 268.98 135.37 247.95 122.84 235.08
  C 117.81 229.91 113.66 227.25 106.85 225.18
  C 104.42 224.44 102.59 225.16 100.83 226.79
  Q 89.62 237.24 89.07 252.51
  C 88.77 261.03 95.96 269.99 102.92 273.82
  C 107.49 276.34 113.49 279.73 118.07 279.97
  A 2.46 2.43 -61.1 0 0 119.60 279.52
  Z
  M 189.06 298.78
  L 189.34 314.21
  Q 189.05 314.58 189.18 315.24
  Q 189.30 315.88 189.54 315.44
  C 190.94 321.24 191.21 326.37 195.13 331.28
  C 199.08 336.24 204.58 340.25 210.70 341.63
  Q 213.42 342.25 215.04 342.90
  A 5.82 5.70 56.0 0 0 217.09 343.32
  C 223.57 343.41 229.89 343.76 236.60 342.50
  C 253.27 339.37 269.66 334.32 278.96 319.61
  C 284.78 310.41 284.82 296.63 280.45 287.32
  Q 278.64 283.45 274.54 277.19
  A 5.83 5.34 8.8 0 0 273.98 276.49
  L 268.60 270.90
  C 267.47 269.03 266.01 267.99 263.82 269.21
  Q 256.49 273.30 248.78 276.50
  Q 225.45 286.20 200.34 292.43
  C 196.86 293.29 193.67 293.53 190.10 294.27
  A 1.42 1.40 -75.8 0 0 189.29 294.76
  Q 187.32 297.21 189.06 298.78
  Z"
/>
<path fill="#d43945" d="
  M 239.71 151.77
  Q 239.43 149.76 237.25 147.99
  Q 224.99 138.00 210.31 132.30
  Q 208.59 131.63 207.11 132.92
  Q 204.18 135.48 207.17 138.53
  A 2.45 2.45 0.0 0 0 207.80 138.97
  Q 220.79 145.00 223.53 146.96
  Q 230.72 152.11 233.74 154.34
  Q 236.34 156.25 238.86 153.89
  Q 239.21 154.38 239.14 154.82
  C 238.13 161.93 237.21 172.84 240.45 179.21
  C 244.94 188.04 251.44 193.53 260.37 197.57
  C 271.36 202.55 284.57 201.51 295.81 197.12
  A 1.48 1.22 13.6 0 0 296.14 196.96
  L 300.38 194.42
  Q 302.51 199.54 300.36 204.62
  C 296.68 213.29 289.97 220.37 282.90 227.55
  A 3.10 3.10 0.0 0 0 283.10 232.08
  L 283.22 232.18
  A 3.68 3.68 0.0 0 0 288.06 232.11
  Q 297.89 223.29 304.69 212.66
  Q 311.77 201.58 307.01 189.59
  L 310.61 185.97
  A 0.88 0.88 0.0 0 1 312.09 186.42
  L 312.72 189.52
  A 7.26 7.12 42.5 0 1 312.83 191.55
  Q 312.63 193.94 312.51 199.76
  C 312.46 202.47 311.21 204.20 310.62 206.34
  Q 308.06 215.65 299.70 224.95
  Q 292.83 232.60 287.15 236.90
  Q 285.32 238.28 277.95 243.19
  Q 255.33 258.25 233.87 266.29
  C 217.20 272.54 198.21 278.15 180.71 280.77
  Q 158.12 284.16 136.62 282.68
  A 0.59 0.59 0.0 0 1 136.16 281.77
  C 138.91 277.56 141.06 274.44 142.37 269.58
  C 144.21 262.72 145.09 257.31 143.99 250.75
  Q 140.26 228.31 120.35 217.67
  Q 117.15 215.96 112.57 213.98
  A 0.69 0.68 32.0 0 1 112.32 212.91
  Q 117.40 207.03 118.94 199.41
  C 121.44 187.12 123.75 177.34 128.34 167.15
  A 0.77 0.76 -62.0 0 1 129.43 166.81
  C 134.48 169.90 138.08 172.63 144.60 172.80
  Q 153.09 173.03 157.25 172.69
  C 160.62 172.42 166.92 169.97 169.52 168.86
  Q 177.75 165.30 183.33 158.55
  C 191.26 148.93 190.31 137.97 185.80 127.20
  A 0.75 0.75 0.0 0 1 186.20 126.22
  C 187.64 125.61 189.63 125.15 191.34 125.51
  Q 194.47 126.17 198.73 126.26
  A 4.91 4.87 52.8 0 1 199.93 126.43
  Q 209.36 128.86 210.62 129.39
  Q 218.71 132.86 227.09 137.79
  Q 228.83 138.81 233.52 142.16
  Q 236.34 144.18 240.24 146.08
  A 2.66 2.43 17.9 0 1 241.73 148.70
  Q 241.49 150.31 239.71 151.77
  Z
  M 199.52 132.24
  A 3.17 3.17 0.0 0 0 196.35 129.07
  A 3.17 3.17 0.0 0 0 193.18 132.24
  A 3.17 3.17 0.0 0 0 196.35 135.41
  A 3.17 3.17 0.0 0 0 199.52 132.24
  Z
  M 231.8496 217.8806
  A 37.12 33.58 -4.0 0 0 192.4776 186.9718
  A 37.12 33.58 -4.0 0 0 157.7904 223.0594
  A 37.12 33.58 -4.0 0 0 197.1624 253.9682
  A 37.12 33.58 -4.0 0 0 231.8496 217.8806
  Z"
/>
<path fill="#edefef" d="
  M 152.57 161.00
  L 149.23 161.34
  L 145.55 161.30
  L 144.77 161.17
  Q 138.78 159.79 135.97 155.12
  A 1.83 1.81 -41.9 0 1 136.09 153.07
  C 144.18 142.56 156.22 132.18 168.70 128.42
  C 171.85 127.47 173.25 128.67 174.57 131.45
  Q 180.46 143.88 171.69 152.96
  C 166.59 158.24 158.94 159.32 152.57 161.00
  Z"
/>
<circle fill="#edefef" cx="196.35" cy="132.24" r="3.17"/>
<path fill="#edefef" d="
  M 239.71 151.77
  L 238.86 153.89
  Q 236.34 156.25 233.74 154.34
  Q 230.72 152.11 223.53 146.96
  Q 220.79 145.00 207.80 138.97
  A 2.45 2.45 0.0 0 1 207.17 138.53
  Q 204.18 135.48 207.11 132.92
  Q 208.59 131.63 210.31 132.30
  Q 224.99 138.00 237.25 147.99
  Q 239.43 149.76 239.71 151.77
  Z"
/>
<path fill="#edefef" d="
  M 303.41 172.50
  A 0.86 0.86 0.0 0 1 303.43 173.39
  C 296.69 184.77 285.31 190.34 272.16 188.36
  Q 263.75 187.09 256.23 180.28
  Q 251.38 175.88 250.72 168.76
  C 250.32 164.44 250.32 158.43 253.49 155.02
  A 2.06 2.05 30.5 0 1 255.62 154.47
  Q 268.88 158.74 283.11 162.19
  C 290.12 163.89 299.80 166.97 303.41 172.50
  Z"
/>
<path fill="#000000" d="
  M 231.8496 217.8806
  A 37.12 33.58 -4.0 0 1 197.1624 253.9682
  A 37.12 33.58 -4.0 0 1 157.7904 223.0594
  A 37.12 33.58 -4.0 0 1 192.4776 186.9718
  A 37.12 33.58 -4.0 0 1 231.8496 217.8806
  Z
  M 190.51 241.99
  Q 192.66 242.46 194.77 242.10
  Q 196.62 241.60 198.53 241.24
  C 216.28 237.83 227.73 218.54 211.23 204.66
  Q 207.09 201.17 202.32 200.08
  Q 187.00 196.56 176.30 207.43
  C 171.93 211.86 168.87 218.55 170.77 224.89
  C 173.63 234.47 180.98 239.94 190.51 241.99
  Z"
/>
<path fill="#edefef" d="
  M 300.38 194.42
  L 307.01 189.59
  Q 311.77 201.58 304.69 212.66
  Q 297.89 223.29 288.06 232.11
  A 3.68 3.68 0.0 0 1 283.22 232.18
  L 283.10 232.08
  A 3.10 3.10 0.0 0 1 282.90 227.55
  C 289.97 220.37 296.68 213.29 300.36 204.62
  Q 302.51 199.54 300.38 194.42
  Z"
/>
<path fill="#edefef" d="
  M 194.77 242.10
  L 190.51 241.99
  C 180.98 239.94 173.63 234.47 170.77 224.89
  C 168.87 218.55 171.93 211.86 176.30 207.43
  Q 187.00 196.56 202.32 200.08
  Q 207.09 201.17 211.23 204.66
  C 227.73 218.54 216.28 237.83 198.53 241.24
  Q 196.62 241.60 194.77 242.10
  Z"
/>
<path fill="#edefef" d="
  M 118.07 279.97
  C 113.49 279.73 107.49 276.34 102.92 273.82
  C 95.96 269.99 88.77 261.03 89.07 252.51
  Q 89.62 237.24 100.83 226.79
  C 102.59 225.16 104.42 224.44 106.85 225.18
  C 113.66 227.25 117.81 229.91 122.84 235.08
  C 135.37 247.95 134.54 268.98 119.60 279.52
  A 2.46 2.43 -61.1 0 1 118.07 279.97
  Z"
/>
<path fill="#d78254" d="
  M 268.60 270.90
  Q 265.41 272.56 264.05 274.25
  L 260.91 276.26
  Q 233.93 292.53 202.98 297.29
  Q 201.27 297.55 195.99 297.80
  Q 192.37 297.96 189.06 298.78
  Q 187.32 297.21 189.29 294.76
  A 1.42 1.40 -75.8 0 1 190.10 294.27
  C 193.67 293.53 196.86 293.29 200.34 292.43
  Q 225.45 286.20 248.78 276.50
  Q 256.49 273.30 263.82 269.21
  C 266.01 267.99 267.47 269.03 268.60 270.90
  Z"
/>
<path fill="#eab692" d="
  M 189.54 315.44
  Q 189.59 314.78 189.34 314.21
  L 189.06 298.78
  Q 192.37 297.96 195.99 297.80
  Q 201.27 297.55 202.98 297.29
  Q 233.93 292.53 260.91 276.26
  Q 260.20 278.85 261.28 280.94
  Q 263.41 285.02 265.67 289.02
  Q 267.74 292.70 271.35 290.97
  A 2.73 2.73 0.0 0 0 272.77 287.70
  Q 270.19 279.46 264.05 274.25
  Q 265.41 272.56 268.60 270.90
  L 273.98 276.49
  A 5.83 5.34 8.8 0 1 274.54 277.19
  Q 278.64 283.45 280.45 287.32
  C 284.82 296.63 284.78 310.41 278.96 319.61
  C 269.66 334.32 253.27 339.37 236.60 342.50
  C 229.89 343.76 223.57 343.41 217.09 343.32
  A 5.82 5.70 56.0 0 1 215.04 342.90
  Q 213.42 342.25 210.70 341.63
  C 204.58 340.25 199.08 336.24 195.13 331.28
  C 191.21 326.37 190.94 321.24 189.54 315.44
  Z
  M 278.71 299.59
  A 3.18 3.18 0.0 0 0 275.53 296.41
  A 3.18 3.18 0.0 0 0 272.35 299.59
  A 3.18 3.18 0.0 0 0 275.53 302.77
  A 3.18 3.18 0.0 0 0 278.71 299.59
  Z"
/>
<path fill="#edefef" d="
  M 260.91 276.26
  L 264.05 274.25
  Q 270.19 279.46 272.77 287.70
  A 2.73 2.73 0.0 0 1 271.35 290.97
  Q 267.74 292.70 265.67 289.02
  Q 263.41 285.02 261.28 280.94
  Q 260.20 278.85 260.91 276.26
  Z"
/>
<circle fill="#edefef" cx="275.53" cy="299.59" r="3.18"/>
</svg>
